<svg xmlns="http://www.w3.org/2000/svg" xmlns:xlink="http://www.w3.org/1999/xlink" width="460" height="358" viewBox="0 0 460 358"><path stroke="#DADADA" d="M57.54 473.59M103.83 226V16.2M173.25 285V16.2m0 291.8v-23m0 46.2V308m-138.8 23.2v-315M242.67 331.2v-315m69.43 315v-315m69.5 315v-315" fill="none"/><path fill="#fff" d="M375.8 121.2h16.9v52.5h-16.9z"/><path stroke="#DADADA" fill="none" d="M451 331.2v-315"/><path fill="#808080" d="M435.3 303.58c1.17 0 1.78.63 1.78 2.25h-3.75c.12-1.77 1.11-2.25 1.97-2.25zm.34 6.93c1.28 0 2.15-.41 2.61-.75v-.98c-.7.36-1.36.58-2.4.58-1.53 0-2.43-.64-2.52-2.47h5.14v-.75c0-2.42-1.01-3.63-3.12-3.63-1.79 0-3.39 1.2-3.39 3.88v.23c.01 2.39 1.25 3.89 3.68 3.89zm-6.73 0c1.06 0 1.75-.29 2.27-.62v-1.05c-.39.19-1.08.54-2.12.54-1.56 0-2.37-.81-2.37-2.75v-.41c0-1.67.84-2.59 2.2-2.59 1.02 0 1.5.2 2.19.48v-1.09c-.51-.31-1.09-.51-2.1-.51-2.02 0-3.66 1.2-3.66 3.92v.25c0 2.58 1.4 3.83 3.59 3.83zm-7.7-6.93c1.17 0 1.78.63 1.78 2.25h-3.75c.13-1.77 1.12-2.25 1.97-2.25zm.35 6.93c1.28 0 2.14-.41 2.61-.75v-.98c-.7.36-1.36.58-2.4.58-1.53 0-2.43-.64-2.52-2.47h5.14v-.75c0-2.42-1-3.63-3.12-3.63-1.79 0-3.39 1.2-3.39 3.88v.23c0 2.39 1.25 3.89 3.68 3.89zm-7.79-6.93c1.17 0 1.79.63 1.79 2.25h-3.75c.12-1.77 1.11-2.25 1.96-2.25zm.35 6.93c1.27 0 2.14-.41 2.61-.75v-.98c-.71.36-1.37.58-2.4.58-1.53 0-2.43-.64-2.52-2.47h5.14v-.75c0-2.42-1-3.63-3.12-3.63-1.79 0-3.39 1.2-3.39 3.88v.23c0 2.39 1.25 3.89 3.68 3.89zm-8.27-.15h1.32v-6c.54-.36 1.28-.6 2-.6.14 0 .39.01.58.04v-1.17c-.07-.03-.29-.06-.48-.06-.82 0-1.65.44-2.08.95h-.08v-.85h-1.26v7.69zm-5.04.18c1.35 0 2.46-.29 3.25-.6v-4.68h-3.52v1.14h2.16v2.7c-.45.17-1.15.29-1.84.29-2.75 0-3.41-1.73-3.41-4.02v-.48c0-2.04.83-3.93 3.37-3.93 1.41 0 2.21.34 2.84.63v-1.17c-.62-.33-1.44-.63-2.73-.63-2.59 0-4.95 1.33-4.95 5.31v.3c0 3.59 1.92 5.14 4.83 5.14zM301.73 219.97h1.32v-11.08h-1.32v11.08zm-4.84-.87c-.83 0-1.37-.39-1.37-1.2 0-.84.44-1.18 1.3-1.27l1.7-.18v2.13c-.33.29-.97.52-1.63.52zm-.35 1.02c1.02 0 1.63-.36 2.01-.79h.09l.14.64h1.07v-5.58c0-1.54-.98-2.26-2.69-2.26-.93 0-1.66.15-2.36.42v.95c.47-.11 1.08-.23 1.83-.23 1.38 0 1.89.29 1.89 1.46v.72l-2.04.26c-1.46.18-2.33.9-2.33 2.23.01 1.47 1.01 2.18 2.39 2.18zm-6.69-3.9c-.97 0-1.61-.46-1.61-1.44v-.23c0-.9.59-1.42 1.61-1.42.97 0 1.61.45 1.61 1.46v.22c0 .94-.59 1.41-1.61 1.41zm-.06 5.65c-1.44 0-2.05-.36-2.05-1.07 0-.62.41-1.02.93-1.2h2.18c.99 0 1.3.29 1.3.98 0 .78-.62 1.29-2.36 1.29zm.03 1.08c2.62 0 3.71-1.17 3.71-2.58 0-1.5-1.04-2.03-2.44-2.03h-2.12c-.5 0-.72-.24-.72-.66 0-.24.13-.48.32-.64.39.12.83.18 1.29.18 1.62 0 2.92-.81 2.92-2.47v-.15c0-.55-.17-.99-.48-1.33h1.3v-1h-2.62c-.35-.09-.72-.13-1.11-.13-1.71 0-2.94.92-2.94 2.54v.15c0 .9.38 1.53.96 1.92-.62.45-.88.96-.88 1.49s.33.9.78 1.06v.08c-.79.27-1.44.83-1.44 1.65-.01 1.16 1.13 1.92 3.47 1.92zm-8.31-2.83c.95 0 1.72-.36 2.37-.81h.08l.13.66h1.12v-7.69h-1.32v6.15c-.55.29-1.2.55-1.99.55-1.11 0-1.43-.39-1.43-1.33v-5.37h-1.32v5.58c.01 1.48.85 2.26 2.36 2.26zm-4.95-.06c.69 0 1-.17 1.32-.31v-.89c-.3.08-.66.12-.98.12-.87 0-1.11-.27-1.11-1v-4.6h1.94v-1.09h-1.94v-1.83h-1.32v1.83h-1.09v1.09h1.09v4.8c.01 1.35.86 1.88 2.09 1.88zm-7.71-.09h1.32v-6c.54-.36 1.28-.6 1.99-.6.14 0 .39.01.59.04v-1.17c-.08-.03-.29-.06-.48-.06-.82 0-1.65.44-2.08.95h-.08v-.85h-1.26v7.69zm-4.9-.93c-1.2 0-2.18-.65-2.18-2.73v-.42c0-1.71.78-2.68 2.13-2.68 1.2 0 2.17.66 2.17 2.75v.42c.01 1.71-.79 2.66-2.12 2.66zm-.03 1.08c2.12 0 3.53-1.47 3.53-3.9v-.24c0-2.41-1.3-3.85-3.51-3.85-2.12 0-3.53 1.49-3.53 3.9v.26c0 2.4 1.29 3.83 3.51 3.83zm-9.6-5.39v-4h1.82c1.56 0 2.15.58 2.15 2.04 0 1.33-.62 1.96-2.18 1.96h-1.79zm-1.37 5.24h1.36v-4.09h2.09c1.96 0 3.33-1.11 3.33-3.21 0-1.96-1.17-3.09-3.46-3.09h-3.32v10.39zM211.82 198.21h1.32v-6.19c.55-.26 1.35-.51 2.02-.51 1.21 0 1.5.38 1.5 1.26v5.44h1.32v-5.73c0-1.49-.72-2.12-2.23-2.12-.95 0-1.95.36-2.6.81h-.07v-.66h-1.26v7.7zm-3.27-9.22h1.35v-1.37h-1.35v1.37zm.01 9.22h1.32v-7.69h-1.32v7.69zm-4.84-.87c-.82 0-1.36-.39-1.36-1.2 0-.84.44-1.18 1.3-1.27l1.7-.18v2.13c-.34.3-.98.52-1.64.52zm-.35 1.03c1.02 0 1.63-.36 2.01-.79h.09l.14.64h1.06v-5.58c0-1.54-.98-2.26-2.69-2.26-.93 0-1.66.15-2.35.42v.95c.47-.11 1.08-.23 1.83-.23 1.38 0 1.89.29 1.89 1.46v.72l-2.04.26c-1.46.18-2.32.9-2.32 2.23 0 1.47 1 2.18 2.38 2.18zm-6.93-1.08c-.78 0-1.47-.25-1.8-.53v-4.74c.33-.24 1.02-.53 1.87-.53 1.38 0 2.15.63 2.15 2.71v.33c0 2.02-.82 2.76-2.22 2.76zm-3.12 3.85h1.32v-3.27c.4.24 1.05.5 1.92.5 2.11 0 3.46-1.19 3.46-4v-.21c0-2.83-1.49-3.78-3.15-3.78-.95 0-1.75.33-2.22.76h-.07v-.61h-1.26v10.61zm-4.99-2.73c2.44 0 3.51-1.23 3.51-3.06 0-1.75-.96-2.43-2.49-2.94l-1.08-.36c-1.09-.36-1.42-.78-1.42-1.72 0-.96.69-1.51 1.88-1.51 1.14 0 1.96.27 2.59.55v-1.16c-.58-.29-1.29-.57-2.55-.57-2.17 0-3.28 1.17-3.28 2.8 0 1.6.84 2.37 2.23 2.83l1.08.36c1.22.41 1.65.83 1.65 1.82 0 1.08-.67 1.79-2.19 1.79-1.08 0-2.1-.27-2.91-.68v1.16c.7.39 1.67.69 2.98.69zM196.71 144h1.36v-10.39h-1.36V144zm5.82 0h1.62l-4.11-5.46 3.9-4.93h-1.45l-3.99 5.08 4.03 5.31zm-11.85.2c2.5 0 3.76-1.17 3.76-3.86v-6.73h-1.26v6.67c0 2.21-.79 2.83-2.44 2.83-1.67 0-2.56-.65-2.56-2.82v-6.69h-1.37v6.78c0 2.59 1.39 3.82 3.87 3.82z"/><ellipse cx="122.5" cy="116.7" rx=".9" ry=".6"/><ellipse cx="428.6" cy="324" rx=".9" ry=".6"/><ellipse cx="246" cy="199.3" rx=".9" ry=".6"/><ellipse cx="229.4" cy="193.5" rx=".9" ry=".6"/><ellipse cx="215.6" cy="142.3" rx=".9" ry=".6"/><ellipse cx="150.7" cy="114.6" rx=".9" ry=".6"/><path stroke="#DADADA" stroke-miterlimit="10" d="M0 121.2h460M0 16.2h460M0 68.7h460M0 226.2h460M173 278.7h287m-460 0h34.9M460 331.2H0" fill="none"/><path stroke="#DADADA" stroke-width="4" stroke-miterlimit="10" fill="none" d="M0 173.7h460"/><path fill="#F46980" d="M246 191.5c4.3 0 7.7 3.5 7.7 7.7 0 4.3-3.5 7.7-7.7 7.7-4.3 0-7.7-3.5-7.7-7.7s3.4-7.7 7.7-7.7zm-16.6-5.7c4.3 0 7.7 3.5 7.7 7.7 0 4.3-3.5 7.7-7.7 7.7-4.3 0-7.7-3.5-7.7-7.7-.1-4.2 3.4-7.7 7.7-7.7zm-13.8-51.2c4.3 0 7.7 3.5 7.7 7.7 0 4.3-3.5 7.8-7.7 7.8-4.3 0-7.7-3.5-7.7-7.8s3.4-7.7 7.7-7.7zm-64.9-27.8c4.3 0 7.7 3.5 7.7 7.7 0 4.3-3.5 7.8-7.7 7.8s-7.7-3.5-7.7-7.8c0-4.2 3.5-7.7 7.7-7.7zm277.9 209.5c4.3 0 7.7 3.5 7.7 7.8s-3.5 7.7-7.7 7.7c-4.3 0-7.7-3.5-7.7-7.7s3.4-7.8 7.7-7.8z"/><path fill="#808080" d="M.11 116.35h6.56v-1.16H1.82v-.04l1.68-1.6c1.86-1.79 2.91-3.01 2.91-4.8 0-1.86-1.2-2.97-3.31-2.97-1.17 0-2.02.24-2.77.64v1.09c.65-.31 1.46-.57 2.42-.57 1.42 0 2.22.58 2.22 1.92 0 1.44-.9 2.53-2.39 4.02l-2.46 2.47v1zM4.19 10.4c-1.71 0-2.38-1.5-2.38-3.48V6.7c.58-.38 1.36-.69 2.37-.69 1.26 0 2.16.42 2.16 2.12-.01 1.39-.76 2.27-2.15 2.27zm.01 1.14c2.29 0 3.57-1.61 3.57-3.55 0-2.06-1.33-3.14-3.21-3.14-1.17 0-2.16.41-2.75.84.16-3.22 1.79-3.75 3.52-3.75.75 0 1.45.15 1.84.27V1.15C6.74.91 6 .77 5.09.77 2.67.77.35 2.15.35 6.23v.66c0 2.75 1.39 4.65 3.85 4.65zM1.22 59.9v-.04l3.37-4.36h.06v4.41H1.22zm3.43 3.95h1.33v-2.82h2V59.9h-2v-6.45H4.85L-.21 60v1.02h4.86v2.83zM4.46 221.35h6.56v-1.16H6.17v-.04l1.68-1.6c1.86-1.79 2.91-3.01 2.91-4.8 0-1.86-1.2-2.97-3.31-2.97-1.17 0-2.02.24-2.77.64v1.09c.64-.31 1.45-.57 2.41-.57 1.43 0 2.22.58 2.22 1.92 0 1.44-.9 2.53-2.39 4.02l-2.46 2.47v1zm-3.92-3.57h2.91v-1.14H.54v1.14zM6.02 269.9v-.04l3.37-4.36h.06v4.41H6.02zm3.43 3.95h1.33v-2.82h2v-1.12h-2v-6.45H9.65l-5.06 6.55v1.02h4.86v2.82zm-8.91-3.57h2.91v-1.14H.54v1.14zM8.99 325.4c-1.71 0-2.38-1.5-2.38-3.48v-.22c.58-.38 1.36-.69 2.37-.69 1.26 0 2.16.42 2.16 2.12-.01 1.39-.76 2.27-2.15 2.27zm.01 1.14c2.29 0 3.57-1.61 3.57-3.55 0-2.06-1.33-3.14-3.21-3.14-1.17 0-2.16.41-2.75.84.15-3.23 1.79-3.75 3.51-3.75.75 0 1.45.15 1.84.27v-1.06c-.44-.24-1.17-.38-2.08-.38-2.42 0-4.74 1.38-4.74 5.46v.66c.01 2.75 1.4 4.65 3.86 4.65zm-8.46-3.76h2.91v-1.14H.54v1.14zM4.64 167.33c-1.44 0-2.07-1.04-2.07-3.36v-.71c0-2.37.66-3.3 2.08-3.3 1.41 0 2.04.99 2.04 3.39v.72c0 2.41-.61 3.26-2.05 3.26zm-.02 1.7c2.4 0 4.47-1.39 4.47-5.14v-.54c0-3.67-2.01-5.07-4.44-5.07-2.34 0-4.5 1.36-4.5 5.16v.54c0 3.62 1.98 5.05 4.47 5.05zM105.04 350.73c-1.88 0-2.7-1.36-2.7-3.9v-.75c0-2.54.84-3.84 2.71-3.84 1.88 0 2.67 1.39 2.67 3.93v.75c.01 2.64-.8 3.81-2.68 3.81zm0 1.14c2.34 0 4.11-1.46 4.11-5.15v-.54c0-3.67-1.86-5.08-4.1-5.08-2.25 0-4.18 1.44-4.18 5.17v.54c.01 3.56 1.84 5.06 4.17 5.06zM37.22 351.67h1.36v-10.48h-.48l-2.79.99v.78l1.91-.18v8.89zm-5.34-3.57h2.91v-1.14h-2.91v1.14zM174.25 351.67h1.36v-10.48h-.48l-2.79.99v.78l1.91-.18zM240.51 351.67h6.55v-1.16h-4.84v-.04l1.68-1.6c1.86-1.79 2.91-3.01 2.91-4.8 0-1.86-1.2-2.97-3.32-2.97-1.17 0-2.02.24-2.77.64v1.09c.65-.31 1.46-.57 2.42-.57 1.42 0 2.22.58 2.22 1.92 0 1.44-.9 2.53-2.39 4.02l-2.46 2.47v1zM312.63 351.84c2.31 0 3.77-1.11 3.77-3.06 0-1.54-.93-2.36-2.33-2.62v-.04c1.25-.39 1.94-1.17 1.94-2.42 0-1.63-1.21-2.59-3.11-2.59-.93 0-1.84.17-2.55.51v1.08c.66-.24 1.23-.42 2.21-.42 1.24 0 2.02.38 2.02 1.63 0 1.21-.84 1.79-2.19 1.79h-.78v1.15h.96c1.5 0 2.39.54 2.39 1.88 0 1.37-.98 1.95-2.62 1.95-.83 0-1.69-.25-2.42-.57v1.08c.61.35 1.45.65 2.71.65zM380.06 347.73v-.04l3.37-4.36h.06v4.41h-3.43zm3.44 3.94h1.34v-2.82h1.99v-1.12h-1.99v-6.45h-1.14l-5.05 6.55v1.02h4.86v2.82zM451.41 351.84c2.33 0 3.72-1.33 3.72-3.39 0-2.24-1.38-3.24-3.63-3.24-.48 0-.82.04-1.15.12l.22-2.89h4.25v-1.16h-5.35l-.39 5.35c.5-.15 1.23-.27 2.04-.27 1.63 0 2.56.54 2.56 2.1 0 1.54-.99 2.21-2.56 2.21-.95 0-1.77-.22-2.48-.57v1.08c.63.39 1.51.66 2.77.66z"/><circle fill="#808080" cx="141.8" cy="135.5" r="2.8"/><circle fill="#808080" cx="147.5" cy="146.1" r="2.8"/><circle fill="#808080" cx="181.8" cy="158" r="2.8"/><circle fill="#808080" cx="140.9" cy="157.1" r="2.8"/><circle fill="#808080" cx="104.9" cy="148.8" r="2.8"/><circle fill="#808080" cx="142.6" cy="147.2" r="2.8"/><circle fill="#808080" cx="101.8" cy="68.4" r="2.8"/><circle fill="#808080" cx="246.4" cy="155.1" r="2.8"/><circle fill="#808080" cx="239" cy="167.7" r="2.8"/><circle fill="#808080" cx="129.1" cy="62.6" r="2.8"/><circle fill="#808080" cx="163.5" cy="187.2" r="2.8"/><circle fill="#808080" cx="105.6" cy="126.6" r="2.8"/><circle fill="#808080" cx="108.9" cy="76.4" r="2.8"/><circle fill="#808080" cx="155.3" cy="86.2" r="2.8"/><circle fill="#808080" cx="103.7" cy="129.2" r="2.8"/><circle fill="#808080" cx="105.3" cy="119.1" r="2.8"/><circle fill="#808080" cx="177.6" cy="171" r="2.8"/><circle fill="#808080" cx="118.4" cy="115.4" r="2.8"/><circle fill="#808080" cx="127.5" cy="139.5" r="2.8"/><circle fill="#808080" cx="213.9" cy="107.1" r="2.8"/><circle fill="#808080" cx="173" cy="184.8" r="2.8"/><circle fill="#808080" cx="53.1" cy="95.3" r="2.8"/><circle fill="#808080" cx="93" cy="122.8" r="2.8"/><path fill="#808080" d="M155.02 103.76c2.44 0 3.51-1.23 3.51-3.06 0-1.75-.96-2.43-2.49-2.94l-1.08-.36c-1.09-.36-1.42-.78-1.42-1.72 0-.96.69-1.51 1.88-1.51 1.14 0 1.96.27 2.59.55v-1.16c-.58-.29-1.29-.57-2.55-.57-2.17 0-3.28 1.17-3.28 2.8 0 1.6.84 2.37 2.23 2.83l1.08.36c1.22.41 1.65.83 1.65 1.82 0 1.08-.67 1.79-2.19 1.79-1.08 0-2.1-.27-2.91-.68v1.16c.7.39 1.67.69 2.98.69zm-8.27 0c2.5 0 3.76-1.17 3.76-3.86v-6.73h-1.26v6.67c0 2.21-.79 2.83-2.44 2.83-1.67 0-2.56-.65-2.56-2.82v-6.69h-1.37v6.78c0 2.59 1.4 3.82 3.87 3.82z"/><path fill="#fff" d="M91.9 91.8h23v23h-23z"/><path fill="#808080" d="M127.8 106.55c1.31 0 1.98-.6 2.5-2.07l3.12-8.61h-1.31l-2 5.8h-.04l-2.17-5.8h-1.42l2.95 7.54-.34.89c-.33.82-.83 1.15-1.53 1.15-.29 0-.56-.03-.75-.06v.93c.23.13.63.23.99.23zm-8.43-2.98h1.32v-6.19c.55-.26 1.35-.51 2.02-.51 1.21 0 1.5.38 1.5 1.26v5.44h1.32v-5.73c0-1.49-.72-2.12-2.23-2.12-.95 0-1.95.36-2.6.81h-.07v-.66h-1.26v7.7zm-4.8-.87c-.82 0-1.36-.39-1.36-1.2 0-.84.44-1.18 1.31-1.27l1.69-.18v2.13c-.33.29-.98.52-1.64.52zm-.34 1.02c1.02 0 1.63-.36 2.01-.79h.09l.14.64h1.06v-5.58c0-1.54-.98-2.26-2.69-2.26-.93 0-1.66.15-2.35.42v.95c.47-.11 1.08-.23 1.83-.23 1.38 0 1.89.29 1.89 1.46v.72l-2.04.26c-1.46.18-2.32.9-2.32 2.23-.01 1.47 1 2.18 2.38 2.18zm-14.03-.15h1.32v-6.19c.55-.27 1.21-.51 1.83-.51 1.02 0 1.33.38 1.33 1.26v5.44H106v-5.73c0-.17-.01-.3-.03-.45.66-.32 1.29-.53 1.86-.53 1.02 0 1.33.38 1.33 1.26v5.44h1.32v-5.73c0-1.49-.78-2.12-2.13-2.12-.87 0-1.75.32-2.56.86h-.07c-.36-.58-.98-.86-1.85-.86-.85 0-1.69.38-2.34.81h-.07v-.66h-1.26v7.71zm-5.07 0h1.32v-6c.54-.36 1.27-.6 1.99-.6.14 0 .39.01.58.04v-1.17c-.07-.03-.29-.06-.48-.06-.82 0-1.65.44-2.08.95h-.07v-.85h-1.26v7.69zm-4.59-6.78c1.17 0 1.78.63 1.78 2.25h-3.75c.13-1.77 1.12-2.25 1.97-2.25zm.35 6.93c1.27 0 2.15-.41 2.61-.75v-.98c-.7.36-1.36.58-2.4.58-1.53 0-2.43-.64-2.52-2.47h5.14v-.75c0-2.42-1-3.63-3.12-3.63-1.79 0-3.39 1.2-3.39 3.88v.23c0 2.39 1.25 3.89 3.68 3.89zm-8.24.03c1.35 0 2.46-.29 3.25-.6v-4.68h-3.52v1.14h2.16v2.7c-.45.17-1.15.29-1.84.29-2.75 0-3.4-1.73-3.4-4.02v-.48c0-2.04.82-3.93 3.37-3.93 1.41 0 2.21.34 2.83.63v-1.17c-.61-.33-1.44-.63-2.73-.63-2.59 0-4.95 1.33-4.95 5.31v.3c0 3.59 1.92 5.14 4.83 5.14z"/><path fill="#F46980" d="M122.4 108.4c4.3 0 7.7 3.5 7.7 7.7s-3.5 7.8-7.7 7.8c-4.3 0-7.7-3.5-7.7-7.8s3.5-7.7 7.7-7.7z"/><circle fill="#808080" cx="104.5" cy="110.6" r="2.8"/><path stroke="#000" stroke-width=".5" stroke-miterlimit="10" fill="none" d="M324.3 159.7V94.9"/><path d="M326.8 95.6l-2.5-4.3-2.5 4.3z"/><path stroke="#000" stroke-width=".5" stroke-miterlimit="10" fill="none" d="M45.5 240h64.8"/><path d="M109.6 242.5l4.3-2.5-4.3-2.5z"/><defs><path id="a" d="M335.31 129.19h45.57v11.38h-45.57z"/></defs><clipPath id="b"><use xlink:href="#a" overflow="visible"/></clipPath><path clip-path="url(#b)" fill="#808080" d="M376.62 140.42h2.12v-6.31h1.65v-1.54h-1.65v-.69c0-.81.39-1.14 1.19-1.14.4 0 .75.06.96.1v-1.38c-.29-.13-.84-.27-1.59-.27-1.56 0-2.67.76-2.67 2.46v.92h-1.05v1.54h1.05v6.31zm-5.36-1.36c-.98 0-1.69-.5-1.69-2.43v-.34c0-1.67.6-2.37 1.65-2.37.98 0 1.71.48 1.71 2.45v.34c0 1.66-.62 2.35-1.67 2.35zm-.03 1.51c2.25 0 3.87-1.4 3.87-4.02v-.21c0-2.52-1.38-3.93-3.85-3.93-2.24 0-3.86 1.4-3.86 4v.21c0 2.51 1.37 3.95 3.84 3.95zm-10.65-6.69c.92 0 1.38.51 1.38 1.8h-2.93c.14-1.42.85-1.8 1.55-1.8zm.3 6.69c1.39 0 2.32-.38 2.88-.74v-1.42c-.66.3-1.41.52-2.4.52-1.41 0-2.17-.4-2.33-1.86h5.01v-.75c0-2.54-.99-3.92-3.45-3.92-2.16 0-3.72 1.4-3.72 3.96v.21c.01 2.55 1.34 4 4.01 4zm-6.26-.04c.76 0 1.24-.17 1.56-.32v-1.38c-.24.06-.57.1-.84.1-.73 0-.99-.21-.99-.84v-4h1.75v-1.53h-1.75v-1.88h-2.12v1.88h-1.02v1.53h1.02v4.3c0 1.61.91 2.14 2.39 2.14zm-7.66-1.37c-.62 0-1.06-.27-1.06-.99 0-.71.34-.99 1.06-1.05l1.23-.12v1.77c-.23.23-.72.39-1.23.39zm-.67 1.41c1.01 0 1.68-.32 2.03-.78h.09l.17.63h1.74v-5.64c0-1.7-1.12-2.37-2.99-2.37-1.12 0-2.04.15-2.82.44v1.47c.52-.14 1.23-.24 2.01-.24 1.25 0 1.68.25 1.68 1.16v.48l-1.68.23c-1.63.21-2.67.82-2.67 2.37-.01 1.5 1.02 2.25 2.44 2.25zm-8.7-5.71v-3.12h1.3c1.2 0 1.71.45 1.71 1.53 0 1.09-.48 1.59-1.69 1.59h-1.32zm-2.28 5.56h2.31v-3.96h1.41l2.1 3.96h2.46l-2.45-4.48v-.06c1.16-.46 1.79-1.27 1.79-2.73 0-2.12-1.28-3.12-3.75-3.12h-3.87v10.39z"/><path fill="#808080" d="M405.45 159.42h2.1v-5.96c.42-.19 1.04-.38 1.56-.38.93 0 1.2.29 1.2 1.02v5.31h2.12v-5.85c0-1.54-.81-2.16-2.31-2.16-.99 0-1.86.32-2.49.78h-.07v-3.86h-2.1v11.1zm-2.67.11c.76 0 1.24-.17 1.56-.32v-1.38c-.24.06-.57.1-.84.1-.73 0-.99-.21-.99-.84v-4h1.75v-1.53h-1.75v-1.88h-2.12v1.88h-1.02v1.53h1.02v4.3c0 1.61.92 2.14 2.39 2.14zm-12.99-.11h2l1.45-4.93h.04l1.44 4.93h2.01l2.13-7.86h-1.88l-1.21 5.1h-.06l-1.46-5.1h-1.72l-1.42 5.1h-.06l-1.23-5.1h-2.17l2.14 7.86zm-6.27-1.36c-.98 0-1.7-.5-1.7-2.43v-.34c0-1.67.6-2.37 1.65-2.37.97 0 1.71.48 1.71 2.45v.34c0 1.66-.61 2.35-1.66 2.35zm-.03 1.51c2.25 0 3.87-1.4 3.87-4.02v-.21c0-2.52-1.38-3.93-3.86-3.93-2.23 0-3.85 1.4-3.85 4v.21c0 2.51 1.36 3.95 3.84 3.95zm-8.99-.15h2.1v-5.64c.5-.29 1.14-.45 1.86-.45.18 0 .46.03.64.06v-1.86c-.09-.03-.27-.06-.48-.06-.82 0-1.59.43-2.02 1h-.08v-.92h-2.03v7.87zm-4.83-4.12c-.76 0-1.23-.39-1.23-1.21v-.18c0-.78.45-1.21 1.23-1.21.75 0 1.25.38 1.25 1.23v.18c0 .8-.47 1.19-1.25 1.19zm-.07 5.7c-1.28 0-1.71-.32-1.71-.87 0-.46.29-.76.69-.92h1.89c.87 0 1.14.21 1.14.76 0 .61-.51 1.03-2.01 1.03zm.01 1.42c2.8 0 4.06-1.19 4.06-2.79 0-1.56-1-2.19-2.58-2.19h-2.18c-.46 0-.66-.18-.66-.51 0-.17.08-.34.2-.48.36.08.77.12 1.21.12 1.88 0 3.2-.83 3.2-2.52v-.12c0-.4-.11-.73-.3-1.02h1.08v-1.37h-2.65c-.39-.09-.83-.13-1.3-.13-1.94 0-3.24.9-3.24 2.58v.12c0 .92.38 1.56 1.04 1.95-.62.43-.95.97-.95 1.59 0 .57.33.97.81 1.15v.08c-.81.27-1.44.78-1.44 1.61 0 1.17 1.14 1.93 3.7 1.93zm-12.13-8.35v-3.32h1.38c1.2 0 1.71.39 1.71 1.68 0 1.15-.49 1.63-1.75 1.63h-1.34zm-2.31 5.35h2.31v-3.69h1.73c2.34 0 3.75-1.16 3.75-3.44 0-2.08-1.26-3.27-3.84-3.27h-3.94v10.4zm-7.79-1.77v-6.86h1.24c1.74 0 2.75.71 2.75 3.13v.53c0 2.34-.84 3.2-2.64 3.2h-1.35zm-2.31 1.77h3.68c3.3 0 5.05-1.72 5.05-5.13v-.33c0-3.48-1.86-4.93-5.07-4.93h-3.66v10.39zm-5.11.17c1.44 0 2.76-.32 3.54-.65v-4.99h-3.93v1.71h1.75v1.95c-.33.12-.85.22-1.38.22-2.21 0-2.71-1.35-2.71-3.39v-.46c0-1.86.67-3.25 3.01-3.25 1.37 0 2.19.3 2.79.54v-1.81c-.62-.32-1.59-.6-2.99-.6-2.76 0-5.24 1.29-5.24 5.25v.33c.01 3.71 2.02 5.15 5.16 5.15zM150.98 262.82c1.54 0 2.37-.67 2.88-2.14l3.09-8.68h-2.02l-1.68 5.16h-.04L151.4 252h-2.22l2.96 7.69-.25.65c-.24.64-.68.93-1.4.93-.27 0-.57-.04-.81-.09v1.42c.25.12.83.22 1.3.22zm-3.78-2.86c.76 0 1.24-.17 1.56-.32v-1.38c-.24.06-.57.1-.84.1-.73 0-.99-.21-.99-.84v-4h1.75v-1.53h-1.75v-1.88h-2.11v1.88h-1.02v1.53h1.02v4.3c-.01 1.61.91 2.14 2.38 2.14zm-6.51-9.12h2.13v-1.75h-2.13v1.75zm.01 9.01h2.1v-7.86h-2.1v7.86zm-5.59 0h2.1v-5.64c.49-.29 1.14-.45 1.86-.45.18 0 .46.03.65.06v-1.86c-.09-.03-.27-.06-.48-.06-.83 0-1.59.43-2.02 1h-.08v-.92h-2.02v7.87zm-4.58-6.54c.92 0 1.38.51 1.38 1.8h-2.92c.13-1.42.84-1.8 1.54-1.8zm.3 6.69c1.4 0 2.33-.38 2.88-.74v-1.42c-.66.3-1.41.52-2.4.52-1.41 0-2.17-.4-2.32-1.86H134v-.75c0-2.54-.99-3.92-3.45-3.92-2.16 0-3.72 1.4-3.72 3.96v.21c0 2.55 1.33 4 4 4zm-6.27-.04c.76 0 1.24-.17 1.56-.32v-1.38c-.24.06-.57.1-.84.1-.73 0-.99-.21-.99-.84v-4h1.75v-1.53h-1.75v-1.88h-2.11v1.88h-1.02v1.53h1.02v4.3c0 1.61.91 2.14 2.38 2.14zm-6.91.04c2.08 0 3.19-.87 3.19-2.52 0-1.38-.6-2.05-2.17-2.38l-.75-.17c-.69-.15-.95-.34-.95-.79 0-.48.41-.69 1.27-.69.92 0 1.67.19 2.12.38v-1.56c-.52-.24-1.25-.42-2.35-.42-2.07 0-3.03.93-3.03 2.43 0 1.41.78 2.1 2.04 2.36l.75.17c.76.18.99.38.99.82 0 .5-.38.74-1.41.74-1.09 0-1.71-.22-2.37-.46v1.58c.64.3 1.63.51 2.67.51zm-8.24 0c.98 0 1.72-.33 2.4-.84h.07l.15.69h1.84v-7.86h-2.1v5.95c-.42.21-.92.41-1.53.41-.85 0-1.14-.3-1.14-1.06V252H107v5.71c.01 1.57.9 2.29 2.41 2.29zm-7.17-1.41c-.62 0-1.06-.27-1.06-.99 0-.71.34-.99 1.06-1.05l1.23-.12v1.77c-.24.23-.72.39-1.23.39zm-.67 1.41c1 0 1.68-.32 2.02-.78h.09l.17.63h1.74v-5.64c0-1.7-1.12-2.37-2.98-2.37-1.12 0-2.04.15-2.82.44v1.47c.52-.14 1.23-.24 2.01-.24 1.25 0 1.68.25 1.68 1.16v.48l-1.68.23c-1.63.21-2.67.82-2.67 2.37-.01 1.5 1.01 2.25 2.44 2.25zm-10.2-.15h2.1v-5.64c.49-.29 1.14-.45 1.86-.45.18 0 .46.03.65.06v-1.86c-.09-.03-.27-.06-.48-.06-.83 0-1.59.43-2.02 1h-.08v-.92h-2.02v7.87zm-4.58-6.54c.92 0 1.38.51 1.38 1.8h-2.92c.13-1.42.84-1.8 1.54-1.8zm.3 6.69c1.4 0 2.33-.38 2.88-.74v-1.42c-.66.3-1.41.52-2.4.52-1.41 0-2.17-.4-2.32-1.86h5.01v-.75c0-2.54-.99-3.92-3.45-3.92-2.16 0-3.72 1.4-3.72 3.96v.21c0 2.55 1.33 4 4 4zm-12.03-.15h2.1v-5.96c.42-.19 1.03-.38 1.56-.38.93 0 1.2.29 1.2 1.02v5.31h2.11V254c0-1.54-.81-2.16-2.31-2.16-.99 0-1.86.32-2.49.78h-.07v-3.86h-2.1v11.09zm-4.3.15c2.08 0 3.19-.87 3.19-2.52 0-1.38-.6-2.05-2.17-2.38l-.75-.17c-.69-.15-.95-.34-.95-.79 0-.48.41-.69 1.27-.69.92 0 1.67.19 2.12.38v-1.56c-.52-.24-1.25-.42-2.35-.42-2.07 0-3.03.93-3.03 2.43 0 1.41.78 2.1 2.04 2.36l.75.17c.76.18.99.38.99.82 0 .5-.38.74-1.41.74-1.09 0-1.71-.22-2.37-.46v1.58c.64.3 1.63.51 2.67.51zm-7.88-.15h2.1v-5.64c.49-.29 1.14-.45 1.86-.45.18 0 .46.03.65.06v-1.86c-.09-.03-.27-.06-.48-.06-.83 0-1.59.43-2.02 1h-.08v-.92h-2.02v7.87zm-4.81-1.26c-.62 0-1.06-.27-1.06-.99 0-.71.34-.99 1.06-1.05l1.23-.12v1.77c-.24.23-.72.39-1.23.39zm-.68 1.41c1 0 1.68-.32 2.02-.78h.09l.16.63h1.74v-5.64c0-1.7-1.12-2.37-2.98-2.37-1.12 0-2.04.15-2.82.44v1.47c.52-.14 1.23-.24 2.01-.24 1.25 0 1.68.25 1.68 1.16v.48l-1.68.23c-1.63.21-2.67.82-2.67 2.37.01 1.5 1.03 2.25 2.45 2.25zm-12.18-.15h2.31v-4.46h3.96v4.46h2.29v-10.39h-2.29v4.14h-3.96v-4.14h-2.31v10.39zM156.59 281.84c1.31 0 1.98-.6 2.5-2.07l3.12-8.61h-1.31l-2 5.8h-.04l-2.17-5.8h-1.42l2.95 7.54-.34.89c-.33.82-.83 1.15-1.53 1.15-.29 0-.56-.03-.75-.06v.93c.22.12.63.23.99.23zm-3.75-2.99h1.32v-11.08h-1.32v11.08zm-3.3 0h1.32v-11.08h-1.32v11.08zm-4.85-.87c-.82 0-1.36-.39-1.36-1.2 0-.84.44-1.18 1.3-1.27l1.7-.18v2.13c-.33.3-.98.52-1.64.52zm-.34 1.02c1.02 0 1.63-.36 2.01-.79h.09l.14.64h1.06v-5.58c0-1.54-.98-2.26-2.69-2.26-.93 0-1.66.15-2.35.42v.95c.47-.11 1.08-.23 1.83-.23 1.38 0 1.89.29 1.89 1.46v.72l-2.04.26c-1.46.18-2.32.9-2.32 2.23-.01 1.48 1 2.18 2.38 2.18zm-5.43 0c1.06 0 1.75-.29 2.27-.62v-1.05c-.39.19-1.08.54-2.12.54-1.56 0-2.37-.81-2.37-2.75v-.41c0-1.67.84-2.59 2.2-2.59 1.02 0 1.5.2 2.19.48v-1.09c-.51-.31-1.09-.51-2.1-.51-2.02 0-3.66 1.2-3.66 3.92v.25c0 2.59 1.4 3.83 3.59 3.83zm-6.38-9.37h1.35v-1.37h-1.35v1.37zm.02 9.22h1.32v-7.69h-1.32v7.69zm-3.3 0h1.32v-11.08h-1.32v11.08zm-3.59.15c1.06 0 1.75-.29 2.27-.62v-1.05c-.39.19-1.08.54-2.12.54-1.56 0-2.37-.81-2.37-2.75v-.41c0-1.67.84-2.59 2.2-2.59 1.02 0 1.5.2 2.19.48v-1.09c-.51-.31-1.09-.51-2.1-.51-2.02 0-3.66 1.2-3.66 3.92v.25c.01 2.59 1.4 3.83 3.59 3.83zm-9.64 2.84c1.31 0 1.98-.6 2.5-2.07l3.12-8.61h-1.31l-2 5.8h-.04l-2.17-5.8h-1.42l2.95 7.54-.34.89c-.33.82-.83 1.15-1.53 1.15-.29 0-.56-.03-.75-.06v.93c.22.12.63.23.99.23zm-4.19-2.84c1.06 0 1.75-.29 2.27-.62v-1.05c-.39.19-1.08.54-2.12.54-1.56 0-2.37-.81-2.37-2.75v-.41c0-1.67.84-2.59 2.2-2.59 1.02 0 1.5.2 2.19.48v-1.09c-.51-.31-1.09-.51-2.1-.51-2.02 0-3.66 1.2-3.66 3.92v.25c.01 2.59 1.4 3.83 3.59 3.83zm-13.99-.15h1.32v-6.19c.55-.26 1.35-.51 2.02-.51 1.21 0 1.5.38 1.5 1.26v5.44h1.32v-5.73c0-1.49-.72-2.12-2.23-2.12-.95 0-1.95.36-2.6.81h-.07v-.66h-1.26v7.7zm-3.27-9.22h1.35v-1.37h-1.35v1.37zm.01 9.22h1.32v-7.69h-1.32v7.69zm-7.51-6.78c1.17 0 1.78.63 1.78 2.25h-3.75c.12-1.77 1.11-2.25 1.97-2.25zm.34 6.93c1.27 0 2.15-.41 2.61-.75v-.98c-.7.36-1.36.58-2.4.58-1.53 0-2.43-.64-2.52-2.47h5.14v-.75c0-2.42-1-3.63-3.12-3.63-1.79 0-3.39 1.2-3.39 3.88v.23c.01 2.39 1.25 3.89 3.68 3.89zm-7.99-3.9c-.98 0-1.6-.46-1.6-1.44v-.23c0-.9.58-1.42 1.6-1.42.98 0 1.6.45 1.6 1.46v.22c0 .95-.58 1.41-1.6 1.41zm-.06 5.66c-1.44 0-2.06-.36-2.06-1.07 0-.62.41-1.02.93-1.2h2.17c.99 0 1.31.29 1.31.98 0 .78-.61 1.29-2.35 1.29zm.03 1.08c2.62 0 3.71-1.17 3.71-2.58 0-1.5-1.04-2.03-2.44-2.03h-2.12c-.49 0-.72-.24-.72-.66 0-.24.13-.48.31-.64.39.12.83.18 1.29.18 1.62 0 2.92-.81 2.92-2.47v-.15c0-.55-.17-.99-.48-1.33h1.31v-1h-2.62c-.35-.09-.72-.13-1.11-.13-1.71 0-2.94.92-2.94 2.54v.15c0 .9.38 1.53.96 1.92-.62.45-.89.96-.89 1.49s.33.9.78 1.06v.08c-.79.27-1.44.83-1.44 1.65 0 1.15 1.14 1.92 3.48 1.92zm-10.65-2.99h1.32v-6.19c.55-.26 1.35-.51 2.02-.51 1.21 0 1.5.38 1.5 1.26v5.44h1.32v-5.73c0-1.49-.72-2.12-2.23-2.12-.95 0-1.95.36-2.6.81h-.07v-.66h-1.26v7.7zm-4.8-.87c-.82 0-1.36-.39-1.36-1.2 0-.84.44-1.18 1.3-1.27l1.7-.18v2.13c-.34.3-.98.52-1.64.52zM63.6 279c1.02 0 1.63-.36 2.01-.79h.09l.14.64h1.06v-5.58c0-1.54-.98-2.26-2.69-2.26-.93 0-1.66.15-2.35.42v.95c.47-.11 1.08-.23 1.83-.23 1.38 0 1.89.29 1.89 1.46v.72l-2.04.26c-1.46.18-2.32.9-2.32 2.23 0 1.48 1 2.18 2.38 2.18zm-9.9-.15h1.32v-6.19c.55-.26 1.35-.51 2.02-.51 1.21 0 1.5.38 1.5 1.26v5.44h1.32v-5.73c0-1.49-.72-2.12-2.23-2.12-.95 0-1.91.34-2.54.78h-.07v-4.02H53.7v11.09zm-4.29.18c1.19 0 2.16-.25 2.9-.67v-1.16c-.66.32-1.46.66-2.72.66-2.32 0-3.27-1.51-3.27-4.08v-.57c0-2.68 1.35-3.76 3.21-3.76 1.02 0 1.78.21 2.65.54v-1.14c-.65-.34-1.47-.57-2.56-.57-2.62 0-4.77 1.41-4.77 5.16v.36c0 3.52 1.77 5.23 4.56 5.23zM142.64 300.84c1.31 0 1.98-.6 2.5-2.07l3.12-8.61h-1.31l-2 5.8h-.04l-2.17-5.8h-1.42l2.95 7.54-.34.89c-.33.82-.83 1.15-1.53 1.15-.29 0-.56-.03-.75-.06v.93c.22.12.63.23.99.23zm-5.72-2.99h1.32v-6c.54-.36 1.27-.6 1.99-.6.14 0 .39.01.58.04v-1.17c-.07-.03-.29-.06-.48-.06-.82 0-1.65.44-2.08.95h-.07v-.85h-1.26v7.69zm-4.8-.87c-.82 0-1.36-.39-1.36-1.2 0-.84.44-1.18 1.31-1.27l1.69-.18v2.13c-.33.3-.98.52-1.64.52zm-.34 1.02c1.02 0 1.63-.36 2.01-.79h.09l.14.64h1.06v-5.58c0-1.54-.98-2.26-2.69-2.26-.93 0-1.66.15-2.35.42v.95c.47-.11 1.08-.23 1.83-.23 1.38 0 1.89.29 1.89 1.46v.72l-2.04.26c-1.46.18-2.32.9-2.32 2.23-.01 1.48 1 2.18 2.38 2.18zm-14.03-.15h1.32v-6.19c.55-.27 1.21-.51 1.83-.51 1.02 0 1.33.38 1.33 1.26v5.44h1.32v-5.73c0-.17-.01-.3-.03-.45.66-.32 1.29-.53 1.86-.53 1.02 0 1.33.38 1.33 1.26v5.44h1.32v-5.73c0-1.49-.78-2.12-2.13-2.12-.87 0-1.75.32-2.56.86h-.07c-.36-.58-.98-.86-1.85-.86-.85 0-1.69.38-2.34.81h-.07v-.66h-1.26v7.71zm-3.27-9.22h1.35v-1.37h-1.35v1.37zm.02 9.22h1.32v-7.69h-1.32v7.69zm-5.12 0h1.32v-6c.54-.36 1.27-.6 1.99-.6.14 0 .39.01.58.04v-1.17c-.07-.03-.28-.06-.48-.06-.82 0-1.65.44-2.08.95h-.07v-.85h-1.26v7.69zm-5.04-.93c-.78 0-1.47-.25-1.8-.53v-4.74c.33-.24 1.02-.53 1.87-.53 1.38 0 2.15.63 2.15 2.71v.33c0 2.03-.82 2.76-2.22 2.76zm-3.12 3.86h1.32v-3.27c.4.24 1.05.5 1.92.5 2.11 0 3.46-1.19 3.46-4v-.21c0-2.83-1.49-3.78-3.15-3.78-.95 0-1.75.33-2.22.76h-.07v-.61h-1.26v10.61zm-7.87-3.86c-1.33 0-2.23-.65-2.23-2.73v-.33c0-2.01.82-2.73 2.22-2.73.77 0 1.47.2 1.8.46v4.71c-.34.28-.94.62-1.79.62zm-.42 1.08c1.02 0 1.75-.32 2.2-.77h.08l.14.62h1.11v-11.08h-1.32v3.72c-.4-.24-1.03-.48-1.96-.48-1.98 0-3.42 1.21-3.42 4.04v.21c-.01 2.83 1.68 3.74 3.17 3.74zm-7.34-6.93c1.17 0 1.78.63 1.78 2.25h-3.75c.13-1.77 1.12-2.25 1.97-2.25zm.35 6.93c1.27 0 2.15-.41 2.61-.75v-.98c-.7.36-1.36.58-2.4.58-1.53 0-2.43-.64-2.52-2.47h5.14v-.75c0-2.42-1-3.63-3.12-3.63-1.79 0-3.39 1.2-3.39 3.88v.23c0 2.39 1.25 3.89 3.68 3.89zm-5.84-.06c.69 0 1-.17 1.32-.31v-.89c-.3.08-.66.12-.98.12-.87 0-1.11-.27-1.11-1v-4.6h1.94v-1.09h-1.94v-1.83h-1.32v1.83h-1.1v1.09h1.1v4.8c.01 1.36.86 1.88 2.09 1.88zm-6.49.05c1.68 0 2.76-.78 2.76-2.29 0-1.36-.61-1.86-2.11-2.26l-.73-.2c-.78-.21-1.11-.46-1.11-1.09 0-.67.51-1.02 1.5-1.02.85 0 1.65.22 2.04.4v-1.06c-.44-.23-1.06-.45-2.1-.45-1.85 0-2.7.92-2.7 2.26 0 1.33.81 1.85 1.92 2.15l.74.19c.94.25 1.26.57 1.26 1.2 0 .67-.5 1.07-1.63 1.07-1.1 0-1.65-.23-2.31-.48v1.05c.62.35 1.48.53 2.47.53zm-7.58.01c.94 0 1.73-.36 2.37-.81h.07l.14.66h1.12v-7.69h-1.32v6.15c-.55.29-1.2.55-1.99.55-1.11 0-1.43-.39-1.43-1.33v-5.37h-1.32v5.58c.01 1.48.85 2.26 2.36 2.26zm-5.58-9.37h1.35v-1.37h-1.35v1.37zm-.79 12.21c1.5 0 2.13-.92 2.13-2.16v-8.52h-1.32v8.44c0 .81-.43 1.16-1.15 1.16-.25 0-.56-.04-.82-.09v.92c.29.16.62.25 1.16.25zm-4.23-3.92c-1.33 0-2.23-.65-2.23-2.73v-.33c0-2.01.82-2.73 2.22-2.73.77 0 1.47.2 1.8.46v4.71c-.34.28-.94.62-1.79.62zm-.42 1.08c1.02 0 1.75-.32 2.2-.77h.08l.14.62h1.11v-11.08h-1.32v3.72c-.4-.24-1.03-.48-1.96-.48-1.98 0-3.42 1.21-3.42 4.04v.21c-.01 2.83 1.68 3.74 3.17 3.74zm-7.55-1.02c-.82 0-1.36-.39-1.36-1.2 0-.84.44-1.18 1.31-1.27l1.69-.18v2.13c-.33.3-.98.52-1.64.52zm-.34 1.02c1.02 0 1.63-.36 2.01-.79h.09l.14.64h1.06v-5.58c0-1.54-.98-2.26-2.69-2.26-.93 0-1.66.15-2.35.42v.95c.47-.11 1.08-.23 1.83-.23 1.38 0 1.89.29 1.89 1.46v.72l-2.04.26c-1.46.18-2.32.9-2.32 2.23-.01 1.48 1 2.18 2.38 2.18zM88.26 310.07c1.17 0 1.78.63 1.78 2.25H86.3c.12-1.77 1.11-2.25 1.96-2.25zm.35 6.93c1.27 0 2.15-.41 2.61-.75v-.98c-.7.36-1.36.58-2.4.58-1.53 0-2.43-.64-2.52-2.47h5.14v-.75c0-2.42-1-3.63-3.12-3.63-1.79 0-3.39 1.2-3.39 3.88v.23c0 2.39 1.25 3.89 3.68 3.89zm-6.74 0c1.06 0 1.75-.29 2.27-.62v-1.05c-.39.19-1.08.54-2.12.54-1.56 0-2.37-.81-2.37-2.75v-.41c0-1.67.84-2.59 2.2-2.59 1.02 0 1.5.2 2.19.48v-1.09c-.51-.31-1.09-.51-2.1-.51-2.02 0-3.66 1.2-3.66 3.92v.25c.01 2.59 1.4 3.83 3.59 3.83zm-11.11-.15h1.32v-6.19c.55-.26 1.35-.51 2.02-.51 1.21 0 1.5.38 1.5 1.26v5.44h1.32v-5.73c0-1.49-.72-2.12-2.23-2.12-.95 0-1.95.36-2.6.81h-.07v-.66h-1.26v7.7zm-4.8-.87c-.82 0-1.36-.39-1.36-1.2 0-.84.44-1.18 1.3-1.27l1.7-.18v2.13c-.34.3-.98.52-1.64.52zm-.35 1.02c1.02 0 1.63-.36 2.01-.79h.09l.14.64h1.06v-5.58c0-1.54-.98-2.26-2.69-2.26-.93 0-1.66.15-2.35.42v.95c.47-.11 1.08-.23 1.83-.23 1.38 0 1.89.29 1.89 1.46v.72l-2.04.26c-1.46.18-2.32.9-2.32 2.23 0 1.48 1 2.18 2.38 2.18zm-5.14-.15h1.32v-11.08h-1.32v11.08zm-4.85-.87c-.82 0-1.36-.39-1.36-1.2 0-.84.44-1.18 1.3-1.27l1.7-.18v2.13c-.33.3-.98.52-1.64.52zm-.34 1.02c1.02 0 1.63-.36 2.01-.79h.09l.14.64h1.06v-5.58c0-1.54-.98-2.26-2.69-2.26-.93 0-1.66.15-2.35.42v.95c.47-.11 1.08-.23 1.83-.23 1.38 0 1.89.29 1.89 1.46v.72l-2.04.26c-1.46.18-2.32.9-2.32 2.23-.01 1.48 1 2.18 2.38 2.18zm-7.13-1.06c-.76 0-1.27-.13-1.6-.25v-5.12c.36-.15 1.05-.43 1.77-.43 1.54 0 2.25.67 2.25 2.71v.33c0 2.16-1.14 2.76-2.42 2.76zm-.09 1.11c2.54 0 3.87-1.5 3.87-4.07v-.22c0-2.87-1.54-3.75-2.98-3.75-1.04 0-1.74.25-2.33.62h-.07v-3.86h-1.32v10.86c.66.25 1.95.42 2.83.42z"/></svg>