<?xml version="1.0" encoding="utf-8"?>
<!-- Generator: Adobe Illustrator 16.0.1, SVG Export Plug-In . SVG Version: 6.00 Build 0)  -->
<!DOCTYPE svg PUBLIC "-//W3C//DTD SVG 1.1//EN" "http://www.w3.org/Graphics/SVG/1.1/DTD/svg11.dtd">
<svg version="1.1" xmlns="http://www.w3.org/2000/svg" xmlns:xlink="http://www.w3.org/1999/xlink" x="0px" y="0px"
	 width="812.74px" height="20px" viewBox="0 0 812.74 20" enable-background="new 0 0 812.74 20" xml:space="preserve">
<g id="Layer_2">
</g>
<g id="Layer_1">
	<path fill="#FFFFFF" d="M62.02,9.52c-1.57-1.42-3.29-3.04-5.08-4.57c-0.37-0.32-1.04-0.37-1.58-0.4
		c-6.77-0.41-13.54-0.62-20.29,0.16C33.63,4.88,32.1,5,31.13,6.55c-1.35,2.15-1.18,4.18-0.07,6.28c0.99,1.88,2.7,1.98,4.53,1.89
		c5.57-0.29,11.14-0.57,16.71-0.79c0.93-0.04,1.91,0.1,2.79,0.38c1.61,0.53,2.73,0.34,3.79-0.93C59.92,12.13,60.92,10.87,62.02,9.52
		z"/>
	<path fill="#FFFFFF" d="M369.54,4.12c-1.64,0.02-3.16,0.06-4.67,0.07c-6.08,0.03-12.15,0.1-18.23,0.03
		c-2.46-0.03-4.06,1.21-5.28,3.06c-1.17,1.76-1.1,3.63,0.04,5.42c0.55,0.87,1.29,1.29,2.43,1.09c1.32-0.22,2.69-0.29,4.03-0.28
		c4.71,0.04,9.42,0.16,14.12,0.23c2.15,0.03,4.29,0.03,6.44,0.03c0.3,0,0.65-0.07,0.9-0.22c1.28-0.76,2.66-4.22,2.12-5.57
		C370.92,6.65,370.19,5.42,369.54,4.12z"/>
	<path fill="#FFFFFF" d="M112.75,5.36c-1.42,0.11-3.01,0.29-4.6,0.33c-1.63,0.04-2.56,1-3.45,2.19c-1.41,1.89-0.94,3.75-0.12,5.65
		c0.77,1.8,2.36,1.5,3.88,1.6c6.79,0.45,13.62-0.74,20.4,0.49c0.44,0.08,1.11-0.22,1.44-0.57c0.47-0.51,0.79-1.19,1.06-1.85
		c1.41-3.48-0.57-6.97-4.31-7.24C122.35,5.62,117.63,5.55,112.75,5.36z"/>
	<path fill="#FFFFFF" d="M310.39,3.71c0,0.04,0,0.08-0.01,0.12c-0.95,0.01-1.91,0.01-2.86,0.05c-0.96,0.04-1.91,0.09-2.87,0.19
		c-2.36,0.23-4.49,1.9-5.13,3.99c-0.83,2.71,0.57,4.58,3.39,4.55c3.33-0.03,6.66-0.04,9.99-0.03c1.51,0.01,3.03,0.26,4.52,0.12
		c2.78-0.27,5.54-0.56,8.3,0.13c0.95,0.24,1.79,0.04,2.29-0.82c0.56-0.94,1.21-1.9,1.44-2.93c0.44-1.95-1.17-4.36-2.84-4.46
		C321.2,4.29,315.79,4.01,310.39,3.71z"/>
	<path fill="#FFFFFF" d="M214.26,9.05c-0.5-0.96-0.96-1.63-1.23-2.38c-0.6-1.63-1.68-2.33-3.44-2.38c-3.35-0.1-6.69-0.55-10.03-0.56
		c-3.18-0.01-6.39,0.15-9.54,0.61c-3.3,0.48-5.03,4.96-3.2,7.74c0.59,0.9,1.33,1.51,2.56,1.44c2.15-0.12,4.3-0.13,6.45-0.13
		c4.7,0.01,9.37-0.91,14.09-0.33c0.64,0.08,1.54-0.42,2.03-0.93C212.83,11.25,213.48,10.13,214.26,9.05z"/>
	<path fill="#FFFFFF" d="M657.68,3.49c0,0.12,0,0.24,0,0.36c-3.43,0.05-6.87-0.01-10.29,0.18c-3,0.17-3.49,1.07-2.61,4.06
		c0.09,0.31,0.17,0.62,0.27,0.92c0.6,1.79,1.23,2.23,3.17,2.2c0.95-0.01,1.9-0.06,2.86-0.03c4.22,0.1,8.45,0.32,12.67,0.31
		c3.18-0.01,6.37-0.34,9.55-0.48c1.17-0.05,3.8-1.46,4.12-2.35c0.36-1-0.65-2.75-2.21-3.65c-0.61-0.35-1.31-0.63-2-0.75
		c-1.25-0.23-2.53-0.42-3.8-0.47C665.5,3.65,661.59,3.58,657.68,3.49z"/>
	<path fill="#FFFFFF" d="M158.6,4.17c0,0.03,0,0.05,0,0.08c-1.36,0.02-2.72-0.02-4.08,0.07c-2.23,0.15-4.47,0.25-6.67,0.63
		c-3.43,0.59-4.97,5.01-2.8,7.73c0.76,0.95,1.69,1.23,2.95,1.15c2.37-0.15,4.76-0.05,7.14-0.07c0.72,0,1.45,0.02,2.15-0.09
		c3.49-0.54,6.98-0.74,10.49-0.17c1.01,0.17,1.76-0.23,2.25-1.01c0.5-0.81,0.94-1.68,1.24-2.58c0.71-2.19-1.27-5.28-3.57-5.44
		C164.68,4.27,161.64,4.26,158.6,4.17z"/>
	<path fill="#FFFFFF" d="M272.69,4.34c0,0.05,0,0.1,0,0.15c-1.28,0.02-2.56,0.16-3.82,0.03c-2.55-0.25-3.83,1.41-4.75,3.26
		c-0.9,1.82-0.58,3.77,0.76,5.36c0.41,0.49,1.18,0.96,1.79,0.96c3.82,0.03,7.67,0.19,11.46-0.21c2.48-0.26,4.92-0.56,7.35-0.08
		c1.9,0.38,3.02-0.42,3.95-1.88c1.83-2.89,0.21-6.66-3.15-6.93C281.76,4.67,277.22,4.56,272.69,4.34z"/>
	<path fill="#FFFFFF" d="M777.62,8.41c-1.23-0.05-3.38-0.19-5.53-0.19c-1.97,0-2.57,0.67-2.49,2.65c0.04,1.03,0.15,2.07,0.38,3.07
		c0.48,2.13,0.91,2.53,3.08,2.58c2.95,0.07,5.9-0.02,8.85,0c4.07,0.02,8.18-0.26,12.18,0.26c2.17,0.28,3.45-0.56,4.93-1.54
		c0.81-0.53,0.85-1.26,0.44-2.08c-0.94-1.87-2.24-3.18-4.47-3.55C789.54,8.72,784.06,8.32,777.62,8.41z"/>
	<path fill="#FFFFFF" d="M82.36,4.85c0,0.02,0,0.04,0,0.06c-2.39,0.04-4.78,0.06-7.17,0.12c-0.46,0.01-0.99,0.04-1.36,0.27
		c-2.77,1.7-3.56,6.08-1.5,8.62c0.45,0.56,1.29,1.09,1.98,1.13c3.02,0.18,6.04,0.21,9.07,0.23c2.19,0.02,4.39-0.18,6.57-0.07
		c1.91,0.1,2.85-0.21,3.66-1.93c0.37-0.77,0.58-1.64,0.73-2.49c0.53-2.97-1.84-5.99-4.8-6.04C87.14,4.72,84.75,4.82,82.36,4.85z"/>
	<path fill="#FFFFFF" d="M396.23,3.23c-3.79,0.22-6.67,0.34-9.52,0.6c-0.72,0.07-1.65,0.45-2.02,1c-0.93,1.37,0.36,4.83,1.93,5.36
		c1.11,0.38,2.29,0.59,3.46,0.74c5.25,0.7,10.49,0.37,15.74-0.19c1.73-0.18,3.57-0.37,5.22,0.02c1.64,0.38,2.68-0.25,3.62-1.18
		c2.48-2.46,2.88-4.14-1.14-5.7c-0.85-0.33-1.63-0.45-2.52-0.11c-0.65,0.25-1.4,0.43-2.08,0.39C404.38,3.87,399.86,3.51,396.23,3.23
		z"/>
	<path fill="#FFFFFF" d="M619.91,12.26c0-0.03,0-0.05,0-0.08c3.27-0.05,6.56-0.33,9.8-0.06c1.99,0.17,3.18-0.53,4.28-1.89
		c1.14-1.42,1.09-2.73-0.23-4.03c-1.17-1.16-2.54-1.86-4.27-1.82c-4.07,0.08-8.14,0.08-12.21,0.16c-3.27,0.07-6.53,0.17-9.8,0.33
		c-1.84,0.09-2.25,0.57-2.19,2.35c0.03,0.95,0.14,1.91,0.27,2.85c0.29,2.1,1.26,2.89,3.37,2.78
		C612.6,12.66,616.25,12.46,619.91,12.26z"/>
	<path fill="#FFFFFF" d="M248.5,13.04c0.36-0.41,1.09-1.06,1.6-1.85c0.99-1.55,0.82-3.11-0.01-4.74c-0.74-1.45-1.69-2.13-3.38-2.08
		c-6.39,0.18-12.79,0.22-19.19,0.36c-2.06,0.04-3.53,1.25-4.21,3.26c-0.91,2.69,0.57,4.9,3.36,4.89c4.32-0.02,8.64-0.17,12.95-0.17
		C242.39,12.71,245.16,12.91,248.5,13.04z"/>
	<path fill="#FFFFFF" d="M567.63,7.96c0.19,0.7,0.41,1.88,0.83,2.99c0.66,1.74,1.4,2.06,3.33,1.77c0.79-0.12,1.58-0.15,2.38-0.21
		c2.62-0.19,5.24-0.43,7.87-0.54c2.86-0.12,5.74-0.24,8.59-0.12c1.87,0.08,2.77-0.19,3.8-2.02c0.8-1.42,0.67-2.66-0.5-3.93
		c-1.13-1.23-2.54-1.91-4.25-1.83c-5.74,0.25-11.47,0.5-17.2,0.8c-1.1,0.06-2.21,0.28-3.29,0.56
		C568.18,5.69,567.49,6.31,567.63,7.96z"/>
	<path fill="#FFFFFF" d="M13.83,4.88c-0.01-0.08-0.03-0.15-0.04-0.23C10.33,5.14,6.87,5.63,3.4,6.12C1.68,6.36,0.78,7.51,0.26,9.03
		c-1.01,2.93,1.05,6.53,3.83,6.39c3.72-0.18,7.42-0.68,11.14-1c1.01-0.09,2.05-0.13,3.06-0.01c2.33,0.27,3.38-0.37,4.02-2.64
		c0.99-3.52-1.51-6.91-5.12-6.94C16.07,4.83,14.95,4.86,13.83,4.88z"/>
	<path fill="#FFFFFF" d="M738.19,6.47c-0.01,0.12-0.01,0.23-0.02,0.35c-2,0.03-3.99,0.01-5.98,0.1c-1.46,0.07-2.12,0.68-2.08,2.05
		c0.05,1.51,0.26,3.01,0.5,4.5c0.19,1.16,0.94,1.88,2.15,1.84c3.58-0.11,7.16-0.29,10.74-0.4c2.46-0.08,4.93-0.2,7.39-0.1
		c1.47,0.06,3.74-0.77,4.39-2.04c0.38-0.75,0.37-1.49-0.11-2.25c-1.13-1.81-2.69-2.91-4.84-3.09
		C746.28,7.11,742.23,6.79,738.19,6.47z"/>
	<path fill="#FFFFFF" d="M699.78,5.47c-0.02,0.1-0.03,0.2-0.05,0.31c-2.78,0.2-5.56,0.38-8.34,0.6c-0.89,0.07-1.94,0.23-1.95,1.35
		c-0.02,1.49,0.15,3,0.41,4.47c0.15,0.85,0.86,1.28,1.79,1.23c3.81-0.18,7.62-0.47,11.43-0.47c2.77,0,5.58,0.19,8.29,0.71
		c1.88,0.37,3.22-0.13,4.6-1.19c0.96-0.74,0.98-1.57,0.37-2.5c-1.02-1.54-2.45-2.52-4.28-2.79C707.96,6.58,703.87,6.04,699.78,5.47z
		"/>
	<path fill="#FFFFFF" d="M462.88,8.73c0.14,0.93,0.25,2.04,0.5,3.12c0.4,1.7,1.31,2.34,3.1,2.26c4.45-0.21,8.89-0.44,13.34-0.65
		c0.71-0.03,1.44-0.08,2.15,0c2.61,0.31,3.07,0.1,4.32-2.1c0.65-1.14,0.61-2.46-0.43-3.21c-1-0.72-2.19-1.27-3.39-1.57
		c-1.29-0.32-2.68-0.31-4.03-0.37c-4.29-0.16-8.59-0.27-12.89-0.43C463.38,5.7,462.74,6.33,462.88,8.73z"/>
	<path fill="#FFFFFF" d="M505.96,5.73c0,0.1,0,0.19,0,0.29c-1.99,0.03-3.99,0.13-5.98,0.07c-3.09-0.09-2.77,0.67-3.48,3.17
		c-0.19,0.67-0.09,1.44-0.02,2.15c0.17,1.77,0.98,2.22,2.76,1.94c2.28-0.35,4.57-0.6,6.87-0.73c2.31-0.13,4.63-0.09,6.94-0.08
		c1.67,0.01,3.45-0.23,4.99,0.24c1.78,0.55,2.74-0.24,3.71-1.3c1.41-1.53,1.31-2.72-0.23-4.08c-1.31-1.16-2.7-1.89-4.55-1.37
		c-0.74,0.2-1.59,0.05-2.39,0.02C511.7,5.94,508.83,5.83,505.96,5.73z"/>
	<path fill="#FFFFFF" d="M543.97,6.13c0-0.14,0-0.27-0.01-0.41c-1.91,0.03-3.83,0.02-5.74,0.1c-1.35,0.06-2.71,0.18-4.04,0.39
		c-1.43,0.23-1.83,0.71-1.67,2.07c0.15,1.25,0.42,2.51,0.8,3.72c0.57,1.82,1.19,2.11,3.01,1.78c1.01-0.18,2.04-0.34,3.06-0.38
		c2.71-0.09,5.42-0.11,8.12-0.15c1.42-0.02,2.85-0.11,4.25,0c0.92,0.08,1.84,0.72,2.65-0.19c0.63-0.71,1.44-1.36,1.77-2.19
		c0.28-0.71,0.27-1.86-0.14-2.43c-1-1.36-2.44-2.37-4.22-2.4C549.21,5.98,546.59,6.09,543.97,6.13z"/>
	<path fill="#FFFFFF" d="M433.93,6.84c0,0.06,0,0.11-0.01,0.17c-1.59,0.02-3.18,0.06-4.77,0.07c-1.73,0.01-2.64,0.87-2.66,2.61
		c-0.04,2.22,0.87,3.51,2.57,3.56c2.78,0.09,5.57,0.05,8.35,0.22c3.56,0.21,7.11,0.6,10.67,0.83c0.57,0.04,1.33-0.16,1.74-0.53
		c2.21-1.99,3.06-3.54-0.15-5.9c-1-0.73-2.02-1.09-3.33-0.75c-0.97,0.25-2.06,0.13-3.09,0.09C440.14,7.11,437.03,6.97,433.93,6.84z"
		/>
	<path fill-rule="evenodd" clip-rule="evenodd" d="M62.02,9.52c-1.1,1.35-2.1,2.62-3.13,3.86c-1.06,1.27-2.18,1.46-3.79,0.93
		c-0.88-0.29-1.86-0.42-2.79-0.38c-5.57,0.22-11.14,0.51-16.71,0.79c-1.83,0.09-3.54,0-4.53-1.89c-1.11-2.11-1.28-4.13,0.07-6.28
		c0.97-1.55,2.5-1.67,3.92-1.84c6.75-0.78,13.53-0.58,20.29-0.16c0.54,0.03,1.21,0.08,1.58,0.4C58.73,6.47,60.45,8.09,62.02,9.52z"
		/>
	<path fill-rule="evenodd" clip-rule="evenodd" d="M369.54,4.12c0.65,1.3,1.38,2.54,1.9,3.85c0.54,1.36-0.84,4.81-2.12,5.57
		c-0.26,0.15-0.6,0.22-0.9,0.22c-2.15,0.01-4.29,0.01-6.44-0.03c-4.71-0.07-9.41-0.19-14.12-0.23c-1.35-0.01-2.71,0.05-4.03,0.28
		c-1.14,0.2-1.88-0.23-2.43-1.09c-1.14-1.78-1.2-3.66-0.04-5.42c1.23-1.85,2.82-3.09,5.28-3.06c6.08,0.07,12.15,0,18.23-0.03
		C366.38,4.18,367.89,4.14,369.54,4.12z"/>
	<path fill-rule="evenodd" clip-rule="evenodd" d="M112.75,5.36c4.89,0.19,9.6,0.26,14.3,0.6c3.74,0.27,5.72,3.76,4.31,7.24
		c-0.27,0.66-0.59,1.34-1.06,1.85c-0.32,0.35-1,0.65-1.44,0.57c-6.78-1.24-13.61-0.05-20.4-0.49c-1.52-0.1-3.11,0.21-3.88-1.6
		c-0.81-1.9-1.28-3.76,0.12-5.65c0.89-1.2,1.81-2.15,3.45-2.19C109.74,5.65,111.33,5.47,112.75,5.36z"/>
	<path fill-rule="evenodd" clip-rule="evenodd" d="M310.39,3.71c5.41,0.3,10.82,0.58,16.23,0.91c1.67,0.1,3.28,2.51,2.84,4.46
		c-0.23,1.03-0.88,1.99-1.44,2.93c-0.51,0.86-1.34,1.05-2.29,0.82c-2.76-0.69-5.52-0.4-8.3-0.13c-1.49,0.14-3.01-0.11-4.52-0.12
		c-3.33-0.02-6.66,0-9.99,0.03c-2.82,0.02-4.22-1.84-3.39-4.55c0.64-2.09,2.77-3.76,5.13-3.99c0.95-0.09,1.91-0.15,2.87-0.19
		c0.95-0.04,1.91-0.03,2.86-0.05C310.38,3.79,310.38,3.75,310.39,3.71z"/>
	<path fill-rule="evenodd" clip-rule="evenodd" d="M214.26,9.05c-0.78,1.08-1.43,2.19-2.3,3.09c-0.49,0.51-1.39,1.01-2.03,0.93
		c-4.72-0.58-9.39,0.34-14.09,0.33c-2.15-0.01-4.3,0.01-6.45,0.13c-1.23,0.07-1.97-0.54-2.56-1.44c-1.83-2.79-0.1-7.26,3.2-7.74
		c3.14-0.46,6.36-0.62,9.54-0.61c3.34,0.01,6.68,0.46,10.03,0.56c1.76,0.05,2.84,0.75,3.44,2.38
		C213.31,7.42,213.76,8.09,214.26,9.05z"/>
	<path fill-rule="evenodd" clip-rule="evenodd" d="M657.68,3.49c3.91,0.1,7.82,0.17,11.73,0.31c1.27,0.05,2.54,0.23,3.8,0.47
		c0.69,0.13,1.39,0.4,2,0.75c1.56,0.9,2.58,2.64,2.21,3.65c-0.32,0.89-2.96,2.3-4.12,2.35c-3.19,0.13-6.37,0.46-9.55,0.48
		c-4.22,0.01-8.45-0.21-12.67-0.31c-0.95-0.02-1.9,0.02-2.86,0.03c-1.93,0.03-2.57-0.41-3.17-2.2c-0.1-0.3-0.17-0.61-0.27-0.92
		c-0.88-2.99-0.39-3.89,2.61-4.06c3.42-0.19,6.86-0.13,10.29-0.18C657.68,3.72,657.68,3.6,657.68,3.49z"/>
	<path fill-rule="evenodd" clip-rule="evenodd" d="M158.6,4.17c3.03,0.09,6.07,0.1,9.1,0.3c2.3,0.15,4.28,3.24,3.57,5.44
		c-0.29,0.9-0.73,1.78-1.24,2.58c-0.49,0.79-1.24,1.18-2.25,1.01c-3.5-0.58-7-0.38-10.49,0.17c-0.71,0.11-1.43,0.09-2.15,0.09
		c-2.38,0.02-4.77-0.09-7.14,0.07c-1.26,0.08-2.19-0.2-2.95-1.15c-2.17-2.72-0.63-7.14,2.8-7.73c2.19-0.38,4.44-0.47,6.67-0.63
		c1.35-0.09,2.72-0.05,4.08-0.07C158.6,4.22,158.6,4.19,158.6,4.17z"/>
	<path fill-rule="evenodd" clip-rule="evenodd" d="M272.69,4.34c4.53,0.21,9.07,0.32,13.6,0.68c3.36,0.26,4.98,4.03,3.15,6.93
		c-0.93,1.46-2.05,2.27-3.95,1.88c-2.43-0.49-4.87-0.18-7.35,0.08c-3.79,0.39-7.64,0.24-11.46,0.21c-0.61-0.01-1.38-0.47-1.79-0.96
		c-1.34-1.59-1.67-3.54-0.76-5.36c0.92-1.85,2.2-3.51,4.75-3.26c1.26,0.12,2.55-0.01,3.82-0.03C272.69,4.45,272.69,4.4,272.69,4.34z
		"/>
	<path fill-rule="evenodd" clip-rule="evenodd" d="M777.62,8.41c6.44-0.09,11.92,0.31,17.37,1.22c2.23,0.37,3.52,1.68,4.47,3.55
		c0.41,0.82,0.37,1.55-0.44,2.08c-1.49,0.97-2.76,1.82-4.93,1.54c-4-0.53-8.11-0.24-12.18-0.26c-2.95-0.02-5.9,0.07-8.85,0
		c-2.17-0.05-2.6-0.45-3.08-2.58c-0.22-1-0.33-2.05-0.38-3.07c-0.08-1.99,0.52-2.66,2.49-2.65C774.24,8.22,776.39,8.36,777.62,8.41z
		"/>
	<path fill-rule="evenodd" clip-rule="evenodd" d="M82.36,4.85c2.39-0.04,4.79-0.13,7.18-0.09c2.96,0.06,5.33,3.07,4.8,6.04
		c-0.15,0.85-0.36,1.72-0.73,2.49c-0.81,1.72-1.75,2.03-3.66,1.93c-2.18-0.11-4.38,0.08-6.57,0.07c-3.02-0.02-6.05-0.05-9.07-0.23
		c-0.69-0.04-1.53-0.57-1.98-1.13c-2.06-2.55-1.27-6.93,1.5-8.62c0.37-0.23,0.9-0.26,1.36-0.27c2.39-0.06,4.78-0.08,7.17-0.12
		C82.36,4.9,82.36,4.87,82.36,4.85z"/>
	<path fill-rule="evenodd" clip-rule="evenodd" d="M396.23,3.23c3.62,0.28,8.15,0.64,12.68,0.94c0.69,0.04,1.43-0.14,2.08-0.39
		c0.89-0.34,1.67-0.22,2.52,0.11c4.01,1.56,3.62,3.24,1.14,5.7c-0.94,0.94-1.98,1.57-3.62,1.18c-1.65-0.39-3.49-0.2-5.22-0.02
		c-5.25,0.56-10.49,0.89-15.74,0.19c-1.17-0.16-2.35-0.36-3.46-0.74c-1.57-0.54-2.85-4-1.93-5.36c0.37-0.55,1.31-0.93,2.02-1
		C389.57,3.56,392.44,3.45,396.23,3.23z"/>
	<path fill-rule="evenodd" clip-rule="evenodd" d="M619.91,12.26c-3.66,0.2-7.32,0.4-10.98,0.59c-2.11,0.11-3.08-0.69-3.37-2.78
		c-0.13-0.95-0.23-1.9-0.27-2.85c-0.06-1.78,0.36-2.26,2.19-2.35c3.26-0.15,6.53-0.26,9.8-0.33c4.07-0.08,8.14-0.07,12.21-0.16
		c1.73-0.04,3.1,0.67,4.27,1.82c1.31,1.3,1.37,2.61,0.23,4.03c-1.1,1.36-2.29,2.06-4.28,1.89c-3.24-0.27-6.53,0.01-9.8,0.06
		C619.91,12.21,619.91,12.24,619.91,12.26z"/>
	<path fill-rule="evenodd" clip-rule="evenodd" d="M248.5,13.04c-3.34-0.13-6.1-0.32-8.87-0.33c-4.32-0.01-8.63,0.14-12.95,0.17
		c-2.79,0.01-4.28-2.2-3.36-4.89c0.68-2.01,2.15-3.21,4.21-3.26c6.39-0.14,12.79-0.19,19.19-0.36c1.69-0.05,2.64,0.63,3.38,2.08
		c0.83,1.63,1,3.2,0.01,4.74C249.59,11.98,248.86,12.63,248.5,13.04z"/>
	<path fill-rule="evenodd" clip-rule="evenodd" d="M567.63,7.96c-0.14-1.65,0.55-2.27,1.56-2.53c1.08-0.27,2.18-0.5,3.29-0.56
		c5.73-0.3,11.47-0.54,17.2-0.8c1.7-0.08,3.11,0.61,4.25,1.83c1.18,1.27,1.31,2.51,0.5,3.93c-1.03,1.83-1.93,2.1-3.8,2.02
		c-2.86-0.13-5.73,0-8.59,0.12c-2.62,0.11-5.24,0.35-7.87,0.54c-0.79,0.06-1.59,0.09-2.38,0.21c-1.92,0.29-2.67-0.03-3.33-1.77
		C568.04,9.84,567.82,8.66,567.63,7.96z"/>
	<path fill-rule="evenodd" clip-rule="evenodd" d="M13.83,4.88c1.12-0.02,2.23-0.05,3.35-0.05c3.61,0.02,6.11,3.42,5.12,6.94
		c-0.64,2.27-1.69,2.92-4.02,2.64c-1.01-0.12-2.04-0.08-3.06,0.01c-3.71,0.32-7.42,0.82-11.14,1c-2.78,0.13-4.83-3.46-3.83-6.39
		C0.78,7.51,1.68,6.36,3.4,6.12c3.47-0.49,6.93-0.98,10.39-1.47C13.81,4.73,13.82,4.8,13.83,4.88z"/>
	<path fill-rule="evenodd" clip-rule="evenodd" d="M738.19,6.47c4.05,0.32,8.09,0.64,12.14,0.97c2.15,0.18,3.71,1.27,4.84,3.09
		c0.48,0.76,0.49,1.5,0.11,2.25c-0.65,1.27-2.91,2.1-4.39,2.04c-2.46-0.11-4.93,0.02-7.39,0.1c-3.58,0.11-7.16,0.3-10.74,0.4
		c-1.21,0.04-1.97-0.68-2.15-1.84c-0.24-1.49-0.45-3-0.5-4.5c-0.04-1.37,0.62-1.98,2.08-2.05c1.99-0.09,3.99-0.07,5.98-0.1
		C738.17,6.7,738.18,6.59,738.19,6.47z"/>
	<path fill-rule="evenodd" clip-rule="evenodd" d="M699.78,5.47c4.09,0.57,8.18,1.11,12.27,1.72c1.82,0.27,3.26,1.25,4.28,2.79
		c0.61,0.93,0.6,1.76-0.37,2.5c-1.38,1.06-2.71,1.56-4.6,1.19c-2.71-0.53-5.52-0.71-8.29-0.71c-3.81,0-7.62,0.29-11.43,0.47
		c-0.94,0.04-1.64-0.38-1.79-1.23c-0.26-1.47-0.43-2.98-0.41-4.47c0.01-1.11,1.06-1.27,1.95-1.35c2.78-0.22,5.56-0.4,8.34-0.6
		C699.75,5.67,699.76,5.57,699.78,5.47z"/>
	<path fill-rule="evenodd" clip-rule="evenodd" d="M462.88,8.73c-0.14-2.41,0.5-3.03,2.68-2.95c4.29,0.16,8.59,0.27,12.89,0.43
		c1.35,0.05,2.74,0.04,4.03,0.37c1.19,0.3,2.39,0.85,3.39,1.57c1.04,0.75,1.08,2.06,0.43,3.21c-1.26,2.2-1.71,2.4-4.32,2.1
		c-0.71-0.08-1.43-0.04-2.15,0c-4.45,0.21-8.89,0.45-13.34,0.65c-1.79,0.08-2.7-0.56-3.1-2.26C463.13,10.77,463.03,9.66,462.88,8.73
		z"/>
	<path fill-rule="evenodd" clip-rule="evenodd" d="M505.96,5.73c2.87,0.11,5.74,0.22,8.61,0.32c0.8,0.03,1.65,0.18,2.39-0.02
		c1.86-0.51,3.25,0.21,4.55,1.37c1.54,1.37,1.64,2.56,0.23,4.08c-0.98,1.06-1.93,1.85-3.71,1.3c-1.54-0.47-3.31-0.23-4.99-0.24
		c-2.31-0.01-4.63-0.05-6.94,0.08c-2.3,0.13-4.59,0.38-6.87,0.73c-1.79,0.27-2.59-0.17-2.76-1.94c-0.07-0.71-0.17-1.48,0.02-2.15
		c0.72-2.5,0.4-3.25,3.48-3.17c1.99,0.06,3.99-0.04,5.98-0.07C505.96,5.92,505.96,5.82,505.96,5.73z"/>
	<path fill-rule="evenodd" clip-rule="evenodd" d="M543.97,6.13c2.62-0.04,5.24-0.14,7.86-0.09c1.78,0.03,3.22,1.04,4.22,2.4
		c0.41,0.56,0.42,1.72,0.14,2.43c-0.33,0.83-1.14,1.49-1.77,2.19c-0.82,0.92-1.74,0.27-2.65,0.19c-1.41-0.12-2.84-0.02-4.25,0
		c-2.71,0.04-5.42,0.06-8.12,0.15c-1.02,0.03-2.05,0.2-3.06,0.38c-1.82,0.33-2.44,0.04-3.01-1.78c-0.38-1.21-0.64-2.46-0.8-3.72
		c-0.17-1.36,0.24-1.84,1.67-2.07c1.33-0.21,2.69-0.33,4.04-0.39c1.91-0.08,3.82-0.07,5.74-0.1C543.97,5.86,543.97,5.99,543.97,6.13
		z"/>
	<path fill-rule="evenodd" clip-rule="evenodd" d="M433.93,6.84c3.1,0.13,6.21,0.27,9.31,0.38c1.03,0.04,2.12,0.16,3.09-0.09
		c1.31-0.34,2.34,0.02,3.33,0.75c3.21,2.36,2.36,3.91,0.15,5.9c-0.41,0.37-1.16,0.57-1.74,0.53c-3.56-0.23-7.11-0.62-10.67-0.83
		c-2.78-0.17-5.57-0.13-8.35-0.22c-1.7-0.05-2.6-1.34-2.57-3.56c0.03-1.74,0.93-2.61,2.66-2.61c1.59,0,3.18-0.04,4.77-0.07
		C433.93,6.95,433.93,6.89,433.93,6.84z"/>
</g>
</svg>
