<svg xmlns="http://www.w3.org/2000/svg" width="47.57" height="34.38" viewBox="0 0 47.57 34.38"><path fill="#020303" d="M2.63 30.75c-.15-.33-.3-.65-.45-.95-.15-.3-.3-.57-.45-.82-.36-.73-.68-1.38-.95-1.95-.27-.58-.53-1.24-.77-2 .09-.51.25-1.38.48-2.59.23-1.21.49-2.53.79-3.97.3-1.44.63-2.9.98-4.38s.7-2.75 1.07-3.81c.33-.94.7-1.94 1.11-2.99.41-1.06.86-2.03 1.36-2.93.5-.89 1.04-1.66 1.61-2.29.57-.64 1.19-1.01 1.86-1.13.18.24.38.43.59.57.21.14.41.23.59.29.51.73 1.01 1.34 1.5 1.84.48.5 1.06.99 1.72 1.47-.18.91-.45 1.91-.79 3.02s-.71 2.21-1.09 3.33-.75 2.2-1.11 3.24-.65 1.94-.86 2.7c-.18.6-.36 1.3-.54 2.09-.15.67-.31 1.47-.48 2.4-.17.94-.32 1.97-.48 3.08.42-.12.9-.36 1.43-.73.53-.36 1.02-.74 1.47-1.13.54-.45 1.07-.94 1.59-1.45.7-.7 1.29-1.33 1.77-1.91.48-.57.93-1.17 1.34-1.79.41-.62.83-1.3 1.27-2.04s.96-1.62 1.56-2.65c.54-.88 1.11-1.81 1.7-2.81s1.19-1.95 1.79-2.86c.6-.91 1.19-1.75 1.77-2.52s1.1-1.37 1.59-1.79c.33.33.72.68 1.16 1.04.44.36.91.62 1.43.77.21.33.42.63.61.88.2.26.38.51.57.75.21.36.43.66.63.93s.37.57.52.91c-.03.24-.08.56-.16.95-.07.39-.16.82-.25 1.29-.09.47-.19.94-.29 1.43-.11.48-.21.95-.29 1.41-.3 1.36-.53 2.39-.68 3.08s-.26 1.24-.32 1.63c-.06.39-.1.73-.11 1-.02.27-.02.65-.02 1.13 0 .36.03.72.09 1.09.06.33.13.67.2 1.02.08.35.22.67.43.98l2.18-1.68c.61-.45 1.19-1.1 1.75-1.93.56-.83 1.1-1.78 1.63-2.86s1.05-2.24 1.56-3.49 1.03-2.55 1.54-3.88c.36-.97.73-1.93 1.11-2.88.38-.95.76-1.86 1.16-2.72.39-.86.78-1.65 1.16-2.36.38-.71.75-1.31 1.11-1.79.82.51 1.52 1.03 2.11 1.54.59.51 1.1 1.08 1.54 1.7.44.62.79 1.33 1.04 2.13.26.8.45 1.75.57 2.83-.67 1.27-1.29 2.57-1.86 3.9-.57 1.33-1.15 2.68-1.72 4.04-.73 1.75-1.47 3.5-2.25 5.24-.77 1.74-1.62 3.39-2.56 4.97-.94 1.57-1.99 3.02-3.15 4.33s-2.5 2.43-4.01 3.33c-.42-.09-.79-.14-1.09-.14-.33 0-.61.05-.84.14-.23.09-.43.21-.61.36-1.24-.57-2.24-1.43-2.99-2.56s-1.5-2.4-2.22-3.79c-.09-.21-.19-.42-.29-.61-.11-.2-.22-.4-.34-.61l-.77-1.41-.45-.86-.63.59-.95.86-.54.54c-.94.88-1.89 1.73-2.86 2.56-.97.83-1.98 1.59-3.04 2.27-1.06.68-2.18 1.23-3.38 1.65-1.19.42-2.47.65-3.83.68-.24-.12-.46-.23-.66-.32s-.39-.18-.57-.27c-.7-.33-1.27-.65-1.72-.95-.49-.28-1.02-.75-1.62-1.38z"/></svg>