<svg xmlns="http://www.w3.org/2000/svg" width="35.67" height="34.38" viewBox="0 0 35.67 34.38"><path fill="#020303" d="M.98 8.19C.95 7.95.9 7.74.83 7.54c-.08-.19-.16-.41-.25-.65-.15-.35-.28-.74-.4-1.16C.06 5.31 0 4.82 0 4.25c.06-.3.13-.51.22-.65.09-.13.18-.24.27-.33l.18-.81h.67c.24.03.48.04.74.04h.74c1.13 0 2.3-.04 3.49-.13 1.19-.09 2.42-.19 3.67-.31 1.37-.18 2.85-.31 4.43-.4.15-.33.25-.54.29-.63.04-.09.1-.19.16-.31l.49-.27c.69-.03 1.16.05 1.43.25s.48.38.63.56c.78-.06 1.57-.14 2.37-.25s1.64-.22 2.51-.34c1.19-.15 2.4-.3 3.62-.45C27.14.07 28.33 0 29.5 0c.51 0 .99.02 1.43.04s.88.07 1.3.13l.54.4c.12.21.27.4.45.58.18.18.39.36.63.54.45.36.89.81 1.32 1.34.43.54.59 1.33.47 2.37l-.22.45c-.12.12-.27.24-.45.36l-.46.59h-.49c-.3 0-.52.02-.67.07-.15.04-.33.11-.54.2-.12.06-.25.11-.4.16-.15.04-.31.1-.49.16-.33-.03-.58-.04-.76-.04h-.63c-.9 0-1.87.06-2.91.18s-2.06.25-3.04.4c-.72.09-1.4.17-2.06.25-.66.07-1.25.14-1.79.2-.3.78-.57 1.46-.81 2.06-.24.6-.49 1.19-.76 1.79-.27.6-.52 1.2-.76 1.81-.24.61-.46 1.29-.67 2.04-.36.54-.66 1.05-.9 1.54s-.43 1.05-.58 1.68c-.45.51-.77 1.06-.96 1.66-.19.6-.37 1.1-.52 1.52l-.18.67c-.21.21-.34.37-.38.49-.04.12-.13.25-.25.4-.09.39-.21.76-.36 1.12-.06.15-.12.3-.18.47-.06.16-.07.29-.04.38-.06.33-.15.58-.27.76 0 .18-.02.36-.04.54l-.09.54c-.06.21-.1.39-.13.56s-.02.32.04.47l.27.36c.09.12.16.27.22.45.06.06.13.1.22.13s.16.07.22.13c.24.21.46.33.67.36l.45.54c.18 1.07.02 1.91-.49 2.51-.54.69-1.43 1.03-2.69 1.03l-.63-.04c-.21-.21-.33-.34-.36-.4-.27-.12-.49-.22-.67-.29s-.34-.22-.49-.42c-.06-.06-.13-.1-.22-.11-.09-.01-.16-.05-.22-.11-.3-.09-.54-.19-.72-.31l-.49-.27c.03-.3.04-.51.04-.63-.24-.33-.43-.69-.56-1.07s-.25-.79-.34-1.21c-.09-.33-.17-.63-.25-.9s-.19-.51-.34-.72c-.06-2.09.13-3.84.58-5.26s.94-2.8 1.48-4.14c.3-.72.58-1.45.85-2.19.27-.75.51-1.51.72-2.28l.49-.49c.21-.18.34-.28.4-.31 0-.39.07-.77.22-1.14.15-.37.31-.75.49-1.14.12-.24.23-.48.34-.72s.17-.45.2-.63c-.21 0-.4.01-.56.02-.16.02-.34.04-.51.07-.39.09-.76.13-1.12.13-.27 0-.46-.02-.58-.04-.24.12-.46.19-.67.2-.19-.02-.4-.01-.6-.01H7.16c-.36 0-.64.04-.85.13H4.03c-.24 0-.51-.02-.81-.07s-.61-.15-.94-.33l-.31-.36c-.18-.32-.34-.5-.49-.53l-.5-.14v-.49z"/></svg>