<svg xmlns="http://www.w3.org/2000/svg" width="460" height="377.33" viewBox="0 0 460 377.33"><path fill="#DADADA" d="M137.73 93.46h1.08v42.37h-1.08z"/><g fill="#DFDFDF"><path d="M133.45 93.83c-.24.27-.25.73-.29 1.16.22-.34.32-.69.29-1.16zM133.15 95l.01-.01zM132.6 93.71c0 .11.01.23.01.36.01-.13.01-.25-.01-.36zM132.73 115.98l.4.06c.02 1.03-.45.31-.34 1.25.57.37-.04 1.58.27 1.9-.04-.01-.06.46-.23.43.31.14.08.48.16.77.09.1.09-.08.18-.16l.12.67c-.1.26-.27.33-.31.05-.09 1.76-.27 10.19-.1 12.08.23-.25.06-.83.43-1.06.21.5-.06.74.16.96-.54.2-.12 1.1-.66 1.49l.31.14-.19.25c.1.62.15.93.18 1.08 2.4-2.43 4.71-4.77 5.72-5.79-.41.06-.04-.02-1.08-.07 1.47 1.48 2.93 2.97 5.79 5.86 0-.07.01-.18.02-.29-.03-1.13-.45-1.67-.29-2.3 0 .09-.2.34-.27.05.27-.05-.18-.78.09-.92-.03-.29.02-1.21-.36-.9.19-.16.27-.98.43-.49.01-.28.07-.55-.01-.75l-.11.36c-.04-.94.25-1.45-.07-2.07l-.15.35c-.02-.56-.04-1.04.33-1.25l.1.58c0-.93-.01-1.5-.2-2.28l-.01.28c-.35-1-.59-6.19-1.03-7.12l-.29.42-.23-.79c0 .09.91.39.82.47 0-1.69-.11-10.46.1-12.01.17-.63.45-.11.5-.1-.1-.77-.3-.33-.26-.98.05-.18.22.04.26.14-.03-.29.07-.55-.06-.57-.11.35-.46.2-.69.35l.04-.84.22.04c.01-.19-.6-.48-.47-1.3.11-1.38.05-2.89.12-4.28.13.02.21.32.28.61.01-.19-.02-.47.08-.64-.24.33-.15-.59-.25-.33-.53-1.03-.02-2.34-.37-3.25-.49-.08-8.35-2.04-8.93-2.04.01-.28.03-.56.08-.64-.14.07-.21.62-.14.91l.31.05c.1.67-.19.15-.17.81-.25.03-.3-.57-.32-1.1-.04.48-.23.95.05 1.15-.11.45-.31-.05-.43.49.07.39.31.9.16 1.34l-.04-.01c-.28 1.07.36 1.65.09 2.64l-.08-.11c-.15.35.04 1.04-.13 1.66.05-.18.24-.33.27.05-.17.72-.02 1.21-.22 1.74l.24.51c-.08 2.51.15 12.45.15 14.98l-.04-.1c.07 3.85-.04 11.75.25 15.73-.19.47-.21 1.08-.24 1.63l-.29 4.91 5.39.25.47.03c-.36-.1-.23-.28.04-.27h.56l5.02.01-.16-4.93c-.03-1-.18.19-.29-1.54-.26-2.27-.11-10.99.08-13.02-.38-1.08-.12-2.44-.36-3.5l.09.11c-.15-1.14.1-7.61-.04-8.94l-.05.18c-.24-1.15.16-1 .27-1.92-.4.12-.65-.86-.68-1.24l.09.01c-.08-.57-.44-1.86-.51-2.8l.22.03c-.25-.78-.17-2.26-.2-2.83.08-1.29.44-3.29.12-5.01l.62-1.12-.06-.16s-7.65-1.7-9.25.6l-.22-.03.03.45c-.1.54.16.79-.06.75l.02-.74c-.06.54-.18.17-.31-.04-.02.23-.04.45-.11.63.09.11.09-.08.14-.17.08.29.29.7.2 1.05-.01.56-.36.04-.37.69-.13 3.43-.34 6.75-.25 10.22-.09.08-.09-.01-.13-.11.11 1.04.09 1.97.2 2.92-.1.27-.23.34-.32.42.09-.08.16 1.23.2 2.57.01.67.02 1.35.04 1.87-.07.51-.07.86-.08.88z"/></g><path fill="#DADADA" d="M143.81 105.96h1.08v29.98h-1.08z"/><g fill="#DFDFDF"><path d="M139.53 106.27c-.24.19-.26.52-.29.83.22-.24.32-.5.29-.83zM139.23 107.1v.01-.01zM138.68 106.09c0 .08.01.17.01.25.01-.08.01-.17-.01-.25zM138.81 122.04l.4.04c.02.73-.45.22-.34.9.57.25-.04 1.12.27 1.35-.04 0-.06.33-.23.31.31.1.08.34.16.55.09.07.09-.06.18-.12l.12.48c-.1.19-.27.24-.31.04-.09 1.25-.27 7.25-.1 8.6.23-.18.06-.59.43-.75.21.35-.06.52.16.68-.54.15-.12.78-.66 1.06l.31.1-.19.18c.07.3.12.5.15.61 2.35-2.39 4.57-4.66 5.75-5.85-.57.12-.03.01-1.08-.05 1.19 1.22 2.38 2.42 5.8 5.9v-.05c-.03-.8-.45-1.19-.29-1.64 0 .07-.2.24-.27.03.27-.03-.18-.56.09-.65-.03-.2.02-.86-.36-.65.19-.11.27-.7.43-.34.02-.2.07-.39-.01-.53l-.11.25c-.04-.67.25-1.03-.08-1.48l-.15.25c-.02-.4-.04-.74.33-.89l.1.41c0-.67-.02-1.07-.2-1.62l-.01.2c-.35-.71-.59-4.41-1.03-5.07l-.29.29-.23-.56c0 .07.91.29.82.34-.01-1.2-.11-7.44.1-8.54.17-.44.45-.07.5-.07-.1-.55-.3-.24-.26-.7.05-.12.22.03.26.1-.03-.2.07-.39-.06-.41-.11.25-.46.14-.69.24l.04-.59.22.03c.01-.13-.6-.35-.47-.93.11-.98.06-2.06.12-3.05.13.02.21.23.28.44.01-.13-.02-.34.08-.46-.24.24-.15-.42-.25-.23-.53-.74-.02-1.67-.37-2.31-.49-.06-8.35-1.52-8.93-1.53.02-.2.03-.4.08-.46-.14.05-.21.44-.13.65l.31.04c.1.48-.19.11-.17.58-.26.02-.3-.41-.32-.79-.04.34-.23.68.05.82-.11.32-.31-.04-.43.34.07.28.31.64.16.95l-.05-.01c-.27.76.37 1.18.09 1.88l-.08-.08c-.15.25.04.74-.13 1.18.05-.13.24-.23.27.04-.17.51-.02.86-.22 1.24l.24.36c-.08 1.79.15 8.86.15 10.66l-.04-.07c.08 2.74-.04 8.36.25 11.2-.17.29-.2.66-.23 1l-.39 4.84 5.47.34c.17.01.34.02.49.04-.25-.1-.17-.28.03-.27.29.01.47 0 .56-.01l5.37-.68-.52-4.26c-.05-.41-.18.17-.28-.94-.26-1.62-.11-7.82.07-9.26-.38-.77-.12-1.74-.36-2.49l.09.07c-.15-.81.1-5.42-.04-6.36l-.05.13c-.24-.82.16-.72.27-1.37-.4.09-.65-.61-.68-.88l.09.01c-.08-.41-.44-1.32-.51-1.99l.22.02c-.25-.55-.17-1.61-.2-2.01.07-.92.44-2.35.12-3.57l.62-.81-.06-.12s-7.65-1.14-9.25.51l-.22-.02.03.32c-.1.39.16.56-.06.54l.02-.53c-.06.39-.18.12-.31-.02-.02.16-.04.32-.11.45.09.07.09-.06.14-.12.08.21.29.49.2.75-.02.4-.36.03-.37.49-.13 2.44-.34 4.81-.25 7.27-.09.06-.09-.01-.13-.08.11.74.09 1.4.2 2.08-.1.19-.23.24-.32.3.15-.12.23 3.73.19 3.79z"/></g><path fill="#DADADA" d="M179.95 119.95h1.08v16h-1.08z"/><g fill="#DFDFDF"><path d="M175.67 120.23c-.24.11-.26.29-.29.46.22-.14.32-.28.29-.46zM175.37 120.69h.01zM174.82 119.88c0 .04.01.09.01.14.01-.04.01-.09-.01-.14zM174.95 128.8l.4.01c.02.4-.45.13-.34.49.57.12-.04.61.27.73-.04 0-.06.18-.23.17.31.04.08.18.16.29.09.04.09-.03.18-.07l.12.25c-.1.1-.27.13-.31.03-.09.68-.27 3.94-.09 4.66.23-.1.06-.32.43-.42.21.19-.06.29.16.36-.54.09-.12.43-.66.59l.31.04-.19.1c.02.04.03.07.04.09 2.23-2.3 4.34-4.49 5.84-6.04-.71.27-.14.11-.86.04-.08.01-.15.03-.22.06 1.97 2.03 3.93 4.06 5.74 5.94-.12-.3-.37-.48-.23-.67 0 .04-.2.12-.27.01.27-.01-.18-.31.09-.35-.03-.11.02-.47-.35-.36.19-.05.27-.37.42-.18.02-.11.07-.21-.01-.29l-.11.14c-.04-.37.25-.55-.07-.8l-.15.13c-.02-.22-.04-.4.33-.47l.1.23c0-.36-.01-.58-.2-.89l-.01.11c-.35-.4-.58-2.41-1.03-2.77l-.29.15-.23-.31c0 .03.91.18.82.2 0-.65-.11-4.04.1-4.63.17-.24.45-.03.5-.02-.1-.3-.3-.14-.26-.39.05-.07.22.02.26.06-.03-.11.07-.21-.06-.22-.11.13-.46.06-.69.11l.04-.32.22.02c.01-.07-.6-.2-.47-.52.11-.53.06-1.11.12-1.65.13.01.21.13.28.24.01-.07-.02-.18.08-.25-.24.12-.15-.23-.25-.13-.53-.41-.02-.9-.37-1.26-.49-.05-8.35-1.02-8.93-1.04.02-.11.03-.21.08-.25-.14.02-.21.23-.13.35l.31.03c.1.26-.19.06-.17.31-.25 0-.3-.23-.32-.44-.04.18-.23.36.05.44-.11.17-.31-.03-.43.18.07.15.31.35.16.52h-.04c-.28.41.36.65.09 1.02l-.08-.04c-.15.13.04.4-.13.64.05-.07.24-.12.26.02-.17.27-.02.47-.22.67l.24.2c-.08.97.14 4.81.15 5.78l-.04-.04c.07 1.49-.05 4.53.24 6.07-.1.09-.15.19-.18.29l-1.1 3.54 6.13 1.68c.17.05.36.04.51.08-.14-.1-.09-.28.02-.27.63.02.25-.11.55-.22l5.94-2.08-1.29-2.72c-.02-.05-.05-.13-.07-.26-.26-.87-.11-4.24.07-5.02-.38-.41-.12-.94-.36-1.34l.09.04c-.15-.44.1-2.94-.05-3.45l-.05.07c-.24-.44.16-.39.27-.75-.4.06-.65-.31-.68-.46h.09c-.08-.22-.45-.7-.51-1.06l.22.01c-.25-.29-.17-.87-.2-1.08.08-.5.44-1.28.12-1.94l.62-.45-.06-.06s-7.65-.44-9.25.5l-.22-.01.03.17c-.1.21.16.3-.06.29l.02-.29c-.06.21-.18.07-.31-.01-.02.09-.04.17-.11.25.09.04.09-.03.14-.07.08.11.3.26.2.4-.01.22-.36.02-.37.28-.13 1.33-.34 2.61-.25 3.95-.09.03-.09 0-.13-.04.11.4.09.76.2 1.12-.1.1-.23.14-.32.17.16-.04.25 2.04.2 2.08z"/></g><path fill="#DADADA" d="M136.85 118.9h1.08v17.05h-1.08z"/><g fill="#DFDFDF"><path d="M132.57 119.18c-.24.12-.26.3-.29.48.22-.14.32-.29.29-.48zM132.27 119.67h.01v-.01zM131.73 118.85c0 .04.01.1.01.15 0-.05.01-.1-.01-.15zM131.85 128.29l.4.01c.02.42-.45.14-.34.52.57.13-.04.65.27.77-.04 0-.06.19-.23.18.31.05.08.19.16.31.09.04.09-.03.18-.07l.12.27c-.1.11-.27.14-.31.03-.09.72-.27 4.19-.09 4.96.23-.11.06-.34.43-.44.21.2-.06.3.16.39-.54.1-.12.45-.66.63l.31.05-.19.11c.02.05.04.1.06.13 2.24-2.31 4.36-4.5 5.83-6.02-.7.25-.13.1-.88.03-.07.01-.14.02-.2.05 1.98 2.05 3.96 4.09 5.75 5.94-.11-.34-.39-.54-.25-.75 0 .04-.2.13-.27.01.27-.01-.18-.33.09-.38-.03-.12.02-.5-.35-.38.19-.06.27-.4.43-.19.01-.11.07-.22-.01-.31l-.11.14c-.04-.39.25-.59-.07-.85l-.15.14c-.02-.23-.04-.43.33-.5l.1.24c0-.38-.01-.61-.2-.94l-.01.11c-.35-.42-.58-2.56-1.03-2.95l-.29.16-.23-.33c0 .04.91.18.82.21 0-.69-.11-4.29.1-4.92.17-.25.45-.03.5-.03-.1-.32-.29-.15-.26-.41.05-.07.22.02.26.06-.03-.12.07-.22-.06-.24-.11.14-.46.07-.69.12l.04-.34.22.02c.01-.08-.6-.21-.47-.55.11-.56.06-1.18.12-1.75.13.01.21.14.28.26.01-.08-.02-.19.08-.26-.24.13-.15-.25-.25-.14-.53-.44-.02-.96-.37-1.34-.49-.05-8.35-1.06-8.93-1.07.02-.11.03-.23.08-.26-.14.02-.21.25-.14.37l.31.03c.1.28-.19.06-.17.33-.26.01-.3-.24-.32-.46-.04.19-.23.38.05.47-.11.18-.31-.03-.43.19.07.16.31.38.16.55h-.04c-.28.43.36.69.09 1.08l-.08-.05c-.15.14.04.42-.13.68.05-.07.24-.13.27.03-.17.29-.02.5-.22.71l.24.21c-.08 1.03.15 5.11.15 6.15l-.04-.04c.07 1.58-.05 4.82.24 6.46-.1.1-.16.22-.19.35l-.99 3.87 6.04 1.34c.17.04.36.04.51.08-.15-.1-.1-.28.02-.27.64.02.29-.1.55-.2l5.97-2.42-1.31-2.39c-.03-.05-.06-.15-.08-.31-.26-.93-.11-4.51.07-5.34-.38-.43-.12-1-.36-1.43l.09.04c-.15-.46.1-3.12-.05-3.67l-.05.08c-.24-.47.16-.42.27-.79-.4.06-.65-.34-.68-.49h.09c-.08-.23-.44-.75-.51-1.13l.22.01c-.25-.31-.17-.92-.2-1.15.07-.53.44-1.36.12-2.06l.62-.48-.06-.06s-7.65-.5-9.25.49l-.22-.01.03.18c-.1.23.16.32-.06.31l.02-.31c-.06.23-.18.07-.31-.01-.02.09-.04.19-.11.26.09.04.09-.04.14-.07.08.12.29.28.2.43-.01.23-.36.03-.37.29-.13 1.41-.34 2.78-.25 4.2-.09.04-.09 0-.13-.04.11.42.09.81.2 1.19-.1.11-.23.15-.32.18.14-.07.23 2.15.18 2.19z"/></g><path fill="#DADADA" d="M98.86 109.09h1.08v26.86h-1.08z"/><g fill="#DFDFDF"><path d="M94.58 109.39c-.24.17-.26.47-.29.74.22-.22.32-.44.29-.74zM94.28 110.14v-.01zM93.73 109.18c0 .07.01.15.01.23.01-.08.01-.15-.01-.23zM93.85 123.54l.4.03c.02.66-.45.2-.34.8.57.23-.04 1.01.27 1.21-.05 0-.06.29-.23.28.31.08.08.3.16.49.09.07.09-.05.18-.1l.12.43c-.1.17-.27.21-.31.03-.09 1.12-.27 6.51-.1 7.72.23-.16.06-.53.43-.68.21.31-.06.47.16.61-.54.13-.12.71-.66.96l.31.09-.19.16c.06.23.1.39.13.5 2.33-2.37 4.53-4.62 5.76-5.88-.61.15-.03.02-1.07-.04h-.01c2.06 2.1 4.12 4.2 5.8 5.92-.04-.71-.45-1.06-.29-1.46 0 .06-.2.21-.27.03.27-.03-.18-.5.09-.59-.03-.18.02-.77-.36-.58.19-.1.27-.62.43-.31.02-.18.07-.35-.01-.48l-.11.23c-.04-.6.25-.93-.08-1.32l-.15.22c-.02-.36-.04-.66.33-.8l.1.37c0-.6-.02-.96-.2-1.46l-.01.18c-.35-.64-.59-3.96-1.03-4.56l-.29.26-.23-.51c-.01.06.91.26.82.31 0-1.08-.11-6.68.1-7.67.17-.4.45-.06.5-.06-.1-.49-.3-.22-.26-.63.05-.11.22.03.26.09-.03-.18.07-.35-.06-.37-.11.23-.46.12-.69.21l.04-.53.22.03c.01-.12-.6-.31-.47-.84.11-.88.05-1.84.12-2.73.13.02.21.21.28.39.01-.12-.02-.3.08-.41-.24.21-.15-.38-.25-.21-.53-.66-.02-1.5-.37-2.08-.49-.06-8.35-1.4-8.93-1.41.01-.18.03-.35.08-.41-.14.04-.21.39-.14.58l.31.04c.1.43-.19.1-.17.52-.25.02-.3-.37-.32-.71-.04.31-.23.61.05.74-.11.29-.31-.04-.43.31.07.25.31.58.16.86l-.04-.01c-.28.68.36 1.06.09 1.68l-.08-.07c-.15.22.04.66-.13 1.06.05-.11.24-.21.27.03-.17.46-.02.78-.22 1.11l.24.33c-.08 1.6.15 7.95.15 9.57l-.04-.06c.08 2.46-.04 7.5.25 10.05-.16.24-.2.55-.23.85l-.44 4.78 5.52.4c.17.01.34.02.5.05-.23-.1-.15-.28.03-.27.31.01.47 0 .56-.02l5.63-1.04-.79-3.9c-.05-.27-.18.16-.27-.79-.26-1.45-.11-7.02.07-8.31-.38-.69-.12-1.56-.36-2.23l.09.07c-.15-.73.1-4.86-.04-5.71l-.05.12c-.24-.74.16-.64.27-1.23-.4.08-.65-.54-.68-.79l.09.01c-.07-.36-.44-1.18-.51-1.78l.22.02c-.25-.5-.17-1.44-.2-1.8.08-.83.44-2.11.12-3.2l.62-.73-.07-.1s-7.65-.99-9.25.49l-.22-.02.03.29c-.1.35.16.5-.06.48l.02-.47c-.06.35-.18.11-.31-.02-.02.15-.04.29-.11.4.09.07.09-.05.14-.11.08.19.29.44.2.67-.01.36-.36.03-.37.45-.13 2.19-.34 4.32-.25 6.53-.09.05-.09-.01-.13-.07.11.67.09 1.26.2 1.86-.1.17-.23.22-.32.27.16-.11.25 3.34.2 3.39z"/></g><path fill="#DADADA" d="M117.44 71.33h1.08v64.62h-1.08z"/><g fill="#DFDFDF"><path d="M113.15 71.84c-.24.41-.26 1.1-.29 1.76.23-.51.33-1.05.29-1.76zM112.86 73.61v.01l.01-.02zM112.31 71.77c0 .16.01.35.01.54.01-.18.01-.37-.01-.54zM112.43 105.47l.4.1c.02 1.56-.45.46-.34 1.9.57.56-.04 2.4.27 2.89-.04-.01-.06.7-.23.65.31.21.08.73.16 1.17.09.16.09-.12.18-.24l.12 1.02c-.1.4-.27.5-.31.07-.09 2.67-.27 15.47-.1 18.34.23-.37.06-1.26.43-1.6.21.76-.06 1.12.15 1.45-.54.3-.12 1.67-.66 2.25l.31.21-.18.38c.15 1.44.19 1.78.21 1.93 2.2-2.22 4.39-4.43 5.69-5.74-.18 0-.14-.04-1.08-.08 1.78 1.79 3.56 3.59 5.78 5.83.01-.18.02-.42.03-.72-.03-1.71-.45-2.53-.29-3.48 0 .14-.19.52-.27.07.27-.07-.18-1.18.09-1.4-.03-.43.02-1.84-.36-1.37.19-.24.27-1.49.43-.74.01-.42.07-.83-.01-1.14l-.11.54c-.04-1.43.25-2.21-.07-3.15l-.15.53c-.02-.86-.04-1.57.33-1.91l.1.88c0-1.42-.01-2.28-.2-3.46l-.01.42c-.35-1.51-.59-9.4-1.03-10.79l-.29.64-.23-1.2c-.01.14.92.58.82.7 0-2.56-.11-15.88.1-18.24.17-.95.45-.17.5-.16-.1-1.16-.3-.5-.26-1.49.05-.27.22.06.26.21-.03-.43.07-.83-.06-.87-.11.54-.46.31-.69.54l.04-1.27.22.06c.01-.28-.6-.72-.47-1.97.11-2.1.05-4.39.12-6.5.13.03.21.48.28.93.01-.28-.02-.72.08-.98-.24.51-.15-.89-.25-.49-.53-1.55-.02-3.56-.37-4.93-.49-.12-8.35-3-8.93-3 .01-.42.03-.85.08-.98-.14.11-.21.94-.14 1.39l.31.08c.1 1.02-.19.24-.17 1.23-.26.05-.3-.87-.32-1.67-.03.73-.23 1.45.05 1.75-.11.68-.31-.08-.43.74.07.59.31 1.36.16 2.03l-.04-.01c-.28 1.64.36 2.51.09 4l-.08-.16c-.15.53.04 1.57-.13 2.52.05-.27.24-.51.27.07-.17 1.1-.02 1.84-.22 2.65l.24.77c-.08 3.82.15 18.9.15 22.74l-.04-.15c.08 5.85-.04 17.84.25 23.89-.22.8-.21 1.86-.26 2.76l-.23 4.87 5.34.28c.15.01.29.02.43.02-.54-.1-.35-.28.07-.27h.58l4.92.02-.06-4.93c-.02-1.97-.18.13-.3-2.62-.26-3.46-.11-16.69.08-19.76-.38-1.65-.12-3.71-.36-5.32l.09.16c-.15-1.73.1-11.56-.04-13.57l-.05.27c-.24-1.76.16-1.52.27-2.91-.4.19-.65-1.32-.68-1.89l.09.02c-.08-.87-.44-2.83-.51-4.26l.22.05c-.25-1.19-.17-3.44-.2-4.29.08-1.96.44-4.99.12-7.61l.62-1.7-.06-.25s-7.65-2.67-9.25.81l-.22-.05.03.69c-.1.82.16 1.2-.06 1.15l.02-1.13c-.06.83-.18.25-.31-.06-.02.34-.04.68-.11.96.09.16.09-.12.14-.25.08.44.29 1.06.2 1.6-.01.85-.36.06-.37 1.04-.13 5.21-.34 10.25-.25 15.51-.09.12-.09-.02-.13-.17.11 1.58.09 2.99.2 4.43-.1.4-.23.51-.32.63.09-.12.16 1.87.19 3.91.01 1.02.03 2.05.04 2.83-.04.78-.05 1.32-.06 1.35z"/></g><path fill="#DADADA" d="M95.54 14.48h1.08v121.44h-1.08z"/><g fill="#DFDFDF"><path d="M91.26 15.39c-.24.75-.26 2.05-.29 3.29.23-.95.32-1.96.29-3.29zM90.96 18.7v.02-.04c.01.01.01.01 0 .02zM90.42 15.37c0 .31.01.66.01 1.01.01-.33.01-.68-.01-1.01zM90.54 78.33l.4.19c.02 2.92-.45.85-.34 3.55.57 1.05-.04 4.49.27 5.42-.04-.02-.06 1.3-.23 1.22.31.4.08 1.36.16 2.19.09.3.09-.22.18-.45l.12 1.91c-.1.75-.27.93-.31.12-.09 4.99-.28 28.96-.1 34.34.23-.69.06-2.35.43-2.98.21 1.42-.06 2.09.16 2.72-.54.55-.12 3.12-.66 4.2l.31.41-.19.71c.23 4.08.23 3.44.19 4.08 1.62-1.63 3.25-3.26 5.72-5.74-.17-.01-.47-.03-1.08-.05 1.83 1.84 3.66 3.68 5.77 5.79.01-.42.02-1.01.04-1.82-.03-3.21-.45-4.73-.29-6.52 0 .27-.19.97-.27.14.27-.14-.18-2.21.09-2.62-.03-.81.02-3.45-.36-2.56.19-.45.27-2.8.43-1.4.02-.79.07-1.56-.01-2.13l-.11 1.02c-.04-2.68.25-4.14-.08-5.89l-.15.99c-.02-1.6-.04-2.94.33-3.57l.1 1.65c0-2.66-.01-4.26-.2-6.48l-.01.79c-.35-2.82-.59-17.59-1.03-20.19l-.29 1.2-.23-2.24c0 .27.92 1.08.82 1.31-.01-4.79-.11-29.72.1-34.14.17-1.78.45-.32.5-.3-.1-2.17-.3-.94-.26-2.79.05-.5.22.1.26.39-.03-.81.07-1.56-.06-1.62-.11 1.01-.46.58-.69 1.01l.04-2.38.22.11c.01-.53-.6-1.35-.47-3.68.11-3.94.05-8.22.12-12.18.13.06.21.9.28 1.73.01-.53-.02-1.34.08-1.83-.24.96-.15-1.66-.25-.92-.53-2.9-.02-6.65-.37-9.22-.49-.23-8.35-5.52-8.93-5.52.02-.79.03-1.59.08-1.83-.14.21-.21 1.77-.14 2.6l.31.15c.1 1.91-.19.45-.17 2.31-.26.1-.3-1.62-.32-3.13-.04 1.36-.23 2.72.05 3.27-.11 1.28-.31-.14-.43 1.4.07 1.1.31 2.54.16 3.8l-.04-.02c-.28 3.06.36 4.69.09 7.49l-.08-.3c-.15.99.04 2.94-.13 4.72.05-.51.24-.95.27.12-.17 2.05-.02 3.45-.22 4.95l.24 1.44c-.08 7.15.15 35.38.15 42.56l-.04-.28c.08 10.94-.04 33.4.25 44.71-.24 1.64-.21 3.87-.27 5.64l-.17 4.97 5.28.17c.12 0 .23.01.34.01-.14-.01-.26-.03-.34-.05l-5.81-1.11.73-3.99c.08-.42.16-.34.2 0l.59 5.41 4.29-.51c.12-.02.28-.02.47-.02h.61l4.88.02-.01-4.91c-.01-4.48-.18-.03-.3-5.38-.26-6.47-.11-31.25.08-37-.38-3.08-.12-6.94-.36-9.96l.09.3c-.15-3.25.1-21.63-.04-25.41l-.05.51c-.24-3.29.16-2.84.27-5.44-.4.34-.65-2.48-.68-3.55l.09.04c-.07-1.62-.44-5.29-.51-7.97l.22.1c-.25-2.23-.17-6.43-.2-8.04.08-3.67.44-9.34.12-14.25l.62-3.18-.06-.46s-7.65-5.08-9.25 1.42l-.22-.1.03 1.28c-.1 1.54.16 2.25-.06 2.15l.02-2.11c-.06 1.55-.18.47-.31-.12-.02.65-.04 1.27-.11 1.79.09.3.09-.22.14-.46.08.83.29 1.99.2 3-.01 1.58-.36.1-.37 1.95-.13 9.74-.34 19.18-.25 29.03-.09.22-.09-.04-.13-.33.11 2.97.09 5.6.2 8.3-.1.75-.23.96-.32 1.18.09-.22.16 3.51.19 7.32.01 1.91.03 3.84.04 5.3-.05 1.47-.05 2.47-.06 2.53z"/></g><path fill="#DADADA" d="M248.18 116.46h1.08v20.24h-1.08z"/><g fill="#DFDFDF"><path d="M243.89 116.74c-.24.13-.25.36-.29.57.23-.17.33-.35.29-.57zM243.6 117.31zM243.05 116.46c0 .05.01.11.01.17.01-.05.01-.11-.01-.17zM243.18 127.48l.4.02c.02.5-.45.16-.34.61.57.17-.04.77.27.92-.04 0-.06.22-.23.21.31.06.08.23.16.37.09.05.09-.04.18-.08l.12.32c-.09.13-.27.17-.31.03-.09.85-.27 4.94-.1 5.85.23-.12.06-.4.43-.52.21.24-.06.36.16.46-.54.11-.11.54-.66.73l.31.06-.18.13c.04.1.06.18.09.25 2.27-2.33 4.42-4.54 5.8-5.96-.67.21-.09.07-.94 0-.05 0-.1.01-.14.02 2.02 2.08 4.04 4.15 5.78 5.93-.08-.46-.42-.71-.27-.98-.01.04-.2.16-.27.02.27-.02-.18-.38.09-.44-.03-.14.02-.59-.36-.45.19-.07.27-.47.43-.23.01-.14.07-.26-.01-.36l-.11.17c-.04-.46.25-.7-.08-1.01l-.15.16c-.02-.27-.04-.5.33-.6l.1.28c0-.45-.01-.73-.2-1.11l-.01.13c-.35-.49-.59-3.01-1.03-3.47l-.29.2-.23-.39c0 .04.91.21.82.24-.01-.82-.11-5.07.1-5.82.17-.3.45-.04.5-.04-.1-.37-.3-.17-.26-.48.05-.08.22.02.26.07-.03-.14.07-.27-.06-.28-.11.17-.46.09-.69.15l.04-.4.22.02c.01-.09-.6-.25-.47-.64.11-.67.06-1.4.12-2.07.13.01.21.16.28.3.01-.09-.02-.23.08-.31-.24.16-.15-.29-.25-.16-.53-.51-.02-1.13-.37-1.58-.49-.05-8.35-1.16-8.93-1.17.01-.13.03-.27.08-.31-.14.03-.21.3-.13.44l.31.03c.1.33-.19.07-.17.39-.25.01-.3-.28-.32-.54-.04.23-.23.46.05.56-.11.21-.31-.03-.43.23.07.19.31.44.16.65h-.04c-.28.51.36.81.09 1.28l-.08-.05c-.15.17.04.5-.13.8.05-.09.24-.16.26.03-.17.35-.02.59-.22.84l.24.25c-.08 1.22.14 6.03.15 7.26l-.04-.05c.07 1.87-.05 5.69.24 7.63-.13.15-.18.33-.21.51l-.71 4.43 5.78.77c.18.02.35.03.51.06-.17-.1-.11-.28.02-.27.64.02.45-.06.55-.15l5.21-4.39-.5-.44c-.04-.04-.09-.15-.13-.47-.26-1.1-.11-5.32.07-6.31-.38-.52-.12-1.18-.36-1.69l.09.05c-.15-.55.1-3.69-.05-4.33l-.05.09c-.24-.56.16-.49.27-.93-.4.07-.65-.41-.68-.59h.09c-.08-.27-.44-.89-.51-1.35l.22.01c-.25-.37-.17-1.09-.2-1.36.08-.63.43-1.6.12-2.43l.62-.56-.06-.08s-7.65-.67-9.25.48l-.22-.01.03.22c-.1.27.16.38-.06.37l.02-.36c-.06.27-.18.08-.31-.01-.02.11-.04.22-.11.31.09.05.09-.04.14-.08.08.14.29.33.2.51-.01.27-.36.03-.37.34-.13 1.66-.34 3.28-.25 4.95-.09.04-.09 0-.13-.05.11.5.09.95.2 1.41-.1.13-.23.17-.32.21.15-.05.23 2.56.19 2.6z"/></g><path fill="#DADADA" d="M240.39 131.31h1.08v5.36h-1.08z"/><g fill="#DFDFDF"><path d="M236.13 131.83c-.24.06-.25.12-.29.19.23-.07.32-.13.29-.19zM235.84 132.02zM235.29 130.78l.01.05c.01-.01.01-.03-.01-.05zM235.44 134.98l.4-.03c.02.14-.45.09-.34.21.57 0-.04.22.27.24-.04 0-.06.07-.23.08.31-.01.08.06.16.09.09.01.09-.02.18-.04l.12.08c-.09.05-.27.07-.31.04-.08.24-.24 1.29-.11 1.62 2.3-2.54 4.55-5.03 5.9-6.52-.03.01-.05.01-.07.02.02.11.04.13.07.16-1.9 2.1-3.81 4.21-5.71 6.32.03-.03.08-.07.27-.1.1.02.09.05.08.07 1.81-2 3.61-3.99 5.37-5.94-.02-.02-.04-.04-.06.07-.03-.54-.15-.13-.2-.68l-.02.31-.04-.19c-.3.32-.07.16-.34.08-.16.05-.23.47-.32.32.01 0 .05.19.01.27-.01-.23-.08.07-.11 0 1.72 1.9 3.45 3.82 5.19 5.74.01 0 .04-.01.08 0-.03-.04.02-.17-.35-.16.19 0 .27-.11.42-.03.02-.04.07-.07-.01-.1l-.11.04c-.04-.14.25-.18-.07-.29l-.15.03c-.02-.08-.04-.15.33-.14l.1.09c0-.13-.01-.21-.19-.34l-.01.04c-.35-.17-.58-.92-1.02-1.09l-.29.03-.23-.13s.23.04.44.08c.22.04.42.07.38.07 0-.23-.1-1.46.11-1.66.17-.07.45.03.49.03-.1-.12-.29-.07-.26-.16.05-.02.22.03.26.04-.03-.04.07-.07-.06-.08-.11.04-.45-.02-.68-.02l.04-.11.22.03c.01-.02-.6-.13-.47-.23.11-.18.06-.4.13-.58.13.02.21.06.28.11.01-.02-.02-.07.08-.08-.24.02-.15-.1-.25-.07-.52-.19-.01-.33-.37-.49-.48-.06-8.31-1.09-8.88-1.16.01-.04.03-.08.08-.08-.14 0-.21.06-.13.11l.31.04c.1.1-.19 0-.17.1-.25-.02-.3-.11-.32-.19-.04.06-.23.11.05.17-.11.05-.31-.04-.42.03.07.06.31.15.15.2l-.04-.01c-.28.12.36.27.09.38l-.08-.02c-.15.03.04.15-.13.22.05-.02.24-.02.26.03-.17.08-.02.17-.22.22l.24.09c-.08.34.13 1.74.14 2.09l-.04-.02c.06.48-.03 1.37.14 1.96l1.92 6.45 3.04-.97c.1-.03.17-.07.24-.11.08.25.2.19.29.26-.05-.1-.03-.28.01-.27.27.03.02-.17.29-.27.06-.04.14-.06.25-.08l5.47-.63-.98-4.33c-.1-.46.01-1.33.16-1.57-.38-.11-.12-.33-.36-.45l.09.01c-.15-.14.09-1.07-.05-1.24l-.05.03c-.24-.14.16-.16.27-.29-.4.06-.65-.06-.68-.1l.09-.01c-.08-.07-.44-.21-.51-.34l.22-.02c-.25-.08-.17-.3-.2-.37.07-.19.43-.5.11-.71l.61-.22-.06-.02s-7.62.52-9.2.99l-.22.02.03.06c-.1.09.16.09-.06.11l.02-.1c-.06.08-.18.04-.3.02-.02.03-.04.07-.11.1.09.01.09-.02.14-.04.08.03.29.07.2.13-.01.08-.36.04-.37.13-.12.49-.33.97-.23 1.44-.09.02-.09.01-.13 0 .11.13.09.27.2.39-.09.05-.23.07-.32.09.1-.06.19.68.15.7z"/></g><path fill="#DADADA" d="M124.34 7.76h1.08v128.16h-1.08z"/><g fill="#DFDFDF"><path d="M120.05 8.71c-.24.8-.26 2.17-.29 3.47.23-1 .32-2.06.29-3.47zM119.76 12.21v.02-.04.02zM119.21 8.7c0 .32.01.69.01 1.07.01-.36.01-.73-.01-1.07zM119.33 75.12l.4.2c.02 3.08-.45.9-.34 3.75.57 1.11-.04 4.73.27 5.72-.04-.02-.06 1.37-.23 1.29.31.43.08 1.44.16 2.31.09.32.09-.23.18-.47l.12 2.01c-.1.79-.27.98-.31.13-.09 5.27-.27 30.56-.1 36.23.23-.73.06-2.48.43-3.15.21 1.5-.06 2.21.16 2.87-.54.58-.12 3.3-.66 4.44l.31.43-.19.75c.23 4.36.23 3.61.19 4.33 1.62-1.63 3.25-3.26 5.72-5.74-.18-.01-.48-.03-1.08-.05 1.83 1.83 3.66 3.67 5.77 5.79.01-.45.02-1.08.04-1.95-.03-3.39-.45-5-.29-6.88 0 .28-.19 1.02-.27.15.27-.15-.18-2.33.09-2.76-.03-.86.02-3.64-.36-2.7.19-.47.27-2.95.42-1.48.02-.84.07-1.65-.01-2.25l-.11 1.07c-.04-2.83.25-4.37-.08-6.21l-.15 1.04c-.02-1.69-.04-3.1.33-3.77l.1 1.74c0-2.81-.01-4.5-.2-6.83l-.01.83c-.35-2.98-.59-18.56-1.03-21.31l-.29 1.26-.23-2.36c0 .28.92 1.14.82 1.38 0-5.06-.11-31.36.1-36.03.17-1.88.45-.34.5-.31-.1-2.29-.3-.99-.26-2.94.05-.53.22.11.26.41-.03-.85.07-1.65-.06-1.71-.11 1.07-.46.61-.69 1.06l.04-2.51.22.11c.01-.56-.6-1.42-.47-3.88.11-4.16.05-8.67.12-12.85.13.06.21.94.28 1.82.01-.56-.02-1.41.08-1.93-.24 1.01-.15-1.76-.25-.97-.53-3.06-.02-7.02-.37-9.73-.49-.24-8.35-5.82-8.93-5.82.01-.84.03-1.67.08-1.93-.14.22-.21 1.86-.14 2.74l.31.15c.1 2.02-.19.47-.17 2.44-.25.1-.3-1.71-.32-3.3-.04 1.44-.23 2.87.05 3.45-.11 1.35-.31-.15-.43 1.47.07 1.16.31 2.68.16 4.01l-.04-.02c-.28 3.23.36 4.95.09 7.9l-.08-.32c-.15 1.04.04 3.1-.13 4.98.05-.54.24-1 .27.13-.17 2.17-.02 3.64-.22 5.23l.24 1.52c-.08 7.54.15 37.34.16 44.91l-.04-.3c.08 11.54-.04 35.24.25 47.17-.24 1.74-.21 4.11-.27 5.98l-.16 4.97 5.28.17c.12 0 .22.01.33.01-.13-.02-.24-.03-.33-.04l-5.8-.71.71-4.4c.08-.48.17-.39.21 0l.5 5.35 4.38-.45c.12-.01.28-.02.46-.02h.61l4.88.02-.01-4.9c-.01-4.78-.18-.05-.3-5.71-.26-6.83-.11-32.97.08-39.04-.38-3.26-.12-7.32-.36-10.51l.09.32c-.15-3.43.1-22.83-.04-26.81l-.05.54c-.24-3.47.16-3 .27-5.74-.4.36-.65-2.61-.68-3.75l.09.04c-.07-1.71-.44-5.59-.51-8.41l.22.11c-.25-2.36-.17-6.79-.2-8.48.08-3.88.44-9.85.12-15.03l.62-3.35-.06-.49s-7.65-5.36-9.25 1.49l-.22-.11.03 1.35c-.1 1.62.16 2.37-.06 2.27l.02-2.23c-.06 1.63-.18.49-.31-.13-.02.68-.04 1.34-.11 1.88.09.32.09-.24.14-.49.08.88.29 2.1.2 3.17-.01 1.67-.36.11-.37 2.06-.13 10.28-.34 20.24-.25 30.63-.09.24-.09-.05-.13-.34.11 3.13.09 5.91.2 8.76-.1.79-.23 1.01-.32 1.24.09-.23.16 3.7.19 7.72.01 2.01.03 4.05.04 5.6-.05 1.58-.05 2.64-.06 2.7z"/></g><path fill="#DADADA" d="M117.98 82.94h1.27v53h-1.27z"/><g fill="#DFDFDF"><path d="M113.8 83.39c-.24.33-.25.91-.29 1.45.22-.42.32-.86.29-1.45zM113.5 84.85l.01.01v-.02zM112.95 83.28c0 .14.01.29.01.45.01-.15.01-.31-.01-.45zM113.12 111.08l.4.08c.02 1.28-.45.38-.34 1.56.57.46-.04 1.97.27 2.38-.04-.01-.06.57-.23.54.31.17.08.6.16.96.09.13.09-.1.18-.2l.12.84c-.09.33-.27.41-.31.06-.08 2.2-.25 12.74-.07 15.1.23-.31.06-1.03.42-1.32.21.62-.06.92.16 1.19-.54.25-.11 1.38-.66 1.85l.31.18-.19.31c.11.82.17 1.21.19 1.39 2.41-2.44 4.77-4.83 5.71-5.78-.45.05-.06-.02-1.27-.07 1.51 1.52 3.01 3.05 5.79 5.85 0-.1.01-.24.02-.4-.03-1.41-.45-2.09-.28-2.87 0 .12-.2.43-.27.06.27-.06-.18-.98.09-1.15-.03-.36.02-1.52-.35-1.13.19-.19.27-1.23.43-.61.02-.35.07-.69 0-.94l-.11.45c-.04-1.18.25-1.82-.07-2.59l-.15.43c-.02-.71-.04-1.29.33-1.57l.1.73c0-1.17-.01-1.87-.19-2.85l-.01.35c-.35-1.24-.57-7.74-1.02-8.89l-.29.52-.23-.99c-.01.12.91.48.82.58 0-2.11-.09-13.07.12-15.02.17-.78.45-.14.5-.13-.1-.96-.29-.42-.26-1.23.05-.22.22.05.26.17-.03-.36.07-.69-.06-.71-.11.44-.46.25-.69.44l.04-1.04.22.05c.01-.23-.6-.6-.47-1.62.12-1.73.06-3.61.13-5.35.13.03.21.4.28.76.01-.23-.02-.59.08-.8-.24.42-.15-.73-.25-.4-.53-1.28-.01-2.93-.37-4.06-.49-.1-8.35-2.51-8.92-2.52.01-.35.03-.7.08-.8-.14.09-.21.78-.14 1.14l.31.07c.1.84-.19.2-.18 1.02-.25.04-.3-.71-.32-1.38-.04.6-.23 1.19.05 1.44-.11.56-.31-.07-.43.61.07.48.31 1.12.15 1.67l-.04-.01c-.28 1.35.36 2.07.09 3.29l-.08-.13c-.15.43.04 1.29-.13 2.08.05-.22.24-.42.26.06-.17.9-.02 1.52-.22 2.18l.24.64c-.09 3.14.12 15.56.12 18.72l-.04-.12c.07 4.81-.07 14.69.21 19.67-.2.6-.21 1.38-.25 2.08l-.24 4.85 5.34.3.55.03c-.45-.1-.29-.28.05-.27h.67l4.99.01-.13-4.93c-.03-1.31-.18.22-.3-1.97-.26-2.84-.13-13.74.04-16.27-.38-1.35-.12-3.05-.37-4.38l.09.13c-.15-1.43.08-9.52-.06-11.17l-.05.22c-.24-1.45.16-1.25.27-2.4-.4.15-.65-1.08-.69-1.56l.09.02c-.08-.71-.45-2.32-.52-3.5l.22.04c-.25-.98-.17-2.83-.2-3.53.07-1.62.43-4.11.11-6.27l.61-1.4-.06-.2s-7.66-2.15-9.25.72l-.22-.04.03.56c-.1.68.16.99-.06.94l.02-.93c-.06.68-.18.21-.31-.05-.02.28-.04.56-.11.79.09.13.09-.1.14-.21.08.37.3.87.2 1.32-.01.7-.36.05-.37.86-.12 4.29-.33 8.44-.23 12.77-.09.1-.09-.02-.13-.14.11 1.3.09 2.46.2 3.65-.09.33-.23.42-.32.52.09-.1.16 1.54.2 3.22.02.84.03 1.69.04 2.33.03.65.03 1.09.01 1.12z"/></g><path fill="#DADADA" d="M103 23.96h1.08v111.96H103z"/><g fill="#DFDFDF"><path d="M98.72 24.8c-.24.7-.26 1.9-.29 3.03.23-.87.32-1.8.29-3.03zM98.42 27.86v.02-.04c.01 0 .01.01 0 .02zM97.88 24.78c0 .28.01.61.01.94.01-.32.01-.64-.01-.94zM98 82.85l.4.17c.02 2.69-.45.79-.34 3.28.57.97-.04 4.14.27 5-.04-.02-.06 1.2-.23 1.12.31.37.08 1.25.16 2.02.09.28.09-.21.18-.41l.12 1.76c-.1.69-.27.86-.31.11-.09 4.6-.27 26.71-.1 31.67.23-.64.06-2.17.43-2.75.21 1.31-.06 1.93.15 2.51-.54.51-.12 2.88-.66 3.88l.31.38-.18.65c.22 3.69.23 3.2.19 3.72 1.63-1.64 3.26-3.28 5.71-5.74-.17-.01-.45-.03-1.08-.05l5.77 5.8c.01-.39.02-.92.04-1.63-.03-2.96-.45-4.37-.29-6.01 0 .25-.19.9-.27.13.27-.13-.18-2.04.09-2.41-.03-.75.02-3.18-.35-2.36.19-.41.27-2.58.43-1.29.02-.73.07-1.44-.01-1.97l-.11.94c-.04-2.47.25-3.82-.07-5.43l-.15.91c-.02-1.48-.04-2.71.33-3.29l.1 1.52c0-2.45-.01-3.93-.2-5.97l-.01.73c-.35-2.6-.59-16.22-1.03-18.62l-.29 1.1-.23-2.06c0 .24.92 1 .82 1.2 0-4.42-.11-27.41.1-31.49.17-1.65.45-.29.5-.27-.1-2.01-.3-.87-.26-2.57.05-.46.22.1.26.36-.03-.75.07-1.44-.06-1.5-.11.93-.46.54-.69.93l.04-2.19.22.1c.01-.49-.6-1.24-.47-3.4.11-3.63.05-7.58.12-11.23.13.06.21.82.28 1.59.01-.49-.02-1.24.08-1.69-.24.88-.15-1.53-.25-.84-.53-2.68-.02-6.14-.37-8.5-.49-.21-8.35-5.1-8.93-5.1.02-.73.03-1.46.08-1.69-.14.19-.21 1.63-.14 2.4l.31.13c.1 1.76-.19.41-.17 2.13-.25.09-.3-1.49-.32-2.89-.03 1.25-.23 2.5.05 3.02-.11 1.18-.31-.13-.43 1.29.07 1.01.31 2.34.16 3.5l-.04-.02c-.28 2.83.36 4.33.09 6.91l-.08-.28c-.15.91.04 2.71-.13 4.36.05-.47.24-.88.27.11-.17 1.89-.02 3.19-.22 4.57l.24 1.33c-.08 6.59.15 32.64.15 39.26l-.04-.26c.08 10.09-.04 30.81.25 41.24-.23 1.5-.21 3.54-.27 5.16l-.18 4.96 5.29.19c.12 0 .24.01.36.01-.16-.02-.28-.04-.36-.06l-5.86-1.48.79-3.61c.07-.32.15-.26.19 0l.8 5.54 4.09-.63c.12-.02.28-.03.47-.02h.6l4.88.02-.02-4.91c-.01-4.06-.18 0-.3-4.92-.26-5.97-.11-28.82.08-34.12-.38-2.85-.12-6.4-.36-9.19l.09.28c-.15-2.99.1-19.95-.04-23.44l-.05.47c-.24-3.04.16-2.62.27-5.02-.4.32-.65-2.28-.68-3.28l.09.04c-.07-1.5-.44-4.88-.51-7.35l.22.1c-.25-2.06-.17-5.94-.2-7.42.08-3.39.44-8.61.12-13.14l.62-2.93-.07-.43S100.6 20.92 99 26.9l-.22-.09.03 1.18c-.1 1.42.16 2.07-.06 1.98l.02-1.94c-.06 1.43-.18.43-.31-.11-.02.6-.04 1.17-.11 1.65.09.28.09-.21.14-.43.08.77.29 1.83.2 2.77-.01 1.46-.36.1-.37 1.8-.13 8.98-.34 17.69-.25 26.77-.09.21-.09-.04-.13-.3.11 2.74.09 5.17.2 7.66-.1.69-.23.88-.32 1.09.09-.21.16 3.23.19 6.75.01 1.76.03 3.54.04 4.89-.04 1.3-.04 2.23-.05 2.28z"/></g><path fill="#DADADA" d="M151.99 35.51h1.08v100.41h-1.08z"/><g fill="#DFDFDF"><path d="M147.7 36.27c-.24.62-.26 1.7-.29 2.72.23-.79.33-1.62.29-2.72zM147.41 39.01v.02-.04.02zM146.86 36.23c0 .25.01.54.01.84.01-.28.01-.56-.01-.84zM146.98 88.36l.4.15c.02 2.42-.45.71-.34 2.94.57.87-.04 3.71.27 4.48-.05-.02-.06 1.08-.23 1.01.31.33.08 1.12.16 1.82.09.25.09-.18.18-.37l.12 1.58c-.1.62-.27.77-.31.1-.09 4.13-.27 23.97-.1 28.42.23-.57.06-1.95.43-2.47.21 1.17-.06 1.73.16 2.25-.54.46-.12 2.59-.66 3.48l.31.34-.19.58c.21 3.2.23 2.89.19 3.28 1.64-1.65 3.29-3.3 5.71-5.74-.15-.01-.42-.04-1.08-.06l5.77 5.8c.01-.34.02-.8.04-1.41-.03-2.66-.45-3.92-.29-5.4-.01.22-.2.8-.27.12.27-.12-.18-1.83.09-2.17-.03-.67.02-2.85-.36-2.12.19-.37.27-2.32.43-1.16.01-.66.07-1.29-.01-1.77l-.11.84c-.04-2.22.25-3.43-.08-4.87l-.15.82c-.02-1.33-.04-2.44.33-2.95l.1 1.36c0-2.2-.02-3.53-.2-5.36l-.01.65c-.35-2.34-.59-14.56-1.03-16.71l-.29.99-.23-1.85c0 .22.92.9.82 1.08-.01-3.97-.11-24.6.1-28.26.16-1.48.45-.26.5-.25-.1-1.8-.3-.78-.26-2.31.05-.42.22.09.26.32-.03-.67.07-1.29-.06-1.34-.11.84-.46.48-.69.83l.04-1.97.22.09c.01-.44-.6-1.11-.47-3.05.11-3.26.06-6.8.12-10.08.13.05.21.74.28 1.43.01-.44-.02-1.11.08-1.51-.24.79-.15-1.38-.25-.76-.53-2.4-.02-5.51-.37-7.63-.49-.19-8.35-4.58-8.93-4.59.01-.66.03-1.31.08-1.51-.14.17-.21 1.46-.13 2.15l.31.12c.1 1.58-.19.37-.17 1.91-.25.08-.3-1.34-.32-2.59-.04 1.13-.23 2.25.05 2.71-.11 1.06-.31-.12-.43 1.15.07.91.31 2.1.16 3.15l-.04-.02c-.28 2.54.36 3.88.09 6.2l-.08-.25c-.15.82.04 2.43-.13 3.91.05-.42.24-.79.27.1-.17 1.7-.02 2.86-.22 4.1l.24 1.19c-.08 5.92.15 29.29.16 35.23l-.04-.23c.08 9.06-.04 27.64.25 37-.23 1.33-.21 3.13-.27 4.58l-.19 4.94 5.3.2c.13 0 .25.01.38.01-.17-.02-.3-.05-.38-.07l-5.94-2.03.89-3.05c.06-.2.12-.17.16 0l1.25 5.82 3.65-.9c.1-.02.27-.04.48-.04h.6l4.89.02-.02-4.91c-.02-3.55-.18.03-.3-4.36-.26-5.36-.11-25.86.08-30.62-.38-2.55-.12-5.74-.36-8.25l.09.25c-.15-2.69.1-17.91-.04-21.03l-.05.42c-.24-2.72.16-2.35.27-4.5-.4.28-.65-2.05-.68-2.94l.09.03c-.08-1.34-.44-4.38-.51-6.6l.22.08c-.25-1.85-.17-5.32-.2-6.65.07-3.04.44-7.73.12-11.79l.62-2.63-.06-.38s-7.65-4.19-9.25 1.19l-.22-.08.03 1.06c-.1 1.27.16 1.86-.06 1.78l.02-1.74c-.06 1.28-.18.39-.31-.1-.02.53-.04 1.05-.11 1.48.09.25.09-.19.14-.38.08.69.3 1.65.2 2.48-.02 1.31-.36.08-.37 1.61-.13 8.06-.34 15.88-.25 24.02-.09.19-.09-.03-.13-.27.11 2.45.08 4.64.2 6.87-.1.62-.23.79-.32.98.09-.19.16 2.9.19 6.06.01 1.58.02 3.18.04 4.39-.06 1.25-.07 2.08-.08 2.13z"/></g><path fill="#DADADA" d="M97.6 86.03h1.08v49.91H97.6z"/><g fill="#DFDFDF"><path d="M93.31 86.45c-.24.31-.26.85-.29 1.36.23-.39.33-.81.29-1.36zM93.02 87.82v.01-.02zM92.47 86.35c0 .13.01.27.01.42.01-.14.01-.28-.01-.42zM92.59 112.5l.4.07c.02 1.21-.45.36-.34 1.47.57.43-.04 1.86.27 2.24-.04-.01-.06.54-.23.51.31.16.08.56.16.9.09.12.09-.09.18-.19l.12.79c-.1.31-.27.39-.31.05-.09 2.07-.27 11.98-.1 14.21.23-.29.06-.97.43-1.24.21.58-.06.87.16 1.12-.54.23-.12 1.29-.66 1.75l.31.17-.19.29c.12.86.17 1.21.2 1.37 2.39-2.42 4.73-4.78 5.7-5.77-.32.04-.06-.03-1.08-.08 1.58 1.6 3.16 3.2 5.78 5.85.01-.12.01-.27.02-.44-.03-1.33-.45-1.96-.29-2.7-.01.11-.2.4-.27.06.27-.06-.18-.92.09-1.08-.03-.34.02-1.43-.36-1.06.19-.18.27-1.16.43-.58.02-.33.07-.65-.01-.88l-.11.42c-.04-1.11.25-1.71-.08-2.44l-.15.41c-.02-.66-.04-1.22.33-1.47l.1.68c0-1.1-.02-1.76-.2-2.68l-.01.33c-.35-1.17-.59-7.28-1.03-8.36l-.29.49-.23-.93c0 .11.92.46.82.55-.01-1.98-.11-12.29.1-14.12.17-.74.45-.13.5-.12-.1-.9-.3-.39-.26-1.16.05-.21.22.05.26.16-.03-.34.07-.65-.06-.67-.11.42-.46.24-.69.41l.04-.98.22.05c.01-.22-.6-.56-.47-1.53.11-1.63.06-3.4.12-5.04.13.03.21.37.28.72.01-.22-.02-.55.08-.76-.24.39-.15-.69-.25-.38-.53-1.21-.02-2.75-.37-3.82-.49-.1-8.35-2.36-8.93-2.36.01-.33.03-.65.08-.75-.14.08-.21.73-.13 1.07l.31.06c.1.79-.19.18-.17.96-.25.04-.3-.67-.32-1.3-.04.56-.23 1.12.05 1.35-.11.53-.31-.06-.43.57.07.46.31 1.05.16 1.57l-.04-.01c-.28 1.27.37 1.94.09 3.1l-.08-.12c-.15.41.04 1.22-.13 1.95.05-.21.24-.39.26.05-.17.85-.02 1.43-.22 2.05l.24.6c-.08 2.96.15 14.64.16 17.61l-.04-.12c.08 4.53-.04 13.82.25 18.5-.2.58-.21 1.35-.25 2.02l-.26 4.82 5.36.33.46.03c-.42-.1-.28-.28.05-.27h.57l4.97.02-.11-4.93c-.03-1.33-.18.17-.3-1.91-.26-2.67-.11-12.93.08-15.3-.38-1.27-.12-2.87-.36-4.12l.09.12c-.15-1.34.1-8.95-.04-10.51l-.05.21c-.24-1.36.16-1.18.27-2.25-.4.15-.65-1.02-.68-1.46l.09.02c-.08-.67-.44-2.19-.51-3.29l.22.04c-.25-.92-.17-2.66-.2-3.32.07-1.52.44-3.87.12-5.9l.62-1.32-.06-.19s-7.65-2.03-9.25.67l-.22-.04.03.53c-.1.64.16.93-.06.89l.02-.87c-.06.64-.18.19-.31-.05-.02.27-.04.53-.11.74.09.12.09-.09.14-.19.08.34.3.82.2 1.24-.02.65-.36.04-.37.81-.13 4.03-.34 7.94-.25 12.01-.09.09-.09-.02-.13-.13.11 1.23.08 2.32.2 3.43-.1.31-.23.4-.32.49.09-.09.16 1.45.19 3.03.01.79.02 1.59.04 2.19-.03.59-.04 1.01-.05 1.04z"/></g><path fill="#DADADA" d="M117.6 74.2h1.28v61.75h-1.28z"/><g fill="#DFDFDF"><path d="M113.41 74.7c-.24.39-.25 1.05-.29 1.68.23-.48.33-1 .29-1.68zM113.12 76.4v.01-.02zM112.57 74.61c0 .16.01.34.01.52.01-.18.01-.35-.01-.52zM112.74 106.9l.4.09c.02 1.49-.45.44-.34 1.82.57.54-.03 2.29.27 2.77-.05-.01-.06.67-.23.62.31.2.08.69.16 1.12.09.15.09-.11.18-.23l.12.98c-.1.38-.27.48-.31.06-.08 2.55-.25 14.81-.07 17.56.23-.36.06-1.2.42-1.53.21.73-.06 1.07.16 1.39-.54.29-.11 1.6-.66 2.16l.31.21-.19.36c.13 1.1.18 1.53.2 1.72 2.39-2.42 4.76-4.81 5.7-5.76-.35.03-.08-.03-1.28-.08 1.61 1.62 3.22 3.25 5.78 5.84.01-.16.02-.35.02-.57-.03-1.64-.45-2.42-.28-3.34 0 .14-.2.5-.27.07.27-.07-.18-1.13.09-1.34-.03-.42.02-1.76-.35-1.31.19-.23.27-1.43.43-.71.02-.41.07-.8 0-1.09l-.11.52c-.04-1.37.25-2.12-.07-3.01l-.15.5c-.02-.82-.04-1.5.33-1.82l.1.84c0-1.36-.01-2.18-.19-3.31l-.01.4c-.35-1.45-.57-9-1.02-10.34l-.29.61-.23-1.15c0 .14.91.56.82.67 0-2.45-.09-15.2.12-17.46.17-.91.45-.16.5-.15-.09-1.11-.29-.48-.26-1.43.05-.26.22.06.26.2-.03-.41.07-.8-.06-.83-.11.52-.46.29-.69.51l.04-1.21.22.06c.01-.27-.6-.69-.47-1.89.12-2.01.06-4.2.13-6.23.13.03.21.46.28.89.01-.27-.02-.69.08-.94-.24.49-.15-.85-.25-.47-.53-1.49-.01-3.4-.37-4.72-.49-.12-8.35-2.89-8.93-2.9.02-.41.03-.81.08-.94-.14.1-.21.9-.14 1.33l.31.08c.1.98-.19.23-.18 1.18-.25.05-.3-.83-.32-1.6-.04.7-.23 1.39.05 1.67-.11.65-.31-.08-.43.71.07.56.31 1.3.15 1.94l-.04-.01c-.28 1.57.36 2.4.09 3.83l-.08-.15c-.15.5.03 1.5-.13 2.42.05-.26.24-.48.26.06-.17 1.05-.02 1.77-.22 2.53l.24.74c-.09 3.66.12 18.1.12 21.77l-.04-.14c.07 5.6-.07 17.08.21 22.87-.21.73-.22 1.69-.25 2.52l-.23 4.88 5.33.27.54.03c-.52-.1-.34-.28.06-.27h.67l4.95.01-.09-4.93c-.03-1.69-.18.19-.3-2.39-.26-3.31-.13-15.98.04-18.92-.38-1.58-.12-3.55-.37-5.09l.09.15c-.15-1.66.08-11.07-.06-13l-.05.26c-.24-1.68.16-1.46.27-2.78-.4.18-.65-1.26-.69-1.81l.09.02c-.08-.83-.45-2.71-.52-4.07l.22.05c-.25-1.14-.17-3.29-.21-4.11.07-1.88.43-4.78.11-7.29l.62-1.63-.06-.24s-7.66-2.53-9.25.8l-.22-.05.04.66c-.1.79.16 1.15-.06 1.1l.02-1.08c-.06.79-.18.24-.31-.06-.02.33-.04.65-.11.92.09.15.09-.12.14-.24.08.42.3 1.01.2 1.53-.01.81-.36.05-.37 1-.12 4.98-.33 9.81-.23 14.85-.09.12-.09-.02-.13-.17.11 1.52.09 2.87.2 4.25-.1.39-.23.49-.32.6.09-.11.16 1.79.2 3.74.02.98.03 1.96.04 2.71.05.8.04 1.31.03 1.34z"/></g><path fill="#DADADA" d="M113.04 69.88h1.08v66.07h-1.08z"/><g fill="#DFDFDF"><path d="M108.75 70.4c-.24.41-.26 1.12-.29 1.8.23-.53.33-1.08.29-1.8zM108.46 72.21v.01-.03zM107.91 70.33c0 .17.01.36.01.55.01-.19.01-.37-.01-.55zM108.03 104.77l.4.1c.02 1.59-.45.47-.34 1.94.57.57-.04 2.45.27 2.96-.04-.01-.06.71-.23.67.31.22.08.74.16 1.2.09.16.09-.12.18-.25l.12 1.04c-.1.41-.27.51-.31.07-.09 2.73-.27 15.82-.1 18.75.23-.38.06-1.29.43-1.63.21.77-.06 1.14.16 1.48-.54.3-.12 1.71-.66 2.3l.31.22-.19.39c.15 1.51.2 1.83.21 1.98 2.16-2.17 4.31-4.34 5.69-5.74-.17 0-.15-.04-1.08-.08 1.78 1.79 3.56 3.59 5.78 5.82.01-.19.02-.44.03-.75-.03-1.75-.45-2.59-.29-3.56 0 .15-.2.53-.27.07.27-.07-.18-1.21.09-1.43-.03-.45.02-1.89-.36-1.4.19-.24.27-1.53.43-.76.01-.43.07-.85-.01-1.17l-.11.56c-.04-1.46.25-2.26-.08-3.22l-.15.54c-.02-.88-.04-1.61.33-1.95l.1.9c0-1.45-.02-2.33-.2-3.54l-.01.43c-.35-1.54-.59-9.61-1.03-11.03l-.29.65-.23-1.22c0 .14.92.6.82.72 0-2.62-.11-16.23.1-18.65.16-.97.45-.17.5-.16-.1-1.19-.3-.52-.26-1.52.05-.28.22.06.26.21-.03-.44.07-.85-.06-.89-.11.55-.46.31-.69.55l.04-1.3.22.06c.01-.29-.6-.74-.47-2.01.11-2.15.06-4.49.12-6.65.13.04.21.49.28.95.01-.29-.02-.73.08-1-.24.52-.15-.91-.25-.5-.53-1.59-.02-3.63-.37-5.04-.49-.13-8.35-3.06-8.93-3.07.01-.43.03-.87.08-1-.14.11-.21.96-.13 1.42l.31.08c.1 1.04-.19.24-.17 1.26-.25.05-.3-.88-.32-1.71-.04.74-.23 1.48.05 1.79-.11.7-.31-.08-.43.76.07.6.31 1.39.16 2.08l-.05-.01c-.28 1.67.37 2.56.09 4.09l-.08-.17c-.15.54.04 1.6-.13 2.58.05-.28.24-.52.26.07-.17 1.12-.02 1.89-.22 2.7l.24.79c-.08 3.9.15 19.32.16 23.25l-.04-.15c.08 5.98-.04 18.24.25 24.42-.22.82-.21 1.91-.26 2.84l-.23 4.87 5.33.28c.15.01.29.02.43.02-.55-.1-.36-.28.07-.27h.58l4.92.02-.06-4.92c-.02-2.04-.18.12-.3-2.69-.26-3.53-.11-17.07.08-20.21-.38-1.68-.12-3.79-.36-5.44l.09.17c-.15-1.77.1-11.82-.04-13.88l-.05.28c-.24-1.8.16-1.55.27-2.97-.4.19-.65-1.35-.68-1.94l.09.02c-.08-.89-.44-2.89-.51-4.35l.22.06c-.25-1.22-.17-3.51-.2-4.39.07-2.01.44-5.1.12-7.78l.62-1.74-.06-.25s-7.65-2.73-9.25.83l-.22-.06.03.7c-.1.84.16 1.23-.06 1.17l.02-1.15c-.06.84-.18.26-.31-.07-.02.35-.04.7-.11.98.09.17.09-.12.14-.25.08.45.3 1.08.2 1.64-.02.86-.36.06-.37 1.07-.13 5.32-.34 10.48-.25 15.85-.09.12-.09-.02-.13-.18.11 1.62.09 3.06.2 4.53-.1.41-.23.52-.32.65.09-.12.16 1.91.19 4 .01 1.04.02 2.09.04 2.9-.02.79-.03 1.34-.04 1.37z"/></g><path fill="#DADADA" d="M122.71 98.15h1.08v37.8h-1.08z"/><g fill="#DFDFDF"><path d="M118.42 98.49c-.24.24-.25.65-.29 1.04.23-.3.32-.62.29-1.04zM118.13 99.54v-.01zM117.58 98.35c0 .1.01.21.01.32.01-.11.01-.21-.01-.32zM117.7 118.29l.4.05c.02.92-.45.27-.34 1.12.57.32-.04 1.41.27 1.7-.04-.01-.06.41-.23.39.31.12.08.43.16.69.09.09.09-.07.18-.14l.12.6c-.1.24-.27.3-.31.04-.09 1.57-.27 9.11-.1 10.8.23-.22.06-.74.43-.94.21.44-.06.66.16.85-.54.18-.12.98-.66 1.33l.31.12-.19.23.17.91c2.39-2.42 4.67-4.73 5.73-5.81-.48.08-.03-.01-1.08-.06 1.38 1.39 2.75 2.78 5.79 5.87 0-.05.01-.12.01-.2-.03-1.01-.45-1.49-.29-2.05-.01.08-.2.3-.27.04.27-.04-.18-.7.09-.82-.03-.26.02-1.08-.35-.81.19-.14.27-.88.42-.43.02-.25.07-.49-.01-.67l-.11.3c-.04-.84.25-1.3-.08-1.85l-.15.31c-.02-.5-.04-.92.33-1.12l.1.52c0-.84-.02-1.34-.2-2.04l-.01.25c-.35-.89-.59-5.54-1.03-6.36l-.29.37-.23-.71c0 .08.92.35.82.42-.01-1.51-.11-9.34.1-10.73.17-.56.45-.1.5-.09-.1-.69-.3-.3-.26-.88.05-.16.22.04.26.13-.03-.26.07-.49-.06-.51-.11.32-.46.18-.69.31l.04-.75.22.04c.01-.17-.6-.43-.47-1.16.11-1.24.06-2.58.12-3.83.13.02.21.28.28.55.01-.17-.02-.42.08-.57-.24.3-.15-.52-.25-.29-.53-.92-.02-2.09-.37-2.9-.49-.08-8.35-1.84-8.93-1.85.01-.25.03-.5.08-.57-.14.06-.21.55-.13.81l.31.05c.1.6-.19.14-.18.73-.25.03-.3-.51-.32-.99-.04.43-.23.85.05 1.03-.11.4-.31-.05-.43.43.07.35.31.8.16 1.2l-.05-.01c-.28.96.37 1.48.09 2.35l-.08-.1c-.15.31.04.92-.13 1.48.05-.16.24-.3.26.04-.17.64-.02 1.09-.22 1.56l.24.46c-.08 2.25.15 11.13.15 13.38l-.04-.09c.08 3.44-.04 10.5.25 14.06-.19.4-.21.93-.24 1.4l-.31 4.9 5.41.27c.17.01.33.02.48.04-.32-.1-.21-.28.04-.27h.56l5.1-.01-.24-4.92c-.04-.78-.18.18-.29-1.32-.26-2.03-.11-9.82.07-11.63-.38-.96-.12-2.18-.36-3.13l.09.09c-.15-1.02.1-6.8-.04-7.99l-.05.16c-.24-1.03.16-.9.27-1.71-.4.11-.65-.77-.68-1.11l.09.01c-.07-.51-.44-1.66-.51-2.5l.22.03c-.25-.7-.17-2.02-.2-2.53.07-1.15.44-2.94.12-4.48l.62-1.01-.06-.15s-7.65-1.5-9.25.56l-.22-.03.03.4c-.1.48.16.71-.06.68l.02-.66c-.06.49-.18.15-.31-.03-.02.2-.04.4-.11.56.09.09.09-.07.14-.15.08.26.29.62.2.94-.01.5-.36.04-.37.62-.13 3.06-.34 6.03-.25 9.13-.09.07-.09-.01-.13-.1.11.93.09 1.76.2 2.61-.1.24-.23.3-.32.38.09-.07.16 1.1.19 2.3.01.6.03 1.21.04 1.67-.01.45-.02.77-.03.79z"/></g><path fill="#DADADA" d="M213.83 60.04h1.08v75.88h-1.08z"/><g fill="#DFDFDF"><path d="M209.55 60.63c-.24.47-.26 1.29-.29 2.06.23-.59.32-1.23.29-2.06zM209.25 62.71l.01.01v-.03zM208.71 60.57c0 .19.01.41.01.63.01-.2.01-.42-.01-.63zM208.83 100.07l.4.12c.02 1.83-.45.54-.34 2.23.57.66-.04 2.81.27 3.39-.04-.01-.06.82-.23.76.31.25.08.85.16 1.37.09.19.09-.14.18-.28l.12 1.19c-.1.47-.27.59-.31.08-.09 3.13-.27 18.15-.1 21.51.23-.44.06-1.47.43-1.87.21.89-.06 1.31.16 1.7-.54.35-.12 1.96-.66 2.64l.31.25-.18.44c.17 1.97.21 2.18.2 2.35 1.87-1.88 3.74-3.76 5.7-5.74-.13-.01-.23-.04-1.08-.08 1.79 1.8 3.57 3.6 5.77 5.81.01-.24.02-.54.03-.94-.03-2.01-.45-2.97-.29-4.08 0 .17-.2.61-.27.09.27-.09-.18-1.39.09-1.64-.03-.51.02-2.16-.36-1.6.19-.28.27-1.75.43-.87.01-.5.07-.98-.01-1.34l-.11.64c-.04-1.68.25-2.59-.07-3.69l-.15.62c-.02-1-.04-1.84.33-2.24l.1 1.03c0-1.67-.01-2.67-.2-4.06l-.01.5c-.35-1.77-.59-11.02-1.03-12.66l-.29.75-.23-1.4c0 .17.91.68.82.82 0-3-.11-18.62.1-21.39.16-1.12.45-.2.5-.19-.1-1.36-.3-.59-.26-1.75.05-.31.22.07.26.25-.03-.51.07-.98-.06-1.02-.11.63-.46.36-.69.63l.04-1.49.2.09c.01-.33-.6-.85-.47-2.31.11-2.47.05-5.15.12-7.63.13.04.21.56.28 1.08.01-.33-.02-.84.08-1.15-.24.6-.15-1.04-.25-.58-.53-1.82-.02-4.17-.37-5.78-.49-.14-8.35-3.5-8.93-3.5.02-.5.03-.99.08-1.15-.14.13-.21 1.1-.14 1.63l.31.09c.1 1.2-.19.28-.17 1.45-.26.06-.3-1.02-.32-1.96-.04.85-.23 1.7.05 2.05-.11.8-.31-.09-.43.87.07.69.31 1.59.16 2.38l-.04-.02c-.28 1.92.36 2.94.09 4.69l-.09-.16c-.15.62.04 1.84-.13 2.96.05-.32.24-.59.27.08-.17 1.29-.02 2.16-.22 3.1l.24.9c-.08 4.48.15 22.17.15 26.67l-.04-.18c.08 6.85-.04 20.93.25 28.01-.22.97-.21 2.26-.26 3.33l-.22 4.89 5.32.25c.14.01.28.01.42.02-.64-.1-.42-.28.08-.27h.58l4.9.02-.04-4.92c-.02-2.47-.18.1-.3-3.17-.26-4.05-.11-19.58.08-23.18-.38-1.93-.12-4.35-.36-6.24l.09.19c-.15-2.03.1-13.56-.04-15.92l-.05.32c-.24-2.06.16-1.78.27-3.41-.4.22-.65-1.55-.68-2.22l.09.02c-.08-1.02-.44-3.32-.51-4.99l.22.06c-.25-1.4-.17-4.03-.2-5.04.08-2.3.44-5.85.12-8.93l.62-1.99-.07-.29s-7.65-3.15-9.25.93l-.22-.06.03.8c-.1.96.16 1.41-.06 1.34l.02-1.32c-.06.97-.18.29-.31-.08-.02.4-.04.8-.11 1.12.09.19.09-.14.14-.29.08.52.29 1.25.2 1.88-.01.99-.36.06-.37 1.22-.13 6.1-.34 12.02-.25 18.19-.09.14-.09-.03-.13-.2.11 1.86.08 3.51.2 5.2-.1.47-.23.6-.32.74.09-.14.16 2.2.19 4.59.01 1.2.03 2.4.04 3.32 0 .95 0 1.58-.01 1.62z"/></g><path fill="#DADADA" d="M44.15 46.16h1.08v89.76h-1.08z"/><g fill="#DFDFDF"><path d="M39.87 46.85c-.24.56-.26 1.52-.29 2.43.22-.7.32-1.45.29-2.43zM39.57 49.3v.01-.03.02zM39.02 46.8c0 .23.01.49.01.75.01-.25.01-.5-.01-.75zM39.14 93.44l.4.14c.02 2.16-.45.63-.34 2.63.57.78-.04 3.32.27 4.01-.04-.02-.06.96-.23.9.31.3.08 1.01.16 1.62.09.22.09-.17.18-.33l.12 1.41c-.09.55-.27.69-.31.09-.09 3.7-.27 21.44-.1 25.42.23-.51.06-1.74.43-2.21.21 1.05-.06 1.55.16 2.01-.54.41-.12 2.31-.66 3.11l.31.3-.19.52c.2 2.66.22 2.61.2 2.88 1.65-1.66 3.3-3.32 5.7-5.74-.13-.01-.34-.04-1.08-.07 1.84 1.85 3.69 3.71 5.77 5.81.01-.29.02-.69.04-1.21-.03-2.38-.45-3.51-.29-4.83 0 .2-.19.72-.27.1.27-.1-.18-1.64.09-1.94-.03-.6.02-2.55-.36-1.9.19-.33.27-2.07.43-1.03.01-.59.07-1.16-.01-1.58l-.11.75c-.04-1.98.25-3.06-.07-4.36l-.15.73c-.02-1.19-.04-2.18.33-2.64l.1 1.22c0-1.97-.01-3.15-.2-4.8l-.01.59c-.35-2.09-.59-13.02-1.03-14.95l-.29.88-.23-1.66c0 .2.92.81.82.97 0-3.55-.11-22 .1-25.28.17-1.32.45-.23.5-.22-.1-1.61-.3-.7-.26-2.06.05-.37.22.08.26.29-.03-.6.07-1.15-.06-1.2-.11.75-.46.43-.69.75l.04-1.76.22.08c.01-.39-.6-1-.47-2.73.11-2.92.05-6.08.12-9.01.13.05.21.66.28 1.28.01-.39-.02-.99.08-1.35-.24.71-.15-1.23-.25-.68-.53-2.15-.02-4.93-.37-6.82-.49-.17-8.35-4.11-8.93-4.11.02-.59.03-1.17.08-1.35-.14.15-.21 1.31-.14 1.92l.31.11c.1 1.42-.19.33-.17 1.71-.25.07-.3-1.2-.32-2.32-.04 1.01-.23 2.01.05 2.42-.11.95-.31-.11-.43 1.03.07.81.31 1.88.16 2.81l-.04-.02c-.28 2.27.36 3.47.09 5.54l-.08-.22c-.15.73.04 2.18-.13 3.5.05-.38.24-.7.27.09-.17 1.52-.02 2.56-.22 3.67l.24 1.07c-.08 5.29.15 26.2.15 31.51l-.04-.21c.08 8.1-.04 24.73.25 33.1-.23 1.17-.21 2.75-.26 4.04l-.2 4.92 5.31.22c.14 0 .27.01.39.02-.2-.03-.33-.06-.39-.09l-6.01-2.9.97-2.17c.04-.1.09-.09.12 0l2.21 5.96 2.71-1.02c.09-.03.27-.06.48-.05h.59l4.89.02-.03-4.92c-.02-3.08-.18.06-.3-3.85-.26-4.79-.11-23.13.08-27.39-.38-2.28-.12-5.14-.36-7.38l.09.23c-.15-2.4.1-16.02-.04-18.81l-.05.38c-.24-2.44.16-2.11.27-4.03-.4.25-.65-1.83-.68-2.63l.09.03c-.08-1.2-.44-3.92-.51-5.9l.22.08c-.25-1.65-.17-4.76-.2-5.95.08-2.72.44-6.92.12-10.55l.62-2.35-.06-.34s-7.65-3.74-9.25 1.08l-.22-.08.03.95c-.1 1.14.16 1.67-.06 1.59l.02-1.56c-.06 1.15-.18.35-.31-.09-.02.48-.04.94-.11 1.32.09.23.09-.17.14-.34.08.61.29 1.47.2 2.22-.01 1.17-.36.08-.37 1.44-.13 7.21-.34 14.2-.25 21.49-.09.17-.09-.03-.13-.24.11 2.19.09 4.15.2 6.15-.1.56-.23.71-.32.87.09-.17.16 2.6.2 5.42.01 1.41.02 2.84.03 3.93-.03 1.11-.04 1.86-.05 1.9z"/></g><path fill="#DADADA" d="M86.3 78.54h1.08v57.4H86.3z"/><g fill="#DFDFDF"><path d="M82.02 79.01c-.24.36-.26.98-.29 1.56.22-.45.32-.93.29-1.56zM81.72 80.58v.01-.02zM81.17 78.92c0 .15.01.31.01.48.01-.16.01-.32-.01-.48zM81.29 108.91l.4.08c.02 1.39-.45.41-.34 1.69.57.5-.04 2.13.27 2.57-.04-.01-.06.62-.23.58.31.19.08.65.16 1.04.09.14.09-.11.18-.21l.12.91c-.1.36-.27.44-.31.06-.09 2.37-.27 13.76-.1 16.31.23-.33.06-1.12.43-1.42.21.67-.06 1 .16 1.29-.54.27-.12 1.48-.66 2l.31.19-.19.34c.13 1.1.18 1.48.2 1.65 2.36-2.38 4.7-4.75 5.7-5.75-.25.02-.08-.04-1.08-.08 1.54 1.56 3.09 3.12 5.78 5.83.01-.15.02-.35.03-.58-.03-1.52-.45-2.25-.29-3.1 0 .13-.19.46-.27.07.27-.07-.18-1.05.09-1.24-.03-.39.02-1.64-.36-1.22.19-.21.27-1.33.43-.66.01-.38.07-.74-.01-1.01l-.11.48c-.04-1.27.25-1.96-.07-2.8l-.15.47c-.02-.76-.04-1.4.33-1.69l.1.78c0-1.26-.01-2.02-.2-3.08l-.01.38c-.35-1.34-.59-8.36-1.03-9.6l-.29.57-.23-1.06c0 .13.91.52.82.63 0-2.28-.11-14.12.1-16.22.17-.85.45-.15.5-.14-.1-1.03-.3-.45-.26-1.33.05-.24.22.05.26.19-.03-.38.07-.74-.06-.77-.11.48-.46.27-.69.48l.04-1.13.22.05c.01-.25-.6-.64-.47-1.75.11-1.87.05-3.9.12-5.78.13.03.21.43.28.82.01-.25-.02-.64.08-.87-.24.45-.15-.79-.25-.44-.53-1.38-.02-3.16-.37-4.38-.49-.11-8.35-2.68-8.93-2.69.01-.38.03-.75.08-.87-.14.1-.21.84-.14 1.23l.31.07c.1.91-.19.21-.17 1.1-.25.04-.3-.77-.32-1.49-.04.65-.23 1.29.05 1.56-.11.61-.31-.07-.43.66.07.52.31 1.21.16 1.81l-.04-.01c-.28 1.45.36 2.23.09 3.56l-.08-.15c-.15.47.04 1.4-.13 2.24.05-.24.24-.45.26.06-.17.97-.02 1.64-.22 2.35l.24.69c-.08 3.4.15 16.81.15 20.22l-.04-.13c.08 5.2-.04 15.87.25 21.24-.21.69-.21 1.61-.25 2.4l-.25 4.84 5.35.31.44.03c-.48-.1-.32-.28.06-.27h.57l4.94.02-.08-4.93c-.02-1.65-.18.15-.3-2.27-.26-3.07-.11-14.84.08-17.58-.38-1.46-.12-3.3-.36-4.73l.09.14c-.15-1.54.1-10.28-.04-12.07l-.05.24c-.24-1.56.16-1.35.27-2.58-.4.17-.65-1.17-.68-1.68l.09.02c-.08-.77-.44-2.51-.51-3.78l.22.05c-.25-1.06-.17-3.06-.2-3.82.08-1.75.44-4.44.12-6.77l.62-1.51-.06-.22s-7.65-2.35-9.25.74l-.22-.05.03.61c-.1.73.16 1.07-.06 1.02l.02-1c-.06.73-.18.22-.31-.06-.02.31-.04.6-.11.85.09.14.09-.11.14-.22.08.4.29.94.2 1.43-.01.75-.36.05-.37.93-.13 4.63-.34 9.11-.25 13.79-.09.11-.09-.02-.13-.15.11 1.41.08 2.66.2 3.94-.1.36-.23.46-.32.56.09-.11.16 1.67.2 3.48.01.91.02 1.82.03 2.52-.02.67-.03 1.14-.04 1.17z"/></g><g fill="#E8487D"><path d="M211.36 101.82c-.24.22-.26.59-.29.95.23-.28.33-.57.29-.95zM211.07 102.77v.01-.01zM210.52 101.66c0 .09.01.19.01.29.01-.1.01-.19-.01-.29zM210.64 119.88l.4.05c.02.84-.45.25-.34 1.02.57.29-.04 1.29.27 1.55-.04-.01-.06.37-.23.35.31.11.08.39.16.63.09.08.09-.06.18-.13l.12.55c-.1.22-.27.27-.31.04-.09 1.43-.27 8.31-.1 9.85.23-.2.06-.68.43-.86.21.41-.06.6.16.78-.54.17-.12.9-.66 1.22l.31.11-.19.21c.08.4.13.64.16.78 2.37-2.41 4.63-4.7 5.73-5.82-.51.1-.03 0-1.08-.06l5.79 5.88c0-.03.01-.08.01-.14-.03-.92-.45-1.36-.29-1.87 0 .08-.19.27-.27.04.27-.04-.18-.64.09-.75-.03-.23.02-.99-.35-.74.19-.12.27-.8.43-.39.01-.23.07-.45-.01-.61l-.11.29c-.04-.77.25-1.18-.07-1.69l-.15.28c-.02-.46-.04-.84.33-1.02l.1.47c0-.76-.02-1.22-.2-1.86l-.01.23c-.35-.81-.59-5.05-1.03-5.81l-.29.34-.23-.65c0 .07.91.32.82.39 0-1.38-.11-8.52.1-9.79.17-.51.45-.08.49-.08-.1-.62-.3-.27-.26-.8.05-.14.22.03.26.11-.03-.23.07-.45-.06-.47-.11.29-.46.16-.69.28l.04-.68.22.03c.01-.15-.6-.4-.47-1.06.11-1.13.06-2.35.12-3.49.13.02.21.26.28.5.01-.15-.02-.39.08-.52-.24.27-.15-.48-.25-.27-.53-.84-.02-1.91-.37-2.65-.49-.07-8.35-1.7-8.93-1.71.01-.23.03-.45.08-.52-.14.06-.21.5-.14.74l.31.05c.1.55-.19.12-.17.66-.26.02-.3-.47-.32-.9-.04.39-.23.77.05.94-.11.36-.31-.04-.43.4.07.32.31.73.16 1.09l-.04-.01c-.28.88.36 1.35.09 2.15l-.08-.09c-.15.28.04.84-.13 1.35.05-.15.24-.27.27.04-.17.59-.02.99-.22 1.42l.24.42c-.08 2.05.15 10.15.15 12.21l-.04-.08c.08 3.14-.04 9.58.25 12.83-.18.35-.21.81-.24 1.23l-.34 4.88 5.43.29c.17.01.33.02.48.04-.29-.1-.19-.28.04-.27h.56l5.18-.35-.32-4.58c-.04-.61-.18.18-.29-1.16-.26-1.85-.11-8.96.07-10.61-.38-.88-.12-1.99-.36-2.85l.09.09c-.15-.93.1-6.21-.05-7.29l-.05.14c-.24-.94.16-.82.27-1.56-.4.1-.65-.7-.68-1.01l.09.01c-.08-.46-.44-1.51-.51-2.28l.22.03c-.25-.64-.17-1.84-.2-2.3.08-1.05.44-2.68.12-4.09l.62-.92-.06-.13s-7.65-1.34-9.25.54l-.22-.03.03.37c-.1.44.16.64-.06.62l.02-.6c-.06.44-.18.14-.31-.03-.02.19-.04.37-.11.51.09.09.09-.06.14-.13.08.24.29.56.2.86-.01.45-.36.03-.37.56-.13 2.79-.34 5.5-.25 8.33-.09.07-.09-.01-.13-.09.11.85.09 1.6.2 2.38-.1.22-.23.28-.32.34.09-.07.16 1 .2 2.1.01.55.02 1.1.04 1.52-.02.37-.03.66-.04.68z"/></g><path fill="#DADADA" d="M147.19 68.84h1.08v67.11h-1.08z"/><g fill="#DFDFDF"><path d="M142.91 69.37c-.24.42-.26 1.14-.29 1.82.23-.52.32-1.08.29-1.82zM142.61 71.21l.01.01v-.03zM142.06 69.3c0 .17.01.37.01.56.01-.19.02-.38-.01-.56zM142.19 104.28l.4.1c.02 1.62-.45.48-.34 1.97.57.58-.04 2.49.27 3-.04-.01-.06.72-.23.68.31.22.08.75.16 1.22.09.17.09-.12.18-.25l.12 1.06c-.1.42-.27.52-.31.07-.09 2.77-.27 16.06-.1 19.04.23-.38.06-1.3.43-1.66.21.79-.06 1.16.16 1.51-.54.31-.12 1.73-.66 2.33l.31.22-.19.39c.16 1.55.21 1.87.21 2.02 2.13-2.14 4.25-4.29 5.69-5.74-.17 0-.16-.04-1.08-.08 1.78 1.79 3.56 3.58 5.78 5.82.01-.19.02-.45.03-.77-.03-1.78-.45-2.63-.29-3.62 0 .15-.19.54-.27.08.27-.08-.18-1.23.09-1.45-.03-.45.02-1.91-.36-1.42.19-.25.27-1.55.43-.77.01-.44.07-.87-.01-1.18l-.11.56c-.04-1.49.25-2.29-.07-3.27l-.15.55c-.02-.89-.04-1.63.33-1.98l.1.91c0-1.47-.01-2.36-.2-3.59l-.01.44c-.35-1.57-.59-9.76-1.03-11.2l-.29.66-.23-1.24c0 .15.92.61.82.73 0-2.66-.11-16.48.1-18.94.17-.99.45-.17.5-.16-.1-1.21-.3-.52-.26-1.55.05-.28.22.06.26.22-.03-.45.07-.86-.06-.9-.11.56-.46.32-.69.56l.04-1.32.22.06c.01-.29-.6-.75-.47-2.04.11-2.18.05-4.56.12-6.75.13.04.21.5.28.96.01-.29-.02-.74.08-1.01-.24.53-.15-.92-.25-.51-.53-1.61-.02-3.69-.37-5.11-.49-.13-8.35-3.11-8.93-3.11.01-.44.03-.88.08-1.01-.14.11-.21.98-.14 1.44l.31.08c.1 1.06-.19.25-.17 1.28-.25.05-.3-.9-.32-1.74-.04.75-.23 1.5.05 1.81-.11.71-.31-.08-.43.77.07.61.31 1.41.16 2.11l-.04-.01c-.28 1.7.36 2.6.09 4.16l-.08-.17c-.15.55.04 1.63-.13 2.62.05-.28.24-.53.27.07-.17 1.14-.02 1.92-.22 2.75l.24.8c-.08 3.96.15 19.62.15 23.61l-.04-.16c.08 6.07-.04 18.52.25 24.8-.22.84-.21 1.95-.26 2.89l-.23 4.87 5.33.27c.15.01.29.02.43.02-.56-.1-.37-.28.07-.27h.58l4.92.02-.05-4.92c-.02-2.08-.18.12-.3-2.75-.26-3.59-.11-17.33.08-20.52-.38-1.71-.12-3.85-.36-5.52l.09.17c-.15-1.8.1-12-.04-14.09l-.05.28c-.24-1.82.16-1.58.27-3.02-.4.19-.65-1.37-.68-1.97l.09.02c-.07-.9-.44-2.94-.51-4.42l.22.06c-.25-1.24-.17-3.57-.2-4.46.08-2.04.44-5.18.12-7.9l.62-1.77-.06-.26s-7.65-2.77-9.25.84l-.22-.06.03.71c-.1.85.16 1.25-.06 1.19l.02-1.17c-.06.86-.18.26-.31-.07-.02.36-.04.71-.11.99.09.17.09-.12.14-.26.08.46.29 1.1.2 1.66-.01.88-.36.06-.37 1.08-.13 5.4-.34 10.64-.25 16.1-.09.12-.09-.02-.13-.18.11 1.64.09 3.11.2 4.6-.1.42-.23.53-.32.66.09-.12.16 1.94.2 4.06.01 1.06.02 2.13.03 2.94-.05.84-.05 1.4-.06 1.43z"/></g><g fill="#E8487D"><path d="M94.07 64.7c-.24.45-.26 1.22-.29 1.95.22-.57.32-1.16.29-1.95zM93.77 66.66v.01l.01-.02zM93.22 64.63c0 .18.01.39.01.6.01-.19.01-.4-.01-.6zM93.34 102.04l.4.11c.02 1.73-.45.51-.34 2.11.57.62-.04 2.66.27 3.21-.04-.01-.06.77-.23.72.31.24.08.81.16 1.3.09.18.09-.13.18-.27l.12 1.13c-.1.44-.27.55-.31.07-.09 2.96-.27 17.18-.1 20.37.23-.41.06-1.4.43-1.77.21.84-.06 1.24.16 1.61-.54.33-.12 1.85-.66 2.5l.31.24-.19.42c.17 1.77.21 2.04.21 2.2 1.98-2 3.96-3.99 5.69-5.74-.14 0-.2-.04-1.08-.08 1.78 1.79 3.56 3.59 5.77 5.82.01-.21.02-.5.03-.86-.03-1.9-.45-2.81-.29-3.87 0 .16-.2.58-.27.08.27-.08-.18-1.31.09-1.55-.03-.48.02-2.05-.36-1.52.19-.27.27-1.66.43-.83.01-.47.07-.93-.01-1.27l-.11.6c-.04-1.59.25-2.46-.08-3.49l-.15.59c-.02-.95-.04-1.75.33-2.12l.1.98c0-1.58-.02-2.53-.2-3.84l-.01.47c-.35-1.68-.59-10.44-1.03-11.98l-.29.71-.23-1.33c0 .16.92.65.82.78 0-2.84-.11-17.63.1-20.25.16-1.06.45-.19.5-.18-.1-1.29-.3-.56-.26-1.65.05-.3.22.06.26.23-.03-.48.07-.93-.06-.96-.11.6-.46.34-.69.6l.04-1.41.22.06c.01-.31-.6-.8-.47-2.19.11-2.33.06-4.87.12-7.22.13.04.21.53.28 1.03.01-.31-.02-.79.08-1.08-.24.57-.15-.99-.25-.54-.53-1.73-.02-3.95-.37-5.47-.49-.14-8.35-3.31-8.93-3.32.01-.47.03-.94.08-1.08-.14.12-.21 1.05-.13 1.54l.31.09c.1 1.13-.19.27-.17 1.37-.25.06-.3-.96-.32-1.86-.04.81-.23 1.61.05 1.94-.11.76-.31-.09-.43.83.07.65.31 1.51.16 2.25l-.04-.01c-.28 1.82.37 2.78.09 4.44l-.08-.18c-.15.59.04 1.74-.13 2.8.05-.3.24-.56.26.07-.17 1.22-.02 2.05-.22 2.94l.24.86c-.08 4.24.15 20.99.16 25.25l-.04-.17c.08 6.49-.04 19.81.25 26.52-.22.91-.21 2.11-.26 3.13l-.22 4.88 5.33.26c.15.01.28.01.42.02-.6-.1-.4-.28.07-.27h.58l4.91.02-.04-4.92c-.02-2.29-.18.11-.3-2.97-.26-3.84-.11-18.54.08-21.95-.38-1.83-.12-4.12-.36-5.91l.09.18c-.15-1.93.1-12.83-.04-15.07l-.05.3c-.24-1.95.16-1.69.27-3.23-.4.21-.65-1.47-.68-2.1l.09.02c-.08-.96-.44-3.14-.51-4.73l.22.06c-.25-1.32-.17-3.82-.2-4.77.07-2.18.44-5.54.12-8.45l.62-1.89-.06-.27s-7.65-2.97-9.25.89l-.22-.06.04.76c-.1.91.16 1.33-.06 1.27l.02-1.25c-.06.92-.18.28-.31-.07-.02.38-.04.75-.11 1.06.09.18.09-.13.14-.28.08.49.3 1.18.2 1.78-.01.94-.36.06-.37 1.16-.13 5.78-.34 11.38-.25 17.22-.09.13-.09-.02-.13-.19.11 1.76.08 3.32.2 4.92-.1.45-.23.57-.32.7.09-.13.16 2.08.19 4.34.01 1.13.02 2.28.04 3.15-.04.87-.05 1.47-.06 1.51z"/></g><path fill="#DADADA" d="M138.58 107.27h1.08v28.68h-1.08z"/><g fill="#DFDFDF"><path d="M134.3 107.57c-.24.19-.25.5-.29.79.23-.23.32-.47.29-.79zM134 108.37h.01v-.01zM133.46 107.38c0 .07.01.16.01.24.01-.08.01-.16-.01-.24zM133.58 122.67l.4.04c.02.7-.45.21-.34.86.57.24-.04 1.07.27 1.29-.04 0-.06.31-.23.3.31.09.08.33.16.52.09.07.09-.05.18-.11l.12.46c-.1.18-.27.23-.31.03-.09 1.2-.27 6.94-.1 8.23.23-.17.06-.57.43-.72.21.34-.06.5.16.65-.54.14-.12.75-.66 1.02l.31.09-.19.17c.07.27.11.45.14.56 2.34-2.38 4.56-4.64 5.75-5.86-.58.13-.03.02-1.08-.04 1.15 1.18 2.3 2.34 5.8 5.91v-.02c-.03-.77-.45-1.14-.29-1.57-.01.06-.2.23-.27.03.27-.03-.18-.53.09-.62-.03-.2.02-.83-.35-.62.19-.1.27-.67.43-.33.01-.19.07-.37-.01-.51l-.11.24c-.04-.64.25-.99-.08-1.41l-.15.23c-.02-.38-.04-.71.33-.85l.1.4c0-.64-.02-1.02-.2-1.56l-.01.19c-.35-.68-.59-4.23-1.03-4.86l-.29.28-.23-.54c-.01.06.91.28.82.33 0-1.15-.11-7.12.1-8.18.16-.43.45-.07.49-.06-.1-.52-.3-.23-.26-.67.05-.12.22.03.26.1-.03-.19.07-.37-.06-.39-.11.24-.46.13-.69.23l.04-.57.22.03c.01-.13-.6-.33-.47-.89.11-.94.06-1.97.12-2.92.13.02.21.22.28.42.01-.13-.02-.32.08-.44-.24.23-.15-.4-.25-.22-.53-.7-.02-1.59-.37-2.21-.49-.06-8.35-1.47-8.93-1.48.01-.19.03-.38.08-.44-.14.05-.21.42-.14.62l.31.04c.1.46-.19.1-.17.55-.26.02-.3-.39-.32-.76-.04.33-.23.65.05.79-.11.3-.31-.04-.43.33.07.26.31.61.16.91l-.04-.01c-.28.73.36 1.13.09 1.8l-.08-.07c-.15.23.04.7-.13 1.13.05-.12.24-.22.27.03-.17.49-.02.83-.22 1.18l.24.35c-.08 1.71.15 8.48.15 10.2l-.04-.07c.08 2.62-.04 8 .25 10.72-.17.27-.2.61-.23.94l-.41 4.82 5.49.36c.17.01.34.02.49.04-.24-.1-.16-.28.03-.27.3.01.47 0 .56-.01l5.45-.81-.6-4.13c-.05-.35-.18.17-.28-.88-.26-1.55-.11-7.49.07-8.87-.38-.73-.12-1.66-.36-2.38l.09.07c-.15-.78.1-5.19-.04-6.09l-.05.12c-.24-.78.16-.69.27-1.31-.4.09-.65-.58-.68-.84l.09.01c-.07-.39-.44-1.26-.51-1.9l.22.02c-.25-.53-.17-1.54-.2-1.92.08-.88.44-2.25.12-3.42l.62-.77-.06-.11s-7.65-1.08-9.25.5l-.22-.02.03.31c-.1.37.16.54-.06.51l.02-.5c-.06.37-.18.12-.31-.02-.02.15-.04.31-.11.43.09.07.09-.06.14-.11.08.2.29.47.2.72-.01.38-.36.03-.37.47-.13 2.34-.34 4.6-.25 6.96-.09.06-.09-.01-.13-.08.11.71.09 1.34.2 1.99-.1.18-.23.23-.32.29.16-.12.25 3.55.2 3.62z"/></g><g stroke="#DADADA" stroke-miterlimit="10" fill="none"><path d="M98.23 357.74v-12.03M29.15 357.74v-12.03M244.8 357.74v-12.03"/></g><text transform="translate(93.668 372.879)" fill="#808080" font-family="'DS3DisplaySans'" font-size="15">0</text><text transform="translate(24.678 372.879)" fill="#808080" font-family="'DS3DisplaySans'" font-size="15">-1</text><text transform="translate(241.255 372.879)" fill="#808080" font-family="'DS3DisplaySans'" font-size="15">2</text><path stroke="#DADADA" stroke-miterlimit="10" fill="none" d="M171.52 357.74v-12.03"/><text transform="translate(169.337 372.879)" fill="#808080" font-family="'DS3DisplaySans'" font-size="15">1</text><path stroke="#DADADA" stroke-miterlimit="10" fill="none" d="M318.09 357.74v-12.03M391.37 357.74v-12.03"/><text transform="translate(314.601 372.879)" fill="#808080" font-family="'DS3DisplaySans'" font-size="15">3</text><text transform="translate(387.406 372.879)" fill="#808080" font-family="'DS3DisplaySans'" font-size="15">4</text><text transform="translate(386.188 318.113)" fill="#808080" font-family="'DS3DisplaySans'" font-size="15">Greece</text><g fill="#808080" font-size="15"><text transform="translate(79.446 298.179)" font-family="'DS5DisplaySansSemibold'">More austere</text><text transform="translate(79.446 317.179)" font-family="'DS3DisplaySans'">(Change in cyclically adjusted primary balance)</text></g><path stroke="#DADADA" stroke-miterlimit="10" fill="none" d="M0 17.62h29.74"/><text transform="translate(-.408 12.798)" fill="#808080" font-family="'DS3DisplaySans'" font-size="15">4</text><path stroke="#DADADA" stroke-miterlimit="10" fill="none" d="M0 79.36h29.74"/><text transform="translate(-.408 74.544)" fill="#808080" font-family="'DS3DisplaySans'" font-size="15">2</text><path stroke="#DADADA" stroke-miterlimit="10" fill="none" d="M0 202.85h29.74M0 264.5h29.74M0 326.15h29.74"/><text transform="translate(-.408 198.038)" fill="#808080" font-family="'DS3DisplaySans'" font-size="15">-2</text><text transform="translate(-.408 259.784)" fill="#808080" font-family="'DS3DisplaySans'" font-size="15">-4</text><text transform="translate(-.408 321.532)" fill="#808080" font-family="'DS3DisplaySans'" font-size="15">-6</text><text transform="translate(-.408 136.291)" fill="#808080" font-family="'DS5DisplaySansSemibold'" font-size="15">0</text><path stroke="#000" stroke-width=".5" stroke-miterlimit="10" fill="none" d="M78.63 278.24h64.82"/><path d="M142.72 280.73l4.32-2.49-4.32-2.5z"/><g fill="#808080" font-family="'DS5DisplaySansSemibold'" font-size="15"><text transform="translate(369.401 101.513)">Rate of</text><text transform="translate(369.401 120.513)">GDP growth</text></g><path stroke="#000" stroke-width=".5" stroke-miterlimit="10" fill="none" d="M359.29 120.77V55.96"/><path d="M361.78 56.69l-2.49-4.32-2.5 4.32z"/><text transform="translate(257.829 177.919)" fill="#808080" font-family="'DS3DisplaySans'" font-size="15">Portugal</text><text transform="translate(224.091 111.522)" fill="#808080" font-family="'DS3DisplaySans'" font-size="15">UK</text><text transform="translate(124.904 162.187)" fill="#808080" font-family="'DS3DisplaySans'" font-size="15">US</text><g fill="#E8487D"><path d="M436.21 142.02c-.24 1.11-.26 3.03-.29 4.84.23-1.4.33-2.88.29-4.84zM435.92 146.89v.03-.06.03zM435.37 142.02c0 .45.01.97.01 1.49.01-.49.01-1-.01-1.49zM435.49 234.77l.4.28c.02 4.3-.45 1.25-.34 5.23.57 1.55-.04 6.61.27 7.99-.04-.03-.06 1.92-.23 1.79.31.6.08 2 .16 3.23.09.45.09-.33.18-.66l.12 2.81c-.1 1.1-.28 1.37-.31.18-.09 7.36-.27 42.68-.1 50.61.23-1.02.06-3.47.43-4.4.21 2.09-.06 3.08.16 4.01-.54.81-.12 4.61-.66 6.19l.31.6-.19 1.04c.24 6.46.22 4.9.18 6.27 1.65-1.66 3.31-3.32 5.73-5.75-.22-.01-.55-.02-1.08-.03 1.81 1.82 3.62 3.63 5.76 5.78.01-.64.03-1.57.05-2.93-.03-4.73-.45-6.98-.29-9.61 0 .39-.19 1.43-.27.21.27-.21-.18-3.26.09-3.86-.03-1.2.02-5.09-.36-3.77.19-.66.27-4.13.42-2.06.01-1.17.07-2.3-.01-3.15l-.11 1.5c-.04-3.95.25-6.1-.08-8.68l-.15 1.46c-.02-2.36-.04-4.34.33-5.26l.1 2.43c0-3.92-.01-6.28-.2-9.54l-.01 1.17c-.35-4.16-.59-25.92-1.03-29.75l-.29 1.76-.23-3.3c0 .39.92 1.59.82 1.92-.01-7.06-.11-43.8.1-50.32.17-2.63.45-.47.5-.44-.1-3.2-.3-1.38-.26-4.11.05-.74.22.16.26.57-.03-1.19.07-2.3-.06-2.39-.11 1.49-.46.86-.69 1.49l.04-3.5.22.16c.01-.78-.6-1.98-.47-5.42.11-5.8.05-12.11.12-17.95.13.09.21 1.32.28 2.55.01-.78-.02-1.98.08-2.7-.24 1.41-.15-2.45-.25-1.35-.53-4.28-.02-9.81-.37-13.58-.49-.33-8.35-8.11-8.93-8.11.01-1.17.03-2.34.08-2.69-.14.3-.21 2.6-.14 3.83l.31.21c.1 2.82-.19.66-.17 3.41-.25.15-.3-2.38-.32-4.61-.04 2.01-.23 4 .05 4.82-.11 1.89-.31-.21-.43 2.06.07 1.62.31 3.74.16 5.6l-.04-.03c-.28 4.52.37 6.91.09 11.04l-.08-.44c-.15 1.46.04 4.33-.13 6.96.05-.75.24-1.4.26.18-.17 3.02-.01 5.09-.22 7.3l.24 2.12c-.08 10.53.15 52.15.16 62.73l-.04-.42c.08 16.12-.04 49.23.25 65.89-.24 2.5-.21 5.92-.28 8.57l-.13 5.01 5.25.12c.09 0 .17 0 .25.01-.1-.01-.19-.02-.25-.02l-5.53-.47.42-4.65c.09-1.01.21-.77.24 0l.16 4.94 4.7-.06h1.08l4.87.02-.01-4.89c-.01-7.05-.17-.19-.3-8.19-.26-9.54-.11-46.05.08-54.53-.38-4.55-.12-10.23-.36-14.69l.09.45c-.15-4.79.1-31.88-.04-37.45l-.05.75c-.24-4.85.16-4.19.27-8.01-.4.5-.65-3.65-.68-5.24l.09.06c-.08-2.39-.44-7.81-.51-11.75l.22.15c-.25-3.29-.17-9.48-.2-11.85.08-5.41.44-13.76.12-21l.62-4.68-.07-.68s-7.65-7.51-9.25 2.06l-.22-.15.04 1.89c-.1 2.27.16 3.32-.06 3.16l.02-3.11c-.06 2.28-.18.69-.31-.18-.02.95-.04 1.88-.11 2.63.09.45.09-.33.14-.69.08 1.22.29 2.93.2 4.42-.01 2.33-.36.15-.37 2.87-.13 14.36-.34 28.27-.25 42.78-.09.33-.09-.06-.13-.48.07 4.37.13 8.25.2 12.24-.1 1.11-.23 1.41-.32 1.74.09-.33.16 5.17.19 10.79.01 2.81.03 5.65.04 7.82-.02 2.15-.02 3.63-.03 3.72z"/></g><g fill="#E8487D"><path d="M243.48 141.02c-.24.21-.25.56-.29.9.23-.27.32-.54.29-.9zM243.19 141.92v-.01zM242.64 140.85c0 .08.01.18.01.27 0-.09.01-.18-.01-.27zM242.76 158.1l.4.04c.02.79-.45.24-.34.97.57.28-.04 1.22.27 1.47-.04-.01-.06.35-.23.33.31.1.08.37.16.59.09.08.09-.06.18-.12l.12.52c-.1.2-.27.26-.31.04-.09 1.35-.27 7.86-.1 9.31.23-.19.06-.64.43-.82.21.38-.06.57.16.74-.54.16-.12.85-.66 1.15l.31.1-.19.19c.08.36.13.58.16.71l5.74-5.84c-.53.11-.03 0-1.08-.05 1.26 1.28 2.52 2.56 5.79 5.89 0-.02 0-.06.01-.1-.03-.87-.45-1.29-.29-1.77 0 .07-.2.26-.27.03.27-.03-.18-.6.09-.71-.03-.22.02-.94-.36-.7.19-.12.27-.75.43-.37.01-.21.07-.42-.01-.58l-.11.27c-.04-.73.25-1.12-.07-1.6l-.15.27c-.02-.44-.04-.8.33-.96l.1.45c0-.72-.01-1.16-.2-1.76l-.01.21c-.35-.77-.59-4.78-1.03-5.49l-.29.32-.23-.61c0 .07.92.31.82.37-.01-1.3-.11-8.06.1-9.26.17-.48.45-.08.5-.07-.1-.59-.3-.26-.26-.76.05-.14.22.03.26.11-.03-.22.07-.42-.06-.44-.11.27-.46.15-.69.26l.04-.64.22.03c.01-.14-.6-.38-.47-1.01.11-1.07.05-2.23.12-3.3.13.02.21.25.28.47.01-.14-.02-.36.08-.5-.24.26-.15-.45-.25-.25-.53-.8-.02-1.81-.37-2.5-.49-.07-8.35-1.62-8.93-1.64.02-.21.03-.43.08-.5-.14.05-.21.48-.13.7l.31.04c.1.52-.19.12-.17.62-.25.02-.3-.44-.32-.85-.04.37-.23.73.05.89-.11.34-.31-.04-.43.37.07.3.31.69.16 1.03l-.04-.01c-.27.83.37 1.28.09 2.03l-.08-.08c-.15.27.04.8-.13 1.28.05-.14.24-.25.27.04-.17.55-.02.94-.22 1.34l.24.4c-.08 1.94.15 9.6.15 11.55l-.04-.08c.08 2.97-.04 9.06.25 12.13-.18.33-.21.74-.23 1.13l-.36 4.87 5.44.31c.17.01.33.02.48.04-.28-.1-.18-.28.03-.27.28.01.46 0 .56-.01l5.24-.47-.39-4.47c-.04-.52-.18.17-.29-1.06-.26-1.75-.11-8.47.07-10.03-.38-.83-.12-1.88-.36-2.7l.09.08c-.15-.88.1-5.87-.04-6.89l-.05.14c-.24-.89.16-.77.27-1.48-.4.1-.65-.66-.68-.95l.09.01c-.08-.44-.44-1.43-.51-2.16l.22.02c-.25-.6-.17-1.74-.2-2.18.07-1 .44-2.54.12-3.87l.62-.87-.06-.12s-7.65-1.26-9.25.53l-.22-.02.03.35c-.1.42.16.61-.06.58l.02-.57c-.06.42-.18.13-.31-.03-.02.18-.04.35-.11.49.09.08.09-.06.14-.13.08.22.29.53.2.81-.01.43-.36.03-.37.53-.13 2.64-.34 5.21-.25 7.88-.09.06-.09-.01-.13-.09.11.8.09 1.52.2 2.25-.1.21-.23.26-.32.33.09-.06.16.95.2 1.98.01.52.03 1.04.04 1.44-.04.42-.04.69-.05.71z"/></g><g fill="#E8487D"><path d="M225.9 140.99c-.24.17-.25.45-.29.72.23-.22.33-.44.29-.72zM225.61 141.71v-.01zM225.06 140.77c0 .07.01.14.01.22.01-.07.01-.14-.01-.22zM225.19 154.58l.4.03c.02.63-.45.19-.34.77.57.22-.04.97.27 1.16-.05 0-.06.28-.23.27.31.08.08.29.16.47.09.06.09-.05.18-.1l.12.41c-.1.16-.27.21-.31.03-.09 1.08-.27 6.25-.1 7.41.23-.15.06-.51.43-.65.21.3-.06.45.16.58-.54.13-.12.68-.66.92l.31.08-.19.16c.06.21.1.35.12.46 2.32-2.37 4.51-4.61 5.77-5.89-.62.16-.04.03-1.05-.03h-.03c2.06 2.1 4.11 4.2 5.8 5.92-.04-.67-.45-1.01-.29-1.38 0 .06-.2.21-.27.02.27-.02-.18-.48.09-.56-.03-.18.02-.74-.36-.56.19-.09.27-.6.42-.29.02-.17.07-.33-.01-.46l-.11.22c-.04-.58.25-.89-.08-1.27l-.15.21c-.02-.35-.04-.64.33-.76l.1.36c0-.57-.02-.92-.2-1.4l-.01.17c-.35-.62-.59-3.81-1.03-4.38l-.29.25-.23-.49c0 .06.92.25.82.3 0-1.03-.11-6.41.1-7.36.16-.38.45-.06.5-.05-.1-.47-.3-.21-.26-.61.05-.11.22.03.26.09-.03-.18.07-.33-.06-.35-.11.22-.46.12-.69.2l.04-.51.22.03c.01-.11-.6-.3-.47-.8.11-.85.06-1.77.12-2.62.13.02.21.2.28.38.01-.12-.02-.29.08-.39-.24.2-.15-.36-.25-.2-.53-.64-.02-1.44-.37-2-.49-.06-8.35-1.36-8.93-1.37.01-.17.03-.34.08-.39-.14.04-.21.38-.14.56l.31.04c.1.41-.19.09-.17.5-.26.02-.3-.35-.32-.68-.04.29-.23.58.05.71-.11.27-.31-.04-.43.29.07.24.31.55.16.82l-.04-.01c-.28.66.36 1.02.09 1.62l-.08-.07c-.15.21.04.64-.13 1.02.05-.11.24-.2.26.03-.17.44-.02.75-.22 1.06l.24.32c-.08 1.54.15 7.64.15 9.19l-.04-.06c.08 2.36-.05 7.21.25 9.65-.15.23-.2.51-.23.79l-.47 4.75 5.55.43c.17.01.34.02.5.05-.22-.1-.14-.28.03-.27.33.01.48 0 .55-.02l5.74-1.66-.91-3.28c-.06-.21-.17.14-.27-.73-.26-1.39-.11-6.74.07-7.98-.38-.66-.12-1.5-.36-2.14l.09.06c-.15-.7.1-4.67-.04-5.48l-.05.11c-.24-.71.16-.62.27-1.18-.4.08-.65-.52-.68-.75l.09.01c-.07-.35-.44-1.13-.51-1.71l.22.02c-.25-.48-.17-1.39-.2-1.73.08-.79.44-2.02.12-3.08l.62-.7-.06-.1s-7.65-.94-9.25.49l-.22-.02.03.28c-.1.33.16.48-.06.46l.02-.46c-.06.33-.18.1-.31-.02-.02.14-.04.27-.11.39.09.06.09-.05.14-.1.08.18.29.42.2.64-.01.34-.36.03-.37.43-.13 2.1-.34 4.15-.25 6.27-.09.05-.09-.01-.13-.07.11.64.09 1.21.2 1.79-.1.16-.23.21-.32.26.19-.14.27 3.18.23 3.23z"/></g><text transform="translate(54.799 160.541)" fill="#808080" font-family="'DS3DisplaySans'" font-size="15">Germany</text><text transform="translate(188.134 160.54)" fill="#808080" font-family="'DS3DisplaySans'" font-size="15">Spain</text><g fill="#E8487D"><path d="M128.1 55.29c-.24.51-.25 1.38-.29 2.21.23-.65.32-1.32.29-2.21zM127.81 57.51v.01-.03zM127.26 55.23c0 .21.01.44.01.68.01-.22.01-.46-.01-.68zM127.38 97.51l.4.12c.02 1.96-.45.57-.34 2.38.57.71-.04 3.01.27 3.63-.05-.01-.06.87-.23.82.31.27.08.91.16 1.47.09.2.09-.15.18-.3l.12 1.28c-.09.5-.27.63-.31.08-.09 3.35-.27 19.43-.1 23.04.23-.46.06-1.58.43-2 .21.95-.06 1.4.16 1.82-.54.37-.12 2.1-.66 2.82l.31.27-.19.48c.19 2.24.22 2.36.2 2.56 1.74-1.75 3.49-3.51 5.7-5.74-.12-.01-.28-.04-1.08-.07 1.8 1.81 3.6 3.62 5.77 5.81.01-.27.02-.61.03-1.04-.03-2.15-.45-3.18-.29-4.38 0 .18-.19.65-.27.09.27-.09-.18-1.49.09-1.76-.03-.55.02-2.31-.35-1.72.19-.3.27-1.88.42-.94.02-.53.07-1.05-.01-1.43l-.11.68c-.04-1.8.25-2.78-.08-3.95l-.15.66c-.02-1.07-.04-1.97.33-2.39l.1 1.1c0-1.78-.02-2.86-.2-4.35l-.01.53c-.35-1.9-.59-11.8-1.03-13.55l-.29.8-.23-1.5c0 .18.91.73.82.88-.01-3.21-.11-19.94.1-22.9.17-1.2.45-.21.5-.2-.1-1.46-.3-.63-.26-1.87.05-.34.22.07.26.26-.03-.54.07-1.05-.06-1.09-.11.68-.46.39-.69.67l.04-1.59.22.07c.01-.35-.6-.9-.47-2.47.11-2.64.06-5.51.12-8.17.13.04.21.6.28 1.16.01-.36-.02-.9.08-1.23-.24.64-.15-1.12-.25-.61-.53-1.95-.02-4.46-.37-6.18-.49-.15-8.35-3.73-8.93-3.74.01-.53.03-1.06.08-1.23-.14.14-.21 1.19-.13 1.74l.31.1c.1 1.28-.19.3-.17 1.55-.25.06-.3-1.09-.32-2.1-.04.91-.23 1.82.05 2.19-.11.86-.31-.1-.43.94.07.74.31 1.71.16 2.55l-.06.02c-.28 2.05.36 3.15.09 5.02l-.08-.2c-.15.66.04 1.97-.13 3.17.05-.34.24-.64.27.08-.17 1.38-.02 2.32-.22 3.32l.24.97c-.08 4.79.15 23.74.16 28.56l-.04-.19c.08 7.34-.04 22.41.25 29.99-.23 1.05-.21 2.45-.26 3.61l-.21 4.9 5.32.24c.14.01.28.01.41.02-.25-.04-.37-.08-.41-.13l-5-5.03c.02-.02.04-.02.05 0l4.77 5.19.18-.21c.05-.05.23-.09.49-.08h.59l4.9.02-.03-4.92c-.02-2.71-.18.08-.3-3.44-.26-4.34-.11-20.96.08-24.82-.38-2.07-.12-4.66-.36-6.68l.09.2c-.15-2.18.1-14.51-.04-17.05l-.05.34c-.24-2.21.16-1.91.27-3.65-.4.23-.65-1.66-.68-2.38l.09.03c-.08-1.09-.44-3.55-.51-5.35l.22.07c-.25-1.5-.17-4.32-.2-5.39.08-2.46.44-6.27.12-9.56l.62-2.13-.06-.31s-7.65-3.38-9.25.98l-.22-.07.03.86c-.1 1.03.16 1.51-.06 1.44l.02-1.41c-.06 1.04-.18.31-.31-.08-.02.43-.04.85-.11 1.2.09.2.09-.15.14-.31.08.56.29 1.33.2 2.01-.01 1.06-.36.07-.37 1.31-.13 6.54-.34 12.87-.25 19.47-.09.15-.09-.03-.13-.22.11 1.99.09 3.76.2 5.57-.1.5-.23.64-.32.79.09-.15.16 2.35.19 4.91.01 1.28.02 2.57.04 3.56-.04 1-.04 1.67-.05 1.71z"/></g><path stroke="#DADADA" stroke-miterlimit="10" fill="none" d="M0 140.7h459.98"/></svg>