<svg xmlns="http://www.w3.org/2000/svg" width="460" height="393.16" viewBox="0 0 460 393.16"><path stroke="#DADADA" stroke-miterlimit="10" fill="none" d="M37.78 23.69v368.47"/><g stroke="#DADADA" stroke-miterlimit="10" fill="none"><path d="M75.58 23.69v368.47M151.07 23.69l-.01 368.47M226.56 23.69v368.47M302.05 23.69v368.47M377.54 23.69v368.47"/></g><g stroke="#DADADA" stroke-miterlimit="10" fill="none"><path d="M113.27 23.69v368.47M188.76 23.69v368.47M264.25 23.69v368.47M339.74 23.69v368.47M415.23 23.69v368.47"/></g><text transform="translate(71.573 11.885)" fill="#808080" font-family="'DS5DisplaySansSemibold'" font-size="15">2</text><text transform="translate(146.61 11.885)" fill="#808080" font-family="'DS5DisplaySansSemibold'" font-size="15">4</text><text transform="translate(221.935 11.885)" fill="#808080" font-family="'DS5DisplaySansSemibold'" font-size="15">6</text><text transform="translate(297.329 11.885)" fill="#808080" font-family="'DS5DisplaySansSemibold'" font-size="15">8</text><text transform="translate(369.869 11.885)" fill="#808080" font-family="'DS5DisplaySansSemibold'" font-size="15">10</text><text transform="translate(28.144 11.885)" fill="#808080" font-family="'DS5DisplaySansSemibold'" font-size="15">1%</text><text transform="translate(109.24 11.885)" fill="#808080" font-family="'DS5DisplaySansSemibold'" font-size="15">3</text><text transform="translate(184.589 11.885)" fill="#808080" font-family="'DS5DisplaySansSemibold'" font-size="15">5</text><text transform="translate(259.974 11.885)" fill="#808080" font-family="'DS5DisplaySansSemibold'" font-size="15">7</text><text transform="translate(334.935 11.885)" fill="#808080" font-family="'DS5DisplaySansSemibold'" font-size="15">9</text><text transform="translate(409.815 11.885)" fill="#808080" font-family="'DS5DisplaySansSemibold'" font-size="15">11</text><g fill="#202020"><path d="M2.42 61.74c1.35.24 3.69.26 5.9.31-1.7-.24-3.51-.34-5.9-.31zM8.37 62.05h.03-.08c.02-.01.03-.01.05 0zM437.36 51.25c-.55 0-1.18.01-1.82.02.61 0 1.23 0 1.82-.02zM115.46 62.74l.34-.4c5.25-.01 1.53.46 6.38.36 1.9-.57 8.06.06 9.73-.24-.04.04 2.34.06 2.19.24.73-.31 2.44-.07 3.94-.15.54-.08-.4-.09-.81-.19l3.43-.11c1.34.1 1.67.28.21.31 8.97.11 52.01.4 61.67.25-1.24-.23-4.22-.07-5.36-.44 2.55-.2 3.76.07 4.89-.14.98.54 5.61.13 7.55.68l.73-.31 1.27.19c11.23-.32 2.57-.16 12.52-.08 5.76-.05 8.5-.47 11.71-.32-.48 0-1.75-.19-.26-.27.26.27 3.97-.19 4.7.08 1.46-.03 6.2 0 4.6-.37.8.18 5.03.26 2.51.42 1.43.01 2.81.06 3.83-.02l-1.83-.1c4.81-.05 7.44.23 10.57-.1l-1.78-.15c2.88-.02 5.29-.05 6.42.31l-2.96.11c4.77-.01 7.65-.03 11.63-.23l-1.42-.01c5.07-.36 31.59-.67 36.26-1.12l-2.15-.28 4.02-.24c-.48 0-1.94.92-2.34.83 8.61-.03 53.38-.25 61.33-.05 3.21.16.58.45.54.5 3.9-.11 1.68-.3 5-.28.91.05-.19.22-.7.26 1.45-.03 2.8.06 2.91-.07-1.82-.1-1.05-.45-1.82-.68l4.27.03-.19.22c.95.01 2.41-.61 6.61-.49 7.07.1 14.76.02 21.87.07-.11.13-1.6.21-3.1.29.96.01 2.41-.03 3.29.07-1.72-.23 2.98-.16 1.64-.26 5.21-.54 11.95-.05 16.55-.42.4-.49 9.85-8.38 9.85-8.96 1.43.01 2.85.02 3.28.07-.37-.14-3.17-.2-4.67-.12l-.26.31c-3.43.11-.8-.18-4.15-.16-.18-.25 2.9-.31 5.62-.33-2.45-.03-4.88-.21-5.88.06-2.3-.11.26-.31-2.51-.42-1.97.07-4.56.32-6.83.17l.04-.04c-5.51-.26-8.42.39-13.45.13l.54-.08c-1.78-.15-5.28.05-8.49-.11.92.05 1.71.24-.22.27-3.69-.16-6.2 0-8.9-.2l-2.59.25c-12.84-.05-63.55.31-76.45.34l.51-.04c-19.65.12-59.99.1-80.3.45-3.14-.25-7.47-.19-10.75-.26 1.82.1 1.2.28-.23.27-9.98-.03-.67.17-10.77.27-11.63.23-56.13-.03-66.45-.24-5.54.36-12.47.09-17.9.32l.55-.08c-5.83.14-38.86-.2-45.64-.07l.91.05c-5.91.23-5.11-.17-9.77-.29.61.4-4.45.63-6.39.67l.07-.09c-2.91.07-9.51.42-14.33.47l.19-.22c-4.01.24-11.56.14-14.44.16-6.6-.09-16.77-.48-25.59-.19l-5.7-.63-.84.06s-9.18 7.63 2.47 9.26l-.19.22 2.3-.03c2.76.11 4.04-.15 3.85.07l-3.79-.03c2.78.06.84.18-.22.31 1.16.02 2.29.05 3.21.12.55-.08-.4-.09-.83-.14 1.49-.08 3.57-.29 5.39-.18 2.84.02.18.36 3.5.38 17.5.17 34.45.43 52.13.38.4.09-.08.09-.59.13 5.33-.06 10.06-.11 14.91-.16 1.35.1 1.71.23 2.11.33-.4-.09 6.3-.14 13.15-.16 3.43 0 6.89-.01 9.53-.01 2.71 0 4.51.01 4.62.02z"/></g><text transform="translate(.368 46.614)" fill="#808080" font-family="'DS3DisplaySans'" font-size="15">Greece</text><g fill="#202020"><path d="M1.09 98.73c.22.24.61.27.97.31-.27-.24-.57-.34-.97-.31zM2.07 99.04l.01-.01h-.02zM72.73 88.24c-.09.01-.19.01-.3.02.1 0 .2 0 .3-.02zM19.71 99.73l.06-.4c.86-.01.25.46 1.05.36.31-.57 1.33.06 1.6-.24-.01.05.39.06.36.24.12-.31.4-.07.65-.15.09-.08-.06-.09-.13-.18l.56-.11c.22.1.28.28.04.31 1.48.11 8.57.4 10.16.25-.21-.23-.7-.08-.88-.44.42-.21.62.07.81-.14.16.54.92.13 1.24.68l.12-.31.21.19c1.85-.32.42-.16 2.06-.08.95-.05 1.4-.47 1.93-.32-.08 0-.29-.19-.04-.27.04.27.65-.19.77.08.24-.03 1.02 0 .76-.37.13.18.83.26.41.42.23.01.46.06.63-.02l-.3-.1c.79-.05 1.23.23 1.74-.1l-.29-.15c.47-.02.87-.05 1.06.31l-.49.11c.79-.01 1.26-.03 1.92-.23l-.23-.01c.83-.36 5.2-.67 5.97-1.12l-.35-.28.66-.24c-.08 0-.32.92-.38.83 1.42-.03 8.79-.25 10.1-.06.53.16.09.45.09.5.64-.11.28-.3.82-.28.15.05-.03.22-.11.26.24-.03.46.06.48-.07-.3-.1-.17-.45-.3-.68l.7.03-.03.22c.16.01.4-.61 1.09-.49 1.17.1 2.43.02 3.6.07-.02.13-.27.21-.51.29.16.01.4-.03.54.07-.28-.24.49-.16.27-.25.86-.54 1.97-.05 2.73-.42.07-.49 1.62-8.38 1.62-8.96.23.01.47.02.54.07-.06-.14-.52-.2-.77-.12l-.04.31c-.56.11-.13-.19-.68-.16-.03-.25.48-.31.93-.33-.4-.03-.8-.21-.97.06-.38-.11.04-.31-.41-.42-.32.08-.75.32-1.12.17l.01-.04c-.91-.26-1.39.39-2.22.13l.09-.08c-.29-.15-.87.05-1.4-.11.15.05.28.24-.04.27-.61-.16-1.02 0-1.47-.2l-.43.25c-2.11-.05-10.47.31-12.59.35l.08-.04c-3.24.12-9.88.1-13.23.45-.52-.25-1.23-.19-1.77-.26.3.1.2.28-.04.27-1.65-.03-.11.17-1.77.27-1.92.23-9.24-.03-10.94-.24-.91.36-2.05.09-2.95.32l.09-.08c-.96.14-6.4-.2-7.52-.07l.15.05c-.97.22-.84-.17-1.61-.29.1.41-.73.63-1.05.67l.01-.09c-.48.07-1.57.42-2.36.47l.03-.22c-.66.24-1.9.14-2.38.16-1.09-.09-2.76-.48-4.22-.19l-.94-.63-.14.06s-1.51 7.63.41 9.26l-.03.22.38-.03c.46.11.67-.15.63.07l-.62-.03c.46.06.14.18-.04.31.19.02.38.05.53.12.09-.08-.07-.09-.14-.14.25-.08.59-.29.89-.18.47.02.03.36.58.38 2.88.17 5.67.43 8.59.38.06.09-.01.09-.1.13.88-.1 1.66-.06 2.46-.16.22.1.28.23.35.33-.06-.09 1.04-.14 2.17-.16.56 0 1.13-.01 1.57-.01.42-.02.71-.01.73 0z"/></g><text transform="translate(.368 83.602)" fill="#808080" font-family="'DS3DisplaySans'" font-size="15">US</text><g fill="#202020"><path d="M1.07 137.23c.2.24.56.26.89.31-.25-.24-.53-.34-.89-.31zM1.97 137.54l.01-.01h-.02zM66.75 126.74c-.08 0-.18.01-.27.02.09 0 .18 0 .27-.02zM18.14 138.23l.05-.4c.79-.01.23.46.96.36.29-.56 1.22.06 1.47-.24-.01.04.35.06.33.24.11-.31.37-.07.6-.15.08-.08-.06-.09-.12-.19l.52-.11c.2.1.25.28.03.31 1.35.11 7.85.4 9.31.25-.19-.23-.64-.08-.81-.44.39-.21.57.07.74-.14.15.54.85.13 1.14.68l.11-.31.19.19c1.7-.32.39-.16 1.89-.08.87-.05 1.28-.47 1.77-.32-.07 0-.26-.19-.04-.27.04.27.6-.19.71.08.22-.03.94 0 .69-.37.12.18.76.26.38.42.22.01.42.06.58-.02l-.28-.1c.73-.05 1.12.23 1.6-.1l-.27-.15c.43-.02.8-.05.97.31l-.45.11c.72-.01 1.15-.03 1.76-.23l-.21-.01c.77-.36 4.77-.67 5.48-1.12l-.33-.28.61-.24c-.07 0-.29.92-.35.83 1.3-.03 8.06-.25 9.26-.06.48.16.09.45.08.5.59-.11.25-.3.75-.28.14.05-.03.22-.1.26.22-.03.42.07.44-.07-.27-.1-.16-.45-.27-.68l.65.03-.03.22c.14.01.36-.61 1-.49 1.07.1 2.23.02 3.3.07-.02.13-.24.21-.47.29.14.01.36-.03.5.07-.26-.24.45-.16.25-.26.79-.54 1.81-.05 2.5-.41.06-.49 1.49-8.38 1.49-8.96.22.01.43.02.5.07-.06-.14-.48-.2-.71-.12l-.04.31c-.52.11-.12-.19-.63-.16-.03-.25.44-.31.85-.33-.37-.03-.74-.21-.89.06-.35-.1.04-.31-.38-.42-.3.08-.69.32-1.03.17l.01-.04c-.83-.26-1.27.39-2.03.13l.08-.08c-.27-.15-.8.05-1.28-.11.14.05.26.23-.03.27-.56-.16-.94 0-1.34-.2l-.39.25c-1.94-.05-9.6.31-11.54.35l.08-.04c-2.97.12-9.06.1-12.13.45-.48-.24-1.13-.19-1.62-.26.27.1.18.27-.03.27-1.51-.03-.1.17-1.63.27-1.76.23-8.48-.03-10.03-.24-.84.36-1.88.09-2.7.32l.08-.08c-.88.13-5.87-.2-6.89-.07l.14.05c-.89.22-.77-.17-1.48-.29.09.4-.67.63-.96.67l.01-.09c-.44.07-1.44.42-2.16.48l.03-.22c-.61.24-1.75.14-2.18.16-1-.09-2.53-.48-3.86-.19l-.86-.63-.13.06s-1.39 7.63.37 9.26l-.03.22.31-.04c.42.11.61-.15.58.07l-.57-.03c.42.06.13.18-.03.31.17.02.35.05.48.12.08-.08-.06-.09-.13-.14.23-.08.54-.29.81-.18.43.02.03.36.53.38 2.64.17 5.2.43 7.87.38.06.09-.01.09-.09.13.8-.1 1.52-.06 2.25-.16.2.1.26.23.32.33-.06-.09.95-.14 1.99-.16.52 0 1.04-.01 1.44-.01.4-.01.68 0 .69.01z"/></g><text transform="translate(.368 122.102)" fill="#808080" font-family="'DS3DisplaySans'" font-size="15">Portugal</text><g fill="#202020"><path d="M1.04 175.73c.17.24.48.26.76.31-.22-.24-.45-.34-.76-.31zM1.81 176.04v-.01H1.8zM57.29 165.24c-.07 0-.15.01-.23.02.07 0 .15 0 .23-.02zM15.66 176.73l.04-.4c.68-.01.2.46.82.36.25-.56 1.04.06 1.26-.24-.01.05.3.06.28.24.09-.31.31-.07.51-.15.07-.08-.05-.09-.1-.19l.44-.11c.17.1.22.28.03.31 1.16.11 6.73.4 7.98.25-.16-.23-.55-.08-.69-.44.33-.21.49.07.63-.14.13.54.73.13.98.68l.1-.31.16.19c1.45-.32.33-.16 1.62-.08.75-.05 1.1-.47 1.52-.32-.06 0-.23-.19-.03-.27.03.27.51-.19.61.08.19-.03.8 0 .6-.37.1.18.65.26.33.42.19.01.36.06.5-.02l-.24-.1c.62-.05.96.23 1.37-.1l-.23-.15c.37-.02.68-.05.83.31l-.38.11c.62-.01.99-.03 1.5-.23l-.18-.01c.66-.36 4.09-.67 4.69-1.12l-.28-.28.52-.24c-.06 0-.25.92-.3.83 1.11-.03 6.9-.25 7.93-.06.41.16.07.45.07.5.5-.11.22-.3.65-.28.12.05-.02.22-.09.26.19-.03.36.06.38-.07-.24-.1-.14-.46-.24-.68l.55.03-.02.22c.12.01.31-.61.85-.49.91.1 1.91.02 2.83.07-.01.13-.21.21-.4.29.12.01.31-.03.43.07-.22-.24.39-.16.21-.26.67-.54 1.55-.05 2.14-.42.05-.49 1.27-8.38 1.27-8.95.19.01.37.02.42.07-.05-.14-.41-.2-.6-.12l-.03.31c-.44.11-.1-.19-.54-.16-.02-.25.38-.31.73-.33-.32-.03-.63-.21-.76.06-.3-.11.03-.31-.33-.42-.25.07-.59.32-.88.17l.01-.04c-.71-.26-1.09.39-1.74.12l.07-.08c-.23-.15-.68.05-1.1-.11.12.05.22.23-.03.27-.48-.16-.8 0-1.15-.2l-.33.25c-1.66-.05-8.22.31-9.89.35l.06-.04c-2.54.12-7.76.1-10.38.45-.41-.24-.97-.19-1.39-.26.23.1.16.28-.03.27-1.29-.03-.09.17-1.39.27-1.5.23-7.26-.03-8.6-.24-.72.36-1.61.09-2.31.32l.07-.08c-.76.14-5.03-.2-5.9-.07l.12.05c-.77.22-.66-.17-1.26-.29.08.41-.58.64-.83.67l.01-.09c-.38.07-1.23.42-1.85.48l.02-.22c-.52.24-1.49.14-1.87.16-.85-.09-2.17-.48-3.31-.19l-.74-.63-.11.06s-1.19 7.63.32 9.26l-.02.22.3-.03c.36.11.52-.15.5.07l-.49-.03c.36.06.11.18-.03.31.15.02.3.05.42.12.07-.08-.05-.09-.11-.14.19-.08.46-.29.7-.18.37.02.02.36.45.38 2.26.17 4.46.43 6.74.38.05.09-.01.09-.08.13.69-.1 1.3-.06 1.93-.16.18.1.22.24.27.33-.14-.19 3.43-.21 3.49-.16z"/></g><text transform="translate(.368 160.602)" fill="#808080" font-family="'DS3DisplaySans'" font-size="15">UK</text><g fill="#202020"><path d="M1.01 214.23c.15.24.41.26.65.31-.19-.24-.39-.34-.65-.31zM1.66 214.54v-.01h-.01zM48.82 203.74c-.06 0-.13.01-.2.01.07.01.13.01.2-.01zM13.43 215.23l.04-.4c.58-.01.17.46.7.36.21-.56.89.06 1.07-.24 0 .04.26.06.24.24.08-.31.27-.07.43-.15.06-.08-.04-.09-.09-.18l.38-.11c.15.1.18.28.02.31.98.11 5.72.4 6.78.25-.14-.23-.46-.08-.59-.44.28-.21.41.07.54-.14.11.54.62.13.83.68l.08-.31.14.19c1.23-.32.28-.16 1.38-.08.63-.05.94-.47 1.29-.32-.05 0-.19-.19-.03-.27.03.27.44-.19.52.08.16-.03.68 0 .5-.37.09.18.55.26.28.42.16.01.31.06.42-.02l-.2-.1c.53-.05.82.23 1.16-.1l-.2-.15c.32-.02.58-.05.71.31l-.33.11c.52-.01.84-.03 1.28-.23l-.16-.01c.56-.36 3.47-.67 3.99-1.12l-.24-.28.44-.24c-.05 0-.21.92-.26.83.95-.03 5.87-.25 6.74-.05.35.16.06.45.06.5.43-.11.19-.3.55-.28.1.05-.02.22-.08.26.16-.03.31.07.32-.07-.2-.1-.12-.45-.2-.68l.47.03-.02.22c.1.01.27-.61.73-.49.78.1 1.62.02 2.4.07-.01.13-.18.21-.34.29.1.01.27-.03.36.07-.19-.23.33-.16.18-.26.57-.54 1.31-.05 1.82-.41.04-.49 1.08-8.38 1.08-8.96.16.01.31.02.36.07-.04-.14-.35-.2-.51-.12l-.03.31c-.38.11-.09-.19-.46-.16-.02-.25.32-.31.62-.33-.27-.03-.54-.21-.65.06-.25-.1.03-.31-.27-.42-.22.08-.5.32-.75.17v-.04c-.6-.26-.93.39-1.48.13l.06-.08c-.2-.15-.58.05-.93-.11.1.05.19.24-.02.27-.41-.16-.68 0-.98-.2l-.28.25c-1.41-.05-6.99.31-8.4.35l.05-.04c-2.16.12-6.59.11-8.83.45-.35-.25-.82-.19-1.18-.26.2.1.13.27-.02.27-1.1-.03-.07.17-1.19.27-1.28.23-6.17-.03-7.31-.24-.61.36-1.37.09-1.97.32l.06-.08c-.64.13-4.27-.2-5.02-.07l.1.05c-.65.23-.56-.17-1.07-.29.07.4-.49.63-.7.67l.01-.09c-.32.07-1.05.42-1.58.47l.02-.22c-.44.24-1.27.14-1.59.16-.73-.09-1.84-.48-2.81-.19l-.63-.63-.09.06s-1.01 7.63.27 9.26l-.02.22.25-.03c.3.11.44-.15.42.07l-.42-.03c.31.06.09.18-.02.31.13.02.25.05.35.12.06-.08-.04-.09-.09-.14.16-.08.39-.29.59-.18.31.02.02.36.38.38 1.92.17 3.79.43 5.73.38.04.09-.01.09-.06.13.59-.1 1.11-.06 1.64-.16.15.1.19.24.23.33-.05-.21 2.99-.23 3.03-.18z"/></g><text transform="translate(.368 199.102)" fill="#808080" font-family="'DS3DisplaySans'" font-size="15">Italy</text><g fill="#202020"><path d="M1.01 252.73c.15.24.41.26.66.31-.19-.24-.4-.34-.66-.31zM1.67 253.04v-.01h-.01zM49.32 242.24c-.06 0-.13.01-.2.01.06.01.13.01.2-.01zM13.56 253.73l.04-.4c.58-.01.17.46.71.36.21-.56.9.06 1.08-.24 0 .04.26.06.24.24.08-.31.27-.07.44-.15.06-.08-.04-.09-.09-.18l.38-.11c.15.1.19.28.02.31 1 .11 5.78.4 6.85.25-.14-.23-.47-.08-.6-.44.28-.21.42.07.54-.14.11.54.62.13.84.68l.08-.31.14.19c1.25-.32.28-.16 1.39-.08.64-.05.94-.47 1.3-.32-.05 0-.19-.19-.03-.27.03.27.44-.19.52.08.16-.03.69 0 .51-.37.09.18.56.26.28.42.16.01.31.06.43-.02l-.2-.1c.53-.05.83.23 1.17-.1l-.2-.15c.32-.02.59-.05.71.31l-.33.11c.53-.01.85-.03 1.29-.23l-.16-.01c.56-.36 3.51-.67 4.03-1.12l-.24-.28.45-.24c-.05 0-.22.92-.26.83.96-.03 5.93-.25 6.81-.05.36.16.06.45.06.5.43-.11.19-.3.56-.28.1.05-.02.22-.08.26.16-.03.31.07.32-.07-.2-.1-.12-.45-.2-.68l.47.03-.02.22c.1.01.27-.61.73-.49.78.1 1.64.02 2.43.07-.01.13-.18.21-.34.29.11.01.27-.03.36.07-.19-.23.33-.16.18-.26.58-.54 1.33-.05 1.84-.41.04-.49 1.09-8.38 1.09-8.96.16.01.32.02.36.07-.04-.14-.35-.2-.52-.12l-.03.31c-.38.11-.09-.19-.46-.16-.02-.25.32-.31.62-.33-.27-.03-.54-.21-.65.06-.25-.1.03-.31-.28-.42-.22.08-.51.32-.76.17v-.04c-.61-.26-.94.39-1.49.13l.06-.08c-.2-.15-.59.05-.94-.11.1.05.19.24-.02.27-.41-.16-.69 0-.99-.2l-.29.25c-1.43-.05-7.06.31-8.49.35l.06-.04c-2.18.12-6.66.11-8.92.45-.35-.25-.83-.19-1.19-.26.2.1.13.27-.02.27-1.11-.03-.08.17-1.2.27-1.29.23-6.23-.03-7.38-.24-.62.36-1.38.09-1.99.32l.06-.08c-.65.13-4.31-.2-5.07-.07l.1.05c-.66.23-.57-.17-1.08-.29.07.4-.49.63-.71.67l.01-.09c-.32.07-1.06.42-1.59.47l.02-.22c-.44.24-1.28.14-1.6.16-.73-.09-1.86-.48-2.84-.19l-.63-.63-.09.06s-1.02 7.63.27 9.26l-.02.22.26-.03c.31.11.45-.15.43.07l-.42-.03c.31.06.09.18-.02.31.13.02.25.05.35.12.06-.08-.04-.09-.09-.14.17-.08.4-.29.6-.18.31.02.02.36.39.38 1.94.17 3.83.43 5.79.38.04.09-.01.09-.06.13.59-.1 1.12-.06 1.66-.16.15.1.19.24.23.33-.08-.21 2.99-.23 3.03-.18z"/></g><text transform="translate(.368 237.602)" fill="#808080" font-family="'DS3DisplaySans'" font-size="15">Spain</text><g fill="#202020"><path d="M.89 291.23c.05.24.13.26.21.31-.06-.24-.12-.34-.21-.31zM1.1 291.54v-.01zM16.44 280.74c-.02 0-.04.01-.06.01.02.01.04.01.06-.01zM4.93 292.23l.01-.4c.19-.01.06.46.23.36.07-.56.29.06.35-.24 0 .04.08.06.08.24.02-.31.09-.07.14-.15.02-.08-.02-.09-.03-.18l.12-.11c.05.1.06.28.01.31.32.11 1.86.4 2.21.25-.04-.23-.15-.08-.19-.44.09-.21.14.07.17-.14.04.54.2.13.27.68l.03-.31.04.19c.4-.32.09-.16.45-.08.21-.05.3-.47.42-.32-.02 0-.06-.19-.01-.27.01.27.14-.19.17.08.05-.03.22 0 .17-.37.03.18.18.26.09.42.05.01.1.06.14-.02l-.06-.1c.17-.05.27.23.38-.1l-.06-.15c.1-.02.19-.05.23.31l-.1.11c.17-.01.27-.03.42-.23l-.05-.01c.18-.36 1.13-.67 1.3-1.12l-.08-.28.15-.24c-.02 0-.07.92-.08.83.31-.03 1.91-.25 2.19-.05.11.16.02.45.02.5.14-.11.06-.3.18-.28.03.05-.01.22-.02.26.05-.03.1.07.1-.07-.06-.1-.04-.45-.06-.68l.15.03-.01.22c.03.01.09-.61.24-.49.25.1.53.02.78.07 0 .13-.06.21-.11.29.03.01.09-.03.12.07-.06-.23.11-.16.06-.26.19-.54.43-.05.59-.41.02-.49.33-8.38.35-8.96.05.01.1.02.12.07-.01-.14-.11-.2-.17-.12l-.01.31c-.12.11-.03-.19-.15-.16-.01-.25.1-.31.2-.33-.09-.03-.17-.21-.21.06-.08-.1.01-.31-.09-.42-.07.07-.16.32-.24.17v-.04c-.2-.26-.3.39-.48.13l.02-.08c-.06-.15-.19.05-.3-.11.03.05.06.24-.01.27-.13-.16-.22 0-.32-.2l-.09.25c-.46-.05-2.27.31-2.73.35l.02-.04c-.7.12-2.15.11-2.87.45-.11-.25-.27-.19-.38-.26.06.1.04.27-.01.27-.36-.03-.02.17-.39.27-.42.23-2.01-.03-2.38-.24-.2.36-.44.09-.64.32l.02-.08c-.21.14-1.39-.2-1.63-.07l.03.05c-.21.22-.18-.17-.35-.29.02.41-.16.64-.23.67v-.09c-.1.07-.34.42-.51.47l.01-.22c-.14.24-.41.14-.52.16-.24-.09-.6-.48-.92-.19l-.2-.63-.03.06s-.33 7.63.09 9.26l-.01.22.08-.03c.1.11.15-.15.14.07l-.14-.03c.1.06.03.18-.01.31.04.02.08.05.12.12.02-.08-.02-.09-.03-.14.05-.08.13-.29.19-.18.1.02.01.36.12.38.63.17 1.23.43 1.86.38.02.09 0 .09-.02.13.19-.1.36-.06.53-.16.05.1.06.24.08.33-.06-.21.93-.23.94-.18z"/></g><text transform="translate(.368 276.102)" fill="#808080" font-family="'DS3DisplaySans'" font-size="15">France</text><g fill="#202020"><path d="M.88 329.73c.04.24.1.27.16.31-.05-.24-.1-.34-.16-.31zM1.04 330.04v-.01zM12.95 319.24l-.05.01c.02.01.04.01.05-.01zM4.02 330.73l.01-.4c.15-.01.04.46.18.36.05-.56.22.06.27-.24 0 .04.06.06.06.24.02-.31.07-.07.11-.15.02-.08-.01-.09-.02-.19l.09-.11c.04.1.05.28.01.31.25.11 1.44.4 1.71.25-.03-.23-.12-.07-.15-.44.07-.21.1.07.14-.14.03.54.16.13.21.68l.02-.31.04.19c.31-.32.07-.16.35-.08.16-.05.24-.47.32-.32-.01 0-.05-.19-.01-.27.01.27.11-.19.13.08.04-.04.17 0 .13-.37.02.18.14.26.07.42.04.01.08.06.11-.02l-.05-.1c.13-.05.21.23.29-.1l-.05-.15c.08-.02.15-.05.18.31l-.08.11c.13-.01.21-.03.32-.23l-.04-.01c.14-.37.88-.67 1.01-1.12l-.06-.28.11-.24s-.02.23-.03.45c-.01.22-.03.43-.03.38.24-.03 1.48-.25 1.7-.05.09.16.02.45.02.5.11-.11.05-.3.14-.28.02.05-.01.22-.02.26.04-.03.08.07.08-.07-.05-.1-.03-.46-.05-.68l.12.03v.22c.03.01.07-.61.18-.49.2.1.41.02.61.07 0 .13-.04.21-.09.29.03.01.07-.03.09.07-.05-.23.08-.16.05-.26.15-.54.33-.05.46-.41.01-.49.26-8.38.27-8.96.04.01.08.02.09.07-.01-.14-.09-.2-.13-.12l-.01.31c-.1.11-.02-.19-.12-.16 0-.25.08-.31.16-.33-.07-.03-.14-.21-.16.06-.06-.1.01-.31-.07-.42-.05.07-.13.32-.19.17v-.05c-.15-.26-.23.39-.37.13l.02-.09c-.05-.15-.15.05-.23-.11.02.05.05.24-.01.27-.1-.16-.17 0-.25-.2l-.07.25c-.36-.05-1.77.3-2.12.34l.01-.04c-.54.12-1.67.1-2.23.45-.09-.24-.21-.19-.3-.26.05.1.03.28-.01.27-.28-.03-.02.17-.3.27-.32.23-1.56-.03-1.85-.24-.15.36-.35.09-.5.32l.01-.09c-.16.14-1.08-.2-1.27-.07l.02.05c-.16.22-.14-.17-.27-.29.02.4-.12.63-.18.67v-.09c-.08.07-.26.42-.4.47v-.22c-.11.24-.32.14-.4.16-.18-.09-.47-.48-.71-.19l-.16-.63-.02.06s-.25 7.63.07 9.26l-.01.22.06-.03c.08.11.11-.15.11.07l-.11-.03c.08.06.02.18-.01.31.03.02.06.05.09.12.02-.08-.01-.09-.02-.14.04-.08.1-.29.15-.18.08.02 0 .36.1.38.49.17.96.43 1.45.38.01.09 0 .09-.02.13.15-.1.28-.06.41-.16.04.1.05.24.06.33 0-.16.76-.18.78-.13z"/></g><text transform="translate(.368 314.602)" fill="#808080" font-family="'DS3DisplaySans'" font-size="15">Japan</text><g fill="#202020"><path d="M.85 368.23c.02.24.05.27.08.31-.02-.24-.04-.34-.08-.31zM.94 368.54v-.01zM6.98 357.74l-.02.01c0 .01.01.01.02-.01zM2.44 369.23l.01-.4c.07-.01.02.46.09.36.03-.56.11.06.14-.24 0 .04.03.06.03.24.01-.31.03-.07.06-.15.01-.08-.01-.09-.01-.19l.05-.11c.02.1.02.28 0 .31.13.11.73.4.87.25-.02-.23-.06-.07-.07-.44.03-.21.05.07.07-.14.01.54.08.13.11.68l.01-.31.02.19c.16-.32.04-.16.18-.08.08-.05.12-.47.17-.32-.01 0-.02-.19 0-.27 0 .27.06-.19.07.08.02-.04.09 0 .06-.37.01.18.07.26.03.42.02.01.04.06.05-.02l-.02-.1c.07-.05.1.23.15-.1l-.02-.15c.04-.02.07-.05.09.31l-.08.12c.07-.01.11-.03.16-.23l-.02-.01c.07-.37.44-.67.51-1.12l-.03-.28.06-.24s-.03.92-.03.83c.12-.03.75-.25.86-.05.04.16.01.45.01.5.06-.11.02-.3.07-.28.01.05 0 .22-.01.26.02-.03.04.07.04-.07-.02-.1-.02-.46-.02-.68l.06.03v.22c.01.01.03-.61.09-.49.1.1.21.02.31.07 0 .13-.02.21-.04.29.01.01.03-.03.05.07-.02-.23.04-.16.02-.26.07-.54.17-.05.23-.41.01-.49.13-8.38.14-8.96.02.01.04.02.04.07 0-.14-.04-.2-.06-.12v.31c-.05.11-.01-.19-.06-.16 0-.25.04-.31.08-.33-.03-.03-.07-.21-.08.06-.03-.1 0-.31-.04-.42-.03.07-.06.32-.1.17v-.05c-.08-.26-.12.39-.19.13l.01-.09c-.02-.15-.07.05-.12-.11.01.05.02.24 0 .27-.05-.16-.09 0-.12-.2l-.04.25c-.18-.05-.9.3-1.08.34l.01-.04c-.28.12-.85.1-1.13.45-.04-.24-.1-.19-.15-.26.03.1.02.28 0 .27-.14-.03-.01.17-.15.27-.16.23-.79-.03-.94-.24-.08.36-.18.09-.25.32l.01-.09c-.08.14-.55-.2-.64-.07l.01.05c-.08.22-.07-.17-.14-.29.01.4-.06.63-.09.67v-.09c-.04.07-.13.42-.2.47v-.22c-.06.24-.16.14-.2.16-.09-.09-.23-.48-.36-.19l-.08-.63-.01.06s-.13 7.63.04 9.26v.22l.03-.03c.04.11.06-.15.06.07l-.05-.03c.04.06.01.18 0 .31.02.02.03.05.04.12.01-.08-.01-.09-.01-.14.02-.08.05-.29.08-.18.04.02 0 .36.05.38.25.17.48.43.73.38.01.09 0 .09-.01.13.07-.1.14-.06.21-.16.02.1.02.24.03.33-.04-.17.35-.19.35-.14z"/></g><text transform="translate(.368 353.102)" fill="#808080" font-family="'DS3DisplaySans'" font-size="15">Germany</text></svg>