<svg xmlns="http://www.w3.org/2000/svg" width="460" height="358" viewBox="0 0 460 358"><path stroke="#DADADA" fill="none" d="M103.83 226V16.2"/><g stroke="#DADADA" fill="none"><path d="M173.253 285V16.2M173.253 308v-23M173.253 331.2V308M34.453 331.2v-315"/></g><path stroke="#DADADA" fill="none" d="M242.675 331.2v-315M312.097 331.2v-315M381.597 331.2v-315"/><path fill="#fff" d="M375.797 121.2h16.9v52.5h-16.9z"/><path stroke="#DADADA" fill="none" d="M450.997 331.2v-315"/><g stroke="#DADADA" fill="none"><path d="M497.937 473.587M57.537 473.587"/></g><text transform="translate(395.412 310.359)" fill="#808080" font-family="'DS3DisplaySans'" font-size="15">Greece</text><text transform="translate(251.782 219.968)" fill="#808080" font-family="'DS3DisplaySans'" font-size="15">Portugal</text><text transform="translate(184.921 198.215)" fill="#808080" font-family="'DS3DisplaySans'" font-size="15">Spain</text><text transform="translate(185.714 144.002)" fill="#808080" font-family="'DS3DisplaySans'" font-size="15">UK</text><ellipse cx="122.5" cy="116.7" rx=".9" ry=".6"/><ellipse cx="428.6" cy="324" rx=".9" ry=".6"/><ellipse cx="246" cy="199.3" rx=".9" ry=".6"/><ellipse cx="229.4" cy="193.5" rx=".9" ry=".6"/><ellipse cx="215.6" cy="142.3" rx=".9" ry=".6"/><ellipse cx="150.7" cy="114.6" rx=".9" ry=".6"/><path stroke="#DADADA" stroke-miterlimit="10" fill="none" d="M0 121.2h460M0 16.2h460M0 68.7h460M0 226.2h460"/><g stroke="#DADADA" stroke-miterlimit="10" fill="none"><path d="M173 278.7h287M0 278.7h34.9"/></g><path stroke="#DADADA" stroke-miterlimit="10" fill="none" d="M460 331.2H0"/><path stroke="#DADADA" stroke-width="4" stroke-miterlimit="10" fill="none" d="M0 173.7h460"/><path fill="#F46980" d="M246 191.5c4.3 0 7.7 3.5 7.7 7.7 0 4.3-3.5 7.7-7.7 7.7-4.3 0-7.7-3.5-7.7-7.7s3.4-7.7 7.7-7.7zM229.4 185.8c4.3 0 7.7 3.5 7.7 7.7 0 4.3-3.5 7.7-7.7 7.7-4.3 0-7.7-3.5-7.7-7.7-.1-4.2 3.4-7.7 7.7-7.7zM215.6 134.6c4.3 0 7.7 3.5 7.7 7.7 0 4.3-3.5 7.8-7.7 7.8-4.3 0-7.7-3.5-7.7-7.8s3.4-7.7 7.7-7.7zM150.7 106.8c4.3 0 7.7 3.5 7.7 7.7 0 4.3-3.5 7.8-7.7 7.8s-7.7-3.5-7.7-7.8c0-4.2 3.5-7.7 7.7-7.7zM428.6 316.3c4.3 0 7.7 3.5 7.7 7.8s-3.5 7.7-7.7 7.7c-4.3 0-7.7-3.5-7.7-7.7s3.4-7.8 7.7-7.8z"/><text transform="translate(-.404 116.348)" fill="#808080" font-family="'DS3DisplaySans'" font-size="15">2</text><text transform="translate(-.404 11.348)" fill="#808080" font-family="'DS3DisplaySans'" font-size="15">6</text><text transform="translate(-.404 63.848)" fill="#808080" font-family="'DS3DisplaySans'" font-size="15">4</text><text transform="translate(-.404 221.348)" fill="#808080" font-family="'DS3DisplaySans'" font-size="15">-2</text><text transform="translate(-.404 273.848)" fill="#808080" font-family="'DS3DisplaySans'" font-size="15">-4</text><text transform="translate(-.404 326.348)" fill="#808080" font-family="'DS3DisplaySans'" font-size="15">-6</text><text transform="translate(-.404 168.848)" fill="#808080" font-family="'DS5DisplaySansSemibold'" font-size="15">0</text><text transform="translate(100.125 351.674)" fill="#808080" font-family="'DS3DisplaySans'" font-size="15">0</text><text transform="translate(30.931 351.674)" fill="#808080" font-family="'DS3DisplaySans'" font-size="15">-1</text><text transform="translate(171.939 351.674)" fill="#808080" font-family="'DS3DisplaySans'" font-size="15">1</text><text transform="translate(240.004 351.674)" fill="#808080" font-family="'DS3DisplaySans'" font-size="15">2</text><text transform="translate(309.494 351.674)" fill="#808080" font-family="'DS3DisplaySans'" font-size="15">3</text><text transform="translate(378.442 351.674)" fill="#808080" font-family="'DS3DisplaySans'" font-size="15">4</text><text transform="translate(448.218 351.674)" fill="#808080" font-family="'DS3DisplaySans'" font-size="15">5</text><ellipse fill="#808080" cx="141.8" cy="135.5" rx="2.8" ry="2.8"/><ellipse fill="#808080" cx="147.5" cy="146.1" rx="2.8" ry="2.8"/><ellipse fill="#808080" cx="181.8" cy="158" rx="2.8" ry="2.8"/><ellipse fill="#808080" cx="140.9" cy="157.1" rx="2.8" ry="2.8"/><ellipse fill="#808080" cx="104.9" cy="148.8" rx="2.8" ry="2.8"/><ellipse fill="#808080" cx="142.6" cy="147.2" rx="2.8" ry="2.8"/><ellipse fill="#808080" cx="101.8" cy="68.4" rx="2.8" ry="2.8"/><ellipse fill="#808080" cx="246.4" cy="155.1" rx="2.8" ry="2.8"/><ellipse fill="#808080" cx="239" cy="167.7" rx="2.8" ry="2.8"/><ellipse fill="#808080" cx="129.1" cy="62.6" rx="2.8" ry="2.8"/><ellipse fill="#808080" cx="163.5" cy="187.2" rx="2.8" ry="2.8"/><ellipse fill="#808080" cx="105.6" cy="126.6" rx="2.8" ry="2.8"/><ellipse fill="#808080" cx="108.9" cy="76.4" rx="2.8" ry="2.8"/><ellipse fill="#808080" cx="155.3" cy="86.2" rx="2.8" ry="2.8"/><ellipse fill="#808080" cx="103.7" cy="129.2" rx="2.8" ry="2.8"/><ellipse fill="#808080" cx="105.3" cy="119.1" rx="2.8" ry="2.8"/><ellipse fill="#808080" cx="177.6" cy="171" rx="2.8" ry="2.8"/><ellipse fill="#808080" cx="118.4" cy="115.4" rx="2.8" ry="2.8"/><ellipse fill="#808080" cx="127.5" cy="139.5" rx="2.8" ry="2.8"/><ellipse fill="#808080" cx="213.9" cy="107.1" rx="2.8" ry="2.8"/><ellipse fill="#808080" cx="173" cy="184.8" rx="2.8" ry="2.8"/><ellipse fill="#808080" cx="53.1" cy="95.3" rx="2.8" ry="2.8"/><ellipse fill="#808080" cx="93" cy="122.8" rx="2.8" ry="2.8"/><text transform="translate(141.787 103.564)" fill="#808080" font-family="'DS3DisplaySans'" font-size="15">US</text><path fill="#fff" d="M91.9 91.8h23v23h-23z"/><text transform="translate(77.254 103.566)" fill="#808080" font-family="'DS3DisplaySans'" font-size="15">Germany</text><path fill="#F46980" d="M122.4 108.4c4.3 0 7.7 3.5 7.7 7.7s-3.5 7.8-7.7 7.8c-4.3 0-7.7-3.5-7.7-7.8s3.5-7.7 7.7-7.7z"/><ellipse fill="#808080" cx="104.5" cy="110.6" rx="2.8" ry="2.8"/><path stroke="#000" stroke-width=".5" stroke-miterlimit="10" fill="none" d="M324.3 159.7V94.9"/><path d="M326.8 95.6l-2.5-4.3-2.5 4.3z"/><path stroke="#000" stroke-width=".5" stroke-miterlimit="10" fill="none" d="M45.5 240h64.8"/><path d="M109.6 242.5l4.3-2.5-4.3-2.5z"/><g fill="#808080" font-family="'DS5DisplaySansSemibold'" font-size="15"><text transform="translate(334.38 140.421)">Rate of</text><text transform="translate(334.38 159.421)">GDP growth</text></g><text transform="translate(44.283 259.854)" fill="#808080" font-family="'DS5DisplaySansSemibold'" font-size="15">Harsher austerity</text><text transform="translate(44.283 278.854)" fill="#808080" font-family="'DS3DisplaySans'" font-size="15">Change in cyclically</text><text transform="translate(44.283 297.854)" fill="#808080" font-family="'DS3DisplaySans'" font-size="15">adjusted primary</text><text transform="translate(44.283 316.854)" fill="#808080" font-family="'DS3DisplaySans'" font-size="15">balance</text></svg>