<svg xmlns="http://www.w3.org/2000/svg" width="460" height="336" viewBox="0 0 460 336"><text transform="translate(.895 13.99)" font-family="'DS3DisplaySans'" font-size="15">OECD</text><text transform="translate(39.399 13.99)" fill="#B3B3B4" font-family="'DS3DisplaySans'" font-size="15">| IMF |</text><text transform="translate(89.244 13.99)" fill="#E52D6A" font-family="'DS3DisplaySans'" font-size="15">OBR</text><g stroke="#DADADA" stroke-miterlimit="10" fill="none"><path d="M0 310h444.4M0 272.7h444.4M0 235.5h315M0 198.3h444.4M0 161h444.4M0 123.8h444.4M0 86.6h444.4M0 49.3h444.4M56.5 49.3V310M121.2 49.3V310M185.9 49.3V310M250.5 49.3V310M315.2 49.3V310M379.8 272.5V310M379.8 49.3v148.5M444.5 49.3V310"/></g><g fill="#BDBDBE"><path d="M61.3 301.3c.9-1.1 2.2-3.1 3.3-5.1-1.1 1.4-2.1 3-3.3 5.1zM64.6 296.2zM377.2 49.5c-.6.1-1.2.1-1.9.2.7-.1 1.3-.1 1.9-.2zM121 201.6l-.2-.5c2.7-4.7 1.2-1.1 3.6-5.5.4-2 4.5-7 5.1-8.6 0 .1 1.4-2 1.4-1.8.1-.8 1.3-2.1 2.1-3.5.2-.5-.3.3-.6.6l1.8-3c.8-1.1 1.2-1.3.4 0 5.1-7.7 29.6-44.5 34.9-52.9-.9.9-2.4 3.6-3.4 4.4 1.3-2.3 2.2-3.2 2.6-4.3 1-.5 3.3-4.8 4.8-6.1l.2-.8.9-1c6.1-9.8 1.3-2.3 7-10.8 3.2-5 4.4-7.6 6.3-10.2-.3.4-1.1 1.4-.4.1.1 0 .3-.2.5-.6.1-.1.1-.2.2-.3.1-.1 0-.1 0-.1v-.1c0-.1.1-.3.2-.2h1.5c.2 0 .2-.1-.2-.2.8.3 5.1.9 2.5.7 1.5.2 2.9.4 3.9.5l-1.9-.3c4.9.6 7.6 1.2 10.8 1.3l-1.8-.4c2.9.4 5.4.6 6.5 1.2l-3-.3c4.9.6 7.8 1 11.9 1.3l-1.4-.2c2.1.1 7.8.7 14.1 1.4 6.8.7 14.4 1.5 19.5 2.1l2.4-1.5.9-.6c.2-.1.4-.2.6-.4.7-.5 1.3-.8 1.7-1.1l-2.1.9 3.4-2.3c-.4.2-1.3 1.8-1.7 1.9 7.6-4.5 47.2-28.1 54.4-32.1 2.9-1.5.7.1.7.1 3.4-2.1 1.3-1.1 4.3-2.9.8-.4-.1.3-.5.6.2-.1.5-.3.7-.4.2-.1.3-.2.5-.3.1 0 .2-.1.2-.1s.1 0 .1-.1h-.1c-.2 0-.2-.1-.3-.2l-.1-.1c-.1 0-.1-.1-.3 0 .2-.1.3-.2.5-.3l2-.2-.2.2c1-.1 2.4-.8 6.7-1.1 7.3-.6 15.1-1.4 22.4-2-.1.1-1.6.4-3.2.6 1-.1 2.5-.2 3.4-.2-1.8-.1 3-.4 1.7-.4 5.3-1 12.3-1.2 16.9-2 .4-.5 9.3-9.3 9.3-9.8 1.5-.1 2.9-.2 3.4-.2-.4-.1-3.3.1-4.8.3l-.2.3c-3.5.4-.8-.1-4.3.2-.2-.2 3-.6 5.7-.9-2.5.2-5 .2-6 .6-2.4.1.2-.3-2.6-.2-2 .3-4.6.7-7 .8-5.7.2-8.6 1.2-13.8 1.4l.5-.1c-1.8 0-5.4.5-8.7.7.9 0 1.8.1-.2.3-3.8.2-6.4.6-9.1.6l-2.6.5c-2.1.2-5 .5-12.4 1.1-14.1 8.4-49.1 29.2-59.1 35.2l.4-.3c-1.6.9-3.3 2-5.6 3.3-18.2-2.3-46.6-5.8-65.5-8.2-4.6 7.1-5.3 8.2-6.9 10.7-2 2.6-4.4 6.3-6.3 9.1 1.1-1.5.9-.9.1.3-5.7 8.6-.2.7-5.8 9.4-6.4 10.1-31.7 48.4-37.7 57.2-2.8 5-7 10.8-9.8 15.6 0 0 .1-.1.1-.3.1-.1.1-.3.1-.3-3 5.2-20.5 34.4-23.9 40.5l.9-.3c-2.9 5.4-2.8 4.4-5.4 8.5.7-.3-1.8 4.3-2.8 6v-.1c-1.5 2.6-4.6 8.7-7.1 13l-.1-.3c-1.9 3.7-5.9 10.3-7.4 12.9-3.5 5.8-9.2 14.7-13.5 22.6l-3.5 4.7-.4.8s1.8 12 9.3 2.5l.1.3 1.2-2.1c1.5-2.4 2-3.7 2.1-3.4l-2 3.3c1.5-2.4.6-.7.1.4.6-1 1.2-2 1.8-2.8.2-.5-.3.3-.6.7.7-1.4 1.6-3.3 2.7-4.9 1.5-2.5.4 0 2.2-2.9 9.3-15.4 18.3-30.3 27.5-46 .3-.3 0 .1-.2.6 2.7-4.8 5.1-9 7.6-13.3.8-1.1 1.1-1.4 1.4-1.7-.3.3 3.2-5.7 6.7-11.7 1.8-3 3.6-6.1 5-8.5 1.3-2.3 2.3-3.9 2.3-4z"/></g><text transform="translate(0 301.69)" fill="#808080" font-family="'DS3DisplaySans'" font-size="15">-9</text><text transform="translate(0 264.143)" fill="#808080" font-family="'DS3DisplaySans'" font-size="15">-8</text><text transform="translate(0 227.047)" fill="#808080" font-family="'DS3DisplaySans'" font-size="15">-7</text><text transform="translate(0 189.725)" fill="#808080" font-family="'DS3DisplaySans'" font-size="15">-6</text><text transform="translate(0 152.404)" fill="#808080" font-family="'DS3DisplaySans'" font-size="15">-5</text><text transform="translate(0 115.309)" fill="#808080" font-family="'DS3DisplaySans'" font-size="15">-4</text><text transform="translate(0 77.988)" fill="#808080" font-family="'DS3DisplaySans'" font-size="15">-3</text><text transform="translate(0 40.666)" fill="#808080" font-family="'DS3DisplaySans'" font-size="15">-2</text><text transform="translate(38.596 332.526)" fill="#808080" font-family="'DS3DisplaySans'" font-size="15">2009</text><text transform="translate(105.35 332.526)" fill="#808080" font-family="'DS3DisplaySans'" font-size="15">2010</text><text transform="translate(172.234 332.526)" fill="#808080" font-family="'DS3DisplaySans'" font-size="15">2011</text><text transform="translate(235.87 332.526)" fill="#808080" font-family="'DS3DisplaySans'" font-size="15">2012</text><text transform="translate(300.43 332.526)" fill="#808080" font-family="'DS3DisplaySans'" font-size="15">2013</text><text transform="translate(364.449 332.526)" fill="#808080" font-family="'DS3DisplaySans'" font-size="15">2014</text><text transform="translate(429.755 332.526)" fill="#808080" font-family="'DS3DisplaySans'" font-size="15">2015</text><g fill="#202020"><path d="M60.9 233.2c1-.6 2.6-1.9 4.1-3.2-1.3.8-2.6 1.8-4.1 3.2zM65 230s-.1 0 0 0c-.1 0 0 0 0 0zM377.5 95c-.5.1-1 .2-1.5.4.5-.2 1-.3 1.5-.4zM135.2 168.1l-.1-.5c3.4-3.1 1.3-.6 4.4-3.5.8-1.5 5.2-4.7 6.1-5.9 0 .1 1.5-1.3 1.6-1.1.3-.7 1.5-1.5 2.4-2.4.3-.4-.3.2-.6.3l2.1-2.1c.9-.7 1.3-.8.3.1 2.7-2.5 10.3-9.3 18.2-16.4 3.9-3.6 8-7.2 11.5-10.4 1.8-1.6 3.4-3.1 4.9-4.4.2-.2.4-.3.5-.5l.2-.2c0-.1 0-.2-.1-.2 0 0-.1 0-.2-.2 0-.2.1-.2.1-.2.1.1.1.1.2 0v.4h.1l.2.1c.1.1.3.1.4.2 1.2.6 2.5 1.2 3.1 1.8h.7l.9.6c9 3.8 2.1.8 10 4.5 4.6 2.1 6.9 2.7 9.4 4-.4-.2-1.3-.8-.1-.3.1.3 3.2 1.3 3.7 1.8 1.2.5 4.9 2.3 3.8 1.3.6.5 3.9 2.1 1.8 1.3 1.1.5 2.2 1.1 3 1.4l-1.4-.8c3.8 1.7 5.8 2.9 8.4 3.8l-1.4-.8c2.3 1 4.2 1.9 5 2.6l-2.4-1c3.8 1.7 6.1 2.8 9.3 4l-1.1-.5c.7.2 1.7.7 3.1 1.3.7.3 1.4.6 2.3 1 1.4.6 3 1.3 4.6 2 1.6-.8 3.3-1.6 5-2.4 1-.5 2.1-1 3.1-1.5 2.1-1 4.2-2.1 6.2-3 3.9-1.9 7.1-3.6 8.3-4.3l-1.8.5 3.1-1.7c-.4.2-1.2 1.5-1.5 1.6 2.9-1.3 11-5.1 19.8-9.1 4.4-2 9-4.1 13.2-6.1 4.1-1.8 7.7-3.5 10.5-4.8 2.2-.4 3.8-.8 4.7-1 2.8-.4.6.3.6.4 3.3-.8 1.4-.6 4.2-1.2.8-.1-.1.3-.5.4 1.2-.3 2.4-.5 2.5-.6-1.6.2-1-.2-1.7-.3l3.7-.8-.1.3c.8-.2 1.9-1 5.5-1.7 6.1-1.2 12.6-2.7 18.7-4-.1.2-1.3.5-2.6.9.8-.2 2-.5 2.8-.5-1.5.1 2.5-.7 1.3-.6 4.3-1.5 10.2-2.3 14-3.5.2-.6 6.6-10 6.5-10.6 1.2-.3 2.4-.5 2.8-.5-.3-.1-2.8.4-4 .7l-.2.4c-2.9.7-.7 0-3.6.6-.2-.2 2.4-.8 4.7-1.4-2.1.4-4.2.7-5 1.2-2 .3.2-.4-2.2.1-1.7.4-3.8 1.2-5.8 1.4V98c-4.8.8-7.1 1.9-11.5 2.6l.4-.2c-1.5.2-4.5 1-7.3 1.5.8-.1 1.5-.1-.1.3-3.2.5-5.3 1.2-7.6 1.5l-2.2.7c-3.6.8-10.5 2.3-21.3 4.7-13.6 6.3-34.8 16.2-41.9 19.4l.4-.2c-5.4 2.5-13 6-21.3 9.8-6.4-2.9-13.3-6-19.6-8.9-7.1-3.2-13.6-6.1-18.6-8.3-2.4-1.4-5.9-2.9-8.4-4.2 1.4.8.8.7-.3.2-7.9-3.7-.6-.1-8.7-3.7-.8-.4-1.9-.8-3.1-1.4-2-.9-4.4-2-7-3.2-3.4 3.1-7.5 6.9-11.9 10.9-3.6 3.2-7.3 6.6-10.9 9.9-7.2 6.5-13.7 12.3-16.5 14.7-3.3 3.5-8 7.4-11.3 10.8l.3-.4c-1.8 1.8-8.1 7.5-14.5 13.2-6.4 5.7-12.9 11.4-15.1 13.5l.6-.5c-3.7 3.6-3.4 2.8-6.6 5.5.7-.1-2.5 3.1-3.7 4.2v-.1c-1.9 1.7-5.9 5.8-9 8.7v-.3c-2.5 2.5-7.4 6.8-9.3 8.5-4.4 3.8-11.2 9.4-16.8 14.7l-4.1 2.8-.5.5s-.9 11 7.8 5.5v.3l1.5-1.4c1.9-1.5 2.5-2.5 2.6-2.2l-2.5 2.2c1.9-1.6.7-.4.1.4.8-.7 1.5-1.3 2.2-1.8.3-.4-.3.2-.6.4.9-.9 2.1-2.3 3.4-3.3 1.9-1.6.4.2 2.5-1.8 11.5-10.1 22.8-19.7 34.3-30.1.3-.2 0 .1-.3.4 3.4-3.1 6.5-5.9 9.6-8.8.9-.7 1.3-.8 1.6-1-.3.2 4-3.8 8.5-7.8 2.2-2 4.4-4.1 6.1-5.6 2.2-1.4 3.4-2.5 3.5-2.5z"/></g><g fill="#E8487D"><path d="M412 66.5c-1.1-.5-3.2-1.1-5.2-1.6 1.5.6 3.1 1.1 5.2 1.6zM406.8 64.9zM94.2 221.9c.3-.4.6-.9 1-1.4-.4.5-.7 1-1 1.4zM311.4 69.3l-.1.5c-4.2 2.4-1.4.3-5.2 2.6-1.2 1.4-6.4 3.7-7.6 4.7 0-.1-1.9 1-1.9.8-.4.6-1.9 1.2-3 1.9-.4.3.4-.1.7-.2l-2.7 1.7c-1.1.5-1.5.5-.3-.2-1.7 1-5.2 2.9-9.5 5.4h-.1c-.1 0 .2 0-.5-.1-1-.2-1.9-.5-2.9-.7-2-.5-4-1-6.1-1.5-4.1-1-8.4-2-12.4-3-7.9-1.9-14.9-3.5-18-4.2 1.1.5 3.8 1 4.7 1.5-2.3-.3-3.3-.9-4.4-.9-.8-.7-5-1.3-6.6-2.2l-.7.1-1.1-.4c-10.1-2-2.3-.4-11.2-2.5-1.2-.3-2.3-.5-3.3-.7-1.3-.3-2.6-.5-3.7-.8-1.8 1.7-3.3 3-4.7 4.3-.8.7-1.5 1.4-2.3 2 .3-.3 1.3-.9.4.1-.4-.1-2.6 2.5-3.3 2.8-1 .9-4.3 3.7-2.9 3-.7.3-3.7 2.8-2 1.2-1 .8-2 1.6-2.6 2.3l1.3-1c-3.3 2.9-5.3 4.3-7.3 6.4l1.3-1c-2 1.8-3.6 3.2-4.6 3.6l2-1.9c-3.3 2.9-5.3 4.6-7.9 7.2l1-.8c-3.3 3.3-21.4 19.5-24.4 22.7l1.7-1.1-2.6 2.6c.3-.3.7-1.9 1.1-2-1.8 1.6-5.7 5-10.6 9.3-4.6 6.2-10.2 13.9-15.1 20.6-4.8 6.5-8.9 12-10.5 14.1-1.9 2.3-.7.2-.7.1-2 2.9-.7 1.4-2.5 3.9-.5.6-.1-.3.2-.7-.8 1.1-1.6 2-1.5 2.2 1.1-1.3.9-.5 1.5-.9l-2.4 3.1-.1-.2c-.5.7-.8 2.1-3.2 5.2-3.9 5.2-8.1 10.9-12 16.1 0-.2.7-1.3 1.5-2.5-.5.7-1.3 1.8-1.8 2.4 1.1-1.1-1.5 2.3-.7 1.4-2.4 4.2-6.5 8.8-8.7 12.5.2.6 1.4 12.2 1.8 12.6-.8 1-1.6 2.1-1.8 2.4.3-.2 1.9-2.2 2.6-3.4l-.1-.4c1.8-2.6.6-.5 2.4-3 .3 0-1.3 2.3-2.8 4.3 1.4-1.8 2.8-3.5 3.2-4.4 1.3-1.6.1.4 1.7-1.6 1-1.5 2.2-3.6 3.6-5.1v.1c3.2-3.9 4.3-6.4 7.2-10l-.2.4c1.1-1.2 2.8-3.9 4.7-6.2-.5.6-1.1 1.1-.1-.3 2.1-2.6 3.4-4.6 5-6.4l1.2-2.1c3-4 9.6-13 16.5-22.6 6.8-9.3 13.9-19.1 18.1-24.9 4.5-3.9 6.4-5.6 7.7-6.7l-.3.3c6.8-5.9 17.1-15 27.5-24.1 5.2-4.6 10.4-9.1 15.2-13.4 2.4-2.1 4.7-4.1 6.8-6 1.1-.9 2.1-1.8 3-2.7.5-.4 1-.9 1.4-1.3.2-.2.4-.4.6-.5l.1-.1c.1 0 .2-.1.3-.1.1.1.2.1.3.1l.2.1.9.2c1.3.3 2.6.6 3.7.9-1.6-.5-1-.5.3-.2 8.9 2.1.6 0 9.7 2 4 .8 12.1 2.7 21.3 4.9 9.7 2.3 20.5 4.9 28.7 6.9 2.8-1.6 5.4-3.1 7.5-4.3 1.7-1 3.1-1.7 4.1-2.3 4.2-2.9 9.8-5.8 14-8.5l-.4.3c4.6-2.8 30.9-17.8 36.2-21l-.7.4c1.8-1.1 2.8-1.7 3.6-2.1.3-.1.4-.1.6-.1.1.1.3.2.4.2v-.1l.1-.1h.3c.4 0 1 .1 1.6.2 1.3.2 2.9.6 3.7.8l-.1.1c2.6.6 8.6 1.8 12.8 2.8l-.2.2c3.6.7 10.3 2.5 12.9 3.1 5.8 1.6 14.8 4.3 22.7 6l4.9 1.9.8.1s10.1-5.3.1-9.5l.2-.2-2.1-.5c-2.4-.7-3.6-.8-3.4-1l3.4.9c-2.5-.7-.7-.4.3-.2-1-.3-2-.6-2.8-.8-.5 0 .3.2.7.3-1.3-.3-3.2-.5-4.8-1.1-2.5-.7-.1-.4-3-1.2-7.8-2.1-15.4-4.1-23-6.2-3.8-1-7.7-2-11.5-3.1-4.1-1.1-8.3-2.1-12.5-3.2-.7-.3.1-.1 1 .1-1.4-.3-2.8-.7-4-1-2.5 1.5-4.8 2.8-7.1 4.2-1.6 1-3.2 1.9-4.9 2.9-1.1.5-1.5.6-1.8.7.4-.1-4.9 3-10.3 6.2-2.7 1.6-5.5 3.2-7.5 4.4-2.3 1.3-3.8 2.2-3.9 2.2z"/></g><path stroke="#000" stroke-width=".5" stroke-miterlimit="10" fill="none" d="M327.8 211v46.1"/><path d="M325.3 256.3l2.5 4.4 2.5-4.4z"/><text transform="translate(334.911 221.536)" fill="#808080" font-family="'DS5DisplaySansSemibold'" font-size="15">Harsher</text><text transform="translate(334.911 240.536)" fill="#808080" font-family="'DS5DisplaySansSemibold'" font-size="15">austerity</text></svg>