<svg xmlns="http://www.w3.org/2000/svg" width="460" height="348.66" viewBox="0 0 460 348.66"><text transform="translate(.895 13.99)" font-family="'DS3DisplaySans'" font-size="15">OECD</text><text transform="translate(39.399 13.99)" fill="#B3B3B4" font-family="'DS3DisplaySans'" font-size="15">| IMF |</text><text transform="translate(89.244 13.99)" fill="#E52D6A" font-family="'DS3DisplaySans'" font-size="15">OBR</text><g stroke="#DADADA" stroke-miterlimit="10" fill="none"><path d="M0 309.98h444.41M0 272.75h444.41M0 235.51h444.41M0 198.27h444.41M0 161.03h444.41M0 123.79h444.41M0 86.56h444.41M0 49.32h444.41M56.54 49.32v260.66M121.2 49.32v260.66M185.86 49.32v260.66M250.52 49.32v260.66M315.18 49.32v260.66M379.85 49.32v260.66M444.5 49.32v260.66"/></g><g fill="#BDBDBE"><path d="M61.27 301.33c.91-1.08 2.15-3.14 3.34-5.08-1.09 1.4-2.12 2.95-3.34 5.08zM64.63 296.22c0-.01.01-.02.02-.03-.02.03-.03.04-.04.07.01-.02.01-.03.02-.04zM377.2 49.49c-.57.06-1.21.12-1.86.18.62-.04 1.26-.1 1.86-.18zM121.04 201.62l-.16-.51c2.73-4.65 1.19-1.11 3.63-5.47.42-2.03 4.46-6.98 5.15-8.58.02.06 1.37-1.98 1.43-1.76.15-.79 1.31-2.14 2.09-3.47.23-.51-.3.29-.61.59l1.84-3.01c.84-1.1 1.18-1.29.39-.02 5.14-7.66 29.63-44.54 34.94-52.94-.9.94-2.44 3.59-3.39 4.37 1.27-2.31 2.18-3.2 2.63-4.28 1.01-.55 3.27-4.76 4.82-6.12l.15-.8.87-.99c6.05-9.84 1.31-2.29 6.98-10.82 3.21-4.98 4.39-7.57 6.33-10.25-.27.41-1.14 1.4-.37.07.09-.02.27-.25.49-.59.06-.09.11-.18.17-.28.07-.11.03-.05.05-.09l.03-.1c.04-.14.1-.33.2-.23l.01-.01c.09 0 .27.02.42 0l.03-.01c.06 0 .12.01.18.01.13.01.25.02.37.02.23.01.41.02.53.01.24-.02.24-.09-.15-.23.8.29 5.1.92 2.51.75 1.45.2 2.86.43 3.92.49l-1.85-.34c4.92.58 7.56 1.21 10.81 1.3l-1.8-.38c2.94.36 5.4.65 6.51 1.16l-3.03-.28c4.88.62 7.82.98 11.91 1.31l-1.45-.2c2.1.12 7.76.72 14.09 1.4 6.83.73 14.38 1.53 19.52 2.07.85-.52 1.64-1.01 2.39-1.47.3-.19.59-.37.87-.55.2-.13.38-.25.56-.37.71-.47 1.27-.85 1.65-1.12l-2.05.88 3.44-2.3c-.42.24-1.25 1.8-1.65 1.93 7.62-4.52 47.24-28.08 54.39-32.06 2.93-1.54.74.09.73.14 3.41-2.13 1.34-1.14 4.3-2.85.83-.43-.06.29-.49.59.23-.14.46-.28.68-.41.16-.09.32-.18.47-.27.08-.04.15-.08.19-.12.04-.01.06-.03.06-.07-.03 0-.06-.01-.09-.02-.15.02-.24-.06-.33-.15-.04-.05-.08-.1-.12-.14-.06-.04-.06-.11-.27-.04.17-.1.35-.19.52-.3l1.98-.16-.17.24c.98-.08 2.42-.83 6.73-1.1 7.26-.56 15.13-1.35 22.43-1.96-.1.14-1.63.36-3.15.58.98-.08 2.47-.25 3.38-.24-1.78-.07 3.05-.43 1.66-.41 5.29-1.02 12.25-1.16 16.93-1.95.37-.52 9.34-9.25 9.29-9.83 1.46-.12 2.92-.24 3.37-.24-.39-.1-3.27.09-4.8.31l-.24.33c-3.51.43-.84-.11-4.27.22-.21-.24 2.95-.58 5.73-.85-2.51.2-5.02.24-6.02.61-2.36.11.23-.33-2.61-.19-2.01.26-4.65.75-6.98.81l.04-.05c-5.67.25-8.6 1.17-13.78 1.37l.55-.14c-1.84.02-5.41.54-8.71.68.94-.03 1.77.08-.2.28-3.8.18-6.36.58-9.14.63l-2.63.49c-2.08.19-5.05.46-12.41 1.12-14.09 8.39-49.13 29.24-59.1 35.17l.43-.3-5.58 3.33c-18.24-2.28-46.61-5.81-65.54-8.18-4.6 7.1-5.29 8.21-6.89 10.75-1.98 2.57-4.37 6.34-6.28 9.13 1.11-1.52.91-.88.1.34-5.66 8.6-.24.67-5.85 9.44-6.37 10.15-31.69 48.39-37.69 57.18-2.82 4.98-6.97 10.79-9.82 15.61 0 0 .05-.13.11-.26l.12-.26c-2.95 5.24-20.47 34.41-23.9 40.5l.52-.78c-2.9 5.37-2.81 4.45-5.35 8.52.67-.33-1.78 4.29-2.77 6.02l-.04-.11c-1.46 2.62-4.61 8.67-7.07 12.97l-.09-.28c-1.89 3.69-5.92 10.34-7.4 12.91-3.52 5.81-9.17 14.65-13.52 22.63l-3.52 4.74-.38.77s1.79 12.01 9.27 2.5l.09.28 1.18-2.06c1.53-2.4 1.98-3.66 2.07-3.38l-2 3.34c1.5-2.43.59-.65.15.35.62-1.02 1.23-2 1.77-2.79.21-.53-.29.31-.56.67.71-1.36 1.62-3.31 2.65-4.88 1.5-2.51.4.02 2.15-2.91 9.27-15.43 18.32-30.33 27.5-46.03.29-.31.04.12-.19.59 2.73-4.75 5.15-8.98 7.64-13.31.79-1.14 1.1-1.4 1.38-1.7-.29.31 3.16-5.66 6.71-11.74 1.78-3.04 3.58-6.11 4.96-8.45 1.31-2.28 2.26-3.87 2.32-3.96z"/></g><text transform="translate(0 301.689)" fill="#808080" font-family="'DS3DisplaySans'" font-size="15">-9</text><text transform="translate(0 264.142)" fill="#808080" font-family="'DS3DisplaySans'" font-size="15">-8</text><text transform="translate(0 227.046)" fill="#808080" font-family="'DS3DisplaySans'" font-size="15">-7</text><text transform="translate(0 189.724)" fill="#808080" font-family="'DS3DisplaySans'" font-size="15">-6</text><text transform="translate(0 152.404)" fill="#808080" font-family="'DS3DisplaySans'" font-size="15">-5</text><text transform="translate(0 115.308)" fill="#808080" font-family="'DS3DisplaySans'" font-size="15">-4</text><text transform="translate(0 77.988)" fill="#808080" font-family="'DS3DisplaySans'" font-size="15">-3</text><text transform="translate(0 40.666)" fill="#808080" font-family="'DS3DisplaySans'" font-size="15">-2</text><text transform="translate(38.596 332.526)" fill="#808080" font-family="'DS3DisplaySans'" font-size="15">2009</text><text transform="translate(105.35 332.526)" fill="#808080" font-family="'DS3DisplaySans'" font-size="15">2010</text><text transform="translate(172.234 332.526)" fill="#808080" font-family="'DS3DisplaySans'" font-size="15">2011</text><text transform="translate(235.87 332.526)" fill="#808080" font-family="'DS3DisplaySans'" font-size="15">2012</text><text transform="translate(300.43 332.526)" fill="#808080" font-family="'DS3DisplaySans'" font-size="15">2013</text><text transform="translate(364.449 332.526)" fill="#808080" font-family="'DS3DisplaySans'" font-size="15">2014</text><text transform="translate(429.755 332.526)" fill="#808080" font-family="'DS3DisplaySans'" font-size="15">2015</text><g fill="#202020"><path d="M60.88 233.24c1.04-.61 2.58-1.95 4.05-3.21-1.26.82-2.51 1.8-4.05 3.21zM64.96 230.01l.02-.02c-.02.02-.04.03-.05.04.01-.01.02-.01.03-.02zM377.49 94.99c-.47.11-1.01.23-1.55.35.52-.1 1.05-.22 1.55-.35zM135.16 168.08l-.05-.5c3.38-3.1 1.29-.56 4.35-3.5.84-1.54 5.23-4.71 6.12-5.92.01.06 1.55-1.33 1.57-1.11.26-.66 1.53-1.49 2.44-2.43.29-.38-.32.17-.64.34l2.14-2.1c.93-.72 1.27-.78.35.1 2.73-2.45 10.31-9.27 18.23-16.38 3.94-3.57 7.97-7.22 11.51-10.42 1.77-1.61 3.41-3.11 4.86-4.44.18-.17.36-.33.53-.49l.24-.22.01-.01.02-.03c.01 0 .02-.01.03-.01.01-.12-.02-.16-.06-.21-.04-.01-.08-.04-.21-.18.02-.15.1-.21.15-.23.07.05.11.1.18 0 .01.15.03.25.05.31.01.03.02.05.04.07v.01l.09.05.22.11c.15.07.29.14.44.22 1.19.59 2.48 1.22 3.13 1.82l.71-.01.93.63c9.05 3.81 2.1.8 9.97 4.5 4.59 2.06 6.94 2.68 9.42 3.99-.38-.18-1.31-.81-.09-.34.09.34 3.23 1.28 3.7 1.79 1.18.5 4.92 2.27 3.8 1.35.56.46 3.88 2.07 1.82 1.3 1.13.53 2.2 1.09 3.05 1.39l-1.41-.76c3.84 1.71 5.81 2.93 8.43 3.77l-1.35-.78c2.29 1.03 4.22 1.88 4.96 2.63l-2.39-.98c3.79 1.74 6.09 2.77 9.33 4.04l-1.12-.53c.66.24 1.75.68 3.12 1.25l2.26.95c1.45.64 2.99 1.32 4.61 2.03 1.61-.77 3.29-1.56 5.01-2.38 1.03-.5 2.08-1.02 3.13-1.53 2.1-1.03 4.22-2.07 6.17-3.02 3.9-1.92 7.14-3.55 8.34-4.27l-1.83.52 3.09-1.67c-.38.17-1.16 1.54-1.51 1.6 2.9-1.34 10.98-5.07 19.78-9.13 4.4-2.02 8.99-4.13 13.19-6.06 4.05-1.84 7.74-3.52 10.53-4.79 2.18-.45 3.77-.77 4.7-.96 2.77-.44.59.33.57.38 3.31-.83 1.38-.61 4.21-1.2.78-.12-.11.25-.54.39 1.23-.3 2.41-.46 2.47-.61-1.58.24-.99-.25-1.7-.33l3.65-.76-.11.25c.81-.17 1.93-1.04 5.54-1.7 6.06-1.22 12.6-2.72 18.69-3.99-.07.15-1.32.5-2.59.86.82-.17 2.05-.47 2.82-.54-1.52.09 2.52-.71 1.35-.56 4.33-1.5 10.19-2.26 14.04-3.48.24-.55 6.63-10.01 6.5-10.58 1.22-.26 2.44-.51 2.82-.54-.34-.06-2.75.39-4.01.75l-.15.35c-2.91.74-.73-.03-3.58.61-.21-.21 2.41-.84 4.73-1.37-2.09.42-4.21.7-5 1.15-1.98.32.15-.35-2.23.06-1.67.44-3.82 1.16-5.79 1.44l.02-.05c-4.76.77-7.11 1.94-11.46 2.62l.44-.18c-1.55.19-4.5 1.03-7.27 1.47.79-.12 1.51-.09-.13.3-3.18.53-5.29 1.15-7.64 1.46l-2.16.72c-3.58.79-10.52 2.31-21.31 4.69-13.63 6.33-34.82 16.16-41.88 19.44l.38-.22c-5.4 2.5-12.98 6-21.28 9.83-6.44-2.93-13.28-6.03-19.63-8.92-7.06-3.19-13.59-6.12-18.61-8.32-2.39-1.37-5.85-2.9-8.43-4.16 1.4.76.83.69-.29.16-7.91-3.67-.6-.09-8.66-3.69-.83-.37-1.88-.83-3.12-1.38-2.02-.92-4.37-1.99-7.01-3.19-3.41 3.12-7.52 6.88-11.88 10.86-3.56 3.23-7.33 6.64-10.91 9.88-7.18 6.48-13.68 12.3-16.47 14.73-3.33 3.54-7.98 7.41-11.32 10.78l.29-.39c-1.83 1.77-8.13 7.46-14.5 13.22-6.39 5.74-12.95 11.44-15.1 13.48l.63-.49c-3.7 3.61-3.44 2.84-6.56 5.46.67-.05-2.48 3.06-3.72 4.21l-.01-.11c-1.85 1.75-5.92 5.85-9.02 8.68l-.03-.27c-2.46 2.51-7.44 6.83-9.3 8.52-4.36 3.77-11.25 9.39-16.8 14.74l-4.13 2.84-.5.53s-.9 11.03 7.78 5.47l.03.27 1.48-1.36c1.88-1.53 2.54-2.46 2.56-2.19l-2.49 2.18c1.85-1.57.67-.35.06.36.77-.66 1.52-1.29 2.17-1.78.3-.38-.32.17-.64.38.92-.93 2.14-2.29 3.4-3.27 1.87-1.64.36.16 2.54-1.75 11.52-10.05 22.75-19.73 34.25-30.06.32-.17.01.11-.3.44 3.44-3.14 6.49-5.93 9.62-8.8.94-.71 1.28-.82 1.6-.99-.33.16 4.03-3.75 8.45-7.79 2.21-2.02 4.44-4.07 6.14-5.63 1.69-1.58 2.86-2.64 2.94-2.69z"/></g><g fill="#E8487D"><path d="M411.98 66.54c-1.14-.54-3.21-1.1-5.17-1.64 1.46.61 3.04 1.12 5.17 1.64zM406.78 64.88h-.03c.03.01.05.01.07.02-.02-.01-.03-.01-.04-.02zM94.18 221.93c.3-.41.64-.88.98-1.35-.34.44-.68.9-.98 1.35zM311.42 69.31l-.07.5c-4.16 2.42-1.44.31-5.24 2.63-1.22 1.36-6.42 3.67-7.6 4.7.01-.06-1.88 1.02-1.85.8-.42.6-1.9 1.19-3.05 1.95-.39.32.36-.1.73-.21l-2.67 1.68c-1.11.53-1.47.53-.33-.17-1.68.95-5.17 2.93-9.54 5.41l-.05-.02c-.07-.02.18.03-.5-.13l-2.92-.71c-1.99-.48-4.04-.97-6.11-1.47-4.15-.99-8.38-2.01-12.35-2.96-7.95-1.89-14.86-3.51-17.96-4.18 1.06.48 3.75.96 4.68 1.55-2.33-.33-3.34-.86-4.4-.88-.75-.73-4.98-1.3-6.59-2.24l-.72.15-1.09-.45c-10.1-2.04-2.33-.38-11.21-2.54l-3.3-.72c-1.34-.28-2.56-.54-3.7-.78l-4.7 4.33c-.75.71-1.47 1.35-2.26 1.97.33-.28 1.33-.91.35.05-.35-.05-2.62 2.54-3.31 2.77-.99.91-4.29 3.73-2.94 3.04-.68.35-3.65 2.83-2.02 1.2-.99.85-1.98 1.64-2.64 2.32l1.33-1.02c-3.3 2.94-5.3 4.3-7.25 6.44l1.33-.96c-1.98 1.75-3.62 3.22-4.65 3.63l1.97-1.86c-3.3 2.88-5.27 4.63-7.9 7.17l.99-.85c-3.27 3.33-21.43 19.52-24.36 22.68l1.68-1.08-2.62 2.6c.33-.28.74-1.86 1.07-2.03-1.77 1.56-5.7 5-10.62 9.31-4.57 6.22-10.21 13.9-15.1 20.56-4.81 6.53-8.91 12.04-10.5 14.09-1.88 2.27-.68.16-.69.1-2.04 2.94-.68 1.42-2.5 3.85-.54.64-.08-.27.17-.67-.77 1.09-1.58 2.03-1.53 2.19 1.07-1.28.94-.5 1.54-.94l-2.35 3.13-.07-.27c-.52.7-.83 2.14-3.21 5.17-3.94 5.16-8.06 10.88-11.98 16.1-.05-.16.7-1.31 1.46-2.46-.53.7-1.29 1.79-1.85 2.38 1.13-1.13-1.5 2.3-.69 1.36-2.4 4.17-6.48 8.85-8.69 12.46.17.59 1.37 12.24 1.83 12.59-.79 1.05-1.57 2.09-1.85 2.38.31-.19 1.89-2.22 2.64-3.37l-.11-.38c1.78-2.6.59-.48 2.4-2.97.3.02-1.33 2.33-2.8 4.34 1.36-1.79 2.83-3.47 3.15-4.37 1.34-1.63.11.38 1.71-1.6 1.01-1.5 2.23-3.56 3.58-5.14l.01.06c3.21-3.91 4.28-6.44 7.23-10l-.23.45c1.09-1.22 2.84-3.92 4.71-6.2-.54.65-1.12 1.12-.1-.32 2.14-2.63 3.38-4.58 5.01-6.45l1.21-2.06c2.98-4 9.6-13.05 16.55-22.56 6.81-9.35 13.95-19.14 18.15-24.9 4.49-3.94 6.36-5.58 7.66-6.71l-.32.33c6.78-5.94 17.12-15.01 27.53-24.13 5.19-4.57 10.4-9.15 15.19-13.35l6.78-6.01c1.06-.94 2.07-1.85 3.04-2.71.48-.43.96-.86 1.42-1.27l.6-.54.12-.12c.12-.03.23-.07.33-.12.11.05.22.1.32.13l.15.05.9.22c1.31.32 2.58.64 3.72.92-1.6-.48-1.01-.52.26-.21 8.91 2.12.64-.02 9.69 1.99 3.96.84 12.15 2.74 21.27 4.9 9.73 2.33 20.46 4.91 28.7 6.89 2.83-1.61 5.37-3.06 7.52-4.29 1.7-.95 3.09-1.73 4.08-2.29 4.21-2.87 9.84-5.83 14.03-8.53l-.39.33c4.56-2.81 30.91-17.76 36.22-21l-.75.38c1.75-1.12 2.77-1.71 3.57-2.12.27-.1.38-.07.57-.09.12.08.25.16.42.23 0-.05.01-.1.04-.14.02-.02.02-.04.06-.05h.26c.39.02.98.1 1.62.21 1.3.22 2.87.56 3.73.76l-.09.07c2.6.6 8.56 1.77 12.85 2.81l-.22.17c3.62.69 10.3 2.51 12.87 3.14 5.84 1.6 14.78 4.3 22.69 6.03l4.91 1.91.76.13s10.05-5.29.11-9.53l.22-.17-2.05-.5c-2.43-.74-3.63-.78-3.41-.95l3.36.89c-2.45-.7-.7-.37.27-.25-1.02-.29-2.02-.57-2.82-.85-.51-.04.33.18.71.33-1.35-.27-3.25-.54-4.84-1.05-2.52-.67-.07-.39-3.01-1.17-7.75-2.09-15.38-4.14-23.03-6.2-3.83-1.02-7.66-2.03-11.52-3.06-4.14-1.07-8.31-2.15-12.52-3.23-.69-.27.14-.06 1.04.13-1.39-.34-2.75-.68-3.97-.99-2.47 1.46-4.83 2.85-7.14 4.21-1.64.98-3.25 1.95-4.87 2.92-1.12.54-1.48.59-1.84.69.36-.1-4.92 3.03-10.35 6.21-2.71 1.58-5.46 3.19-7.55 4.41-2.08 1.2-3.52 2.03-3.61 2.07z"/></g></svg>