<svg xmlns="http://www.w3.org/2000/svg" width="460" height="376.3" viewBox="0 0 460 376.3"><g stroke="#DADADA" stroke-miterlimit="10" fill="none"><path d="M75.6 23.7v339.7M151.1 23.7v339.7M226.6 23.7v339.7M302 23.7v339.7M377.5 23.7v339.7"/></g><g stroke="#DADADA" stroke-miterlimit="10" fill="none"><path d="M37.8 23.7v339.7M113.3 23.7v339.7M188.8 23.7v339.7M264.3 23.7v339.7M339.7 23.7v339.7M415.2 23.7v339.7"/></g><text transform="translate(71.573 11.886)" fill="#808080" font-family="'DS5DisplaySansSemibold'" font-size="15">2</text><text transform="translate(146.61 11.886)" fill="#808080" font-family="'DS5DisplaySansSemibold'" font-size="15">4</text><text transform="translate(221.935 11.886)" fill="#808080" font-family="'DS5DisplaySansSemibold'" font-size="15">6</text><text transform="translate(297.329 11.886)" fill="#808080" font-family="'DS5DisplaySansSemibold'" font-size="15">8</text><text transform="translate(369.869 11.886)" fill="#808080" font-family="'DS5DisplaySansSemibold'" font-size="15">10</text><text transform="translate(28.144 11.886)" fill="#808080" font-family="'DS5DisplaySansSemibold'" font-size="15">1%</text><text transform="translate(109.24 11.886)" fill="#808080" font-family="'DS5DisplaySansSemibold'" font-size="15">3</text><text transform="translate(184.589 11.886)" fill="#808080" font-family="'DS5DisplaySansSemibold'" font-size="15">5</text><text transform="translate(259.974 11.886)" fill="#808080" font-family="'DS5DisplaySansSemibold'" font-size="15">7</text><text transform="translate(334.935 11.886)" fill="#808080" font-family="'DS5DisplaySansSemibold'" font-size="15">9</text><text transform="translate(409.815 11.886)" fill="#808080" font-family="'DS5DisplaySansSemibold'" font-size="15">11</text><g fill="#202020"><path d="M2.4 61.7c1.4.3 3.7.3 5.9.3-1.7-.2-3.5-.3-5.9-.3zM8.4 62s-.1 0 0 0c-.1 0 0 0 0 0zM437.4 51.2h-1.8c.6.1 1.2.1 1.8 0zM115.5 62.7l.3-.4c5.2 0 1.5.5 6.4.4 1.9-.6 8.1.1 9.7-.2 0 0 2.3.1 2.2.2.7-.3 2.4-.1 3.9-.1.5-.1-.4-.1-.8-.2l3.4-.1c1.3.1 1.7.3.2.3 9 .1 52 .4 61.7.3-1.2-.2-4.2-.1-5.4-.4 2.6-.2 3.8.1 4.9-.1 1 .5 5.6.1 7.5.7l.7-.3 1.3.2c11.2-.3 2.6-.2 12.5-.1 5.8 0 8.5-.5 11.7-.3-.5 0-1.7-.2-.3-.3.3.3 4-.2 4.7.1 1.5 0 6.2 0 4.6-.4.8.2 5 .3 2.5.4 1.4 0 2.8.1 3.8 0l-1.8-.1c4.8-.1 7.4.2 10.6-.1l-1.8-.1c2.9 0 5.3-.1 6.4.3l-3 .1c4.8 0 7.7 0 11.6-.2h-1.4c5.1-.4 31.6-.7 36.3-1.1l-2.2-.3 4-.2c-.5 0-1.9.9-2.3.8 8.6 0 53.4-.2 61.3-.1 3.2.2.6.4.5.5 3.9-.1 1.7-.3 5-.3.9.1-.2.2-.7.3 1.5 0 2.8.1 2.9-.1-1.8-.1-1-.5-1.8-.7h4.3l-.2.2c1 0 2.4-.6 6.6-.5 7.1.1 14.8 0 21.9.1-.1.1-1.6.2-3.1.3 1 0 2.4 0 3.3.1-1.7-.2 3-.2 1.6-.3 5.2-.5 12 0 16.6-.4.4-.5 9.8-8.4 9.8-9 1.4 0 2.8 0 3.3.1-.4-.1-3.2-.2-4.7-.1l-.3.3c-3.4.1-.8-.2-4.2-.2-.2-.3 2.9-.3 5.6-.3-2.4 0-4.9-.2-5.9.1-2.3-.1.3-.3-2.5-.4-2 .1-4.6.3-6.8.2-5.5-.3-8.4.4-13.5.1l.5-.1c-1.8-.1-5.3.1-8.5-.1.9.1 1.7.2-.2.3-3.7-.2-6.2 0-8.9-.2l-2.6.2c-12.8 0-63.6.3-76.5.3h.5c-19.7.1-60 .1-80.3.4-3.1-.2-7.5-.2-10.7-.3 1.8.1 1.2.3-.2.3-10 0-.7.2-10.8.3-11.6.2-56.1 0-66.4-.2-5.5.4-12.5.1-17.9.3l.5-.1c-5.8.1-38.9-.2-45.6-.1l.9.1c-5.9.2-5.1-.2-9.8-.3.6.4-4.5.6-6.4.7l.1-.1c-2.9.1-9.5.4-14.3.5l.2-.2c-3.5 0-11-.1-13.9-.1-6.6-.1-16.8-.5-25.6-.2l-5.7-.6H4s-9.2 7.6 2.5 9.3l-.2.2h2.3c2.8.1 4-.1 3.9.1H8.7c2.8.1.8.2-.2.3 1.2 0 2.3 0 3.2.1.5-.1-.4-.1-.8-.1 1.5-.1 3.6-.3 5.4-.2 2.8 0 .2.4 3.5.4 17.5.2 34.4.4 52.1.4.4.1-.1.1-.6.1 5.3-.1 10.1-.1 14.9-.2 1.3.1 1.7.2 2.1.3-.4-.1 6.3-.1 13.1-.2h14.1z"/></g><text transform="translate(.368 46.614)" fill="#808080" font-family="'DS3DisplaySans'" font-size="15">Greece</text><g fill="#202020"><path d="M1.1 98.7c.2.3.6.3 1 .3-.3-.2-.6-.3-1-.3zM2.1 99zM72.7 88.2h-.3c.1.1.2.1.3 0zM19.7 99.7l.1-.4c.9 0 .3.5 1.1.4.3-.6 1.3.1 1.6-.2 0 0 .4.1.4.2.1-.3.4-.1.6-.1.1-.1-.1-.1-.1-.2l.6-.1c.2.1.3.3 0 .3 1.5.1 8.6.4 10.2.2-.2-.2-.7-.1-.9-.4.4-.2.6.1.8-.1.2.5.9.1 1.2.7l.1-.3.2.2c1.9-.3.4-.2 2.1-.1.9 0 1.4-.5 1.9-.3-.1 0-.3-.2 0-.3 0 .3.7-.2.8.1.2 0 1 0 .8-.4.1.2.8.3.4.4.2 0 .5.1.6 0l-.3-.1c.8-.1 1.2.2 1.7-.1l-.3-.1c.5 0 .9-.1 1.1.3l-.5.1c.8 0 1.3 0 1.9-.2h-.2c.8-.4 5.2-.7 6-1.1l-.4-.3.7-.2c-.1 0-.3.9-.4.8 1.4 0 8.8-.2 10.1-.1.5.2.1.5.1.5.6-.1.3-.3.8-.3.1.1 0 .2-.1.3.2 0 .5.1.5-.1-.3-.1-.2-.5-.3-.7h.7v.2c.2 0 .4-.6 1.1-.5 1.2.1 2.4 0 3.6.1 0 .1-.3.2-.5.3.2 0 .4 0 .5.1-.3-.2.5-.2.3-.3.9-.5 2 0 2.7-.4.1-.5 1.6-8.4 1.6-9 .2 0 .5 0 .5.1-.1-.1-.5-.2-.8-.1v.3c-.6.1-.1-.2-.7-.2 0-.3.5-.3.9-.3-.4 0-.8-.2-1 .1-.4-.1 0-.3-.4-.4-.3.1-.8.3-1.1.2-.9-.3-1.4.4-2.2.1l.1-.1c-.3-.1-.9.1-1.4-.1.2.1.3.2 0 .3-.6-.2-1 0-1.5-.2l-.4.2c-2.1 0-10.5.3-12.6.3h.1c-3.2.1-9.9.1-13.2.4-.5-.2-1.2-.2-1.8-.3.3.1.2.3 0 .3-1.6 0-.1.2-1.8.3-1.9.2-9.2 0-10.9-.2-.9.4-2.1.1-2.9.3l.1-.1c-1 .1-6.4-.2-7.5-.1l.2.1c-1 .2-.8-.2-1.6-.3.1.4-.7.6-1.1.7v-.1c-.7-.1-1.8.3-2.6.3v-.2c-.6.3-1.9.2-2.4.2-1.1-.1-2.8-.5-4.2-.2l-.9-.6-.1.1s-1.5 7.6.4 9.3v.2h.4c.5.1.7-.1.6.1h-.6c.5.1.1.2 0 .3.2 0 .4 0 .5.1.1-.1-.1-.1-.1-.1.2-.1.6-.3.9-.2.5 0 0 .4.6.4 2.9.2 5.7.4 8.6.4.1.1 0 .1-.1.1.9-.1 1.7-.1 2.5-.2.2.1.3.2.3.3-.1-.1 1-.1 2.2-.2h1.6c.2-.1.5-.1.5-.1z"/></g><text transform="translate(.368 83.603)" fill="#808080" font-family="'DS3DisplaySans'" font-size="15">US</text><g fill="#202020"><path d="M1.1 137.2c.2.2.6.3.9.3-.3-.2-.6-.3-.9-.3zM2 137.5zM66.8 126.7h-.3c.1.1.2.1.3 0zM18.1 138.2l.1-.4c.8 0 .2.5 1 .4.3-.6 1.2.1 1.5-.2 0 0 .4.1.3.2.1-.3.4-.1.6-.1.1-.1-.1-.1-.1-.2l.5-.1c.2.1.3.3 0 .3 1.4.1 7.9.4 9.3.3-.2-.2-.6-.1-.8-.4.4-.2.6.1.7-.1.1.5.8.1 1.1.7l.1-.3.2.2c1.7-.3.4-.2 1.9-.1.9 0 1.3-.5 1.8-.3-.1 0-.3-.2 0-.3 0 .3.6-.2.7.1.2 0 .9 0 .7-.4.1.2.8.3.4.4.2 0 .4.1.6 0l-.3-.1c.7-.1 1.1.2 1.6-.1l-.3-.1c.4 0 .8-.1 1 .3l-.4.1c.7 0 1.2 0 1.8-.2h-.2c.8-.4 4.8-.7 5.5-1.1l-.3-.3.6-.2c-.1 0-.3.9-.4.8 1.3 0 8.1-.2 9.3-.1.5.2.1.5.1.5.6-.1.3-.3.8-.3.1.1 0 .2-.1.3.2 0 .4.1.4-.1-.3-.1-.2-.5-.3-.7h.6v.2c.1 0 .4-.6 1-.5 1.1.1 2.2 0 3.3.1 0 .1-.2.2-.5.3.1 0 .4 0 .5.1-.3-.2.5-.2.2-.3.8-.5 1.8 0 2.5-.4.1-.5 1.5-8.4 1.5-9 .2 0 .4 0 .5.1-.1-.1-.5-.2-.7-.1v.3c-.5.1-.1-.2-.6-.2 0-.3.4-.3.8-.3-.4 0-.7-.2-.9.1-.3-.1 0-.3-.4-.4-.3.1-.7.3-1 .2-.8-.3-1.3.4-2 .1l.1-.1c-.3-.1-.8.1-1.3-.1.1.1.3.2 0 .3-.6-.2-.9 0-1.3-.2l-.4.2c-1.9 0-9.6.3-11.5.3h.1c-3 .1-9.1.1-12.1.4-.5-.2-1.1-.2-1.6-.3.3.1.2.3 0 .3-1.5 0-.1.2-1.6.3-1.8.2-8.5 0-10-.2-.8.4-1.9.1-2.7.3l.1-.1c-.9.1-5.9-.2-6.9-.1l.1.1c-.9.2-.8-.2-1.5-.3.1.4-.7.6-1 .7v-.1c-.4.1-1.4.4-2.2.5v-.2c-.6.2-1.7.1-2.2.2-1-.1-2.5-.5-3.9-.2l-.9-.6-.1.1s-1.4 7.6.4 9.3v.2h.3c.4.1.6-.1.6.1h-.6c.4.1.1.2 0 .3.2 0 .3 0 .5.1.1-.1-.1-.1-.1-.1.2-.1.5-.3.8-.2.4 0 0 .4.5.4 2.6.2 5.2.4 7.9.4.1.1 0 .1-.1.1.8-.1 1.5-.1 2.3-.2.2.1.3.2.3.3-.1-.1 1-.1 2-.2h1.4c.2-.4.4-.4.4-.4z"/></g><text transform="translate(.368 122.103)" fill="#808080" font-family="'DS3DisplaySans'" font-size="15">Portugal</text><g fill="#202020"><path d="M1 175.7c.2.2.5.3.8.3-.2-.2-.5-.3-.8-.3zM1.8 176zM57.3 165.2h-.2c0 .1.1.1.2 0zM15.7 176.7v-.4c.7 0 .2.5.8.4.2-.6 1 .1 1.3-.2 0 0 .3.1.3.2.1-.3.3-.1.5-.1.1-.1-.1-.1-.1-.2l.4-.1c.2.1.2.3 0 .3 1.2.1 6.7.4 8 .3-.2-.2-.5-.1-.7-.4.3-.2.5.1.6-.1.1.5.7.1 1 .7l.1-.3.2.2c1.5-.3.3-.2 1.6-.1.7 0 1.1-.5 1.5-.3-.1 0-.2-.2 0-.3 0 .3.5-.2.6.1.2 0 .8 0 .6-.4.1.2.6.3.3.4.2 0 .4.1.5 0l-.2-.1c.6-.1 1 .2 1.4-.1l-.2-.1c.4 0 .7-.1.8.3l-.4.1c.6 0 1 0 1.5-.2h-.2c.7-.4 4.1-.7 4.7-1.1l-.3-.3.5-.2c-.1 0-.3.9-.3.8 1.1 0 6.9-.2 7.9-.1.4.2.1.5.1.5.5-.1.2-.3.6-.3.1.1 0 .2-.1.3.2 0 .4.1.4-.1-.2-.1-.1-.5-.2-.7h.6v.2c.1 0 .3-.6.9-.5.9.1 1.9 0 2.8.1 0 .1-.2.2-.4.3.1 0 .3 0 .4.1-.2-.2.4-.2.2-.3.7-.5 1.5 0 2.1-.4.1-.5 1.3-8.4 1.3-9 .2 0 .4 0 .4.1 0-.1-.4-.2-.6-.1v.3c-.4.1-.1-.2-.5-.2 0-.3.4-.3.7-.3-.3 0-.6-.2-.8.1-.3-.1 0-.3-.3-.4-.3.1-.6.3-.9.2-.7-.3-1.1.4-1.7.1l.1-.1c-.2-.1-.7.1-1.1-.1.1.1.2.2 0 .3-.5-.2-.8 0-1.1-.2l-.3.2c-1.7 0-8.2.3-9.9.3h.1c-2.5.1-7.8.1-10.4.4-.4-.2-1-.2-1.4-.3.2.1.2.3 0 .3-1.3 0-.1.2-1.4.3-1.5.2-7.3 0-8.6-.2-.7.4-1.6.1-2.3.3l.1-.1c-.8.1-5-.2-5.9-.1l.1.1c-.8.2-.7-.2-1.3-.3.1.4-.6.6-.8.7v-.1c-.4.1-1.2.4-1.9.5v-.2c-.5.2-1.5.1-1.9.2-.9-.1-2.2-.5-3.3-.2l-.7-.6-.1.1s-1.2 7.6.3 9.3v.2H2c.4.1.5-.1.5.1H2c.4.1.1.2 0 .3.1 0 .3 0 .4.1.1-.1-.1-.1-.1-.1.2-.1.5-.3.7-.2.4 0 0 .4.5.4 2.3.2 4.5.4 6.7.4.1.1 0 .1-.1.1.7-.1 1.3-.1 1.9-.2.2.1.2.2.3.3-.3-.6 3.3-.6 3.4-.6z"/></g><text transform="translate(.368 160.602)" fill="#808080" font-family="'DS3DisplaySans'" font-size="15">UK</text><g fill="#202020"><path d="M1 214.2c.1.2.4.3.6.3-.1-.2-.3-.3-.6-.3zM1.7 214.5zM48.8 203.7h-.2c.1.1.2.1.2 0zM13.4 215.2v-.4c.6 0 .2.5.7.4.2-.6.9.1 1.1-.2 0 0 .3.1.2.2.1-.3.3-.1.4-.1.1-.1 0-.1-.1-.2l.4-.1c.1.1.2.3 0 .3 1 .1 5.7.4 6.8.3-.1-.2-.5-.1-.6-.4.3-.2.4.1.5-.1.1.5.6.1.8.7l.1-.3.1.2c1.2-.3.3-.2 1.4-.1.6 0 .9-.5 1.3-.3-.1 0-.2-.2 0-.3 0 .3.4-.2.5.1.2 0 .7 0 .5-.4.1.2.6.3.3.4.2 0 .3.1.4 0l-.2-.1c.5-.1.8.2 1.2-.1l-.2-.1c.3 0 .6-.1.7.3l-.3.1c.5 0 .8 0 1.3-.2h-.2c.6-.4 3.5-.7 4-1.1l-.2-.3.4-.2c-.1 0-.2.9-.3.8.9 0 5.9-.2 6.7-.1.4.2.1.5.1.5.4-.1.2-.3.6-.3.1.1 0 .2-.1.3.2 0 .3.1.3-.1-.2-.1-.1-.5-.2-.7h.5v.2c.1 0 .3-.6.7-.5.8.1 1.6 0 2.4.1 0 .1-.2.2-.3.3.1 0 .3 0 .4.1-.2-.2.3-.2.2-.3.6-.5 1.3 0 1.8-.4 0-.5 1.1-8.4 1.1-9 .2 0 .3 0 .4.1 0-.1-.3-.2-.5-.1v.3c-.4.1-.1-.2-.5-.2 0-.3.3-.3.6-.3-.3 0-.5-.2-.6.1-.3-.1 0-.3-.3-.4-.2.1-.5.3-.8.2-.6-.3-.9.4-1.5.1l.1-.1c-.2-.1-.6.1-.9-.1.1.1.2.2 0 .3-.4-.2-.7 0-1-.2l-.3.2c-1.4 0-7 .3-8.4.3h.1c-2.2.1-6.6.1-8.8.4-.3-.2-.8-.2-1.2-.3.2.1.1.3 0 .3-1.1 0-.1.2-1.2.3-1.3.2-6.2 0-7.3-.2-.6.4-1.4.1-2 .3l.1-.1c-.6.1-4.3-.2-5-.1l.1.1c-.7.2-.6-.2-1.1-.3.1.4-.5.6-.7.7v-.1c-.3.1-1 .4-1.6.5v-.2c-.4.2-1.3.1-1.6.2-.7-.1-1.8-.5-2.8-.2l-.6-.6-.1.1s-1 7.6.3 9.3v.2h.3c.3.1.4-.1.4.1h-.4c.3.1.1.2 0 .3.1 0 .3 0 .4.1.1-.1 0-.1-.1-.1.2-.1.4-.3.6-.2.3 0 0 .4.4.4 1.9.2 3.8.4 5.7.4 0 .1 0 .1-.1.1.6-.1 1.1-.1 1.6-.2.1.1.2.2.2.3-.1-.6 2.9-.6 2.9-.6z"/></g><text transform="translate(.368 199.102)" fill="#808080" font-family="'DS3DisplaySans'" font-size="15">Italy</text><g fill="#202020"><path d="M1 252.7c.2.2.4.3.7.3-.2-.2-.4-.3-.7-.3zM1.7 253zM49.3 242.2h-.2c.1.1.2.1.2 0zM13.6 253.7v-.4c.6 0 .2.5.7.4.2-.6.9.1 1.1-.2 0 0 .3.1.2.2.1-.3.3-.1.4-.1.1-.1 0-.1-.1-.2l.4-.1c.1.1.2.3 0 .3 1 .1 5.8.4 6.9.3-.1-.2-.5-.1-.6-.4.3-.2.4.1.5-.1.1.5.6.1.8.7l.1-.3.1.2c1.2-.3.3-.2 1.4-.1.6 0 .9-.5 1.3-.3-.1 0-.2-.2 0-.3 0 .3.4-.2.5.1.2 0 .7 0 .5-.4.1.2.6.3.3.4.2 0 .3.1.4 0l-.2-.1c.5-.1.8.2 1.2-.1l-.2-.1c.3 0 .6-.1.7.3l-.3.1c.5 0 .8 0 1.3-.2h-.2c.6-.4 3.5-.7 4-1.1l-.2-.3.4-.2c-.1 0-.2.9-.3.8 1 0 5.9-.2 6.8-.1.4.2.1.5.1.5.4-.1.2-.3.6-.3.1.1 0 .2-.1.3.2 0 .3.1.3-.1-.2-.1-.1-.5-.2-.7h.5v.2c.1 0 .3-.6.7-.5.8.1 1.6 0 2.4.1 0 .1-.2.2-.3.3.1 0 .3 0 .4.1-.2-.2.3-.2.2-.3.6-.5 1.3 0 1.8-.4 0-.5 1.1-8.4 1.1-9 .2 0 .3 0 .4.1 0-.1-.4-.2-.5-.1v.3c-.4.1-.1-.2-.5-.2 0-.3.3-.3.6-.3-.3 0-.5-.2-.7.1-.3-.1 0-.3-.3-.4-.2.1-.5.3-.8.2-.6-.3-.9.4-1.5.1l.1-.1c-.2-.1-.6.1-.9-.1.1.1.2.2 0 .3-.4-.2-.7 0-1-.2l-.3.2c-1.4 0-7.1.3-8.5.3h.1c-2.2.1-6.7.1-8.9.4-.3-.2-.8-.2-1.2-.3.2.1.1.3 0 .3-1.1 0-.1.2-1.2.3-1.3.2-6.2 0-7.4-.2-.6.4-1.4.1-2 .3l.1-.1c-.6.1-4.3-.2-5.1-.1l.1.1c-.7.2-.6-.2-1.1-.3.1.4-.5.6-.7.7v-.1c-.3.1-1.1.4-1.6.5v-.2c-.4.2-1.3.1-1.6.2-.7-.1-1.9-.5-2.8-.2l-.6-.6-.1.1s-1 7.6.3 9.3v.2h.3c.3.1.4-.1.4.1h-.4c.3.1.1.2 0 .3.1 0 .3 0 .4.1.1-.1 0-.1-.1-.1.2-.1.4-.3.6-.2.3 0 0 .4.4.4 1.9.2 3.8.4 5.8.4 0 .1 0 .1-.1.1.6-.1 1.1-.1 1.7-.2.1.1.2.2.2.3-.1-.6 2.9-.6 3-.6z"/></g><text transform="translate(.368 237.602)" fill="#808080" font-family="'DS3DisplaySans'" font-size="15">Spain</text><g fill="#202020"><path d="M.9 291.2c0 .2.1.3.2.3-.1-.2-.1-.3-.2-.3zM1.1 291.5zM16.4 280.7c0 .1 0 .1 0 0zM4.9 292.2v-.4c.2 0 .1.5.2.4.1-.6.3.1.3-.2 0 0 .1.1.1.2 0-.3.1-.1.1-.1v-.2l.1-.1c0 .1.1.3 0 .3.3.1 1.9.4 2.2.3 0-.2-.2-.1-.2-.4.1-.2.1.1.2-.1 0 .5.2.1.3.7v-.3.2c.4-.3.1-.2.4-.1.2 0 .3-.5.4-.3 0 0-.1-.2 0-.3 0 .3.1-.2.2.1.1 0 .2 0 .2-.4 0 .2.2.3.1.4.1 0 .1.1.1 0l-.1-.1c.2-.1.3.2.4-.1l-.1-.1c.1 0 .2-.1.2.3l-.1.1c.2 0 .3 0 .4-.2h-.1c.2-.4 1.1-.7 1.3-1.1l-.1-.3.1-.2s-.1.9-.1.8c.3 0 1.9-.2 2.2-.1.1.2 0 .5 0 .5.1-.1.1-.3.2-.3v.3c.1 0 .1.1.1-.1-.1-.1 0-.5-.1-.7h.2v.2s.1-.6.2-.5c.3.1.5 0 .8.1 0 .1-.1.2-.1.3 0 0 .1 0 .1.1-.1-.2.1-.2.1-.3.2-.5.4 0 .6-.4 0-.5.3-8.4.4-9 .1 0 .1 0 .1.1 0-.1-.1-.2-.2-.1v.3c-.1.1 0-.2-.1-.2 0-.3.1-.3.2-.3-.1 0-.2-.2-.2.1-.1-.1 0-.3-.1-.4-.1.1-.2.3-.2.2-.2-.3-.3.4-.5.1v-.1c-.1-.1-.2.1-.3-.1 0 .1.1.2 0 .3-.1-.2-.2 0-.3-.2l-.1.2c-.5 0-2.3.3-2.7.3-.7.1-2.1.1-2.9.4-.1-.2-.3-.2-.4-.3.1.1 0 .3 0 .3-.4 0 0 .2-.4.3-.4.2-2 0-2.4-.2-.2.4-.4.1-.6.3v-.1c-.2.1-1.4-.2-1.6-.1v.1c-.2.2-.2-.2-.3-.3 0 .4-.2.6-.2.7v-.1c-.1.1-.3.4-.5.5v-.2c-.1.2-.4.1-.5.2-.2-.1-.6-.5-.9-.2v-.9.1s-.3 7.6.1 9.3v.2h.1c.1.1.1-.1.1.1h-.1c.1.1 0 .2 0 .3 0 0 .1 0 .1.1v-.1c.1-.1.1-.3.2-.2.1 0 0 .4.1.4.6.2 1.2.4 1.9.4v.1c.2-.1.4-.1.5-.2 0 .1.1.2.1.3-.2-.3.8-.3.8-.3z"/></g><text transform="translate(.368 276.103)" fill="#808080" font-family="'DS3DisplaySans'" font-size="15">France</text><g fill="#202020"><path d="M.9 329.7c0 .3.1.3.1.3 0-.2-.1-.3-.1-.3zM1 330zM13 319.2c-.1.1-.1.1 0 0zM4 330.7v-.4c.1 0 0 .5.2.4.1-.6.2.1.3-.2 0 0 .1.1.1.2 0-.3.1-.1.1-.1v-.2l.1-.1v.3c.2.1 1.4.4 1.7.3 0-.2-.1-.1-.1-.4.1-.2.1.1.1-.1 0 .5.2.1.2.7v-.3.2c.3-.3.1-.2.3-.1.2 0 .2-.5.3-.3v-.3c0 .3.1-.2.1.1 0 0 .2 0 .1-.4 0 .2.1.3.1.4 0 0 .1.1.1 0l-.1-.1c.1-.1.2.2.3-.1v-.1c.1 0 .1-.1.2.3l-.1.1c.1 0 .2 0 .3-.2.1-.4.9-.7 1-1.1l-.1-.3.1-.2v.8c.2 0 1.5-.2 1.7-.1.1.2 0 .4 0 .5.1-.1 0-.3.1-.3v.3s.1.1.1-.1c-.1-.1 0-.5-.1-.7h.1v.2s.1-.6.2-.5c.2.1.4 0 .6.1 0 .1 0 .2-.1.3 0 0 .1 0 .1.1 0-.2.1-.2 0-.3.1-.5.3 0 .5-.4 0-.5.3-8.4.3-9 0 0 .1 0 .1.1 0-.1-.1-.2-.1-.1v.3c-.1.1 0-.2-.1-.2 0-.3.1-.3.2-.3-.1 0-.1-.2-.2.1-.1-.1 0-.3-.1-.4-.1.1-.1.3-.2.2-.2-.3-.2.4-.4.1v-.1c0-.1-.1.1-.2-.1v.3c-.1-.2-.2 0-.2-.2l-.1.2c-.4 0-1.8.3-2.1.3-.5.1-1.7.1-2.2.4-.1-.2-.2-.2-.3-.3.1.1 0 .3 0 .3-.3 0 0 .2-.3.3-.3.2-1.6 0-1.8-.2-.2.4-.3.1-.5.3v-.1c-.2.1-1.1-.2-1.3-.1v.1c-.2.2-.1-.2-.3-.3 0 .4-.1.6-.2.7v-.1c-.1.1-.3.4-.4.5v-.2c-.1.2-.3.1-.4.2-.2-.1-.5-.5-.7-.2l-.2-.6v.1s-.3 7.6.1 9.3v.2H1c.1.1.1-.1.1.1H1c.1.1 0 .2 0 .3 0 0 .1 0 .1.1v-.1c0-.1.1-.3.1-.2.1 0 0 .4.1.4.5.2 1 .4 1.4.4v.1c.1-.1.3-.1.4-.2 0 .1 0 .2.1.3 0-.6.8-.6.8-.6z"/></g><text transform="translate(.368 314.603)" fill="#808080" font-family="'DS3DisplaySans'" font-size="15">Japan</text><g fill="#202020"><path d="M.9 368.2c0 .2.1.3.1.3-.1-.2-.1-.3-.1-.3zM.9 368.5zM7 357.7c0 .1 0 .1 0 0zM2.4 369.2v-.4c.1 0 .1.5 0 .4.1-.6.2 0 .2-.3v.2c0-.3 0-.1.1-.1V368.7v.3c.1.1.7.4.9.3 0-.2-.1-.1-.1-.4 0-.2.1.1.1-.1 0 .5.1.1.1.7v-.3.2c.2-.3 0-.2.2-.1.1 0 .1-.5.2-.3v-.3c0 .3.1-.2.1.1 0 0 .1 0 .1-.4 0 .2.1.3 0 .4 0 0 0 .1.1 0v-.1c.1-.1.1.2.1-.1v-.1s.1-.1.1.3v.1c.1 0 .1 0 .2-.2.1-.4.4-.7.5-1.1v-.3l.1-.2v.8c.1 0 .8-.2.9-.1v.5c.1-.1 0-.3.1-.3v.3V367.5h.1v.2s0-.6.1-.5c.1.1.2 0 .3.1v.4-.3c.1-.5.2 0 .2-.4 0-.5.1-8.4.1-9v.1c0-.1 0-.2-.1-.1v.3c0 .1 0-.2-.1-.2 0-.3 0-.3.1-.3 0 0-.1-.2-.1.1v-.4c0 .1-.1.3-.1.2-.1-.3-.1.4-.2.1v-.1c0-.1-.1.1-.1-.1v.3c-.1-.2-.1 0-.1-.2v.2c-.2 0-.9.3-1.1.3-.3.1-.8.1-1.1.4 0-.2-.1-.2-.2-.3v.3c-.1 0 0 .2-.2.3-.2.2-.8 0-.9-.2-.1.4-.2.1-.3.3v-.1c-.1.1-.5-.2-.6-.1v.1c-.1.2-.1-.2-.1-.3 0 .4-.1.6-.1.7v-.1c0 .1-.1.4-.2.5v-.2c-.1.2-.2.1-.2.2-.1-.1-.2-.5-.4-.2l-.1-.6v.1s-.1 7.6 0 9.3v.2c0 .1.1-.1.1.1H1v.4-.1c0-.1.1-.3.1-.2v.4c.2.2.5.4.7.4v.1l.2-.2v.3c.1-.5.4-.5.4-.5z"/></g><text transform="translate(.368 353.103)" fill="#808080" font-family="'DS3DisplaySans'" font-size="15">Germany</text></svg>