<svg xmlns="http://www.w3.org/2000/svg" width="29.14" height="34.33" viewBox="0 0 29.14 34.33"><path fill="#020303" d="M28.63 3.04c-.43-.54-.87-.98-1.32-1.34-.24-.18-.45-.36-.63-.54-.18-.18-.33-.37-.45-.58l-.54-.4c-.42-.06-.85-.1-1.3-.13S23.48 0 22.97 0c-1.16 0-2.36.07-3.58.22-1.22.15-2.43.3-3.63.45-.87.12-1.7.23-2.51.34s-1.6.19-2.37.25c-.15-.18-.36-.37-.63-.56S9.52.42 8.83.45l-.49.27c-.06.12-.12.22-.16.31-.04.09-.14.3-.29.63-.03.18-2.2 8.31-2.31 8.55s-.22.48-.34.72c-.18.39-.34.77-.49 1.14-.15.37-.22.75-.22 1.14-.06.03-.19.13-.4.31l-.49.49c-.21.78-.45 1.54-.72 2.28-.27.75-.55 1.48-.85 2.19-.54 1.34-1.03 2.72-1.48 4.14-.45 1.42-.64 3.17-.58 5.26.15.21.26.45.34.72.07.27.16.57.25.89.09.42.2.82.34 1.21.13.39.32.75.56 1.07 0 .12-.02.33-.04.63l.49.27c.18.12.42.22.72.31.06.06.13.1.22.11.09.01.16.05.22.11.15.21.31.35.49.43.18.07.4.17.67.29.03.06.15.19.36.4-.06-.15 1.67-5.77 1.7-5.93s.07-.35.13-.56l.09-.54s.04-.36.04-.54c.12-.18.21-.43.27-.76-.03-.09-.02-.22.04-.38.06-.17.12-.32.18-.47.15-.36.27-.73.36-1.12.12-.15.2-.28.25-.4.04-.12.17-.28.38-.49l.18-.67c.15-.42.32-.93.52-1.52.06-.19.16-.36.24-.54l5.33-.33c.91-.03 1.84-.07 2.79-.11s1.87-.14 2.75-.27 1.69-.32 2.43-.54c.74-.23 1.35-.52 1.84-.89 0-.3.01-.61.02-.93.01-.32-.01-.61-.07-.86s-.21-.48-.43-.66-.57-.3-1.02-.36c-.21-.76-.6-1.29-1.16-1.59s-1.2-.5-1.91-.59-1.42-.14-2.13-.14-1.34-.09-1.88-.27c-1.02.06-2.12.12-3.26.17.11-.27.22-.54.33-.8.27-.6.52-1.19.76-1.79s.51-1.28.81-2.06c.54-.06 1.13-.13 1.79-.2s1.34-.16 2.06-.25c.99-.15 2-.28 3.04-.4 1.04-.13 2.01-.19 2.9-.19h.63c.18 0 .43.01.76.04.18-.06.34-.11.49-.16.15-.04.28-.1.4-.16.21-.09.39-.16.54-.2.15-.04.37-.07.67-.07h.49l.45-.58c.18-.12.33-.24.45-.36l.22-.45c.12-1.03-.03-1.82-.47-2.36z"/></svg>