<svg xmlns="http://www.w3.org/2000/svg" width="31.24" height="34.38" viewBox="0 0 31.24 34.38"><path fill="#333" d="M5.06 11.95c-1.24-.5-2.27-1.21-3.09-2.13C1.16 8.9.5 7.82 0 6.57c.3-.8.77-1.47 1.42-2.02s1.38-1.01 2.2-1.4 1.68-.7 2.6-.93 1.8-.44 2.66-.62c.18.06.27.06.27 0s.07-.03.22.09c1.07-.33 2.29-.64 3.69-.95C14.45.43 15.93.32 17.5.41c.21-.12.46-.19.76-.2.3-.01.61-.02.93-.02s.64-.01.93-.02c.3-.01.55-.07.75-.16.18.21.44.33.8.38s.72.2 1.11.47c.12.03.12-.02 0-.16-.12-.13-.1-.23.04-.29.38 0 .73.09 1.02.27.3.18.57.38.82.6.25.22.49.42.71.6s.47.27.73.27c.27.33.58.63.96.91.37.28.72.57 1.07.87.34.3.62.62.84.98.22.36.33.76.33 1.2-.03.18.03.28.18.31.15.03.25.12.31.27.03 1.1-.14 2.04-.51 2.84-.37.8-.84 1.53-1.4 2.2-.56.67-1.16 1.3-1.8 1.89-.64.59-1.22 1.23-1.75 1.91.36.44.76.85 1.22 1.22s.92.73 1.4 1.09c.47.36.92.73 1.35 1.13.43.4.79.85 1.09 1.35.09.18.28.3.58.36.09.36.21.72.38 1.09.16.37.32.72.47 1.07.15.34.24.64.27.91.03.27-.04.49-.22.67.21.12.33.3.36.55s.03.45 0 .6c-.65.8-1.1 1.36-1.33 1.69-.24.33-.42.56-.53.71-.12.15-.24.28-.36.4s-.38.36-.8.71c-1.57.95-3.21 1.8-4.91 2.55-1.7.76-3.47 1.27-5.31 1.53-.15.21-.36.38-.64.51s-.6.24-.96.33c-.36.09-.73.16-1.13.22-.4.06-.76.12-1.09.18-.15-.06-.23-.15-.24-.29s-.1-.23-.24-.29c-.03.35-.19.54-.47.55-.28.01-.63-.05-1.04-.2-.41-.15-.84-.35-1.29-.62-.44-.27-.83-.52-1.15-.75-.15.27-.33.55-.56.84-.22.29-.45.5-.69.62-.41-.06-.72-.1-.91-.13s-.38.04-.56.22c-.24-.12-.41-.24-.53-.38-.12-.13-.24-.27-.36-.4s-.25-.25-.4-.35c-.15-.1-.37-.2-.67-.29.06-.15.01-.38-.13-.69-.15-.31-.35-.5-.62-.56.15-.24.09-.54-.18-.91s-.47-.79-.62-1.27c.03-.21.05-.42.07-.64.01-.22.04-.43.09-.62s.11-.36.2-.51c.09-.15.24-.25.44-.31-.03-.38-.15-.75-.36-1.11.27-.21.44-.47.53-.78.09-.31.17-.63.24-.96s.17-.64.29-.96c.12-.31.31-.57.58-.78-.06-.09-.12-.16-.18-.22s-.09-.16-.09-.31c.44-.74.75-1.37.93-1.89.18-.52.32-1.02.42-1.51.1-.49.21-1.01.33-1.58.12-.56.36-1.27.71-2.13-.03-.53.03-1.01.18-1.42.15-.41.3-.82.47-1.22.16-.4.29-.82.38-1.27.09-.44.07-.96-.04-1.55-.5.06-.87.24-1.09.53-.22.3-.36.7-.42 1.2-.27.24-.61.35-1.02.33-.41-.01-.78.04-1.11.16zM21.5 6.62c-1.84-.06-3.64.1-5.42.49-1.78.39-3.27.95-4.49 1.69.59.5 1.21.95 1.84 1.33.64.39 1.12.9 1.44 1.55 1.42-.56 2.66-1.28 3.73-2.15 1.07-.88 2.04-1.85 2.9-2.91zm3.11 13.9c-1.13-.62-2.15-.99-3.09-1.11-.93-.12-1.82-.11-2.66.02s-1.65.32-2.42.56c-.77.24-1.54.41-2.31.53-.39 1.01-.78 2.12-1.2 3.33s-.81 2.4-1.2 3.55c1.07-.15 2.04-.37 2.93-.67.89-.3 1.75-.63 2.58-1 .83-.37 1.64-.74 2.44-1.11s1.63-.72 2.49-1.04c.09-.35.28-.64.58-.84.3-.21.59-.41.89-.6.3-.19.55-.41.76-.64.19-.24.26-.57.21-.98z"/></svg>