<svg xmlns="http://www.w3.org/2000/svg" width="21.57" height="35.71" viewBox="0 0 21.57 35.71"><path fill="#020303" d="M21.55 6.59c-.12.42-.37.84-.75 1.27-.48.5-.98.74-1.49.72-.19 0-.42-.08-.7-.24-.28-.16-.49-.25-.65-.28-.48-.07-1.67.15-3.58.66-2.08.54-3.61 1.09-4.58 1.65l-1.06 7.28c.14-.03.82-.31 2.03-.84.81-.34 1.44-.49 1.89-.46.48.04 1.26.91 2.34 2.61 1.08 1.7 1.55 2.8 1.43 3.29-.12.47-.46.91-1 1.32-.43.32-.83.5-1.22.55-.17.03-.38-.04-.62-.19-.25-.16-.42-.25-.53-.26-.08-.01-.16 0-.25.04-.81.21-1.53.4-2.15.58-1.55.45-2.57.86-3.06 1.22l-.84 5.8c-.03.24.06.54.29.91.23.37.32.74.26 1.11-.27 1.48-1.1 2.26-2.49 2.36-1.38-.9-2.53-1.84-3.45-2.81C.36 31.79-.09 30.9.01 30.21L3.83 3.94c.06-.42-.03-.88-.27-1.36-.24-.48-.32-.82-.24-1.03.14-.41.45-.78.93-1.1.48-.32.99-.47 1.53-.45.24.01.91.5 2.02 1.45 1.11.96 1.85 1.51 2.24 1.64l4.63-1.15c.38-.22 1.02-.44 1.92-.66.67.02 1.7.77 3.08 2.25s2.01 2.51 1.88 3.06z"/></svg>