<svg xmlns="http://www.w3.org/2000/svg" width="339.79" height="527.08" viewBox="0 0 339.79 527.08"><g fill-rule="evenodd" clip-rule="evenodd"><path fill="#030202" d="M52.27 527.08c.37-3.82.71-7.63 1.11-11.45.45-4.29.74-8.6.79-12.92.14-10.94.85-21.85 1.35-32.77.39-8.54 1.3-17.05 1.89-25.58.29-4.14.42-8.3.54-12.45.2-6.71.64-13.42 1.39-20.08.21-1.9-.79-3.36-.98-5.08-.05-.43-.54-.41-.98-.3-3.26.79-6.59 1.24-9.93 1.29-6.58.1-12.88-.89-18.07-5.5-1.23-1.09-2.85-1.53-4.33-2.21-1.95-.89-3.77-2.2-5.83-3.01-.51-.2-.87-.97-.77-1.66.18-1.22-.51-2.13-.97-3.14-3.11-6.85-7.05-13.31-9.51-20.47-1.37-4-2.61-8.06-3.42-12.18-1.33-6.75-2.79-13.49-3.47-20.35-.2-2.06-.35-4.13-.21-6.21.14-2-.36-3.95-.51-5.93-.86-11.44-.15-22.79 1.67-34.09 1.04-6.46 2.29-12.87 4.29-19.1 2.24-6.99 5.12-13.73 8.33-20.34 3.05-6.27 6.62-12.24 10.76-17.79 3.85-5.16 7.61-10.5 12.48-14.81 10.13-8.98 21.47-15.75 34.88-18.59 2.19-.47 4.41-.74 6.65-.85.9-.04 1.19-.51.72-1.23-.91-1.41-.6-2.91-.52-4.42.06-1.18.4-2.17 1.47-2.84.75-.47 1.28-1.19 1.8-2.07-.34-.7-1.06-1.06-1.66-1.54-7.94-6.37-14.58-13.84-19.56-22.75-1.01-1.82-1.97-3.69-2.48-5.69-.41-1.57-.88-3.33.84-4.59.89-.3 1.27-1.18 1.92-1.74 1.7-1.45 2.26-1.34 3.66.41 1.03 1.29 1.22 2.95 2.08 4.27 1.75 2.67 3.6 5.27 5.5 7.84 3.35 4.53 7.69 8.08 11.96 11.67 1.64 1.39 3.27 2.83 5.07 3.99 4.84 3.1 9.84 5.91 15.12 8.19 4.75 2.05 9.36 4.44 14.35 5.89 4.75 1.37 9.58 2.41 14.45 3.27 2.98.52 5.93.94 9.01.75 3.19-.19 6.35-.68 9.54-.72 4.56-.06 8.97-.75 13.14-2.72 1.59-.75 3.21-1.42 4.8-2.15 6.93-3.19 13.27-7.35 19.11-12.22 4.17-3.48 8.09-7.26 12.04-11 8.44-8.01 12.91-18.11 15.56-29.16 1.12-4.67 1.33-9.48 1.6-14.27.21-3.72-.27-7.36-1.32-10.87-.58-1.92-.99-3.84-1.26-5.81-.42-3-.6-6.04-1.42-8.98-1.92-6.81-4.35-13.49-5.58-20.49-.55-3.13-1.8-6.04-2.86-9.01 3.71-1.17 4.7-.81 6.65 2.5 2.52 4.28 4.58 8.74 5.89 13.56.58 2.15 1.21 4.29 2.07 6.37.63 1.53 1.01 3.17 1.1 4.88.08 1.55.22 3.13.8 4.66 1.4-.91 1.41-.9 1.62-1.63.22-.77.31-1.56.32-2.36.11-8.09-.69-16.11-1.99-24.07-.55-3.38-1.31-6.74-2.98-9.81-.85-1.56-2.02-2.63-3.82-2.97-4.6-.87-8.23.95-11.41 4.05-1.96-.15-3.46-.99-4.68-2.61-.66-.87-.28-1.39.02-2.08 1.53-1.15 2.99-2.42 4.61-3.43 4.58-2.85 9.48-4.49 15-3.8 3.51.44 6.04 2.33 8.03 5.1 2.58 3.58 3.73 7.71 4.46 11.99.7 4.1.83 8.24 1.17 12.37.41 4.94-.01 9.86.32 14.78 0 .08.03.16.02.24-1.16 5.82 1.1 11.35 1.51 17.04.29 4.05.65 8.1.88 12.15.15 2.69.34 5.38.23 8.09-.16 3.79-1.13 7.36-2.85 10.71-.88 1.72-2.98 2.51-4.92 2.13-3.73-.73-3.75-.74-4.8 2.83-2.94 10.02-8.09 18.69-15.74 25.85-.53.49-1.03 1.01-1.53 1.52-1.5 1.53-1.6 1.68-.56 3.48.92 1.6 1.7 3.24 2.28 4.98.27.83.6 1.25 1.53.76 1.44-.76 2.78-.56 4.32.08 2.66 1.1 5.58 1.29 8.4 1.83 6.96 1.34 13.36 4.23 19.78 7.09 5.04 2.24 9.8 4.99 14.33 8.12 4.04 2.8 7.58 6.09 9.81 10.61.88 1.79 2.34 3.22 3.27 5.01 1.93 3.69 3.32 7.6 4.44 11.59 1.65 5.89 3.23 11.81 4.72 17.74.52 2.08.71 4.25 1.02 6.38.1.68.13 1.26-.35 1.96-.52.75-.24 1.84-.08 2.79.78.33 1.42-.04 2.08-.26 7.04-2.36 14.18-4.37 21.33-6.34 9.48-2.62 19.12-4.41 28.93-5.24 2.09-.18 3.47.9 4.79 2.24 2.33 2.36 1.93 4.12-.42 5.86-1.92 1.42-3.94 2.7-5.98 3.95-3.94 2.41-7.9 4.78-11.89 7.1-3.03 1.76-6.07 3.5-9.19 5.1-4 2.05-7.51 4.77-11.04 7.5-1.82 1.4-3.78 2.64-5.74 3.85-2.17 1.34-2.28 1.75-1.62 4.25 1.07 4.01 1.42 8.15 2.04 12.24.44 2.85.55 5.72.85 8.57.1.92.38 1.16 1.29 1.24 4.21.37 8.41.79 12.61 1.29 7.04.83 14.07 1.72 21.1 2.64 1.19.16 2.37.32 3.57.34 2.97.05 5.25 1.19 6.39 4.11.06.15.16.28.24.41 2.46 4.04.31 5.96-2.85 7.28-8.08 3.37-16.34 6.3-24.95 8.02-4.74.95-9.56 1.48-14.42 1.21-1.15-.07-2.28-.55-3.62-.17-.14 3.59-.88 7.16-1.31 10.78-.36 3.04-.72 6.09-1.09 9.13-.34 2.71-.71 5.42-.96 8.15-.42 4.62-1.16 9.23-2.17 13.76-1.13 5.02-2.66 9.94-4.29 14.82-.21.63-.21 1.25-.29 1.88-.34 2.59-.99 4.97-3.96 5.76-.07.02-.13.09-.2.13-.43.25-.65.16-.78-.39-.75.1-.7.81-.84 1.25-2.3 7.26-4.64 14.51-8.02 21.36-.32.64-.06 1.08.22 1.54.61.99.24 1.8-.12 2.82-1.92 5.54-4.62 10.76-6.34 16.4-1.79 5.87-5.51 9.99-11.83 11.22-.75.14-1.17.28-1.11 1.32.06 1.12-.5 2.26-.71 3.4-.31 1.71-.28 1.71 1.67 1.91-.15 1.87-.58 3.69-.99 5.51l-.09.03c.02.05.03.13.07.15.29.13-.16.14.08-.07-.01 1.13-.02 2.25-.04 3.38-.04.01-.08.03-.12.04.04.09.08.19.12.28-.14.59-.24 1.18-.05 1.78l-.08.01h.07c.2.58.14 1.15-.08 1.7-.13.06-.15.16-.05.3-.1.67-.19 1.34-.29 2-.03.01-.07.01-.1.02.02.05.03.13.06.15.28.16-.17.13.08-.06l-.15 2.02c-.17.19-.14.39.01.58-.08.54-.04 1.1-.35 1.59-.73-1.23.25-2.77-.85-4.33-.69 2.45-.24 4.61-.38 6.72-.03 1.51-.07 3.02-.1 4.53 0 .08-.05.18-.01.24 1.41 2.15-.05 4.37.13 6.57.2 2.38.01 4.79.05 7.18.03 1.58.1 3.15.31 4.74.27 1.96-.28 3.97-.78 6.28-.7-1.2-.76-2.08-.52-3.01.14-.55.01-.92-.63-1.01-.83-.12-.91.38-.9 1 .06 3.99.14 7.99.17 11.98.01.79.18 1.6-.13 2.37h-84.96c.24-.7.09-1.42.06-2.13-.11-3.58-.87-7.06-1.49-10.58-.89-5.09-1.29-10.26-1.96-15.39-.48-3.66-.77-7.35-1.61-11.3-.28.76-.51 1.19-.59 1.64-.84 4.91-1.86 9.77-3.01 14.62-1.03 4.34-1.87 8.72-2.75 13.1-.67 3.35-1.72 6.62-2.11 10.04-31.49-.02-63.01-.02-94.53-.02zM243.39 486c-.02.24-.06.47-.06.71 0 .2-.04.45.25.48.05 0 .16-.25.17-.38.02-.23-.02-.47-.03-.71.76-1.92.32-3.9.34-5.87-.03 1.95-.5 3.84-.67 5.77zm-13.48-96.71c-.23 0-.46 0-.69.01-1 1.2-1.44 2.65-1.79 4.14-.49 1.5-1.03 2.98-1.74 4.4-.58 1.16-.36 1.4 1.03 1.54 1.62.16 2.76 1.77 1.9 3.1-.58.9-.37.99.35 1.26 1.04.39 2.08.77 3.12 1.19 6.85 2.74 13.16 6.56 19.7 9.93 1.12.58 2.19 1.32 3.51 1.4.94.79 2.07 1.1 3.25 1.27.37.15.73.33 1.11.44 3.3 1.01 3.62.88 4.93-2.33 1.05-2.58 2.12-5.16 3.03-7.79 1.96-5.63 4.14-11.2 5.5-17.02.64-.71.41-1.61.55-2.43.99-.89.87-2.15 1.07-3.3.03-.17-.35-.34-.14-.61 1.38-1.69 1.19-3.91 1.91-5.82.97-2.59 1.38-5.38 3.12-7.68.87-1.15 1.14-2.55 1.19-4.04.07-1.99.32-3.98.57-5.96 1.13-9.19 2.11-18.4 2.57-27.64.55-10.94.33-21.87-1.18-32.76-.41-2.94-.83-5.77-2.79-8.12-.31-.38-.17-.71.08-1.07.47-.65.25-1.4.19-2.1-.19-2.23-.52-2.52-2.69-1.95-11.83 3.11-22.56 8.15-30.84 17.56-1.33 1.51-1.65 2.91-.91 4.68.88 2.08 1.2 4.28 1.48 6.51.45 3.58.1 7.17.28 10.75.12 2.33-.07 4.59-.65 6.85-.41 1.59-.9 3.27-.78 4.86.22 2.86-.19 5.53-1.29 8.13-.21.51-.23 1.02-.3 1.55-.21 1.52-.34 3.11-.73 4.52-.46 1.66-.88 3.35-1.36 5.01-.91 3.11-1.26 6.49-3.92 8.78-.54.46-.4.98-.63 1.44-.49.96-.19 1.21.87 1.57 8.65 2.98 16.91 6.94 25.41 10.32 1.17.47 2 .62 3.12-.78-.21 1.7.3 2.39 1.5 2.67.59.14 1.16.49 1.75.71 1.5.58 2.98 1.23 4.42 2.21-1.97.85-1.96.85-1.54 2.7.07.3-.01.63-.03.94-.33.85-1.49.42-1.94 1.33.77 0 .54.85 1.05 1.11-.47.75-1.11 1.08-2.02.92-2.27-.41-4.57-.67-6.8-1.22-1.11-.27-2.49-.66-2.99-1.76-.4-.88-.96-1.14-1.69-1.42-7.54-2.98-15.07-5.98-22.62-8.95-1.67-.66-2-.5-2.59 1.23-.72 2.11-1.6 4.13-2.67 6.1-.61 1.12-1.43 2.28-1.33 3.7l.09-.08zM179.4 331.7c-.09.84.01 1.65.32 2.49.85-.17 1.4-.7 1.98-1.19 2.9-1.98 5.69-4.11 8.53-6.16 2.36-1.7 3.19-3.71 2.9-6.48-.21-2.07-.41-2.44-2.58-2.52-2-.07-3.96-.44-5.92-.79-2.47-.44-4.97-.74-7.61-1.12.25 2.09.54 3.89.68 5.71.25 3.39.68 6.78 1.7 10.06zm-28.73-80.22c-.78.37-.87 1-.82 1.79.11 1.75 0 3.5-.33 5.24-1.15 5.95-2.22 11.91-3.33 17.87-.12.62-.15 1.38-.52 1.81-1.6 1.82-1.38 4.17-1.92 6.28-.31 1.21-.46 2.51-.31 3.8.04.35.17.61.57.57.35-.04.69-.3.6-.59-.34-1.12.33-1.85.95-2.56 3.97-4.48 8.37-8.34 14.31-10.01.2-.06.36-.26.49-.36-.31-2.46-.88-4.77-1.52-7.08-1.27-4.61-2.74-9.17-3.57-13.89-.17-.94-.45-1.87-.12-2.82.18-.15.38-.27.54-.44.36-.39.88-.76.43-1.39-.37-.52-.91-.61-1.46-.36-.62.29-1.18.27-1.8 0-.46-.2-1.01-.2-1.15.38-.17.71-1.03.97-1.04 1.76zm-42.07-47c-.3-.42-.75-.48-1.21-.49-4.7-2.21-9.4-4.43-14.1-6.64-.62-.67-1.42-.99-2.37-1.18-.62 1.13-1.05 2.19.33 3.1 1.24 2.04 2.45 4.09 3.73 6.1 2.95 4.62 5.4 9.53 8.85 13.85 2.17 2.71 4.55 5.12 7.23 7.27 1.5 1.2 2.13 1.17 3.2-.41.89-1.32 1.64-2.74 2.35-4.16 1.47-2.92 2.93-5.85 4.58-8.68.63-1.09 1.33-1.85 2.72-2.02 1.07-.13 2.33-.38 2.81-1.92-2.58-.56-4.98-1.08-7.38-1.61-3.64-.81-7.12-2.25-10.74-3.21zm51.49 165.6c-.87 1.3-1.75 2.57-2.96 3.6-.27.23-.17.88-.25 1.34-2.22 2.17-4.94 3.38-7.94 3.92-1.6.29-3.05.62-4.08 2.08-.48.68-1.39 1.03-2.22 1.37-1.78.73-1.91.92-1.46 2.85.23.98.31 1.93-.11 2.81-1.57 3.32-1.79 6.94-2.27 10.48-.32 2.36-.39 4.77.12 7.15.22 1.02.66 1.75 1.54 2.28 1.43.88 2.77 1.88 3.99 3.04 2.36 2.25 4.78 4.4 6.85 6.97 2.34 2.92 5.78 4.72 8.34 7.5 1.31 1.43 2.49 1.07 3.66-.56 3.87-5.37 7.29-11.08 11.99-15.82 1.87-1.88 4.27-3.43 3.6-6.66 1.54-2.79 1.01-5.75.65-8.67-.4-3.25-.96-6.47-1.35-9.72-.2-1.65.04-3.38-1.25-4.74-.16-.17-.27-.39-.1-.63.57-.8.05-1.27-.6-1.4-1.8-.36-3.4-1.49-5.12-1.67-1.94-.21-2.96-1.26-4.07-2.53-1.3-1.49-2.05-3.36-3.23-4.88-1.48.4-2.43 1.49-3.73 1.89zm77.62-89.42c-.15.29-.19.69.08.81.54.22 1.01-.05 1.37-.5.52-.2 1.05-.37 1.55-.61 9.83-4.79 19.95-8.91 30.09-12.96 1.28-.51 2.71-.73 3.85-1.69-1.19-.65-1.49-1.68-1.55-2.86-.13-2.56-.7-5.05-1.31-7.53-1.57-6.36-3.49-12.62-5.71-18.77-3.69-10.27-9.46-19.02-19.42-24.29-8.39-4.44-16.86-8.7-26.22-10.85-4.68-1.07-9.41-2.11-13.72-4.39-.36-.19-.59.12-.74.35-2.76 4.23-6.42 7.71-9.74 11.46-4.18 4.71-8.52 9.28-12.5 14.18-2.92 3.59-5.92 7.11-11.02 7.67-3.09.34-5.95.22-7.92-2.57-2.11.96-3.04 2.53-2.77 4.8.05.46-.11.95-.15 1.43-.39 4.21-1.12 8.38-1.25 12.62-.06 1.76-.1 1.83 1.58 2.13 1.18.21 1.92.65 1.94 1.96.05 3.7 1.04 7.27 1.9 10.82.96 3.93 1.29 8.03 3.17 11.75.56 1.12 1.09 1.49 2.26 1.54 5.52.27 9.81 2.85 13.36 7.02 2.9 3.41 3.76 7.29 3.47 11.6-.13 1.91-.62 3.74-1.25 5.65 4.81.56 9.35 1.78 13.93 2.83 1.76.41 3.07.24 4.58-.92 5.19-4 10.79-7.42 16.4-10.8 3.19-1.92 6.45-3.74 9.75-5.65-1.16-1.49-1.56-3.14-1.8-4.79-.95-6.5-2.48-12.86-4.43-19.12-1.28-4.12-2.8-8.16-4.79-12-.8-1.53-1.59-3.13-3.7-3.38-1.07-.13-1.18-.73-.84-1.89.9-3.04 3.35-4.72 5.4-6.76.5-.5 1.41-.65 1.91.11 2.13 3.23 5.09 5.89 6.52 9.58 1.12 2.9 2.3 5.79 3.22 8.75 2.35 7.56 3.65 15.35 4.79 23.16.1.73.05 1.45-.29 2.11zM61.79 327.73c.08 2.29.39 4.58.63 6.84.32 3.11 1.01 6.23 1.54 9.34.15.9.39 1.4 1.56.95 2-.77 4.09-1.34 6.16-1.94 2.6-.76 5.22-1.48 8.29-2.34-1.54-.62-2.26-1.17-2.1-2.63 1.11-10.07 2.47-20.11 4.16-30.1.34-2.02.98-4 .93-6.16-.4-.04-.71-.14-1.01-.11-3.8.4-6.91-1.18-9.51-3.68-5.42-5.23-8.74-11.51-9.06-19.19-.04-.87.14-1.85-.21-2.59-2.51-5.41-2.64-11.04-1.91-16.81.3-2.35 1.18-4.02 3.52-4.91.87-.33 1.62-.97 2.64-.92.96.05 1.62-.59 2.35-1.07.75-.49 1.12-1.05.62-1.99-1.05-1.94-.04-3.61 1.04-5.04 3.09-4.11 7.17-6.42 12.45-6.34 1.76.03 3.52.01 5.27-.06 1.64-.06 2.99.38 3.84 1.88.95 2.03.4 3.2-1.73 3.51-.77.11-1.58-.04-2.38-.06-.79-.02-1.62-.19-2.35.2-2.59 1.37-4.74 3.18-6.03 5.89-.31.64-.31 1.21.09 1.79 1.75 2.56 3.47 5.13 5.23 7.68.83 1.21 1.07 1.29 2.17.24 1.44-1.38 3.04-2.28 5.06-2.4 1.12-.06 1.4-.74 1.4-1.79 0-3.9.07-7.81.13-11.71.02-1.1-.36-2.22.15-3.3 1.41-1.66 3.41-1.82 5.36-2.19 3.41-.63 6.82-.66 10.18.09 4.52 1.01 7.48 3.98 9.54 7.98.21.76.41 1.53.65 2.28.45 1.42.46 1.42 2.04.97 1.23-.17 2.12.03 2.47 1.5.29 1.23 1.02 2.3 1.86 3.3 1.12 1.34 1.91 2.91 2.73 4.46 1.93 3.69 2.57 7.69 3.09 11.72.26 2.03.4 4.13-.79 6.02-.2.32-.22.88-.69.82-.94-.11-1.47.85-1.96.93-1.9.33-1.49 1.39-1.28 2.6.66 3.77.45 7.44-1.31 10.94-.3.61-.81 1.22-.62 1.99.26 1.09-.25 1.99-.6 2.96-.49 1.38-1.48 2.45-2.07 3.75-1.12 2.47-2.8 4.2-5.72 4.27-1.04-.85-2.18-1.24-3.65-.87.37.96.09 1.96.69 2.78.92 4.09 1.84 8.17 2.79 12.41 1.4-.93 2.56-1.78 3.79-2.49 1.17-.67 2.61-1 3.59-1.86 1.01-.89.52-2.51.98-3.76 1.79-4.98 3.73-9.86 7.22-13.95.37-.44.82-.89.61-1.47-.42-1.21.05-2.37.1-3.55.35-8.8 1.87-17.45 3.29-26.11.62-3.77 1.53-7.5 2-11.29.27-2.1.28-4.1 2.6-4.85-.12-.6-.44-.71-.71-.85-1.15-.58-1.53-1.39-1.67-2.79-.41-4.19-1.01-8.38-1.96-12.5-.24-1.06-.75-1.86-1.52-2.63-2.2-2.2-4.33-4.48-6.46-6.75-.84-.9-1.6-1.87-2.52-2.94-.6 1.02-1.07 1.84-1.56 2.65-1.58 2.58-2.62 5.47-4.44 7.91-1.03 1.38-1.85 3.27-4.24 2.32-.35-.14-.9.25-1.36.34-1.01.2-2.03.4-3.05.53-.84.11-1.61-.15-2.11-.87-.85-1.21-2.12-1.92-3.28-2.75-2.8-1.99-5.42-4.2-7.85-6.65-5.02-5.08-9.19-10.84-12.97-16.86-.8-1.27-1.64-1.73-3.09-1.62-3.91.3-7.76.8-11.51 2-6.5 2.09-12.51 5.1-17.99 9.19-4.29 3.21-8.47 6.52-11.7 10.86-1.06.75-1.74 1.83-2.44 2.89-3.49 3.76-6.46 7.93-9.3 12.17-10.92 16.26-18.02 34-20.84 53.48-1.55 10.71-1.71 21.42-1.14 32.16.28 5.38.82 10.75 1.77 16.1.94 5.33 2.03 10.59 3.53 15.79 2.25 7.78 5.73 15.01 9.37 22.19.61 1.21 1.49 2.28 2.75 2.83 2.1.91 3.42 2.53 4.53 4.43.48.82 1.02 1.62 1.54 2.42 1.08 1.64 2.37 3.03 4.39 3.47 4.16.9 8.34 1.37 12.62.91 7.71-.83 15.32-2.22 22.89-3.89 3.04-.67 6.08-1.36 9.14-1.93 1.27-.24 1.59-.76 1.22-1.96-.37-1.22-.55-2.5-.89-3.72-2.09-7.45-4.31-14.86-5.16-22.61-.2-1.83.43-2.88 1.61-3.87.6-.5 1.38-.79 2.05-1.22 1.36-.88 2.54-.53 3.71.42.95.78 1.26 1.82 1.4 2.95 1 8.4 2.51 16.7 4.63 24.89.31 1.18.97 1.99 1.86 2.68.97.75 1.91.96 3 .07 1.42-1.15 2.95-2.15 4.4-3.26.38-.29.69-.61 1.22-.64 3.8-.22 7.24-1.92 10.92-2.64 1.54-.3 1.55-.48 1.19-2.19-1.48-7.04-2.79-14.11-3.85-21.22-.65-4.35-1.24-8.7-1.93-13.05-.33-2.07-1.07-2.63-3.05-2.34-1.89.28-3.82.52-5.62 1.11-3.41 1.13-6.96 1.7-10.39 2.75-4.79 1.48-9.58 2.99-14.34 4.56-2.72.9-5.24 2.27-8.04 3-3.85.99-7.66 2.15-11.44 3.4-2.5.83-4.98 1.7-7.54 2.33-2.94.72-3.74.3-4.78-2.59-.44-1.21-.66-2.44-.45-3.75.35-2.2.74-2.66 3.02-2.97 1.63-.23 3.11-.8 4.67-1.8-3.45-1.5-6.65-2.92-9.73-4.59-2.95-1.59-5.05-3.88-5.91-7.15-.22-.83-.34-1.79.48-2.45.75-.6 1.65-.71 2.48-.26 4.08 2.22 8.59 3.43 12.72 5.51 2.16 1.08 4.13 2.42 5.89 4.07.35.33.6 1.01 1.41.61-.07-1.17-.1-2.37-.23-3.55-.71-6.58-1.7-13.13-2.59-19.7-1.5-11.16-2.98-22.32-4.25-33.5-.93-8.17-1.67-16.37-1.63-24.62.01-1.21.31-2.01 1.52-2.62 1.56-.78 3.2-.98 4.86-1.18.84-.1 1.41.3 1.89 1.13.75 1.31.59 2.82 1.12 4.12 1.63 3.95 1.95 8.11 2.16 12.3.17 3.51.34 7.02.58 10.52.13 1.98.77 3.93.34 5.94.13.72-.27 1.34-.39 2.02 0 3.45 1.1 6.8.76 10.29-.08.88.64 1.83.6 2.74-.12 2.59-.09 5.15.46 7.7.18.84.15 1.73-.08 2.59-.29-.12-.73-.3-.77.09-.1.85-.03 1.73-.03 2.73.72-.76.55-1.62.88-2.32 1.27 2.22.83 4.5.25 6.79-.38 3.1-.32 3.97.51 5.21-.29-1.4-.3-2.81-.31-4.23-.02-.68.5-.61.94-.69zm97.58 35.44c-3.35-3.89-6.4-7.8-9.08-11.97-.17-.27-.33-.61-.59-.74-1.36-.71-1.12-1.72-.62-2.81.44-.94.79-1.94 1.32-2.82 1.49-2.46 2.79-2.52 4.42-.23 3.06 4.28 6.08 8.59 9.29 12.76 2.11 2.73 4.52 4.26 8.17 3.56 3.39-.65 6.77-1.1 9.6-3.33.88-.69 1.46-1.32 1.03-2.86-2.38 1.86-5.14 1.59-7.68 2.2-2.49.61-4.72.28-6.62-2-3.9-4.66-7.8-9.32-11.25-14.33-1.9-2.76-3.8-5.54-5.56-8.39-.64-1.03-1.7-1.39-2.49-2.16-.56-.55-.57.5-.99.59-.27.06-.49-.01-.62-.21-.49-.75-1.33-1.16-1.85-1.84-1.02-1.33-1.9-2.84-2.22-4.46-.21-1.08.97-1.93 1.5-2.9.35-.63.78-1.22 1.07-1.87 2.49-5.53 5.48-10.97 2.68-17.35-.47-1.07.38-2.09 1.56-2.08.55 0 1.09.23 1.64.34 1.89.39 3.89.72 5.67.03 3.11-1.22 5.55-3.43 7.46-6.18.23-.32.48-.71.29-1.1-.25-.52-.78-.44-1.26-.4-3.51.25-6.93 1.01-10.35 1.81-5.62 1.31-10.36 4.07-14.2 8.34-1.16 1.29-2.38 2.62-3.14 4.15-.88 1.76-1.26 3.77-1.88 5.66-.2.62-.44 1.35-.16 1.87.69 1.3.16 2.47-.11 3.69-.52 2.37-.64 2.46-3.06 2.71-.39.04-.76.24-1.15.3-1.59.24-2.68 1.36-3.94 2.18-4.35 2.81-7.95 6.39-10.91 10.63-1.24 1.78-1.92 3.78-1.19 5.87 1.37 3.92 1.06 8.02 1.47 12.04.48 4.69 1.1 9.35 1.73 14.02.08.57.2.98.8 1.32 2.55 1.45 4.34 3.71 6.17 5.93.55.67 1 1.45 1.87 1.82 1.29.56 2.19 1.55 2.91 2.74 1.23 2.04 3.15 2.61 5.37 2.31 1.67-.23 3.22-.83 4.61-1.98-.57-.39-1.09-.75-1.62-1.1-2.09-1.37-3.74-3.24-5.45-5.02-.46-.48-.95-1.18-.52-1.95.46-.83 1.16-1.29 2.17-1.19.81.08 1.56.31 2.31.59 1.31.48 2.29 1.44 3.39 2.23 4.02 2.93 8.29 2.97 12.6.12-.45-.66-1.22-.75-1.87-.98-3.63-1.27-6.62-3.5-9.36-6.1-.69-.65-1.33-1.4-1.82-2.21-.97-1.63-.28-2.97 1.54-2.95.92.01 1.85.01 2.72.67 1.45 1.11 3.06 2.02 4.59 3.04 4.57 2.99 7.5 2.89 11.61-.01zm11.01 5.01c-.09.93.46 1.22.86 1.56 3.47 2.98 8.41 3.04 12.16.33 4.19-3.02 6.49-7.39 8.76-11.81 1.03-2.01 1.64-4.15 1.96-6.38.29-2.02-.58-3.95-3.08-4.69-1.27-.38-2.45-.21-3.68-.21-2.5.02-3.5-.88-4.02-3.47-.21-1.04.12-1.75 1.35-1.7 2.07.09 3.66-.92 5.14-2.2.61-.52 1.26-.98 1.9-1.46 6.1-4.52 12.24-8.98 18.41-13.4 8.38-6 16.95-11.73 25.57-17.38 1-.66 1.68-1.38 2.18-2.4.99-2.02 2.24-3.85 3.68-5.58 3.89-4.69 8.7-8.21 13.89-11.28 8.29-4.9 17.3-7.75 26.77-9.3 2.52-.41 4.89-.83 6.87 1.28.08.09.3.05.46.08.63-1.94 2.38-2.71 3.95-3.6 8.74-4.99 17.52-9.92 26.26-14.9 1.6-.91 3.31-1.7 4.56-3.18-1.66.13-3.14 1.12-4.65 1.13-3.26.01-6.12 1.57-9.27 1.93-1.96.22-3.84 1.05-5.77 1.56-1.76.47-3.68.44-5.28 1.39-1.79 1.07-4.11.66-5.71 2.2-.15.14-.51.24-.68.16-1.28-.67-2.25.37-3.36.53-1.19.16-1.91 1.08-3.03 1.31-4.48.93-8.63 2.88-12.93 4.36-1.75.6-3.26 1.71-5.02 2.22-4.74 1.39-8.95 4.06-13.6 5.67-2.24.77-4.33 1.98-6.49 2.97-4.67 2.12-9.25 4.42-13.82 6.75-3.11 1.59-6 3.58-9.01 5.31-4.43 2.54-8.79 5.14-12.81 8.29-.95.74-1.74 1.41-2.05 2.74-.43 1.82-1.46 2.35-3.4 2.06-.98-.15-1.72.11-2.43.67-1.26.99-2.5 1.99-3.76 2.96-1.69 1.3-2.2 2.98-1.95 5.08.39 3.25.3 6.54.3 9.81 0 .79-.2 1.42-.93 1.79-2.42 1.27-4.4 3.18-6.7 4.62-1.28.8-2.35 2.1-3.84 2.35-1.2.21-2.07.8-2.96 1.43-1.82 1.29-3.57 2.69-5.39 3.99-1.66 1.19-2.94 2.76-4.03 4.39-.74 1.1-1.39 2.06-2.65 2.47.53 1.35 1.34 1.8 2.68 1.34.75-.25 1.57-.3 2.36-.41 3.38-.48 6.3.65 8.83 2.78 1.87 1.57 2.29 3.53 1.38 5.8-.53 1.33-1.02 2.75-1.88 3.85-1.2 1.54-2.53 3.09-4.6 3.6-3.82.96-7.53 2.44-11.5 2.59zm78.85 82.99c.99-.26 1.12-1.03 1.41-1.65 1.25-2.67 2.56-5.32 3.7-8.04 1.5-3.57 3.75-6.83 4.4-10.77.1-.63.79-1.17 1.24-1.73.32-.4 1.03-.49.97-1.27-1.01-1-2.43-1.08-3.71-1.4-4.98-1.24-9.78-2.93-14.32-5.32-3.67-1.93-7.37-3.81-11.04-5.75-5.52-2.91-11.43-4.87-17.14-7.32-1.25-.54-2.12-.08-3.02.7-2.59 2.25-3.69 5.4-4.74 8.45-1.01 2.93.4 5.75 2.98 6.87.47-1.29 1.66-2.37.82-3.96-.15-.29.08-.59.31-.84 1.43-1.54 4.86-2.31 6.86-1.63.82.28 1.17.76 1.17 1.55-.02 3.78-1.04 7.25-3.49 10.19-1.68 2.01-3.48 3.94-5.26 5.86-1.08 1.17-2.36 1.62-4.03 1.37-1.73-.26-2.68-1.65-4.07-2.38-.73.71-.71 1.59-.83 2.46-.18 1.33.35 2.52.59 3.76.39 2.02 1.67 3.37 3.45 4.32.6.32 1.21.5 1.83.22 2.19-1.02 4.23-2.11 4.9-4.8.48-1.94 1.34-3.86 3.31-4.75 1.41-.63 2.64-1.41 3.76-2.46 1.68-1.58 3.8-1.28 5.89-1.33 1.47-.03 1.95 1.03 2.82 1.68-1.86 3.33-4.72 5.75-6.71 8.84-.73 1.13-1.08 2.04.01 3.3 2.29-1.95 4.52-3.8 5.81-6.57.54-1.14 1.11-2.28 1.85-3.34 1.34-1.92 3.1-2.7 5.37-2.26.72.14 1.42.22 2.14.13 1.77-.22 3.03.46 3.92 2.2-2.28 1.93-3.26 4.79-5.22 7.01-1.67 1.89-1.86 4.55-1.7 7.4 1.35-.93 2.18-1.91 2.84-2.96 1.29-2.04 3.9-3.38 3.51-6.36-.01-.11.22-.23.28-.37.64-1.63 2.02-2.64 3.55-2.86 2-.29 4.11-.47 6.09.38.21.09.39.27.56.44.92.94.94 1.36-.08 2.33-.48.46-.94.91-1.07 1.54-.63 3.01-.83 6.04.09 9.12zm-53.08-106.71c.24.67.78.93 1.14 1.35 1.15 1.32 2.38 2.58 2.98 4.3.65 1.86.68 1.91 2.65 1.77 6.92-.47 13.82-1.12 20.75-1.44 3.15-.15 6.32-.73 9.48-.15 1.12.21 1.57-.15 1.79-1.22.99-4.85 2.13-9.66 3.02-14.53.81-4.44.69-4.39-3.84-4.72-4.58-.34-9.25-.1-13.65-1.83-.57-.23-1.04-.05-1.55.3-1.71 1.16-3.51 2.2-5.21 3.39-3.8 2.64-7.54 5.37-11.34 8.01-2.16 1.48-4.19 3.12-6.22 4.77zm-37.66-36.21c.35.64.73.81 1.14.75 2.23-.3 4.48-.11 6.65.22 6.37.97 12.84 1.24 19.13 2.81 1.61.4 3.29.53 4.94.79.47.07.87.19 1.18-.42.82-1.6 2.31-2.56 3.66-3.66.57-.46 1.36-.78 1.5-1.75-3.97-.7-7.82-1.36-11.65-2.06-1.02-.19-1.85.12-2.72.58-2.99 1.59-3.52 1.41-5.03-1.53-.35-.67-.36-1.38-.33-2.1.02-.62.2-1.26-.3-1.82-.95-1.06-.16-1.71.72-1.89 1.49-.3 2.03-1.37 2.65-2.51 1.57-2.91 1.57-5.96.95-9.09-.7-3.55-2.57-5.25-6.19-5.5-1.51-.1-3.03-.07-4.54-.15-4.51-.24-8.74.54-12.5 3.21-.57.41-1.41.48-1.76 1.31 3.97-.11 7.74-.03 11.58.44 2.53.32 4.14 1.35 5.61 3.06 2.41 2.83 2.74 6.7.58 9.73-1.9 2.66-4.08 5.14-7.82 5.08-.31 0-.69.02-.92.2-2.08 1.61-4.16 3.18-6.53 4.3zm-65.45-37.57c-.08 3.53.65 6.69 2.3 9.61.63 1.12 1.34 2.17 2.41 2.94 2.5 1.81 4.58 1.48 6.26-1.15 1.17-1.83 1.88-3.87 2.33-6 .14-.67.01-1.19-.37-1.79-1.54-2.43-1.51-2.44.71-4.33.67-.57 1.36-1.08 2.15-1.5 3.16-1.65 3.19-1.66 4.62 1.66.06.15.15.29.19.44.2.86.73 1.1 1.58 1.06 2.36-.1 4.56.47 6.67 1.57 1.89.99 2.29.67 2.37-1.54.17-4.57-.95-8.83-3.14-12.82-.8-1.46-.85-1.51-2.23-.41-2.18 1.74-4.29 3.59-6.47 5.34-2.48 1.99-5.31 2.71-8.46 2.23-1.41-.21-2.41-1.2-3.59-1.83-2.66-1.42-4.88-.8-6.38 1.82-.87 1.55-.98 3.19-.95 4.7zm72.15-64.24c.95 1.12 1.63 1.81 2.16 2.58 1.11 1.61 1.86 3.43 3.35 4.83.53.5 1.26 1.39 1.13 2.27-.31 2.03 1.08 3.32 1.69 4.99.67-.21.94-.61 1.26-.95 7.31-8.13 14.61-16.27 21.92-24.41.42-.47.93-.85.73-1.64-.39-1.56.22-2.5 1.74-3.15 1.67-.71 1.64-1.02.36-2.82-10.11 8.36-21.25 14.82-34.34 18.3zm164.21 117.8c-5.96-.36-11.75-1.8-17.68-2.15-2.54-.15-5.07-.39-7.59-.68-3-.34-6-.77-9-1.18-1.03-.14-1.44.26-1.42 1.32.04 1.99-.03 3.99-.01 5.98.01 1.4-.23 2.82.16 4.27.89 0 1.75-.19 2.47.04 2.12.65 4.25.58 6.39.36 7.44-.77 14.49-3.07 21.47-5.6 1.77-.64 3.58-1.22 5.21-2.36zm-162.51-9.16c-2.78-.7-5.54-.5-8.21-1-.66-.12-1.25-.01-1.53.78-1.01 2.94-2.56 5.63-3.98 8.46.86.07 1.64.03 2.21.76.92 1.2 2.01 2.29 2.86 3.54 2.73 4.03 5.25 8.19 8.18 12.08.66.87.94 2.35 2.04 2.48 1.07.12 1.71-1.27 2.66-1.83.83-.5 1.05-1.08.85-2.16-.64-3.63-1.94-7.08-2.77-10.66-.84-3.64-.73-7.49-2.47-10.93-.16-.33.09-.89.16-1.52zm-71.05 21.68c-2.03-.42-2.38-1.47-2.35-2.9.03-1.84.08-3.66.33-5.49.51-3.73 1.42-7.37 2.1-11.06 1.1-5.96 2.21-11.93 3.27-17.9.43-2.44.89-4.87 1.5-7.27.12-.49.43-1.12-.28-1.48-1.61-.82-3.85-.01-4.57 1.66-.22.51-.36 1.06-.5 1.59-1.25 4.62-2.13 9.33-3.14 14.01-1.68 7.8-3.11 15.65-4.26 23.55-.34 2.34-.88 4.7-.53 7.29 2.74-.57 5.37-1.04 8.43-2zM71.6 279.33c.04.21.1.68.21 1.14 1.07 4.88 3.45 9.07 6.89 12.64 1.24 1.28 2.87 1.99 4.54 2.57 1.1.38 1.62-.05 1.85-1.13.23-1.09.65-2.15.8-3.25.22-1.6 1.11-2.55 2.5-3.23 1.54-.75 1.53-.81.52-2.13-2.46-3.24-4.11-6.81-4.59-10.88-.19-1.63-.3-1.66-2.01-1.13-3.04.94-5.93 2.36-9.1 2.88-1.34.21-1.6 1.12-1.61 2.52zm47.41-28.66c-.68-.07-1.36-.09-2.03-.21-2.83-.5-5.3-1.55-6.96-4.09-1.51-2.3-3.85-2.62-6.36-2.35-.8.09-1.05.58-1.02 1.33.13 3.75.06 7.5.41 11.24.05.57.2 1.05.76 1.39.74.45 1.44.99 2.12 1.54.74.59 1.42.6 2.12-.04 1.13-1.02 2.2-2.1 3.42-3 2.53-1.87 4.36-4.68 7.54-5.81zm-13.17 56.47c-.17.36-.3.54-.33.73-.87 4.38-1.72 8.76-2.6 13.14-.1.51.01.99.27 1.37.53.78.56 1.63.62 2.51.24 3.75 1.28 7.39 1.69 11.12.09.8.59 1.1 1.34.99.72-.11 1.26-.55.99-1.31-.42-1.19.02-2.18.45-3.21.67-1.63 1.43-3.21 2.39-4.69.64-.99 1.77-2-.08-2.97-.26-.14-.32-.71-.42-1.09-.43-1.62-.88-3.23-1.24-4.86-.87-3.89-1.94-7.73-3.08-11.73zm-35.52-40.27c.06.95.1 1.9.19 2.85.08.89.55 1.24 1.46 1.04 3.73-.8 7.46-1.57 11.19-2.38 1.46-.32 1.02-1.62 1.11-2.54.09-1-.78-.79-1.38-.77-2.63.09-4.54-1.23-6.14-3.12-.67-.79-1.19-1.69-1.8-2.53-1.43-1.96-2.09-1.92-3.3.21-.27.48-.46 1.02-.56 1.56-.34 1.89-.73 3.76-.77 5.68zm82.42-32.95v-3.1c0-.66.45-1.52-.65-1.72-.92-.17-1.74-.01-2.24.93-.26.5-.32 1.06-.51 1.57-.61 1.66-.4 3.91-2.94 4.29-.57.08-.58.72-.49 1.19.5 2.81 1.02 5.62 1.54 8.44.08.42.28.73.74.81 1.58.28 3.58-.93 3.69-2.42.23-3.34.83-6.64.86-9.99zm-41.49 50.24c1.27.65 2.18 1.4 3.05 2.22 1.22 1.15 2.42 2.31 3.68 3.4 1.16.99 1.39.92 2-.51 1.11-2.56 1.15-5.26.94-7.97-.07-.95-.63-1.61-1.55-1.91-1.59-.51-3.19-.99-4.77-1.53-.84-.29-1.21.03-1.25.84-.12 1.97-1.13 3.61-2.1 5.46zm46.72-71.73c-2.18 3.81-4.16 7.28-6.74 10.9 3.35.2 6.24 1.65 8.77-1 .36-.38.97-.51 1.48-.75.6-.28.88-.67.54-1.32-1.28-2.45-2.55-4.92-4.05-7.83zm80.73 102.99c-3.92 2.98-8.3 4.59-11.95 7.94 3.85.38 7.32.76 10.77 1.39.68.12 1.07-.07 1.09-.83.07-2.68.35-5.36.09-8.5zm-98.64-105.05c1.56 1.77 3.07 3.51 4.61 5.22.54.6 1.06.56 1.56-.12 1.48-2.02 2.88-4.08 3.9-6.76-3.59.93-6.94 1.36-10.07 1.66zm86.46-69.96c2.1-8.83.38-17.5-.78-26.29-.38.84-2.34.23-1.62 1.81 1.25 2.7 1.54 5.67 2.54 8.42.37 1.02.44 1.97.39 3-.19 4.35-.36 8.71-.53 13.06zm-84.65 82.75c-3-2.3-5.87-4.55-8.43-7.15-.11-.11-.26-.2-.4-.25-.31-.12-.66-.17-.87.12-.23.31-.03.6.23.8 1.51 1.2 2.65 2.73 3.87 4.19 1.15 1.39 2.39 2.71 3.66 4.14.68-.65 1.23-1.17 1.94-1.85zm-24.93 74.58c-1.34-.26-2.27-.6-2.75-1.69-.44-1.01-1.15-1.86-2.49-2.5.52 3.26.91 6.25 1.9 9.32.98-.78.89-1.78 1.52-2.43.65-.68 1.07-1.56 1.82-2.7zm129.47 200.19c.38.48.45.87.33 1.27-.12.39-.38.7-.83.68-.41-.01-.42-.41-.54-.68-.06-.15-.12-.3-.15-.45-.01-.06.05-.15.08-.22.01-.02.06-.03.09-.02.2.08.23.17.08.22-.64.22-.79.71-.73 1.32.15 1.42.17 2.84.1 4.27-.07 1.59-.1 3.18.84 4.61.26.39.4.99-.28 1.29-.08-.13-.23-.25-.23-.38.01-.84.15-1.61 1.08-1.95-.86-.73-.52-1.72-.56-2.63-.01-.15.01-.34.09-.46 1.1-1.59.99-3.26.38-4.98-.23-.63-.22-1.24.25-1.89zm-44.51-65.59c1.6-.18 1.59-1.88 2.72-1.93 1.71-.08 2.1-1.4 3-2.77-1.37-.23-2.56-.17-3.68-.46-.56-.14-.79.42-.92.9-.37 1.37-.72 2.73-1.12 4.26zm43.07 62.14c.07.66-.52 1.41.02 2.15.47-.76.16-1.45-.02-2.15zM142.1 227.2c-.07-.65-.4-1.02-.97-1.14.33.38.65.76.97 1.14zm103.4 262.64c.23-.88.35-1.5-.11-2.08-.09.61-.32 1.21.11 2.08zm-1.69.15c.49-.28.47-.72.42-1.16-.03-.22-.22-.29-.29-.13-.17.38-.48.76-.13 1.29z"/><path fill="#060402" d="M198.63 61.98c-1.26-.22-1.77-1.27-2.36-2.2-.98-1.54-1.86-3.15-2.85-4.68-2.91-4.51-6.61-8.36-10.3-12.21-.33-.34-.7-.66-1.21-.71-3.95-4.08-8.27-7.75-12.7-11.29-2.62-2.1-5.54-3.78-8.45-5.45-1.01-.58-1.75-.57-2.45.43-.49.71-1.17 1.32-1.57 2.07-.43.8-.87 1.02-1.71.62-5.5-2.61-11.36-4.21-17.11-6.11-4.57-1.51-9.23-2.52-14.08-2.29-.57.03-1.26-.17-1.71.64.65.22 1.23.47 1.84.62 2.52.62 4.82 1.63 6.79 3.36 1.19 1.05 2.53 1.94 3.69 3.03 1.41 1.33 1.34 1.92.12 3.46-1.1 1.39-2.24 2.49-4.21 1.51-.39-.2-.94-.1-1.42-.1-6.79-.07-13.55.09-20.17 1.84-7.41 1.96-14.71 4.2-21.67 7.45-1.4.65-2.82 1.33-4.15 2.69.72-.06 1.12-.05 1.5-.13 3.91-.92 7.94-.72 11.89-1.31 1.23-.19 2.56-.11 3.3.94 1.06 1.49 2.09 1.1 3.44.55 7.33-2.99 14.8-5.49 22.59-7.06 3.28-.67 6.13-.3 8.75 1.82 1.03.83 1.12 1.04.25 2.06-.6.71-1.2 1.41-1.82 2.14 1.64.34 3.24-.29 4.87-.46 5.24-.52 10.46-1.21 15.7-1.73 5.24-.52 10.48-1.14 15.76-1.09 1.65.02 3.34.52 4.95-.33.38-.2.86-.03 1.1.27 1.12 1.35 2.77 2.17 3.63 3.77-.23.07-.54.06-.67.21-1.9 2.17-4.35 2.26-7 2.15-5.01-.2-9.96.7-14.89 1.41-1.48.21-3.27-.2-4.33 1.43-.06.09-.32.12-.45.07-3.22-1.14-6.52-.16-9.76-.22-2.23-.04-4.58.11-6.85.38-2.31.27-4.28-1.08-6.52-1.16-1.08-.04-1.23-.85-.94-3.04-1.22-.2-2.36.28-3.47.56-6.18 1.56-12.32 3.22-18.14 5.9-4.84 2.23-9.84 4.1-14.5 6.71-2.91 1.63-5.92 3.08-8.69 4.97-1.26.86-2.51 1.68-3.58 2.77-1.06 1.08-2.27 1.42-3.67.68-1.81-2.86-1.6-4.5.87-6.68 4.76-4.2 10.08-7.57 15.71-10.49.56-.29 1.3-.41 1.64-1.32-.55.03-.95.04-1.33.08-4.13.45-8.18 1.38-12.22 2.31-2.56.59-5.2.84-7.7 1.72-1.2.42-2.25 1.23-3.6 1.24-1.26.01-1.62.54-1.29 1.84.38 1.5.01 2.73-1.69 3.46-1.47.63-2.52 1.91-3.31 3.35-1.22 2.24-2.48 4.46-3.7 6.7-1.99 3.62-3.95 7.26-5.49 11.11-1.82 4.54-2.68 9.34-3.74 14.07-.59 2.62-1.13 5.32-1.12 8.04.01 3.26 1.26 6.4 1.1 9.7-.03.66.55 1.08 1.24 1.11.47-.29.42-.72.46-1.1.6-5.89 1.62-11.7 2.98-17.46 1.72-7.24 3.83-14.35 7.23-21.01.82-1.61 2-2.75 3.67-3.18 2.39-.62 4.84-1.09 7.34-.59 1.69 1.14 2.68 2.68 2.58 4.76-.08 1.53-.49 1.96-1.97 2.24-.39.08-.8.08-1.19.08-1.87 0-3.13.89-4.01 2.51-1.56 2.89-2.76 5.94-3.89 9-1.1 2.98-2.23 5.95-3.19 8.99-1.68 5.35-2.7 10.83-3.55 16.34-.31 2.01.17 4.11-.55 6.12-.16.46-.32.89-.73 1.4-.56-.23-1.17-.52-1.8-.73-.76-.25-1.35.39-2.05.5-1.47.23-2.85-.03-4.21-.56-1.89-.75-2.02-.68-2.76 1.21-1.03 2.64-1.34 5.45-1.46 8.22-.26 5.74-.02 11.47 1.97 16.98.89 2.46 2.24 4.56 4.21 6.27 1.11.96 1.55.89 1.93-.6.36-1.38 1.32-2.88-.26-4.17-.06-.05-.13-.12-.14-.19-.2-1 2.88-4 4.25-4.15 1.12-.12 2.31 1.11 2.38 2.77.1 2.39.01 4.78.01 7.18 0 .32.04.63.06.95-1.66 4.64-6.7 6.48-11.03 4.09-3.81-2.1-6.33-5.23-7.92-9.25-2.71-6.83-3.3-13.93-2.82-21.17.25-3.75.88-7.44 1.53-11.14.33-1.88 1.07-3.3 2.93-3.93.85-.29 1.15-.8.97-1.62-.86-3.9-.3-7.81.02-11.7.53-6.28 1.21-12.55 2.61-18.72 1.84-8.15 5.67-15.39 10.05-22.39.55-.88 1.14-1.73 1.67-2.63 1.15-1.96 2.89-2.89 5.11-3.07.56-.04 1.11-.11 1.67-.2 1.71-.27 1.78-.31 1.13-1.93-.55-1.39-.27-2.84-.51-4.25-.09-.54.39-.77.81-1.04 13.8-8.95 28.81-15.02 44.76-18.87.85-.21 1.73-.3 2.59-.45.77-.13 1.53-.27 2.52-.45-.75-1-1.71-1.26-2.65-1.61-2.32-.84-4.64-1.68-6.93-2.6-2.87-1.16-4.64-4.79-3.98-7.77.22-.99.66-1.44 1.64-1.12 2.36.77 4.74.3 7.11.16 3.9-.23 7.8-.68 11.71-.69 5.07-.02 9.99.95 14.89 2.13.67.16 1.33.56 2.19.21-.47-.85-1.31-1.11-2.03-1.5-2.25-1.21-4.48-2.43-6.46-4.09-1.88-1.57-3.18-6.07-2.08-8.29.55-1.12.93-1.32 2-.74.28.15.54.35.78.55 2.6 2.19 5.62 3.55 8.81 4.65 9.92 3.42 19.38 7.83 28.14 13.65 8.42 5.59 15.86 12.33 22.76 19.67 2.99 3.17 5.72 6.53 8.13 10.18.9 1.37 2.02 2.64 2.85 4.08.88 1.52 1.92 3.14-.24 4.54-.23 1.7-2.49 2.39-2.18 4.35zM247.62 486.22c.14-2.12-.31-4.28.38-6.72 1.1 1.56.12 3.11.85 4.33-.65.67-.27 1.88-1.23 2.39z"/><path fill="#FA2063" d="M249.21 482.24c-.15-.19-.18-.39-.01-.58.22.19.26.38.01.58zM249.79 473.72c-.04-.09-.08-.19-.12-.28.04-.01.08-.03.12-.04.04.09.08.18.12.28-.04.02-.08.03-.12.04zM249.35 479.64c-.26.19.19.22-.08.06-.04-.02-.04-.1-.06-.15.03-.01.06-.02.1-.02l.11.02-.07.09zM249.83 470.03c-.24.21.21.2-.08.07-.04-.02-.05-.1-.07-.15l.09-.03.11.01-.05.1zM249.73 475.52h-.07l.07-.01.08-.01z"/><path fill="#FDFDFD" d="M117.6 305.35c2.92-.07 4.6-1.8 5.72-4.27.59-1.3 1.59-2.37 2.07-3.75.34-.98.86-1.87.6-2.96-.18-.77.32-1.38.62-1.99 1.75-3.5 1.97-7.17 1.31-10.94-.21-1.21-.63-2.27 1.28-2.6.5-.09 1.02-1.05 1.96-.93.47.06.49-.5.69-.82 1.19-1.9 1.05-3.99.79-6.02-.52-4.03-1.16-8.03-3.09-11.72-.82-1.56-1.6-3.12-2.73-4.46-.84-1-1.57-2.07-1.86-3.3-.35-1.48-1.25-1.67-2.47-1.5-.64-1.29-.64-3.12-2.69-3.25-2.06-4-5.02-6.97-9.54-7.98-3.37-.75-6.77-.73-10.18-.09-1.95.36-3.95.53-5.36 2.19l-1.73-.06c-.85-1.5-2.2-1.94-3.84-1.88-1.75.07-3.51.08-5.27.06-5.27-.08-9.36 2.23-12.45 6.34-1.08 1.44-2.09 3.1-1.04 5.04.5.93.14 1.5-.62 1.99-.73.47-1.38 1.12-2.35 1.07-1.02-.06-1.77.58-2.64.92-2.34.89-3.22 2.56-3.52 4.91-.73 5.77-.6 11.4 1.91 16.81.34.74.17 1.72.21 2.59.32 7.67 3.64 13.96 9.06 19.19 2.6 2.5 5.7 4.08 9.51 3.68.3-.03.61.06 1.01.11.05 2.16-.58 4.14-.93 6.16-1.69 9.99-3.04 20.03-4.16 30.1-.16 1.46.56 2.01 2.1 2.63-3.07.87-5.69 1.58-8.29 2.34-2.07.6-4.15 1.17-6.16 1.94-1.17.45-1.41-.05-1.56-.95-.53-3.12-1.21-6.24-1.54-9.34-.23-2.25-.55-4.55-.63-6.83-.23-.53-.36-.56-1.16-.25.58-2.29 1.03-4.57-.25-6.79-.03-.17-.05-.34-.08-.51.23-.86.26-1.75.08-2.59-.55-2.55-.58-5.11-.46-7.7.04-.9-.68-1.85-.6-2.74.33-3.49-.76-6.84-.76-10.29.64.21 0 1.08.92 1.39-.26-1.22.37-2.38-.53-3.41.42-2.01-.21-3.96-.34-5.94-.24-3.5-.41-7.01-.58-10.52-.21-4.19-.52-8.34-2.16-12.3-.54-1.3-.37-2.81-1.12-4.12-.47-.83-1.05-1.23-1.89-1.13-1.66.2-3.29.39-4.86 1.18-1.21.6-1.52 1.4-1.52 2.62-.04 8.25.7 16.44 1.63 24.62 1.27 11.18 2.75 22.34 4.25 33.5.88 6.56 1.87 13.11 2.59 19.7.13 1.19.16 2.38.23 3.55-.81.4-1.07-.28-1.41-.61-1.76-1.65-3.73-2.99-5.89-4.07-4.14-2.08-8.65-3.29-12.72-5.51-.83-.45-1.73-.34-2.48.26-.83.66-.7 1.62-.48 2.45.86 3.28 2.96 5.56 5.91 7.15 3.08 1.67 6.28 3.09 9.73 4.59-1.56 1-3.03 1.57-4.67 1.8-2.28.32-2.67.77-3.02 2.97-.21 1.31.01 2.54.45 3.75 1.05 2.89 1.84 3.32 4.78 2.59 2.56-.63 5.04-1.51 7.54-2.33 3.78-1.25 7.59-2.41 11.44-3.4 2.8-.72 5.32-2.1 8.04-3 4.77-1.57 9.55-3.08 14.34-4.56 3.43-1.06 6.98-1.63 10.39-2.75 1.8-.59 3.73-.83 5.62-1.11 1.98-.29 2.72.27 3.05 2.34.68 4.34 1.28 8.7 1.93 13.05 1.07 7.11 2.37 14.18 3.85 21.22.36 1.71.35 1.89-1.19 2.19-3.68.73-7.13 2.42-10.92 2.64-.53.03-.84.34-1.22.64-1.45 1.11-2.98 2.11-4.4 3.26-1.09.88-2.03.68-3-.07-.89-.69-1.55-1.5-1.86-2.68-2.12-8.19-3.63-16.49-4.63-24.89-.13-1.13-.44-2.17-1.4-2.95-1.17-.95-2.35-1.3-3.71-.42-.67.43-1.45.72-2.05 1.22-1.18.99-1.81 2.04-1.61 3.87.85 7.75 3.07 15.16 5.16 22.61.34 1.23.52 2.5.89 3.72.36 1.2.04 1.73-1.22 1.96-3.06.57-6.1 1.26-9.14 1.93-7.57 1.67-15.18 3.06-22.89 3.89-4.28.46-8.46-.01-12.62-.91-2.03-.44-3.31-1.83-4.39-3.47-.53-.8-1.06-1.59-1.54-2.42-1.11-1.89-2.43-3.52-4.53-4.43-1.26-.55-2.14-1.63-2.75-2.83-3.65-7.17-7.12-14.41-9.37-22.19-1.5-5.2-2.59-10.46-3.53-15.79-.94-5.34-1.48-10.72-1.77-16.1-.56-10.74-.41-21.44 1.14-32.16 2.82-19.48 9.92-37.22 20.84-53.48 2.84-4.24 5.81-8.41 9.3-12.17 1.29-.56 2.55-1.15 2.44-2.89 3.23-4.34 7.41-7.66 11.7-10.86 5.48-4.09 11.49-7.1 17.99-9.19 3.75-1.21 7.61-1.7 11.51-2 1.44-.11 2.29.35 3.09 1.62 3.79 6.02 7.95 11.78 12.97 16.86 2.42 2.45 5.04 4.65 7.85 6.65 1.17.83 2.43 1.54 3.28 2.75.5.72 1.27.97 2.11.87 1.02-.13 2.04-.33 3.05-.53.47-.09 1.01-.48 1.36-.34 2.39.95 3.21-.94 4.24-2.32 1.82-2.44 2.86-5.33 4.44-7.91.49-.81.96-1.63 1.56-2.65.92 1.08 1.68 2.05 2.52 2.94 2.13 2.27 4.26 4.55 6.46 6.75.77.77 1.28 1.58 1.52 2.63.95 4.12 1.55 8.3 1.96 12.5.14 1.4.51 2.21 1.67 2.79.27.14.59.25.71.85-2.33.75-2.34 2.75-2.6 4.85-.48 3.79-1.39 7.52-2 11.29-1.42 8.66-2.95 17.31-3.29 26.11-.05 1.18-.52 2.34-.1 3.55.2.58-.24 1.04-.61 1.47-3.49 4.09-5.43 8.98-7.22 13.95-.45 1.25.03 2.87-.98 3.76-.98.87-2.42 1.19-3.59 1.86-1.23.71-2.38 1.56-3.79 2.49l-2.79-12.41c1.04-.6 2.28-.84 2.97-1.94zm-27.57 70.61c-.05 2.34.71 3.92 1.53 5.47.36.69.99 1.18 1.74.91 1.11-.4 1.62.22 2.13.97.6.87 1.41.9 2.33.62 3.75-1.14 6.39-3.52 7.69-7.21.63-1.79 1.05-3.75.13-5.59-1.43-2.84-6.01-4.75-9.07-3.87-1.08.31-2.52.77-2.64 1.8-.19 1.6-1.24 2.22-2.19 3.1-1.25 1.17-1.75 2.64-1.65 3.8zm-2.34-152.9c1.24-.24 1.81-.74 2.52-1.58-.98.43-1.99.14-2.52 1.58zM237.71 280.66c.34-.67.39-1.39.29-2.1-1.14-7.82-2.44-15.6-4.79-23.16-.92-2.96-2.09-5.85-3.22-8.75-1.43-3.69-4.4-6.35-6.52-9.58-.5-.76-1.41-.61-1.91-.11-2.04 2.04-4.49 3.72-5.4 6.76-.34 1.16-.23 1.76.84 1.89 2.1.25 2.9 1.85 3.7 3.38 1.99 3.83 3.51 7.87 4.79 12 1.95 6.26 3.47 12.62 4.43 19.12.24 1.65.63 3.3 1.8 4.79-3.3 1.91-6.56 3.72-9.75 5.65-5.61 3.38-11.21 6.8-16.4 10.8-1.5 1.16-2.82 1.33-4.58.92-4.58-1.05-9.12-2.27-13.93-2.83.63-1.9 1.12-3.74 1.25-5.65.3-4.3-.56-8.18-3.47-11.6-3.55-4.17-7.84-6.75-13.36-7.02-1.18-.06-1.7-.43-2.26-1.54-1.88-3.72-2.2-7.82-3.17-11.75-.87-3.55-1.85-7.11-1.9-10.82-.02-1.32-.76-1.75-1.94-1.96-1.68-.3-1.64-.37-1.58-2.13.13-4.24.86-8.41 1.25-12.62.04-.48.2-.96.15-1.43-.26-2.27.66-3.84 2.77-4.8 1.96 2.79 4.82 2.92 7.92 2.57 5.1-.57 8.1-4.08 11.02-7.67 3.98-4.9 8.32-9.46 12.5-14.18 3.32-3.75 6.98-7.23 9.74-11.46.15-.23.38-.54.74-.35 4.31 2.28 9.04 3.32 13.72 4.39 9.37 2.15 17.83 6.41 26.22 10.85 9.96 5.27 15.73 14.03 19.42 24.29 2.21 6.15 4.13 12.42 5.71 18.77.61 2.47 1.18 4.97 1.31 7.53.06 1.18.36 2.2 1.55 2.86-1.13.96-2.56 1.18-3.85 1.69-10.15 4.05-20.27 8.17-30.09 12.96-.5.24-1.04.41-1.55.61-.35-.71-.87-.64-1.45-.32zm-29.51-13.82c.83 0 2.12.12 3.37-.04s2.49-.52 3.68-.95c1.19-.43 2.41-.96 2.55-2.51.28-3.15-2.39-5.93-5.56-5.77-.47.02-1.04.27-1.4.09-1.85-.91-3.76-.4-5.65-.4-2.08 0-4.12.5-6.19.55-6.07.15-12.07.99-18.07 1.85-.77.11-.94.38-1.17 1.12-.97 3.15.79 5.52 2.1 8.02.34.65 1.07.62 1.72.48 4.36-.94 8.76-1.58 13.22-1.68 3.66-.1 7.28-.93 11.4-.76zM273.42 388.33c.01-.32.09-.65.02-.94-.42-1.85-.44-1.85 1.54-2.7-1.44-.98-2.92-1.63-4.42-2.21-.59-.23-1.16-.57-1.75-.71-1.2-.28-1.71-.97-1.5-2.67-1.12 1.4-1.95 1.25-3.12.78-8.49-3.38-16.75-7.34-25.41-10.32-1.06-.36-1.36-.61-.87-1.57.24-.46.1-.98.63-1.44 2.66-2.29 3.02-5.67 3.92-8.78.48-1.66.91-3.35 1.36-5.01.39-1.41.52-3.01.73-4.52.07-.53.08-1.04.3-1.55 1.1-2.6 1.52-5.27 1.29-8.13-.12-1.59.37-3.27.78-4.86.58-2.26.77-4.52.65-6.85-.18-3.58.17-7.17-.28-10.75-.28-2.23-.6-4.43-1.48-6.51-.74-1.77-.42-3.17.91-4.68 8.28-9.4 19.01-14.44 30.84-17.56 2.17-.57 2.5-.28 2.69 1.95.06.7.28 1.44-.19 2.1-.25.35-.39.69-.08 1.07 1.96 2.36 2.38 5.19 2.79 8.12 1.5 10.89 1.73 21.82 1.18 32.76-.46 9.24-1.44 18.45-2.57 27.64-.24 1.98-.49 3.97-.57 5.96-.05 1.48-.32 2.89-1.19 4.04-1.74 2.3-2.16 5.09-3.12 7.68-.72 1.92-.53 4.13-1.91 5.82-.21.26.17.43.14.61-.19 1.15-.07 2.41-1.06 3.3l-.1-.14-.15.07z"/><path fill="#FA2063" d="M160.09 370.08c1.3-.4 2.25-1.49 3.73-1.86 1.18 1.52 1.93 3.39 3.23 4.88 1.11 1.27 2.13 2.32 4.07 2.53 1.72.18 3.33 1.32 5.12 1.67.65.13 1.17.6.6 1.4-.17.24-.06.47.1.63 1.29 1.36 1.05 3.09 1.25 4.74.39 3.25.95 6.47 1.35 9.72.36 2.92.89 5.88-.65 8.67.66 3.23-1.74 4.78-3.6 6.66-4.7 4.73-8.11 10.45-11.99 15.82-1.17 1.63-2.35 1.98-3.66.56-2.56-2.78-5.99-4.58-8.34-7.5-2.06-2.57-4.49-4.72-6.85-6.97-1.22-1.16-2.56-2.16-3.99-3.04-.87-.54-1.32-1.27-1.54-2.28-.51-2.39-.44-4.8-.12-7.15.48-3.54.7-7.16 2.27-10.48.41-.88.33-1.83.11-2.81-.45-1.93-.31-2.12 1.46-2.85.82-.34 1.74-.69 2.22-1.37 1.03-1.46 2.48-1.79 4.08-2.08 3-.54 5.72-1.75 7.94-3.92.69-.5 1.34-1.05 2.07-1.49.91-.55 1.56-1.09.79-2.22-.33-.52.01-.91.35-1.26z"/><path fill="#FDFDFD" d="M273.12 390.81c-1.36 5.83-3.55 11.39-5.5 17.02-.91 2.63-1.98 5.21-3.03 7.79-1.31 3.21-1.64 3.34-4.93 2.33-.38-.12-.74-.29-1.11-.44-.83-2.53-1.23-2.69-3.25-1.27-1.33-.07-2.39-.82-3.51-1.4-6.54-3.36-12.85-7.18-19.7-9.93-1.03-.41-2.07-.79-3.12-1.19-.71-.27-.93-.36-.35-1.26.86-1.33-.29-2.94-1.9-3.1-1.39-.14-1.61-.38-1.03-1.54.71-1.42 1.26-2.9 1.74-4.4 2-1.19 1.99-1.19 3.22-3.61.07-.13.22-.22.33-.33-.06-.12-.18-.26-.15-.35.05-.16.23-.14.28.05.02.09-.12.22-.19.34-.33-.32-.74-.03-1.09-.16-.1-1.42.73-2.58 1.33-3.7 1.07-1.97 1.95-3.99 2.67-6.1.59-1.73.92-1.89 2.59-1.23 7.54 2.97 15.08 5.97 22.62 8.95.73.29 1.29.54 1.69 1.42.5 1.1 1.88 1.48 2.99 1.76 2.23.55 4.53.81 6.8 1.22.91.16 1.55-.17 2.02-.91.17.25.38.09.58.04zm-13.88 13.52c1.15.76 2.56.76 3.81 1.25.66.26 1.18-.24.79-.91-.54-.91-.07-1.29.58-1.72.26-.17.66-.36.59-.68-.32-1.54.43-2.99.27-4.5-.08-.74-.41-1.54-1.16-1.65-1.9-.26-3.92-.34-5.52.82-1.79 1.3-3.5 2.75-4.98 4.45-.62.71-.94 1.52-.99 2.36-.19 3.03 1.78 5.97 4.68 7.13.96.39 1.94.72 2.93 1.03 2.11.68 3.57-.45 2.92-2.56-.33-1.07-.08-1.98.05-3.12-1.86.29-3.36-.02-4.48-1.38.17-.16.34-.34.51-.52zM196.15 344.46c2.03-1.65 4.06-3.29 6.21-4.79 3.8-2.64 7.54-5.37 11.34-8.01 1.7-1.18 3.49-2.22 5.21-3.39.51-.35.97-.52 1.55-.3 4.4 1.73 9.07 1.5 13.65 1.83 4.53.33 4.65.28 3.84 4.72-.89 4.86-2.03 9.68-3.02 14.53-.22 1.07-.66 1.43-1.79 1.22-3.16-.58-6.33 0-9.48.15-6.92.32-13.83.97-20.75 1.44-1.96.13-2 .08-2.65-1.77-.6-1.72-1.83-2.98-2.98-4.3-.35-.4-.89-.66-1.13-1.33zM93.29 197.35c4.7 2.21 9.4 4.43 14.1 6.64.2.67.33 1.51 1.21.49 3.62.96 7.1 2.39 10.76 3.2 2.4.53 4.8 1.05 7.38 1.61-.48 1.54-1.74 1.8-2.81 1.92-1.39.17-2.09.93-2.72 2.02-1.65 2.83-3.11 5.76-4.58 8.68-.72 1.42-1.46 2.85-2.35 4.16-1.07 1.58-1.7 1.61-3.2.41-2.69-2.15-5.06-4.56-7.23-7.27-3.46-4.32-5.91-9.23-8.85-13.85-1.28-2.01-2.49-4.07-3.73-6.1.66-.63 1.34-1.27 2.02-1.91z"/><path fill="#FA2063" d="M93.04 270.68c-.03-1.5.08-3.15.95-4.68 1.5-2.62 3.72-3.24 6.38-1.82 1.18.63 2.19 1.62 3.59 1.83 3.15.48 5.98-.24 8.46-2.23 2.18-1.75 4.28-3.6 6.47-5.34 1.38-1.1 1.43-1.05 2.23.41 2.19 3.99 3.31 8.25 3.14 12.82-.08 2.21-.48 2.52-2.37 1.54-2.11-1.1-4.31-1.68-6.67-1.57-.86.04-1.39-.21-1.58-1.06-.04-.15-.12-.29-.19-.44-1.43-3.32-1.46-3.32-4.62-1.66-.79.41-1.48.92-2.15 1.5-2.22 1.9-2.25 1.91-.71 4.33.38.59.51 1.12.37 1.79-.45 2.13-1.16 4.16-2.33 6-1.68 2.63-3.75 2.96-6.26 1.15-1.07-.77-1.78-1.82-2.41-2.94-1.65-2.95-2.38-6.1-2.3-9.63z"/><path fill="#FDFDFD" d="M165.19 206.44c13.09-3.48 24.23-9.94 34.33-18.28 1.29 1.8 1.32 2.1-.36 2.82-1.51.65-2.13 1.59-1.74 3.15.2.79-.31 1.17-.73 1.64l-21.92 24.41c-.31.35-.59.75-1.26.95-.62-1.67-2.01-2.96-1.69-4.99.14-.88-.6-1.77-1.13-2.27-1.49-1.4-2.24-3.22-3.35-4.83-.52-.79-1.2-1.47-2.15-2.6z"/><path fill="#FA2063" d="M206.52 73.54l-1.74-4.83c3.18-3.1 6.81-4.93 11.41-4.05 1.79.34 2.96 1.4 3.82 2.97 1.67 3.07 2.43 6.43 2.98 9.81 1.3 7.97 2.1 15.98 1.99 24.07-.01.81-.1 1.59-.32 2.36-.21.73-.22.73-1.62 1.63-.58-1.52-.72-3.11-.8-4.66-.09-1.71-.47-3.35-1.1-4.88-.86-2.08-1.49-4.22-2.07-6.37-1.31-4.82-3.37-9.28-5.89-13.56-1.96-3.3-2.95-3.66-6.66-2.49zM155.15 251.53c-.33.96-.05 1.88.12 2.82.83 4.72 2.3 9.28 3.57 13.89.64 2.31 1.21 4.62 1.52 7.08-.12.1-.28.3-.49.36-5.94 1.67-10.34 5.53-14.31 10.01-.62.71-1.29 1.43-.95 2.56.09.29-.26.55-.6.59-.4.04-.53-.22-.57-.57-.15-1.29 0-2.59.31-3.8.54-2.11.32-4.45 1.92-6.28.38-.43.41-1.19.52-1.81 1.11-5.95 2.18-11.92 3.33-17.87.34-1.75.45-3.49.33-5.24-.05-.79.04-1.42.82-1.79 1.29.1 2.43-.53 3.65-.74.67-.12.8.27.83.79zM166.89 315.08c-.07.62-.32 1.18-.15 1.53 1.74 3.44 1.63 7.29 2.47 10.93.83 3.58 2.13 7.02 2.77 10.66.19 1.08-.02 1.66-.85 2.16-.95.57-1.6 1.95-2.66 1.83-1.1-.12-1.39-1.6-2.04-2.48-2.93-3.89-5.46-8.05-8.18-12.08-.85-1.25-1.93-2.34-2.86-3.54-.56-.73-1.35-.69-2.21-.76 1.42-2.83 2.97-5.52 3.98-8.46.27-.79.87-.9 1.53-.78 2.67.49 5.42.3 8.2.99zM95.84 336.76c-3.06.96-5.69 1.44-8.43 1.99-.35-2.59.19-4.95.53-7.29 1.15-7.9 2.58-15.74 4.26-23.55 1.01-4.68 1.89-9.38 3.14-14.01.15-.54.28-1.08.5-1.59.72-1.67 2.97-2.47 4.57-1.66.71.36.4.99.28 1.48-.61 2.4-1.07 4.83-1.5 7.27-1.06 5.97-2.17 11.94-3.27 17.9-.68 3.69-1.59 7.33-2.1 11.06-.25 1.83-.3 3.65-.33 5.49-.03 1.44.32 2.49 2.35 2.91zM71.6 279.33c.01-1.4.27-2.31 1.61-2.53 3.17-.52 6.06-1.94 9.1-2.88 1.71-.53 1.82-.5 2.01 1.13.48 4.08 2.13 7.65 4.59 10.88 1.01 1.32 1.02 1.38-.52 2.13-1.39.68-2.29 1.62-2.5 3.23-.15 1.1-.57 2.16-.8 3.25-.22 1.08-.75 1.51-1.85 1.13-1.68-.58-3.31-1.29-4.54-2.57-3.45-3.57-5.83-7.75-6.89-12.64-.11-.45-.18-.92-.21-1.13z"/><path fill="#FDFDFD" d="M179.4 331.7c-1.02-3.28-1.45-6.67-1.71-10.07-.14-1.82-.43-3.61-.68-5.71 2.64.38 5.14.67 7.61 1.12 1.97.35 3.92.72 5.92.79 2.18.08 2.37.45 2.58 2.52.28 2.77-.55 4.78-2.9 6.48-2.84 2.05-5.63 4.18-8.53 6.16-.76-.42-1.53-.86-2.29-1.29z"/><path fill="#FA2063" d="M92.98 240.87l1.73.06c-.5 1.08-.13 2.2-.15 3.3-.07 3.9-.13 7.81-.13 11.71 0 1.04-.28 1.72-1.4 1.79-2.01.12-3.62 1.02-5.06 2.4-1.09 1.05-1.33.97-2.17-.24-1.76-2.55-3.49-5.12-5.23-7.68-.4-.58-.4-1.15-.09-1.79 1.29-2.71 3.44-4.53 6.03-5.89.74-.39 1.56-.22 2.35-.2.79.02 1.6.17 2.38.06 2.14-.31 2.68-1.48 1.74-3.52zM119.01 250.67c-3.18 1.13-5.01 3.93-7.54 5.81-1.21.9-2.29 1.98-3.42 3-.71.64-1.38.63-2.12.04-.68-.55-1.38-1.09-2.12-1.54-.56-.34-.7-.82-.76-1.39-.35-3.74-.28-7.49-.41-11.24-.03-.75.22-1.24 1.02-1.33 2.51-.28 4.86.04 6.36 2.35 1.67 2.55 4.14 3.6 6.96 4.09.67.12 1.35.14 2.03.21zM105.84 307.14c1.14 4 2.2 7.83 3.06 11.73.36 1.63.81 3.25 1.24 4.86.1.38.16.95.42 1.09 1.85.98.72 1.98.08 2.97-.96 1.48-1.72 3.06-2.39 4.69-.42 1.04-.87 2.03-.45 3.21.27.76-.27 1.19-.99 1.31-.75.12-1.25-.19-1.34-.99-.4-3.73-1.44-7.37-1.69-11.12-.06-.88-.09-1.74-.62-2.51-.26-.38-.37-.86-.27-1.37.87-4.38 1.73-8.76 2.6-13.14.06-.19.19-.37.35-.73zM70.32 266.87c.04-1.92.43-3.79.77-5.67.1-.54.29-1.09.56-1.56 1.2-2.14 1.87-2.17 3.3-.21.61.84 1.13 1.74 1.8 2.53 1.6 1.89 3.51 3.22 6.14 3.12.6-.02 1.47-.23 1.38.77-.09.92.35 2.22-1.11 2.54-3.73.81-7.46 1.58-11.19 2.38-.91.2-1.38-.15-1.46-1.04-.08-.96-.13-1.91-.19-2.86zM152.74 233.92c-.04 3.35-.63 6.65-.87 9.98-.11 1.5-2.11 2.71-3.69 2.42-.46-.08-.66-.39-.74-.81-.52-2.81-1.04-5.62-1.54-8.44-.08-.47-.07-1.11.49-1.19 2.55-.38 2.33-2.63 2.94-4.29.19-.51.25-1.07.51-1.57.5-.94 1.32-1.1 2.24-.93 1.1.2.65 1.06.65 1.72.01 1.04.01 2.08.01 3.11zM111.25 284.16c.97-1.84 1.98-3.48 2.09-5.46.04-.81.41-1.13 1.25-.84 1.58.54 3.18 1.01 4.77 1.53.92.3 1.48.96 1.55 1.91.21 2.71.17 5.41-.94 7.97-.62 1.42-.84 1.5-2 .51-1.27-1.09-2.47-2.25-3.68-3.4-.86-.82-1.78-1.57-3.04-2.22zM157.97 212.43c1.5 2.91 2.77 5.37 4.04 7.84.34.66.06 1.05-.54 1.32-.5.23-1.12.37-1.48.75-2.53 2.65-5.42 1.2-8.77 1 2.59-3.63 4.57-7.1 6.75-10.91zM141.87 223.16c-.71.68-1.26 1.2-1.95 1.85-1.27-1.43-2.51-2.75-3.66-4.14-1.22-1.47-2.36-3-3.87-4.19-.25-.2-.46-.49-.23-.8.22-.29.56-.24.87-.12.15.06.29.14.4.25 2.57 2.6 5.44 4.84 8.44 7.15zM116.94 297.74c-.75 1.13-1.17 2.02-1.82 2.7-.63.65-.54 1.66-1.52 2.43-.98-3.07-1.37-6.06-1.9-9.32 1.33.64 2.04 1.49 2.49 2.5.48 1.09 1.41 1.43 2.75 1.69z"/><path fill="#060402" d="M155.15 251.53c-.03-.52-.16-.91-.83-.79-1.23.21-2.37.84-3.65.74.01-.79.87-1.05 1.06-1.76.15-.58.69-.58 1.15-.38.61.27 1.18.29 1.8 0 .55-.26 1.09-.16 1.46.36.44.63-.08 1-.43 1.39-.17.16-.38.29-.56.44zM230.98 389.49c-.11.11-.26.2-.33.33-1.23 2.43-1.23 2.43-3.22 3.61.35-1.49.78-2.93 1.79-4.14-.01.22-.1.5.21.55.43.08.46-.25.48-.56l-.08.07c.35.13.77-.16 1.09.16l.06-.02z"/><path fill="#FA2063" d="M117.6 305.35c-.69 1.1-1.93 1.34-2.96 1.91-.6-.82-.32-1.82-.69-2.78 1.47-.37 2.61.02 3.65.87z"/><path fill="#060402" d="M160.09 370.08c-.34.35-.68.74-.35 1.23.77 1.13.12 1.68-.79 2.22-.72.44-1.38.99-2.07 1.49.07-.46-.02-1.11.25-1.34 1.21-1.03 2.09-2.3 2.96-3.6z"/><path fill="#FA2063" d="M60.63 327.48c.81-.3.94-.27 1.16.25-.45.07-.96 0-.96.73 0 1.41.02 2.83.31 4.23-.82-1.24-.89-2.11-.51-5.21z"/><path fill="#060402" d="M60.3 320.19c.03.17.05.34.08.51-.33.69-.16 1.56-.88 2.32 0-1-.07-1.88.03-2.73.05-.4.49-.22.77-.1zM58.96 294.85c.9 1.03.27 2.19.53 3.41-.91-.31-.28-1.18-.92-1.39.12-.67.52-1.29.39-2.02z"/><path fill="#FA2063" d="M142.1 227.2c-.32-.38-.64-.76-.97-1.14.57.11.91.49.97 1.14z"/><path fill="#060402" d="M245.5 489.84c-.43-.87-.21-1.47-.11-2.08.46.59.34 1.21.11 2.08zM243.81 489.99c-.35-.52-.05-.91.13-1.29.07-.16.27-.09.29.13.06.44.07.88-.42 1.16zM243.39 486c.12.01.23.04.33.09.01.24.05.48.03.71-.01.14-.12.39-.17.38-.29-.02-.25-.28-.25-.48 0-.23.04-.46.06-.7z"/><path fill="#FDFDFD" d="M229.91 389.29c-.02.31-.06.63-.48.56-.31-.05-.23-.33-.21-.55.22 0 .46-.01.69-.01z"/><path fill="#060402" d="M197.44 148.68c.22.75.29 1.24.04 1.66-.6 1.03-.95 2.02.27 2.86.27.19.21.36.1.56-2.79 5.02-5.98 9.75-9.88 13.99-5.96 6.49-13.08 11.13-21.49 13.83-6.66 2.14-13.48 3.39-20.43 3.6-5.61.17-11.08-1.09-16.51-2.49-9.37-2.43-17.28-7.37-24.33-13.79-5.4-4.91-9.34-10.82-11.41-17.89-.45-1.52.13-2.29 1.73-2.1 2.47.29 4.46 1.58 6.25 3.23 2.99 2.75 5.82 5.66 8.61 8.62 6.45 6.85 14.4 11.41 23.57 13.44 19.82 4.39 37.28-.5 52.32-14.04 2.37-2.14 4.38-4.64 6.33-7.19 1.26-1.67 2.57-3.42 4.83-4.29z"/><path fill="#FA2063" d="M178.86 44.08c-.86-1.59-2.52-2.42-3.63-3.77-.25-.3-.73-.46-1.1-.27-1.61.85-3.31.35-4.95.33-5.29-.05-10.52.57-15.76 1.09-5.24.52-10.46 1.21-15.7 1.73-1.63.16-3.23.79-4.87.46.62-.73 1.22-1.43 1.82-2.14.86-1.02.78-1.23-.25-2.06-2.62-2.12-5.47-2.48-8.75-1.82-7.78 1.58-15.26 4.07-22.59 7.06-1.34.55-2.38.93-3.44-.55-.74-1.04-2.07-1.12-3.3-.94-3.95.59-7.98.39-11.89 1.31-.38.09-.78.07-1.5.13 1.33-1.36 2.75-2.04 4.15-2.69 6.96-3.25 14.27-5.49 21.67-7.45 6.63-1.75 13.39-1.91 20.17-1.84.48 0 1.03-.09 1.42.1 1.97.98 3.1-.11 4.21-1.51 1.22-1.54 1.29-2.13-.12-3.46-1.15-1.09-2.49-1.98-3.69-3.03-1.97-1.73-4.28-2.75-6.79-3.36-.6-.15-1.18-.4-1.84-.62.45-.81 1.15-.62 1.71-.64 4.85-.23 9.51.77 14.08 2.29 5.75 1.9 11.61 3.5 17.11 6.11.84.4 1.27.18 1.71-.62.41-.75 1.08-1.36 1.57-2.07.69-1 1.44-1.01 2.45-.43 2.91 1.67 5.82 3.36 8.45 5.45 4.43 3.54 8.74 7.22 12.7 11.29-.72 1.14-1.74 1.76-3.05 1.92z"/><path fill="#060402" d="M151.9 143.76c-.17-3.99-.8-7.93-1.41-11.87-1.39-8.9-2.73-17.82-4.14-26.71-.9-5.67-1.93-11.33-2.85-17-.12-.76-.56-1.3-.86-1.94-.61-1.29-.39-2.26.73-3.16 1.06-.85 2.19-1.61 3.26-2.43.64-.49 1.11-.44 1.57.27.68 1.04 1.09 2.3 2.2 3.03.29.19.37.53.27.85-.81 2.55.07 4.95.63 7.39 1.52 6.51 2.63 13.09 3.68 19.69.65 4.08 1.76 8.08 2.54 12.13 1.11 5.71 2.43 11.4 2.94 17.21.17 1.96.21 3.99-.06 5.93-.37 2.66-1.71 4.72-4.42 5.75-5.65 2.13-10.96.48-14.91-4.66-4.29-5.58-6.84-11.86-7.67-18.84-.21-1.74-.36-3.49-.52-5.23-.08-.85.16-1.51.95-2.02 1-.64 1.86-1.49 2.85-2.14 1.46-.94 2.96-1.14 4.38.14.71.64 1.48 1.22 2.13 1.92.63.67.77 1.52.67 2.46-.76 7.21 1 13.88 4.46 20.16.46.84.96 1.68 1.71 2.29.85.7 1.35.49 1.66-.58.27-.88.17-1.76.21-2.64z"/><path fill="#FA2063" d="M72.43 69.83c-2.5-.5-4.95-.03-7.34.59-1.67.43-2.85 1.58-3.67 3.18-3.41 6.67-5.51 13.77-7.23 21.01-1.36 5.76-2.38 11.57-2.98 17.46-.04.38.01.81-.46 1.1-.68-.03-1.27-.45-1.24-1.11.16-3.3-1.09-6.43-1.1-9.7-.01-2.72.53-5.42 1.12-8.04 1.06-4.73 1.93-9.53 3.74-14.07 1.54-3.85 3.5-7.49 5.49-11.11 1.23-2.24 2.48-4.46 3.7-6.7.78-1.44 1.83-2.72 3.31-3.35 1.71-.73 2.07-1.96 1.69-3.46-.33-1.31.03-1.83 1.29-1.84 1.34-.01 2.4-.82 3.6-1.24 2.5-.88 5.14-1.13 7.7-1.72 4.04-.93 8.08-1.86 12.22-2.31.39-.04.78-.05 1.33-.08-.34.9-1.08 1.02-1.64 1.32-5.62 2.92-10.94 6.29-15.71 10.49-2.47 2.18-2.67 3.82-.87 6.68-.81 1.12-1.97 1.92-2.95 2.9z"/><path fill="#060402" d="M109.09 69.54c.04 0 .61.17 1.15.09 2.7-.39 4.52 1.25 6.32 2.78 1.49 1.27 1.49 2.74.31 4.42-.61.86-1.04 2.08-1.87 2.49-.96.47-1.78-.76-2.66-1.24-.73-.4-1.5-.46-2.31-.41-3.44.19-6.79.9-10 2.1-3.12 1.16-6.36 2.12-9.05 4.23-1.47 1.15-3.05-.08-4.58.12-.13.02-.34-.3-.46-.5-1.43-2.43-1.19-4.13.98-6.12 4.15-3.8 9-6.27 14.52-7.38 2.35-.48 4.72-.74 7.65-.58zM182.24 64.29c2.95-.11 5.76.75 8.34 1.86 1.71.74 2.96 2.56 4.4 3.91.31.29.45.72.24 1.09-.89 1.61-1.58 3.33-2.71 4.8-.4.52-.82.72-1.42.36-.34-.2-.78-.33-1.01-.62-1.28-1.68-3.09-1.77-4.95-1.71-3.99.14-7.88.94-11.77 1.77-.67.15-1.34.88-2.02.35-.86-.67-1.79-1.37-2.18-2.45-.32-.89-.6-1.83-.7-2.77-.25-2.45.15-2.88 2.5-3.8 2.75-1.08 5.47-2.19 8.44-2.51.95-.07 1.89-.17 2.84-.28z"/><path fill="#FDFDFD" d="M122.74 119.98c.04.91.21 1.83-.34 2.66.18-.88-.47-1.86.34-2.66z"/><path fill="#060402" d="M90.03 375.96c-.1-1.17.4-2.64 1.64-3.8.94-.88 2-1.5 2.19-3.1.12-1.03 1.57-1.49 2.64-1.8 3.06-.88 7.64 1.03 9.07 3.87.93 1.83.51 3.8-.13 5.59-1.3 3.69-3.94 6.07-7.69 7.21-.92.28-1.73.24-2.33-.62-.52-.75-1.02-1.37-2.13-.97-.76.27-1.38-.22-1.74-.91-.8-1.55-1.57-3.12-1.52-5.47zm7.18 2.85c.76-.02 1.37-.41 1.93-.86 1.16-.95 1.74-2.25 2.16-3.65.12-.41.18-.8-.2-1.08-.43-.33-.93-.28-1.31.05-.81.71-1.77 1.05-2.79 1.29-.76.18-1.21.8-1.55 1.41-.73 1.31.29 2.89 1.76 2.84zM208.2 266.84c-4.12-.17-7.73.66-11.4.75-4.46.11-8.86.74-13.22 1.68-.65.14-1.38.18-1.72-.48-1.31-2.5-3.07-4.87-2.1-8.02.22-.73.39-1.01 1.17-1.12 6-.86 12-1.7 18.07-1.85 2.07-.05 4.11-.54 6.19-.55 1.89 0 3.8-.51 5.65.4.36.18.93-.06 1.4-.09 3.17-.16 5.85 2.62 5.56 5.77-.14 1.56-1.37 2.08-2.55 2.51-1.18.43-2.43.79-3.68.95-1.25.18-2.54.05-3.37.05zM215.98 313.88c-.02.29-.01.38-.03.45-1.17 3.14-2.51 6.14-5.8 7.67-.86.4-1.7.37-2.53 0-2.12-.96-3.74-4.75-2.96-6.94.71-2.01 1.96-3.65 3.63-4.96 1.76-1.37 3.52-.57 5.19.18 1.56.71 2.28 2.13 2.5 3.6zm-4.44-.38c-.87-.07-1.29.34-1.75.63-.44.28-.76.63-.33 1.15.34.4.47 1.09 1.19 1.02.62-.06.69-.55.73-1.04.04-.54.1-1.08.16-1.76zM258.73 404.88c1.12 1.36 2.62 1.66 4.48 1.38-.14 1.14-.38 2.04-.05 3.12.65 2.1-.81 3.23-2.92 2.56-.99-.31-1.97-.65-2.93-1.03-2.9-1.17-4.86-4.11-4.68-7.13.05-.84.37-1.64.99-2.36 1.48-1.7 3.19-3.15 4.98-4.45 1.6-1.17 3.62-1.08 5.52-.82.75.1 1.08.91 1.16 1.65.15 1.51-.6 2.96-.27 4.5.07.32-.33.51-.59.68-.64.42-1.12.8-.58 1.72.4.67-.13 1.17-.79.91-1.25-.5-2.66-.49-3.8-1.25-.29-.09-.62-.47-.87-.18-.18.18.08.52.35.7z"/><path fill="#FA2063" d="M258.73 404.88c-.27-.18-.53-.52-.35-.73.25-.29.58.09.87.18-.18.18-.35.36-.52.55z"/><path fill="#060402" d="M230.92 389.53c.07-.11.21-.25.19-.34-.05-.19-.22-.21-.28-.05-.03.09.09.23.15.35l-.06.04z"/><path fill="#FDFDFD" d="M97.21 378.81c-1.47.05-2.49-1.53-1.76-2.84.34-.61.79-1.24 1.55-1.41 1.02-.24 1.98-.58 2.79-1.29.38-.34.88-.38 1.31-.05.37.29.32.68.2 1.08-.42 1.4-1 2.7-2.16 3.65-.56.45-1.17.83-1.93.86z"/></g><g class="frame--1" fill-rule="evenodd" clip-rule="evenodd"><path fill="#060402" d="M99.76 130.32c3.66 1.4 7.32 1.79 11.03.11 1.14-.52 2.38-.87 3.61-1.15 3-.7 5.2-2.59 7.25-4.72.53-.55.82-1.15.75-1.91.54-.83.38-1.75.34-2.66.08-.23.22-.45.23-.68.08-2.9 2-3.58 4.41-3.69.95-.04 1.84-.53 2.92-.4.36 3.56.9 7.09-.3 10.64-.6 1.8-.88 3.71-1.31 5.57-.22.96-.65 1.54-1.82 1.39-.96-.12-1.85.32-2.73.75-3.21 1.58-6.4 3.26-9.85 4.26-4.26 1.23-8.59 1.69-12.97.52-3.74-.99-6.89-2.88-9.44-5.8-2.88-3.3-4.74-7.18-6.41-11.17-.32-.76-.33-1.36.68-1.61 1.52-.39 2.6-1.51 3.88-2.54 2.21 4.01 3.97 8.25 7.25 11.51.55.95 1.58 1.16 2.48 1.58z"/><path fill="#FDFDFD" d="M122.74 119.98c.04.91.21 1.83-.34 2.66.18-.88-.47-1.86.34-2.66z"/><path fill="#060402" d="M206.23 113.2c.04.73.14 1.14.07 1.52-.78 3.96-1.46 8.04-3.85 11.38-2.41 3.38-5.66 5.56-10.17 4.61-.5-.1-.92-.11-1.38.11-4.97 2.47-9.78 1.53-14.43-.87-2.89-1.49-5.11-3.78-6.89-6.51-2.65-4.07-4.28-8.52-5.29-13.37 2.74 0 5.27.02 7.79-.01.77-.01 1.13.27 1.33 1.03.53 2.01 1.22 3.97 1.7 5.99.49 2.07 1.52 3.47 3.73 3.79.23.03.53.06.68.2 2.52 2.38 5.86 2.3 8.94 2.92 1.52.3 2.88.2 4.45-.85 3.84-2.57 4.6-6.28 4.86-10.37.01-.15.09-.29.19-.62 2.51 1.48 5.03 3.06 8.27 1.05z"/></g><g class="frame--2" fill-rule="evenodd" clip-rule="evenodd"><path fill="#060402" d="M117.01 100.35c1.52 0 3.04-.01 4.56 0 2.11.02 3.71.77 4.43 2.93.31.92.99 1.58 1.66 2.29 1.45 1.53 3.25 3.02 2.06 5.59-.14.3.06.77.14 1.15.51 2.43.67 4.89.84 7.36.08 1.2.12 2.38-.14 3.57-.64 2.95-1.11 5.94-2.09 8.8-1.09 3.19-3.25 4.73-6.62 4.85-.48.02-1 .14-1.43-.01-2.16-.76-4 .33-5.96.89-6.27 1.8-12.43 1.87-18.26-1.57-2.38-1.4-4.25-3.37-5.84-5.59-2.25-3.13-3.9-6.59-5.22-10.2-.78-2.14-1.02-4.38-.69-6.62.24-1.63 1.08-3.24 2.26-4.23 2.96-2.5 5.64-5.45 9.47-6.78.91-.32 1.81-.7 2.77-.71 3.29-.01 6.5-.46 9.71-1.18 2.72-.6 5.55-.55 8.35-.54zm-8.18 7.22c-2.83-.2-5.56.38-8.28 1.1-.6.21-1.21.4-1.81.63-5.1 1.99-5.4 3.35-5.78 7.88-.34 4 1.5 7.24 3.44 10.46 2.5 4.14 6.27 5.89 11.02 5.88 2.41-.01 4.73-.57 7.09-.82 2.08-.22 3.8-1 5.52-2.01 1.36-.8 2.06-1.89 2.24-3.44.67-5.73.75-11.45-.03-17.17-.24-1.74-.42-2.06-2.23-2.17-3.71-.22-7.43-.93-11.18-.34z"/><path fill="#FDFDFD" d="M108.83 107.57c3.75-.58 7.47.12 11.2.34 1.81.11 1.99.42 2.23 2.17.78 5.72.7 11.44.03 17.17-.18 1.55-.88 2.64-2.24 3.44-1.73 1.02-3.45 1.8-5.52 2.01-2.36.25-4.68.81-7.09.82-4.76.02-8.52-1.73-11.02-5.88-1.94-3.22-3.78-6.46-3.44-10.46.38-4.53.68-5.89 5.78-7.88.59-.23 1.2-.42 1.8-.63 1.96.08 3.91-.12 5.85-.4.79-.12 1.74-.01 2.42-.7zm10.57 18.77c-.01-1.46-.82-2.64-1.81-2.62-.87.02-3.09 1.08-3.05 1.53.09 1.17.97 1.74 1.91 2.24.21.11.38.29.59.39 1.57.8 2.37.28 2.36-1.54z"/><path fill="#060402" d="M119.4 126.34c.01 1.82-.79 2.34-2.36 1.54-.21-.11-.39-.28-.59-.39-.93-.5-1.81-1.06-1.91-2.24-.04-.44 2.19-1.51 3.05-1.53.99-.02 1.8 1.16 1.81 2.62zM181.04 94.74c2.04.21 3.53-.18 5.04-.25 3.18-.14 6.38-.52 9.51.44.15.05.32.08.47.07 3.93-.28 6.37 1.98 8.47 4.89.63.88 1.06 1.72 1.01 2.84-.08 1.85 1.02 3.48 1.08 5.35.11 3.75-.11 7.42-1.38 10.99-.61 1.71-.92 3.52-1.65 5.2-1.55 3.55-6.46 7.7-11.28 6.44-.49-.13-.91-.15-1.38.08-5.05 2.49-9.91 1.54-14.61-.95-3.97-2.1-6.56-5.54-8.51-9.46-2.11-4.24-3.54-8.71-3.96-13.47-.09-1.05-.19-1.99 1.36-1.71.8.14.95-.34.85-1-.24-1.59.47-2.82 1.62-3.79 3.48-2.93 7.42-4.96 11.95-5.68.63-.08 1.28.01 1.41.01zm11.19 28.68c2.63-2.52 4.79-5.02 4.92-8.8.11-3.11.19-6.22.08-9.32-.07-2.13-.1-2.1-2.19-2.38-1.15-.16-2.52.16-3.29-1.03-.7-1.08-1.6-1.41-2.81-1.29-.46.04-1.01-.03-1.39-.26-1.85-1.13-3.67-.61-5.53-.08-1.07.31-2.14.71-3.23.82-1.68.17-3.13.9-4.78 1.36.96 1.29.88 2.56.55 3.82-.31 1.17-.46 2.35-.41 3.55.16 3.67.79 7.18 2.37 10.59 2.03 4.4 5.51 6.48 10.24 5.55.32-.06.61-.16.91.01.92.5 1.63.17 1.83-.74.19-.85 1.25-.47 1.54-1.11-1.21-.79-2.33-1.39-3.32-2.17-1.55-1.24-1.52-1.65.06-2.82.86-.63 1.85-.99 2.89-.7.78.22 1.55 1.99 1.45 3.03-.04.53-.33 1.06.11 1.97z"/><path fill="#FDFDFD" d="M192.23 123.42c-.45-.91-.15-1.44-.1-1.98.1-1.04-.67-2.81-1.45-3.03-1.04-.29-2.04.07-2.89.7-1.58 1.16-1.61 1.58-.06 2.82.98.78 2.1 1.39 3.32 2.17-.3.64-1.35.26-1.54 1.11-.2.91-.92 1.24-1.83.74-.3-.17-.59-.07-.91-.01-4.73.93-8.21-1.15-10.24-5.55-1.58-3.41-2.21-6.92-2.37-10.59-.05-1.2.1-2.38.41-3.55.33-1.26.41-2.53-.55-3.82 1.64-.46 3.1-1.19 4.78-1.36 1.09-.11 2.16-.51 3.23-.82 1.85-.53 3.68-1.05 5.53.08.38.23.94.3 1.39.26 1.21-.11 2.11.22 2.81 1.29.77 1.19 2.15.87 3.29 1.03 2.09.29 2.12.25 2.19 2.38.1 3.11.03 6.21-.08 9.32-.14 3.79-2.3 6.29-4.93 8.81z"/></g><g class="frame--3 frame--4 frame--5" fill-rule="evenodd" clip-rule="evenodd"><path fill="#060402" d="M130.68 119.06c.31 5.03-1.16 9.75-2.78 14.41-.89 2.56-3.47 3.37-5.66 3.32-3.32-.09-6.35.58-9.5 1.43-3.87 1.04-7.86 1.18-11.82.06-5.31-1.51-9.03-4.93-11.83-9.52-1.16-1.91-2.1-3.95-3.06-5.97-2.11-4.42-2.12-8.99-.89-13.58 1.13-4.19 2.74-8.2 5.9-11.36 2.4-2.4 5.06-4.38 8.61-4.75 1.26-.13 2.4-.75 3.67-.97 2.67-.45 5.24-.25 7.79.5 2.5.74 5 1.47 7.46 2.42 4.74 1.83 7.5 5.24 9.15 9.79 1.66 4.58 2.79 9.29 2.96 14.22zm-7.82-.27c-.31-5.04-.46-9.75-1.99-14.28-.57-1.68-1.6-2.87-3.12-3.77-1.61-.95-3.3-1.07-5.08-.83-1.39.19-2.67.1-3.68-1.15-.41-.51-1.09-1.11-1.87-.76-1.96.87-4.03 1.6-5.78 2.79-5.42 3.71-7.27 9.44-8.26 15.54-.67 4.15 1.25 7.61 3.23 11 2.54 4.34 6.47 6.14 11.4 6.12 3.05-.01 6.03-.62 8.96-1.24 3.89-.83 5.39-2.89 5.69-6.85.17-2.3.35-4.6.5-6.57z"/><path fill="#FDFDFD" d="M122.86 118.79c-.15 1.97-.32 4.27-.5 6.58-.3 3.97-1.8 6.02-5.69 6.85-2.94.63-5.91 1.23-8.96 1.24-4.93.02-8.86-1.78-11.4-6.12-1.98-3.39-3.9-6.85-3.23-11 .99-6.1 2.84-11.84 8.26-15.54 1.75-1.19 3.82-1.93 5.78-2.79.78-.34 1.46.26 1.87.76 1.01 1.24 2.29 1.33 3.68 1.15 1.78-.24 3.47-.12 5.08.83 1.52.9 2.55 2.08 3.12 3.77 1.53 4.52 1.67 9.23 1.99 14.27zm-3.45 7.67c0-.4.12-.85-.02-1.18-.34-.77-.74-1.61-1.75-1.69-.84-.06-3.33 1.22-3.26 1.65.18 1.22 1.1 1.86 2.1 2.41.21.11.39.28.6.38 1.53.74 2.34.19 2.33-1.57z"/><path fill="#060402" d="M119.41 126.46c.01 1.77-.81 2.31-2.34 1.58-.21-.1-.39-.27-.6-.38-.99-.55-1.92-1.19-2.1-2.41-.06-.43 2.42-1.71 3.26-1.65 1 .07 1.4.91 1.75 1.69.16.32.03.77.03 1.17zM188.78 87.99c3.22.01 6.15.88 8.49 3.19 1.93 1.9 3.64 3.94 4.93 6.38 1.26 2.38 2.96 4.52 3.69 7.19.7 2.56 1.15 5.07.55 7.74-.37 1.61-.01 3.35-.64 4.95-1.12 2.85-1.31 6.07-3.28 8.59-2.63 3.36-5.77 5.66-10.37 4.63-.41-.09-.79-.08-1.16.1-5.33 2.65-10.37 1.52-15.23-1.25-3.75-2.14-6.18-5.51-8.03-9.28-2.01-4.1-3.43-8.41-3.82-13.01-.26-3.03.41-5.87 1.67-8.58.77-1.65 2.06-2.73 3.83-3.35 1.5-.52 2.95-1.21 4.52-1.49.59-.11 1.04-.38 1.46-.75 1.4-1.23 3.07-1.98 4.67-2.88 2.72-1.53 5.63-2.17 8.72-2.18zm3.47 33.79c-.48.42-.46.9-.07 1.33.11.12.42-.01.49-.28.33-.34.68-.68 1-1.03 1.83-1.97 3.15-4.11 3.33-6.95.14-2.23.01-4.48.27-6.68.49-4.21-1.52-7.38-3.96-10.42-.7-.87-1.63-1.45-2.7-1.91-1.04-.44-1.38.82-2.31.64-3.46-.68-6.1 1.47-8.83 2.93-3.82 2.05-5 5.82-5.24 9.88-.17 3.04.41 6.05 1.41 8.89.75 2.13 1.51 4.4 3.53 5.84 1.91 1.36 3.93 2.43 6.37 2.23.65-.05 4.17-1.49 4.72-1.83.17-.11.38-.16.74-.29-1.78-1.09-3.64-1.86-4.76-3.53.58-.62.99-1.24 1.56-1.64 2.19-1.57 4.19-.61 4.51 2.11.03.23-.03.47-.06.71z"/><path fill="#FDFDFD" d="M192.25 121.78c.02-.24.09-.48.06-.72-.32-2.72-2.32-3.67-4.51-2.11-.57.41-.98 1.02-1.56 1.64 1.12 1.67 2.98 2.44 4.76 3.53-.35.14-.56.19-.74.29-.55.34-4.07 1.78-4.72 1.83-2.45.2-4.46-.87-6.37-2.23-2.01-1.43-2.78-3.71-3.53-5.84-1-2.83-1.58-5.85-1.41-8.89.23-4.06 1.42-7.83 5.24-9.88 2.73-1.46 5.37-3.62 8.83-2.93.93.18 1.27-1.08 2.31-.64 1.07.45 2 1.03 2.7 1.91 2.44 3.03 4.45 6.21 3.96 10.42-.26 2.21-.12 4.45-.27 6.68-.18 2.84-1.49 4.98-3.33 6.95-.33.35-.67.69-1 1.03-.45-.21-.5-.6-.42-1.04z"/><path fill="#FA2063" d="M192.25 121.78c-.08.44-.03.83.43 1.05-.07.27-.38.41-.49.29-.39-.44-.41-.92.06-1.34z"/></g></svg>