<svg xmlns="http://www.w3.org/2000/svg" width="18.98" height="14.27" viewBox="0 0 18.98 14.27"><path fill="#E62C66" d="M9.15 3.19c-.43.8-.85 1.63-1.28 2.49-.42.86-.81 1.73-1.17 2.6-.35.87-.65 1.73-.87 2.6-.23.87-.33 1.7-.3 2.49 0 .48-.21.77-.62.85-.41.09-.89.08-1.45-.02-.55-.1-1.1-.25-1.64-.45-.54-.2-.94-.35-1.19-.47-.11-.26-.21-.55-.28-.89-.07-.34-.13-.7-.17-1.08-.04-.38-.08-.76-.11-1.13C.06 9.8.03 9.47 0 9.19c.2-.34.33-.78.38-1.32.06-.54.16-1.04.3-1.49.08-.31.13-.5.13-.57v-.13c0-.01.01-.06.02-.15s.08-.28.19-.6c.06-.14.06-.26 0-.36-.06-.1-.06-.21 0-.32.06-.05.13-.12.21-.19.09-.07.15-.13.17-.19.08-.2.11-.34.08-.43-.02-.08.04-.21.18-.38.09-.14.22-.35.4-.64.19-.28.27-.53.24-.76.4-.28.74-.59 1.04-.91.3-.33.73-.58 1.3-.75.14.09.4.22.77.4.37.19.77.36 1.21.53.44.18.85.33 1.25.47.4.14.71.23.94.25 0 .11-.01.26-.02.43-.02.18-.02.35-.02.52 0 .17.03.31.09.43.05.1.15.16.29.16zm9.57-1.4c0 .11-.02.26-.06.43s-.06.33-.06.49c0 .16.02.29.06.4.04.11.15.17.32.17-.48.74-.97 1.5-1.47 2.28-.5.78-.96 1.57-1.38 2.38-.43.81-.78 1.61-1.06 2.4-.28.79-.44 1.57-.47 2.34 0 .45-.22.71-.66.77s-.95.02-1.53-.11c-.58-.13-1.15-.3-1.7-.51-.55-.21-.96-.38-1.21-.49-.11-.26-.2-.55-.26-.89-.06-.34-.1-.69-.13-1.04-.03-.35-.05-.71-.06-1.06-.02-.37-.03-.67-.03-.93.23-.31.38-.72.47-1.23.09-.51.21-.98.38-1.4.11-.28.17-.46.17-.53v-.13s.02-.06.04-.13c.03-.07.11-.25.26-.53.06-.14.06-.26 0-.36s-.06-.19 0-.28c.06-.06.13-.11.23-.17.1-.06.16-.11.19-.17.11-.17.16-.3.13-.38-.03-.08.03-.21.17-.38.11-.14.27-.33.47-.57.2-.24.3-.47.3-.7.4-.26.77-.52 1.13-.81.35-.28.84-.5 1.47-.64.14.09.4.23.77.43.37.2.78.39 1.23.57.46.19.89.35 1.32.51.42.15.74.24.97.27z"/></svg>