<svg xmlns="http://www.w3.org/2000/svg" width="845" height="468" viewBox="0 0 845 468"><g class="frame--1" fill-rule="evenodd" clip-rule="evenodd"><path d="M75.06 152.78l-.87.57c-1.13.29-2.3.44-3.38.92-.83.84-1.66 1.66-2.99 1.51-.4-.04-.6.17-.52.55.21.93-.49 1.33-1.08 1.65-2.07 1.1-3.82 2.64-5.58 4.11-2.8 2.34-6.15 3.89-8.89 6.3-.71.63-1.61 1.05-1.62 2.18l.03-.06c-.57.77-1.11 1.51-1.97 2.07-.65.43-1.35 1-1.54 2.16-.28 1.71-3.76 2.9-4.69 1.67-1.27-1.69-2.96-3.1-3.64-5.26-.73-2.32-.8-2.63 1.26-3.91 6.26-3.88 11.88-8.6 17.67-13.12 8.42-6.57 17.21-12.66 26.33-18.25 5.71-3.5 11.4-7.05 17.26-10.3.92-.51 1.3-1.27 1.21-2.14-.16-1.54.78-2.07 1.93-2.19 6.25-.65 12.44-1.76 18.73-2.17 8.58-.56 17.13-1.51 25.71-2.18 5.16-.4 10.32-.63 15.5-.78 2.1-.06 4.09.6 6.09.52 2.21-.09 4.45-.15 6.94-.29-.43-2.73-.77-5.36-1.27-7.96-.91-4.67-1.91-9.33-2.91-13.98-.15-.68.08-1.64-.57-1.98-.84-.44-2.19-.55-2.76-.04-1.1.98-2.23.48-3.31.56-1.72.13-3.47-.29-5.18.22-.14.04-.38.09-.45.02-.63-.64-1.2-.9-1.92-.07-.11.13-.64-.45-1.24-.07.49 3.73.99 7.57 1.51 11.4.23 1.66.55 3.3.76 4.95.28 2.24-.25 2.97-2.46 3.66-1.16.36-2.33.57-3.53.44-1.39-.15-1.85-.75-1.56-2.09.63-2.89.24-5.86.73-8.76.1-.58-.1-1.11-.43-1.58-.29-.41-.48-.92-.32-1.36.65-1.75-.68-3.17-.73-4.79-.03-1.18-1.25-1.26-1.84-1.93-.25-.28-.5-.02-.75.23-1.28 1.28-1.29 1.27-2.56-.3-1.07 1.16-2.22 2.2-3.97 1.42-.32-.14-.62-.08-.92.04-.14.06-.28.15-.4.26-.98.9-1.69-.19-2.51-.35-1.04-.21-1.17 1.58-2.33 1-.2-.1-.55-.14-.58-.27-.13-.67-.06-.93-.88-.32-.7.52-1.98.17-2.5 1.32-.07.15-.42.03-.58-.2-.72-.99-1.16-.61-1.76.21-.41.57-1.2.7-1.96.69-.71-.01-1.68-1.21-2.12.5-.06.25-1.54.7-2.04-.33-.26-.52-.6-.52-.93-.32-1 .61.24.47.29.75.05.25.06.6-.15.55-.86-.18-1.59 1.56-2.64-.02-.46-.69-1.84-.22-2.6.38-1.1.87-1.08.98-2.04.33-.29-.2-.29-.4-.62-.03-1.38 1.57-3.45 1.32-5.21 1.87-1.05.33-2.17.4-3.23.58-.41.61-.09 1.12.03 1.64.53 2.34.08 3.47-2.09 4.41-2.48 1.08-5.02 2.01-7.54 2.99-6.66 2.6-13.02 5.83-19.34 9.12-.84.44-1.63 1.01-2.36 1.62-.85.72-1.57 1.42-2.84 1.51-.96.06-1.52 1.22-2.47 1.69-1.23.6-2.17 1.78-3.71 1.72-.38-.02-.53.28-.74.52-1.31 1.47-2.85 2.6-4.7 3.32-2.02.79-3.53 2.41-5.44 3.39-1.78.91-3.04 2.8-5.3 2.82-.1 0-.3.18-.3.27.08 2.19-1.96 2.3-3.19 2.98-1.45.81-2.13 2.51-3.81 2.97-1.36.37-1.97 1.57-2.69 2.64-.88 1.31-2.29 2.17-3.47 3.1-1.81 1.42-3.4 3.07-5.17 4.52-.3.25-.65.47-.88.77-.68.92-1.28 1.86-2.45 2.34-.5.21-1.1.63-1.37 1.27-.39.96-1.24 1.4-2.21 1.8-1.73-2.31-3.43-4.63-5.2-6.9-.6-.77-.54-1.21.05-2.02 3.17-4.38 7.17-7.91 11.36-11.26 10.89-8.7 22.77-15.91 34.56-23.26 8.41-5.24 17-10.16 26.07-14.18 1.61-.71 3.21-1.44 4.88-2 1.05-.35 1.39-.94 1.27-1.94-.01-.08.03-.16.03-.24-.01-3.66-.01-3.64 3.51-4.21 8.43-1.36 16.86-2.65 25.25-4.23 7.45-1.41 14.95-2.5 22.51-3 7.39-.48 14.81-.8 22.19.37 1.61.26 1.62.21 2.05-1.42.08-.3.13-.6.21-.97 1.95.29 3.37.97 3.83 3.06.25 1.15 1 1.92 2.42 1.77.94-.1 1.95-.01 2.83.39 1.43.65 2.57.55 3.45-.89.29-.46.83-.76 1.16-1.21 2.37-3.2 5.74-4.83 9.45-5.69 4.08-.95 8.22-1 12.28.35.53.18 1.05.38 1.56.6.85.37 1.62 1.38 2.5 1.13.73-.21 1.23-1.18 1.84-1.8 5.54-5.58 11.67-10.3 18.77-13.86 7.17-3.6 14.58-5.93 22.6-6.47 1.48-.1 3.19.26 4.54-.84h6.72c1.13 1.01 2.62.68 3.88.79 6.77.55 13.08 2.77 19.39 5.02 9.76 3.47 18.92 8.09 27.51 13.87 7.47 5.03 14.04 11.05 19.89 17.87 2.7 3.15 5.29 6.38 7.61 9.84 4.34 6.45 7.23 13.52 9 21.02 3.17 13.44 1.52 26.43-4.07 39.01-1.53 3.45-3.37 6.7-5.44 9.83-.61.92-1.31 1.79-1.67 3.12 6.98-1.57 13.91-1.1 20.81-1.35 6.05-.22 12.11-.31 18.14.21 7.7.65 15.36 1.57 22.98 2.97 7.12 1.31 14.26 2.47 21.22 4.51 2.9.85 5.84 1.61 8.58 2.97 2.37 1.17 3.73 2.92 3.61 5.65-.01.23.07.47.12.76 1.91-.24 3.7-.96 5.51-1.52 16.31-5.06 32.85-9.24 49.46-13.16 13.12-3.1 26.22-6.27 39.38-9.21 12.83-2.87 25.68-5.7 38.59-8.18 14.71-2.82 29.49-5.26 44.28-7.63 8.97-1.44 17.95-2.8 26.94-4.03 9.15-1.25 18.33-2.29 27.53-3.18 6.34-.62 12.69-1.28 19.04-1.74 11.05-.8 22.11-1.6 33.18-2.08 7.97-.35 15.94-.79 23.91-1.02 3.59-.11 7.17-.27 10.76-.35 10.62-.23 21.24-.44 31.86-.64 8.36-.16 16.72.01 25.05.84 1.66.17 3.06.51 3.69 2.38.27.79.63 1.62 1.43 2.32-1.53.77-1.8 2.92-4.19 2.2 1.25 2.94-.43 4.85-1.39 6.92-.37.79-1.12 1.2-1.98 1.59-5.13 2.34-10.57 3.9-15.71 6.21-2.87 0-5.24 1.72-7.96 2.34-1.97.45-3.95 1.13-5.9 1.77-4.85 1.6-9.78 2.93-14.72 4.19-5.28 1.34-10.54 2.78-15.8 4.17-4.72 1.24-9.42 2.62-14.12 3.93-3.13.88-6.35 1.71-9.61 2.28-2.7.46-5.48.95-8.04 1.79-3.18 1.04-6.39 1.92-9.64 2.58-3.67.75-7.29 1.67-10.92 2.55-3.99.97-7.96 2.02-11.95 3-1.73.43-3.58.64-5.21 1.17-3.17 1.04-6.46 1.43-9.64 2.34-3.72 1.07-7.48 2-11.29 2.65-1.44.25-2.71.87-4.11 1.16-6.32 1.32-12.56 2.95-18.86 4.38-3.39.77-6.83 1.4-10.17 2.54-2.73.94-5.67 1.26-8.5 1.88-5.27 1.15-10.53 2.31-15.77 3.61-8.55 2.12-17.12 4.15-25.71 6.1-1.79.4-3.55.93-5.36 1.22-.38.06-.83.03-.95.68 4.06.66 8.12 1.3 12.17 1.99 5.01.85 10.02 1.73 15.03 2.64 6.96 1.28 13.92 2.56 20.87 3.92 6.8 1.34 13.57 2.79 20.36 4.17 11.79 2.39 23.6 4.72 35.38 7.15 7.24 1.49 14.45 3.13 21.69 4.65 5.81 1.21 11.64 2.33 17.46 3.5 5.22 1.05 10.43 2.15 15.66 3.18 6.79 1.33 13.51 2.96 20.29 4.3 4.45.88 8.84 2.06 13.32 2.77.94.15 1.85.46 2.78.68 3.55.85 7.19 1.31 10.69 2.24 3.22.85 6.51 1.43 9.71 2.4 3.63 1.1 7.36 1.89 11.04 2.88 6.52 1.76 13.05 3.44 19.48 5.53 4.46 1.45 9 2.65 13.42 4.23.62.22.88.38 1.03.98.48 1.96.67 3.96.26 5.92-.42 2.03-2.05 3.2-3.76 4.09-3.92 2.02-8.01 3.39-12.48 3.71-4.86.35-9.74.98-14.59.76-4.36-.2-8.71-.05-13.07-.39-3.65-.28-7.34-.1-11.01-.21-3.66-.11-7.33-.24-10.96-.86-1.08-.18-2.23-.1-3.34-.04-2.33.14-4.56-.59-6.86-.72-5.15-.28-10.32-.49-15.43-1.19-3.99-.55-8.01-.46-11.99-.91-2.98-.33-5.87-1.17-8.87-1.34-1.04-.06-2.08-.13-3.1-.07-1.3.08-2.52.19-3.63-.69-.22-.18-.62-.23-.92-.21-4.08.31-7.94-1.11-11.91-1.49-3.33-.32-6.76-.32-10-1-2.88-.6-5.74-1.37-8.67-1.46-1.55-.05-3.1-.75-4.67-.15-2.1-1.78-4.94.28-7.07-1.36-4.02-.29-7.9-1.45-11.93-1.72-2.86-.19-5.68-.92-8.53-1.34-2.79-.41-5.62-.91-8.39-1-2.28-.08-4.29-.79-6.43-1.15-2.97-.51-5.86-1.66-8.95-1.3-.15.02-.33-.03-.46-.1-3.28-1.65-6.97-1.37-10.43-2.18-2.23-.52-4.52-.81-6.79-1.16-2.17-.33-4.41-.22-6.61-.48-.58-.07-1.12.16-1.7-.31-.7-.57-1.8-.81-2.5-.56-2.12.76-4.04-.92-6.09-.26-1.24-1.34-2.81-.17-4.15-.54-1.46-.41-2.97-.49-4.44-.69-2.92-.38-5.8-.93-8.68-1.56-1.1-.24-2.34-.06-3.16-1.15-.18-.24-.66-.39-.88-.16-1.05 1.12-2.27.12-3.38.32-.75-.52-1.7-.58-2.46-1.07-1.2.08-2.4.22-3.35-.77l-1.41-.06c-2.58.14-5.11-.62-7.69-.44-.85-.6-1.66-1.08-2.81-1.19-2.25-.21-4.49-.71-6.71-1.16-.95-.19-1.69.93-2.69.31-.23-.14-.6-.06-.91-.09.29-.89-.44-.73-.88-.86-.53-.16-1.1-.59-1.6-.33-.93.47-1.71.93-2.87.53-1.19-.41-2.51-.44-3.76-.64-1.26-.21-2.51-.44-3.77-.64-7.47-1.18-14.91-2.48-22.31-4.05-5.75-1.22-11.49-2.47-17.26-3.57-5.38-1.03-10.79-1.92-16.24-2.56-.58-.07-1.09.05-1.64.11-1.35.13-1.82 0-1.56-1.53.06-.36.18-.78-.16-1.25-2.28 0-4.44.89-6.66 1.4-11.95 2.74-23.9 5.5-35.82 8.38-5.57 1.34-11.1 2.9-16.61 4.48-4.28 1.22-8.64 2.06-12.91 3.34-6.54 1.96-13.18 3.61-19.76 5.46-1 .28-2.01.42-3.02.63-4.58.97-9.17 1.91-13.7 3.1-3.53.93-7.18 1.44-10.7 2.82.61 1.01 1.67 1.49 2.57 2.03 6.63 4.05 11.11 9.94 14.49 16.78 2.6 5.26 4.43 10.82 5.08 16.62.54 4.79.65 9.66-.32 14.49-.61 3.04-1.01 6.11-1.9 9.1-.36 1.23-.85 2.4-1.31 3.58-4.59 11.67-11.55 21.56-21.38 29.49-7.26 5.86-15.46 9.81-24.02 13.19-6.41 2.54-13.1 3.99-19.86 5.1-3.23.53-6.49.85-9.78.83-.46 0-.98-.12-1.29.39h-15.84c-1.3-.8-2.76-.41-4.13-.46-11.37-.47-22.31-2.77-32.52-7.92-9.66-4.87-17.77-11.56-23.51-20.88-.79-1.28-1.51-2.6-2.48-4.26-.33 1.38-.89 1.99-2.13 1.94-1.37-.06-2.66-.24-3.96-.72-4.81-1.77-8.72-4.56-10.92-9.35-.57-1.24-1.38-1.88-2.79-1.46-.31.84.18 1.76-.3 2.64-.36 0-.75.06-1.11-.01-1.78-.35-3.18-.05-3.92 1.87-.35.9-1.08 1.38-2.08.66-.27-.19-.59-.14-.92-.07-3.8.88-7.57.15-11.36-.21-3.56-.34-7.14-.31-10.69-.81-2.89-.41-5.78-.88-8.69-1.12-2.03-.17-4.16.25-6.06-.63-2.42-1.12-5.12-.47-7.54-1.41-1.74.86-3.41-1.35-5.25-.06-.59.41-1.01-.9-2.03-.82-1.49.11-3.02-.36-4.53-.55-.54-.07-1.09.04-1.47-.56-.28-.44-.81-.49-1.29-.37-2.7.68-3.69.66-6.12-.14-.36-.12-.85-.23-1.16-.08-.99.46-.87-.71-1.41-.87-.48-.13-.99-.63-1.4.11-2.19.69-3.97.31-5.39-1.16-.4-.41-.93-.54-1.02.11-.09.61-.33.62-.74.55-3.04-.52-6.06-1.12-9.11-1.57-2.16-.32-4.05-1.51-6.23-1.72-.25-.02-.41-.08-.55-.31-1.39-2.25-.8-7.25 1.12-8.98.58-.53 1.34-.38 2.05-.22 8.56 1.89 17.22 3.15 25.92 4.26 6.81.87 13.66 1.27 20.49 1.87 5.32.47 10.64.92 15.93 1.67 1.07.15 2.17.02 3.41.02-.02-2.44.34-4.86-.15-7.29-.11-.54-.28-1.24-.05-1.64 1.16-2.01.56-4.17.64-6.25.08-2.14.95-3.09 3.03-3.03 3.81.1 3.76.14 3.65 4.05-.08 2.87.1 5.74.13 8.61.02 2.13-.61 4.24-.19 6.47 1.72.19 3.44.49 5.18.54 2.31.07 4.61.2 6.9.54.89.13 1.61.15 1.58-1.08-.02-.78.31-1.14 1.2-.95 1.1.24 1.27-.42 1.3-1.39.1-4.15-.6-8.26-.67-12.4-.04-1.99.27-3.96.24-6.27-3.39.96-6.65-.02-9.96.12-5.55.23-11.1-.18-16.64-.54-2.52-.16-4.99-1.15-7.53-1.08-3.43.09-6.62-1.17-9.99-1.44-2.18-.18-4.42-.35-6.61-.63-2.19-.28-4.45-.12-6.67-.18-3.49-.09-6.99-.45-10.48-.7-1.47-.1-2.84-.84-4.44-.43-.63.16-1.45-.54-2.2-.78-1.48-.47-1.82-.27-1.96 1.23-.14 1.63-1.11 2.9-1.56 4.68-3.64-2.82-7-5.44-10.38-8.03-.95-.73-1.98-1.32-3.05-1.87-3.06-1.57-5.53-3.97-8.21-6.05-4.38-3.4-8.89-6.62-13.26-10.02-3.96-3.08-7.69-6.45-11.53-9.69-1.83-1.55-3.6-3.16-5.49-4.62-1.23-.95-1.85-2.37-2.95-3.38-1.93-1.79-3.75-3.67-5.49-5.64-.9-1.02-1.76-2.06-2.53-3.18-1.75-2.55-.93-5.86 1.81-7.26 1.47-.74 2.13-.57 2.76.96.51 1.26 1.5 2.07 2.44 2.9 6.34 5.58 12.83 10.99 19.39 16.31 8 6.48 15.83 13.17 23.71 19.79 2.51 2.1 4.96 4.26 7.47 6.37 1.22 1.02 1.34.98 2.15-.33.46-.74 1.02-1.46 1.32-2.26.42-1.15 1.32-1.3 2.08-.85 2.11 1.25 4.47 1.1 6.72 1.35 7.13.77 14.28 1.28 21.41 1.99 4.75.47 9.48 1.23 14.24 1.66 4.52.41 9.02.97 13.52 1.57 6.78.91 13.67 1.03 20.38 2.5.39.09 1-.03 1.15.2 1.22 1.79 2.53.63 3.74.13 3.01-1.27 6.23-1.26 9.37-1.69 1.88-.25 1.93-.2 2.01-2.05.03-.76.23-1.41.62-2.02 3.7-5.72 8.32-10.48 14.39-13.69.77-.41 1.61-.82 2.46-.92 1.79-.21 2.7-1.29 3.64-2.69 3.62-5.4 8.54-9.44 14.02-12.82 6.08-3.75 12.68-6.41 19.26-9.07 14.25-5.77 29.07-9.63 44.1-12.64 4.91-.98 9.91-1.53 14.89-2.17 9.25-1.17 18.45-2.58 27.65-4.08 11.32-1.85 22.62-3.86 33.79-6.51 7.69-1.82 15.38-3.66 22.77-6.5 3.72-1.43 7.32-3.14 10.92-5.39-2.19-1.32-4.38-2.15-6.62-2.8-5.06-1.46-10.23-2.39-15.44-3.18-4.64-.7-9.3-1.15-13.95-1.79-1.65-.23-3.33-.29-4.99-.27-4.8.08-9.51-1.11-14.3-.95-3.81.13-7.59-.37-11.36-.63-5.92-.41-11.86-.48-17.77-1.08-2.54-.26-5.11-.14-7.66-.21-6.55-.19-13-1.16-19.47-2.1-2.89-.42-5.7-1.2-8.55-1.8-3.38-.71-6.55-2.07-9.9-2.77-3.11-.65-5.88-2.18-8.87-3.06-1.8-.53-3.4-1.22-4.94-2.19-.2-.13-.52-.41-.58-.36-1.26.95-1.91-.49-2.84-.74-1.06-.29-2.25-.6-3.04-1.3-2.02-1.76-4.88-1.92-6.8-3.79-3.3-.37-5.41-3.09-8.31-4.24-.22-.09-.43-.21-.62-.36-4.85-3.76-10.37-6.52-15.23-10.26-6.16-4.74-11.91-9.95-16.76-16.02-5.56-6.95-9.36-14.84-10.81-23.69-.64-3.91-.9-7.9-.25-11.87.25-1.49-.07-2.53-1.43-3.38-1.76-1.09-3.21-2.59-4.77-3.96-1.96-1.73-4.53-2.16-6.99-3.09 0 1.38.1 2.57-.02 3.74-.28 2.84-.93 3.82-3.85 3.61-2.19-.16-4.38-.34-6.56-.63-1.9-.26-3.9.12-5.83.31-.9.09-1.62-.3-2.46-.18-2.07.29-4.17-.08-6.24.83-.86.37-2.24-.14-3.38-.24-3.47-.32-6.86.16-10.29.35-1.32.08-2.79.49-3.96-.84-.23-.26-1.52-.84-1.87.48-.21.79-1.01.32-1.4.37-1.21.15-2.47-.19-3.69.23-.2.07-.64.03-.67-.06-.5-1.49-1.82-.31-2.61-.82-.35-.14-.95 0-1.03-.35-.42-1.81-1.61-1.29-2.75-1.01-.22-.01-.44-.03-.65-.07-2.3-.5-4.45.03-6.51 1.04-.35.22-.49.6-.72.91-1.07 1.17-2.54.7-3.76.68-2.73-.03-5.09.67-7.58 1.81-7.35 3.37-13.63 8.55-20.93 11.95-.97.45-1.43 1.57-2.15 2.07-1.6 1.12-2.62 2.88-4.42 3.7-2.13.49-4.02 1.41-5.3 3.33z"/><path fill="#A9A9A9" d="M551.74 263.75c2.65-1.28 5.16-.22 7.69.44-.17.33.67 1.22-.49.97-2.39-.52-4.86-.63-7.2-1.41zM560.84 264.25l3.84.51c.36.54.39.92-.43.87-1.02-.12-2.04.24-3.07-.05-.96-.27-.78-.75-.34-1.33z"/><path fill="#7A7A7A" d="M564.25 265.63c.36-.19.41-.52.43-.87.75.31 1.58.49 1.97 1.33-.83-.02-1.71.3-2.4-.46z"/><path d="M29.6 293.87c-1.11-.89-.95-2.66-2.15-3.44-.48.21-.41.46-.31.66.36.67 1.2 1.48.31 2.04-.58.36-1.45-.29-1.84-1.06-.21-1.09-.79-2-1.4-2.89-.21-.54-.52-.93-1.18-.85-1.4.17-1.89-.01-3.09-1.13.07-.31.05.12.08-.2.03.08-.02.15-.02.23-1.65-.19-1.19-1.81-1.78-2.68-.6-.12-.54.56-1.03.67-.5-1.2-1.35-2.12-2.59-2.74-.91-.45-1.59-1.22-1.42-2.37-1.04-.1-.34.96-.98 1.14-.77-.84-1.56-1.69-2.34-2.55-.58-.64-1.04-1.47-2.11-1.32-.02-1.21-1.64-.09-1.88-1.38-.18-.96-1.69-.76-2.4-1.47-.66-.67-1.38-1.31-2.13-1.88-.69-.53-.76-1.13-.54-1.9.84-3 1.59-6.02 2.51-9 .85-2.75 3.17-3.18 5.26-1.13 1.26 1.24 1.92 2.89 3.1 4.2 3.06 3.39 6.54 6.33 9.96 9.31 6.02 5.23 12.16 10.32 18.26 15.45 11.62 9.75 23.12 19.65 34.5 29.68 1.08.95 2.05 2.05 3.58 2.44.74.19 1.32.9 1.76 1.57 1.29 1.98 3.05 3.47 4.88 4.9 1.86 1.45 2.24 3.72 1.01 5.77-.29.48-.54.98-.89 1.42-1.56 1.99-2.79 2.27-4.83.77-2.37-1.74-4.93-3.23-7.02-5.33-.17-.17-.37-.31-.58-.42-3.21-1.78-6-4.14-8.93-6.3-1.21-.89-2.19-2.01-3.32-2.95-4.35-3.63-8.74-7.21-13.12-10.81-1.91-1.57-3.78-3.21-5.83-4.58-1.06-.7-1.65-1.68-2.41-2.57-.42-.49-.62-1.02-1.45-.68-.6.25-.72-.43-.98-.78-1.63-2.23-3.66-4.08-5.73-5.89-.51-.55-.47-1.37-.93-1.95z"/><path fill="#040404" d="M164.1 94.93c.81.17 1.49.19 2.04.46.86.42 1.82 1.01 1.98 1.95.18 1.06-1.11 1.19-1.76 1.64-.69.48-1.58.75-2.42.94-1.38.31-2.86-.58-3.36-1.89-.38-1.01-.04-1.9.98-2.3.88-.34 1.8-.57 2.54-.8z"/><path fill="#070707" d="M177.76 333.18c.08 2.35-1.32 3.34-3.43 2.43-.29-.12-.57-.27-.86-.38-.83-.32-1.76-.68-1.75-1.69.01-.92.83-1.58 1.57-1.95 1.12-.56 2.39-.76 3.55.02.54.37.97.85.92 1.57z"/><path fill="#4D4D4D" d="M119.25 129.25c-.23-.46-.83-.96.11-1.33 2.42-.19 4.96.33 7.2-1.06.16.04.33.08.49.11.56.44 1.65.41 1.51 1.46-.13.99-1.18.4-1.7.8-1.81.14-3.62.1-5.42.41-.71.14-1.55.25-2.19-.39z"/><path fill="#949494" d="M75.06 152.78c-.3-.45-.78-.92-.06-1.39.46-.31 1.07-.44 1.43-.82 1.13-1.18 2.44-1.47 3.97-1.1-1.76 1.14-3.27 2.68-5.34 3.31z"/><path fill="#CECECE" d="M126.87 129.24c.19-.12.36-.28.56-.37.31-.14.84.16.92-.41.07-.5-.41-.55-.72-.76-.24-.17-.39-.47-.57-.72.87.42 1.16-.98 2.13-.61 1.03.4.63 1.43 1.17 1.99.15.16.37.26.56.38-1.31.5-2.66.66-4.05.5z"/><path fill="#919191" d="M24.21 289.17c.71-.16 1.25.02 1.34.81.07.69.04 1.39.06 2.08-.48-.24-.65-.8-1.21-1.03-1.03-.44-.76-1.17-.19-1.86z"/><path fill="#8A8A8A" d="M70.8 154.27c.3-.22.7-.38.9-.67.75-1.08 1.61-.7 2.49-.25-.9 1.16-2.02 1.49-3.39.92z"/><path fill="#8F8F8F" d="M29.6 293.87c1.4.12 1.33.96.93 1.94-1.12-.25-1.74-.75-.93-1.94z"/><path fill="#5C5C5C" d="M30.87 297.49c.34.18.6.45.58.88-.01.23-.13.44-.42.33-.39-.15-.64-.42-.58-.86.03-.2.08-.47.42-.35z"/><path fill="#7D7D7D" d="M50.12 170.59c.13-.08.27-.15.38-.24.25-.21.54-.36.79-.07.22.24-.08.4-.22.51-.4.31-.81.53-.93-.25.02-.01-.02.05-.02.05z"/><path fill="#818181" d="M114.08 342.49c.19-1.07.19-1.07 1.4-.11-.47.04-.94.07-1.4.11z"/><path fill="#fff" d="M787.96 149.91c3.08 0 6.17-.07 9.25.01 2.78.07 5.58-.46 8.34.18.79.18 1.52-.55 2.3.08-.08.88-.97.88-1.53 1.11-8.07 3.42-16.37 6.16-24.76 8.66-12.13 3.62-24.37 6.89-36.63 10.04-14.49 3.72-29.07 7.05-43.57 10.73-8.42 2.14-16.85 4.23-25.33 6.04-10.21 2.18-20.34 4.66-30.51 6.97-6.84 1.55-13.61 3.38-20.42 5.01-7.59 1.82-15.2 3.56-22.81 5.31-8.07 1.86-16.12 3.8-24.18 5.68-7.91 1.85-15.83 3.62-23.69 5.65-9.08 2.35-18.27 4.28-27.36 6.59-5.62 1.43-11.3 2.67-16.93 4.07-10.74 2.67-21.56 5-32.31 7.59-11.53 2.78-23.05 5.61-34.63 8.16-18.06 3.97-35.9 8.78-53.71 13.69-7.6 2.1-15.16 4.36-22.88 6-6.54 1.39-13.07 2.8-19.52 4.59-3.75 1.05-7.4 2.48-11.3 3.03-1.46.2-1.81 1.36-1.48 2.75-1.48-.17-2.58-.73-3.6-1.56-1.35-1.1-2.83-1.53-4.38-.37-.72.54-1.53.36-2.3.37-1.24.02-2.32.33-2.55 1.66-.17.97-1 1.05-1.58 1.49.5.65 1.65.56 1.7.87.39 2.71 3.06 1.91 4.45 3.01.73.58 1.63.53 2.5.66 4.18.66 8.34 1.45 12.07 3.57 2.77 1.58 5.54 3.19 8.16 5.01 3.46 2.4 5.96 5.73 8.11 9.32 1.19 1.98 2.09 4.13 3.48 6 .09.13.21.26.25.4 1.44 4.5 2.39 9.09 2.41 13.82.01 2.18-.17 4.36-.26 6.54-.27 6.67-2.4 12.79-5.5 18.64-6.79 12.84-16.86 22.18-30.18 27.86-11.3 4.82-23.09 7.77-35.43 8.43-4.53.24-9.05.53-13.58.25-8.68-.53-17.37-1.22-25.74-3.74-8.27-2.49-15.84-6.51-22.13-12.44-4.48-4.23-7.74-9.48-10.04-15.27-1.71-4.3-2.99-8.71-3.73-13.27-.42-2.55-1.31-4.92-2.57-7.16-.35-.63-.52-1.21.24-1.62 3.47-1.83 6.26-4.63 9.55-6.72.06-.04.15-.01.36-.02 1.4 1.83 2.03 4.24 3.85 6.09-1.1 1.34-2.1 2.75-3.29 3.97-3.12 3.17-2.46 5.16-.7 8.88.44.93 1.05 1.79 1.58 2.67 1.12 1.84 2.23 2.17 4.24 1.32.79-.33 1.44-.41 2 .53.61 1.01 1.45 1.83 1.46 3.17.01.66.5 1.31.79 1.97.3.69.74 1.01 1.5.64 1.03-.5 1.59 0 2.1.88.6 1.02 1.27 1.93 2.52 2.42 1.05.41 1.33 1.75 1.9 2.69.79 1.3 1.52 2.48 3.34 2.03.29-.07.58-.02.77.35 1.11 2.16 3.15 3.32 5.11 4.44 4.18 2.39 8.62 4.02 13.49 4.47 3 .28 5.96.96 8.92 1.54.72.14 1.44.22 2.13.15 5.22-.51 10.44-1 15.56-2.27 3.7-.92 7.44-1.67 11.17-2.44 4.42-.92 8.46-2.84 12.44-4.84 2.92-1.46 5.71-3.17 8.59-4.71 2.62-1.41 5.1-3.06 7.39-4.93 2.58-2.1 5.21-4.13 7.49-6.63 5.55-6.08 8.67-13.17 9.87-21.25.52-3.49.79-6.96.43-10.48-.66-6.34-3.13-11.74-7.92-16.09-3.15-2.86-6.37-5.57-10.2-7.47-1.37-.68-2.29-1.92-3.63-2.68-4.12-2.34-8.54-3.91-12.99-5.41-3.31-1.12-6.47-2.73-10.03-3.05-2.14-.2-4.27-.57-6.42-.64-7.5-.25-14.93.41-22.21 2.28-5.85 1.51-11.59 3.22-17.06 5.96-4.92 2.46-9.85 4.87-14.14 8.32-2.78 2.24-5.25 4.82-7.11 8.13-2.22-3.68-5.32-6.48-9.14-8.49 1.07-1.39 2.21-2.36 3.51-3.18 2.89-1.83 5.56-3.97 8.5-5.75 4.72-2.86 9.68-5.15 14.75-7.27 6.98-2.92 14.05-5.52 21.38-7.45 7.54-1.99 15.14-3.67 22.8-5.09 6.33-1.17 12.74-1.71 19.12-2.46 4.01-.47 8.01-1 12-1.58 2.01-.29 4.14-.18 5.96-1.3 1.1-.67 2.23.43 3.37-.24.94-.56 2.15-.32 3.16-.53 1.71-.35 3.53.07 5.19-.93 1.48-.9 3.36-.54 5.05-.85 2.36-.43 4.74-.93 7.16-1.09 2.07-.13 4.06-.79 6.12-1.08 2.34-.33 4.73-.87 7.07-1.47 4.44-1.14 8.96-2.02 13.28-3.49 2.31-.79 5.07-.69 6.88-2.8.26-.31.97-.62 1.3-.25.59.66 1.05.03 1.42-.09 1.81-.58 3.6-1.24 5.37-1.92 2.66-1.02 4.72-3.24 7.66-3.62 1.27-.16 2.22-1.18 3.02-1.94 1.5-1.43 3.44-2.22 4.86-3.74.53-.57 1.09-.91 1.23-1.81.32-1.94 1.47-3.33 3.36-4.03.46-.17.96-.31 1.12-.82.91-2.94 2.96-5.43 3.23-8.65.12-1.45.46-2.97 1.28-4.31.59-.97.33-2.13.38-3.2.06-1.25.59-1.83 1.73-2.23 5.27-1.82 10.52-3.67 15.91-5.1 4.08-1.08 8.13-2.26 12.2-3.35 5.36-1.44 10.74-2.84 16.11-4.24 4.69-1.23 9.39-2.44 14.08-3.65 5.35-1.39 10.63-3.11 16.06-4.07 5.8-1.03 11.42-2.81 17.21-3.76 5.42-.88 10.63-2.61 16.02-3.58 3.49-.62 6.87-2.09 10.38-2.42 3.76-.36 7.25-1.68 10.93-2.3 3.39-.57 6.84-1.12 10.15-2.13 1.77-.54 3.64-.2 5.38-.81 2.14-.75 4.4-1.03 6.62-1.36 2.75-.41 5.35-1.28 8.02-1.94 1.38-.34 2.83-.08 4.27-.29 5.27-.76 10.54-1.44 15.69-2.81.68-.18 1.23.18 1.82 0 1.26-.38 2.57-.29 3.87-.94 1.08-.54 2.79-.65 4.01-.39 2.33.49 4.34-.51 6.49-.76 5.02-.59 9.97-1.71 14.97-2.29 3.59-.42 7.1-1.54 10.67-1.56 3.84-.02 7.53-1.06 11.39-.99 2.3.04 4.72-.43 7.06-.84 1.61-.28 3.33.01 4.83-.98.71-.47 1.28.49 2.18.4 3.62-.38 7.28-.45 10.86-1.22 2.41-.52 4.89-.07 7.31-.48 3.83-.66 7.72-.25 11.58-.83 2.92-.44 5.94-.91 8.97-.52 1.14.15 4.06-.37 5.33-.81.57-.2 1.08.05 1.63.18 1.09.25 2.22.5 3.2-.28.76-.61 1.64-.16 2.17.06 1.12.46 2.1.34 3.21.23 1.89-.18 3.8-.17 5.7-.23 1.82-.05 3.53-1.1 5.43-.49.92.3 1.46-.92 2.39-.78.66.11 1.77-.97 1.88.67.85-.19 1.67-.52 2.56-.46 2.9.2 5.78.18 8.68-.22.87-.12 1.8-.33 2.76.13 1.23.59 2.5-.23 3.79-.24 4.88-.04 9.77-.24 14.65-.37 3.3-.09 6.6-.16 9.9-.24.13-.12.26-.16.38-.12.13.08.19.12.19.16zM221.25 133.37c.98-.64 1.78-1.15 2.57-1.67 3.54-2.32 5.78-5.65 7.38-9.48.82-1.98 1.63-3.97 2.44-5.96.06-.15.19-.3.17-.44-.24-2.44 1.39-4.06 2.48-5.95.75-1.3 1.43-2.65 1.43-4.26 0-1.26-.21-2.53-1.08-3.33-1.35-1.25-1.1-2.34-.27-3.66.73-1.16 1.08-2.45 1.06-3.86-.02-1.64.59-2.22 2.23-2.36.64-.05 1.28-.02 1.92-.02 1.3 0 2.28-.59 3.04-1.62 1.16-1.58 2.74-2.21 4.43-1.48.82.36 1.51.21 2.29.2 4.05-.04 8.06-1.02 12.13-.49 2.13.28 4.26.48 6.36.95 2.32.52 4.73.67 7.02 1.3 3.14.86 6.2 2.06 9.1 3.57 2.69 1.39 5.48 2.54 8.24 3.75 4.54 2 8.38 5.16 12.46 7.92 1.24.84 2.52 1.66 3.77 2.46 2.66 1.69 4.71 4.05 7.15 5.96.49.39 1.06.9.98 1.57-.19 1.52.69 2.56 1.47 3.63 3.05 4.18 4.22 9.03 5.17 13.97.77 4.02.79 8.08.46 12.15-.07.93-.27 1.69-1.05 2.28-.37.28-.66.7-.89 1.11-2.5 4.61-6.49 7.64-10.99 10.01-9.42 4.95-19.46 7.81-30.04 9.05-7.23.85-14.32.33-21.38-1.11-2.34-.48-4.45-1.74-6.55-2.87-4.59-2.46-8.59-5.72-12.61-9-4.89-3.98-8.57-8.99-12.67-13.65-.37-.42-.85-.8-.86-1.4-.02-2.04-1.66-3.4-2.17-5.24-.14-.5-.6-.93-1.08-.58-1.99 1.48-2.77-.36-4.11-1.45zM809.09 281.09c.08-.02.15-.05.23-.05 2.05-.08 2.05-.08 2.08 2.25-6.45.25-12.91.62-19.37.53-6.07-.09-12.14-.2-18.2-.53-7.65-.42-15.29-1.06-22.94-1.63-5.09-.38-10.19-.77-15.28-1.18-9.95-.79-19.85-1.98-29.75-3.2-6-.74-12.01-1.39-18.01-2.11-6.32-.75-12.64-1.52-18.92-2.47-6.3-.95-12.62-1.77-18.9-2.88-8.76-1.55-17.54-2.89-26.33-4.25-3.61-.56-7.18-1.39-10.79-1.99-4.31-.71-8.66-1.11-12.96-1.91-5.79-1.08-11.62-1.99-17.44-2.91-5.97-.95-11.95-1.8-17.91-2.77-7.77-1.27-15.52-2.62-23.28-3.96-8.07-1.4-16.14-2.8-24.21-4.25-7.99-1.43-15.92-3.16-23.83-4.99-1.59-.37-3.2-.6-4.83-1.31.64-.21 1.26-.46 1.91-.61 8.6-2 17.22-3.96 25.81-5.98 6.97-1.64 13.92-3.34 20.88-5.02 2.7-.65 5.39-1.32 8.09-1.98.23-.06.5-.14.7-.07 4.71 1.84 9.73 1.7 14.63 2.35 4.42.59 8.87.89 13.29 1.5 4.89.68 9.74 1.6 14.61 2.35 11.1 1.71 22.14 3.78 33.11 6.16 10.26 2.23 20.6 4.08 30.83 6.49 6.49 1.53 13.07 2.7 19.52 4.44 1.89.51 3.87.75 5.82.91 3.83.32 7.4 1.81 11.2 2.32 3.58.48 7.09 1.43 10.71 1.8 2.18.22 4.27 1.23 6.45 1.46 2.84.29 5.6.93 8.38 1.46 2.79.53 5.58 1.1 8.36 1.68 4.82 1 9.72 1.62 14.54 2.6 5.04 1.03 10.13 1.73 15.15 2.88 4.18.96 8.37 1.88 12.53 2.97 1.92.51 3.97.79 5.97 1.13.54.09 1.09.29 1.57.55.97.52-.63.43-.23.85.25.26.63.27.85.16 2.15-1.06 4.11.12 6.14.46.21.2.4.42.55.66.18.24.41.42.68.55 2.21.29 4.36.89 6.57 1.1.96.04 1.91.08 2.8.52-.04.6.22.81.84.93 1.28.25 2.57.43 3.86.6.5 1.36 1.32 1.29 2.36.6.2-.13.6.04.9.07-.24.15-.59.24-.7.46-.19.36.22.58.45.64 1.14.25 2.24.74 3.47.55.84-.13 1.71-.09 2.56-.08.21 0 .56.13.41.41-.12.23-.46.33-.94.65 1.51-.12 2.71.71 4 .08.78.14 1.13 1.09 2.01 1.01zM251.26 351.5c.72-.99 1.27-1.93 1.68-2.96 1.31-3.3.6-6.56-2.03-8.89-.36-.32-.75-.6-1.14-.87-2.27-1.59-2.12-1.56-1.6-4.3.54-2.9.95-5.9-1.74-8.15-.62-.52-.57-1.05-.28-1.7.71-1.64.56-3.33-.14-4.88-.44-.97-.25-1.65.3-2.39l.27-.39c3.19-4.43 2.27-9.79-2.21-12.89-.2-.14-.39-.29-.61-.38-1.76-.72-1.3-1.56-.16-2.63 3.57-3.35 7.46-6.29 11.82-8.48 5.11-2.57 10.26-5.1 15.74-6.77 2.25-.69 4.58-1.21 6.9-1.7 3.26-.69 6.5-1.52 9.81-1.95 2.52-.33 5.07-.43 7.61-.62.65-.05 1.19.12 1.75.57.99.79 2.14 1.23 3.5.95 2.01-.41 3.91.21 5.74.92 6.16 2.41 12.28 4.97 17.92 8.44 4.87 2.99 9.05 6.81 12.4 11.5 2.84 3.98 3.67 8.44 3.2 13.19-.58 5.82-2.91 10.87-6.81 15.24-2.18 2.44-4.1 5.12-6.73 7.13-1.01.78-2.1 1.45-3.15 2.18-1.17.82-2.47 1.5-3.03 2.97-.24.63-.9.89-1.44 1.21-5.03 2.92-10.31 5.37-15.48 8-1.52.77-3.11 1.3-4.75 1.59-6.34 1.13-12.68 2.19-19.03 3.24-3.03.5-6.05.28-9.04-.32-4.85-.96-9.71-1.85-14.3-3.79-1.79-.79-3.43-1.7-4.97-3.07zM431.25 198.1c-2.21.83-4.41 1.72-6.65 2.49-1.52.52-2.87 1.37-4.72 1.08-1.85-.28-3.83 2.6-3.33 4.57 1.23 4.82-.51 9.07-2.23 13.55-1.5-.8-2.74-1.59-4.4-1.67-1.44-.07-2.9-.83-4.26-1.49-7.54-3.68-15.49-6.23-23.62-8.17-4.18-.99-8.48-1.3-12.79-1.38-7.9-.16-15.77-1.16-23.68-1.03-7.59.13-15.11-.81-22.67-1.25-6.69-.39-13.31-1.41-19.96-2.13-10.37-1.14-20.26-4.06-30.03-7.63-8.58-3.14-16.64-7.31-24.54-11.78-7.85-4.44-15.19-9.69-22.09-15.54-2.62-2.22-5.04-4.66-7.5-7.05-3.27-3.16-5.43-7.07-7.34-11.12-2.12-4.49-3.47-9.24-4.28-14.13-.28-1.68-.1-1.84 1.54-1.56 3 .5 6.03.43 9.2.32 0 4.04 2.86 6.59 4.79 9.64 2.16 3.42 4.82 6.49 6.65 10.16 1.34 2.68 3.69 4.74 5.73 6.97 1.9 2.08 4.14 3.82 6.18 5.76 1.22 1.16 2.55 2.64 4.36 3.02.92.19 1.19.97 1.86 1.38 7.08 4.28 15.57 7.75 23.63 9.5.23.05.47.13.71.12 5.04-.12 9.97.98 14.97 1.28 5.36.31 10.62-.27 15.9-1.2 5.04-.89 9.88-2.31 14.52-4.43 7.16-3.27 12.86-8.1 16.69-15.12 3.05-5.59 3.52-11.51 3.04-17.65-.24-3.1-.73-6.16-1.59-9.16-.22-.75-.06-1.31.45-1.96 1.99-2.54 2-4.14.43-6.98-5.13-9.29-12.16-16.93-20.1-23.86-6.73-5.87-14.18-10.66-21.97-14.87-7.14-3.86-14.92-5.96-23-6.93-6.5-.78-12.88-.28-19.22 1.29-1.87.46-3.45 1.16-4.68 2.61-.4.48-.74 1.06-1.65.96-.34-1.13-.25-2.33-.4-3.46-.38-2.9-2.98-5.14-6.34-4.89-3.86.28-6.84 2.17-8.53 5.69-.5 1.04-1.01 1.2-1.97 1.13-3.19-.22-6.01.62-8.23 3.05-1.35 1.48-2.31 3.06-1.5 5.17.07.18-.08.43-.15.77-1.57-.57-3.15-.36-4.93-.2 2.95-5.72 6.56-10.55 12.24-13.51 1.27-.66 2.58-1.27 3.86-1.93.57-.29 1.23-.53 1.64-.98 2.95-3.33 7.15-4.12 11.09-5.02 9.73-2.21 19.63-2.68 29.45-.66 11.09 2.28 21.44 6.6 31.16 12.42 8.27 4.95 15.85 10.76 22.3 17.94 4 4.46 7.9 9.02 11.07 14.11 2.92 4.7 4.84 9.86 6.06 15.26.86 3.81 1.58 7.67 1.42 11.59-.28 6.96-1.53 13.72-4.04 20.27-1.7 4.43-4.06 8.48-6.5 12.49-1.76 2.89-3 5.98-4.09 9.14-.32.93-.54 1.8-1.44 2.37-.49.31-.58.85-.58 1.47-.01 2.56.43 2.94 3.01 3.56 2.63.63 5.21.4 7.8.01 8.35-1.26 16.71-2.3 25.15-2.78 7.27-.42 14.51-.33 21.74.29 12.87 1.11 25.56 3.29 37.94 7.1 2.81.86 5.64 1.68 8.45 2.51-.03.16-.03.32-.03.48z"/><path fill="#ff0" d="M221.05 305.59c-.23.32-.41.46-.4.58.18 2.73-1.78 4.18-3.35 5.98-2.06 2.36-4.49 3.97-7.43 4.95-1.27.43-2.44.62-3.7.01-.57-.27-1.22-.35-1.84-.51-2.29-.62-3.16.04-2.43 2.27.75 2.28 1.42 4.75 3.57 6.29.57.41.87.83.72 1.59-1.33 6.78-.11 13.32 2 19.76.05.15.03.32.06.58-1.32.56-2.51-.09-3.55-.65-6.59-3.61-10.69-8.94-11.15-16.66-.08-1.3-.39-2.51-.87-3.7-.37-.92-.9-1.66-2-1.94-1.49 2.82-1.41 5.77-1.03 8.74.13 1.02.42 2.03.61 3.04.1.56-.15.95-.72 1.04-.77.12-.66-.5-.67-.93-.04-2.64-.03-5.27-.1-7.91-.09-3.11-.27-6.21-.37-9.31-.05-1.72.21-2.35 1.8-2.53 3.28-.37 6.43-1.97 9.84-1.13.98.24 1.36-.2 1.33-1.09-.02-.55-.11-1.11-.26-1.64-.14-.5-.13-.86.2-1.31 2.6-3.55 5.56-6.77 9.13-9.34 1.99-1.43 4.15-2.69 6.38-3.72 1.14-.53 2.57-.78 3.9.07.85.54 1.88 1.15 2.43-.53.19-.57.97-.46 1.51-.37 5.41.83 9.63 4.61 8.58 11.2-.32 2-.88 3.89-1.76 5.69-.65 1.33-1.14 1.46-2.45.83-.83-.4-1.34-1.11-1.8-1.87-.79-1.3-1.33-2.72-1.88-4.13-.54-1.37-1.16-2.6-2.89-2.74-.45-.04-.87-.37-1.41-.61zM180 96.25c.79-.36 1.4-.06 2.01.06.69.14 1.14.52 1.06 1.32-.25 2.28.6 4.22 1.9 6.01.64.89.8 2.07 1.67 3.01 1.3-1.64.58-3.39.55-5.02-.02-.87-.64-1.79.79-2.04.06-.01.14-.12.14-.18.1-1.81 1.19-2.79 2.77-3.44.55-.23.46-.76.04-1.17-.35-.33-.74-.63-1.03-1-1.06-1.35-.86-2.88.61-3.78 5.26-3.2 10.85-4.01 16.76-2.11 1.33.43 1.56 1.06.97 2.32-.2.43-.42.86-.66 1.28-.6 1.07-.4 1.9.51 2.75 1.44 1.35 1.4 1.41.56 3.16-.59 1.24-.93 2.53-1.07 3.9-.08.77.13 1.62-.6 2.44-1.2-.61-2.42-1.3-3.69-1.87-1.01-.45-2.06-.82-3.16-1.09-2.44-.61-4.58-.28-6.41 1.55-.67.68-1.39 1.31-2.1 1.95-.86.78-1.27 1.97-.84 2.83 1.02 2.05 1.81 4.4 4.29 5.34.57.22 1.11.11 1.65.02 1.33-.21 1.47-.53.87-1.73-.45-.89-1.22-1.67-1.09-2.99 2.6.34 4.72 1.54 6.67 3.02 1.2.92 2.26 2.03 3.33 3.1 1.11 1.11 1.94 2.32 1.3 4.04-.31.83.14 1.55.77 2.12.62.57 1.36 1.01 1.7 2.03 2.05-2.56 3.33-5.3 4.69-7.98.59-1.17.53-2.28-.7-3.13-1.24-.85-1.41-2.16-1.58-3.56-.29-2.48-.27-4.92.09-7.38.24-1.63.79-2.03 2.42-1.63 1.84.44 3 1.78 3.97 3.25 1.75 2.64 2.18 5.6 1.81 8.71-.08.65-.24 1.3-.74 1.71-1.26 1.04-.99 2.37-.79 3.7.2 1.33.62 2.62.85 3.96.44 2.48-.58 4.5-1.61 6.57-.36.72-1.04.67-1.65.71-2.33.17-4.62-.16-6.88-.73-.54-.14-1.07-.35-1.62-.39-1.36-.09-2.07-.67-1.9-2.12.04-.31 0-.64-.06-.95-.19-1.02-.41-2.06-1.28-2.73-.35-.27-2.31 1.35-2.73 2.21-.13.27-.21.58-.56.68-.46-.27-.55-.75-.68-1.21-.1-.35-.45-.69-.66-.53-1.09.85-1.8.04-2.49-.55-1.38-1.18-2.98-2.16-3.7-3.97-.88-2.22-1.55-2.53-3.71-1.81-.44.15-.85.46-1.35.17-1.06-.63-2.31-.55-3.46-.88-2.28-.66-3.09-1.7-3.34-4.11-.42-4.65-1.15-9.28-2.61-13.84z"/><path fill="#FBFB00" d="M234.73 321.84c1.23 2.99 1.23 2.99 4.03 1.99.52-.19 1.05-.35 1.58-.51.06-.02.14.06.34.15.16.9-.56 1.35-1.16 1.77-1.26.89-2.19 2.04-3.11 3.27-1.67 2.27-3.67 4.21-6.52 4.99-.46.12-.99.43-1.27-.12-.29-.58.12-1.23.6-1.37.93-.27 1.46-.93 1.99-1.61.56-.73.71-1.48.37-2.45-.91-2.59-.67-3.06 1.68-4.62.52-.34.9-.89 1.47-1.49z"/><path fill="#FDFD00" d="M232.29 96.67c-1.27-.16-2.16-1.02-3.14-1.65-1.28-.81-2.52-1.61-4-2.05-1.25-.37-2.58-2.87-2.25-4.05.19-.68.83-.95 1.39-1.21 2.27-1.04 6.07.01 7.54 2.03.25.34.51.72.21 1.06-1.47 1.69-.76 3.21.29 4.74.17.27.24.59-.04 1.13z"/><path fill="#FCFC00" d="M233.23 338.82c2.93-2.31 5.75-4.61 8.29-7.21.11-.11.24-.23.38-.28.79-.29 1.62-1.25 2.35-.66.78.63.05 1.65-.28 2.4-.69 1.55-1.02 3.39-2.96 4.07-.59.21-.54.89-.71 1.41-.56 1.71-1.75 2.34-3.49 1.91-.61-.15-1.24-.3-1.81-.56-.57-.25-1.08-.64-1.77-1.08z"/><path fill="#FAFA02" d="M235.24 83.17c0-1.14.65-1.78 1.95-1.91 2.07-.21 3.93 1.39 3.98 3.52.03 1.26.19 2.55-.19 3.8-.15.48-.34.89-.99.71-1.83-.53-4.51-3.71-4.72-5.64-.02-.16-.02-.32-.03-.48z"/><path fill="#FBFB00" d="M236.8 317.87c.48-2.14.98-4.13 1.37-6.14.42-2.18 1.01-2.66 3.24-2.37 2.22.29 2.65 1.05 1.53 2.93-1.19 1.98-2.5 3.87-4.45 5.21-.46.31-.92.63-1.69.37z"/><path fill="#F4F401" d="M232.76 107.54c-1.24-.33-1.77-.97-2.44-1.39-1.09-.67-2.15-1.37-3.54-.89-.65.23-1.09-.1-1.25-.74-.36-1.44-.68-2.89-1.07-4.57 3.57 1.72 6.71 3.5 8.3 7.59z"/><path fill="#F8F800" d="M240.79 345.32c1.65-2.01 5.24-3.05 7.37-2.15 1.11.47 1.23.89.47 1.72-.85.93-2.08 1.06-3.15 1.55-1.22.55-2.18.38-3.04-.45-.5-.48-1.32.05-1.65-.67zM225.11 110.49c2.02 1.36 4.13 2.5 4.41 5.25.1 1.02-.16 1.34-1.17 1.07-.92-.24-1.83-.56-2.69-.97-1.31-.62-1.12-2.01-1.32-3.11-.12-.63.04-1.44.77-2.24z"/><path fill="#D3D3D3" d="M126.56 126.87c-.08.58-.43 1.31-.85 1.29-2.09-.11-4.2.93-6.27-.02-.05-.02-.06-.14-.08-.21 2.07-.88 4.2-1.48 6.46-1.51.35 0 .58.16.74.45z"/><path fill="#C0C0C0" d="M787.08 274.66c-.87.27-1.66.46-2.66.19-1.53-.41-3.18-.41-4.7-.99.17-.28.36-.39.6-.08-.19-.45-.68-.13-.96-.37l-.09-1.06c2.67.57 5.41.87 7.81 2.31z"/><path fill="#B0B0B0" d="M794.58 276.71c-1.93.72-2.37.67-5.4-.64.24-.3.47-.59.7-.89 1.68.17 3.38.25 4.7 1.53z"/><path fill="#A2A2A2" d="M809.09 281.09c-.01.44-.48.9-.61.66-.37-.67-1.5-.68-1.38-1.68 1.07-.47 1.26.81 1.99 1.02z"/><path fill="#A0A0A0" d="M111.58 128.54c.79-.14 1.31-.26 1.84-.31.37-.04.56.21.5.57-.05.33-.39.65-.61.48-.43-.35-.95-.38-1.73-.74z"/><path fill="#8E8E8E" d="M787.96 149.91c-.19 0-.38 0-.57-.01-.26-.22-.53-.44-.83-.7.52-.36 1.04-.23 1.54-.25.22-.01.56.09.47.34-.08.25-.4.42-.61.62z"/><path fill="#7F7F7F" d="M42.25 138.87c-.21 0-.45-.07-.39-.36.06-.33.32-.52.67-.56.29-.04.46.11.42.37-.05.35-.32.51-.7.55z"/><path fill="#9E9E9E" d="M15.26 281.39c-.11-.4.19-.43.39-.44.53-.04.9.18.94.76.02.26-.15.46-.39.49-.61.07-.71-.48-.94-.81z"/><path fill="#D6D6D6" d="M20 287.23c-.75-.47-.74-1.11-.41-1.83.77 1.09.77 1.09.34 1.8.01 0 .07.03.07.03z"/><path fill="#8C8C8C" d="M9.79 276.58c-.41.01-.47-.3-.47-.62 0-.13.13-.36.22-.36.34-.03.59.18.66.51.05.26-.14.41-.41.47z"/><path d="M451.55 219.92c2.62-.67 2.94-.41 3.25 1.95.25 1.86-.23 3.47-1.31 4.94-.89 1.22-1.89 1.32-3.01.28-1.14-1.05-1.81-2.43-2.53-3.76-2.43-4.47-2.44-8.96.04-13.43 1.08-1.96 2.65-3.4 4.66-4.3 2.18-.98 4.28-2.11 6.46-3.06 7.03-3.06 10.94-1.87 16.14 2.87 3.04 2.77 3.65 6.65 2.89 10.61-1.02 5.35-4.19 9.19-8.95 11.71-1.89 1-3.92 1.73-5.87 2.63-.75.35-1.53.43-2.32.45-1.86.06-3.43-.36-4.16-2.37-.54-1.49-1.35-2.88-1.11-4.57.23-1.63 1.45-2.49 2.98-2 .22.07.4.27.62.35.76.26 1.61.58 2.28.02.72-.6-.03-1.34-.14-1.99-.4-2.27-.94-4.51-1.42-6.77-.33-1.54-.46-1.69-1.81-1.13-2.37.97-4.61 2.12-6.02 4.48-.56.96-.84 1.84-.67 3.09zM501.77 222.88c.54-4.44-.75-8.4-1.6-12.39-.74-3.49-1.76-6.92-2.71-10.37-.24-.87.08-1.84-.13-2.52-.67-2.13-.04-3.5 1.66-4.74.31-.23.47-.95.85-1.37 1.32-1.45 1.97-1.33 2.73.44.31.72.26 1.84 1.67 1.52.7-.16.51.62.6 1.03.47 2.09.73 4.21 1.27 6.29 1.03 4 1.86 8.04 2.71 12.08.31 1.47.4 2.99.64 4.48.24 1.5-.46 2.46-1.72 3.09-1.86.93-3.72 1.8-5.97 2.46z"/><path fill="#333" d="M779.37 273.41c.15-.03.3-.07.45-.1.3-.06.73-.02.7.26-.03.3-.5.23-.8.29-.11-.15-.23-.3-.35-.45z"/><path fill="#FDFDFD" d="M466.94 219.81c-.7-3-.79-5.85-1.21-8.65-.12-.79.38-1.08 1.06-1.32 1.92-.69 5.47.24 6.84 1.79.67.75.5 1.51.11 2.21-1.55 2.7-3.87 4.55-6.8 5.97z"/></g><g class="frame--2" fill-rule="evenodd" clip-rule="evenodd"><path fill="#A5A5A5" d="M234.96 22.27c.48.67 1.45.28 1.96.89-.64.79-1.54.8-2.38.65-2.67-.49-5.32-.34-7.98-.02-.78.09-1.58.09-2.18-.59.48-.66 1.51-.16 1.94-.93h8.64z"/><path d="M224.38 23.19c1.28.27 2.55-.06 3.77-.27 2.95-.49 5.84.43 8.76.23 6.04.67 12 1.67 17.82 3.54 5.84 1.88 11.04 4.97 16.26 8.06 10.95 6.49 20.7 14.45 29.06 24.04 5.16 5.92 9.29 12.55 13.1 19.42 6 10.81 9 22.31 8.64 34.64-.31 10.51-3.35 20.23-8.87 29.19-2.99 4.85-6.33 9.41-10.51 13.31-.62.58-1.13 1.28-1.88 2.15 1.27.1 2.25.22 3.24.26 2.79.11 5.54.46 8.28.98 6.02 1.14 12.07 2.11 18.09 3.29 3.75.73 7.48 1.62 11.13 2.78 4.63 1.48 9.35 2.7 13.87 4.5 6.95 2.77 14.02 5.22 20.82 8.37 3.91 1.81 7.71 3.84 11.42 6.03.88.52 1.66 1.25 2.45 1.92.84.72 1.4 1.53.34 2.58.9.23 1.42-.23 1.96-.53 12.11-6.78 24.51-13.02 36.86-19.35 8.09-4.14 16.16-8.3 24.31-12.31 12.03-5.92 24.03-11.91 36.21-17.51 13.55-6.23 27.28-12.07 41.01-17.89 9.54-4.04 19.12-7.98 28.78-11.72 8.77-3.39 17.62-6.56 26.46-9.76 10.34-3.75 20.85-7.01 31.32-10.36 8.05-2.58 16.19-4.87 24.29-7.29 11.16-3.33 22.38-6.45 33.64-9.43 10.03-2.66 20.06-5.27 30.11-7.84 5.33-1.37 10.78-2.14 16.22-2.97 1.12-.17 2.14-.14 2.88 1.09.51.84 1.49 1.4 2.31 2.13-.98 1.48-1.06 3.39-3.3 3.33 1.52 2.89.6 5.35-.2 7.81-.15.47-.56.72-.95 1.02-4.18 3.18-8.49 6.18-12.92 8.98-2.86 1.8-5.81 3.51-8.66 5.32-6.06 3.85-12.34 7.32-18.63 10.75-4.65 2.54-9.29 5.09-13.96 7.59-4.22 2.26-8.39 4.68-12.57 7.05-2.35 1.33-4.83 2.61-7.35 3.75-3.43 1.56-6.69 3.51-10.02 5.29-2.6 1.39-5.16 2.86-7.82 4.12-4.24 2.01-8.3 4.36-12.48 6.46-3.95 1.99-7.7 4.36-11.73 6.16-3.14 1.4-5.96 3.39-9.21 4.55-1.69.6-3.1 1.84-4.78 2.6-4.96 2.24-9.78 4.8-14.55 7.37-6.77 3.64-13.75 6.85-20.48 10.55-6.79 3.74-13.93 6.76-20.75 10.42-8.89 4.76-17.92 9.27-26.89 13.87-1.42.73-2.9 1.34-4.24 2.2-.52.33-2.03.11-1.05 1.56.17.25-.42.38-.67.51-7.04 3.6-14.09 7.19-21.14 10.79-.14.07-.29.18-.44.19-4.12.24-7.25 2.85-10.76 4.54-5.02 2.43-9.95 5.04-14.92 7.57-.63.32-1.27.62-1.87 1.39 1.65.9 3.16 1.73 4.67 2.56 6.14 3.36 12.27 6.75 18.44 10.08 4.38 2.37 8.85 4.58 13.21 6.99 3.47 1.91 6.97 3.78 10.47 5.64 6.39 3.41 12.66 7.04 19.07 10.38 13.22 6.89 26.35 13.94 39.46 21.03 9.61 5.2 19.37 10.14 28.94 15.43 5.85 3.24 11.8 6.31 17.62 9.61 4.27 2.42 8.68 4.56 13.01 6.87 3.7 1.98 7.3 4.17 11.07 6.02 5.28 2.59 10.2 5.82 15.56 8.28 3.02 1.39 5.81 3.26 8.74 4.86 5.52 3.04 11.08 5.99 16.57 9.08 3.81 2.15 7.66 4.23 11.47 6.39 2.53 1.44 5.17 2.76 7.72 4.18 3.04 1.69 6.18 3.27 9.05 5.27 2.15 1.49 4.53 2.61 6.78 3.93 1.84 1.08 3.63 2.27 5.42 3.41 6.17 3.93 12.5 7.63 18.47 11.91 4.13 2.96 8.54 5.53 12.64 8.55.38.28.79.35.79.97.03 2.51-.34 4.93-1.52 7.15-.72 1.35-2.07 2.1-3.43 2.45-3.87 1.01-7.82 1.64-11.82 1.06-2.59-.37-5.17-.9-7.73-1.48-3.88-.87-7.86-1.52-11.58-2.87-3.72-1.35-7.48-2.54-11.24-3.75-4.62-1.48-9.27-2.92-13.84-4.54-3.75-1.33-7.58-2.44-11.12-4.33-1.03-.55-2.27-.68-3.37-1.11-4.7-1.85-9.38-3.76-14.08-5.62-2.66-1.05-5.41-1.88-8.01-3.06-5.38-2.45-11.17-3.88-16.44-6.56-3.42-1.74-6.83-3.38-10.61-4.15-.23-.05-.51-.15-.63-.32-1.17-1.68-2.9-2.1-4.79-2.17-.15-.01-.31-.08-.43-.17-2.27-1.78-5.09-2.46-7.54-3.9-.99-.58-1.86-1.48-3.19-1.16-.19.05-.47-.11-.66-.24-3.21-2.2-7.18-2.76-10.41-5.06-2.39-1.71-5.18-3.01-8.26-3.3-.41-.04-.71-.36-.93-.7-.33-.52-.69-.86-1.37-.54-.18.08-.57.05-.67-.08-1.37-1.76-3.81-1.22-5.29-2.36-1.6-1.23-3.68-1.38-5.15-2.89-1.12-1.16-2.98-1.35-4.45-2.13-2.02-1.07-4.12-2.07-6.23-2.87-3.17-1.19-5.88-3.3-9.11-4.24-2.77-.8-4.99-2.92-7.95-3.15-.78-.06-1.21-.67-1.8-1.04-3.35-2.1-6.69-4.39-10.46-5.5-2.03-.6-2.97-2.44-5-2.91-1.81-.42-3.46-1.55-5.15-2.42-3.08-1.6-6.19-3.2-9.36-4.55-2.16-.92-4.39-2-6.8-2.38-.15-.02-.36-.05-.43-.16-1.23-1.76-3.08-2.09-5.03-2.43-.84-.14-1.8-.51-2.46-1.3-.37-.44-.81-1.07-1.6-.57-.11.07-.43.04-.45-.01-.61-1.91-2.52-.97-3.69-1.68-1.34-.81-2.81-1.41-4.23-2.09-1.36-.65-2.75-1.25-4.11-1.92-2.34-1.15-4.9-2.03-6.91-3.61-1.35-1.06-2.74-1.38-4.19-1.87-.97-.33-1.86-1.17-2.82-1.23-1.41-.08.16-1.21-.79-1.56-.83-.31-1.35.89-2.14.1-.44-.43.88-.92-.18-1.17-.53-.13-1-.5-1.52-.7-.59-.23-1.21-.38-1.82-.57-.49-.04-.97.32-1.47.07-.45-.17-.42-.59-.5-.96-.88-.34-1.82-.59-2.42-1.42-.12-.06-.24-.11-.36-.16-.53-.33-.98.47-1.51.11-.45-.19-.91-.38-1.36-.57-.55-.24.02-1.06-.64-1.25-2.89-1.24-5.74-2.56-8.51-4.05-.49.1-1.07-1.09-1.47.11-.31-.19-.61-.39-.92-.58-.56-.38-1.02-.87-1.47-1.37-1.24-.64-2.35-1.72-3.97-1.03-.66.28-1.2-.34-1.74-.61-3-1.5-5.88-3.24-8.95-4.57-4.08-1.77-8.04-3.78-11.98-5.83-4.86-2.54-9.69-5.12-14.51-7.75-1.09-.59-1.91-.59-3.08-.04-10.46 4.91-20.72 10.2-30.93 15.61-5 2.65-9.78 5.71-14.84 8.23-4.5 2.24-8.83 4.76-13.22 7.16-4.4 2.41-8.73 4.94-13.15 7.3-3.5 1.87-7.11 3.52-10.64 5.32-4.39 2.24-8.74 4.55-13.11 6.82-.36.19-.71.37-.98.88 1.51 1.02 3.35 1.23 4.98 1.91 6.23 2.62 11.38 6.66 15.71 11.82 3.83 4.56 7.03 9.55 9.09 15.12 1.69 4.59 3.04 9.34 3.21 14.32.1 2.86.5 5.69.29 8.58-.97 13.44-5.04 25.65-13.03 36.66-5.83 8.04-13.13 14.3-21.13 19.94-9.1 6.42-19.19 10.7-29.76 13.89-9.26 2.79-18.75 4.74-28.39 5.46-7.63.57-15.33.62-22.89-1.19-10.6-2.54-20.22-6.91-28.12-14.61-1.14-1.11-2.2-2.29-3.48-3.64-.34 2.66-2.41 2.66-4.04 2.59-5.58-.24-10.48-2-14.49-6.28-2.01-2.15-3.97-4.31-5.81-6.6-.55-.69-1.04-1.19-.71-2.39.25-.89-.8-2.14-1.25-3.2-.89-.06-1.47.31-2.03.77-.4.33-1.09.48-1.32.15-.82-1.16-2.03-.64-3.04-.83-2.84-.53-5.51-1.59-8.18-2.59-1.78-.66-3.56-1.31-5.34-1.97-3.19-1.18-6.54-1.96-9.37-3.98-2.33 0-4.12-1.61-6.34-2.05-1.98-.39-3.9-1.21-5.38-2.73-.43-.44-.99-.45-1.51-.62-2.45-.79-4.83-1.75-7.1-2.97-.49-.26-.92-.65-1.49-.13-.11.1-.57.06-.64-.06-1.18-1.96-3.55-1.74-5.18-2.86-.61-.42-1.58-.22-1.87-1.24-.07-.25-.65-.48-1.01-.51-3.33-.24-3.28-.31-6.07-1.87-.86-.48-1.67-.9-2.31-1.67-.15-.19-.42-.65-.75-.35-1.24 1.13-2.17-.18-3.23-.39-1.16-.23-2.06-.83-2.18-2.17-.01-.08-.24-.15-.38-.22-.61 1.11-1.29.78-2.15.23-.72-.46-1.63-.62-2.41-1.01-2.45-1.21-4.86-2.48-7.37-3.57-1.26-.55-1.95-2.12-3.54-2.23-.09-.01-.27-.27-.24-.35.64-1.56-.52-3.17.22-4.76.74-1.58 2.14-2.51 3.33-3.63.51-.48 1.36-.01 2.01.33 10.21 5.28 20.71 9.94 31.48 13.94 8.98 3.33 18.03 6.45 26.89 10.1.86.35 1.76.58 2.77.91.82-2.33 1.64-4.6 1.89-7.05.05-.55.08-1.22.4-1.6 1.51-1.8 1.69-4.07 2.32-6.17.48-1.62.98-2.14 2.46-2.1 1.54.05 2.9.76 4.21 1.51.4.23.66.66.37 1.23-1.35 2.67-1.61 5.67-2.5 8.48-.87 2.72-1.68 5.45-2.54 8.26 2.92 1.39 6.03 2.13 8.97 3.31.59.24 1.16.54 1.77.73 1.04.34 2.23 1.27 2.71-.72.12-.49.64-.54 1.18-.27 1.01.5 1.4-.02 1.6-1.01.33-1.62.73-3.17.65-4.91-.12-2.65.08-5.38 1.63-7.75.12-.18.18-.49.1-.67-.63-1.58-.44-3.11.43-4.74-2.88-.82-5.44-1.78-8.09-2.56-3.79-1.11-7.62-2.07-11.37-3.41-3.83-1.37-7.44-3.22-11.26-4.52-3.74-1.27-7.05-3.54-10.74-4.75-3.5-1.15-6.89-2.71-10.56-3.38-2.07-.38-3.96-1.39-5.9-2.17-.3-.12-.59-.16-.87-.26-1.68-.61-3.41-.98-5.02-1.9-1.72-.97-3.85-1.13-5.45-2.49-.75-.64-1.33-.29-1.54.64-.39 1.72-1.71 2.8-2.79 4.26-2.13-2.74-4.32-5.25-6.16-8-2.05-3.07-4.95-5.38-7.12-8.32-2.54-3.46-5.05-6.94-7.66-10.35-1.39-1.82-2.91-3.53-4.24-5.4-.96-1.36-2.04-2.63-3.05-3.96-4.03-5.35-7.53-11.06-11.29-16.59-1.93-2.85-3.37-6.1-4.95-9.21-.9-1.77-1.87-3.51-2.46-5.45-.9-2.97 1.25-6.19 4.34-6.3.99-.03 1.76.18 1.77 1.39.02 1.53.95 2.68 1.72 3.88 4.69 7.23 9.76 14.19 14.67 21.27 7.46 10.74 15.17 21.32 22.34 32.26.22.33.44.67.68.99.53.71 1.08.87 1.76.15.71-.75 1.52-1.41 2.18-2.2.68-.81 1.52-.78 2.07-.2 1.86 1.97 4.42 2.52 6.75 3.4 11.02 4.17 22.08 8.24 33 12.68 8.4 3.42 16.73 6.99 25.28 10.04.9.32 1.73.81 2.61 1.2 1.05.47 1.92 1.16 3.14-.1.88-.9 1.87-.28 2.46 1.2 1.63-1.21 2.98-2.57 3.82-4.48.91-2.08 2.81-3.22 4.74-4.21 1.07-.55 1.73-1.24 2.12-2.39 2.28-6.83 6.48-12.42 11.58-17.35 6.51-6.3 13.88-11.53 21.39-16.53 10.85-7.22 22.31-13.38 34.11-18.9 4.33-2.02 8.83-3.66 13.29-5.36 11.25-4.29 22.32-8.99 33.37-13.76 12.54-5.41 24.85-11.3 36.76-17.99 5.93-3.33 11.57-7.11 16.48-11.87.29-.28.58-.57.92-.77 4.61-2.78 6.03-7.4 6.92-12.25.34-1.86.46-3.79.29-5.72-.17-1.93-.61-3.78-1.53-5.48-.36-.67-.68-1.45-.41-2.02.51-1.08-.06-1.4-.81-1.84-2.7-1.56-5.57-2.77-8.43-4.01-5.27-2.27-10.72-4.06-16.15-5.85-4.06-1.34-8.18-2.61-12.42-3.38-1.86-.33-3.63-1.19-5.47-1.68-3.15-.83-6.34-1.49-9.48-2.35-9.78-2.7-19.6-5.25-29.48-7.54-7.78-1.8-15.32-4.37-22.78-7.19-1.96-.74-3.85-1.87-5.81-2.53-2.32-.78-4.33-2.11-6.37-3.24-2.67-1.48-5.88-2.13-8-4.55-.7-.79-2.16-.22-2.52-1.51-2.01-.67-3.49-2.06-5.07-3.4-.75-.63-2.24-.31-2.67-1.66-2.41-.61-3.6-2.93-5.64-4.06-1.9-1.05-3.06-3.05-5.22-3.81-1.49-.52-2.36-2.05-3.43-3.12-5.14-5.18-10.67-9.97-15.54-15.42-4.91-5.5-9.21-11.47-12.72-17.94-4.49-8.27-6.77-17.22-6.43-26.66.15-4.03.92-8.05 2.24-11.91.26-.75.51-1.44-.18-2.22-1.28-1.44-1.4-1.54-3.15-.57-2.03 1.12-4.03 2.28-6.07 3.39-1.69.92-3.08 2.22-4.31 3.56-.33-.15-.56-.18-.6-.27-.49-1.31-1.25-1.65-2.7-1.32-2.11.48-3.5.9-6.24 2.69-.18.12-.42.21-.63.2-2.21-.05-4.1 1.2-6.21 1.5-2.24.32-4.02 1.82-6.18 2.39-1.48.39-2.84 1.25-4.48.46-.41-.2-1.1.01-1.58.37.02.91-.83 1.05-1.33 1.5-.96.45-2.09.29-3 1.08-.62.55-1.44.29-1.82-.61-.14-.15-.17-.45-.44-.4-.1.02-.09.24-.02.39.01.15-.01.3-.07.44-.54.55-1.31.06-1.89.4-.13.08-.26.07-.38-.03-.38-.2-.27-.56-.3-.87-.05-.07.22-.18-.03-.24-.11-.01-.2-.06-.26-.16l.01.01c-1.01-.79-1.44.39-2.15.64-.42.11-.71.51-1.16.55-2.6.35-4.61 1.68-6.17 3.75-.13.31-.33.56-.54.81-.88.84-2.1 1.02-3.17 1.31-2.59.71-4.56 2.15-6.58 3.91-4.43 3.87-7.96 8.52-11.81 12.89-3.79 4.3-7.01 9.08-10.82 13.38-2.42 2.74-4.83 5.48-7.33 8.14-.61.65-1.06 1.38-1.59 2.07-3.79 4.95-7.43 10.01-11.05 15.09-1.41 1.98-2 4.22-2.47 6.51-.32 1.54-3.47 4.41-4.97 4.28-.38-.03-.52-.29-.55-.64-.03-.36-.23-.55-.59-.63-2.06-.46-3.11-2.12-4.23-3.66-1.02-1.4-1-1.9.11-3.12 5.01-5.51 9.01-11.76 13.24-17.85 6.1-8.79 12.74-17.17 19.83-25.19 4.02-4.55 8.11-9.03 12.17-13.54.37-.42.7-.91 1.15-1.21 1.04-.69 1.31-1.71.92-2.71-.56-1.43.1-2.16 1.2-2.66 6.51-2.99 13.01-5.99 19.71-8.58 7.57-2.93 15.05-6.08 22.62-9 5.2-2.01 10.49-3.79 15.73-5.67.15-.05.31-.17.45-.15 3.53.38 6.33-1.93 9.83-2.45-.68-1.55-1.18-2.94-1.87-4.23-2.84-5.33-5.73-10.64-8.62-15.95-.96-1.77-2.08-2.25-3.49-.88-1.81 1.76-4.13 1.74-6.21 2.53-1.06.4-2.17 1.55-3.51.6-.11 1.11-1.21.62-1.81 1.09 1.34 3.59 3.12 6.97 4.69 10.44.72 1.6 1.53 3.16 2.27 4.75.81 1.76.55 2.86-1.02 3.92-1.05.71-2.16 1.39-3.43 1.66-1.4.3-2.1-.22-2.26-1.67-.32-2.86-.91-5.73-1.95-8.34-.99-2.48-2.01-5.05-3.65-7.28-.7-.96-1.8-.55-2.39-1.31-.77.48-.24 1.67-1.31 1.89-.89.18-1.23-.56-1.82-.88-.54.43-.93 1.24-1.65 1.23-1.53-.01.13.88-.37 1.1-1 .47-2.34.11-3.02 1.39-.14.27-.71.2-1.11 0-.86-.43-1.28-.04-1.66.77-.38.81-1.04 1.23-1.91.46-.11-.1-2.31 1.26-2.4 1.52-.13.4-.3.89-.76.62-1.05-.6-1.39-.27-1.83.78-.3.72-1.17 1.33-2.17 1.21-.8-.09-1.61-.27-1.27 1.03-.74.18-1.37 1.37-2.26.24-.37-.47-.82-.19-1 .08-.56.83.59.3.63.71.02.15.11.3.19.49-.2.09-.39.22-.6.27-.68.14-1.24 1.84-2.11.16-.11-.21-2.24 1.1-2.42 1.52-.49 1.14-.58 1.35-1.13 1.13-.82-.32-1.23-.12-1.69.53-.9 1.3-2.53 1.56-3.72 2.46-.63.48-1.36.87-2.11 1.11-1.21.39-1.47.83-.74 2.03 1.47 2.43 1.3 3.26-.88 5.13-1.99 1.7-4.01 3.4-6.15 4.91-2.54 1.8-4.72 3.99-6.95 6.1-1.16 1.09-2.43 2.04-3.57 3.15-2.73 2.66-5.71 5.08-7.61 8.47-.08.14-.16.34-.28.38-2.09.74-2.65 3.01-4.21 4.24-1.96 1.54-3.12 3.72-4.74 5.5-1.53 1.69-3.25 3.23-4.66 5.05-.98 1.26-2.02 2.46-3.05 3.68-.55.65-.86 1.55-1.89 1.67-.52.06-.63.54-.52.91.3 1.03-.18 1.55-.95 2.17-1.08.86-1.97 1.92-2.53 3.29-.54 1.33-2.46 2.02-2.67 3.16-.28 1.46-.89 2.6-1.6 3.76-1.02 1.65-2.35 3.13-3.18 4.87-.92 1.92-2.59 3.47-2.87 5.71-1.81 1.13-1.88 3.33-2.99 4.89-.6.84-1.16.92-1.98.46-2.78-1.56-5.38-3.46-8.38-4.62-.17-.07-.34-.36-.35-.56-.02-.37.24-.58.61-.53 1.06.15 1.57-.35 1.92-1.33 3.53-9.98 10.13-18.05 16.56-26.17 6.14-7.76 12.58-15.29 19.23-22.63 7.08-7.81 14.26-15.55 22.67-22 1.02-.78 1.15-1.53.79-2.64-1.1-3.41-1.09-3.44 2.11-5.03 11.42-5.67 22.8-11.4 34.29-16.93 7.41-3.57 15.14-6.34 23.08-8.5 2.3-.62 4.66-1.04 7-1.5 2.12-.41 2.12-.37 1.98-2.48-.01-.15.04-.31.08-.56 1.79-.47 2.93.35 4.36 1.5 2.01 1.61 2.62 3.77 3.65 5.84.56 1.12 1.47 2.07 2.21 3.1 1.8 1.94 3.27 4.19 4.22 6.59.8 2.03 1.89 3.82 2.94 5.68 1.09-1.75 1.66-1.86 2.87-.33 1.75 2.2 4.02 3.95 4.75 7 .53 2.22 2.7 3.44 4.68 4.57.83.48 1.35-.01 1.99-.27 2.09-.86 3.26-.35 3.08 1.88-.23 2.94 1.39 3.95 3.63 4.76 1.05.38 2.08.83 3.15 1.15 3.11.92 4.71.15 5.72-2.93.55-1.66.85-3.41.59-5.2-.3-2.09.22-3.83 1.73-5.46 2.71-2.94 1.7-10.32-1.54-12.65-1.11-.8-2.12-.94-2.64.57-1.21 3.57-2.4 7.15-.28 10.84.93 1.61-.09 2.95-1.01 4.14-1.03 1.32-2.21 2.52-3.3 3.79-.72.84-1.49 2.31-2.85 1.51-1.31-.76-2.18-2.07-2-3.82.46-4.44-3.08-9.72-7.56-11.34-.12.11-.18.24-.17.41.08 1.26.99 2.79-1.04 3.37-1.42.4-3.6-.61-4.2-2.1-.48-1.18-.96-2.36-1.42-3.55-.55-1.44-.03-2.75 1.02-3.71 3.69-3.36 7.13-4.2 11.08-1.82 1.16.7 2.4 1.3 3.35 2.3 1.12 1.18 1.73.71 2.14-.61.38-1.23.9-2.39 1.63-3.46.58-.85.78-1.73.26-2.7-.76-1.41-.67-2.76.36-4.02 1.04-1.27.65-2.22-.74-2.83-5.9-2.59-11.71-2.85-17.36.73-2.69 1.7-5.28 3.56-8.01 5.2-1.32.79-2.55.98-3.46-.61-.87-2.48.41-4.23 1.9-6.01 2.4-2.86 5.55-4.4 8.97-5.56.37-.13.77-.23 1.1-.44 4.15-2.64 8.68-2.82 13.37-2.19 3.81.51 7.25 1.83 10.08 4.48.71.66 1.17.54 1.82 0 3.46-2.88 7.52-4.8 11.41-6.96 3.48-1.93 7.42-2.85 11.25-3.96 2.96-.8 5.97-1.56 9.07-1.95zM13.13 289.99c-1.01-.61.02-1.82-.73-2.51-.5-.18-.42.71-1.02.47-.15-1.26-.31-2.58-1.79-3.18-.19-.08-.21-.57-.3-.87-.58-.41-.66-1.04-.78-1.67-.02-.09.25-.46-.14-.32-.17.06-.27.37-.45.53-.44.52-.41-.04-.51-.23-.51-.99-1.19-1.93-1.46-2.98-.3-1.17-1.91-1.14-1.92-2.42-1.46-.07-1.14-1.87-2.37-2.36-1.21-.48-1.47-2.01-2.24-3.02-1.04-1.37-.93-1.69.71-2.48 1.03-.49.8-1.5.64-2.06-.51-1.8.42-3.11 1.2-4.46 1.24-2.12 3.67-2.34 5.11-.36 1.36 1.87 2.45 3.93 3.67 5.9.53.85.84 1.85 2.14 2.04.47.07.91.85 1.24 1.38 3.48 5.63 7.27 11.05 11.03 16.49 4.75 6.89 9.55 13.75 14.24 20.68 6.04 8.93 11.99 17.92 17.98 26.88.9 1.34 1.63 2.78 3.11 3.69.63.39.96 1.24 1.21 2.02.69 2.16 1.83 4.12 3.35 5.76 1.39 1.49.62 3.17.88 4.76.03.19-.06.26-.22.36-1.19.79-2.12 1.94-3.44 2.56-1.53.71-2.47.59-3.53-.8-1.92-2.53-4.23-4.77-5.8-7.57-.12-.2-.29-.38-.47-.54-2.66-2.53-4.7-5.57-6.93-8.46-.91-1.19-1.57-2.51-2.44-3.72-3.4-4.71-6.5-9.63-9.99-14.27-1.34-1.79-2.32-3.88-4.05-5.35-.75-.63-.84-1.51-1.33-2.21-.51-.73-.18-2.26-1.81-1.97-.07.01-.24-.2-.27-.32-.45-2.21-2.14-3.83-2.84-5.93-.07-.22-.18-.48-.35-.61-1.04-.76-.59-2.05-1.06-2.95-.53-1.03-.91-2.03-.97-3.16-.04-.76-.39-1.28-1.19-1.74-.13 1.16.9 2.13.04 3.19-1.34-.36-1.75-1.24-1.51-2.64.26-1.55-.41-2.18-2.15-3.02-1.07-.52-2.06-1.36-2.54-2.57.21-.03.42-.06.54-.27-.14.02-.21.13-.32.23-.22.19.09-.11-.17.08z"/><path fill="#ff0" d="M155.37 45.86c2.24 1.03 2.51.99 4.17-.62.11-.11.17-.32.3-.37 3.09-1.1 5.28-3.59 8.04-5.17 2.17-1.24 4.7-1.58 7.17-1.67 3.56-.12 6.99.51 10.12 2.37 1.59.95 1.75 1.44.61 2.9-1.58 2.01-1.58 2.01-.22 4.29.33.55.71 1.13.13 1.74-1.67 1.73-2.32 3.96-3.05 6.15-.07.21-.25.38-.5.74-1.51-1.08-2.72-2.48-4.32-3.37-1.05-.58-2.11-1.1-3.25-1.49-1.6-.54-3.15-.44-4.62.38-1.04.58-2.09 1.18-3.04 1.9-1.55 1.18-1.86 2.73-.88 4.42.37.63.67 1.23.77 1.97.21 1.48 1.49 1.99 2.62 2.48.59.26 1.5.38 2.05-.17.54-.55-.07-1.18-.19-1.78-.16-.76-.71-1.46-.34-2.42.82-.25 1.5.27 2.1.68 2.98 1.98 5.3 4.59 6.97 7.75.47.9 1.06 1.85.43 2.93-.83 1.4-.48 2.56.62 3.65.37.36.58.88.91 1.39 2.25-2.19 4.33-4.48 6.06-7.07.6-.9.72-1.72-.08-2.55-1.18-1.22-1.18-2.68-1.02-4.25.24-2.31.62-4.58 1.39-6.77.7-1.99 1.91-2.39 3.59-1.04 1.41 1.12 2.28 2.64 2.82 4.35.84 2.68.66 5.35-.16 8-.19.62-.42 1.26-1 1.59-1.59.9-1.63 2.4-1.59 3.92.05 1.59.11 3.16-.09 4.75-.27 2.12-1.69 3.56-2.81 5.17-.39.56-1.17.36-1.81.29-2.01-.21-3.87-.91-5.7-1.72-.8-.35-1.55-.88-2.38-1.1-1.38-.38-1.76-1.1-1.4-2.47.28-1.08.18-2.22-.22-3.3-.22-.6-.68-.79-1.1-.48-.96.71-2.45.72-2.75 2.15-.9-.12-.62-.74-.7-1.14-.09-.44-.29-.92-.69-.76-1.29.52-1.79-.53-2.31-1.2-1.25-1.6-2.91-3.03-2.82-5.36.02-.64-.6-1.08-.96-1.28-1.77-.97-2.49-2.77-3.64-4.22-.09-.11-.26-.17-.47-.31-1.27.9-.37 2.11-.31 3.35-.43-.26-.83-.36-.93-.58-.69-1.72-2.44-3.1-2.69-4.71-.56-3.56-3.74-5.65-4.42-9.01.12-.1.25-.18.36-.29 1.05-1.05 1.28-1.55 1.23-2.64z"/><path fill="#060606" d="M139.48 52c.78-.04 1.3.1 1.83.32 1.86.79 1.91 1.04.63 2.64-.66.83-1.45 1.47-2.37 1.95-1.35.7-2.81.41-3.8-.71-.75-.85-.74-1.71.16-2.43 1.1-.89 2.17-1.91 3.55-1.77z"/><path fill="#0A0A0A" d="M153.7 375.85c-.21 1.01-.63 2.02-1.45 2.62-.91.65-1.81.15-2.56-.58-.28-.28-.63-.49-.93-.75-1.64-1.41-1.47-2.46.54-3.31 1.72-.73 4.3.43 4.4 2.02z"/><path fill="#363636" d="M104.9 98.63c.02-.37.03-.73.05-1.1.89-1.01 2.18-1.27 3.35-1.68 1.3-.46 2.43-1.1 3.38-2.09.29-.15.58-.31.86-.46.23.16.24.33.01.5.28.63 1.35.06 1.46 1.2-2.89 1.41-5.98 2.56-9.11 3.63z"/><path fill="#525252" d="M118.33 57.8c-.15-.46-1.26-.84-.13-1.39.7-.35 1.43-.63 2.15-.95-.06 1.31-.62 2.19-2.02 2.34z"/><path fill="#AEAEAE" d="M7.93 282.44c.04-.67-.05-1.81.58-1.79 1.44.05.22 1.15.35 1.76.11.52.31.99.43 1.49-1.33.34-.68-1.18-1.36-1.46z"/><path fill="#808080" d="M456.17 277.7c1.05.05 1.9.47 2.42 1.42-1.05.72-1.9.12-2.68-.48-.44-.34.05-.65.26-.94z"/><path fill="#565656" d="M117.85 93.31c-.76.05-1.26-.24-.94-1.05.24-.59.94-.61 1.41-.4.95.41.26.97 0 1.46-.16.08-.32.08-.47-.01zM112.56 93.8c0-.17-.01-.33-.01-.5 1.03-1.31 1.05-1.31 2.37-.42-1.04-.36-1.33 1.22-2.36.92z"/><path fill="#616161" d="M439.93 269.94c1.02-.1 1.24.64 1.47 1.37-1.2.31-1.69-.15-1.47-1.37z"/><path fill="#808080" d="M459.09 280.08c.47-.47.93-1.1 1.47-.07.13.3.74.43.4.89-.23.31-.59.12-.81-.05-.35-.27-.93-.23-1.06-.77z"/><path fill="#6C6C6C" d="M123.13 92.84c-.22-1.09 1.14-.78 1.33-1.5.47 1.31-.39 1.44-1.33 1.5z"/><path fill="#6A6A6A" d="M21.33 304.42c-.42.01-.5-.34-.54-.62-.03-.2.16-.6.24-.6.46.01.59.39.68.78.07.31-.16.37-.38.44z"/><path fill="#616161" d="M442.32 271.9c.36-1.78.96-.36 1.47-.11-.5-.1-.93.73-1.47.11z"/><path fill="#565656" d="M115.88 94.16c.51-.72 1.23-.41 1.89-.4-.41 1.13-1.25.28-1.89.4z"/><path d="M158.41 394.44c.11.69.42 1.11 0 1.5-.22-.36-.17-.73 0-1.5z"/><path fill="#808080" d="M454.3 277.65c.48-.36.93-1.07 1.51-.11-.47.42-.94.88-1.51.11z"/><path fill="#565656" d="M114.92 92.87c.17-.01.35-.02.52-.04l-.02-.03.09 1.33c-.78-.15-.52-.78-.59-1.26z"/><path fill="#808080" d="M452.3 275.84c.77.13.54.77.64 1.25-.79-.13-.55-.77-.64-1.25z"/><path fill="#fff" d="M715.95 69.17c-1.4 1.52-3.13 2.62-4.8 3.79-7.31 5.13-14.95 9.75-22.66 14.23-6.97 4.05-14.1 7.82-21.17 11.7-3.28 1.8-6.6 3.53-9.88 5.34-12.01 6.64-24.34 12.65-36.49 19.04-5.79 3.04-11.52 6.2-17.38 9.11-11.5 5.7-22.98 11.48-34.42 17.3-10.39 5.28-20.7 10.71-31.08 16-9.88 5.04-19.83 9.93-29.69 14.99-10.56 5.43-21.04 11-31.57 16.48-3.89 2.02-7.84 3.93-11.75 5.93-6.87 3.53-13.75 7.03-20.57 10.65-10.21 5.43-20.63 10.45-30.9 15.75-8.44 4.36-16.86 8.74-25.33 13.05-7.33 3.73-14.76 7.26-22.05 11.09-10.53 5.53-20.93 11.31-31.3 17.14-8.55 4.81-17.07 9.69-25.95 13.87-6.44 3.03-12.67 6.43-18.76 10.09-1.23.74-2.52 1.37-3.81 2.01-2.04 1.01-2.07 1.04-1.6 3.28-1.32.26-2.5-.13-3.67-.66-1.66-.74-3.2-.8-4.49.79-.49.6-1.31.54-1.99.73-1.27.36-2.28.97-2.17 2.43.06.9-.65 1.1-1.07 1.54.27.68.82.47 1.26.52.53.07 1.11-.09.94.89-.09.5.69.59 1.13.6 2.29.06 4.5.62 6.87.39 5.09-.48 10.2-.27 15.06 1.69.81.33 1.65.64 2.5.83 5.44 1.24 9.64 4.45 13.47 8.29 1.64 1.64 3.25 3.31 4.79 5.03 1.86 2.08 2.96 4.74 3.98 7.33 2.57 6.57 3.98 13.4 3.99 20.48 0 4.59-1.14 9.01-2.24 13.44-1.41 5.66-4.05 10.74-7.09 15.64-4.89 7.86-11.42 14.01-19.1 19.19-10.66 7.19-22.17 12.28-34.55 15.54-10.54 2.77-21.25 4.38-32.15 4.14-7.57-.17-14.85-2.06-21.77-5.18-6.86-3.1-12.21-8.04-16.61-14.06-2.64-3.61-4.9-7.43-6.61-11.58-1.04-2.52-2.5-4.82-4.42-6.79-.48-.5-.82-1-.14-1.61 2.81-2.52 4.85-5.7 7.34-8.49.15-.17.38-.27.62-.43 2.14 1.67 3.37 4.33 6.01 5.35-.01.21.02.44-.04.47-2.2 1.22-2.83 3.54-3.81 5.58-.74 1.55-.47 3.07.41 4.56 1.2 2.03 2.93 3.58 4.58 5.18 1.17 1.14 2.49 1.05 3.72-.04.89-.79 1.61-.81 2.44.05.71.73 1.62 1.22 1.89 2.37.15.65.76 1.2 1.19 1.77.48.64 1.05 1 1.81.38.75-.61 1.34-.53 2.01.22.85.95 1.8 1.67 3.21 1.91 1.17.2 1.81 1.5 2.65 2.34 1.02 1.03 2.02 1.84 3.54.99.26-.14.52-.24.83.06 3.23 3.07 7.4 3.65 11.54 4.37 3.93.68 7.79.06 11.66-.36 1.36-.15 2.71-.06 4.07-.12 3.88-.17 7.43-1.62 10.97-2.98 4.46-1.71 8.71-3.94 12.94-6.16 1.63-.85 3.36-1.44 4.99-2.3 5.13-2.73 9.58-6.32 13.74-10.32 1.44-1.38 2.98-2.66 4.43-4.03 2.12-2 4.21-4.05 5.91-6.42 1.95-2.7 4.07-5.25 5.7-8.22 3.97-7.23 5.37-14.85 4.63-22.99-.34-3.76-.92-7.43-2.28-10.96-2.2-5.71-5.8-10.14-11.25-13.13-3.81-2.09-7.66-3.95-11.9-4.94-1.49-.35-2.7-1.29-4.18-1.73-5.03-1.47-10.23-1.57-15.35-2.32-4.41-.64-8.76-.63-13.1.15-3.76.68-7.46 1.62-11.12 2.78-4.04 1.29-7.92 2.94-11.66 4.9-5.43 2.84-10.71 5.89-15.43 9.91-4.2 3.57-8.4 7.09-11.79 11.46-2.21 2.85-3.87 6.02-5.17 9.62-3.05-2.94-6.59-4.92-10.72-5.91.69-2.39 2.52-3.81 3.91-5.52 3.84-4.72 8.24-8.89 12.92-12.76 2.21-1.83 4.53-3.54 6.91-5.14 2.91-1.95 5.68-4.08 8.64-5.96 4.78-3.04 9.74-5.73 14.75-8.34 5.29-2.76 10.64-5.44 16.12-7.8 5.34-2.3 10.87-4.12 16.31-6.18 4.89-1.86 9.75-3.81 14.67-5.6 1.02-.37 1.53-1.43 2.61-1.6 2.22-.35 4.1-1.63 6.2-2.34 1.62-.55 3.47-.84 4.85-2.26 1.1-1.13 2.9-1.17 4.35-1.8 2.42-1.05 4.82-2.2 7.33-3.07 1.75-.6 3.24-1.75 5.11-2.2 1.04-.25 2.06-.97 3.07-1.5 4.54-2.36 9.14-4.6 13.57-7.17 1.82-1.05 3.83-2 5.48-3.2 2.05-1.49 4.16-2.75 6.38-3.91 1.79-.93 3.13-2.51 4.98-3.38 1.15-.54 1.52-1.89 2.55-2.72 1.54-1.24 3.44-2.02 4.59-3.88 1.26-2.05 3-3.82 4.61-5.64.45-.51.4-.97.36-1.53-.13-1.99.61-3.64 2.25-4.75.77-.52 1.1-1.08 1.03-1.96-.05-.65.21-1.23.4-1.85.49-1.69.74-3.42.67-5.19-.07-1.98-.36-3.97.22-5.94.28-.94-.23-1.88-.43-2.77-.33-1.44.18-2.27 1.31-2.99 4.38-2.78 8.71-5.65 13.25-8.16 3.84-2.12 7.67-4.24 11.52-6.35 5.79-3.18 11.62-6.29 17.38-9.53 6.72-3.78 13.61-7.24 20.33-11.04 3.83-2.17 8.01-3.73 11.92-5.77 5.79-3.01 11.81-5.55 17.53-8.67 5.02-2.73 10.12-5.32 15.28-7.69 3.41-1.57 6.7-3.42 10.15-4.93 3.09-1.35 6.27-2.63 9.18-4.39 1.86-1.13 4.09-1.35 5.91-2.56 1.96-1.3 4.21-2.02 6.39-2.85 1.65-.63 3.07-1.66 4.57-2.51 1.76-.99 3.65-1.43 5.47-2.11 2.99-1.12 5.84-2.57 8.82-3.68 3.02-1.12 5.66-3.06 8.85-3.75.83-.18 1.53-.8 2.27-1.21 1.43-.78 3-1.45 4.66-1.65.54-.07 1.11.03 1.61-.26 3.8-2.2 8.09-3.28 12-5.2 3.43-1.68 7.12-2.64 10.55-4.26 3.01-1.42 6.29-2.16 9.26-3.47 4.49-1.98 9.33-2.89 13.71-5.08 1.4-.7 3.09-.77 4.26-1.99.6-.62 1.25.18 1.99-.08 3.37-1.15 6.8-2.14 10.02-3.68 2.31-1.11 4.87-1.37 7.21-2.36 3.75-1.6 7.79-2.26 11.6-3.8 2.79-1.12 5.76-2.1 8.82-2.68 1.52-.29 3.52-.17 4.59-1.93.11-.19.75-.07 1.14-.08 1.18-.03 2.42.06 3.27-.98.66-.8 1.62-.5 2.37-.58 2.54-.26 9.33-2.12 11.16-3.36.33-.22.54-.55 1.01-.42 1.24.35 2.19-.13 2.95-1.08.49-.61 1.46 0 1.92-.87.12-.23.45 1.38 1.42.48.49-.46 1.25-.81 1.92-.87.76-.07 1.47.1 2.23-.41.61-.41 1.49-.4 2.25-.58.7-.17 1.4-.33 2.08-.55.76-.25 1.5-.56 2.23-.87.87-.36 1.77-.32 2.69-.35 1.27-.03 2.25-.95 3.5-1.25 4.59-1.12 9.11-2.5 13.68-3.72 5.09-1.37 10.19-2.7 15.3-4 4.43-1.12 8.88-2.16 13.32-3.22.24-.04.58-.11.95.28zM684.15 355.35c.11-.25.29-.32.53-.17 4.11 2.54 8.53 4.56 12.34 7.59.91.72 2.17.92 3.05 1.74.54 1.49 1.92 2.07 3.18 2.46 1.1.34 1.39.97 1.64 1.85.21.12.4.32.62.34.78.09.79.23 1.52 1.02.87.93 2.04 1.49 3.31 1.79.92.22 1.84.44 2.76.68.37.1.85.21.74.73-.11.53-.75.09-1.04.58 1.31.12 2.23 1.53 3.76 1.09.11-.03.33.11.39.22.74 1.38 2.12 1.68 3.46 2.05 1.65.45.08 1.5.36 2.27.22.59-.66.35-1 .27-4.57-1.15-9.15-2.25-13.68-3.54-9.43-2.68-18.75-5.71-27.94-9.15-7.77-2.91-15.49-5.94-23.25-8.86-11.35-4.26-22.61-8.75-33.75-13.54-6.8-2.93-13.71-5.62-20.39-8.82-3.16-1.51-6.41-2.82-9.57-4.32-2.41-1.15-5-2.04-7.39-3.22-3.93-1.93-8.07-3.36-11.92-5.49-2.71-1.5-5.61-2.65-8.42-3.98-3.51-1.67-7.02-3.34-10.49-5.1-2.74-1.39-5.61-2.59-8.4-3.93-7.18-3.45-14.38-6.83-21.47-10.45-3.25-1.66-6.48-3.33-9.79-4.87-7.29-3.37-14.58-6.75-21.73-10.41-6.71-3.43-13.57-6.54-20.3-9.92-8.75-4.39-17.65-8.46-26.34-12.97-8.05-4.17-16.28-8-24.33-12.18-3.6-1.87-7.34-3.51-10.74-5.82.12-.74.86-.8 1.38-1.07 4.74-2.48 9.57-4.81 14.24-7.41 5.22-2.91 10.75-5.22 15.85-8.33.96-.59 1.69-.42 2.62.06 4.02 2.07 7.69 4.75 11.84 6.62 5.54 2.49 10.68 5.78 16.05 8.62 3.27 1.73 6.6 3.36 10.01 4.82 2.09.89 3.93 2.34 5.95 3.42 1.79.95 3.69 1.69 5.5 2.61 1.7.86 3.51 1.61 5.08 2.58 1.47.92 3.37 1.31 4.44 2.87 2.87.72 5.07 2.72 7.62 4.04 7.08 3.67 14.23 7.22 21.16 11.16 8.18 4.65 16.65 8.75 24.81 13.44 7.04 4.05 14.23 7.82 21.31 11.81 2.69 1.52 5.29 3.2 8.06 4.58.97.49 2.02.79 3.02 1.25 2.11.95 3.98 2.27 5.97 3.4 2.08 1.18 4.27 2.16 6.32 3.39 3.94 2.35 8.34 3.74 12.25 6.2 2.77 1.75 5.88 2.95 8.81 4.44 1.7.86 3.4 1.72 5.12 2.53 1.21.57 2.46 1.29 3.61 2.06 2.44 1.64 5.07 2.98 7.7 4.19 2.51 1.16 4.91 2.54 7.42 3.71 5.2 2.43 10.29 5.12 15.36 7.82 4.71 2.5 9.34 5.12 13.89 7.91 1.34.82 2.82 1.59 4.31 2.25 1.36.6 2.77 1.22 3.63 2.57-.16 1.05.35.87.95.52zM190.18 87.77c6.48-1.68 10.55-5.98 13.58-11.46.51-.93 1.48-1.58 1.76-2.54.8-2.78 2.89-4.58 4.63-6.68 1.97-2.37 2.48-4.98.72-7.72-.37-.57-.4-.92.08-1.44 1.43-1.54 2.61-3.23 2.84-5.41.07-.69.48-.89 1.09-1.03.62-.14 1.21-.35 1.86-.33 1.67.06 3.09-.49 4.41-1.55 1.33-1.07 3.05-1.1 4.36.02 1 .85 2.04.96 3.25 1.15 5.17.79 10.4 1.15 15.39 3.1 6.41 2.5 12.7 5.11 18.01 9.6 2.01 1.71 4.3 3.01 6.43 4.54 3.97 2.85 7.04 6.66 10.52 10.04 1.14 1.1 2.15 2.35 3.34 3.39 2.38 2.08 3.82 4.89 5.85 7.24.47.55.99 1.29.72 1.95-.56 1.41.15 2.51.68 3.6 1.29 2.63 1.79 5.45 2.11 8.3.67 5.94.17 11.81-1.37 17.58-.34 1.28-.87 2.39-2.18 3.23-1.5.97-2.49 2.63-4 3.72-4.72 3.4-10.12 4.92-15.7 6.13-9.07 1.96-18.24 2.23-27.41 1.24-5.64-.61-11.11-2.11-16.39-4.28-4.61-1.89-8.13-5.18-11.71-8.49-3.6-3.34-6.26-7.43-9.36-11.17-2.29-2.77-3.61-6.19-5.39-9.31-.36-.62-.69-1.26-1.05-1.88-.71-1.24-1.27-2.44-1.28-4-.01-1.54-.71-3.08-1.14-4.61-.12-.42-.48-.68-.92-.57-.69.17-1.46.66-2.04.08-.64-.64-1.07-1.52-1.69-2.44zM237.28 399.45c-4.03-.01-7.21-.18-10.33-.93-.7-.17-1.39-.36-2.06-.61-1.5-.57-1.46-.58-1.07-2.19.41-1.7.83-3.43.26-5.17-.78-2.4-2.26-4.2-4.64-5.18-.59-.24-1.18-.5-1.8-.65-1.24-.31-1.69-1.08-1.46-2.29.24-1.28-.07-2.54-.29-3.76-.35-1.91-1.12-3.71-3.01-4.66-.84-.42-1.15-.96-.99-1.89.29-1.67-.25-3.25-1.25-4.49-.84-1.04-.61-1.87-.22-2.86.03-.07.06-.15.09-.22 2-4.89-.21-9.93-5.2-11.83-2.64-1.01-2.62-.99-1.12-3.32 2.43-3.78 5.28-7.22 8.67-10.16 4.51-3.9 9.12-7.71 14.22-10.81 2.42-1.47 5.07-2.6 7.6-3.9 3.04-1.57 6.15-2.97 9.34-4.18 1.78-.67 3.63-1.18 5.45-1.76.63-.2 1.21-.19 1.84.14 1.42.74 3 .63 4.32-.04 1.08-.54 2.12-.58 3.17-.49 7.24.64 14.38 1.9 21.32 4.05 5.45 1.69 10.4 4.42 14.77 8.15 3.65 3.11 5.56 7.12 6.3 11.76.85 5.35.14 10.48-2.27 15.36-1.66 3.36-3.07 6.85-5.41 9.83-.79 1-1.68 1.92-2.51 2.89-.98 1.14-2.2 2.1-2.36 3.78-.06.66-.66 1.08-1.12 1.51-4.24 3.99-8.73 7.69-13.17 11.44-1.55 1.31-3.26 2.29-5.09 3.09-2.84 1.24-5.82 2.21-8.54 3.67-2.68 1.44-5.59 2.28-8.29 3.6-2.27 1.11-4.73 1.45-7.17 1.71-2.91.33-5.87.32-7.98.41zM211.89 132.69c2.04 2.52 4.76 4.17 7.57 5.65 3.31 1.75 6.41 3.89 9.87 5.36.51.22 1 .55 1.54.65 5.4 1.06 10.46 3.29 15.79 4.54 4.27 1 8.65 1.4 13.03 1.56 2.3.08 4.62.05 6.92-.14 6.54-.55 12.94-1.79 18.8-4.93 5.86-3.13 10.44-7.64 13.4-13.57 1.68-3.36 2.39-7.1 2.84-10.84.38-3.17.62-6.36.3-9.54-.09-.92.19-1.44.9-2.01 2.06-1.66 2.64-3.66 1.8-6.35-3.19-10.21-8.61-19.13-15.06-27.57-5.43-7.1-11.75-13.32-18.63-18.91-8.89-7.22-19.13-11.81-30.51-13.56-3.7-.57-7.47-.64-11.22-.29-.96.09-1.88.23-2.68.87-.49.39-1.04.75-1.71.81-.69.05-1.35.08-1.08-.96.08-.31.12-.63.15-.95.56-5.44-3.53-7.63-7.53-7.17-2.97.34-5.52 1.59-7.3 4.09-.47.67-.81.98-1.7.67-1.28-.46-2.65-.57-4.02-.49-2.7.17-4.9 1.37-6.65 3.36-.92 1.05-1.05 2.4-.64 4.1-1.9-.85-3.4-1.29-5.32-1.23 2.78-3.54 5.71-6.48 9.37-8.62 2.28-1.34 4.73-2.26 7.31-2.88 2.07-.5 4.24-.83 5.86-2.48.38-.39 1.04-.33 1.58-.45 6.08-1.3 12.2-1.35 18.34-.58 7.15.9 14.16 2.33 20.75 5.42 10.13 4.75 19.19 11 27.47 18.53 11.09 10.08 19.12 22.23 24.93 35.9 3.21 7.55 3.93 15.61 3.25 23.73-.81 9.69-4.67 18.33-9.98 26.35-2.07 3.12-4.66 5.88-7.24 8.59-2.44 2.56-4.38 5.49-6.09 8.56-.44.78-.86 1.5-1.73 1.88-.6.26-.87.76-.98 1.49-.42 2.66-.14 2.97 2.36 4.05 2.64 1.13 5.36 1.37 8.15 1.48 6.37.26 12.74.63 19.07 1.4 7.75.94 15.46 2.24 23 4.32 9.46 2.61 18.79 5.63 27.76 9.65 6.11 2.74 12.07 5.81 17.96 9 .47.26.92.56 1.63 1.01-1.06.68-1.89 1.25-2.76 1.75-3.45 2.02-7.09 3.76-10.31 6.09-3.58 2.59-7.79 4.06-11.24 6.79-.98.78-1.79.75-2.77.05-3.06-2.17-6.04-4.45-9.27-6.37-4.72-2.81-9.47-5.62-14.54-7.73-4.77-1.99-9.82-3.2-14.86-4.4-5.66-1.35-11.29-2.85-16.94-4.24-2.48-.61-4.97-1.19-7.52-1.39-.4-.03-.8-.09-1.18-.21-6.42-2.15-13.04-3.6-19.51-5.56-6.18-1.87-12.25-4.06-18.38-6.04-8.58-2.76-16.41-7.01-24.08-11.59-10.26-6.13-19.54-13.57-28.12-21.83-8.23-7.93-15.8-16.48-21.44-26.52-1.61-2.86-2.43-6.08-3.17-9.26-1.12-4.75-1.62-9.59-1.4-14.49.08-1.79.2-1.95 1.76-1.34 2.9 1.12 5.95 1.64 9.04 2.21-.46 2.59.29 4.79 1.31 6.99 1.84 3.96 3.83 7.89 5.23 12.02 1.01 2.98 2.17 5.8 3.83 8.44 1.51 2.4 2.91 4.87 4.85 6.97 1 1.09 1.59 2.45 2.6 3.58 1.4 1.56 3.13 2.73 4.46 4.33.4.48.88.91 1.33 1.36.52.21 1 .52 1.45.89z"/><path fill="#ff0" d="M182.99 359.79c-.14.28-.22.36-.2.42.84 2.86-.87 4.92-2.09 7.23-1.39 2.63-3.27 4.62-5.77 6.16-1.22.75-2.4 1.18-3.84.93-.62-.11-1.27-.04-1.91-.06-2.02-.04-2.44.5-1.78 2.36.36.99 1 1.83 1.75 2.54 1.24 1.17 1.97 2.93 3.91 3.34.82.17.55 1.05.61 1.64.4 4.08 1.3 8.03 3.15 11.71.86 1.71 1.78 3.38 2.67 5.07.36.68 1.03 1.24.89 2.21-1.94.58-3.83.11-5.58-.56-5.75-2.2-10.21-5.86-12.43-11.8-.44-1.17-.89-2.34-.38-3.69.37-.98.69-1.38 1.65-.69.16.11.43.06.92.12 0-3.58-.02-7.09.01-10.59.01-.88-.27-1.78 1.03-2.32.84-.34.35-1.49-.06-2.12-.65-1.02-.77-1.86.21-2.71.16-.14.18-.44.25-.66 1.92-5.69 5.7-10.06 10.02-14.03 1.51-1.39 3.14-2.43 5.37-1.67.78.26 1.62.23 1.73-.97.08-.84.79-.91 1.43-.97 5.65-.48 10.43 2.37 11.03 8.86.19 2.08.06 4.14-.41 6.19-.23.99-.76 1.26-1.71 1.21-.95-.06-1.66-.47-2.33-1.09-1.18-1.09-2.12-2.38-3.01-3.71-.87-1.29-1.85-2.35-3.64-2.11-.44.07-.92-.14-1.49-.24z"/><path fill="#FCFC01" d="M208.23 54.18c-.94-.46-1.64-1.21-2.36-1.91-1.25-1.21-2.42-2.48-4.06-3.25-1.12-.53-1.78-3.05-1.33-4.27.22-.61.78-.76 1.29-.92 2.59-.82 6.22.87 7.43 3.39.23.48.35.88-.13 1.25-1.39 1.06-1.32 2.39-.75 3.84.21.57.45 1.17-.09 1.87z"/><path fill="#FBFB01" d="M202.95 389.09c.18-.84.82-1.37 1.3-1.96 1.45-1.8 2.8-3.65 3.91-5.69.62-1.13 1.49-2.07 2.57-2.78.73-.48 1.29-.21 1.21.68-.18 2.18.11 4.53-1.89 6.14-.61.49-.43 1.13-.49 1.75-.18 1.79-1.19 2.68-2.96 2.66-.63-.01-1.3.02-1.9-.14-.57-.17-1.24-.16-1.75-.66z"/><path fill="#FAFAFA" d="M200.22 372.56c1.88 2.37 1.88 2.35 4.39.75.5-.32.89-.95 1.65-.79.37.62-.06 1.11-.39 1.48-1.26 1.38-1.95 3.02-2.71 4.7-1.23 2.74-2.85 5.29-5.95 6.42-.37-.76-.39-1.41.28-1.77.72-.38.98-1.04 1.28-1.67 1.25-2.61 1.32-2.87-.2-5.33-.61-.99-.71-1.55.34-2.05.74-.35.69-1.23 1.31-1.74z"/><path fill="#FCFC01" d="M201.2 368c0-1.28.01-2.59 0-3.9-.01-.71-.01-1.43-.09-2.13-.28-2.54.56-3.49 3.14-3.47 1.78.02 2.24.51 1.73 2.16-.75 2.43-1.58 4.85-3.43 6.72-.31.33-.61.74-1.35.62z"/><path fill="#FCFC02" d="M213.73 42.2c-.01-1.76.59-2.34 2.28-2.2 2.11.17 3.62 2.04 3.32 4.12-.07.47-.11.96-.24 1.41-.19.64-.05 1.56-.96 1.73-.95.17-1.91.14-2.65-.68-.8-.88-1.74-3.18-1.75-4.38z"/><path fill="#F5F502" d="M200.03 55.82c3.19 2.45 5.96 4.8 6.52 8.86-1.03-.14-1.36-.94-1.91-1.46-.99-.92-1.91-1.91-3.46-1.75-.8.08-1.14-.44-1.14-1.18-.02-1.4-.01-2.79-.01-4.47zM211.58 393.6c1.11-2.25 4.55-4.26 6.66-3.9 1.32.23 1.54.64.9 1.72-.64 1.07-1.78 1.53-2.72 2.25-1.03.79-2.02.82-3.06.2-.58-.34-1.27.28-1.78-.27z"/><path fill="#F6F602" d="M198.51 66.23c1.71 1.65 3.54 3.16 3.34 5.89-.09 1.19-.44 1.45-1.47.98-.36-.16-.68-.41-1.02-.62-2.77-1.66-3.05-3.44-.85-6.25z"/><path fill="#B9B9B9" d="M111.69 93.76c-.04 1.04-.45 1.62-1.57 1.96-1.74.53-3.36 1.44-5.17 1.81.3-.97.78-1.62 1.88-2.02 1.34-.49 2.33-1.72 3.84-2.03.47-.1.71.05 1.02.28z"/><path fill="#A1A1A1" d="M704.89 368.82c-.56-.56-.91-1.28-1.95-1.3-1.2-.02-1.99-1.12-3.02-1.64-.75-.38.04-.91.16-1.37 1.34.47 2.47 1.31 3.69 1.99 1.03.57 1.12 1.37 1.12 2.32z"/><path fill="#6C6C6C" d="M97.91 99.77c.26-.69.99-.66 1.48-.99.44-.3.72-.01.76.46.03.37-.08.98-.53.7-.61-.37-1.22.44-1.71-.17z"/><path fill="#4F4F4F" d="M684.15 355.35c-.73.59-1.68.56-1.8-.12-.08-.47.51-.37.86-.4.22.34.55.48.94.52z"/><path fill="#8B8B8B" d="M34.34 129.81c-.21-.11-.41-.22-.23-.48.16-.24.31-.55.68-.43.22.07.37.23.22.48-.15.26-.32.5-.67.43z"/><path fill="#838383" d="M211.89 132.69c-.62-.08-1.31-.06-1.48-.89.6.13 1.36-.03 1.48.89z"/><path fill="#565656" d="M115.44 92.83c.24-.3.49-.62.9-.24.07.07.08.32.01.4-.41.47-.6-.21-.93-.2l.02.04z"/><path fill="#fff" d="M13.14 289.99c.09-.46.18-.93.28-1.4.88.1.49.89.69 1.36.07.17.02.48-.3.5-.37.02-.55-.23-.71-.53-.01 0 .03.07.04.07z"/><path fill="#A3A3A3" d="M6.55 277.44c-.21-.1-.42-.23-.38-.49.03-.25.23-.39.47-.35.25.04.38.22.32.48-.06.19-.05.49-.41.36z"/><path d="M392.4 212.06c-4.47 2.19-6.64 5.55-6.07 9.3.63.18.96-.48 1.48-.54.73-.08 1.41-.03 1.81.78 1 2.03 1.29 4.1.36 6.23-.61 1.41-1.59 1.85-2.85.98-6.72-4.64-9.46-12.71-4.83-19.51.09-.13.15-.3.27-.39 3.6-2.87 6.71-6.37 10.98-8.37 2.09-.98 4.24-1.31 6.51-.92 2.15.37 4.2 1.13 6.01 2.26 3.09 1.93 4.73 4.9 5.13 8.49.67 5.92-1.47 10.8-5.85 14.7-1.6 1.43-3.43 2.6-5.11 3.95-.72.58-1.56.88-2.39 1.03-1.6.3-3.17.27-4.22-1.39-.88-1.4-2.14-2.58-2.2-4.4-.05-1.57.87-2.53 2.43-2.48 3.51.1 3.56.07 1.94-2.94-1.18-2.23-2-4.66-3.4-6.78zM435.68 212.52c.24-2.9-1.04-5.02-2.06-7.12-2.25-4.65-4.76-9.19-7.18-13.76-.41-.78-.91-1.48-.83-2.44.05-.56-.11-1.14-.55-1.54-.69-.62-.59-1.2-.06-1.86.83-1.05 1.03-2.42 1.69-3.56.88-1.51 1.52-1.49 2.56-.13.53.69.78 1.89 2.16 1.16.41-.21.59.4.73.74 2.43 6.16 6.02 11.77 8.6 17.85.53 1.24.92 2.55 1.39 3.82.33.91.24 1.76-.47 2.44-1.73 1.64-3.51 3.19-5.98 4.4z"/><path fill="#4F4F4F" d="M689.54 359.48c.11-.2.25-.34.51-.26.39.12.71.35.81.72.04.15-.27.29-.51.24-.4-.07-.69-.3-.81-.7z"/><path fill="#FCFCFC" d="M401.25 217.86c-1.09-2.82-2.07-5.4-3.09-7.96-.35-.88.08-1.32.72-1.76 1.6-1.08 5.46-1.01 7.05.12.79.56.8 1.29.64 2.11-.31 1.52-1.17 2.78-1.99 4.03-.83 1.25-1.81 2.38-3.33 3.46z"/></g><g class="frame--3" fill-rule="evenodd" clip-rule="evenodd"><path fill="#969595" d="M196.12 458.41c.01.14-.01.28-.04.42h-7.68l-.13-.18.08-.21c2.58-1.33 5.17-1.29 7.77-.03z"/><path d="M196.12 458.41l-7.77.03c-6.09-.19-12.04-1.05-17.75-3.3-4.69-1.85-9.17-4.06-13.18-7.15-.37-.29-.78-.51-1.3-.85-.69.67.08 1.97-1.23 2.34-.88.25-1.7.95-2.63 1.04-5.41.56-10.46-.04-15.1-3.45-2.35-1.73-4.76-3.37-6.95-5.3-.65-.58-1.17-.99-1.25-2.15-.08-1.3-1.4-2.38-2.47-3.33-.32-.14-.66-.25-.88-.56-1.02-1.22-2.31-2.2-3.22-3.54-.9-1.34-1.46-2.69-1.66-4.38-.25-2.22-1.17-4.36-1.88-6.84-.97 1.1-1.71 1.81-2.31 2.63-1.44 1.96-3.56 2.85-5.67 3.79-.75.33-1.41.37-1.76-.51-.17-.41-.41-.61-.82-.76-3.53-1.27-6.13-3.9-8.99-6.15-1.61-1.26-3.21-2.53-4.82-3.8-2.37-1.86-4.55-3.97-6.86-5.85-1.76-1.43-3.35-3.15-5.43-4.28-1.69-.92-3.11-2.39-4.06-4.15-.25-.46-.57-.72-.96-.99-2.16-1.51-4.19-3.19-5.98-5.14-.05-.06-.11-.14-.17-.16-1.44-.37-2.11-1.62-3.04-2.6-.97-1.02-2.05-1.93-3.14-2.82-.49-.4-1.01-.64-.98-1.44.02-.45-.5-.79-.96-.96-.45-.17-.87.69-1.4-.07-.91-1.3-2.64-1.69-3.51-3.15-.59-.99-1.69-1.66-1.93-2.91-.03-.17-.36-.47-.44-.44-1.96.83-2.4-1.29-3.63-1.88-.52-.25-.88-.83-.8-1.61.11-1.04-.21-1.44-1.09-.46-.3.34-.53-.12-.7-.31-2.25-2.43-4.97-4.39-6.95-7.08-2.19-.55-1.99-3.38-3.96-4.15-.1-.04-.23-.31-.19-.39.97-1.79.68-4.26 2.89-5.38.49-.25.96-.56 1.46-.79 2.33-1.05 2.28-1 3.96.87 3.01 3.32 6.48 6.16 9.68 9.28 7.79 7.58 16.35 14.27 24.85 21.02 4.06 3.23 8 6.6 12.01 9.9.92.75 1.85 1.48 2.9 2.32 1.52-1.95 3.11-3.86 4.12-6.18.22-.5.48-1.14.92-1.38 2-1.12 2.76-3.2 3.98-4.91 1.26-1.78 2.84-2.13 4.39-.63.84.81 2.32 1.21 2.41 2.52.08 1.16-1.23 1.73-1.8 2.65-.72 1.15-1.46 2.28-2.17 3.44-1.92 3.12-4.21 5.97-6.4 9 3.37 3.06 7.19 5.42 10.36 8.48.71-.09.89-.71 1.3-1.07.32-.29.73-.42 1.06-.05 1.16 1.32 1.71.35 2.28-.58 2.05-3.39 4.21-6.73 6.11-10.21.86-1.57 1.16-3.45 1.75-5.17.2-.57-.02-.83-.46-1.16-3.57-2.65-7.12-5.33-10.96-7.59-1.65-.97-2.93-2.41-4.5-3.48-3.49-2.38-6.3-5.57-9.62-8.14-3.06-2.38-5.42-5.52-8.49-7.78-2.96-2.18-5.69-4.68-8.89-6.58-1.78-1.06-3.3-2.56-4.94-3.86-.17-.14-.3-.35-.48-.48-1.58-1.13-3.22-2.12-4.55-3.65-1.24-1.43-3.18-2.16-4.22-3.92-.54-.91-1.24-.76-1.83.17-.93 1.47-2.53 2.01-3.81 2.95-2.56-5.67-3.65-11.58-6.4-16.91-1.29-2.51-1.87-5.39-2.8-8.08-1.83-5.31-3.79-10.57-5.5-15.92-1.5-4.7-2.72-9.49-4.07-14.24-.72-2.53-1.78-5-2.11-7.58-.42-3.31-1.2-6.54-1.63-9.83-.27-2.05-.62-4.09-.57-6.19.08-2.99 3.02-5.39 5.84-4.63 1.4.38 1.78.79 1.44 2.19-.33 1.34.07 2.54.38 3.74 2.17 8.32 4.7 16.54 7.1 24.8 3.67 12.63 7.65 25.17 10.92 37.91.08.31.21.6.31.91.48 1.47.6 1.54 1.99.92.8-.35 1.65-.66 2.35-1.17.98-.71 1.83-.37 2.21.43 1.2 2.5 3.49 3.88 5.47 5.51 9.03 7.45 18.22 14.7 27.03 22.43 6.76 5.93 13.73 11.61 20.59 17.43 1.09.92 2.1 1.95 3.16 2.92.6.55 1.13.83 1.68-.15.84-1.48 2.07-2.62 3.43-3.63.67-.5 1.06-1.14 1.16-2 .97-8.53 4.91-15.77 9.99-22.47 4.93-6.5 10.49-12.46 16.29-18.19 9.11-8.99 18.95-17.13 29.23-24.72 5.31-3.92 11.02-7.25 16.57-10.82 7.57-4.86 15-9.93 22.43-15 8.43-5.75 16.71-11.71 24.71-18.06 6.19-4.91 12.4-9.81 17.88-15.55 2.21-2.31 4.33-4.69 6.12-7.35.4-.59.86-1.16 1.38-1.64 3.89-3.55 4.53-8.16 4.33-13.06-.18-4.46-1.59-8.61-3.39-12.63-.51-1.15-.4-1.85.51-2.69 3.11-2.87 5.63-6.33 8.81-9.14.34-.3.78-.59.71-1.29-2.33.97-4.02 0-5.74-1.6-2.86-2.67-6.28-4.6-9.7-6.48-5.7-3.14-11.56-5.96-17.49-8.65-3.27-1.48-6.63-2.66-9.94-4-2.87-1.16-5.61-2.62-8.56-3.65-4.02-1.41-8-2.96-11.91-4.65-5-2.16-10.14-3.96-15.19-6-5.31-2.15-10.78-3.88-15.99-6.29-5.12-2.37-10.18-4.85-15.1-7.63-2.95-1.67-5.84-3.5-8.51-5.5-2.39-1.8-5.41-2.81-7.23-5.32-.76-1.05-2.02-1.31-2.96-2.15-1.45-1.3-3.13-2.35-4.22-4.04-1.62.19-2.09-1.41-3.16-2.09-1.85-1.18-2.78-3.36-4.55-4.64-1.7-1.24-2.54-3.34-4.57-4.25-.6-.27-1.1-.95-1.45-1.55-.82-1.42-1.99-2.53-3.11-3.69-.27-.29-.55-.58-.76-.91-2.55-3.93-5.83-7.28-8.65-11-2.37-3.12-4.62-6.32-6.51-9.72-3.18-5.69-6.35-11.41-8.09-17.78-1.98-7.24-2.84-14.55-1.68-22.01.64-4.1 1.85-8.06 3.64-11.81.64-1.33.55-2.26-.4-3.43-1.14-1.41-2.1-3.01-2.89-4.64-1.04-2.13-2.97-3.26-4.67-4.68-.33-.28-.6-.18-1.01.1-1.86 1.23-3.88 2.33-5.13 4.18-.9 1.34-2.28 1.91-3.32 2.9-1.07 1.02-2.33 1.75-3.47 2.65-.67.52-1.32 1.03-1.86 1.68-1.12 1.36-2.42 2.55-3.85 3.57-.64.46-1.16 1.06-2.21.99-.81-.05-2.18.19-1.76 1.81.05.18-.29.55-.54.71-1.34.9-2.2 2.41-3.75 3.05-1.37-1.34-2.48.16-3.71.33-1.78-.37-1.44 1.46-2.21 2.14-.17.14-.35.24-.56.31-1.39.28-2.2 1.32-3.08 2.28-.28.29-.55.58-.78.92-.16.25-.33.5-.48.77-.54.79.06 1.69-.24 2.5-1.38 1.22-2.54 2.73-4.36 3.38-.33-.51-.75-.51-1.21-.2-.05.14-.2.15-.31.22.23.02.28-.27.49-.3.41-.16.77-.07 1.07.23.12.71-.57.9-.88 1.32-2.23 3.04-3.46 6.58-4.89 10-1.28 3.08-2.04 6.37-3.37 9.45-.27.61-.23.65.66.97.13.05.31-.07.3.16-.01.23.01.51-.1.69-2.22 3.54-2.7 7.63-3.78 11.54-.17.61-.31 1.28-.66 1.79-1.3 1.89-1.98 4.02-2.28 6.23-.7 5.2-2.7 9.98-4.53 14.82-1.54 4.05-2.38 8.27-2.62 12.61-.17 3.04-1.08 5.94-2.07 8.8-.34.99-.96 1.85-1.77 2.53-.49.41-1.02 1.3-1.54 0-.12-.29-.41-.16-.63-.12-2.27.38-3.93-1-5.69-2.03-.94-.55-1.17-1.43-.77-2.49.58-1.56 1.2-3.12 1.48-4.78 2.79-14.03 6.16-27.91 10.8-41.46.6-1.75 1.39-3.38 2.18-5.03 1.89-4.04 3.1-8.33 4.79-12.45.99-2.43 1.8-4.94 2.9-7.32.51-1.11.54-2.11-.19-2.86-1.11-1.12-.71-2 .12-2.87 5.81-6.12 11.73-12.13 18.01-17.8 4.61-4.16 9.04-8.52 13.54-12.81 4.49-4.29 9.2-8.34 13.95-12.35.18-.15.36-.34.57-.42 1.6-.56 2.96-1.42 4.15-2.69 1.08-1.16 2.43-2.06 3.82-3.21-5.88-5.82-12.4-10.75-18.64-16.09-.99 1.01-2.53 1.37-2.57 3.07 0 .14-.32.29-.5.42-1.83 1.4-3.59 2.87-5.37 4.32-.84.68-1.81 1.31-2.81 2.1 2.36 2.57 4.95 4.88 7.48 7.25 1.51 1.42 3.04 2.83 4.54 4.25 1.46 1.39 1.64 2.6.49 4.2-.74 1.03-1.49 2.09-2.63 2.75-1.18.69-1.9.53-2.53-.67-1.34-2.54-3.28-4.68-4.75-7.13-.62-.94-1.84-.94-2.28-1.73-.81-1.45-2.15-2.23-3.36-3.2-.83-.66-1.61-.95-2.77-.8-.82.1-.93.13-.77.85.33 1.48-.64 1.64-1.64 1.39-.73-.19-.93.01-.74.6.29.9-.32 1.34-.79 1.84-.87.93-2.27 1.33-2.64 2.76-.07.28-.5.27-.83.34-1.09.21-1.08.24-1.33 1.25-.3 1.27-.83 1.51-2.17.95-.22.75.48 1.52-.02 2.26-.37-.21.13-.81-.38-.91-.32-.06-.72.24-.71.48.03 1.04.02 1.91-1.45 1.61-.22-.04-.58.22-.5.66.27 1.65-.73 2.48-2.11 2.74-.76.15-.6.21-.44.79.25.9-.86 2.04-1.62 1.63-.7-.37-.97-.02-1.04.32-.18.77.55.14.76.38.23.28.57.48.03.9-.41.31-.62.89-.91 1.35-1.6.36-2.43 1.43-2.73 2.98-.54.59-1.21.48-1.88.36-.1.62 0 1.4-.33 1.85-1.3 1.71-2.67 3.37-4.14 4.93-.75.79-.73 1.16.12 1.85 2.38 1.95 2.55 2.8 1.06 5.52-1.37 2.51-2.82 4.98-4.34 7.41-1.51 2.43-2.65 5.04-3.81 7.64-.55 1.24-1.26 2.39-1.84 3.61-1.71 3.59-3.59 7.09-4.19 11.09-.02.16-.03.36-.13.45-1.87 1.63-1.4 4.26-2.67 6.16-1.25 1.86-1.29 4.15-2.05 6.15-.75 1.98-1.76 3.87-2.33 5.94-.51 1.84-1.15 3.64-1.76 5.45-.17.52-.31 1.26-.7 1.46-.81.42-.73.95-.41 1.49.47.79.36 1.32-.15 2.13-.74 1.16-1.18 2.51-1.2 3.98-.02 1.39-1.26 2.6-1.3 3.77-.04 1.31.26 2.72-.01 4.05-.45 2.28-1.12 4.53-1.34 6.86-.18 1.87-1.11 3.68-.51 5.63-1.16 1.43-.74 3.13-.81 4.75-.02.39-.24.76-.32 1.14-.15.72-.65.88-1.25.77-3.41-.62-6.83-1.14-10.22-1.45-.22-.75.19-.83.58-.93.83-.2 1.18-.74 1.11-1.58-.01-.08.01-.16 0-.24-.58-7.39 1.44-14.4 3.13-21.45 1.6-6.67 3.91-13.11 6.1-19.6 1.96-5.82 3.92-11.63 6.09-17.38 3.73-9.84 7.53-19.64 12.93-28.73.95-1.6.9-1.89-.37-3.35-2.09-2.42-2.05-2.38.03-4.67 5.88-6.5 11.79-12.98 17.58-19.56 8.18-9.29 16.89-18.01 26.79-25.49 2.09-1.58 4.37-2.93 6.59-4.34.64-.41 1.21-.71.89-1.66-.2-.6-1.17-1.38-.22-1.85.83-.41 1.86-1.03 2.93-.37.54.33 1.08.85 1.66.91 2.04.18 2.93 1.85 4.32 2.93 2.76 2.14 5.3 4.57 8.26 6.47.97.62 2.05 1.18 2.5 2.46.34.95 1.43 1.21 2.23 1.72.39.24.75.06 1.08-.21.8-.65 1.69-1.19 2.4-1.98 1.01-1.12 2.17-2.11 3.28-3.15 2.03-1.9 4.69-2.27 7.1-3.18 1.07-.4 2.27-.58 3.39-1.01 3.71-1.42 7.52-1.28 11.31-.4 4.12.96 7.86 2.68 10.61 6.05.63.78 1.1.62 1.81.19 3.9-2.38 8.19-3.97 12.42-5.6 3.86-1.49 8.05-1.91 12.13-2.61 6.05-1.04 12.12-1.08 18.1.11 11.03 2.2 21.54 5.7 30.64 12.7 7.42 5.71 14.64 11.61 20.9 18.62 6.63 7.42 12.34 15.46 16.56 24.5 3.68 7.89 6.97 15.93 8.17 24.64.67 4.84.83 9.7.49 14.58-.31 4.48-1.22 8.83-2.5 13.12-2.48 8.32-6.87 15.55-12.5 22.1-2.98 3.47-6.21 6.64-9.9 9.35-.75.55-1.56 1.09-2.13 2.14.96.46 2.04.41 2.94.53 3.91.55 7.54 1.99 11.3 3.03 6.53 1.81 12.96 3.9 19.33 6.18 4.2 1.5 8.2 3.48 12.28 5.27 7.16 3.14 13.89 7.1 20.77 10.76 4.2 2.23 8.25 4.78 12.09 7.63 2.58 1.91 2.58 1.91 4.97-.01 4.6-3.7 9.17-7.43 13.78-11.11 11.67-9.29 23.29-18.64 35.18-27.64 9.09-6.88 18.1-13.87 27.27-20.63 6.28-4.63 12.76-8.98 19.18-13.43 7.27-5.03 14.56-10.02 21.84-15.03 9.63-6.63 19.45-12.97 29.39-19.13 9.46-5.86 18.98-11.66 28.74-17.02 7.47-4.1 14.85-8.37 22.33-12.46 5.38-2.94 10.85-5.72 16.29-8.56 6.5-3.39 12.97-6.85 19.52-10.14 8.34-4.19 16.75-8.24 25.13-12.35 6.86-3.37 13.68-6.84 20.79-9.68 3.25-1.3 6.59-2.39 9.85-3.65.64-.25 1.04-.19 1.5.23.35.32.7.65 1.09.92 2.28 1.61 2.29 1.61 1.11 4.36-.96.54-2 1.03-.46 2.15.45.33.69.91.5 1.51-.26.81.08 1.58.09 2.37.02 1.45-.29 2.67-1.34 3.9-3.62 4.23-7.79 7.91-11.43 12.11-2.6 1.23-4.04 3.77-6.21 5.52-1.65 1.33-3.19 2.84-4.8 4.25-3.78 3.31-7.5 6.69-11.33 9.93-4.16 3.52-8.53 6.81-12.61 10.41-3.67 3.23-7.38 6.43-11.1 9.58-2.5 2.12-5.07 4.24-7.77 6.16-2.18 1.55-4.44 3.11-6.36 4.9-2.43 2.27-4.96 4.39-7.6 6.38-2.91 2.2-5.75 4.48-8.56 6.79-3.28 2.71-6.61 5.36-9.91 8.04-1.39 1.13-2.63 2.41-4.29 3.23-.83.41-1.41 1.36-2.14 2.04-2.22 2.07-4.89 3.53-7.1 5.62-2.22 2.11-4.73 3.96-7.31 5.61-1.25.8-2.08 1.93-3.2 2.8-7.49 5.79-15.02 11.54-22.32 17.57-5.92 4.89-12.22 9.27-18.12 14.17-3.41 2.83-6.93 5.53-10.3 8.42-3.87 3.31-8.04 6.25-12.07 9.38-1.83 1.41-3.62 2.86-5.42 4.32-.43.35-1.27.54-.49 1.42.37.42-.32.6-.57.8-6.13 4.87-12.29 9.72-18.43 14.57-.13.1-.23.25-.38.29-4.47 1.36-7.41 4.95-10.97 7.61-5.8 4.34-11.4 8.93-17.09 13.41-3 2.37-6.01 4.74-8.99 7.14-1.51 1.21-1.53 1.41.05 2.64 3.97 3.08 7.99 6.08 11.97 9.14 6.32 4.86 12.74 9.58 18.92 14.62 3.63 2.96 7.44 5.71 11.15 8.58 1.81 1.4 3.63 2.76 5.41 4.21 3.38 2.75 6.83 5.41 10.34 7.99 4.1 3.02 8.06 6.21 12 9.43 3.14 2.57 6.51 4.87 9.74 7.33 7.29 5.55 14.56 11.12 21.83 16.69 9.99 7.66 20.04 15.27 29.94 23.04 5.69 4.46 11.39 8.92 17.07 13.38 5.35 4.2 10.71 8.4 16.21 12.4 4.24 3.09 8.3 6.41 12.5 9.55 4.95 3.7 9.75 7.65 14.59 11.52 5.04 4.02 10.08 8.04 15.15 12.02 4.11 3.23 8.28 6.38 12.25 9.76 3.14 2.67 6.43 5.16 9.42 8.01 2.8 2.68 5.85 5.11 8.71 7.72 3.94 3.6 7.81 7.26 11.7 10.91 1.86 1.74 3.77 3.43 5.51 5.29.41.44.78.69.59 1.37-.54 1.92-1.24 3.76-2.44 5.38-.99 1.34-2.53 1.71-4.01 1.83-3.66.3-7.33.15-10.86-1.04-5.58-1.88-11.07-4.07-16.33-6.68-3.53-1.75-6.98-3.71-10.51-5.51-4.04-2.06-8.04-4.19-12.03-6.35-2.86-1.55-5.79-2.98-8.4-4.98-.92-.71-2.1-1.08-3.11-1.68-3.8-2.25-7.58-4.54-11.38-6.8-2.3-1.37-4.72-2.57-6.93-4.08-4.48-3.07-9.53-5.2-13.89-8.42-2.78-2.05-5.57-3.97-8.78-5.25-1.32-1.88-3.67-2.33-5.26-3.7-2.17-1.87-4.95-2.87-6.79-5.12-2.12-.19-3.24-2.12-5.03-2.88-1.77-.76-3.27-1.89-4.7-3.18-2.35-2.11-4.88-3.97-7.87-5.12-1.02-.39-1.35-1.93-2.76-1.68-.51-1.3-1.84-1.35-2.85-1.93-.86-.49-2.01-.68-2.35-1.87-.06-.2-.31-.37-.51-.48-3.05-1.62-5.54-4.05-8.49-5.83-3.41-2.06-6.55-4.58-9.95-6.67-2.51-1.54-4.58-3.81-7.54-4.61-.38-.1-.58-.52-.87-.78-3.03-2.72-5.98-5.55-9.79-7.22-.14-.06-.3-.15-.39-.28-1.95-2.98-5.43-4.03-7.97-6.27-1.06-.94-2.41-1.53-3.46-2.48-2.25-2.03-5.11-3.06-7.54-4.81-.97-.7-1.98-1.29-2.85-2.15-.53-.52-1.17-1.09-2.03-1.18-1.17-.13-2.02-.81-2.71-1.69-.76-.98-2.38-.93-2.76-2.34-2.99-.32-4.84-2.7-7.21-4.12-2.77-1.66-5.37-3.66-7.81-5.78-.78-.68-1.32-1.36-2.41-1.63-1.34-.33-2.5-1.59-3.48-3.13-.08-.13-.18-.33-.28-.34-2.32-.31-3.15-3.34-5.76-3.15-.38.03-.26-.54-.45-.75-.88-1-1.81-1.96-3.23-2.08-.52-.04-1.06-.23-1.24-.59-1.29-2.43-3.89-3.27-5.85-4.87-.84-.69-1.69-1.82-3.2-1.48-.4.09-1.2-.56-1.44-1.05-.67-1.36-1.69-1.89-3.13-2.19-.94-.2-1.8-.96-2.63-1.56-7.78-5.68-15.74-11.1-23.35-17.01-2.69-2.09-5.35-4.24-8.02-6.37-2.27-1.81-2.27-1.81-4.53-.06-2.76 2.15-5.53 4.29-8.27 6.46-4.56 3.61-9.15 7.18-13.63 10.89-5.15 4.27-10.16 8.73-15.37 12.91-5.21 4.18-10.23 8.56-15.31 12.88-4.54 3.85-9.1 7.67-13.88 11.24-4.59 3.43-9.03 7.06-13.49 10.66-.65.52-1.43 1.01-1.79 2.03.98.67 2.17.56 3.18.67 7.48.78 13.84 4.06 19.63 8.59 4.22 3.31 7.94 7.15 10.98 11.59 3.2 4.68 5.56 9.73 7.13 15.21.9 3.14 1.65 6.29 2.21 9.5.26 1.48.24 3.02.28 4.53.16 6.48.06 12.97-1.54 19.29-2.5 9.84-6.56 18.93-12.86 27.01-5.03 6.45-10.48 12.45-16.89 17.53-6.25 4.95-12.9 9.28-20.06 12.83-9.29 4.61-18.87 8.46-28.92 11.08-4.26 1.1-8.59 1.8-13 1.83zM6.42 275.53c-.82-.68-.31-1.63-.44-2.5-.42.15-.77.27-1.25.44-.27-2.39-.87-4.64-1.87-6.83-.54-1.18-.49-2.63-.62-3.97-.12-1.28-.4-2.52-.69-3.76.57-.6 1.21-.25 1.8-.13.86.18 1.68.62 2.54.67 1.8.1 3.15.94 4.39 2.12.51.49 1.13 1.02 1.78 1.18 1.9.45 2.23 1.84 2.64 3.46 1.39 5.47 2.9 10.92 4.43 16.35 3.78 13.43 7.77 26.8 11.37 40.28 1.74 6.54 3.17 13.21 5.51 19.53 1.41 3.8.99 7.93 2.87 11.52.53 1.01-.41 1.79-.54 2.71-.14.99-.85 1.27-1.68 1.68-5.28 2.58-5.73.81-7.09-3.01-1.41-3.94-2.73-7.91-4.34-11.8-1.09-2.63-1.88-5.5-2.61-8.33-.59-2.29-1.16-4.65-2.01-6.93-1.12-3.02-1.87-6.23-2.75-9.37-.77-2.75-1.68-5.47-2.68-8.14-.43-1.14-.56-2.28-.68-3.46-.05-.47.1-1.25-.12-1.36-1.82-.96-1.06-2.71-1.23-4.08-.16-1.24-1.06-2.28-.68-3.69.2-.73-1.02-2.04-.5-2.37 1.34-.85-.02-1.53.11-2.26.16-.85.19-1.73.36-2.6.1-.53-.03-1.08-.58-1.52-.8.79.3 2.36-1.25 2.82-.72-1.02-.95-2.03-.29-3.24.65-1.2.17-2.26-1.12-3.22-.64-.48-.94-1.38-.79-2.06.5-2.39-.86-4.47-.93-6.75.13-.82-.6-.99-1.06-1.38z"/><path fill="#E0E2E2" d="M47.3 102.22c-.39 2.45-1.38 4.73-2.16 7.05-2.02 5.95-3.73 11.99-5.37 18.04-1.53 5.67-2.65 11.45-4.01 17.17-.34 1.45-.57 2.96-1.44 4.23.19-1.37-.33-2.67-.51-3.99-.76-5.64.54-11.01 2.11-16.31 1.8-6.08 3.87-12.08 6.47-17.88.32-.72.55-1.49.88-2.21 1.02-2.25 2.13-4.44 4.03-6.1z"/><path fill="#060505" d="M88.6 17.63c.2.02.59.05.99.09.68.07 1.04.39.79 1.1-.44 1.27-.79 2.58-1.74 3.62-1.06 1.16-2.38 1.48-3.76.87-1.08-.48-1.36-1.38-.79-2.49 1.22-2.35 2.33-3.17 4.51-3.19z"/><path fill="#070606" d="M109.87 405.48c1.12-.16 1.95.3 2.59.81.65.52 1.17 1.33.98 2.31-.14.71-1.62 2.14-2.31 2.2-1 .08-1.64-.45-2.06-1.31-.17-.35-.44-.67-.65-1-.44-.67-.96-1.37-.5-2.2.44-.82 1.35-.7 1.95-.81z"/><path fill="#898282" d="M71.78 73.89c-.6-.98-1.26-1.95-.1-2.99 1.3.51 1.77-.78 2.64-1.22.78-.39 1.23-1.58 2.41-.99-.03.22-.09.44-.16.65-1.39 1.74-3.06 3.18-4.79 4.55z"/><path fill="#676666" d="M78.94 64.78c.63-.42 1.19-.89 1.72-1.46.85-.93 1.11-.76 1.6.65.09.26.39.45.59.67-.65.6-1.54.71-2.29 1.11-.8.42-1.15-.12-1.6-.53-.21-.14-.22-.29-.02-.44z"/><path fill="#A9A5A5" d="M51.23 51.37c-.76-1.83.92-2.59 1.59-3.77.62 0 .56.83 1.14.79-.64 1.23-1.75 2.05-2.73 2.98z"/><path fill="#7F7575" d="M125.6 435.75c.4.01.82 0 .88.56.46 1.13.91 2.26 1.37 3.39-1.48-.94-1.7-2.53-2.25-3.95z"/><path fill="#D6D7D7" d="M78.94 64.78c.02.15.02.3.01.45-1.6.29-.63 1.24-.5 1.96-.63.35-1.26.56-1.89-.01.09-.2.26-.41.25-.61-.11-1.58.83-1.89 2.13-1.79z"/><path fill="#281E1E" d="M76.56 67.18c.63 0 1.26 0 1.89.01-.43.9-1.13 1.55-1.88 2.16-.04-.26-.07-.52-.1-.78-.35-.51-.3-1 .12-1.45l-.03.06z"/><path fill="#8A9898" d="M6.42 275.53c.38-.04.77-.15 1.15-.12.45.04.64.41.66.83.03.5-.29.67-.74.68-.61-.27-1.03-.68-1.07-1.39z"/><path fill="#785858" d="M11.31 298.19c-.11.3-.02.76-.51.58-.18-.06-.41-.36-.38-.52.05-.3.28-.6.63-.58.1.01.18.36.26.52z"/><path fill="#fff" d="M586.83 19.22c.14-.04.28-.08.43-.11.37-.83 1.35-.45 1.89-.95.22-.38.65-.33.98-.49.51-.67 1.28-.73 2.02-.84 3.18-1.4 6.3-2.96 9.4-4.49 2.36-1.16 4.87-1.94 7.16-3.23.18-.1.45-.05.92-.1-.99 1.83-2.36 3.11-3.63 4.45-6.32 6.64-13.06 12.86-19.93 18.9-7.55 6.63-15.38 12.94-23.05 19.44-7.24 6.13-14.65 12.04-22.04 17.98-6.21 5-12.59 9.8-18.66 14.96-5.47 4.66-11.19 8.99-16.87 13.37-7.7 5.95-15.36 11.94-22.99 17.98-9.51 7.53-18.95 15.15-28.47 22.67-8.69 6.87-17.49 13.62-26.15 20.52-9.29 7.39-18.47 14.92-27.72 22.36-3.36 2.7-6.81 5.27-10.18 7.95-6.1 4.85-12.21 9.7-18.25 14.62-8.97 7.29-18.22 14.22-27.2 21.49-6.81 5.51-13.73 10.88-20.57 16.35-7.79 6.22-15.86 12.09-23.49 18.5-11.67 9.81-23.34 19.61-34.94 29.5-5.04 4.3-10.34 8.24-15.57 12.29-4.61 3.56-9.07 7.31-13.37 11.25-1.17 1.08-2.44 2.05-3.7 3.04-1.59 1.25-1.64 1.38-.77 3.36-1.22.58-2.44.46-3.7.17-1.69-.38-3.23-.22-4.2 1.48-.43.76-1.26.95-1.95 1.31-1.09.56-1.88 1.27-1.62 2.6.18.89-.32 1.46-.89 2.01.81.46 1.94-.24 2.16.17.99 1.8 2.46.91 3.71.82 1.47-.1 2.91-.24 4.4-.66 5.23-1.49 10.56-2.49 16.04-1.29.47.1.95.16 1.43.17 6.09.07 11.26 2.59 16.12 5.97 1.64 1.14 3.27 2.3 4.89 3.45 2.22 1.59 3.79 3.9 5.25 6.16 4.21 6.53 7.24 13.58 8.42 21.32.61 4.04.52 8.14.13 12.2-1.49 15.21-7.72 28.11-18.65 38.84-5.03 4.94-10.24 9.61-16.06 13.58-4.68 3.19-9.6 5.97-14.67 8.5-8.37 4.18-17.15 7.23-26.19 9.52-9.15 2.31-18.33 2.15-27.5.04-7.18-1.66-13.21-5.43-18.59-10.31-3.37-3.06-6.37-6.45-8.92-10.23-1.43-2.13-3.14-4.04-5.31-5.47-.96-.63-1.25-1.16-.43-2.28 2.04-2.76 3.32-5.96 5.01-8.93.15-.27.34-.52.66-.99 1.79 1.25 3.59 2.38 5.24 3.7.72.58.35 1.66.31 2.49-.05.94-.3 1.9-.63 2.79-1.7 4.54.21 5.77 2.9 8.19.88.79 1.97 1.34 2.95 2.02.76.53 1.6.63 2.49.67 1.05.05 1.28-.74 1.74-1.37.51-.7 1.08-1.05 2-.41.96.67 2.11 1.02 2.68 2.24.28.6 1.01.99 1.54 1.48.55.5 1.13.66 1.63-.02.79-1.08 1.52-.66 2.39-.08.91.6 1.79 1.16 3.07 1.07 1.32-.1 2.21 1.16 3.27 1.82 1.15.72 2.22 1.31 3.49.29.32-.26.65-.4 1.05-.06 1.66 1.41 3.78 1.57 5.78 1.77 5.21.53 10.32.09 15.3-1.78 2.6-.97 5.35-1.52 8.06-2.19.79-.19 1.55-.46 2.22-.85 4.51-2.65 9-5.34 13.09-8.65 3.28-2.65 6.78-5.02 10.04-7.69 3.72-3.05 6.74-6.8 9.59-10.66 1.94-2.63 3.68-5.41 5.69-7.99 1.62-2.08 2.42-4.55 3.74-6.76 1.5-2.53 2.56-5.24 3.49-8.05 2.68-8.1 2.22-16.09-.14-24.16-1.48-5.06-3.85-9.59-7.22-13.58-2.64-3.12-6.12-5.05-9.94-6.4-4.39-1.55-8.88-2.58-13.55-2.79-1.58-.07-3.07-.65-4.67-.79-4.01-.38-7.96-.03-11.92.51-1.03.14-2.07.22-3.1.24-5.86.08-11.28 1.83-16.54 4.27-4.63 2.15-9.14 4.49-13.27 7.53-6.16 4.55-12.01 9.4-16.87 15.41-2.71 3.35-5.29 6.77-7.64 10.36-2.69 4.12-4.16 8.71-5.04 13.76-3.53-2.02-7.29-3.55-11.59-3.52.04-1.51.58-2.65 1.23-3.74 2.22-3.68 4.2-7.5 6.67-11.03 2.71-3.86 5.73-7.45 8.89-10.93 5.19-5.73 10.55-11.3 16.56-16.18 4.19-3.4 8.25-6.95 12.78-9.95 1.87-1.24 3.59-2.82 5.45-4.16 3.74-2.69 7.6-5.2 11.58-7.52 4.6-2.68 9.01-5.65 13.53-8.45 2.16-1.33 4.75-2.29 6.23-4.64.19-.31.64-.61.98-.63 1.78-.1 2.5-1.81 3.9-2.54.73-.39 1.61-.61 2.37-1.19 3.81-2.92 7.65-5.8 11.8-8.24.8-.47 1.54-1.1 2.2-1.76.58-.58 1.39-.6 2-1.4.88-1.16 2.46-1.81 3.72-2.69 2.85-1.99 5.45-4.27 8.23-6.31 2.22-1.63 4.27-3.46 6.26-5.29 1.85-1.71 4.41-2.88 5.29-5.54.38-1.15 1.75-.63 2.42-1.51 1.19-1.58 2.78-2.84 4.15-4.26 1.99-2.05 2.91-4.92 5.36-6.56.68-.46.9-1.41 1.29-2.16 1.15-2.22 2.48-4.35 3.6-6.6.26-.53.38-.94.19-1.55-.62-1.99-.17-3.78 1.28-5.3.33-.34.72-.63.67-1.2-.32-3.3.26-6.68-.9-9.9-.4-1.13-.63-2.3-.48-3.52.16-1.19-.6-2.13-1.02-3.11-.54-1.25-.29-2.1.63-2.97 4.27-4.07 8.42-8.27 13.05-11.95 2.93-2.33 5.66-4.92 8.55-7.3 4.8-3.94 9.44-8.06 14.38-11.83 2.32-1.76 4.38-3.9 6.62-5.79 4.01-3.39 8.13-6.63 12.1-10.07 3.32-2.89 7.11-5.23 10.56-7.99 4.96-3.98 10.25-7.54 15.12-11.62 4.45-3.74 9.32-6.94 13.6-10.87 3.53-1.4 5.87-4.44 8.9-6.55 2.82-1.96 5.75-3.88 8.31-6.23 1.6-1.47 3.74-2.12 5.28-3.67 1.61-1.62 3.64-2.67 5.52-3.89 1.54-1 2.83-2.31 4.18-3.49 1.53-1.33 3.3-2.14 4.96-3.16 2.73-1.67 5.23-3.66 7.93-5.34 2.71-1.68 4.91-4.08 7.88-5.37.78-.34 1.32-1.14 1.98-1.63 1.34-.99 2.67-2.15 4.39-2.52.56-.12 1.06-.32 1.51-.68 4.45-3.57 9.47-6.32 14.04-9.69 2.67-1.97 5.77-3.25 8.24-5.59 1.58-1.49 3.86-2.22 5.75-3.43 4.23-2.71 8.77-4.91 12.9-7.78 1.29-.89 2.91-1.32 3.8-2.78.46-.76 1.35-.12 2.09-.56 3.2-1.89 6.52-3.6 9.5-5.83 1.92-1.43 4.22-2.12 6.2-3.45 3.19-2.15 6.83-3.51 10.09-5.6 2.56-1.65 5.18-3.28 8.07-4.44 1.63-.66 3.53-1.13 4.52-2.92.2-.36.68-.38 1.07-.43 1.36-.19 2.59-.58 3.36-1.85.14-.23.36-.5.75-.51 3.21-.08 5.49-2.36 8.23-3.55 1.27-.55 2.58-1.2 3.4-2.43.22-.33.49-.38.8-.36 1.28.08 2.09-.55 2.64-1.65.35-.7 1.45-.41 1.71-1.26 1.42 1.32 1.96-.74 2.97-.78 1.49-.06 2.41-1.21 3.69-1.69 1.24-.46 2.47-1.08 3.58-1.89 1-.72 2.14-1.16 3.37-1.54 1.74-.54 3.25-1.81 4.92-2.66 3.72-1.9 7.48-3.72 11.2-5.6 1.69-.85 3.35-1.77 5.02-2.66l-.01-.02zM576.25 391.12c3.39 2.26 6.38 5.01 9.42 7.71 1.9 1.68 3.82 3.33 5.7 5.03.47.42 1.3.76.83 1.71-.06.13.15.41.27.61.41.67 1.76.24 1.66.67-.19.82.03 1.22.6 1.57.61.38 1.03 1 1.77 1.21.6.17 1.24.38 1.74.74.52.37 2.31.23.86 1.66.69.46 1.36.98 2.1 1.34.2.09.71-.11.82.19.51 1.44 1.87 1.79 2.98 2.47.32.2.68.82.25.9-.77.15-.16 1.64-1.31 1.17-.66-.27-1.35-.49-2-.78-10.04-4.52-19.98-9.22-29.59-14.62-7.93-4.46-15.69-9.18-23.6-13.66-13.07-7.39-25.64-15.57-38.32-23.57-5.1-3.22-9.92-6.91-15.09-10.02-4.43-2.66-8.58-5.72-12.95-8.46-3.78-2.36-7.38-5-11.03-7.56-4.8-3.37-9.58-6.78-14.37-10.17-5.65-3.99-11.36-7.91-16.95-12-2.89-2.11-5.7-4.31-8.69-6.29-7.76-5.13-15.22-10.7-22.77-16.13-4.57-3.28-9.27-6.38-13.86-9.63-6.03-4.27-12.04-8.59-18.02-12.94-7.02-5.1-13.98-10.26-21-15.36-5.87-4.26-11.53-8.78-17.24-13.35.55-1.16 1.59-1.8 2.5-2.16 1.4-.55 2.46-1.46 3.58-2.33 3.9-3.05 7.78-6.14 11.65-9.23 1.04-.83 2.04-1.61 2.77-2.86 1.1-1.87 2.02-1.81 3.8-.4 5.63 4.45 11.3 8.85 16.92 13.32 2.93 2.33 5.75 4.81 8.68 7.14 1.53 1.22 3.14 2.35 4.81 3.38 3.4 2.1 6.11 5.06 9.39 7.34 2.98 2.07 5.86 4.29 8.86 6.34 2.32 1.59 4.36 3.63 6.76 5.14 2.34 1.47 4.27 3.48 6.69 4.88 1.03.59 1.9 1.58 2.86 2.37 4.31 3.51 8.66 6.96 13.12 10.29 6.07 4.53 11.97 9.29 18.01 13.87 7.05 5.35 13.93 10.91 20.92 16.33 4.09 3.18 8.21 6.32 12.09 9.75 2.02 1.79 4.26 3.26 6.51 4.69 1.56.99 2.93 2.21 4.29 3.4 1.99 1.74 4.31 3.03 6.23 4.8 2.93 2.7 6.52 4.43 9.53 7.04 3.43 2.98 7.37 5.35 11.06 8.03.94.68 1.77 1.5 2.66 2.26 2.76 2.35 5.78 4.36 8.63 6.59 2.61 2.04 5.31 3.95 7.97 5.9 4.87 3.56 9.76 7.11 14.49 10.85 1.92 1.52 3.68 3.29 5.6 4.77 1.99 1.52 3.99 3.05 5.97 4.59.14.88.67 1.3 1.44 1.47zM163.35 45.99c1.44-2.1 2.05-4.34.86-6.74-.36-.73-.27-1.1.3-1.61 1.5-1.33 2.87-2.77 3.32-4.85.26-1.19 1.35-1.12 2.14-1.05 2.81.26 4.88-1.09 6.9-2.75 3.22-2.65 3.2-9.67-.15-11.8-2.54-1.62-5.33-1.5-8.06-.55-1.41.49-2.9 1.1-3.77 2.42-.66 1.01-1.3.82-2.2.45-2.78-1.15-5.55-1.24-8.34.1-2.19 1.05-3.66 2.53-3.5 5.36-1.66-.78-3.09-1.63-5.2-1.56 3.84-3.73 7.7-6.65 12.48-8.3 2.83-.98 5.81-1 8.67-1.67.94-.22 1.91-.31 2.63-1.02.44-.43.98-.46 1.54-.5 6.42-.49 12.75.04 18.98 1.66 5.49 1.43 10.91 3.06 15.95 5.73 8.46 4.49 15.87 10.4 22.63 17.12 5.39 5.36 10.13 11.27 14.29 17.63 4.83 7.4 8.19 15.48 11.08 23.79 3.84 11.04 3.61 22.14.09 33.13-2.1 6.56-5.67 12.43-10.04 17.8-2.89 3.55-6.26 6.59-9.75 9.51-2.77 2.32-5.15 5-7.25 7.93-.52.73-1.03 1.38-1.97 1.62-.67.17-.88.72-1.07 1.41-.71 2.71-.59 2.72 1.88 4.23 2.47 1.5 5.16 2.01 7.9 2.45 15.38 2.5 30.46 6.1 44.8 12.34 9.35 4.07 18.48 8.57 27.04 14.16 3.13 2.05 6.2 4.18 9.39 6.38-3.09 2.72-6.08 5.33-9.06 7.96-3.17 2.8-6.35 5.61-9.5 8.44-.68.61-1.04.74-2.11.27-2.43-1.06-4.29-2.74-6.08-4.51-2.45-2.42-5.12-4.56-7.87-6.61-2.99-2.23-6-4.44-9.15-6.46-3.78-2.42-7.78-4.31-11.94-5.86-7.91-2.95-15.62-6.42-23.65-9.04-10.31-3.38-20.2-7.75-30.06-12.21-6.17-2.79-12.33-5.58-18.22-8.94-5.83-3.33-11.27-7.23-16.52-11.4-3.88-3.08-7.64-6.29-11.13-9.81-6.81-6.86-13.35-13.94-18.98-21.83-3.99-5.6-7.58-11.41-10.77-17.5-2.81-5.36-3.95-11.08-4.32-16.99-.23-3.74-.18-7.51.52-11.23.13-.7.12-1.44.69-2.26 3.17 1.71 6.59 2.91 10.13 4-1.04 2.09-.69 4.15-.01 5.95 1.52 4.03 2.18 8.32 3.82 12.31.24.58.34 1.24.4 1.87.41 4.04 2.4 7.48 3.97 11.11 1.04 2.4 2.6 4.47 3.66 6.85.67 1.49 1.57 3.31 3.18 4.21.84.47.81 1.3 1.33 1.89 3.67 4.16 7.34 8.28 12.14 11.22 1.63 1 3.05 2.31 4.62 3.41 1.96 1.37 4.06 2.4 6.36 3.21 3.12 1.1 6.08 2.69 9.11 4.07 4.22 1.92 8.63 3.19 13.19 3.99 3.83.66 7.66 1.28 11.54 1.34 8.18.13 16.16-1 23.17-5.5 5.69-3.65 10.01-8.57 12.13-15.22 1.36-4.28 2.33-8.62 2.67-13.09.09-1.2.39-1.94 1.49-2.67 1.99-1.3 2.83-3.17 2.22-5.75-1.61-6.85-3.29-13.63-6.5-19.96-5.19-10.23-11.52-19.65-19.24-28.18-6.71-7.42-14.67-13.02-23.78-16.98-5.67-2.47-11.68-3.72-17.88-4.04-1.33-.07-2.5.27-3.65.92-.6.34-1.12.66-1.02 1.42.09.7-.3 1.2-.83 1.27-2.07.25.45 1.25-.31 1.67 1.43 1 2.46 2.32 4.46 2.77 5.01 1.14 10.03 2.3 14.68 4.82 5.83 3.17 11.61 6.31 16.24 11.19 1.92 2.02 4.06 3.82 6.16 5.66 2.58 2.25 4.58 5.07 6.6 7.86 2.32 3.21 4.92 6.22 7.22 9.44 1.38 1.93 2.46 4.09 3.62 6.18.22.39.39 1.02.23 1.38-.69 1.48-.11 2.81.32 4.15 1.05 3.25 1.16 6.58.98 9.94-.28 5.22-1.38 10.26-3.25 15.15-.66 1.72-1.93 2.68-3.3 3.81-2.07 1.7-4.25 3.1-6.69 4.1-3.71 1.53-7.56 2.49-11.61 2.47-.65-1.87.66-2.19 1.97-2.41 5.67-.99 10.98-2.82 15.47-6.59.56-.47 1.16-.9 1.4-1.6 1.32-3.92 3-7.75 3.17-11.97.04-1.03.46-1.82 1.07-2.6 1.04-1.33 1.28-3.05.32-4.25-1.97-2.44-2.06-5.32-2.36-8.12-.37-3.4-1.94-6.17-3.88-8.8-3.47-4.69-7.16-9.21-10.79-13.78-2.33-2.93-5.47-4.86-8.06-7.45-2.02-2.03-4.15-3.96-6.08-6.08-.38-.42-.7-.97-1.23-1.11-4.83-1.34-8.72-4.64-13.39-6.36-3.4-1.25-7.02-1.53-10.41-2.76-.6-.22-1.33-.19-1.81-.59-1.89-1.61-3.86-2.13-6.12-.79-.41.24-.99.24-1.39-.04-1.61-1.11-2-.43-2.78 1.17-1.34 2.7-2.07 5.39-2.35 8.39-.27 2.73-1.55 3.4-3.74 2.66zM163.35 45.99c2.37-.08 2.45-.18 3.08-2.41.22-.78.58-1.59.34-2.33-.62-1.92.35-3.37 1.3-4.8.63-.95 1.11-1.88 1.17-3.07.07-1.26 1.38-1.86 2.11-.91 1.15 1.49 2.16.94 3.29.27 1.6-.94 3-.88 4.25.63.29.35.75.7 1.18.78 2.2.4 4.24 1.57 6.43 1.72 2.98.2 5.55 1.47 8.15 2.57 2.75 1.17 5.31 2.8 7.93 4.27.43.24.84.42 1.33.45 1.58.07 2.71.83 3.37 2.28.28.6.67 1.08 1.3 1.34.69.28 1.07.89 1.57 1.39 2.64 2.64 5.24 5.33 8.37 7.41.54.36 1.07.7 1.41 1.26 1.98 3.3 4.86 5.86 7.13 8.92 1.32 1.79 2.6 3.61 3.9 5.41.05.06.06.17.12.21 2.1 1.32 2.35 3.81 3.6 5.65.91 1.33 1.35 2.66 1.24 4.25-.16 2.27 1.09 4.32 1.08 6.57 0 .19.22.52.39.57 1.77.46 1.37 1.87 1.41 3.1.04 1.22.09 2.37-1.23 3.11-.78.44-.82 1.36-.62 2.16.18.71.25 1.34 0 2.08-1.03 3.09-1.99 6.2-2.94 9.32-.34 1.13-.87 2.03-2.04 2.48-1.49.57-2.34 1.99-3.81 2.74-2.65 1.34-5.39 2.36-8.23 3.1-1.31.34-2.52 1.22-4.12.75-.77-.23-1.45.81-1.48 1.82-2.88.78-5.84.59-8.76.68-6.97.19-13.85-.86-20.6-2.41-5.36-1.23-10.46-3.33-15.31-6.01-5.97-3.3-10.11-8.43-13.75-13.96-2.97-4.5-5.94-9.05-7.8-14.19-.92-2.54-1.98-5.03-2.97-7.55-.14-.37-.43-.82-.32-1.12.71-1.95-.4-3.75-.36-5.62.01-.63-.14-1.34-.79-1.18-2.42.6-2.72-1.2-3.43-2.8 2.68-.53 5.17-1.3 7.44-2.66 2.86-1.71 5-4.18 7.07-6.7.61-.74 1.13-1.53 1.86-2.17.3-.26.67-.55.78-.9 1.01-3.1 3.95-4.37 5.96-6.5zM258.03 366.92c.22 4.13-1.12 7.85-2.06 11.63-.83 3.34-2.16 6.49-4.12 9.37-.8 1.17-1.65 2.37-1.5 3.94.06.68-.4 1.2-.76 1.72-3.3 4.69-6.99 9.09-10.51 13.61-1.3 1.67-2.84 3.02-4.54 4.21-2.55 1.77-5.25 3.34-7.64 5.29-2.29 1.86-4.91 3.21-7.22 4.99-2.08 1.59-4.44 2.63-6.87 3.27-5.46 1.45-10.95 2.91-16.65 3.13-.95.04-1.92-.04-2.87-.16-.78-.1-1.7-.16-2.25-.61-.58-.48.09-1.34.1-2.04.07-5.04-2.93-8.34-7.02-8.75-.32-.03-.63-.11-.95-.17-2.02-.37-2.11-.36-2.29-2.32-.12-1.3-.63-2.45-1.08-3.61-.69-1.78-1.92-3.14-3.79-3.72-.77-.24-1.27-.5-1.26-1.42.02-1.8-.88-3.27-2.15-4.38-.88-.77-1-1.52-.84-2.51 1.06-6.27-1.82-10.14-8.23-11.11-1.56-.23-1.81-.57-1.21-2.05 2.14-5.26 4.72-10.24 8.57-14.52 1.7-1.88 3.13-4.01 4.83-5.91 2.44-2.74 4.98-5.35 7.87-7.61 3.56-2.77 7.01-5.7 10.82-8.12 2.08-1.32 4.25-2.49 6.4-3.7.7-.4 1.41-.53 2.28-.34 1.15.25 2.35.18 3.39-.62 1.37-1.05 2.99-1.37 4.67-1.5 7.54-.6 15.09-.93 22.6.17 4.11.6 8.04 1.92 11.87 3.6 6.63 2.91 10.23 8.11 11.84 14.94.41 1.77.58 3.59.57 5.3z"/><path fill="#ff0" d="M149.88 441.91c-1.76.89-3.71.82-5.55.5-5.33-.94-10.03-3.12-13.41-7.57-.38-.5-.82-1.05-.95-1.64-.46-2.16-1.84-3.7-3.33-5.15-1.25-1.22-2.13-2.42-1.83-4.37.23-1.5-.84-2.66-2.12-3.73 1.92-1.62 3.65-3.28 6.16-3.82 1.16-.25 1.45-.86.6-1.86-1.07-1.26-.86-2.36-.62-3.86.95-6.01 3.71-11.12 7.25-15.9 1.14-1.54 2.42-2.98 4.73-2.53.67.13 1.61-.01 1.57-1-.05-1.24.75-1.43 1.62-1.67 5.63-1.54 10.78.94 12.3 6.99.41 1.64.65 3.28.76 4.96.15 2.35-1.05 2.83-3.24 2.09-1.28-.43-2.31-1.42-3.32-2.33-.53-.48-1.15-.91-1.55-1.49-1.25-1.81-3.04-.87-4.6-.96-.61-.04-.7.69-.45 1.1 1.28 2.09.27 3.98-.41 5.9-1.04 2.92-2.02 5.84-4.52 7.97-1.13.96-2.15 1.83-3.75 1.82-.94 0-1.9.23-2.83.46-.94.24-1.3.81-.79 1.79.34.64.6 1.35 1.21 1.75 1.87 1.25 3.16 3.43 5.73 3.6.49.03.78.38.92.94 1.68 6.69 5.44 12.15 10.15 17.05.15.16.22.41.31.62.02.08-.02.17-.04.34zM125.3 49.66c-.55-1.4.12-3.01-1.75-2.53-.11.03-.32-.1-.4-.21-1.39-1.85-2.88-3.69-3.18-6.06-.32-2.56-.61-2.96-3.05-2.95-.29 0-.62.12-.93-.35.66-.48 1.33-.99 2.01-1.47.65-.46 1.31-.91 1.96-1.37 1.1 1.16 1.86 2.77 3.82 2.77.96 0 1.34-.34 1.07-1.3-.28-1-.56-1.99-.21-3.11 1.03.09 1.72.7 2.44 1.33 2.26 1.98 3.87 4.43 5.12 7.14.72 1.56 1.26 3.07.1 4.69-.5.69-.36 1.55.13 2.26.45.65.86 1.31.91 2.35 2.76-2.04 5.22-4.12 7.28-6.68.59-.74.68-1.38.16-2.13-1.11-1.59-.92-3.21-.47-5.01.53-2.1 1.21-4.12 2.09-6.08.81-1.83 2.02-2.08 3.53-.74 1.5 1.34 2.17 3.16 2.49 5.05.47 2.74-.04 5.38-1.29 7.88-.26.51-.54 1.05-1.06 1.25-1.64.63-1.77 2.09-2.04 3.48-.3 1.56-.27 3.15-.65 4.72-.53 2.18-2.08 3.52-3.51 4.98-.49.5-1.18.25-1.81.09-2.2-.55-4.15-1.61-6.06-2.78-.54-.33-1.04-.78-1.62-1.01-1.33-.52-1.63-1.29-1.07-2.61.4-.95.48-1.99.25-3.06-.18-.86-.6-1.11-1.33-.73-1 .54-2.37.39-2.93 2.19zM135.9 32.46c-1.22-1.15-2.18-2.42-3.4-3.47-4.15-3.56-7.8-3.96-12.92.51-.87-.18-1.13-1.03-1.7-1.56-.16-.15-.49-.36-.32-.52 1.68-1.64-.38-2.14-.99-2.89-.89-1.1-2.1-1.95-3.18-2.89-.4-.35-.7-.8-.2-1.2 1.02-.81 1.68-2.17 3.27-2.17.38 0 .88-.09 1.11-.34 1.55-1.7 3.83-2.18 5.71-3.27 2.35-1.36 5.25-1.32 7.96-1.07 3.54.33 6.85 1.41 9.73 3.62 1.45 1.11 1.53 1.64.21 2.96-.23.23-.46.44-.7.66-.94.86-1.31 1.81-.44 2.93.87 1.13.88 2.07-.33 3.04-1.13.91-1.78 2.22-2.41 3.52-.34.71-.47 1.55-1.4 2.14z"/><path fill="#FCFC00" d="M162.21 33.75c-1.3-.94-2.02-2.1-2.86-3.13-.76-.93-1.5-1.84-2.51-2.53-1.42-.98-1.94-3.15-1.26-4.66.33-.72 1-.76 1.59-.86 2.55-.43 6.03 1.83 6.77 4.31.15.51.16.95-.32 1.26-1.56.99-1.65 2.38-1.13 3.97.15.45.08.93-.28 1.64z"/><path fill="#FAFB01" d="M162.63 420.72c-.44-.86-.27-1.46.26-2.21.84-1.19 1.15-2.45.32-3.97-.62-1.13-.51-2.63-1.39-3.74-.3-.37-.12-.77.28-1 .83-.46.68-1.38 1.01-2.05.15 0 .35-.06.43.01 2.09 1.79 2.09 1.79 4.05-.11.29-.28.52-.6.82-.87.23-.21.5-.46.84-.3.49.22.37.65.24 1.01-.16.45-.36.88-.59 1.3-.66 1.19-1.08 2.44-1.24 3.82-.28 2.33-1.32 4.41-2.62 6.32-.56.81-1.3 1.59-2.41 1.79z"/><path fill="#FBFB01" d="M169.33 423.4c-.2-.44.12-.75.29-1.09 1.3-2.63 2.61-5.26 3.51-8.07.3-.93.86-1.7 1.53-2.39.75-.77 1.4-.69 1.5.27.22 2.15.97 4.41-.64 6.38-.41.5-.23 1-.17 1.57.25 2.13-.5 3.07-2.58 3.42-1.77.31-1.77.31-3.44-.09z"/><path fill="#F9FA01" d="M163.37 403.08c-.27-1.25-.61-2.53-.81-3.84-.14-.95-.43-1.85-.67-2.77-.42-1.56-.14-2.15 1.31-2.83.65-.31 1.33-.52 2.06-.56.85-.05 1.46.25 1.4 1.18-.17 2.95-.52 5.86-2.33 8.35-.19.26-.44.45-.96.47z"/><path fill="#FAFB02" d="M171.9 27.21c-1.22.21-1.9-.27-2.28-1.48-.38-1.22-.76-2.39-.56-3.69.18-1.17.77-1.61 1.95-1.52 1.32.1 2.84 1.08 3.31 2.31.56 1.47.05 2.83-.65 4.07-.34.6-1.17.25-1.77.31z"/><path fill="#F2F302" d="M153.59 34.29c3.21 2.67 5.34 5.47 5.67 9.83-1.17-.72-1.48-1.58-2.03-2.21-.79-.89-1.54-1.81-2.89-1.87-.59-.03-1.09-.25-1.04-1 .1-1.46.18-2.92.29-4.75z"/><path fill="#FAFA01" d="M178.28 425.97c1.59-2.32 3.11-4.56 6.19-4.91 1.12-.12 1.43.31 1.12 1.4-.44 1.56-1.86 2.33-2.87 3.42-.58.62-1.52.52-2.24.23-.68-.27-1.19.52-2.2-.14z"/><path fill="#F7FA01" d="M151.03 44.48c1.43 1.88 3.21 3.6 2.56 6.39-.22.94-.67 1.24-1.49.63-.76-.56-1.57-1.09-2.25-1.75-1.1-1.07-.42-2.4-.22-3.58.1-.58.45-1.35 1.4-1.69z"/><path fill="#D6D7D7" d="M76.58 67.12l-.12 1.45c-1.16.91-2.36 1.78-3.38 2.88-.84.91-1.33.63-1.41-.55.19-.12.37-.25.56-.37.42-.14.13-.73.56-.86.68-.78 1.02-1.75 2-2.41.76-.52 1.18-.34 1.79-.14z"/><path fill="#6B6464" d="M592.15 16.83c-.54.61-1.26.77-2.02.84-.05-.35-1.08-.59-.24-.98.68-.31 1.61-1.35 2.26.14z"/><path fill="#515555" d="M576.25 391.12c-.62.7-1.28.33-1.77-.09-.64-.55.45-.82.35-1.33.73.22.97.92 1.42 1.42z"/><path fill="#757C7C" d="M65.85 77.08c.09-.12.17-.25.27-.36.29-.3.38-.96.95-.77.64.22.51.8.34 1.32l.05-.04c-.44.04-.88.09-1.32.13-.22.04-.32-.05-.29-.28z"/><path fill="#5A5151" d="M589.15 18.16c-.42.73-1.21.73-1.89.95.16-1.24 1.14-.86 1.89-.95zM586.86 19.18c-.42-.1-1.13.5-1.22-.37-.04-.36.49-.62.86-.53.49.11.25.61.33.95l.03-.05z"/><path fill="#839A9A" d="M17.37 128.95c-.31-.01-.37-.2-.36-.43.02-.34.22-.57.54-.62.27-.04.4.17.35.41-.06.3-.25.53-.53.64z"/><path fill="#757C7C" d="M66.14 77.35c-.09.38-.32.84-.7.53-.28-.22 0-.66.41-.81.1.1.19.2.29.28z"/><path fill="#898282" d="M72.79 69.66c-.1.34.41 1.08-.56.86.08-.36.12-.73.56-.86z"/><path fill="#8F9797" d="M5.47 268.62c-.25-.04-.37-.21-.38-.45-.02-.42.31-.49.59-.44.19.04.33.29.25.53-.08.2-.16.43-.46.36z"/><path d="M320.34 212.59c-4.15 3.57-5.47 7.04-4.11 10.48.63-.02.83-.71 1.36-.86.71-.2 1.39-.29 1.92.45 1.3 1.82 2.14 3.73 1.52 6.04-.4 1.5-1.19 2.01-2.63 1.49-1.37-.49-2.53-1.37-3.69-2.21-4.06-2.92-6.04-6.87-5.86-11.89.08-2.22.8-4.23 2.17-5.96 1.68-2.12 3.35-4.26 5.16-6.27 4.58-5.07 9.49-6.3 16.65-3.27 2.84 1.2 4.64 3.67 5.57 6.56 1.8 5.62.85 10.88-2.71 15.59-1.39 1.84-3.03 3.49-4.54 5.23-1.07 1.24-2.56 1.5-4.04 1.81-.23.05-.48.03-.71-.02-1.63-.35-4.64-3.86-4.81-5.58-.09-.94.92-2.1 2.02-2.24.54-.07 1.08.1 1.64-.07 1.38-.42 1.57-.83.72-1.94-1.81-2.39-3.66-4.78-5.63-7.34z"/><path fill="#010000" d="M362.84 204.66c-.35-2.95-2.09-4.81-3.54-6.72-3.13-4.11-6.47-8.07-9.73-12.08-.45-.56-.93-1.06-1.07-1.81-.13-.72-.43-1.37-1.09-1.79-.69-.44-.52-.96-.28-1.64.36-1.01.82-1.99.77-3.14-.02-.48.27-1.04.61-1.51.52-.71.96-.98 1.7-.24.77.77 1.34 2.14 2.87 1.06.32-.23.47.32.63.56 3.58 5.47 8.09 10.22 11.81 15.58.91 1.31 1.73 2.66 2.46 4.08.37.72.41 1.4-.03 2.03-1.41 2-2.85 3.97-5.11 5.62z"/><path fill="#726767" d="M581.21 396.1c-.08.08-.17.23-.27.24-.44.02-.74-.24-.88-.62-.08-.22.05-.48.36-.42.41.08.66.38.79.8z"/><path fill="#FDFDFD" d="M330.1 216.61c-1.61-2.52-3.07-4.86-4.59-7.17-.45-.68-.26-1.12.24-1.66 1.47-1.58 5.08-2.31 7.11-1.42.69.3.97.79.98 1.48.02.87-.02 1.72-.3 2.58-.93 2.78-1.65 4.19-3.44 6.19z"/></g></svg>