<svg xmlns="http://www.w3.org/2000/svg" xmlns:xlink="http://www.w3.org/1999/xlink" width="252.915" height="114.35" viewBox="0 0 252.915 114.35"><defs><path id="T_1_" d="M158.52 90.5c-2.64-.855-4.29-2.46-3.522-5.514.404-1.606.71-3.275 1.385-4.77 5.2-11.514 10.47-22.994 15.754-34.47.75-1.627 1.683-3.17 2.963-5.556-3.08-.215-5.488-.702-7.83-.484-5.66.527-9.86-2.536-14.148-5.358-2.79-1.837-2.93-4.733-2.03-7.612.866-2.766 2.944-3.374 5.812-3.462 21.684-.67 43.185 2.15 64.777 3.153 4.99.232 9.97.63 14.958.875 4.116.2 7.98 5 7.77 9.773-.144 3.287-3.218 5.51-7.552 5.507-14.272-.007-28.55.16-42.817-.082-5.21-.088-7.88 1.667-9.986 6.69-4.747 11.334-10.475 22.254-15.716 33.384l-3.26 8.245-6.56-.32z"/></defs><clipPath id="a"><use xlink:href="#a" overflow="visible"/></clipPath><path class="animate-me animate-me--3" clip-path="url(#a)" stroke="#D81919" stroke-linecap="round" stroke-width="27" stroke-miterlimit="10" fill="none" d="M147.637 25.434l35.675 2 63 6.41"/><path class="animate-me animate-me--4" clip-path="url(#a)" stroke="#D81919" stroke-linecap="round" stroke-width="27" stroke-miterlimit="10" fill="none" d="M194.98 14.51L176.31 58.767l-21.666 36.076"/><defs><path id="b" d="M138.678 33.153c-2.647 4.98-4.76 9.26-7.144 13.38-6.903 11.934-13.994 23.758-20.86 35.712-5.674 9.88-17.824 10.64-24.39 1.142-5.722-8.28-6.753-17.58-4.296-27.21 2.417-9.473 6.932-17.96 12.982-25.62 3.054-3.863 5.23-4.047 9.848-1.072 3.537 2.28 4.51 5.29 2.187 8.938-5.322 8.354-7.215 17.792-9.076 27.243-.95 4.824-.516 9.574 2.415 14.495 1.066-1.07 2.12-1.81 2.758-2.815 6.518-10.238 12.985-20.51 19.415-30.804.694-1.11 1.098-2.412 1.577-3.648 2.938-7.582 4.552-8.766 14.583-9.74z"/></defs><clipPath id="c"><use xlink:href="#b" overflow="visible"/></clipPath><path class="animate-me animate-me--2" clip-path="url(#c)" clip-rule="evenodd" stroke-linecap="round" stroke="#D81919" stroke-width="21" stroke-miterlimit="10" fill="none" d="M109.708 23.174L89.812 58.767l2 21.41 9.834 4.333 8.062-9.167 26.77-47.91"/><defs><path id="d" d="M46.985 23.174c5.523.803 11.102 1.34 16.557 2.468 8.692 1.8 10.596 5.475 12.28 13.99 3.386 17.136-5.218 29.452-15.284 41.11-7.172 8.31-16.585 10.57-27.214 6.805-3.465-1.228-6.116-3.133-7.924-6.388-2.362-4.25-6.174-7.71-5.568-13.363 1.68-15.688 7.14-29.68 17.85-41.417 2.41-2.64 3.707-2.82 9.303-3.206zm19.45 26.406c-.097-1.818.06-3.695-.34-5.444-1.2-5.267-7.55-8.302-10.646-5.092-8.386 8.698-13.312 19.415-16.844 30.733-1.65 5.29.02 9.703 3.147 11.123 4.565 2.072 8.21-.223 11.195-3.234 7.686-7.76 13.188-16.676 13.488-28.086z"/></defs><clipPath id="e"><use xlink:href="#d" overflow="visible"/></clipPath><path class="animate-me animate-me--1" clip-path="url(#e)" clip-rule="evenodd" stroke-linecap="round" stroke="#D81919" stroke-width="24" stroke-miterlimit="10" fill="none" d="M51.062 27.843l-8.25 9.667-7.333 10.166-5.668 17.167 4 18.166 11.834 5 15-5.417 10.166-16.208 1.5-19.688-4.5-12.354-11.166-4-8.334 2.834"/></svg>