<svg xmlns="http://www.w3.org/2000/svg" viewBox='0 0 340 527'><g fill-rule="evenodd" clip-rule="evenodd"><path fill="#030202" d="M52 527l1-11 1-13 2-33 1-26 1-12 1-20c1-2 0-4-1-5l-1-1-10 2c-6 0-12-1-18-6l-4-2-6-3-1-2c1-1 0-2-1-3-3-7-7-13-9-20l-3-12-4-21v-6l-1-6a145 145 0 0 1 25-91c4-5 8-11 13-15a76 76 0 0 1 41-19c1-1 2-1 1-2v-4l1-3 2-2-2-2c-8-6-14-13-19-22l-3-6c0-2-1-3 1-5l2-1c2-2 2-2 4 0l2 4 5 8 12 12 5 4 15 8 15 6a140 140 0 0 0 23 4l10-1c4 0 9-1 13-3l5-2c7-3 13-7 19-12l12-11c8-8 13-18 15-29l2-14-1-11-2-6-1-9-6-20-2-9c3-2 4-1 6 2 3 4 5 9 6 14l2 6 1 5 1 4 2-1v-2l-2-25-3-9c-1-2-2-3-4-3-4-1-8 1-11 4-2 0-4-1-5-3v-2l5-3c4-3 9-5 15-4 3 0 6 2 8 5l4 12 1 12 1 15c-1 6 1 12 1 17l1 12v9c0 3-1 7-3 10 0 2-3 3-4 2-4 0-4 0-5 3-3 10-8 19-16 26l-2 2v3l2 5 2 1h4l8 2c7 1 14 4 20 7l15 8c4 3 7 6 9 11l4 5 4 11 5 18 1 6-1 2v3h2a407 407 0 0 1 51-12l5 2c2 3 1 5-1 6l-6 4a621 621 0 0 1-21 12l-11 8-6 4c-2 1-2 2-1 4l2 12 1 9 1 1a411 411 0 0 1 34 4h3c3 0 5 2 6 4l1 1c2 4 0 6-3 7-8 4-16 6-25 8-5 1-10 2-14 1h-4l-1 11-2 9v8a108 108 0 0 1-7 29v2c-1 2-1 5-4 5v1l-1-1-1 1-8 22v4c-2 6-5 11-6 17-2 5-6 10-12 11l-1 1-1 4 2 1-1 6v8l-1 2c1 0 0 0 0 0v4l-1-4v11s-1 0 0 0v18l-1 7v-3l-1-1-1 1v14h-85v-2l-1-11-2-15-2-11v1l-3 15-3 13-2 10H52zm191-41v1h1v-1-6l-1 6zm-13-97h-1l-2 4-1 5c-1 1-1 1 1 1l2 3v2l3 1 20 10 3 1 4 2h1c3 1 3 1 5-2l3-8 5-17 1-3 1-3v-1l2-5c0-3 1-6 3-8l1-4v-6a382 382 0 0 0 2-60l-3-9v-1-2c0-2 0-2-2-2-12 3-23 8-31 18-2 1-2 3-1 5l1 6 1 11-1 7-1 5-1 8v1l-1 5-2 5-3 9-1 1c-1 1 0 1 1 2l25 10 3-1c0 2 1 2 2 3h2l4 3-2 2v1l-2 2 2 1-2 1-7-2-3-1-2-2-23-9c-1 0-2 0-2 2l-3 6-1 3zm-51-57l1 2 2-1 8-6c3-2 3-4 3-7 0-2 0-2-2-2l-6-1-8-1 1 6 1 10zm-28-81l-1 2v6l-4 17v2c-2 2-2 4-2 6l-1 4 1 1 1-1c-1-1 0-2 1-2 4-5 8-9 14-10v-1l-1-7-4-14v-2l1-1v-1l-1-1h-2l-1 1-1 1zm-42-47h-2l-14-7-2-1v3l4 6c3 5 5 10 9 14l7 7c2 2 2 2 3 0l3-4 4-9 3-2c1 0 2 0 3-2l-8-1-10-4zm51 166l-3 4v1l-8 4-4 2-2 1c-2 1-2 1-2 3v3c-2 3-2 7-2 11v7l1 2 4 3 7 7 9 7c1 2 2 2 3 0l12-16c2-2 5-3 4-7l1-8-2-10-1-5-1-2-5-1-4-3-3-5-4 2zm78-89h1l2-1 30-13 4-1c-2-1-2-2-2-3l-1-8-6-18c-4-11-9-19-19-25l-27-11-13-4h-1l-10 12-12 14c-3 4-6 7-11 8-3 0-6 0-8-3-2 1-3 3-3 5v1l-1 13 1 2 2 2 2 11 3 12 2 1c6 0 10 3 14 7 3 4 4 7 3 12l-1 5 14 3c2 1 3 0 5-1l16-10 10-6-2-5a125 125 0 0 0-9-31c-1-2-2-3-4-3l-1-2c1-3 4-5 6-7h1c3 3 6 6 7 10l3 8a151 151 0 0 1 5 26zM62 328v7l2 9 2 1 6-2 8-2c-2-1-2-2-2-3l4-30 1-6h-1c-4 0-7-2-10-4-5-5-8-12-9-19v-3c-2-5-2-11-2-17 1-2 1-4 4-5l2-1c1 1 2 0 3-1v-2c-1-2 0-3 1-5 4-4 8-6 13-6h5c2 0 3 0 4 2s0 3-2 3h-2l-2 1c-3 1-5 3-6 5v2l5 8h2l5-2 1-2 1-12v-3c1-2 3-2 5-2h10c5 1 8 4 10 8v2l3 1c1 0 2 0 2 2l2 3 3 4 3 12-1 6-1 1-2 1c-2 0-1 1-1 2 1 4 0 8-1 11l-1 2-1 3-2 4c-1 2-2 4-5 4l-4-1 1 3 2 13 4-3 4-2 1-3 7-14 1-2v-3l3-27 2-11c0-2 0-4 3-5l-1-1-2-2-2-13-1-2-7-7-2-3-2 2-4 8c-1 2-2 4-4 3h-2l-3 1-2-1-3-3-8-7-13-17-3-1-12 2-18 9-11 11-3 3-9 12a128 128 0 0 0-22 86 131 131 0 0 0 15 54l2 2 5 5 1 2 5 4 12 1 23-4 9-2c2 0 2-1 2-2l-1-4c-2-7-5-15-5-22-1-2 0-3 1-4l2-1h4l1 3 5 25 2 2 3 1 4-4h1l11-3c2 0 2 0 2-2l-4-21-2-13c-1-3-1-3-3-3l-6 1-10 3-15 5-8 3-11 3-8 2c-3 1-3 1-4-2l-1-4c1-2 1-3 3-3l5-2-10-4c-3-2-5-4-6-8l1-2h2l13 5 6 4 1 1v-4l-3-19a1648 1648 0 0 1-5-58l1-3 5-1 2 1 1 4a525 525 0 0 0 3 23v18l1 3v10 1c2 2 1 4 1 6v1h1zm97 35l-9-12v-1c-2 0-1-1-1-2l1-3c2-3 3-3 5 0l9 12c2 3 5 5 8 4 4-1 7-1 10-3l1-3c-2 2-5 1-8 2-2 1-4 0-6-2l-12-14-5-9-3-2-1 1v-1l-2-1-2-5c-1-1 1-2 1-3l1-2c3-5 6-11 3-17-1-1 0-2 1-2h8c3-1 5-3 7-6v-1h-1l-10 1c-6 2-10 4-14 9-1 1-3 2-3 4l-2 6v1l-1 4c0 3 0 3-3 3h-1l-4 2-11 11c-1 2-2 4-1 6 2 4 1 8 2 12a440 440 0 0 0 2 15l6 6 2 2 3 3c1 2 3 2 5 2l5-2-2-1-5-5-1-2 3-1h2l3 3c4 3 9 3 13 0l-2-1a26 26 0 0 1-11-9c-1-1 0-3 1-3l3 1 5 3c4 3 7 3 11 0zm11 5l1 2c4 3 9 3 12 0a31 31 0 0 0 11-18c0-2 0-4-3-5h-4c-2 0-3-1-4-3 0-2 0-2 2-2l5-2 2-2a1416 1416 0 0 1 46-33l4-6c3-4 8-8 13-11 9-5 18-8 27-9 3-1 5-1 7 1h1c0-2 2-3 4-3l26-15 4-4-4 2-10 2-5 1-6 2c-1 1-4 0-5 2h-4l-3 2-13 4-5 2-14 6-6 3-14 7-9 5-13 8-2 3c-1 2-2 2-4 2l-2 1-4 3-2 5 1 10-1 1-7 5-4 2-3 2-5 4-4 4-3 3 3 1h2c4-1 6 0 9 2 2 2 2 4 1 6l-2 4-4 4-12 2zm79 83l2-1 3-9 5-10 1-2 1-1-4-2-14-5-11-6-17-7c-2-1-2 0-3 1-3 2-4 5-5 8s0 6 3 7c0-1 2-2 1-4v-1c2-1 5-2 7-1l1 1c0 4-1 7-3 10l-6 6c-1 1-2 2-4 1l-4-2-1 3 1 3c0 2 2 4 3 5h2c2-1 5-2 5-5l4-5 3-2c2-2 4-1 6-1 2-1 2 1 3 1l-7 9v3c3-2 5-3 6-6l2-4 5-2h2c2 0 3 1 4 3-2 1-3 4-5 7-2 1-2 4-2 7l3-3c2-2 4-3 4-6v-1l4-3 6 1v3l-1 1v9zm-53-107l1 2c1 1 3 2 3 4 1 2 1 2 3 2l21-2h9c1 1 2 0 2-1l3-14c1-5 1-5-4-5-4-1-9 0-14-2h-1l-5 4-12 8-6 4zm-38-36l2 1h6c7 1 13 1 19 3l5 1 2-1 3-3 2-2-12-2-3 1c-3 1-3 1-5-2v-2-4c2 0 2-1 3-2 2-3 2-6 1-9-1-4-3-6-6-6h-5c-4 0-8 0-12 3l-2 1 12 1c2 0 4 1 5 3 3 3 3 7 1 10-2 2-4 5-8 5h-1l-7 4zm-65-37l2 9 3 3c2 2 4 2 6-1l2-6v-2c-2-2-2-2 1-4l2-2c3-1 3-1 4 2l1 1 1 1 7 1c2 1 2 1 2-1 0-5-1-9-3-13-1-2-1-2-2-1l-7 6c-2 2-5 2-8 2l-4-2c-2-1-5-1-6 2l-1 5zm72-65l2 3 4 5 1 2 2 5 1-1 22-24v-2l2-3c2-1 2-1 1-3-11 9-22 15-35 18zm164 118l-17-2-8-1-9-1-1 2v10h9l21-5 5-3zm-162-9l-8-1-2 1-4 8 2 1 3 4 8 12 2 2c2 0 2-1 3-2l1-2-3-10-2-11v-2zm-71 22l-3-3 1-6 2-11 3-18 2-7-1-1c-1-1-3 0-4 1l-1 2-3 14-4 23-1 8 9-2zm-24-58v1c1 5 3 10 7 13l4 3 2-1 1-4 2-3c2-1 2-1 1-2-3-3-4-7-5-11 0-2 0-2-2-1l-9 3-1 2zm47-28l-2-1c-3 0-5-1-7-4-1-2-4-2-6-2l-1 1v12l1 1 2 2 2-1 3-3 8-5zm-13 56v1l-3 13v1l1 3 1 11 2 1 1-1v-4l3-4v-3l-1-1-1-5-3-12zm-36-40l1 3 1 1 11-3c2 0 1-1 1-2l-1-1c-3 0-5-1-6-3l-2-3c-1-2-2-1-3 1l-1 1-1 6zm83-33v-3l-1-2-2 1-1 2c0 1 0 4-3 4v1l1 9h1c2 1 4-1 4-2l1-10zm-42 50l3 2 4 4c1 1 1 1 2-1l1-8-2-2-4-1-2 1-2 5zm47-72l-7 11c4 1 6 2 9-1h1l1-2-4-8zm81 103l-12 8 11 2 1-1v-9zm-99-105l5 6 1-1 4-6-10 1zm87-70c2-8 0-17-1-26-1 1-3 0-2 2l3 8v16zm-85 83a79 79 0 0 1-9-7h-1v1l4 4 4 4 2-2zm-25 75l-3-2-2-2 2 9 1-3 2-2zm129 200l1 1-1 1-1-1s0-1 0 0c1 0 1 0 0 0v5l1 5-1 1 1-2v-3-5-2zm-44-66c1 0 1-2 3-2l3-2-4-1-1 1-1 4zm43 62v0zM142 227l-1-1 1 1zm104 263l-1-2v2zm-2 0v-1 1z"/><path fill="#060402" d="M199 62c-2 0-2-1-3-2l-3-5c-2-4-6-8-10-12l-1-1a133 133 0 0 0-21-17l-3 1-1 2-2 1-17-7-14-2-2 1h2l7 4 3 3c2 1 2 2 1 3-2 2-3 3-5 2h-1c-7 0-14 0-20 2-8 1-15 4-22 7l-4 3h1l12-2 4 1c1 2 2 1 3 1 7-3 15-6 23-7 3-1 6-1 8 1 1 1 2 2 1 3l-2 2 5-1 15-2 16-1h6l4 4h-1c-2 2-4 3-7 2l-15 2-4 1h-10l-7 1-7-2-1-3-3 1-18 6-15 7-8 4-4 3c-1 1-2 2-4 1-1-3-1-5 1-7l16-10 2-2-2 1-12 2-8 2-3 1c-1 0-2 0-2 2 1 1 0 2-1 3l-4 3-3 7-6 11-3 14-2 8 2 10 1 1v-1a136 136 0 0 1 10-38l4-4h7c2 1 3 3 3 5 0 1 0 2-2 2h-1l-4 2-4 9-3 9-4 17v6l-1 1h-4l-4-1c-2 0-2 0-3 2l-1 8c-1 6 0 11 2 17l4 6h2v-5h-1c0-1 3-4 5-4 1 0 2 1 2 3v8c-2 5-7 6-11 4s-6-5-8-9c-3-7-3-14-3-21l2-12c0-1 1-3 3-3l1-2v-12l2-18c2-9 6-16 10-23l2-3 5-3h2c2 0 2 0 1-2l-1-4 1-1c14-9 29-15 45-19h3l2-1-2-1-7-3c-3-1-5-5-4-8l1-1h19l15 2h2l-2-2-6-4c-2-1-4-6-2-8l2-1v1l9 5a123 123 0 0 1 59 43l3 4c1 2 2 3 0 5 0 1-3 2-2 4zm49 424v-6l1 4-1 2z"/><path fill="#FA2063" d="M249 482zm1-8v-1 1zm-1 6s1 0 0 0zm1-10zm0 6v-1z"/><path fill="#FDFDFD" d="M118 305c3 0 4-1 5-4l2-4 1-3 1-2c1-3 2-7 1-11 0-1-1-2 1-2l2-1 1-1 1-6-3-12-3-4-2-3c0-2-1-2-3-2 0-1 0-3-2-3-2-4-5-7-10-8h-10c-2 0-4 0-5 2h-2c-1-2-2-2-4-2h-5c-5 0-9 2-13 6-1 2-2 4-1 5v2l-3 2h-2c-3 1-3 3-4 5 0 6 0 12 2 17v3c1 7 4 14 9 19 3 2 6 4 10 4h1l-1 6a535 535 0 0 0-2 33l-8 2-6 2-2-1-2-9v-7h-1c0-3 1-5-1-7v-1-2-8l-1-3v-10-2-6l-1-11c0-4 0-8-2-12l-1-4-2-1-5 1c-1 1-2 1-2 3l2 24 4 34 3 20v3l-1-1-6-4-13-5h-2l-1 3c1 3 3 5 6 7l10 4-5 2c-2 0-3 1-3 3l1 4c1 3 1 3 4 2l8-2 11-3 8-3 15-5c3-1 7-1 10-3l6-1c2 0 2 1 3 3l2 13a373 373 0 0 0 2 23l-11 3h-1l-4 4h-3l-2-3-5-25-1-3h-4l-2 1c-1 1-2 2-1 4 0 7 3 15 5 22l1 4c0 1 0 2-2 2l-9 2-23 4-12-1-5-4-1-2c-1-2-3-4-5-4l-2-3a127 127 0 0 1-15-54 128 128 0 0 1 45-112l18-9 12-2c1 0 2 0 3 2l13 16 8 7 3 3 2 1 3-1h2c2 1 3-1 4-3l4-7 2-3 2 3 7 7 1 2 2 13 2 3h1c-3 1-3 3-3 5l-2 12c-1 8-3 17-3 26v3l-1 2-7 14-1 3-4 2-4 3-2-13 3-2zm-28 71l2 5 1 1 2 1 3 1c4-1 6-4 7-7l1-6c-2-3-6-5-9-4l-3 2c0 2-1 2-2 3-2 1-2 3-2 4zm-2-153l2-2-2 2zm150 58v-2c-1-8-2-16-5-24l-3-8c-1-4-4-7-7-10h-1c-2 2-5 4-6 7l1 2c2 0 3 1 4 3l4 12 5 19 2 5-10 6-16 10c-2 2-3 2-5 1l-14-3 1-5c1-5 0-8-3-12-4-4-8-7-14-7l-2-1-3-12-2-11-2-2-1-2 1-13v-1c0-2 1-4 3-5 2 3 5 3 8 3 5-1 8-4 11-8l12-14 10-12h1l13 4 27 11c10 6 15 14 19 25a194 194 0 0 1 9 29l-4 1-30 13-2 1h-1zm-30-14h4l3-1c1-1 3-1 3-3 0-3-3-6-6-5h-1l-6-1-6 1-18 2-1 1c-1 3 1 5 2 8h2l13-1 11-1zm65 121v-1l2-2-4-3h-2c-1-1-2-1-2-3-1 2-2 1-3 1l-25-10c-1-1-2-1-1-2l1-1 3-9 2-5 1-5v-1l1-8 1-5 1-7-1-11-1-6c-1-2-1-4 1-5 8-9 19-15 31-18 2 0 2 0 2 2v3l3 9a382 382 0 0 1-1 60l-1 6-1 4c-2 2-3 5-3 8l-2 5v1l-1 3h-1z"/><path fill="#FA2063" d="M160 370l4-2 3 5 4 3 5 1 1 2 1 5 2 10-1 8c1 4-2 5-4 7l-12 16c-1 2-2 2-3 0l-9-7-7-7-4-3-1-2v-7c0-4 0-8 2-11v-3c0-2 0-2 2-3l2-1 4-2 8-4 2-1c1-1 2-2 1-3v-1z"/><path fill="#FDFDFD" d="M273 391l-5 17-3 8c-2 3-2 3-5 2h-1c-1-3-2-3-4-2l-3-1-20-10-3-1v-2l-2-3c-2 0-2 0-1-1l1-5 4-3v-1 1l-1-1 1-3 3-6c0-2 1-2 2-2l23 9 2 2 3 1 7 2 2-1zm-14 13l4 2 1-1v-2l1-1v-4l-1-2-5 1-5 4-1 3c-1 3 1 6 4 7l3 1c2 1 4-1 3-3v-3c-2 1-3 0-4-1v-1zm-63-60l6-4 12-8 5-4h1c5 2 10 1 14 2 5 0 5 0 4 5l-3 14-2 1h-9l-21 2c-2 0-2 0-3-2 0-2-2-3-3-4l-1-2zM93 197l14 7h2l10 4 8 1c-1 2-2 2-3 2l-3 2-4 9-3 4c-1 2-1 2-3 0l-7-7c-4-4-6-9-9-14l-4-6 2-2z"/><path fill="#FA2063" d="M93 271l1-5c1-3 4-3 6-2l4 2c3 0 6 0 8-2l7-6c1-1 1-1 2 1 2 4 3 8 3 13 0 2 0 2-2 1l-7-1-1-1-1-1c-1-3-1-3-4-2l-2 2c-3 2-3 2-1 4v2l-2 6c-2 3-4 3-6 1l-3-3-2-9z"/><path fill="#FDFDFD" d="M165 206c13-3 24-10 35-18 1 2 1 2-1 3l-2 3v2l-22 24-1 1c-1-2-3-3-2-5l-1-2-4-5-2-3z"/><path fill="#FA2063" d="M207 74l-2-5c3-3 7-5 11-4 2 0 3 1 4 3l3 9a138 138 0 0 1 2 27l-2 2-1-5-1-5-2-6c-1-5-3-10-6-14-2-3-3-4-6-2zm-52 178v2l4 14 1 7v1c-6 1-10 5-14 10-1 0-2 1-1 2l-1 1-1-1 1-4c0-2 0-4 2-6v-2l4-17v-6l1-2h3l1 1zm12 63v2l2 11 3 10-1 2c-1 1-1 2-3 2l-2-2-8-12-3-4-2-1 4-8 2-1 8 1zm-71 22l-9 2 1-8 4-23 3-14 1-2c1-1 3-2 4-1l1 1-2 7-3 18-2 11-1 6 3 3zm-24-58l1-2 9-3c2-1 2-1 2 1 1 4 2 8 5 11 1 1 1 1-1 2l-2 3-1 4-2 1-4-3a26 26 0 0 1-7-14z"/><path fill="#FDFDFD" d="M179 332l-1-10-1-6 8 1 6 1c2 0 2 0 2 2 0 3 0 5-3 7l-8 6-3-1z"/><path fill="#FA2063" d="M93 241h2v3a653 653 0 0 0-2 14l-5 2h-2l-5-8-1-2 7-5 2-1h2c2 0 3-1 2-3zm26 10l-8 5-3 3-2 1-2-2-1-1v-12l1-1c2 0 5 0 6 2 2 3 4 4 7 4l2 1zm-13 56l3 12 1 5 1 1v3l-3 4v4l-1 1-2-1-1-11-1-3v-1l2-13 1-1zm-36-40l1-6 1-1c1-3 2-3 3-1l2 3c1 2 3 3 6 3l1 1c0 1 1 2-1 2l-11 3-1-1-1-3zm83-33l-1 10c0 1-2 3-4 2h-1a1143 1143 0 0 1-1-10c3-1 3-3 3-4l1-2 2-1 1 2v3zm-42 50l2-5 2-1 4 1 2 2-1 8c-1 2-1 2-2 1l-4-4-3-2zm47-72l4 8-1 2h-1c-3 3-5 2-9 1l7-11zm-16 11l-2 2-4-4-4-4v-1h1l9 7zm-25 75l-2 2-1 3-2-9 2 2 3 2z"/><path fill="#060402" d="M155 252l-1-1h-3l1-1 1-1h2l1 1v1l-1 1zm76 137v1l-4 3 2-4v1l1-1 1 1v-1z"/><path fill="#FA2063" d="M118 305l-3 2-1-3 4 1z"/><path fill="#060402" d="M160 370v1c1 1 0 2-1 3l-2 1v-1l3-4z"/><path fill="#FA2063" d="M61 327l1 1h-1v5-6z"/><path fill="#060402" d="M60 320v1l-1 2 1-3zm-1-25v0z"/><path fill="#FA2063" d="M142 227z"/><path fill="#060402" d="M246 490l-1-2v2zm-2 0v-1 1zm-1-4h1v1h-1v-1z"/><path fill="#FDFDFD" d="M230 389l-1 1v-1h1z"/><path fill="#060402" d="M197 149v1l1 3v1l-10 14c-6 6-13 11-22 14-6 2-13 3-20 3l-16-2c-10-3-18-8-25-14-5-5-9-11-11-18-1-2 0-2 2-2l6 3 8 9a56 56 0 0 0 82-8l5-4z"/><path fill="#FA2063" d="M179 44l-4-4h-6l-16 1-15 2-5 1 2-2c1-2 0-2-1-3-2-2-5-2-8-1-8 1-16 4-23 7-1 0-2 1-3-1l-4-1-12 2h-1l4-3c7-3 14-6 22-7 6-2 13-2 20-2h1c2 1 3 0 5-2 1-1 1-2-1-3l-3-3-7-4h-2l2-1 14 2 17 7 2-1 1-2 3-1 8 6 13 11-3 2z"/><path fill="#060402" d="M152 144l-2-12-4-27-2-17-1-2v-3l4-2h1l2 3 1 1v7l4 20 3 12 2 17v6c0 3-1 5-4 6-6 2-11 0-15-5s-7-12-8-19v-5l1-2 3-2h4l2 2 1 3c-1 7 1 13 4 20l2 2c1 1 1 0 2-1v-2z"/><path fill="#FA2063" d="M72 70h-7l-4 4-7 21-3 17v1c-1 0-2 0-1-1l-2-10 2-8 3-14 6-11 3-7 4-3c1-1 2-2 1-3 0-2 0-2 2-2l3-1 8-2 12-2 2-1-2 2-16 10c-2 2-2 4-1 7l-3 3z"/><path fill="#060402" d="M109 70h1c3-1 5 1 7 2v5l-2 2c-1 1-2 0-3-1h-2l-10 2-9 4h-5c-1-3-1-5 1-6a30 30 0 0 1 22-8zm73-6l9 2 4 4v1l-2 5h-2-1c-1-2-3-2-5-2l-12 2h-2l-2-2-1-3c0-3 1-3 3-4l8-2 3-1z"/><path fill="#FDFDFD" d="M123 120l-1 3 1-3z"/><path fill="#060402" d="M90 376c0-1 0-3 2-4 1-1 2-1 2-3l2-2c4-1 8 1 10 4l-1 6c-1 3-4 6-7 7l-3-1-2-1-1-1-2-5zm7 3l2-1 2-4v-1h-1l-3 2-2 1 2 3zm111-112l-11 1-13 1h-2c-1-3-3-5-2-8l1-1 18-2 6-1 6 1h1c3-1 6 2 6 5 0 2-2 2-3 3l-3 1h-4zm8 47c-1 3-3 6-6 8h-2c-3-1-4-5-3-7 0-2 2-4 3-5h5c2 1 3 2 3 4zm-4-1l-2 1-1 1 2 1v-1l1-2zm47 92c1 1 2 2 4 1v3c1 2-1 4-3 3l-3-1c-3-1-5-4-4-7l1-3 5-4 5-1 1 2v4l-1 1v2l-1 1-4-2h-1l1 1z"/><path fill="#FA2063" d="M259 405l-1-1h1v1z"/><path fill="#060402" d="M231 390v-1 1z"/><path fill="#FDFDFD" d="M97 379l-2-3 2-1 3-2h1v1l-2 4-2 1z"/></g><g class="frame--1" fill-rule="evenodd" clip-rule="evenodd"><path fill="#060402" d="M100 130c3 2 7 2 11 0l3-1c3 0 6-2 8-4v-2l1-3v-1c0-3 2-3 4-3l3-1v11l-1 5-2 2-3 1-10 4c-4 1-8 2-13 0l-9-5-7-12 1-1 4-3 7 12 3 1z"/><path fill="#FDFDFD" d="M123 120l-1 3 1-3z"/><path fill="#060402" d="M206 113v2c0 4-1 8-4 11-2 3-5 6-10 5h-1c-5 2-10 1-15-1-2-2-5-4-6-7-3-4-5-8-6-13h8l1 1 2 6c1 2 2 4 4 4h1c2 2 5 2 8 3l5-1c4-2 5-6 5-10v-1c2 2 5 3 8 1z"/></g><g class="frame--2" fill-rule="evenodd" clip-rule="evenodd"><path fill="#060402" d="M117 100h5c2 0 3 1 4 3l2 3c1 1 3 3 2 5v1l1 8v3l-3 9c-1 3-3 5-6 5h-2c-2-1-4 0-6 1-6 2-12 2-18-2l-6-5-5-11-1-6 3-4c3-3 5-6 9-7l3-1 10-1 8-1zm-8 8c-3-1-6 0-8 1h-2c-5 2-6 4-6 8s1 7 3 11c3 4 7 6 11 6l8-1 5-2 2-4v-17c0-2 0-2-2-2h-11z"/><path fill="#FDFDFD" d="M109 108h11c2 0 2 0 2 2v17l-2 4-5 2-8 1c-4 0-8-2-11-6-2-4-3-7-3-11s1-6 6-8h2l5-1h3zm10 18l-1-2-3 1 1 2 1 1c2 1 2 0 2-2z"/><path fill="#060402" d="M119 126c0 2 0 3-2 2l-1-1-1-2 3-1 1 2zm62-31l5-1 10 1c4 0 6 2 9 5l1 3c-1 2 1 3 1 5 0 4 0 7-2 11l-1 5c-2 4-7 8-12 7h-1c-5 2-10 1-15-1-4-2-6-6-8-10s-4-8-4-13l1-2 1-1 2-4c3-3 7-5 12-5h1zm11 28c3-2 5-5 5-8v-10c0-2 0-2-2-2l-3-1c-1-1-2-2-3-1l-1-1h-6l-3 1-5 1 1 4-1 4c0 3 1 7 3 10 2 5 5 7 10 6h1l2-1 1-1-3-2c-2-1-2-2 0-3l3-1 1 3v2z"/><path fill="#FDFDFD" d="M192 123v-2l-1-3-3 1c-2 1-2 2 0 3l3 2-1 1-2 1h-1c-5 1-8-1-10-6-2-3-3-7-3-10l1-4-1-4 5-1 3-1h6l1 1c1-1 2 0 3 1l3 1c2 0 2 0 2 2v10c0 3-2 6-5 8z"/></g><g class="frame--3 frame--4 frame--5" fill-rule="evenodd" clip-rule="evenodd"><path fill="#060402" d="M131 119c0 5-1 10-3 14-1 3-4 4-6 4l-9 1h-12c-5-1-9-5-12-9l-3-6c-2-5-2-9-1-14 1-4 3-8 6-11 2-3 5-5 9-5l3-1 8 1 8 2c4 2 7 5 9 10 1 4 3 9 3 14zm-8 0l-2-14-3-4-5-1-4-1-2-1-6 3c-5 4-7 9-8 15-1 4 1 8 3 11 3 5 7 6 12 6l9-1c4-1 5-3 5-7l1-6z"/><path fill="#FDFDFD" d="M123 119l-1 6c0 4-1 6-5 7l-9 1c-5 0-9-1-12-6-2-3-4-7-3-11 1-6 3-11 8-15l6-3 2 1 4 1 5 1 3 4 2 14zm-4 7v-1l-1-1-4 1 2 3h1c2 1 2 0 2-2z"/><path fill="#060402" d="M119 126c0 2 0 3-2 2h-1l-2-3 4-1 1 1v1zm70-38c3 0 6 1 8 3l5 7 4 7v12l-3 9c-3 3-6 6-11 5h-1c-5 2-10 1-15-1-4-3-6-6-8-10s-4-8-4-13c0-3 0-6 2-8 0-2 2-3 3-4l5-1 1-1 5-3 9-2zm3 34v1h1l1-1c2-2 3-4 3-7v-7c1-4-1-7-4-10l-2-2h-3l-9 3c-3 2-5 6-5 10l2 9c0 2 1 5 3 6l7 2 4-2h1l-5-3 2-2c2-2 4-1 4 2v1z"/><path fill="#FDFDFD" d="M192 122v-1c0-3-2-4-4-2l-2 2 5 3h-1l-4 2-7-2c-2-1-3-4-3-6l-2-9c0-4 2-8 5-10l9-3h3l2 2c3 3 5 6 4 10v7c0 3-1 5-3 7l-1 1-1-1z"/><path fill="#FA2063" d="M192 122l1 1h-1v-1z"/></g></svg>
