<svg xmlns="http://www.w3.org/2000/svg" viewBox="0 0 629 510"><g data--40p-bottom-center="transform: translate(0px,0px);" data--60p-bottom-center="transform: translate(20px,43px);" data--80p-bottom-center="transform: translate(-15px,120px);" data-top-top="transform: translate(0px, 173px);" class="leaf"><path fill="#fff" d="M324 315l-1-3c-1-3-3-4-5-5l-1-1c0-2-1-2-2-2-2-1-5 1-6 3l-1 9v6c2 4 7 7 12 4l2-2 1-3 1-6z"/><path fill-rule="evenodd" clip-rule="evenodd" fill="#070606" d="M324 315l-1 6-1 3-2 2c-5 3-10 0-12-4v-6l1-9c1-2 4-4 6-3 1 0 2 0 2 2l1 1c2 1 4 2 5 5l1 3zm-6-1l-1-2-3 1-1 8 1 1 1-1 2-4 1-3z"/><path fill-rule="evenodd" clip-rule="evenodd" fill="#EB2564" d="M318 314l-1 3-2 4-1 1-1-1 1-8 3-1 1 2z"/></g><g fill-rule="evenodd" clip-rule="evenodd"><path fill="#030303" d="M99 113c-2-4-5-8-6-13-3-7-4-14-4-22l1-8c1-2 1-3 3-3 2-1 4-2 6-1 3 1 3 2 2 4l-1 8a55 55 0 0 0 8 31l4-6c1-2 3-3 5-3 3-1 4 0 5 2v1l1 1-1 3-4 5-4 5 1 1 1 1v-2l3-1 10 4 10 4 12 5h2l12-2 19 1a19 19 0 0 0 20-9l-8 1-13 2-3-2c-1-1 0-3 1-4l2-1h1l16-3h9c3-5 5-10 4-16v-6l2-6c1 2 3 2 4 2l15 5h6c1 0 2-1 1-2l-1-1-17-9h-4l-2-2 1-3c2-1 2-3 1-4l-2-7a52 52 0 0 0-19-24c-4-3-8-6-13-7l-4-1h-5c-1 1-1 0-1-1l2-4 6-6 7-7c1-2 1-2-1-2l-2-2V6l3-2 5-3h5c2 2 2 3 0 6l-11 18 6 2a62 62 0 0 1 24 19l7 13 2 9c1 4 3 5 5 7l5 2c-1-2 0-3 2-5l11-7c3-1 7-2 11 0 6 2 5 8 3 11l-9 6-8 2 1 2-1 3-2 4-5 4-7 1-12-2v9l2-1c4-1 7 0 9 2l1 4-4 10-6 12v2c4 4 5 10 4 16l-3 12v1c1 1-1 1-1 1v1c4 3 5 7 6 11l4 8 2 5 1 2 4 11 2-1c5-2 9-3 14-2 4 1 6 4 8 7v2l-4 5c-3 3-7 5-12 6-3 1-4 2-2 5v2l-1 3-1 2c-3 4-6 8-11 10l-10 4h-1l-3 2c0-2-2-2-2-3h-1c-3-1-5-4-7-7h-1v18l2 10c0 2 0 5 2 6v1 2h-1l-2 2-2 8-2 3-2 1h-2c-3 1-5-1-7-3l-5-3 1 6 1 12 1 8v10c1 1-1 3 1 4l-1 1 2 1v3l-1 4v-1l-1 1 1 4h-1c-1 2 1 1 1 2h-1l1 10-1 1c1 1 1-1 1-1l1 2-1 2v4l1 1-1 1v11 3 2l-1 3v3c-2 3-2 6-1 9l-1 6v6l-1 21v22l-1 6v24c0 2 0 2 2 2l2 1c4 1 8 1 12-1l5-2 10-1c2 0 4 2 4 4v17l-2 5h-13l-10 1-3 1 1 2 1 1-1 3-2 1h-3-1c1 2-1 3-2 3-2 1-4 0-5-2l-5-6c0-1-1-2-2-1l-2 1-6-1h-2c-3-2-7-1-10-1h-11l-4-1h-1c-4 2-9 2-13 1l-2-1-3-4-2 3-3-4c-1-1 0-4 2-6l9-4 6-1 4-1h2l-1-3-3-1-1-2v-10l1-15 1-12h-2l-11 10-7 7-6 6-1 1h-1l-2 1h-2c-1 1 0 2-2 2l1 2-6 2-3-1 2 10v3c0 1 0 2 1 1l9-2c3-1 6 0 8 3v2 8l1 3v5c-2-2-4-2-6-1l-2-1h-8l-1 1h-2l-3-1-5 1-8 1h-7l-2-2-1-16-1-17-3 2h-4l-2-3-2-1-3-9c-2-2-2-3 1-5l6-5 10-9 1-1c-2 0-2-1-3-3v-5c8-5 15-13 22-18l2-2h-4l-3-2c-2-1-3-2-3-4-1-2-1-4 1-5l1-1 15-10 8-2 7 2-7-17-6-16h-1l-6 10-6 9-10 16-5 9-7 11-4 7-6 12-3 7-2 3-1 1-5 10-3 5c-3 4-6 8-7 12l-5 8-6 12-3 6-2 4-3 3h-1l-3-1-3-1h-2l-2 3-5-2-1-2 6-20 9-25 9-26 6-13 8-16 8-18 3-7 7-14 16-33 10-18c3-4 3-4 1-9l-6-21-1-2-4 5c-4 4-8 8-14 9H50l-9-1c-9-3-17-9-23-16-7-11-11-22-13-35l-1-6v-2l1-14c1-1 1-2-1-2l-2-2c-3-6-2-10 2-14v-1-1c-2-1-2-4-3-6l2-3 6-5 8-3c-1-2-2-5-4-6l-2-8c-1-2 0-3 1-5 3-3 9-3 13-1 3 1 5 4 7 7l1 3c12-17 26-30 45-39h-2c-4-1-6-4-6-8 0-2 2-4 4-5l7-3 7-1c3-1 6 0 8 1l3 2 2 2-2-2zm4 9l-4 2-3 1c1 1 3 2 3 4l4-7c-1-1 1-1 2-2l-2-2v4zm88 380v-2l-6-20-4-12-7-21-7-21-3-8-4-10-3-9-3-8-6-16-7-19-10-22-6-18-2-3-1-2v-3l-6-15-1-4v-3l3-3c2 0 3 1 3 2l2 5 2 5 1 1 1-1v-1c-1-3-1-7-3-10l-4-7-2-5c0-2 0-4 2-5l10-16v-2c-1-3 0-4 3-4h1l1 4 5 8c7 6 15 6 23 5 3 0 7-1 10-3l11-11 8-11 3-4c4-6 7-14 7-22 0-5 1-10-1-15-1-4-1-6-4-9-5-4-10-7-17-5h-1c-5 1-10 3-13 6l-11 11-10 14-8 12-6 11-8 13-4 9-10 16 1 2 6 3v1c-1 3-4 5-7 4l-3-2c-6-3-9-7-12-12l-8-15-16-37-8-19-1-2-14 1 4 2c5 3 10 7 13 13l5 10 1 3 3 14v13l-1 6c-1 6-5 11-10 14-6 5-14 4-20 0-5-3-9-6-12-11-4-5-7-10-9-16l-2-13c-1-8-1-15 1-23l1-3 1-1 7-6 9-3-3-3-1-4-4 2-2 1-8 1c-1 1-3 2-2 3 1 2 0 4-1 5l-2 4c-1 1-2 1-1 3v2l-1 5-1 5v7l2 5 2 13c2 6 4 12 8 17l9 10c7 6 16 9 25 8l7-2 8-8 1-3c2-2 3-4 2-7s-1-5 1-7l2-2 1-1v1l6 20 7 19 4 11 4 14 3 7 2 7 8 20 7 18 10 25 8 21 3 8a1071 1071 0 0 0 15 30l6 13 5 7 14 20 4 6 1 2 4 2zM40 179l2 3c2 2 1 3 0 5l-1 1h23l23-1 13-1 26-1a231 231 0 0 0 5-1v-4l-1-9 2-2c2-1 7 1 9 3v10l2 2 4-1 1 1c2 2 3 3 3 5l1-1v-3-6-8c0-1 0-2-2-2l-8-1h-8l-19 1-17 1a257 257 0 0 0-39 2l-2-1v-5l4-3h3l18-1 4-2 9-12 3-2 5 1c2 1 2 3 1 4l-4 5-2 4h25l20-1h5c3-1 6 0 8 3l3 5 9-7-3-4-2 3c-1 1-2 3-4 1h-3l-2-3v-2c4-2 6-6 9-9l1-2h-6c-4-1-7-3-8-6-1-2-2-3-4-3l-13-5h-3l-6-2-7-3-1-2v-2l-3 1c-1 0-2 0-2 2-1 2-3 5-3 8l-2 2-1 1c-3-1-5-2-6-4l-6 3h-3l-8 3-9 5-9 7-10 10c-6 6-11 12-14 20zm51 132l-1 1-5 7-4 8-7 14-4 9-2 4-5 9v2l-1 2-1 2-3 4v2l-1 2-1 1-1 1 1 1-4 5-4 9-1 2-2 5-5 10-2 6-3 6-3 8c-1 3-3 5-3 8l-2 4-1 3-1 1-1 1-4 13c-1 1-2 2-1 3 0 1-2 2-1 3-1 2 0 4-2 5v2c-1 2-1 5-3 7v4c-1 2-2 4-1 6v1c2-2 4-4 4-7v-1l7-11 14-25 27-46 11-17a451 451 0 0 1 25-40c1-1 2-2 1-4l-2-7-7-19-1-4zm110-141l2 2c2 2 4 5 4 9v8l-1 3 1 1c2 7 2 13 1 20v2l1 3v15 0c0-2 1-3 3-3 2-1 3 0 4 1l2 4h2l2 1 3 1 1 1 5-3 7-8 1-4-5-14c-3-8-5-16-9-23l-5-10-4-7-2-1-7 1-6 1zM66 250v-4-1c-2 0-2-2-2-4l-1-7c-1-6-2-13-6-19-2-4-6-7-10-10l-11-2-6 2c-3 2-4 4-5 7l-1 12 1 14 3 9 4 8 1-2 6-5 1-2-2-10 2-6c1-2 2-3 4-3 4 1 6 2 8 5l3 8 1 3-1 5c5-1 7-1 11 2zm40-18h2l14-1c2 1 2 0 3-1l17-27 7-11 1-1h-1l-3 1h-2l-13 1-9 1-12 1-1 2-1 4-2 18v13zm-3 38l1-3v-3l-2-5c-3-6-4-12-5-18l-1-2-1-3v-13l1-25c0-2 0-2-2-2l-23 1-1 1 1 4 6 13 2 4 3 8 1 3 3 8 5 12 2 4 3 6 1 1 2 2v1l4 6zm114-111v-3l2-3a41 41 0 0 0 1-13c-1-2-1-3-3-3l-1-1c-1-1-3-1-3-3l-2-2 3-2c2 1 3 0 4-2l7-11 3-8h-1c-5 3-9 7-12 12 0 2-2 3-3 5l-3 3c-2 3-6 4-9 6l-4 2-3 1c-1 2-2 1-3 1l-11-3h-11l-10 1-1 1 27 2c4 0 9 2 14 0 1 0 3 1 3 3l2 4-20 1h1c6 1 11 2 17 1 2 0 4 2 4 4 1 3 1 3-2 3h-11l-2 2h7l10-1c3 0 4 1 4 4v1c2-1 3-3 6-2zM68 460c2-3 7-2 9-1l1 1v5l1 6a297 297 0 0 1 1 20c0 2 0 3 2 3h24c3 0 3 0 3-3l-1-2c0-1-1-2-3-1l-7 3-1 1-4-2c-1 0-2-1-2-3v-3l-2-11-2-11 1-4v-2a2303 2303 0 0 1-11-13l-11 12v1l2 4zm133-224l-4 6-8 11-1 1-1 3v11l1 1 7 5 7 7 3-7v-3l-2-10-2-23v-2zm1-52c1-2 1-4-1-6l-2-4-2-2-7-5c-1-2-3-2-5-3l-11 2-9 7c-2 1-3 3-6 3v6c3-3 6-4 10-6 5-2 11-3 17-1l11 4 1 1 4 4zm-8 308l9-1 10-1h3l1-4-1-7-2-1-7 3c-3 2-8 3-12 2-1 0-2 0-2 2l-1-2c-1 3 1 6 2 9zm-47 2l5-1c2 0 3 0 3-2v-1l1-3 3-2c2-1 2-1 3 1l4 5 2 2 4-1-10-15c-2 3-4 3-6 3h-8l-1 7v7zm28-348l-3 1c0 1-3 2 0 4v1l1 4 4 2h7l1-1c0-1 0-2-2-2h-1c-5-1-7-4-7-9zm-78-28c-4-4-18-2-22 2 2 1 19 0 22-2zM59 267l-6-4h-5c-2 2-2 4 1 5l2 1 6-1 2-1zm36 135h1l14-5 2-4c-5 0-16 5-17 9zM245 79l8-3 6-4c1-1 2-1 1-2h-2l-7 2c-2 2-5 4-6 7zm12 127l-8 2-4 2v2l1 1 12-5 1-1-1-1h-1zM27 172l-1-5-2-3-1-1-4 2 1 5 5 2h2zm20 85l-2-3-4-2-2 2-1 3c0 2 1 3 3 2l6-2zm79 235c5 3 14 1 17-3l-2-1-2 2-1 1h-1c-1-2-2-2-4-2l-4 2-3 1zM48 247c1-6-1-12-3-14-1 5 0 10 3 14zm-22-63c-5 0-12 2-15 5l15-5zM5 205l5-4c1-1 3-3 2-5-3 2-6 5-7 9zm54 52l2-1 1-2-1-1-2-1-2 2 2 3zm-20 6c0 1 0 2 1 1l1-1h-2zm25-1h-1 1z"/><path fill="#050302" d="M466 296l-4-3h-2c-6 3-12 5-19 5-7 1-14 0-20-4l-7-6h-1l-5-1-1-3v-3l4-2a127 127 0 0 0 35-21l7-10 5-12 2-13-3-17c0-2 0-4-2-5l-1-1-3-6 1-4c3-2 4-2 6 1h1l6-2c5-2 11-3 17-3s11 1 14 6l5 4h3l8-5 5-2 11-9c1 0 2-1 1-3l-1 1c0 1-3 1-3 3l-2 1c-2 1-4 3-7 3l-2 2-4 2-4 1c-3 0-5 0-7-2l-6-5c-7-3-14-5-21-5s-14 1-19 7h-2l-4-1c-1 1-2 0-3-1l-1-3-1-4-8-15-10-8h-2c-2 0-2-1-2-2l2-2 1-2c-5 3-11 4-17 6l2 4 3 5 4 6 3 2v3c0 1 0 3-2 3v3c-1 2-3 2-4 1l-7-4c-6-1-12 0-18 1-6 2-10 5-14 9l-2 2-2 1h-8l-6-1c2 1 4 2 6 1l1 1 10 1c2 0 4 0 6-2l8-5c3-2 3-2 6 1l11 7 8 3c4 2 7 3 11 1l-1-2-2-2c-1-1-1-3 1-4 3-2 3-2 6 0l1 1 4 7c2 2 4 3 5 6 1 4 3 7 3 12l1 4c1 6 0 11-1 17-2 4-3 7-6 10l-2 3c-3 3-6 6-11 8l-3 3-4 3-8 7v2l-1 1c-5 0-9 2-13 3l-2 2-1 2-1 1h-7c-4-2-4-2-8 0-3 2-5 3-8 2-6 0-13-2-19-4-3-2-3-4-3-6l4-9 7-7 7-2 9 1h3c3 2 6 3 8 6l4 5 1 1 6-2c5-1 10-4 13-8v-2c-2-3-3-5-6-6l-5-4a46 46 0 0 0-55 1c-6 5-10 12-12 20l1 3 1 1-2 4-1 3 1 5c1 2 3 5 6 5l1 1 13 7 10 2c6 1 12 0 18-1 5 0 9-2 13-3l6-2c2-1 4-1 4-4l3-1h7l1 1-1 3-2 2c-2 1-2 3-2 5l1 1 1 3-1 8-1 3-5 8-2 1-1 1c-3-1-5-2-7-5-2-4-2-8 1-13l2-2h2c2-1 2-1 2-4v-1c-3 0-5 2-8 3l-5 2-4 1-2 1h-3-1l-6 1h-7l-6-1c-9-1-17-5-23-9l-1-1v8l2 1h3l5 3 2 4c0 5-1 9-3 12l-5 6c-3 2-4 2-6 0l-1-1c-4 1-5-2-6-5-2-6-1-11 2-16-1-1-2-1-2-3v-3c-2 0-2 1-2 2-3 5-5 10-9 14-2 3-4 4-8 3h-1l-5-3c-2-4-1-8 1-12 1-3 3-5 6-7-2-3-1-6 1-9 2-4 8-5 11-4l5 3h2v-2c-2-4-3-8-3-13v-3c2-3 2-6 3-10 2-6 6-11 9-16l11-9 14-5c5-1 10-2 15-1l8 1h4l1 1c2 1 5 1 6 3h2l3 2h1l3 2c2 1 2 3 5 3l1 1 7 7h3l2-1c6-4 9-9 13-15 3-3 3-7 3-11l-1-6v-1c-2-2-2-5-3-8l-2 1h-2c-6 1-12-2-18-4-3-1-7-3-10-6l-4-4h-3l-5 5-2 1c-8 0-15 0-22-2l-5-2-1 2-1 6c-1 2-3 3-5 3-5-1-7-2-10-8l-3 6c-2 2-3 3-6 2l-4-2c-3-2-3-5-3-8l1-4-7 3-4 2h-7l-1-1c-2 0-3-1-3-3l-1-2-1-4c-1-1 0-2 1-2 4-5 9-9 14-11l7-1h3l-1-3v-5c2-3 4-4 7-4l4 1c4 1 6 3 7 7v6l-1 1 1 2 9 2h16l2-2 7-6 8-4 17-3h3l-5-8-1-1c-1-2-2-1-4-1-6 1-13 0-20-1l-13-5c-2-1-4-2-6-1l-4-1-8-5-3-2-4 1-5 2c-3 2-7 3-10 3s-6-1-8-3a167 167 0 0 1-20-25l-2-1-3 1 2 2c2 2 2 3 1 4l-4 6-6 6-5 3h-1c-3-1-6-2-8-6s-2-9 1-13c2-4 5-5 9-4h6l6-4 1-1-1-1c-4 0-8-2-11-4h-2l-8-4-5-3v-3l4-4c4-2 8-4 13-4l4 1c4 1 8 3 11 6h1l1-7 2-4c1-2 3-2 4-1l7 11c1 4 0 9-2 13l-2 3 8 9c2 2 3 2 5 1l9-6c3-1 5-2 8-1h1c0-2-1-3-3-3-2 1-4 0-5-2l-3-4c-1-1-2-3-4-3v-1-3-3l2-4 6-4 6-1c2 0 5 2 4 4v2l1 9v2c0 2 1 5 4 6l5 7 6 5 10 4c4 2 8 2 13 3l-4-6a63 63 0 0 1-6-45l8-19v-2l-5-4c-2-2-5-3-7-3-2-1-2 0-3 1l-8 6-3 1c-1 2-3 2-5 1l-7-2c-3-3-4-5-3-9 0-5 3-8 7-10 7-3 13-2 20 2l1 1c0 2 2 2 3 2h6l4 2 4 2 1-2c4-6 10-11 17-14 9-5 18-6 28-6l8 2 15 5 2 1 2 1 3 1 7-3v-2-1c-1-3 0-4 1-5l9-5 9-2c3 0 6 2 7 5v4c-3 4-6 6-10 8l-5 1h-7l-8 5 6 5c3 3 5 6 6 10l4 13v5l-1 11 1 4c2 3 4 5 8 4 0-3 2-5 5-7 4-2 9-3 14-3l8 5v3c-1 5-4 8-8 10l-2 1c-2 2-4 1-6 0-2 0-4-2-4-4v-1c-6 2-11 2-16-1l-3 6c-1 6-4 10-7 15-8 10-17 19-27 26l-8 4c0 2 1 2 2 2a36 36 0 0 1 16 17c1 1 2 2 1 4l1 1 3 7 8-4c5-2 11-2 16-1l15 3 6 4 5 3 2 1c5-3 11-5 15-9l4-3 2-4 2-3 1-2v-5-2c3-5 8-10 14-12l1-2h3l6 4c3 4 5 9 5 15-1 4-4 7-7 9l-3 2 1 1c3 0 7 2 9 4 4 2 6 5 7 9l1 8s0 1 0 0h-4l-4 1-1 1c-4 0-8-1-11-3-3-1-5-3-6-7l-1-1-2 1-2 2-9 7-11 8-6 4-3 1c-2 1-5 0-7-2l-5-5-2-2c-2-2-4-3-7-3l-16 2-5 2v1l2 7 1 8 1 4v11l-2 12-7 15-4 6-2 3-3 3-1 1-2 1h3l8-2 12-4c7-1 13 1 17 6l5 5 4 2 9-2 13-1 5 2c3 1 5 3 6 6l1 1 6-1v-3c1-2 1-4 3-5 4-3 8-5 13-6l3 1 3 1c3 2 3 6 2 9l-5 8-6 4h-1l3-2h-2l-4 1h-7-2l-8 4-2 1-1 1-1 1c0 1 0 2 2 2l-2 8-6 7v1c0 1-1 2-2 1h-1l-4 4-8 3-9 2h-18c-2 1-3 1-3 3v6c1 2 0 4-1 6-3 3-5 6-9 7l-5 1c-4 2-6 5-6 8l-1 2-2 7h1l11-2 7-1 1 1c2 1 2 1 4-1a31 31 0 0 1 13-10c3-1 6-1 8 2l1 1c2 1 3 3 2 6-2 4-5 7-8 9-4 4-9 4-13 2l-1-1c-2-2-5-1-7-2l7 7 2 1c5-1 10 2 14 5 3 3 4 6 4 10l-1 2-4 1c-4 2-7 1-11 0l-3-3-4-9-1-2c-1-3-3-5-6-7l-8-3-2 1-7 3-1 1 1 5v6c0 2-1 2-2 3-5 1-7 4-10 7h76l1 1c1 1 3 2 3 5l-1 4v1l-2 12 1 5v1c2 0 1 1 1 2v2l-1 2h-6-1v1l-1 1h-1c-2 0-2 0-3 2v2l-2 11-1 9-2 8v4l-1 6 5-1 12-4c3 0 6 2 7 5l-1 5-6 5-3 1 11 1 8 2c3 0 4 2 5 4l-1 3c-3 2-7 3-10 3h-16l-1-1 1-1c0-2 0-3 3-3h3l11-1h-1l-5-1h-10l-3 2-3 3-2 1h-11c0-2-2-1-3-1h-4c-2-1-3 0-5 1h-25l-1-2v-2c1-2 1-3 2-2l14 1 1-2v-4l2-2 6-2 13-1h1l-2-2c-2-1-2-2-2-4l1-4 2-9 3-21c1-2 2-4 1-7-1-1 0-2 1-2-1-2-2-1-3-1h-8l-6 1h-1v1h-1l-1-1h-14s1 0 0 0h-45l-8-1h-9l-4 1-13 1c-2 0-2 0-2 2v13l1 10v4l1 4v3l1 1c2-1 3 0 4 1l2 2c3 1 5 4 6 7v2c8-2 16-2 23 4v-1c0-3 0-4 3-5h7c5 0 10 2 15 4 4 2 6 4 7 8 1 3 1 3-1 3l-1 1c-1 2-3 2-4 2h-31l-8 1-2-1h-9l-1 1-3 1h-4-20c-2 0-4 0-6-2l-1-1h-11l-2 1-9 1h-17l-2-1-2-6c0-2 2-3 3-4 5-4 10-6 16-5l6 1h1c7-6 14-7 22-7h2l5-4 1-2v-9l-1-15-2-13v-1h-2-1l-5-1h-1c-1-2-2-3-1-5 1-1 2-2 1-4v-3-4-8-2l-1-2c-1-2 0-3 1-5l1-2 1-1 5-1h1l7 1h9l3-1h14l1-2c0-2 0-4 2-4l3-2 4-6 2-4 1-14 1-5-1-2-4-1-5 7c-1 3-3 4-5 5 0-2 0-2-1-1l1 1-1 1v3c0 4-1 7-3 9-1 1-3 1-3 3v-2l-5 2c-3 2-5 2-8 2h-1l-2-4-1 1-3-3-1-4c0-4 2-8 5-10 3-3 7-5 11-6l3 1h6c4-2 7-4 9-7l-4-4c0 1-1 2-2 1l-4 1c-1 0-3 1-4-1l-7-1-1-1c-1 1-2 0-3-1l-1-2-3-4c-2-1-3-3-2-5l1-3c5-4 10-5 17-4 4 1 8 4 9 8l1 4 1 3 6 4c1 2 3 2 4 2 2 1 3 0 3-1 2-7 5-14 9-20l3-4 2-2 8-2c3 0 4-1 5-3l3-6c2-6 6-11 12-14l7-2h3l-1-1zm-65-174l-2-4-1-1-2-5a70 70 0 0 1-6-34c2-7 5-14 10-19 4-6 9-10 16-12 2-1 4-2 7-1 7 3 12 7 16 13l7 13v2c2 2 1 3 0 4l-1 1-2 6c-1 5-2 9-5 14l-3 3a79 79 0 0 1-35 29c-10 4-21 6-32 4-10-1-19-5-26-12l-2-1-6-1c-3-1-6-1-9 1l-6 4-7 2h-1c3 4 6 8 11 10h2l7-3 9-4c3-1 5-1 8 1l15 9a49 49 0 0 0 31 6 87 87 0 0 0 69-47l4-10v-4l-2-2c-1-1 0-1 1-2l2-4 1-7-4-18c-2-4-3-7-6-9s-6-5-9-5l-2-1-3-3-3-2c-5-2-10-4-16-4a48 48 0 0 0-33 10l-7 9-1 3v2l-2 3-2 4-1 3-4 12-2 11 1 6c-1 3 0 6 1 9 1 7 4 12 7 18l2 3 2 1v3c5-1 9-2 14-5zm11 274h12c2 0 2 0 3-2l3-9c1-2 3-4 6-4l1-2 1-10c2-7 3-15 6-21l2-4 7-4 7-2 1-3c0-5 1-9 3-14l2-2c2-2 5-2 8-3h15l15-4 9-8 1-3-1-4c0-4 1-5 5-5h4c-1-2-2-4-1-6l-1-1-4-2-3-1-8 2c-6 1-12 0-18-2l-4-2-3-3-4-4c-2-2-6-2-9-1l-11 3c-3 1-6 2-10 1l-7-1-3 1-2 2-9 4h-1c-2 2-2 3 0 4 4 3 9 4 14 4 8 0 14-3 21-6l9-2c2 0 3 1 3 2l1 2 2 2 7 5 6 2h1l12-5h1c1-2 2-1 3-1l2 1c2 1 3 2 1 4l-5 3-10 5c-7 3-14 6-21 7h-8-2l-7 7-5 10c-1 3-4 6-8 6l-5 1-2 1-7 10-1 3-2 5-1 2-1 6-1 5-1 5c0 3 2 6 1 9v4c0 3-1 5-3 7l-3 3c-1 0-3 1-3 3zm-44 25v3l2 2 11-1h121l2-2-1-5v-10c0-3 0-3-2-3h-6l-16-1h-5l-13-1h-69l-20 1-2 1-1 9v2l-1 5zm39-303c9-5 16-11 22-19 4-5 7-11 8-18 0-4 1-7-1-11-2-5-5-10-10-15-2-2-5-3-8-2l-8 4c-5 4-9 10-11 17-2 6-1 13 0 19 0 6 2 11 4 17l4 8zm-29 154l-1-1-6-5-8-4c-6-1-9 3-11 8l1 2 7 2c2 0 4 1 7-1 3-1 6-2 10-1h1zm156-114l1 2c0 2 0 3 3 3h4l4-3c3-2 4-5 3-9l-3-5h-1c-4 1-7 4-9 7l-2 5zM342 47l2 5h2c4-3 8-5 11-10l-1-1-8-1c-4 1-6 4-6 7zm214 138h3l1-1c-1-4-6-8-9-9h-6-1l-1 1 1 2v1c3 3 7 6 12 6zM443 493v-1l-5-3-10-1h-6c-2 0-2 0-1 2l1 3h21zM296 103l-1-1c-3 0-5 0-7-3l-12-4c-2-1-4 0-6 1l1 1c4 3 8 4 12 4l2 1c1 2 2 2 4 2h4l3-1zm116 388l-1-1c-4-2-7-2-11-2-3 0-6 0-8 3l-1 1c-1 1-2 0-3-1v-2l-3 1 2 1c1 1 1 2 3 1l16 1 6-2zM300 311l1 3c2 1 3 0 3-1l1-1a358 358 0 0 0 5-8v-3h-3l-2 2c-3 2-4 5-5 8zm63 177l-3-3-7 1c-2 0-4 0-4 2l-1 2c-1 0-2 0-1 1 4 2 13 0 16-3zM486 22l-2-1h-5l-10 5-1 1c5 1 6 2 11-1l7-4zM376 377l3 1 4-1 7-5c1 0 2-1 1-2l-2-1-5 2c-1 1-2 2-4 1h-1c1 2 0 2-1 2l-2 3zm123 115c-2-2-3-3-6-3l-15-1-5 2 2 1h5l15 1h4zm-16-103h4l1-2-1-3-3-2h-5l-1 1 1 4c1 2 2 3 4 2zm57-108c2 1 3 2 5 1l8-4 1-2c0-2 0-2-2-2l-5 2-6 5h-1zm-160 61c6 2 12 1 17 0 0-2-1-3-2-3l-3-1c-4 0-8 0-12 4zm4 141l-1-3-2-1-10 2-2 2c5 2 10 1 15 0zm-56-160l4-6 1-7v-1h-2l-1 1-1 1-1 1v11zm-6 171h17v-1l-4-2h-3l-8 1-2 2zM493 88l4 4c2 1 6-1 8-3l-1-2-4-1-7 2zm-98 228l5-10c-4 0-6 1-7 3-1 3-1 5 2 7zm118 160h-1a34 34 0 0 0-14 5l-1 3 2 1c0-2 1-3 3-3l6-2 5-4zM306 190c5 0 15-5 16-9-6 1-12 4-16 9zm171 175c5 1 11-3 12-8-4 2-9 4-12 8zM300 89v3c-1 4 0 8 1 12 3-5 2-11-1-15zm35 98c-4 1-7 9-5 14l5-14zm-61-56h2l6-7v-1l-2-1-1 2-3 3c-2 1-2 3-2 4zm60 44v-4c0-2-1-3-3-4-1-1-2-1-2 1v3c1 2 2 4 5 4zm13 26l1-7-1-1-4-1c0 4 1 7 4 9zm-31 89h-5l-4 4 1 1h1l7-5zm67 205c-4-2-13-2-16 0h16zm155-320v-3c0-2-1-2-2-3l-3 2 2 3 3 1zM330 92v3l2 4h2v-1l-4-6zm160-2h-1v1l1-1zm3 392h-1v1l1-1z"/><path fill="#FC2065" d="M408 287l-1-1h-7l-3 1c0 3-2 3-4 4l-6 2c-4 1-8 3-13 3-6 1-12 2-18 1l-10-2-13-7-1-1c-3 0-5-3-6-6l-1-4 1-3 2-4-1-1-1-3c2-8 6-15 12-20 9-7 19-9 30-9 9 0 17 3 25 8l5 4c3 1 4 3 6 6v2c-3 4-8 7-13 8l-6 2-1-1-4-5c-2-3-5-4-8-6h-3l-9-1-7 2-7 7-4 9c0 2 0 4 3 5 6 3 13 5 19 5 3 1 5 0 8-2 4-2 4-2 8 0h7l1-1 1-2 2-2c4-1 8-3 13-3l1-1v-2l8-7 4-3 3-3c5-2 8-5 11-8l2-3c3-3 4-6 6-10 1-6 2-11 1-17l-1-4c0-5-2-8-3-12-1-3-3-4-5-6l-4-7-1-1c-3-2-3-2-6 0-2 1-2 3-1 4l2 2 1 2c-4 2-7 1-11-1l-8-3-11-7c-3-3-3-3-6-1l-8 5c-2 2-4 2-7 2l-9-1-1-1h8l2-1 2-2c4-4 8-7 14-9 6-1 12-2 18-1l7 4c1 1 3 1 4-1v-2-1c2 0 2-2 1-3l1-3-3-2-4-6-3-5-2-4c6-2 12-3 17-6l-1 2-2 2c0 1 0 2 2 2h2l10 8 8 15 1 4 1 3c0 1 2 2 3 1l4 1h2c5-6 12-7 19-7s14 2 21 5l6 5c2 2 4 2 6 2l5-1 4-2 2-2c3 0 5-2 7-3l2-1c0-2 3-2 3-3l1-1c1 2 0 3-1 3l-11 9-5 2-8 5h-3l-5-4c-3-5-8-6-14-6s-12 1-17 3l-6 2h-1c-2-3-3-3-6-1l-1 4 3 6v1c3 1 3 3 3 5l3 17-2 13a66 66 0 0 1-12 22l-14 11-21 10-4 2-1 3 2 3zm40 206c-1-4-3-7-7-8-5-3-10-4-15-4h-7c-3 1-3 1-3 5v1c-7-6-15-6-23-4v-2c-1-3-3-6-6-7l-2-2c-1-1-2-2-4-1l-1-1v-3l-1-4v-4l-1-10v-9-4c0-2 0-2 2-2l13-2h13l8 1h10l18-1 3 1h2l2-1 6 1h4c1-1 0 0 0 0h3l1-1h8l2 1s1-1 1 1h1v-1h1l6-1h8c1 0 2-1 3 1-1 0-2 1-1 2a721 721 0 0 1-6 36l-1 5c0 2 0 3 2 4l2 2h-1l-13 1-6 2-2 2v4c0 1 0 2-1 1h-14c-1-1-1 0-2 1h-2zM122 103v-1c-1-2-2-3-5-2-2 0-4 1-5 3l-4 6-3-5c-4-8-6-17-5-26l1-8c1-2 1-3-2-4-2-1-4 0-6 1v-5l7-4 6-4 3-2v-2c-2-1-2-1 0-3l1-2-2-4-1-2-3-4-4-11 1-3v1l3 6 4 9c1 2 2 2 3 1l1-2v-3c0-4 0-7 2-10 0-1 0-2 2-2l-2 8v6l2 2 3-2 1-3c4-4 9-7 14-9 4-2 4-3 1-5l7-2c2 1 5 1 7 3l-10 4-9 6c-3 3-4 7-3 10 1 2 2 3 5 3h1l10-3 5-1-1 2-5 2-3 1c-2 1-2 2-1 4l1 1 6 6-2 3-2 14 1 8h-3c1-2 1-3-1-4l-1-2-1-1c-2-4-8-5-11-4l-3 2c-3 1-5 4-6 7-1 5 0 9 2 13l5 10-1 3z"/><path fill="#050302" d="M142 79l-1-8 2-14 2-3-6-6-1-1c-1-2-1-3 1-4l3-1 5-2 1-2-5 1-10 3h-1c-3 0-4-1-5-3-1-3 0-7 3-10l9-6 10-4c-2-2-5-2-7-3l-13-4-2-1V5l2-2 2 1 8 2c4 2 8 3 11 6l2 1c2 1 3 1 4-2l2-1c4-4 9-6 15-7 4-1 6 0 9 3l1 2-1 5c-2 5-5 8-10 11l-5 2-6 2h-1c-1-2-2-1-2-1-6 0-11 1-15 3l-1 1 9-1 10-1 3 1 3 4c0 2-1 2-3 2-6 1-10 5-14 8v2l2 3 4 2c2 0 3 3 2 5l-2 3c-2 1-2 2-2 3l-1 3c-2 5-2 11 0 16 0 2 0 3-2 3l-6-2-3-3zm36-70l-5 1-9 4c-1 1-2 1-1 2l-1 2v1l2 1 8-4 6-7zm-24 6l-1 1v2l1 1 1-1-1-3zm-19 3c3 2 3 3 0 5-6 2-11 5-15 9l-1 3-3 2-2-2v-6l2-8c-2 0-2 1-2 2-2 3-2 6-2 10v3l-1 1c-1 2-2 2-3 0l-4-9-3-6v-1l-1 3 4 11 3 4 1 2 2 4-1 2c-2 2-2 2 0 3v1l-3 3-6 4-7 4-7 3c-6 2-8 0-10-5-2-4-1-8 1-11 4-4 8-8 13-10l5-3c2-1 2-1 1-2-2-5-3-10-3-16 0-2 1-5 3-7 0-1 1-2 2-1l3 3c2 4 5 8 6 13h1l3-10 3-5h3c2 1 3 3 3 5l-2 7 1 3 7-5 9-3zM81 58c4 0 20-9 22-11l-3-2c-2-1-4 0-6 1l-2 1c-4 2-8 5-10 9l-1 2zm196 442l-12-1h-2c-4-1-5-2-5-6 0-2 1-3 3-4 3-2 7-3 10-3h12c4 1 7 5 7 9v1c-1 1-2 3-5 3l-8 1zm9-6c-1-2-3-3-6-3-4-1-7 0-10 1l-2 2h18zm333 5l-3 1-9-1-4-1h-4-1l1-4 1-4c0-2 1-3 2-3 7-2 14-3 21 0 3 2 5 4 6 7 0 2 0 3-2 4l-8 1zm-13-6l7 1c3 1 6 0 10-1-3-2-12-2-17 0zm-53 4v-2l-2-1-1-2c0-4 0-4 4-5l19-1 5 1c2 1 5 4 5 7l-2 2c-3 2-6 3-10 3h-4l-7-1-4-1h-3zm8-4l13-1-13 1zm-521 5l-1 2-3-3v-5l8-4 4-2c3-1 6-1 9 1l3 1c2 0 3 2 3 4l1 5c0 2 0 3-2 4-4 1-8 2-12 1h-6-1l-3-4zm20-5l-3-1-7-1-3 1-3 2-2 1 2 1h10l3-1 3-2z"/><path fill="#FC2065" d="M167 34l-3-4-3-1-10 1-9 1 1-1c4-2 9-4 15-3 0 0 1-1 2 1h1l6-2 5-2c5-3 8-7 10-11l1-5 4-2v3l2 2c2 0 2 0 1 2l-7 7-6 6-2 4-8 4zm332 464l2-1 3-3 3-2h10l5 1h1l-11 1h-3c-3 0-3 1-3 3l-1 1c-2 1-4 2-6 0z"/><path fill="#FBFBFB" d="M194 347l-1-10h2v1l-1 2c0 2 1 1 1 1v1l-1 2v3z"/><path fill="#050302" d="M194 347v-1-2l1-2 1 3-1 1v1h1l-1 1-1-1s0 2-1 1l1-1z"/><path fill="#FC2065" d="M194 335l-1-4 1-1v1h1l-1 4zm331-37c-2 0-2-1-2-2l1-1 1 3z"/><path fill="#050302" d="M195 341s-1 1-1-1l1-2v3z"/><path fill="#FC2065" d="M195 337h-1c0-1-2 0-1-2h1l1 2zm203 31l-1-1c1-1 1-1 1 1zm149-77h-3l2-1 1 1zM99 113l2 2-2-2c0-1 0-1 0 0z"/><path fill="#FBFBFB" d="M196 347h-1v-1l1-1v2z"/><path fill="#FC2065" d="M550 487c0-1 0 0 0 0z"/><path fill="#FBFBFB" d="M547 291l-1-1h2l-1 1zM191 502l-4-2-1-2-4-6-14-20-5-7-6-13a286 286 0 0 1-15-30l-3-8-8-21-10-25-7-18-8-20-2-7-3-7-4-14-4-11-7-19-6-20v-1l-1 1-2 3c-2 1-2 3-1 6s0 5-2 7l-1 3-8 8-7 2c-9 1-18-2-25-8l-9-10c-4-5-6-11-8-17l-2-13-2-5v-7l1-5 1-5v-2c-1-2 0-2 1-3l2-4c1-1 2-3 1-5-1-1 1-2 2-2l8-2 2-1 4-2 1 4 3 3-9 3-7 6-1 1-1 3c-2 8-2 15-1 23l2 13c2 6 5 11 9 16 3 5 7 8 12 11 6 4 14 5 20 0 5-3 9-8 10-14l1-6v-3-9l-3-15-1-3-5-10c-3-6-8-10-13-13l-4-2 14-1 1 2 8 19 16 37 8 15c3 5 6 9 12 13l3 1c3 1 6-1 7-4v-1l-6-2-1-3 10-16 4-9 8-13 6-11 8-12a298 298 0 0 1 21-25c3-3 8-5 13-6h1c7-2 12 1 17 5 3 3 3 5 4 9 2 5 1 10 1 15 0 8-3 16-7 22l-3 4-8 11-11 11c-3 2-7 3-10 3-8 1-16 1-23-5l-5-8-1-4h-1c-3 0-4 1-3 4v2l-10 16c-2 1-2 3-2 5l2 5 4 7c2 3 2 7 3 10v1l-1 1-1-1-2-5-2-5c0-1-1-2-3-2l-3 3v3l1 4 6 15v3l1 2 2 3 6 18 10 22 7 19 6 16 3 8 3 9 4 11 3 7 7 21 7 21 4 12 6 20v2zm5-296l-1-5-1-4c-2-8-4-9-11-10l-9 2c-6 2-10 6-14 11l-11 14-8 15c-2 2-3 4-3 7v4 2l4 9 3 2c3 2 6 1 9 1l6 1 5-1 9-5 7-7 4-6 8-17c2-4 3-8 3-13zm-79 96l-2-6c-1-5-6-7-10-5l-4 1-1 2c-1 3-1 7 1 10 1 3 4 5 7 6h4l3-1 2-7zM40 179c3-8 8-14 13-20l11-10 9-7 9-5 8-3h3l6-2c1 1 3 3 6 3h1l2-3c0-3 2-6 3-8l2-2 3-1v2l1 2 7 3 6 2 3 1 13 4 4 3c1 3 4 5 8 6h6l-1 2c-3 3-5 7-9 9v2l2 3 2 1 1-1c2 2 3 0 4-1l2-3 3 4-9 7-3-5c-2-3-5-3-8-3h-5l-20 1H98l2-4 4-5c1-1 1-3-1-4l-5-1-3 2-9 12-4 2-18 2-2-1h-1l-4 4v4l2 1 15-1 24-1 17-1 19-1h8l8 1c2 0 2 1 2 2v8l-1 6 1 3-1 1c0-2-2-3-3-5l-1-1-4 1c-1 0-2 0-2-2v-7-3c-2-2-7-3-9-2l-2 1 1 9v4l-1 1h-4l-26 1-13 1-23 1H43h-1-1l1-1c1-2 2-3 0-5l-2-3zm114-27c0-3-2-4-4-3h-3l-8-5-10-6-5-3c-4-4-8-5-12-6l-3 2-1 4 2 3h2l11 6 24 13h3c2 0 4-3 4-5zm-5 28c0-2 0-3-2-3l-3 2c0 2 2 3 4 3l1-2z"/><path fill="#FDFDFD" d="M91 311l1 4 7 19 2 7c1 2 0 3-1 5a1275 1275 0 0 0-25 39l-11 17-27 46-14 25-7 11v1c0 3-2 5-4 7v-1c-1-2 0-4 1-6v-3-1c2-2 2-5 3-7v-2c2-1 1-3 2-5-1-1 1-2 1-3-1-1 0-2 1-3l4-13 1-1 1-1 1-3 2-4c0-3 2-5 3-8l3-8 3-6 2-6 5-10 2-5 1-2 4-9 4-5-1-1 1-1 1-1 1-2v-2l3-4 1-2 1-2v-2l5-9 2-4 4-9 7-14 4-8 5-7 1-1zm110-141l6-1 7-1 2 1 4 7 5 10c4 7 6 15 9 23l5 14-1 4-7 8-5 3-1-1-3-1-2-1h-2l-2-4c0-1-2-2-4-1-2 0-3 1-3 3v3-3-3-12l-1-3v-2c1-7 1-13-1-20l-1-1 1-3v-8c0-4-2-7-4-9l-2-2zm-95 62v-13l2-18 1-4 1-2 12-1 9-1 13-1h2l3-1h1l-1 1-7 11-17 27c-1 1-1 2-3 2h-16z"/><path fill="#FC2065" d="M68 460l-2-4v-1l11-12a2303 2303 0 0 0 11 13v2l-1 4 2 11a505 505 0 0 0 4 17l4 2 1-1 7-3c2-1 3 0 3 1l1 2c0 3 0 3-3 3H82c-2 0-2-1-2-3v-9a297 297 0 0 0-2-17v-5l-1-1c-2-1-7-2-9 1zm133-224v2a208 208 0 0 0 4 36l-3 7-7-7-7-5-1-1v-11l1-3 1-1 8-11 4-6zm-7 256c-1-3-3-6-2-9l1 2c0-2 1-2 2-2 4 1 9 0 12-2l7-3 2 1 1 7-1 4h-3l-10 1-9 1zm-47 2v-7l1-7h8c2 0 4 0 6-3l10 15-4 1-2-2-4-5c-1-2-1-2-3-1l-3 2-1 3v1c0 2-1 2-3 2l-5 1zm28-348c0 5 2 8 7 9h1c2 0 2 1 2 2l-1 1h-7l-4-2-1-4v-1c-3-2 0-3 0-4l3-1zm-78-28c-3 2-20 3-22 2 4-4 18-6 22-2zM59 267l-2 1-6 1-2-1c-3 0-3-3-1-5h5l6 4zm36 135c1-4 12-9 17-9l-2 4-14 5h-1zM245 79c1-3 4-5 6-7l7-2h2c1 1 0 1-1 2l-6 4-8 3zm12 127h1l1 1-1 1-12 5-1-1v-2l4-2 8-2zM27 172h-2l-5-2-1-5 4-2 1 1 2 3 1 5zm20 85l-6 2c-2 1-3 0-3-2l1-3 2-2 4 2 2 3zm79 235l3-1 4-2 4 1 1 1 1-1 2-2 2 1c-3 4-12 6-17 3zM48 247c-3-4-4-9-3-14 2 2 4 8 3 14zm-22-63l-15 5c3-3 10-5 15-5zM5 205c1-4 4-7 7-9 1 2-1 4-2 5l-5 4z"/><path fill="#FBFBFB" d="M103 122l-4 7c0-2-2-3-3-4l3-1 4-2z"/><path fill="#FC2065" d="M59 257l-2-3 2-2 2 1 1 1-1 2-2 1z"/><path fill="#FBFBFB" d="M103 122v-4l2 2c-1 1-3 1-2 2z"/><path fill="#FC2065" d="M39 263h2l-1 1c-1 1-1 0-1-1zm25-1h-1 1z"/><path fill="#fff" d="M194 335h-1 1z"/><path fill="#FC2065" d="M401 122l-14 4v-3l-2-1-2-3c-3-6-6-11-7-18-1-3-2-6-1-9l-1-7 2-10a92 92 0 0 1 5-15l2-4 2-3v-2l1-3 7-9c4-4 9-6 15-8a48 48 0 0 1 34 2l3 2 3 3 2 1c4 0 6 3 9 5s4 5 6 9l4 18-1 7-2 4c-1 1-2 1-1 2l2 2v4l-4 10c-2 6-5 11-9 16a86 86 0 0 1-60 31l-19-1-12-5-15-9c-3-2-5-2-8-1l-9 4-7 3h-2c-5-2-8-6-11-10h1l7-2 6-4c3-2 6-2 9-1l6 1 2 1c7 7 16 11 26 12 11 2 22 0 32-4a84 84 0 0 0 35-29l3-4c3-4 4-8 5-13l2-6 1-1c1-1 2-2 0-4v-2l-7-13c-4-6-9-10-16-13-3-1-5 0-7 1-7 2-12 6-16 12-5 5-8 12-10 19v9c0 9 2 18 6 25l2 5 1 1 2 4zm11 274c0-2 2-3 3-3l3-3c2-1 3-4 3-7v-4c1-3-1-6-1-9l1-5 1-5 1-6 1-2 2-5 1-3 7-10 2-1 5-1c4 0 7-3 8-6l5-10 7-7h10c7-1 14-4 21-7l10-5 5-3c2-2 1-3-1-4l-2-1c-1 0-2-1-3 1h-1l-12 5h-1l-6-2-7-5-2-2-1-2c0-1-1-2-3-2l-9 2c-7 3-13 6-21 6-5 0-10-1-14-4-2-1-2-2 0-4h1l9-4 2-2 3-1 7 1c4 1 7 0 10-1l11-3c3-1 7-1 9 1l4 4 3 3 4 2c6 2 12 3 18 2l8-2 3 1 4 2 1 1c-1 2 0 4 1 6h-4c-4 0-5 1-5 5l1 4-1 3-9 8-15 4h-15c-3 1-6 1-8 3l-2 2c-2 5-3 9-3 14l-1 3-7 2-7 4-2 4c-3 6-4 14-6 21l-1 10-1 2c-3 0-5 2-6 4l-3 9c-1 2-1 2-3 2h-12zm-44 25l1-5v-2l1-9 2-1 20-1h69l13 1h5l16 1h6c2 0 2 0 2 3v10l1 6-2 1H381l-11 1c-1 0-2 0-2-2v-3zM534 158l2-5c2-3 5-6 9-8l1 1 3 5c1 4 0 7-3 9l-4 3h-3-1c-3 0-3-1-3-3l-1-2zM342 47c0-3 2-6 6-7l8 1 1 1c-3 5-7 7-11 10h-2l-2-5zm214 138c-5 0-9-3-12-6v-1l-1-2 1-1h7c3 1 8 5 9 9l-1 1h-3zM443 493h-21l-1-3c-1-2-1-2 1-2h6l10 1 5 3v1zM296 103l-3 1h-4c-2 0-3 0-4-2l-2-1c-4 0-8-1-12-4l-1-1c2-1 4-2 6-1l12 4c2 3 4 3 7 3l1 1zm116 388l-6 2h-16c-2 0-2-1-3-2l-2-1 3-1v2c1 1 2 2 3 1l1-1c2-3 5-3 8-3 4 0 7 0 11 2l1 1zM300 311c1-3 2-6 5-8l2-2h3v3l-2 3-3 5-1 1c0 1-1 2-3 1l-1-3zm63 177c-3 3-12 5-16 3-1-1 0-1 1-1l1-2c0-2 2-2 4-2l7-1 3 3zM486 22l-7 4c-5 3-6 2-11 1l1-1 10-5h5l2 1zM376 377l2-3c1 0 2 0 1-2h1c2 1 3 0 4-1l5-2 2 1c1 1 0 2-1 2l-7 5-4 1-3-1zm123 115h-4l-15-1h-5l-2-1 5-2 15 1c3 0 4 1 6 3zm-16-103c-2 1-3 0-4-2l-1-4 1-1h5l3 2 1 3-1 2h-4zm57-108h1l6-5 5-2c2 0 2 0 2 2l-1 2-8 4c-2 1-3 0-5-1zm-160 61c4-4 8-4 12-4l3 1c1 0 2 1 2 3-5 1-11 2-17 0zm4 141c-5 1-10 2-15 0l2-2 10-2 2 1 1 3zm-56-160v-11l1-1 1-1 1-1h2v1l-1 7-4 6zm-6 171l2-2 8-1h3l4 2v1h-17zM493 88l7-2 4 1 1 2c-2 2-6 4-8 3l-4-4zm-98 228c-3-2-3-4-2-7 1-2 3-3 7-3l-5 10zm118 160l-5 4-6 2c-2 0-3 1-3 3l-2-1 1-3h1c4-3 8-5 13-5h1zM306 190c4-5 10-8 16-9-1 4-11 9-16 9zm171 175c3-4 8-6 12-8-1 5-7 9-12 8zM300 89c3 4 4 10 1 15-1-4-2-8-1-12v-3zm35 98l-5 14c-2-5 1-13 5-14zm-61-56c0-1 0-3 2-4l3-3 1-2 2 1v1l-6 7h-2zm60 44c-3 0-4-2-5-4v-3c0-2 1-2 2-1 2 0 3 2 3 4v4zm13 26c-3-2-4-5-4-9l4 1 1 1-1 7zm-31 89l-7 5h-1l-1-1 4-4h5zm67 205h-16c3-2 12-2 16 0zm155-320l-3-1-2-3 3-2c1 1 2 1 2 3v3zM330 92l4 6v1h-2l-2-4v-3zm31 97c-2 1-4 0-6-1l6 1zm129-99l-1 1v-1h1zm3 392l-1 1v-1h1z"/><path fill="#fff" d="M466 296l1 1h-1v-1z"/><path fill="#050302" d="M462 433zM139 79h-1c-2 1-3 0-4-1l-3-1-2 1c-2 2-3 3-2 6l5 9c1 2 2 3 4 3l2-4 2-2c2-2 3-2 5 0v5c1 3-1 5-3 7l-9 3c-3 0-5-1-6-3l-4-2-5-10c-2-4-3-8-2-13 1-3 3-6 6-7l3-2c3-1 9 0 11 4l1 1 1 2c2 1 2 2 1 4z"/><path fill="#FC2065" d="M178 9l-6 7-8 4-2-1v-1l1-2c-1-1 0-1 1-2l9-4 5-1zm-24 6l1 3-1 1-1-1v-2l1-1zM81 58l1-2a26 26 0 0 1 12-10c2-1 4-2 6-1l3 2c-2 2-18 11-22 11zm205 436h-18l2-2c3-1 6-2 10-1 3 0 4 1 5 3zm320-1c5-2 14-2 17 0-4 1-7 2-10 1l-7-1zm-45 0l13-1-13 1zm-501 0l-3 2-3 1h-9-1l-2-1 2-1 3-2 3-1 7 1 3 1z"/><path fill="#030303" d="M196 206c0 5-1 9-3 13l-8 17-4 6-7 7-9 5-5 1-6-1c-3 0-6 1-9-1l-3-2-4-9v-2-4c0-3 1-5 3-7l8-15 11-14c4-5 8-9 14-11l9-2c7 1 9 2 11 10l1 4 1 5zm-50 25l1 1 17-2h13c2 0 2 0 2-2l-1-13v-3l-1-14-1-2-7 6-15 18-5 8-3 3zm38-7l1-3 2-5c3-5 2-10 2-15l-1-3c-1-2-2-3-4-3l-2 1 1 9 1 17v2z"/><path fill="#050302" d="M117 302l-2 7-3 1h-4c-3-1-6-3-7-6s-2-7-1-10l1-2 4-1c4-2 9 0 10 5l2 6zm-6 2v-3l-2-4-1-1v6c1 1 1 2 3 2zm63-248l-2-1-1-3v-3l13-10c2-1 6 0 7 2 1 1 0 3-1 3-3 0-5 2-7 4l-5 4-2 2-2 2zm-20 96c0 2-2 5-4 5h-3l-24-13-11-6h-2l-2-3 1-4 3-2c4 1 8 2 12 6l5 3 10 6 8 5h3c2-1 4 0 4 3zm-5 28l-1 2c-2 0-4-1-4-3l3-2c2 0 2 1 2 3z"/><path fill="#FBFBFB" d="M146 231l3-3 5-8c5-6 9-12 15-17l7-7 1 2 1 14v3l1 13c0 2 0 2-2 2h-13l-17 2-1-1z"/><path fill="#FC2065" d="M184 224v-2l-1-17-1-9 2-1c2 0 3 1 4 3l1 3c0 5 1 10-2 15l-2 5-1 3z"/><path fill="#FBFBFB" d="M111 304c-2 0-2-1-3-2v-5-1l1 1 2 4v3z"/></g><path class="frame--3" fill-rule="evenodd" clip-rule="evenodd" fill="#050302" d="M179 80l5-3 1 1 8 6 3 1c5 1 9-2 9-7l-1-10 1-3 2-2 2 5 1 9c0 7-3 12-10 13a16 16 0 0 1-18-7l-3-4z"/><g class="frame--2" fill-rule="evenodd" clip-rule="evenodd"><path fill="#050302" d="M198 62c4 0 8 1 11 5l1 2v9c0 5-3 11-9 12-7 2-12 0-17-3l-2-1-3-5-3-7v-1l6-6 6-3 10-2zm7 15v-3c0-2-1-2-2-3-2-2-5-2-7-3h-1l-6 2-5 3v2l8 9c2 1 5 2 8 1 2 0 3-2 4-4l1-4z"/><path fill="#FBFBFB" d="M205 77l-1 4c-1 2-2 4-4 4-3 1-6 0-8-1l-8-9v-2l5-3 6-2h1c2 1 5 1 7 3 1 1 2 1 2 3v3zm-1-2c0-2-1-3-2-3-2 0-3 1-3 3s1 3 2 3c2 0 3-1 3-3z"/><path fill="#050302" d="M204 75c0 2-1 3-3 3-1 0-2-1-2-3s1-3 3-3c1 0 2 1 2 3z"/></g><g class="frame--1 frame--4 frame--5" fill-rule="evenodd" clip-rule="evenodd"><path fill="#050302" d="M210 76c1 3 0 6-1 8-3 5-7 6-12 7-7 1-12-3-16-8l-5-12c-1-4-1-7 2-10l8-7 4-1 5 1 3 2 6 1 1 1 2 4 3 9v5zm-5 1v-2l-2-7-3-6c-1-1-1-2-2-1h-1l-3-1h-7c-5 2-6 7-5 12 2 4 5 8 9 11 2 2 6 3 9 2 2 0 3-2 4-3l1-5z"/><path fill="#FBFBFB" d="M205 77l-1 5c-1 1-2 3-4 3-4 1-7 0-9-2-4-3-7-7-9-11-1-5 0-10 5-12h7l3 1h1c1-1 1 0 2 1l3 6 2 7v2zm-1-2c0-2-1-3-2-3-3 0-3 0-3 3-1 2 1 3 3 3 1 0 2-1 2-3z"/><path fill="#050302" d="M204 75c0 2-1 3-2 3-2 0-4-1-3-3 0-3 0-3 3-3 1 0 2 1 2 3z"/></g></svg>