<svg xmlns="http://www.w3.org/2000/svg" viewBox="0 0 657 469"><g class="frame--1" fill-rule="evenodd" clip-rule="evenodd"><path fill="#040302" d="M270 284l1 4-1 2-15 9-13 6-8 3-7 3-7 2-4 3c-2 1-3 2-2 4v1c0 3-1 6-4 8l-11 8h-5a46 46 0 0 1-12-10v1l5 10 6 9 4 6 5 11-2 1c-3-1-4 1-4 3l-4 7-7 13-7 14-7 13-6 10-5 9-3 4-2 3c0 1-1 2-2 0l-1 1v1l2 1 8-2 9-2h5l5 2 1 1 2 9-1 7s-1 1 1 2h-5l-4 1h-34l-1-1 1-2h-3l-3-2v3l-1 2-8 1h-9c-3 1-6 0-8-1l-1-2v-2-5c0-3 0-5 2-7s1-2 0-3l-2-1c-3-1-4-3-3-6l2-5 4-4 1-2 33-59v-3l-14-22h-1v1c-1 2-2 4-1 7l-1 1-2 7-2 6-1 6-2 5-1 9-2 9h-4l2 4c0 1 0 2-2 2l-7 3-14 5-3 1-4 1-4 1-22 9-9 3-4 1-3 1-1 1 4 12 2-1c5-2 9-2 14-1s9 5 12 9c3 3 3 7 3 11v5c1 1 1 2-1 2H59l-16 1-8 1h-2c-3 0-3-1-3-4v-2c-2-2-2-5-3-8l-5-14-1-1h-4l-4-3c-2-6-5-12-5-18v-2l1-1 5-2 7-5c1 0 2-1 1-2l-3-5-1-6 2-2h3l8-4 16-6 17-7 13-4c1-1 2-1 2-3l1-6 2-10 5-23 3-18v-3c-3-5-4-11-5-17l1-9 1-3v-1-4l-1-4-1-3v-2l-1-1c-2-1-1-2-1-3l1-11v-4c2-7 3-14 6-20a84 84 0 0 1 33-40c7-5 15-8 24-9h2c1 0 2 0 3-2l4-3 9-6 4-2c-2-7-1-15 0-22v-6l2-5c4-11 12-20 21-26 3-3 6-5 10-6l1-1c1-3 2-4 5-4h2l1-1c1-4 1-4 6-4 4 0 8 1 13 4 5 2 10 5 14 9l4 3v-2l-3-9c-2-2-2-4-1-7 1-1 3-2 4 0 2 4 6 6 9 10l8 8 2 2c1-3 0-7-1-10h6l1 1 1 4v21 2l7 6 1 3 5 8 5 13c0 1-1 2 1 2v11l-1 10 1 2 8 4 11 11v8c-2 1-4 2-6 1h-5l-1-1-4-1-14-4c-2 0-2 1-2 2l-4 7-8 8-16 10a111 111 0 0 1-20 5l3 3c2-1 4 1 6 1h4l10-5 3-2 1-1 4-2c4-3 8-5 11-9 5-3 8-7 12-11 2-2 2-2 5-1l1 3v3l-2 4-9 12c-5 5-10 8-16 11l-11 6c-2 2-4 2-7 3l-12-3-2-1-7-6-2-2c0-2-1-2-3-2l-5-1h-4c-2 1-1 3-2 5a451 451 0 0 1-3 7l1 12c0 2 0 5-2 8v1l6 7 3-2 4-1 9-4 23-8 12-5 2-1 2 2h5l11-4 7-1 2-5c4-5 9-9 15-12h2c4-1 8 2 8 6l1 2 2 1 4-2 3-1-1-1c-2 0-3-2-3-4s0-4 2-6c1-1 3-3 3-5h-1c-4 0-7-2-10-4l-4-3-4-3 1-3c0-2 1-2 2-1l4 2c3 3 7 4 11 5l3-1c-2-3-4-6-3-10l-4-1-1-1-1-3c-1-6-4-10-9-12-2-1-3-2-3-4-1-1 0-2 1-2h1l3 1c2 0 3 1 5 3 4 2 6 6 8 11l1 6h1c2-2 3-2 4 1l2 2 15 9a263 263 0 0 0 47 18l3 1 6-6c-2-2-3-2-5 0-1 2-2 3-4 2-4-1-8-1-12-4l-8-3-10-4-2-5v-1l1-4c0-2 1-3 3-2h3l7-2c3-1 5-1 7-3l5-5c2 0 2-2 3-3 3-4 4-8 5-13 2-5 1-9 0-14-2-6-6-10-10-14l-10-8c-7-5-15-7-23-9l-10-1h-13a35 35 0 0 0-23 14v2l2 5v11l-3 10-2 3-3-1-2-3 1-5 3-9v-3l-3 3-1 2c1 1 0 2-1 3v1l-1 5v4c1 2 0 2-1 2l-3-2-1-1-1-3c0-3 0-6 2-8l1-4c-1-3 0-5 1-8l1-3c0-4 2-7 5-10 6-6 13-11 21-13l5-1 1-2-2-1-3-4v-7-2c-3-4-3-9 0-13l5-5 1-2c0-3 1-5 3-7l1-3c-2-3-2-6-1-10l2-7c1-4 5-5 8-4l2 1 1 5 1 7-3 7 4 3h9c2 1 5 1 7 3l3 1c4-1 8-1 12 1l4 3 2 1 3 1 11 1 2-1c0-2 1-2 3-3h5v-2l-2-4-2-2v-7l1-9 1-8v-2l-1-2 2-5v-2h-1l-12-1-5-2v-3l6-7c5-3 10-3 15-2l1 1v-2c0-4 1-8 3-11 1-3 4-4 7-4 2 1 3 1 3 3l1 4v3l10-8h1c3 0 6-2 8-3 3-2 7-2 11-2l5-2c5-2 10-3 15-1l2 1 5 1c7 0 13 3 18 8l1 2c1 2 2 3 5 4l1-6 6-7c3-2 8-1 10 3 2 3 2 6-1 10l-5 4-2 1v2c2 2 3 4 3 7l1 1 2 5v9l2 4 1 3 1 2 5 7v7l-2 3-2 3-1 3v8l-1 3-7 6-1 2v3c0 3-1 6-3 8l-8 6-1 2c2 5-1 9-5 11l-1 1 1 1 3 6 2 2c3 1 6 4 7 8v4c2 0 4-2 5-3h4c3 2 5 2 7 0s3-2 5-1 4 0 6-1l2-1h7c2-2 4-2 7-1l2-1 5-1c2 0 5-2 4-5 0-4 1-8 3-11l5-4c2-1 5 0 6 3l-1 3 2-1c4-2 8-1 11 2 2 1 3 4 1 6-1 3-4 5-7 6l-3 1 3 5c2 4 2 8 0 12v2l3 6-1 2v4l2 8-1 3-3 6-3 3-3 2-7-1c-2-1-3 0-4 1l-1 4-2 2-2 2-2 1h-5l-4-3v-1l-4 1h-6l-7 2h-2c-2 3-5 2-7 2h-2c-2 1-2 1-2 3l-1 7c-2 2-2 5-2 8l-1 2v4h1l13 3 14 4 4-1c3-2 8 0 9 3 1 2 4 3 5 2l8-1 1-1 4-3h3l6 1 6-1c1 1 2 0 2-1l6-9c3-2 6-4 9-4s6 1 8 5c1 3 1 6-1 8l-1 1 1 2 4 2c2 2 3 7 0 9l-1 1-7 2-4-1h-2v3l1 1a107 107 0 0 1 23 12l2 2v1c0 3 1 5-1 7h-3c-1-1-3-2-5-1v-1-1l-4-1h-12l-1 3-1 4v2l7 2 13 5 2 2v4l-3 4-4 2c-2 2-5 2-8 2l-14 1-16-2-8-1-2 1c-4 3-8 3-12 0l-2 1-1 1c-1 2-3 3-5 2l-7-2c-3 0-4 0-5 2-2 3-4 4-6 4s-2 1-3 2l-4 8-3 5v1c-1 1 0 1 1 1l4 1c3 0 5 4 4 7l-4 5-6 2-5-1-2 1-4 2 4 3 4 1c3 0 6 2 7 6 0 2 0 5 2 7l-1 1c0 2-1 3-4 4-4 1-7 0-10-4-2-4-4-8-4-13l-2-2c-3 0-4-1-5-2-4-3-8-4-12-5h-1v3c3 4 4 8 5 13l-1 2-1 4-3 7-1 2v2l-2 1 2-1c-1 1 0 1 1 1l8 1h27l11 1 5-1 2 1 2 3v26c0 2-1 4-4 4h-3v4l-1 6-1 6v4l-2 13-1 9 5-1c5-1 10 0 14 4 5 3 5 7 3 12l-1 1c-3 1-5 2-7 0h-14l-3-1h-5l-4 1-9-1c-1-1-3-2-4-1v1l-1 2-1 1v-1l-2-2v-1 1l-1 2-1 1c0 2-1 1-2 1l-4 1-1 1h-8l-5-2c-2-1-4-3-4-5 1-6 5-8 8-9h11l9 3 2 1 14-1 2-2 1-14 1-21 1-12-2-2h-55l-4 1-3-1-8 1h-30c-2 0-2 1-2 2l1 11 2 21 2 18 2 1h8l27-1h7l3 1 2 3-1 4h-42l-7-1-4-1c-1 2-2 1-2 1h-12l-7 1-11 2c-4 0-7-1-10-4-2-3-1-7 1-9l7-3 11-1 4 1h2c4-2 8-3 13-3v-2l-4-29-1-9c0-1 0-2-2-3h-3c-2-1-3-3-3-5v-5-19c0-1 0-3 2-4l1-2h42l1-1 1-3c0-3 2-5 3-8l3-3c2-3 2-6 2-10l-3-12-2-1c-1-1-2 0-2 1l-7 8-2 2-4 8-4 4-4 2h-1c-3 1-5 0-6-2-2-5-3-9 0-13 3-3 7-6 12-5l3 1 4-2 3-5-1-2-2-2h-4l-8 4-7 1c-4 0-7-1-9-4-1-2-3-4-1-6l1-2c9-3 17-3 25 2l8 4 6 1 2-1 2-6 1-3 3-2 4-1 15-10 3-5-1-3-4-5-4 5-2 2c-3 2-5 1-7 0l-2-1-3 2v1l-9 6c-2 1-4 1-7-1-2-2-2-2-6 0l-5 3c-3 3-7 3-10 1l-7-5-1-2-2 4-4 2-3-3h-2c-2 2-4 1-6 0-3-1-6-4-8-7l-2-1v2c-1 2-2 3-4 2h-2c-1 0-2 0-2 2l-1 2c-3 3-7 6-12 8l-9 3-13 1c-11 0-22-1-33-4l-18-10-5-4-1-1v-2c-6 1-9-1-13-4-2-2-5-4-5-7h-1l-4-3-1-5a124 124 0 0 1-3-24c-1-2-1-3-3-2l-8 5-20 8-16 5-2 2c-1 1-1 2-3 2h-2c-2 2-6 1-9-1l-9-13-11-23c-4-7-7-15-9-23 0-1 1-3 3-3h2c3 0 5 1 6 4l2 5 2 5c1-3 4-4 6-5 2-2 2-2 1-4l-8-11-17-27-4-6-1-1-4 4c-1 1 0 3-2 3l-1 3c-1 2-1 2-3 1s-4-2-6-1l-15 5-15 10-3 4s-1 0 0 0l-1 1h-1l-7 8v1l-5 6-8 17-2 10-2 15c0 2 0 2 2 2l12-1h25c3 0 5 0 7 2l1 1h3c2 0 2 1 3 2l6 7 1-1 7-7v-2l-4-10c-3-5-5-10-6-16v-3h3l5 5 12 23 7 14c4 8 9 16 15 23l8 7 3 1 3 1h3l10-4 10-4 9-4c3 0 5-2 7-3s2-1 2-3v-1l-1-6v-4l1-1 2 1c1 2 3 3 3 6l1 4h2l10-5c4-1 3-1 6 2zm315-18h-2 2v2l1 3 1 1 8 2c3 0 5-1 7 2 2-2 2-4 2-5 0-2 0-3-2-3h-7-1l-9-2zm-16-5h9l5 1 10 1 10 1 5 1h7l-1-1-6-2c-1 0-1-2-2-1l-4-1-6-3-11-3-1-1h-3c0-2-1-1-2-1l-9-2-2-1-3-1c-1-2-1 1-2 0h-1l-12-4h-3l-2-1-6-1-4-1h-3c-4-2-8-3-13-3v3c-3 4-9 5-12 1l-2-2-3-5-2-1-5-1-5-1-3-1-6-1h-3l-5-1-9-1-9-2-16-2-17-1-7-1-2 1c0 3-2 4-3 6l-4 5-1 1-7 1c-6 2-12 2-18 2-6 1-12 2-18 1l-15-1c-6-1-12 0-17 1-5 0-9 2-13 5h-1l5 4h1l5-4c6-2 11-3 18-3h5a43 43 0 0 1 31 25l1 1 7-3c-2-6-6-10-12-13l-2-1-2-2-1-2v-2l1-1 2 1 3 1h6l21 1 25 2 14 2 18 1 15 1 9 1 18 1 3 1 10 1 8 1 3-1 14 2 14 1 7 1-1 1h7v0zM256 116h-17l-2 2 4 6c2 2 2 3 1 5l-2 2c-6 4-10 9-13 15l-4 6c-1 2-2 2-2 1l-2-2c-2-1-2-1-1-3 0-2 0-2-2-2-2-1-3-1-4-4l-3-1-3 3-4 11 1 5 2 4h3l3-3c2-2 4-2 7-2l-2 4-1 1-4 4c-1 3-3 3-6 2s-6-1-8-5h-1l-4 1a903 903 0 0 1-13 6l3 6 9 13 11 18 4 6 1 1 3 1 7 2 8 1c8 0 16-2 23-5l5-3h-1l-10-9h-2l-7 2h-11l-5-3-1-4c-1-3 1-6 3-8l8-6c2-1 3-3 2-6 0-3 0-5 2-8l4-1 1 4v1l-1 2c1 7 4 13 8 18l7 7c2 2 4 5 7 6h4a51 51 0 0 0 12-14v-4l1-2c1-2 2-2 4-2l11 5 15 3h3l-2-2c-6-5-13-9-22-11l-4-1c-2-1-3-2-2-4l2-3h1l4 1c2 0 2 0 2-2l-1-11c0-8-2-16-7-23-3-6-6-10-11-14l-5-6c1-2 2-3 5-3l-2-3-8-10h-3v5l1 3c3 3 4 3 1 7zm213 101l1 1 12 2 16 2 14 3c2 1 2 0 2-1v-3l1-6 1-3v-5l1-1c2-1 2-1 1-2v-3c-1-2-2-4-1-6 0-3 1-4 4-2 2 2 2 2 3-1h2l3 1c2 0 2 0 3-2 1-1 1-2 2 0l3 1c3-1 5-1 7-4h2c3 2 5 1 7-1l2-4h1l2 2 4-7c2-2 3-4 6-4l3-1c4-1 8 3 7 6l-1 4c-1 1 0 2 1 2h4l1-1 2-8v-3c-1-3-2-6 0-9l-1-2c-2-3-3-6-1-9l1-2c2-2 1-4-1-4l-2-1c-1-3-4-3-6-3s-4 1-4 3l-1 1c-1 2-1 2-3 1-1-1-2-1-3 1-2 2-2 2-4 1h-1c-3-1-3-1-5 2-2 2-3 2-4 0-2-2-3-2-4 0l-3 2h-4c-2-2-4-1-7 1-3 3-4 4-8 0-1-2-1-2-2 0l-4 2c-2 1-3 1-5-1l-3-2c-2-3-4-6-3-9 1-2 0-3-2-3h-3c-3-2-5-4-5-8 0-2-1-3-3-3l-2-2c-3-1-4-4-4-6 0-3 0-3 2-3 2 1 2 1 3-1 0-2 0-2 3-2h4v-3l-2-4c-1-2 0-3 2-2l3-1 6-5c2-1 3-3 4-6l-1-3v-3l3-2c4-2 7-6 7-11l-1-5v-3l3-3c2-4 1-7-1-10l-1-1-1-4v-1l-1-2c-1-3-2-7-1-10 1-1 0-3-2-4l-1-1-1-4-2-4c-4-2-7-5-11-6l-1-1c-4-4-8-7-14-6-3 0-5-1-8-3-1-2-4-2-6-2-3-1-5 0-7 2l-4 1c-3-1-6 0-9 1l-1 1-3 1-8 2-9 7-2 1c0 1-1 2-2 1l-2 1-2 4c-3 1-3 4-4 6l-2 2-3 5 2 1 1 3-2 2-1 2v7l1 1c1 2 1 4-1 5l-2 1v7l2 1c2 0 2 1 1 3l-1 2 2 7c2 3 3 6 6 7h1l1 4c-1 1-2 2-3 1l-2 1h-3c-2-1-3-3-3-5l-1-2-3 1c-2 0-2 1-3 2s-1 2-3 1c-2-2-5-2-8-1-2 1-4 0-6-1-2-2-3-2-5-2-4 0-6-1-8-4l-3-1-6 1c-2 1-4 0-6-1-1-1-2-1-2-3l-3-1-5-1c-2 1-4 0-6-1h-2c-2 1-3 3-2 5l1 3-4 4c-2 0-3 1-4 3-2 2-2 3 1 5l2 2-2 6c-1 2-1 3 1 3h1c2 1 3 1 3 3l-1 3 11 1c3 0 5-1 7 1l1 1c5 1 10 2 14 5h6c3 0 5 0 6 3s3 4 6 3h2l8-1c3 0 4 1 5 4 1 2 1 2 2 1l4-1c3-2 6-2 9-2l3 1 1 2c0 2 2 3 4 2l2-1c1-2 3-2 4-2h2c1-2 2-1 4 0l5 7v4l2 2 1 2 8 5c-2 1-2 2-2 3 0 2 1 2 2 3 2 2 3 5 2 7l-2 1-3-2-3-2-10 1c-1 1-2 1-2 3 2-1 4 1 6 3 1 1 1 5-1 5l-3 2-1-1v-2c0-2 0-2-3-3-1 0-2-1-1-2v-3l-9-3c-2 0-4 0-5 3-1 2-2 2-3 0-3-3-6-5-10-5h-2l-1 1v7l1 3c1 1 2 2 1 4v3l-2 2c-1 1-3 1-3 3l-4 9c-1 1 0 2 1 2 3-1 5-1 6-3h4l1 1c4 2 7 2 11 0 2-1 4-1 5 1l2 1h5l4-2h4l2 2 4 1 4-2c1-2 1-2 3-1l2 1 4 1c1 0 2 0 2-2s1-2 2-2h1l3 1 4 4v3l-3 1c4 6 2 12-1 17zm75 76l-15-4-11-3-10-3-15-5-8-2-13-4h-3c-2 1-3 0-5-1l-2-1-1-1c-3 1-4 0-6-1-2-3-5-3-8-4v5l-1 3-2-2h-4l-2 3-1 4-2-2c-2-3-5-3-8-3-2 0-4 1-4 3l-2 4 2 1 2 5-2 2v1l-2-1-2-3-1-2c0-2 1-3 3-3l-4-7-3-1c-3 0-5 1-6 4l-1 2-5-8c0-2-1-5-3-6-2-2-2-3-1-5l5-1v-2l-1-1-11-1 2 4 3 6 2 5c3 2 2 5 2 8v2l-1 2-1 2c-2 0-2 2-3 3l-1 6-2 3h1l1-1 1-1 2 1 4 4 2 2h5l2-2c0-3 1-5 4-7l4 1 5 5 1 1 2 3c0 2 0 2 2 2h2l11-4c2-2 4-1 6 0l2 1h3l9-4-1-1c-1-2-1-4 1-6h3l1 2c2 2 3 2 5 2 3-1 5-2 6-4l2-4c-1-2 0-3 2-4 1-2 4-1 5 1l2 6c1 5 2 4 5 2 3-1 5 0 7 1l3 1 1 2c0 3 1 4 4 4l4-1 6-3h5c2 1 5 2 6 5 2 2 4 2 6 1 4-1 6-4 10-6zm-24 103h18c2 0 2 0 2-2v-3l1-11-1-1-6-1h-20l-7 1-1-1h-1-1-14-2c-1 1 0-1-1-1l-2 1h-3l-1-1-5 1h-14l-7-1-17 1h-17c-2 0-2 0-2 2l-1 11v4c0 2 0 2 2 2l8-1h92zM367 294l1 1 2-3v-4c-2-1-3-4-4-6l-1-1-4-4c-2-2-2-3-2-5 0-4 1-6 3-8v-4l-2-4v-2l-9-2-10-1c-4 0-7 0-10 3h-1l-3 1h-2c-2 0-2 1-3 2 0 2-2 4-4 5l-1 2c0 2 0 3-2 5l-1 4c0 3 0 5-3 7l-1 2 1 5 1 1c2 0 3 2 5 3 5 4 10 7 17 8 6 2 13 1 20 0l12-4 1-1zM219 144v-1c4-6 7-12 13-17v-2l-2-4c-1-1-1-2-2-1l-3 1-2-6 1-2 3-1c5-2 11-3 17-3l2-1c-2-3-5-4-8-6-1 0-2 2-3 1-1 1-2 2-4 1l-4-3-3-1-3 1v4c-1 4-7 6-11 4l-4-5c-5 2-9 4-13 8l-10 11-4 7c-2 5-3 9-3 14-1 6-1 12 1 18 0 2 0 2 2 1l10-3 5-1v-1c0-7 3-13 7-19l4-2 3-1 4-1 5 4 2 6zm265 117h2v-1c-2-1-4-1-5 1h-11l7 2a1816 1816 0 0 0 58 18l15 4a672 672 0 0 0 38 6l17 2 13-1-4-1a295 295 0 0 0-39-13l-18-6-18-5-13-4h-1c0-2-3-1-4-3h-3l-3 1h-5l-1-1h-9c1 0 2 1 0 1h-8-1 1l4 1v1h-1l-9-1-2-1zm-18 109v1h16l1-1 4-3c3-4 5-8 3-13v-1c-1-6-2-11-5-16-1-2-1-5 1-6l5-3c6-2 12-5 16-10 2-4 5-7 5-12l-1-2c-3 1-5 0-7-1l-5-5-1-1c-2 0-3 1-2 3v7l-6 7-8 4-9 5-1 2c0 1-1 3 1 5v1l-1 2 1 9 1 3v1l-1 1 1 4v1c1 3 0 7-1 10l-1 1-1 1-2 2v2l-3 2zM317 252c-5 0-9 0-13 2-1 1-1 2-2 1l-3 1h-2c-1 0-2-2-2-5l2-1 2-2 1-2 7-7c3-1 4-4 5-7l-1 1c-6 2-10 5-14 9-2 1-2 4-3 6-1 0 0 0 0 0 0 1-1 2-2 1l-2 1-7 2-6 3c-1 1-2 2-1 3l1 10a691 691 0 0 0 3 17l3 1c6 4 12 3 18 0v-1l-5 1-2-1v-2l1-2 6-2 6-3h-2l-5 1c-2 1-4 0-5-1v-4h5l8-4 2-2-6 1c-1 0-1 1-2-1l-1-1-1-2 1-3 2-1 12-5 2-2zm144-36v-1l1-3 2-1v-1c2-1 2-3 2-6h-1c-3 1-5 0-7-2h-3c-3 4-7 5-10 1-2-2-2-2-4 0h-1c-5 3-7 3-11-1h-4c-4 3-8 3-12-1h-1-2l-4 2c-3 1-6 1-8-1-1-2-3-2-4-1-3 0-5 1-6 3h-2l-6 3 6 2 10 3 2-1c2-2 5-3 8-1h3l1-1 4 2 1 1h10l36 4zM71 448l-2-5c-3-1-6-2-9-1-4 1-8 4-11 6l-2 1c-2 0-4-1-5-3l-2-7v-2l-3-8c0-2 0-4-3-5l-5-8-2-4c-1-2-1-2-2-1l-8 4-1 3 2 6c1 2 1 2 3 1 3-1 5 0 7 1l1 2-1 2v2l3 7 4 13 2 2 5 1 3 1 17-1h7l1-1 1-6zm227-153l10 7c6 4 13 7 20 8l25 1c6 0 13-1 19-5l8-5 1-2 3-5 5-12c0-2 0-2-2-2l-3 1c-2-1-2 0-2 1l-1 5c-1 3-2 7-5 9l-2 2c-1 2-2 2-3 2l-3 1-7 4-4 2h-19c-7-1-14-4-21-8-4-2-7-5-10-9-3 3-6 4-9 5zm149-140l-1-1-6-9-1-3c1-1 0-1-1-2l-2 1-2 1c-4 2-7 3-11 1l-5-3-2-1-3 2-6 2-7-4c-2-2-2-2-6-1h-1l1 2c4 3 6 7 9 11l1 1h7l7 4h2l6-2c3 0 7 1 10 3h1c3-2 5-2 8-2h2zM163 269l-6 9v2l5 7c2 2 3 5 3 8v3l10 17 4 7v-5c1-5 2-10 1-16v-2c-6-8-10-16-14-24l-3-6zm-21 188c1-1 2-2 4-1h8l16-1h4l1-2v-3c0-3 0-3-2-3l-7 2c-8 2-15 3-23 0l-4-2-19-3h-6l1 4 1 1v6l2 1h9c2 0 2 0 3-2l1-2 4-2 2 1 3 3c1 1 2 1 2 3zm227-227l-1-3c1-2 0-2-1-3l-16-6-9-4h-2l-7 1 1 2c2 2 2 4 1 6l-3 5-2 3 8-1h31zm72 32l-3-1h-1v-1-1l-1-1-3-1h-4c-2-1 0-1-1-2l-2 1-1-1-2 1h-1l1-1h-8c-2 0-2 1-3 2l-1 2c-2 1-2 3-2 5l5 1 4 3h1c2-4 5-5 9-4l6 3 7-5zm-254 44a3324 3324 0 0 0-1 16l9 7h3l8-5 1-4-1-1c-5 0-9-2-12-6l-7-7zm307 27l13 4 3 1 4-2 1-1 2-4 1-2-5-2c-2-1-1-3-2-5h-1l-8 7-5 2-3 2zM237 197l-5-9-4 3-5 4c-2 2-1 3 0 3 5 2 10 2 14-1zm368 46h-4c-2 1-2 0-3-1l-1-2v-1l-2 1c-1 2-1 2-3 1s-2-1-3 1l-1 2-3-3h-1v1l2 2 15 5h1l3-6zm-239 20v5l-2 3 1 1c3 2 6 4 10 2h1l-3-9-1-1c-2 1-4-1-6-1zm41-228l3-1h3l2-1c0-2-1-4-3-4l-4-1c-3 0-6 1-7 4-1 1-1 2 1 2l5 1zm27 319c2-1 8-8 8-10 1-1 0-2-1-2h-1c-3 2-5 3-6 6v6zm6-29l-7-2-6 3v2l3 1 10-4zm89-20c-4 1-5 4-7 7l-3 7v2c4-5 8-10 10-16zm63-176h-4l-3 1-5 6c4 0 10-3 12-7zm-56 327l3 1h15c-3-2-7-3-10-3l-2 1h-1l-5 1zm26-262c4-3 10-13 10-16l-4 4c-3 3-4 8-6 11v1zm4 71l2 2 12 3 1-1-1-2-1-1-10-1h-3zm-365-16v-9c-1-3-1-3-4-3l-2 1 6 11zm415-23h-4l-8 7v2l12-9zM343 68V55c-3 4-3 10 0 13zm67 390h12l1-1c0-1 0-2-2-2-4 0-7 1-11 3zm-13-186c-2-2-5-1-7-1l-6 2-1 1c5 1 9 0 14-2zm115-34l-1-6c0-1-1-2-2-1-1 0-2 1-1 2l2 6 2 1v-2zM214 103l-1-6-2-2-1 2 2 7 2 1v-2zm205-78l2-3 1-9-1-1c-3 4-3 8-2 13zm105 329l-1-3-2-2-1 2c0 3 1 5 3 7l1 1v-1-4zM521 9a21 21 0 0 0-8 9l1 1 2-3 4-3 1-4zm2 325c4 1 6-1 7-5l-1-1h-1c-2 2-4 3-5 6zm1-33l-1-3h-1l-3 3-1 5c2-3 4-4 6-5zm-148-23l-4 2-1 1v2h3l1-1 1-4zm130 184c-5-3-10-1-15-1l15 1zM195 232l3 1 2-1 2-5-7 5zm219 70l4-4 1-2-2 1-2 1c-1 1-2 2-1 4zm198-62h8-8zM403 459l-10 1 10-1zm-22-228h5c-1 0-3-3-5 0zm85 28h6-6zm97 6h2l-1-1h2c-1-1-2 0-3 1zm-12 29c1 2 1 1 3 1l-3-1zm43-30l2 1-2-1zm-219-37l-1 1h1l1-1h-1zm214 37h-1 1c0 1 0 0 0 0zm-30-1h-1 1zm-80-4h3-3zm-47-3h-2 2zm45 3h-1-1 2z"/><path fill="#fff" d="M121 196a72 72 0 0 1 30-15c2-1 4 0 7 1 2 1 2 1 2-2l1-2c2-1 2-2 2-3l4-4 1 1 4 6 17 27 8 11c1 2 1 2-1 4-2 1-5 2-6 5l-2-5-2-5c-1-3-3-4-6-4h-2c-2 0-3 1-3 3 2 8 5 16 9 23l11 23 10 13c2 2 6 3 8 1h2c2 0 3-1 3-2l2-2 16-5 20-8 8-5c2-1 2 0 3 1v5c1 7 1 14 3 20l1 5-1 1v-1c-3-3-2-2-6-1l-10 5h-2l-1-4c0-3-2-4-3-6l-2-1-1 1v4l1 5v2c0 2 0 2-2 3l-7 3-2-1-7 5-10 4-10 4h-3l-3-1-3-1-8-7c-6-7-11-15-15-23l-7-14-12-23-5-5h-3v3c1 5 3 11 6 16l4 10v2l-7 7-1 1-6-7c-1-1-1-2-3-2h-3l-1-1c-2-2-4-2-7-2h-25l-12 1c-2 0-2 0-2-3l2-14 2-10a147 147 0 0 1 13-23v-1h1l7-8 1-1c2-1 3-2 3-4zm135 80c0 2 1 3 3 4h1l1-5-2-2c-2 0-2 1-2 2l-1 1z"/><path fill="#FC2065" d="M480 462l-2-3-3-1h-7l-27 1h-8l-2-1-2-18-2-21-1-11c0-1 0-2 2-2h30l8-1 3 1 4-1h55l2 2-1 12-1 21-1 14-2 2-14 1-2-1-9-3h-11c-3 1-7 3-8 9h-1z"/><path fill="#fff" d="M307 225c-6 3-11 7-15 12l-2 5-7 1-11 4h-5l-2-2-2 1-12 5-23 8-9 4-4 1-3 2-6-7v-1c2-3 2-6 2-8l-1-12v-2l3-5h1c4-2 8-3 12-2h1l2 2 7 6 2 1 12 3c3-1 5-1 7-3l11-6c6-3 11-6 16-11l9-12 2-4v-3l-1-3 2-1h3l4 1 1 1 6 5h2l4 3 4 3c3 2 6 4 10 4h1c0 2-2 4-3 5-2 2-2 4-2 6s1 4 3 4l1 1-3 1-4 2-2-1-1-2c-1-4-4-7-8-6v-1l1-1c1-2 1-2-1-3l-3-3-7-6-2 2-1 1c-1 2-1 3 1 4l1 1 6 5 3 1zm14-7l-2-3h-2v2c-1 1 1 2 2 3 2 0 2 0 2-2zm-14-46l2-3 3-10v-11l-2-5v-2c3-4 6-7 11-9 4-3 8-4 12-5h13l10 1a60 60 0 0 1 33 17c4 4 8 8 10 14 1 5 2 9 0 14-1 5-2 9-5 13-1 1-1 3-3 3l-5 5c-2 2-4 2-7 3l-7 2h-3c-2-1-3 0-3 2l-1 4v1l2 5 10 4 8 3c4 3 8 3 12 5l4-2c2-3 3-3 5-1l-6 6-3-1-14-4a265 265 0 0 1-48-23l-2-2c-1-2-2-3-4-1h-1l-1-6c-2-5-4-9-8-11-2-2-3-3-5-3l-3-1-2-1-2-1zm42 17l2 3h11l2 1c5 2 10 2 14 0s7-5 9-8c3-5 6-11 6-17v-1-3l-2-5-1-4c-2 0-2-2-3-3l-1-2-12-12c-3-3-7-4-10-5l-12-3c-6-1-12-1-18 1l-13 8c-4 4-7 10-5 16l3 9-1 1c-2 0-2 2-2 3 0 3 1 5 3 8 2 1 4 3 7 2l1 2 2 4c1 3 4 4 7 4h3c2 3 4 3 7 3l3-2z"/><path fill="#040302" d="M250 434h4l4 3 1 1c3 1 3 3 3 6l-4 4-11 2h-10c-3 0-5 0-7-2s-2-7 0-9l8-3c4-2 7-2 12-2zm-13 10c7 0 13 0 20-2-4-2-7-2-11-1l-6 1c-1 0-2 0-3 2zm109 7l4 1 4 2 1 1c4 3 3 8 0 10-5 1-9 3-14 2l-6 1-5-1-3-1c-4-2-3-7 0-10 4-2 8-4 12-4l7-1zm-13 10c6 1 17 0 20-2-2-1-3-2-5-1h-8l-5 2-2 1zM164 95c-6-1-8-4-9-7 0-2 0-4 2-6l1-2c1-4 3-7 6-10 1-2 3-4 6-4h6c3 2 4 4 3 7l-6 12-3 4c0 1 0 2-2 3l-1 1c0 2-2 1-3 2zm-1-8c5-5 8-10 11-17-4 1-6 5-8 8l-2 6c-1 1-2 2-1 3zm124 379c-3 0-7-1-9-3-2-1-3-3-3-6l4-4 6-1 11-1h2l6 3c4 1 4 5 3 8 0 2-1 2-2 2l-5 1h-8l-5 1zm8-9h-10l-6 1a158 158 0 0 0 14 1l2-2zm311-7l8 2c4 2 5 4 4 9l-1 1c-1 4-3 4-6 4h-1l-5-1-13-1c-2-1-3-2-3-5v-1c0-2 1-4 4-5s7-3 11-3h2zm6 8h-13 13zM208 24c-2 1-3 0-5-1-3-4-5-8-6-13 0-3 2-5 4-5h1l4 1c5 0 7 3 8 7 0 2 0 4 2 6l-1 1c-1 3-4 4-7 4zm0-5v-7l-2-1-2 2c0 3 1 5 3 7h1v-1zM84 113h4c3 0 6 3 7 6 0 2 0 5 2 7l-1 1c-2 4-8 6-12 2l-3-4-3-7c0-3 2-5 5-5h1zm5 10v-4c-1-1-2-2-3-1l-1 2 1 4 2 3h1v-1-3zm193 178h6c2 1 4 3 5 6 0 2 0 5 2 7l-1 1c-2 5-9 6-12 2l-3-4-3-6c0-4 1-6 5-6h1zm5 13v-6l-1-2h-2l-1 2 2 7h2v-1zm124 24h6c2 1 4 3 5 6 0 2 0 5 2 7l-1 1c-2 5-8 6-12 2l-3-4c-1-2-3-4-3-7s1-5 5-5h1zm5 13v-7c-1-1-2-2-3-1l-1 2 2 6c1 1 1 2 2 1v-1zM143 110c-3 0-6 0-9-2l-2-3c0-4 2-7 5-9s5-2 8-1l6 3 2 2c0 3-1 6-3 8-1 2-4 2-7 2zm3-4l1-1v-1l-6-4-3 1 1 3 7 2zm396 112l-8-2c-2-1-3-2-3-4 1-5 3-8 7-9h6l6 2 2 3c1 5-3 10-8 10h-2zm3-5h1v-2c-2-1-3-3-6-3-1-1-2 0-3 1l2 2 6 2zM297 384c-3-1-6-1-7-3l-1-2c1-5 4-7 8-9l7-1c4 1 6 5 4 8l-3 4-2 2-6 1zm-2-5c4 0 7-1 7-5l-1-1c-2 1-5 3-6 6z"/><path fill="#fff" d="M295 168l1 1v3c-3-2-3-2-1-4zm216 295v-1c1-1 3 0 4 1h-4z"/><path fill="#FC2065" d="M492 370l-2 1 2-1z"/><path fill="#040302" d="M495 367v-1 1z"/><path fill="#FC2065" d="M507 463v-1 1zm-38-246c3-5 5-11 1-17l3-1v-3a285 285 0 0 0-7-5h-1c-1 0-2 0-2 2s-1 2-2 2l-4-1-2-1c-2-1-2-1-3 1l-4 2-4-1-2-2h-4l-4 2h-5l-2-1c-1-2-3-2-5-1-4 2-7 2-11 0l-1-1h-4l-6 2c-1 1-2 0-1-1l4-9c0-2 2-2 3-3s2-1 1-3l1-2c1-2 0-3-1-5l-1-2v-7l1-1h2c4 0 7 2 10 5 1 2 2 2 3 0 1-3 3-3 5-3l9 3v3c-1 1 0 2 1 2 3 1 3 1 3 3v2l1 1 3-2c2-1 2-4 1-5-2-2-4-4-6-3 0-2 1-2 2-3l10-1 3 2 3 2 2-1c1-2 0-5-2-7-1-1-2-1-2-3 0-1 0-2 2-3l-8-5-2-2-1-2v-2l-1-2c-1-2-2-5-5-7-1-1-2-2-3 0h-2c-1 0-3 0-4 2l-2 1c-2 1-4 0-4-2l-1-2-3-1c-3 0-6 0-9 2l-4 1c-1 1-1 0-2-1-1-3-2-4-5-4l-8 1h-2c-3 1-5 0-6-3s-3-3-6-3c-2 1-4 1-6-1l-14-4-1-1c-2-2-4-1-7-1l-11-1 1-3c0-2-1-2-3-3h-1c-2 0-2-1-1-3l2-6-2-2c-3-2-3-3-1-6l4-2 4-4-1-3c-1-2 0-4 2-5h1c2 1 5 2 7 1l5 1 3 1c0 2 1 2 2 3 2 1 4 2 6 1l6-1 3 1c2 3 4 4 8 4 2 0 3 0 5 2 2 1 4 2 6 1 3-1 6-1 8 1 2 1 2 0 3-1l2-2 4-1 1 2c0 2 1 4 3 5 1 0 2 1 3-1h2l3-1-1-4h-1c-3-1-4-4-6-7l-2-7 1-2c1-2 1-3-1-3l-2-1v-7l2-1c2-1 2-3 1-5l-1-1v-7l1-2 2-2c0-2 0-2-2-3l-1-1c0-2 2-4 3-5l2-2c1-2 1-5 4-6l2-4 2-1c1 1 2 0 2-1l2-1 9-7 7-2 4-1 1-1c3-1 6-2 9-1l4-1c1-2 4-3 7-2 2 0 4 0 6 2s5 3 8 3c6-1 10 2 14 6l1 1c4 1 7 4 10 6 2 1 3 2 3 4l1 4 1 1c2 1 3 3 2 4-1 3 0 6 1 10l1 2v1l1 4 1 1c2 3 3 6 1 10l-3 3v3l1 5c0 5-3 9-7 11l-3 2v6c0 3-1 5-3 6l-6 5-3 1c-2-1-3 0-2 2l2 4v3h-4c-3 0-3 0-3 2-1 2-1 2-3 1-2 0-2 0-2 2 0 3 1 6 4 7l2 2c2 0 3 1 3 3 0 4 2 6 5 8h3c2 0 3 1 2 3-1 3 0 6 3 8l3 3c2 2 3 2 5 1l4-2c1-2 1-2 2 0 4 4 5 3 8 0 3-2 5-3 7-1h4l3-2c1-2 2-2 4 0 1 2 2 2 4 0 2-3 2-3 5-2h1c2 1 2 1 4-1 1-2 2-2 3-1 2 1 2 1 3-1l1-1c0-2 2-3 4-3s5 0 6 3l2 1c2 0 3 2 1 4l-1 2c-2 3-1 6 1 9v2c-1 3 0 6 1 9v3l-2 8-1 1h-4c-1 0-2-1-1-2l1-4c1-3-3-7-7-6l-3 1c-3 0-4 2-6 4l-4 7-2-2h-1l-2 3c-2 3-4 4-7 2h-2c-2 3-4 3-7 4l-3-1c-1-2-1-1-2 0-1 2-1 2-3 2l-3-1h-2c-1 3-1 3-3 1-3-2-4-1-4 2-1 2 0 4 1 6v3c1 1 1 1-1 1l-1 2v5l-1 3c-1 1-2 4-1 5v4c0 1-1 2-2 1l-14-3-16-2-12-2-1-1zm22-180h-1c-2-2-4-2-6-1h-6l1-1v-4c-2-2-4-2-6-2h-1c-1 3-4 5-8 4h-3c-2-1-2 1-3 2l1 1 1 1-1 2-5 2h-3l-2 2 1 2 3 2c1 1 1 2-1 2s-3 1-4 3v1l1 1h-2l-2 2 2 2h2c2 1 2 2 2 3l-2 3c-3 1-2 2-1 4 3 3 4 6 1 10-1 2-1 2 1 4 2 1 2 2 1 5v5l2 2h3l2-2 6-2h1c1 2 3 2 5 2l3-1v-3c0-3 3-6 6-6l4-1v-2c-2-2-2-3 0-6l2-3 2-2c3 0 4-1 6-3l-3-1-3-2c-1-4 2-9 5-10l3-2c-1-2-3-2-4-2l-4-3v-4l1-2 3-2zm-19 141l-1-4 1-3v-3c-3-1-5-1-8 1l-1 3 2 5c1 2 2 4 5 5 2 1 5 0 7-2l1-1v-4c0-1-1-2-3-2-2 1-3 2-3 5zm31-22c0-2 0-4-2-5-2-2-5-3-9-4l-1 1v1l1 1c1 1 2 3 1 4 0 2 0 4-2 4l-1 2c1 2 3 3 5 2l3-1c3 0 5-2 5-5zm-49-21l5-1 6-2c2 1 3-1 5-2l-1-1-5-1c-2-1-5 0-7 1l-2 2c-1 0-2 1-2-1v-1c-2-1-6 0-8 1-1 1-1 2 1 3 2 2 5 2 8 2zm-11-16l-4-4v-3c1-1 2-2 1-3l-2-1-5 1c-2 0-3 1-3 3 0 3 3 9 6 10s4 1 5-1l2-2zm112 60c2 0 4 0 4-2l3-3v-2l-2-1-2-1c0-2-2-2-3-3h-4c-2 3-2 7 0 10l4 2zm-31-10l1 2v4l-4 3h-4c0 3 3 5 7 4l3-1 3-2c3-1 3-4 2-6-1-1-2-3-4-3-1-1-3-2-4-1zM505 65v7c0 2 1 3 2 3l3-1 2-2v-2-2-3c-2-4-3-5-7-5-2 1-5 3-5 6l2 1 3-2zm-114 45c-2-2-2-4-2-7l-1-2h-7c-2 1-1 3-1 5v1c1 2 2 4 4 4s5 2 6-1h1zm181 43c-2-1-3 0-5 1-1 0-2 2-1 3v1c1 2 2 2 4 1l1-1 1-1 2 1 1 3c1 2 2 2 4 2l1-2c1-4-3-9-8-8zm-159 28c0 2 0 2 2 2l6-3 2-4h1v-2l-4-3c-2 0-5 1-5 3l1 2v2l-2 1-1 2zm79 29l1 4c1 2 3 3 5 3 1 1 2 1 3-1h1v-1l-1-5-2-2-2-1c-3-1-5 0-5 3zm-3-19c2 0 4-1 5-3l1-4c0-3-2-6-5-6l-3 1v3c2 2 2 3 0 5s-1 3 1 3l1 1zm-9 16l2 1h2c1 0 3-4 2-5l-1-2-4-1c-3 1-5 2-6 6 0 2 2 5 4 4l1-1v-2zm-69-92c1 0 3 0 5-2 3-3 3-3 1-7l-4-2c-2 1-3 2-2 4 0 2-1 2-2 3l-2 1c-1 1 0 2 1 2l3 1zm44-11l1 4 4 3h1c1 0 2-2 1-3-2-2-2-3 0-5l1-1v-1l-6-2-2 5zm-21 88c1 1 2 0 3-1 2-1 2-2 1-3l-2-1c-1 0-3-1-3-4l-2-1c-2 0-4 3-4 6 1 2 5 4 7 4zm40-54c-3 0-5 2-4 5l2 3 3 3h1c2 0 2-2 1-4-2-1-2-2 1-3v-3l-4-1zm18-119l-1 1 1 1v2c-1 1-3 3-5 3l-1 1c0 1 2 4 3 3 4 0 6-2 8-5 1-3-1-6-5-6zm2 72l-2-3c-1-1 0-2 1-3l-1-2c-2-1-4-1-6 1l-1 1c-1 2 0 5 2 6 2 3 5 3 7 0zm-143 8l1-1 2-1-1-2c-2-2-2-2-1-4s0-3-1-3c-3 0-6 3-6 5 0 3 3 6 6 6zm120-82v-1c-1-1-3-2-4-1-3 0-5 1-7 3s-2 4 0 6c2 1 2 1 3-1l5-4h1l2-2zm35 160l-1 3c0 1-1 2-3 2l-1 2c2 2 5 2 7 1l3-3c1-2 2-4 1-5s-3-2-5-1l-1 1zm-27-55l-1 2-1 2 4 2c2-1 5-5 4-7l-1-1c-2-2-7-3-9-1v1l4 2zm4-17l-1-2h-6l-1 3-1 2-2 2v1c0 1 4 2 5 1 2-1 4-3 5-6l1-1zm-114 7v-3c-1-2-2-3-4-2-2 0-3 2-2 4 0 2 1 3-1 5v1l1 1h2l4-3v-3zm70-35h1c2 0 2-1 2-2l-2-2c-2-1-2-2-1-4l-1-2-5 1-1 2c0 4 3 7 7 7zm102 85c-1-3-2-3-4-4l-2 1v2c0 2 2 3 3 4 1 3 4 3 6 0 1-1 2-2 1-3l-3-1-1 1zm-74-12l-3-1-2-1 1-3c1-1 0-2-1-2-1-1-4 0-5 1v5c2 3 6 4 10 1zm38 49h1c3-1 5-3 6-6 1-1 0-1-1-2s-3-1-4 1-2 3-4 3h-2v2l4 2zm-4-161c2 0 2 1 3 2v2 2l2 1h2c2-1 3-3 4-6l-1-1-5-2-5 2zm-73 25c0-4-2-5-4-5l-2 3c1 2 1 4-1 6v2h3c2-2 4-4 4-6zm9-23l2-2c1-3 1-3 4-3l2-2-4-2c-3 0-6 2-7 6 0 2 0 2 2 3h1zm-90 73c4 0 4 0 4-4v-1c0-1 0-3-2-3h-4v3l1 2-1 2 1 2 1-1zm64 16l5-1h2c1-1 0-2-1-3h-5c-1-2-3-1-5-2l-2 2 1 2c1 2 3 2 5 2zm29-33h1c2 1 2 0 3-1l-1-3c-3-1-7-1-9 1v2 1h6zm-47 22l-1 3 1 1c1 1 3 0 4-1 2-2 2-3 1-4v-1l-2-1c-2-1-3 0-3 2v1z"/><path fill="#fff" d="M569 261h-7l1-1-7-1-14-1-14-2h-11l-10-1-3-1-18-1-9-1-15-1-18-1-14-2-25-2-21-1h-6l-3-1-2-1-1 1v2c-1 1 0 2 1 2l2 2 2 1c6 3 10 7 12 13l-7 3-1-1-10-14c-6-6-13-10-21-11h-5c-7 0-12 1-18 3l-5 3-1 1-5-4h1c4-3 8-5 13-5 5-1 11-2 17-1l15 1 18-1c6 0 12 0 18-2l7-1 1-1 4-5 3-6 2-1 7 1 17 1 16 2 9 2 9 1h5l2 1h1l6 1 3 1 5 1 5 1 2 1a254 254 0 0 0 5 7c3 4 9 3 12-1v-3c5 0 9 1 13 3h3l4 1 6 1h2l3 1 12 4h1c1 1 1-2 2 0l2 1 3 1 9 2c1 0 2-1 2 1h3l1 1 11 3 6 3 4 1c1-1 1 1 2 1l6 2 1 1h-7l-5-1-10-1-11-1-4-1h-9zm-141-35c-3-1-5 0-7 3-2 1-3 2-3 4-1 2 0 5 1 6l1 2 2 2 2 2c2 2 5 2 8 1 4-1 8-4 9-8 2-3 1-6 0-8-2-3-7-5-10-5l-3 1zm139 35v-1 1z"/><path fill="#FC2065" d="M544 293c-4 2-6 5-10 6-2 1-4 1-6-1-1-3-4-4-6-5h-5l-6 3-4 1c-3 0-4-1-4-4l-1-2-3-1c-2-1-4-2-7-1-3 2-4 3-5-2l-2-6c-1-2-4-3-5-1-2 1-3 2-2 4l-2 4c-1 2-3 3-6 4-2 0-3 0-5-2l-1-2h-3c-2 2-2 4-1 6l1 1-9 4h-3l-2-1c-2-1-4-2-6 0a29 29 0 0 1-13 4c-2 0-2 0-2-2l-2-3-1-1-5-5-4-1c-3 2-4 4-4 7l-2 2h-5l-2-2-4-4-2-1-1 1-1 1h-1l2-3 1-6c1-1 1-3 3-3l1-2 1-2v-2c0-3 1-6-2-8l-2-5-3-6-2-4 11 1 1 1v2h-5c-1 3-1 4 1 6 2 1 3 4 3 6l5 8 1-2c1-3 3-4 6-4l3 1 4 7c-2 0-3 1-3 3l1 2 2 3 2 1v-1l2-2-2-5-2-1 2-4c0-2 2-3 4-3 3 0 6 0 8 3l2 2 1-4 2-3h4l2 2 1-3v-5c3 1 6 1 8 4 2 1 3 2 6 1l1 1 2 1c2 1 3 2 5 1h3l13 4 8 2 15 5 10 3 11 3 15 4zm-98-3h-2c-3 1-4 0-4-2l-1-1c0-2-1-2-2-2-3 2-4 6-1 8 2 2 4 3 7 2s3-1 3-5zm74 106h-18-74l-8 1c-2 0-2 0-2-2v-4l1-11c0-2 0-2 2-2h17l17-1 7 1h14l5-1 1 1h3l2-1c1 0 0 2 1 1h18l1 1 7-1h20l6 1 1 1-1 11v3c0 2 0 2-2 2h-18zM219 144l-2-6-5-4-4 1-3 1-4 2c-4 6-7 12-7 19v1l-5 1-10 3c-2 1-2 1-2-1-2-6-2-12-1-18 0-5 1-9 3-14l4-7 10-11c4-4 8-6 13-8l4 5c4 2 10 0 11-4v-1-3l3-1 3 1 4 3c2 1 3 0 4-1 1 1 2-1 3-1 3 2 6 3 8 6l-2 1c-6 0-12 1-17 3l-3 1-1 2 2 6 3-1c1-1 1 0 2 1l2 4v2c-6 5-9 11-13 17v1z"/><path fill="#fff" d="M484 261l2 1 9 1h1v-1l-4-1h-1 9c2 0 1-1 0-1h9l1 1h5l3-1h3l4 3h1l13 4 18 5 18 6a672 672 0 0 1 39 13l4 1-13 1-17-2a832 832 0 0 1-38-6l-15-4a401 401 0 0 1-58-18l-7-2h11c1-2 3-2 5-1v1h-2zm34 2h3a185 185 0 0 0-3-1h-6l6 1zm-8 0l-12-1 9 2 3-1zm2 0l4 1-4-1zm-5-2h2-2zm12 0h2l-1-1-1 1z"/><path fill="#FC2065" d="M466 370l3-2v-2l2-2 1-1 1-1c2-3 2-7 1-10v-1l-1-4 1-1v-1l-1-3-1-9 1-2v-1c-2-2-1-4-1-5l1-2 9-5 8-4 6-7v-6-1c-1-2 0-3 2-3l1 1 5 5c2 1 4 2 7 1l1 2c0 5-3 8-5 12-4 5-10 8-16 10l-5 3c-2 1-2 4-1 6 3 5 4 11 5 16v1c2 5 0 9-3 13l-4 4h-17v-1zM71 448l-1 6-1 1h-7l-17 1-3-1-5-1-2-2-4-13-3-7v-2l1-2-1-2c-2-1-4-2-7-1-2 1-2 1-3-1l-2-6 1-3 8-4c1-1 1-1 2 1l2 4 5 8a658 658 0 0 1 5 13l1 2 2 7c1 2 3 3 5 3l2-1c3-2 7-5 11-6 3-1 6 0 9 1l2 5z"/><path fill="#fff" d="M298 295c3-1 6-2 9-5 3 4 6 7 10 9a52 52 0 0 0 40 8l4-2 7-4 3-1c1 0 2 0 3-2l2-2c3-2 4-6 5-9l1-5c0-1 0-2 2-1l3-1c2 0 2 0 2 2l-5 12-3 5-1 2-8 5c-6 4-13 5-19 5l-25-1c-7-1-14-4-20-8l-10-7z"/><path fill="#FC2065" d="M142 457c0-2-1-2-2-3l-3-3-2-1-4 2-1 2c-1 2-1 2-3 2h-9l-2-1v-6l-1-1-1-4h6l19 4 4 1c8 3 15 2 23 0l7-2c2 0 2 0 2 3v3l-1 2h-4l-16 1h-7-1c-2-1-3 0-4 1zm45-151l7 7c3 4 7 6 12 6l1 1-1 4-8 5h-3l-9-7v-2l1-14zm398-40l9 2h8c2 0 2 1 2 3 0 1 0 3-2 5-2-3-4-2-7-2a320 320 0 0 1-9-3l-1-3v-2zM262 117h-1l-5-1c3-4 2-4-1-7l-1-3v-5h3l8 10 2 3c-3 0-4 1-5 3zm-25 80c-4 3-9 3-14 1-1 0-2-1 0-3l5-4 4-3 5 9zm368 46l-3 6h-1l-15-5-2-2v-1h1l3 3 1-2c1-2 1-2 3-1s2 1 2-1h1l2-1v1l1 2c1 1 1 2 3 1h4zm-239 20c2 0 4 2 6 1l1 1 3 9h-1c-4 2-7 0-10-2l-1-1 2-3v-5zm41-228l-5-1c-2 0-2-1-1-2 1-3 4-4 7-4l4 1c2 0 3 2 3 4l-2 1h-3l-3 1z"/><path fill="#fff" d="M236 226c3 2 7 1 11 2l2-1 9-4-3 2-10 5h-4c-2 0-4-2-6-1l-3-3h4z"/><path fill="#FC2065" d="M434 354v-6c1-3 3-4 6-6h1c1 0 2 1 1 2 0 2-6 9-8 10zm6-29l-10 4-3-1v-2l6-3 7 2zm89-20c-2 6-5 11-10 16v-2l3-7c2-3 3-6 7-7zm63-176c-2 4-8 7-12 7l5-6 3-1h4zm-56 327l5-1h1l2-1c3 0 7 1 10 3h-4a487 487 0 0 1-14-1zm26-262v-1c2-3 3-8 6-11l4-4c0 3-6 13-10 16zm4 71h3l10 1 1 1 1 2-1 1-12-3-2-2zm-365-16l-6-11 2-1c3 0 3 0 4 3v9zm415-23l-12 9v-2l8-7h4zM343 68c-3-3-3-9 0-13v13zm67 390c4-2 7-3 11-3 2 0 2 1 2 2l-1 1h-12zm-13-186c-5 2-9 3-14 2l1-1 6-2c2 0 5-1 7 1zm115-34v2l-2-1-2-6c-1-1 0-2 1-2 1-1 2 0 2 1l1 6zM214 103v2l-2-1-2-6 1-3 2 2 1 6zm205-78c-1-5-1-9 2-13l1 1-1 9-2 3zm105 329v5l-1-1c-2-2-3-4-3-7l1-2 2 2 1 3zM521 9l-1 4-4 3-2 3-1-1c2-4 4-7 8-9zm2 325c1-3 3-4 5-6h1l1 1c-1 4-3 6-7 5zm-147-56l-1 4-1 1h-3v-2l1-1 4-2zm130 184l-15-1c5 0 10-2 15 1zM195 232l7-5-2 5-2 1-3-1zm219 70c-1-2 0-3 1-4l2-1 2-1-1 2-4 4z"/><path fill="#fff" d="M263 220l6-5 5-4c-3 4-7 6-11 9z"/><path fill="#FC2065" d="M612 240h8-8zM403 459l-10 1 10-1zm-22-228c2-3 4 0 5 0h-5z"/><path fill="#fff" d="M466 259h6-6z"/><path fill="#FC2065" d="M563 265c1-1 2-2 3-1h-2l1 1h-2zm-12 29l3 1c-2 0-2 1-3-1z"/><path fill="#fff" d="M259 222l4-2-4 2z"/><path fill="#FC2065" d="M594 264l2 1-2-1zm-287-39l2-1v1h-2zm68 2h1l-1 1h-1l1-1zm214 37h-1 1zm-30-1h-1 1zm26 3h-2 2z"/><path fill="#fff" d="M479 259h3-3zm90 2v0z"/><path fill="#FC2065" d="M477 259h-2 2z"/><path fill="#fff" d="M258 223l1-1-1 1z"/><path fill="#040302" d="M256 276l1-1c0-1 0-2 2-2l2 2-1 5h-1c-2-1-3-2-3-4zm53-52l-2 1-3-1-6-5-1-1c-2-1-2-2-1-4l1-1 2-2 7 6 4 3v3l-1 1zm12-6c0 2 0 2-2 2-1-1-3-2-2-3v-2h2c2 1 2 2 2 3zm28-29l-3 2c-3 0-5 0-7-3h-3c-3 0-6-1-8-4l-1-4-1-2c-3 1-5-1-7-2-2-3-3-5-3-8 0-1 0-3 2-3l1-1-3-9c-2-6 1-12 5-16l13-8c6-2 12-2 18-1l12 3c3 1 7 2 10 5l12 12 1 2c1 1 1 3 3 3l1 4 2 5v4c0 6-3 12-6 17-2 3-5 6-9 8s-9 2-14 0l-2-1h-5c-2 1-4 1-6-1l-2-2zm2-1h4v-1-2h-2l-2 1h-2l1 2h1zm25-38c-4-5-9-9-14-12l-8-2h-9c-5-1-10 0-15 3-5 4-8 9-8 15 0 2 1 4 3 5 3 1 5 3 6 7l2 1h3l3 3 2 4c0 1 1 2 2 1h3l3 4 1 3 2-1c3-2 7-1 8 2 1 2 2 3 4 3l5 1h3c-2-3-3-6-3-10l-1-1v-8-6l1-7c0-1 1-2 2-1l1-1 4-3zm10 20l-1-4v-2c0-2-1-3-3-3l-2-1h-3c-2 2-3 3-2 5v3l-1 5 1 2 1 3v3c-1 1 0 3 1 4h3l3-4v-3c-3-1-3-3-1-5l3-2 1-1zm-54 1c1 2-1 4 1 6v3l2 1 1-2-1-6-3-2zm-9-7v5c1 2 2 4 4 4-1-3-1-7-4-9zm18 19h2v-1-1l-2 2z"/><path fill="#FC2065" d="M237 444c1-2 2-2 3-2l6-1c4-1 7-1 11 1-7 2-13 2-20 2zm96 17l2-1 5-2h8c2-1 3 0 5 1-3 2-14 3-20 2zM163 87c-1-1 0-2 1-3l2-6c2-3 4-7 8-8-3 7-6 12-11 17zm132 370l-2 2-1 1-13-2 6-1h10zm317 1h-13 13zM208 19v1h-1c-2-2-3-4-3-7l2-2 2 1v7zM89 123v4h-1l-2-3-1-4 1-2c1-1 2 0 3 1v4zm198 191v1h-2l-2-7 1-2h2l1 2v6zm129 37v1c-1 1-1 0-2-1l-2-6 1-2c1-1 2 0 3 1v6zM146 106l-7-2-1-3 3-1 6 4v1l-1 1zm399 107l-6-2-2-2c1-1 2-2 3-1 3 0 4 2 6 3v2h-1zM295 379c1-3 4-5 6-6l1 1c0 4-3 5-7 5z"/><path fill="#040302" d="M491 37l-2 2-2 2v4l4 3c2 0 3 0 4 2l-3 2c-3 1-6 6-5 10l3 2 3 1c-2 2-3 3-6 3l-2 2-2 3c-2 3-2 4 0 6v2l-4 1c-3 0-6 3-6 6v3l-3 1c-2 0-4 0-5-2h-1l-6 2-2 2h-3l-2-2v-5c1-3 1-4-1-5-2-2-2-2-1-4 3-4 2-7-1-10-1-2-2-3 1-4l2-3c0-1 0-2-2-3h-2l-2-2 2-2h2l-1-1v-1c1-2 2-3 4-3s2-1 1-2l-3-2-1-2 2-2h3l5-2 1-2-1-1-1-1c1-1 1-3 3-2h3c4 1 7-1 8-4h1c2 0 4 0 6 2v4l-1 1h6c2-1 4-1 6 1h1zm-6 14l-3-2-1-2 1-5c1-1 0-1-1-1-3 0-6-1-8-3-2-1-3 0-5 1 0 3-2 5-5 6-2 1-2 1-1 3l1 1c1 2 1 3-2 4l-7 2 3 3 1 3-3 4c-1 1 0 2 1 3l2 6-2 4v2c2 1 2 3 3 5h7l2-1 5-4 1-2 4-8h-9l-1-3 2-5c2-2 5-3 8-3 2 0 2 0 3-2l2-4 2-2zm-5 15l-2-2-3-1-1 2c-1 1 0 1 1 1h5zm-8 112c0-3 1-4 3-5 2 0 3 1 3 2v4l-1 1c-1 2-5 3-7 2-3-1-4-3-5-5l-2-5c0-1 0-2 2-3 2-2 4-2 7-1v3l-1 3 1 4zm31-22c0 3-2 5-5 5l-3 2c-2 0-4-1-5-3l1-2c2 0 2-2 2-4 1-1 0-3-1-4l-1-1v-1l1-1c4 1 7 2 9 4 2 1 2 3 2 5zm-49-21c-3 0-6 0-8-2-2-1-2-2-1-3 2-1 6-2 8-1v1c0 2 1 1 2 1l2-2c2-1 5-2 7-1l5 1 1 1c-2 1-3 3-5 2l-6 2-5 1zm-11-16l-2 2c-1 2-2 2-5 1s-6-7-6-10c0-2 1-3 3-3l5-1 2 1c1 1 0 2-1 3v3l4 4zm112 60l-4-2c-2-3-2-7 0-10h4c1 1 3 1 3 3l2 1 2 1v2l-3 3c0 2-2 2-4 2zm-31-10c1-1 3 0 4 1 2 0 3 2 4 3 1 2 1 5-2 6l-3 2-3 1c-4 1-7-1-7-4h4l4-3v-4l-1-2zM505 65l-3 2-2-1c0-3 3-5 5-6 4 0 5 1 7 5v7l-2 2-3 1c-1 0-2-1-2-3v-7zm-114 45h-1c-1 3-4 1-6 1s-3-2-4-4v-1c0-2-1-4 1-5h7l1 2c0 3 0 5 2 7zm181 43c5-1 9 4 8 8l-1 2c-2 0-3 0-4-2l-1-3c0-1 0-2-2-1l-1 1-1 1c-2 1-3 1-4-1v-1c-1-1 0-3 1-3 2-1 3-2 5-1zm-159 28l1-2 2-1v-2l-1-2c0-2 3-3 5-3l4 3v2h-1l-2 4-6 3c-2 0-2-1-2-2zm79 29c0-3 2-4 5-3l2 1 2 2 1 5v1h-1c-1 2-2 2-3 1-2 0-4-1-5-3l-1-4zm-3-19l-1-1c-2 0-3-1-1-3s2-3 0-5v-3l3-1c3 0 5 3 5 6l-1 4c-1 2-3 3-5 3zm-9 16v2l-1 1c-2 1-4-2-4-4 1-4 3-5 6-6l4 1 1 2c1 1-1 5-2 5h-2l-2-1zm-69-92l-3-1c-1 0-2-1-1-2l2-1c1-1 2-1 2-3-1-2 0-3 2-4l4 2c2 4 2 4-1 7-2 2-4 2-5 2zm44-11l2-5 6 2v1l-1 1c-2 2-2 3 0 5 1 1 0 3-1 3h-1l-4-3-1-4zm-21 88c-2 0-6-2-7-4 0-3 2-6 4-6l2 1c0 3 2 4 4 4l1 1c1 1 1 2-1 3-1 1-2 2-3 1zm40-54l4 1v3c-3 1-3 2-1 3 1 2 1 4-1 4h-1l-3-3-2-3c-1-3 1-5 4-5zm18-119c4 0 6 3 5 6-2 3-4 5-8 5-1 1-3-2-3-3l1-1c2 0 4-2 5-3v-2l-1-1 1-1zm2 72c-2 3-5 3-7 0-2-1-3-4-2-6l1-1c2-2 4-2 6-1l1 1v1c-1 1-2 2-1 3l2 3zm-143 8c-3 0-6-3-6-6 0-2 3-5 6-5 1 0 2 1 1 3s-1 2 1 4l1 2-2 1-1 1zm120-82l-2 2h-1l-5 4c-1 2-1 2-2 1-3-2-3-4-1-6s4-3 7-3c1-1 3 0 4 1v1zm35 160l1-1c2-1 4 0 5 1s0 3-1 5l-3 3c-2 1-5 1-7-1l1-2c2 0 3-1 3-2l1-3zm-27-55l-4-2v-1c2-2 7-1 9 1l1 1c1 2-2 6-4 7l-4-2 1-2 1-2zm4-17l-1 1c-1 3-3 5-5 6-1 1-5 0-5-1v-1l2-2 1-2 1-3h6l1 2zm-114 7v3l-4 3h-2l-1-1v-1c2-2 1-3 1-5-1-2 0-4 2-4 2-1 3 0 4 2v3zm70-35c-4 0-7-3-7-7l1-2 5-1 1 2c-1 2-1 3 1 4l2 2c0 1 0 2-2 2h-1zm102 85l1-1 3 1c1 1 0 2-1 3-2 3-5 3-6 0-1-1-3-2-3-4v-2l2-1c2 1 3 1 4 4zm-74-12c-4 3-8 2-10-1v-5c1-1 4-2 5-1 1 0 2 1 1 2l-1 3 2 1 3 1zm38 49l-4-2v-2h2c2 0 3-1 4-3s3-2 4-1 2 1 1 2c-1 3-3 5-6 6h-1zm-4-161l5-2 5 2 1 1c-1 3-2 5-4 6h-2l-2-1v-2-2c-1-1-1-2-3-2zm-73 25c0 2-2 4-4 6l-1 1-2-1v-2c2-2 2-4 1-6l2-3c2 0 4 1 4 5zm9-23h-1c-2-1-2-1-2-3 1-4 4-6 7-6l4 2-2 2c-3 0-3 0-4 3l-2 2zm-90 73l-1 1-1-2 1-2-1-2v-3h4c2 0 2 2 2 3v1c0 4 0 4-4 4zm64 16c-2 0-4 0-5-2l-1-2 2-2c2 1 4 0 5 2h5c1 1 2 2 1 3h-2l-5 1zm29-33h-6v-1-2c2-2 6-2 9-1l1 3c-1 1-1 2-3 1h-1zm-47 22v-1c0-2 1-3 3-2a5 5 0 0 1 2 2c1 1 1 2-1 4-1 1-3 2-4 1l-1-1 1-3zm-129 22l-4-5-8-10c-1-1 0-3 1-4 2-1 2-1 3 1l3 4 7 7 7 8c1 1 1 3-1 3l-3 1 2 7h1l1 2c0 6-2 12-5 17l-4 7-3 2c-4 0-7 0-10-2-5-5-8-10-8-17-1-7 2-13 6-19 1-2 4-3 6-3 3 0 6 0 8 2l1-1zm2 23l-4-1c-2-1-3-2-1-5l4-3 1-1-1-4c-1-2-4-4-7-4-2 0-4 2-5 4l-2 7c-2 6 0 12 5 17 2 2 3 2 5 0 3-3 3-6 5-10zm162 63l3-1c3 0 8 2 10 5 1 2 2 5 0 8-1 4-5 7-9 8-3 1-6 1-8-1l-2-2-2-2-1-2c-1-1-2-4-1-6 0-2 1-3 3-4 2-3 4-4 7-3zm4 6l-2 3-1 4c3 1 7 0 9-2v-2l-2-2-4-1zm-5-2l-3 1c-2 1-3 2-1 3-1 2 1 3 2 3 2-2 2-4 2-7zm140 31v-1 1zm-121 29c0 4 0 4-3 5s-5 0-7-2c-3-2-2-6 1-8 1 0 2 0 2 2l1 1c0 2 1 3 4 2h2zm64-27l-3 1-9-2 12 1z"/><path fill="#FC2065" d="M518 263l-6-1h7l-1 1zm-6 0l4 1-4-1z"/><path fill="#040302" d="M507 261h2-2z"/><path fill="#FC2065" d="M519 262l2 1h-3l1-1z"/><path fill="#040302" d="M519 261l1-1 1 1h-2z"/><path fill="#FC2065" d="M386 170l-1 1-3 2c-2 2-2 4 1 5v3l-3 4h-3c-1-1-2-3-1-4v-3l-1-3-1-2 1-5v-3c-1-2 0-3 2-5h3l2 1c2 0 3 1 3 3v2l1 4z"/><path fill="#fff" d="M351 186v2h-1l-1-2h2z"/><path fill="#FC2065" d="M480 66h-5c-1 0-2 0-1-1l1-2 3 1 2 2z"/><path fill="#fff" d="M266 163c-2 4-2 7-5 10-2 2-3 2-5 0-5-5-7-11-5-17l2-7c1-2 3-4 5-4 3 0 6 2 7 4l1 4-1 1-4 3c-2 3-1 5 1 5l4 1zm166 69l4 1 2 2v2c-2 2-6 3-9 2l1-4 2-3zm-5-2c0 2 0 5-2 7-1 0-3-1-2-3-2-1-1-2 1-3l3-1z"/></g><g class="frame--2" fill-rule="evenodd" clip-rule="evenodd"><path fill="#040302" d="M545 310l6 3 1 2 1 1c2 0 4 1 5 3l6 3 1 1 1 1 4 2 3 2 3 1 21 13 14 8c2 1 3 2 3 5v1l-1 2-1 1c-1 3-2 3-5 3l-22-6a303 303 0 0 1-54-18l-8 1h-1c-1-2-3-1-4 0l-3 2 4 3 4 1c3 0 6 2 7 6 0 2 0 5 2 7l-1 1c0 2-1 3-4 4-4 1-7 0-10-4-2-4-4-8-4-13l-2-2c-3 0-4-1-5-2-4-3-8-4-12-5h-1v3c3 4 4 8 5 13l-1 2-1 4-3 7-1 2v2l-2 1 2-1c-1 1 0 2 1 2h35l11 1 5-1 2 1 2 3v26c0 2-1 4-4 4h-3v4l-1 7-1 5v4l-2 13-1 9 5-1c5 0 10 0 14 4 5 3 5 7 3 12l-1 1c-3 1-5 2-7 0h-14l-3-1-5 1h-4l-9-1-4-1v1l-1 2-1 1v-1l-2-2v-1 1l-1 2-1 1c1 2-1 1-2 2-1 0-3-1-4 1h-1a1154 1154 0 0 1-13-1c-2-2-4-3-4-6 1-5 5-8 8-9h11l9 3 2 1 14-1c1 0 2 0 2-2l1-16v-12l2-19-2-1-13-1h-15l-21 1-5-1h-1l-5 1-2-1-8 1h-30c-2 0-2 1-2 2l1 11 2 21 2 18 2 2 8-1 27-1h7l3 1 2 3-1 4h-42l-7-1-3-1h-1l-2 1h-12l-7 1-11 2c-4 0-7-1-10-4-2-2-1-7 1-9l6-3 12-1 4 1h2c4-2 8-3 13-3v-2l-4-29-1-9c0-1 0-2-2-2l-3-1c-2-1-3-3-3-5v-5-17c0-2 0-4 2-6l1-2h3l3 1 26-1h9l2-1 1-4 3-6 3-4c2-3 2-6 2-10l-3-12-2-1c-1-1-1 0-2 1l-7 8-5 7c-1 3-2 6-5 7l-4 2h-1c-3 1-5 0-6-2-2-5-3-9 1-13 3-3 6-6 11-5l4 1 3-1 3-6-1-2-3-2h-3l-8 4-7 1c-4 0-7-1-9-4-1-2-2-4-1-6l2-2c8-3 16-3 23 1l2 1 1 1 5 3 7 1 2-1 2-7 1-2 3-2a595 595 0 0 0 11-6l-1-1-11-6h-3l-5 3c-3 2-5 2-8 0s-3-2-5-1l-6 4c-3 3-7 3-10 1l-7-5-1-2-2 3c-1 3-2 4-5 2l-2-2h-3c-1 2-3 2-5 0l-5-3-3 6 1 1-1 3-6 6a78 78 0 0 1-22 18c-10 4-19 9-30 10-10 1-20 1-29-2-5-1-11-3-15-7 0-2-2-1-2-1-4 3-8 3-12 3h-1c-3 0-5-1-7-3a74 74 0 0 1-12-9c-1-2-2-3-4-3l-5-2c0-2-2-2-3-2l-20-3-12-2-7-1c-1 0-2 0-1 2l1 7c0 3-1 4-3 5l-18 10c5 8 11 16 14 25l-3 1c-2-1-3 1-3 3l-4 8-7 13-7 13-7 13-6 10-5 9-2 4-3 3-1 1h-2c-1 1 0 2 1 2h2l11-3c4-1 8-2 12-1 2 1 4 2 5 5l1 4c1 3 0 6-1 9v4l-6-1-1 1h-35l-1-1 1-3c-3 2-4 1-6-1v3c0 1 0 2-2 2l-8 1h-7c-3 1-6 0-9-1l-1-2v-4-6l1-2v-1c2-3 3-3-1-5-3-1-4-3-3-6l2-5 4-4 1-2 33-59v-3l-13-21-2-1-1 3v5l-3 6v2l-2 6-1 7-2 5-1 9-2 8h-4l2 4c0 2 0 2-2 2l-7 3-14 5-3 1-4 1-4 1-20 9-11 3-1 1h-2c-1-1-3 0-4 1l-1 1 4 12h2c4-2 8-3 11-2 5 1 10 2 13 6l4 6v9l1 4c1 1 1 2-1 2H59l-16 1-8 1h-2c-3-1-3-1-3-4v-2c-2-2-2-4-3-7l-5-15-1-1h-4c-2 0-4-2-4-4l-5-14v-3c0-2 0-2 3-3h1l9-7 1-2-3-7-1-4 2-2h3l8-4 16-6 17-6 13-5c1-1 2-1 2-3l1-6 2-12 5-18 3-21v-3c-3-5-4-11-5-17l1-9 1-2v-2-4l-1-4-1-2v-3l-1-1-1-3 1-11v-4l6-20a84 84 0 0 1 32-39c8-5 16-9 25-10h2c1 0 2 0 3-2l3-2a139 139 0 0 1 14-9l-1-8 1-16c0-7 3-12 6-17l4-6 14-13c5-3 10-6 17-7h2c-2-2-1-4 0-6l2-2 10 1 13 7 11 8v-2l-3-9c-2-2-2-4-1-7h4c2 4 6 6 9 10l8 8 2 2c1-3 0-6-1-10h6l1 1 1 4v21 2c2 2 4 5 7 6l1 3 5 8 5 13 1 2v12l-1 8c0 2 0 2 3 4 6 3 11 7 15 12l3 4-1 4c0 2 0 2 2 2l6 2c4 2 8 2 11 2l-4-5c-4-3-8-5-13-5h-1l1-2 1-3c1-2 0-5-1-7l-1-1c-2 0-3-2-2-4v-3l-3-13-6-12-1 3 1 6v4l-1 1c-2 1-4-1-5-3 0-1 0-2-2-2v-6-1l1-5c1-4 3-6 7-6l2-2c1-7 5-12 11-16 4-3 8-5 13-6l-1-2c-2-3-2-6-1-8v-3c-3-4-3-9-1-13l6-5 1-1c0-4 1-6 3-8l1-3c-2-3-2-6-1-10l2-7c1-3 5-5 8-4l1 1 2 5 1 6c0 3-1 6-3 8v1c1 0 3 0 4 2h1l9 1 6 2 3 1c4-1 8-1 12 1l4 3 2 1 3 1c4 2 8 1 11 1l2-1c0-2 1-2 3-3h5v-2c0-1 0-3-2-4l-2-2v-9l1-4 1-11v-2l-1-2 2-5v-2l-13-1-4-2-1-2c3-5 7-10 14-10l9 1a23 23 0 0 1 2-14c2-2 6-3 8-2l3 4v6l7-7 3-2h1c3 0 5-2 8-3l11-2 5-2c5-2 10-2 15-1l2 1 4 1c7 0 14 3 19 8l1 2c1 3 3 3 5 4 0-5 2-8 5-11 3-4 10-4 13 1 2 4 1 7-1 9l-6 5-1 1v3l2 6 1 1 2 5v9l2 4 1 4 1 1 4 5 1 9-2 3-2 3-1 3v8l-1 3-7 6-1 2v4c0 3-1 5-3 7-2 3-5 5-8 6l-1 2c2 5 0 9-5 11l-1 1 1 1 3 6 2 2c3 2 6 4 7 8v4l6-3h3c3 2 5 2 7 0s3-2 5-1 4 1 6-1l2-1h7c2-2 4-2 7-1l3-1 4-1 2-1c1-1 3-1 3-4a15 15 0 0 1 6-15c3-1 6 0 7 3l-1 3h2c4-3 8-2 11 1 2 1 3 4 1 6-1 3-4 5-7 6l-3 1 3 5c2 4 3 8 0 12v2l3 6-1 3v3l2 8-1 3-3 6-3 3c-1 2-2 2-4 2l-8-1h-2v1c-2 4-6 4-10 5-2 0-3-1-4-3l-2 2c-2 2-5 3-8 2h-2c-2 2-5 2-7 2l-3 1-3 1h-3l-4 1v6l-2 5-1 1c0 2 0 2 2 2h4l12 1 17 1h2l11 1 13 1 11 1 7 1h2c3-3 6-4 9-4 5 0 8 2 9 6l1 2 11 2 12 3 1 2 2 5 1 2 1 4-9 1-21 2-6 1-1-1h-2l-3 1 1 2c4 4 4 9 3 14l-3 7-2 5c-1 3-3 6-6 7l-1 1-4 1c-1-1-2 0-2 1l-2 5-4 3-4-1-2-1h-3l-1 1-3 4c-3 3-8 3-11 1h-3l-1 1c-1 2-3 3-5 2l-7-2c-3 0-4 1-5 3l-3 2v1l2 1 1 2 2 1s1 0 0 0v-1zm-98-28h1l1 1-1-1h-1s0-1 0 0zm25 15h-1 1v1l4 3-4-4zm-15-8l2 1-2-1a718 718 0 0 0 0 0zm8 4l-2-1h-2l9 5-3-2-2-2 8 4 2 1 2 1 5 3 3 2 3 1 5 4 9 5 24 12 19 9c12 5 25 10 38 13l14 4v-1h-1l-11-6-26-16-41-27-53-37-3-2-2-1-15 1-15 2h-2l3 3 8 6 3 3 3 2 3 2 3 2 9 6 5 3v1zm-356-84v1l-4 5a147 147 0 0 0-11 26l-2 12v5c0 2 0 2 2 2h1l12-1h25c2 0 4 0 6 2l1 1h3c2 0 2 1 3 2l6 7 4-4 1-3-4-10-10-32c-1-3-1-4 1-6 4-3 8-1 8 3l1 1 5 16 7 21a232 232 0 0 0 16 39l2 4v2l1 2 6 1 35 5h2l1-1c0-8 2-16 4-25v-1c1-1 0-1-1-1l-12-3-16-2-2-1c0-1-1-2-2-1l-1-1c-1-1-3-2-3-4l-8-18a138 138 0 0 1-10-40l5-4c2 0 4 2 4 3l3 12 1 3 7-6c3-2 3-2 1-4l-8-11-15-24-6-8-1-2-4 4-1 3c-2 0-2 1-2 2 0 3 0 3-2 2-3-1-5-2-7-1l-15 5-14 10-13 13zm175-10l-3 1 5 3 5 9 3 9 2 1 9-4h1c0-2 1-2 2-3l1-2-4-11-1-2-13-3h-3l-4 2zm13 127l2-2-5 2-3-1c-2 1-2 1-2-1l-1-1c0-3 0-4 3-4h3c1 0 2 0 3-2l-2 1-4-1h-1l-1-5 1-1c5 0 8-3 11-6h-1l-10 1h-1c-2 0-2 0-2-2v-1c-1-2 0-3 2-3 4 0 6-2 9-3l4-2 1-3-2-1-10 1h-4l-1-1-1-4v-1l7-7c3-3 6-6 7-10v-4c0-2-1-3-2-3-2-1-2 1-2 2-1 4-3 8-6 11-2 3-5 7-9 8l-5 4-1 1c-2 0-3 2-4 0l-1 1c-2 0-3 1-3 4l-1 3-4 22c-1 2 0 3 3 3l2 2c-1 2 1 3 2 3l8 5 7 1c4 0 8-2 12-4l2-2zm-41-210h-17l-2 2 4 6c2 2 2 3 1 5l-2 3c-6 3-10 8-13 14l-4 6c-1 2-2 2-2 1l-2-2c-2-1-2-1-1-3 0-2 0-2-2-2-2-1-3-1-4-4l-3-1-3 3-4 11 1 5 2 4h3l3-3c2-2 4-2 6-2l-1 4-1 1-4 5c-1 1-3 2-5 1l-5-1-3-2c-1-1-2-3-3-1l-15 4-1 2 3 6 9 13 12 18 3 6 1 1 4 1 6 2 8 1c9 0 17-2 25-6l3-2c-4-3-8-5-11-9h-2l-7 2c-4 1-7 0-11-1l-4-2c-2-1-2-3-2-4 0-3 1-6 3-8l9-7 2-3-1-5c0-3 2-5 5-6 1 0 2 0 2 2v5c0 6 3 11 6 16l8 9c2 3 4 5 8 6h3a51 51 0 0 0 12-14v-4l1-2c1-2 2-2 4-2l9 4 12 3 6 1h1l-1-1v-1c-6-6-13-9-21-10l-4-1c-3-1-4-3-2-6l1-2h1l4 1c2 0 2 0 2-2l-1-11c0-8-2-16-7-23-3-6-6-10-11-14l-5-6c1-2 2-3 5-3l-2-3-8-10h-3v5l1 3c3 3 4 3 1 7zm277 74l2 1 3 1c2-1 5-1 6-4l1-1 1 1c3 2 5 1 7-1l2-3c0-2 1-2 2-1l1 2c3 4 8 4 11-1l1-3h3c2 3 5 4 9 4l1-1v-3l2-5v-3c-1-3-2-6 0-9l-1-2-2-4 2-6c2-3 1-5-2-5l-1-1c-1-3-4-3-7-3-1 0-3 1-3 3l-1 1c-1 2-1 2-3 1-1-1-2-1-3 1l-1 1h-3-1c-3-1-3-1-5 2-2 2-3 2-4 0-2-2-3-2-4 0l-1 1c-3 2-5 2-8 1v-1h-2l-1 1c-5 4-6 5-10 1l-2-1-4 3c-2 1-3 1-5-1l-3-2c-2-3-4-6-3-9 1-2 0-3-2-3h-3c-3-2-5-4-5-8 0-2-1-3-3-3-2-1-4-2-5-5l-1-4c0-2 0-2 2-2 2 1 2 1 3-1 0-2 0-2 2-2l2 1 3-1v-3l-2-4c-1-2 0-3 2-2l3-1 7-6 2-3v-6c0-2 0-2 2-3 5-2 9-8 8-14l-2-5 4-4c2-4 1-7-1-10l-1-1-1-4v-1l-1-2c-1-3-2-7-1-10 1-1 0-4-2-4l-2-1v-4l-2-4-9-5-1-1-2-1c-4-4-8-7-14-6-3 0-5-1-7-3s-4-2-7-2c-3-1-5 0-8 2l-2 1c-3-1-6 0-10 1l-1 1-4 1-6 1-3 2-7 5-2 2c0 1-1 2-2 1l-2 1c0 2-1 4-4 5l-2 4c0 2-1 2-2 3s-3 3-3 5l1 1c2 1 2 1 2 3l-2 2-1 3v5l1 2c1 2 1 4-1 5l-2 1v7l2 1c2 0 2 1 1 3l-1 3 5 11 3 2h1v4c0 1-1 2-2 1h-2c-1 2-2 1-3 1-2-1-3-3-3-5l-1-2-4 1-2 2c-1 1-1 2-3 1-2-2-5-2-8-1-2 1-4 0-6-1-2-2-3-2-5-2-4 0-6-1-8-4l-3-1-6 1c-2 1-4 0-6-1-1-1-2-1-2-3l-3-1-5-1c-2 1-5 0-7-1-2 0-4 3-3 4v1c2 3 0 6-3 6l-4 3c-2 2-2 4 1 5l2 3-2 6v3h2l3 2 1 1c3 1 3 0 3-3 0 0 1-2-1-2v-1c0-2 2-2 3-3l4 2v6l-4 2h3l3 1 7 2h2c0-1 2-3 1-5v-2c-1-1 0-3 2-3 2-1 3 0 4 2v6l-4 3h-1l1 1 7 4c3 1 5 2 7 1 3 0 5 0 6 3s3 4 6 3h2l8-1c3 0 4 1 5 4 1 1 1 2 2 1l4-1c3-2 6-2 9-2l3 1 1 2c0 2 2 3 4 2l1-1c2-2 4-2 5-2l2-1c1-1 2 0 3 1 3 2 4 5 5 7l1 2v2l1 2 2 2 8 5c-2 1-2 2-2 3l2 3c2 2 3 5 2 7l-2 1-3-2-4-2-9 1-3 3c3-1 5 1 7 3 1 1 1 4-1 5l-3 2-1-1v-2c0-2 0-2-3-3-1 0-2-1-1-2v-3l-9-3c-2 0-5 0-5 3-1 2-2 2-3 0l-6-4c-2-1-4-2-6-1-2 0-3 2-3 4l2 3c0 2 0 3 2 5v8l-1 8c0 1 0 2 2 2l2 2c4 2 7 2 11 0 2-1 4-1 6 1l1 1h5l4-2h4l2 2 4 1 4-2c1-2 2-2 3-1l2 1 4 1 2-2 3-1v-1l3 1 4 4c1 1 1 3-1 4l-2 1c2 3 3 6 2 9l-4 9 32-1-2-1c-4-1-6-3-6-7 0-3 2-4 4-3l3 1 2 2 1 4c1 2 1 2-1 2l-1 1 1 1h12l1-1 1-2 1-3v-5l1-1c2-1 2-2 1-3v-2c-1-2-2-4-1-6 0-3 1-4 4-2v1c2 1 3 0 3-2h2l3 1c2 0 2 0 3-2l1-1zm-155 76c0-2 1-3 3-3h4l18-3 36-4 20-2 27-2 20-1 16-1 9-1 13-1 15-1 14-2 11-1h11l10-1h8l14-1 12-1 4-1-3-1-5-1c-3-1-5-2-7-1l-2-1h-3l-3-1-3-1h-6c-2 0-4-2-6-1l-5-1h-4l-3-1-15-1-16-1c-3-1-6-2-9-1h-12l-5-1h-7-8-7l-8 1-5-1-15 1-11 1-25 2-14 2-27 3-10 3-1 1-2 7-1 1-7 7c-4 3-8 5-13 6l-15 3c-2 1-5 0-7-1h-4l-10 1-11 2-4 1c-9 3-16 8-22 15l-1 1 3 2c1 1 1 1 3-1l9-6a73 73 0 0 1 39-6c7 2 14 4 20 8 6 3 9 9 11 15v8l-1 4-1 1-2 4-4 4-5 2-7 5-4 3-8 5-14 3-5 1h-12l-11-2-5-2-2-1h-1l-4 4 10 4c7 2 14 3 21 2 11-1 22-4 32-10 9-5 17-11 25-19 1-1 2-2 2-5v-4l3-6c0-4 0-7-2-10-4-7-10-10-17-13-3 0-5-2-5-5-1-3 0-4 3-4l6 2zm-62-58v2l2 7c1 1 1 2-1 2l-2 2-6 3-13 6-13 5-21 8-18 6c-5 2-9 3-14 3h-5l-13-6-5-3v1a444 444 0 0 1 2 25l7 1 19 4 7 1c2 0 4 2 7 1l3 1 13 2c2 1 3 1 4 4h1c2-3 5-4 8-6 4-2 6-5 8-9l2-8c1-1 2-3 4-3 3 0 6 0 8 2 3 1 5 3 6 7l1-1c5-4 10-7 16-9 9-3 19-4 29-3 2 0 3 0 4 2l2 1 2-1 1-1v-4-3c-3-5-2-10 3-12l1-2c-1-2 0-2 1-3h3l-4-4-10-6-14-10c-1-2-3-2-5-1l-2 1h-11l-7-2zm286 42l-20 1 3 2c2 0 3 1 5 3l1 4c0 2-1 2-2 2l-3-3c-1-3-1-3-3-2l-2 1h-2c-2-1-3-1-3-4l1-1 2-2h-3l-9 1c-3 1-6 1-7 4-1 2-2 3 0 4l-7 2-3-1-4-2-1 2c-2 1-2 2-1 3v3h-4l-1-1h-2l-1 2v1c0 1-2 3-3 2-3-1-4-3-3-7v-1c-1 0-3 0-4 2l-6 3c-1 1-2 0-2-2 1-1 0-2-1-2-3 0-6-2-8-4s-3-2-5-2l-9 1a367 367 0 0 0-11 2l2 3 1 2-1 3 5 4 3 1c3 4 7 6 11 8l10 8 4 2c4 1 7 3 10 6 1 1 2 2 4 1l7-4 5-2c2-1 4 1 6 1l2 1v-1l-2-3c-2-2-1-3 1-4 3-1 5-1 5 1l3 4c1 2 2 2 4 2l6-2c2-1 3-1 2-4l2-1h11c3 0 4-1 3-4 0-2 0-2 2-2h5c2-1 3-1 1-3l-1-3 1-1c2 0 4-1 6 2 2-2 2-3 2-5v-1c0-2 0-4 2-4l1-1c2-4 1-7 0-10l-1-1c-2-1-3-2-4-5zm-294 40c2 3 2 6 0 9l-1 2-1 2c2 2 1 4 0 7v6c-1 3 0 4 2 5l2 1 4 2 9 2h9c10 0 19-1 27-6l1-1 3-1 7-4c4-3 7-7 9-11 1-3 2-6 0-9-1-1-1-2-2-1l-5-1-2-2v-2c-2-1-3-3-4-6l-1-1-8-3h-16l-18 5c-4 1-7 2-10 5l-5 2zm89-133l-4-2-10-13-14-11c-10-6-19-10-30-10-7 0-13 1-19 5-5 2-8 6-9 12l-1 6v1c-2 1-1 2-1 3l4 8 2 8 2 8c0 2 0 3 2 4l1 2c2 2 2 5 2 8 0 1 0 2 2 2l4 2 2 2 16 12 9 6 8 6 5 4 1 1 10 7 8 7h2c1-2 2-3 4-2l2-1c0-2 1-2 2-2l9-3 4-1-4-3-3-1c-1 2-3 3-5 3-4 2-7 1-11 0l-9-6-4-4-4-3-4-3v-1l-7-3-1-2c0-2 2-4 4-3 4 0 7 2 10 3 6 2 12 2 18-1 5-2 9-5 10-11 2-9 2-18-3-27v-7zm123 239h18c2 0 2 0 2-2l1-8v-6-1c-2-1-4-2-7-1h-16l-11 1-1-1h-1-1-13-1-2l-1-1-2 1h-3l-1-1-10 1h-9l-8-1-16 1h-17c-2 0-2 0-2 2l-1 11v4c0 2 0 2 2 2l7-1h93zM225 120l-1-4c-1-3-1-3 2-5h1l15-3 4-1c-2-3-5-4-8-6l-1 1h-2c-2 2-2 2-4 1l-4-3-4-1-6 1-9 2c-5 2-11 5-15 9l-10 11-4 7c-2 5-3 9-3 14-1 6-1 12 1 18 0 2 0 2 2 1a636 636 0 0 0 15-4v-1c0-7 3-13 6-19l5-3h3c3-1 7 0 9 3l2 6 1-2c3-6 6-11 11-15 2-1 2-1 1-4l-2-3c-1-2-2-2-4-1l-1 1zm61 105l-4-11-2-8-1-1h-4l-1 1c-5 5-10 9-16 12a75 75 0 0 1-46 8l-1 1-2 6c-1 1 0 1 1 2l11 5c2 1 4 2 6 1l10-1 15-3a227 227 0 0 0 34-12zm96-13l3 3c2 1 3 2 5 0s5-2 8-3l5 1h1c3-2 6-1 9 0l5 5h2c2-1 3-2 5-1l11 4h1c3-2 6-2 9-1h14c1-2 2-2 1-4v-4l2-1 1-1c2-1 2-3 2-6l-1-1c-3 2-5 1-7-1h-2l-4 3c-2 1-4 1-6-1l-3-2c-1-1-2 1-3 2-5 2-7 2-11-1-2-2-2-2-4-1-4 3-8 3-12-1h-3c-3 2-5 3-9 3h-1c-6 4-11 7-18 8zm41 61l-2 6 2 2 2 4-2 2v1l-2-1-2-3c-2-1-2-3 0-4l2-1-4-7-3-1c-2-1-5 1-6 4l-1 3-5-8c0-3 0-3-3-2l-7 1-5 2 5 5 3-3c1-1 1 0 2 1v1l1 2 2 1-1 2-1 1-1 3c2 3 3 6 3 10v2l3 3h5l2-1c0-4 1-6 4-8l3 1c3 1 5 3 6 5l1 1 2 3c0 2 1 2 2 2h2l11-4c2-2 4-1 6 0h2c2 2 5 1 7-1l-16-11-1 1c1 3 2 4 5 3l2 1-1 3c-2 1-4 2-7 1l-4-4c0-3 1-4 3-5l1-2-15-11zm79 50a333 333 0 0 0-15-8l-6 4-8 4-1 2v3l1 2-1 3c0 4 0 8 2 11v8c1 3 1 6-1 9l-1 2-1 1-2 2v2c-1 1-1 2-3 2l1 1h16l4-5c3-3 5-7 3-12v-1l-3-12-2-4c-1-2-1-5 1-6l5-2 11-6zM71 449c0-3-1-5-2-5-3-2-5-3-9-2s-8 4-11 6l-1 1c-3 0-5-1-6-3l-2-6v-2l-3-11-1-2c-3-2-5-6-7-9l-2-5h-2l-8 4-1 3 3 7h3c2-1 4 0 5 1 2 0 1 1 1 2h1l-1 2v2l4 11 3 9 1 2 6 2h2l17-1h8l1-1v-5zm319-311l1 1 6 10c1 0 2 1 1 2 0 2 2 2 2 2h2c2-1 4-2 6-1 4 0 7 2 10 4h2l5-2c4 0 7 1 11 3h1c3-2 5-2 8-2h2v-1h-1l-6-9-1-3c1-1 0-1-1-2l-2 1-2 1c-4 2-7 3-11 1l-5-3-2-1-3 2c-2 2-5 2-8 1s-5-2-6-4l-2-1-7 1zM253 313l3-16 2-8-1-2-15-3-2 1-1 3-3 16-1 5c0 2 0 2 2 2l9 2h7zM142 457c1-1 2-2 4-1h8l19-1h1c1 0 2-1 1-2v-3c0-3 0-3-2-3l-7 2c-8 2-15 3-23 0l-4-1-12-3c-4 0-7-2-11-1-2 0-2 0-2 2l1 2 1 1v6l2 1h10l1-1 5-4 1-1 2 1 4 3 1 3zm60-135l-1-6-2-1-16-3-1 1-2 7c0 2-1 4 1 6v1l3 5 2 1 1-1 14-8 1-2zm-27-8l1-10-1-2-5-8-10-18-1-1-2 3v2l5 7c2 2 3 5 3 8v3l6 9 4 7zm343 16l-9-4h-2l-10 5-3 2h1l12 4h5c1-1 3-1 3-4h1l2-3zm-138-82c-4-2-5-6-3-10h1v-2h-2l-4-1h-1v1l2 5-1 2-1 3c0 1-2 2-1 3v1l-3 3c5 0 9-2 13-5zm-188-8c0 2 0 4 2 5l1 3v3l5 13v1l1-1-1-14v-8l-2-1-6-1zm45-43l-5-8h-1l-8 6c-2 2-1 3 1 3 4 2 9 2 13-1zM407 35l4-1h3l1-2-4-4h-3c-3-1-7 2-7 4-1 1-1 2 1 2l5 1zm27 319l1-1c3-2 5-5 7-9 1-1 0-2-1-2h-1c-3 2-5 3-6 6v6zm6-29c-4-2-10-2-13 1v2l3 1 10-4zm152-196h-4l-3 1-5 6c4 0 10-2 12-7zm-56 327l3 1h15l-1-1-9-2-2 1-1 1h-5zM343 68V54l-3 9c2 1 0 4 3 5zm67 390h12l1-1-1-2c-5 0-8 1-12 3zm9-433l2-3 1-9v-1c-3 2-4 8-3 13zm105 329l-1-3-2-2-1 2c0 3 1 5 3 7l1 1v-1-4zM521 9c-4 2-6 6-8 9l1 1 3-3 3-3 1-4zm-15 453c-5-3-10-1-15-1l15 1zM381 244c1-2 3-1 4 0h2v-2l-2-1c-3-2-3-2-4 1v2zm-186-12l3 1 2-1 2-5-7 5zm219 70l4-4 1-2-2 1-2 2c-1 1-2 2-1 3zm-45-62c-3-1-5 0-5 2v1c2-1 4-1 5-3zm34 219l-10 1 10-1zm13-193l1 2h1c0-2 0-2-2-2zm116-10l4-1-4 1zm84-30h-4 4zm-142 35l2 1 1-1h-3zm51 73l-2-1v1h2zm-46-31v-1l-2-1 2 2z"/><path fill="#FC2065" d="M480 462l-2-3-3-1h-7l-27 1h-8l-2-1-2-18-2-21-1-11c0-1 0-2 2-2h30l8-1h62l2 2-2 19v12l-1 16-2 2-14 1-2-1-9-3h-11c-3 1-7 3-8 9h-1z"/><path fill="#040302" d="M345 451l5 1 4 2 1 1c4 3 3 8 0 10-5 1-9 3-14 2l-6 1-5-1c-5-1-7-4-5-8 0-2 1-2 2-3 4-2 8-4 13-4l5-1zm8 8l-5-1-8 1-5 1-2 1c7 1 13 0 20-2zm-58-8l5 1 3 1c4 1 5 4 5 9l-4 2-3 1h-8-10c-3 0-5-1-7-3-2-3-1-7 3-9l5-1 11-1zm1 6c-6-1-11 0-16 1v1l11 1 2-1c0-1 1-2 3-2zm310-7l8 2c4 2 5 5 4 9l-1 1c-1 4-3 4-6 4h-1c-3-2-6-1-10-2h-8c-2-1-3-2-3-4v-2c0-2 1-4 3-5l12-3h2zm6 8h-13 13z"/><path fill="#fff" d="M511 463v-1c1-1 3 0 4 1h-4z"/><path fill="#FC2065" d="M542 307v1l-2-1v-1l2 1zm-50 63l-2 1 2-1z"/><path fill="#040302" d="M495 367v-1 1z"/><path fill="#FC2065" d="M507 463v-1 1zm26-273l-1 1c-1 2-1 2-3 2l-3-1c-1-1-1 0-2 1 0 1-1 2-3 1v-1c-3-2-4-1-4 2-1 2 0 4 1 6v2c1 1 1 2-1 3l-1 1v5l-1 3-1 2-1 1h-12l-1-1 1-1c2 0 2 0 1-2l-1-4-2-2-3-1c-2-1-4 0-4 3 0 4 2 6 7 7l1 1-32 1 4-9c1-3 0-6-2-9l2-1c2-1 2-3 1-4a358 358 0 0 0-7-5v1l-3 1-2 2-4-1-2-1c-1-1-2-1-3 1l-4 2-4-1-2-2h-4l-4 2h-5l-1-1c-2-2-4-2-6-1-4 2-7 2-11 0l-2-2c-2 0-2-1-2-2l1-8v-6-2c-2-2-2-3-2-5l-1-3c-1-2 0-4 2-4 2-1 4 0 6 1l6 4c1 2 2 2 3 0 0-3 3-3 5-3l9 3v3c-1 1 0 2 1 2 3 1 3 1 3 3v2l1 1 3-2c2-1 2-4 1-5-2-2-4-4-7-3l3-3 10-1 3 2 3 2 2-1c1-2 0-5-2-7l-2-3c0-1 0-2 2-3l-8-5-2-2-1-2v-2l-1-2c-1-2-2-5-5-7-1-1-2-2-3-1l-2 1c-1 0-3 0-5 2l-1 1c-2 1-4 0-4-2l-1-2-3-1c-3 0-6 0-9 2l-4 1c-1 1-1 0-2-1-1-3-2-4-5-4l-8 1h-2c-3 1-5 0-6-3s-3-3-6-3c-2 1-4 0-7-1l-7-4-1-1h1l4-3v-6c-1-2-2-3-4-2-2 0-3 2-2 3v2c1 2-1 4-1 5h-2l-7-2-3-1h-3l4-2v-6l-4-2c-1 1-3 1-3 3v1c2 0 1 2 1 2 0 3 0 4-3 3l-1-1-3-2h-1c-2-1-2-1-1-3l2-6-2-3c-3-1-3-3-1-5l4-3c3 0 5-3 3-6v-1c-1-1 1-4 3-4 2 1 5 2 7 1l5 1 3 1c0 2 1 2 2 3 2 1 4 2 6 1l6-1 3 1c2 3 4 4 8 4 2 0 3 0 5 2 2 1 4 2 6 1 3-1 6-1 8 1 2 1 2 0 3-1l2-2 4-1 1 2c0 2 1 4 3 5 1 0 2 1 3-1h2c1 1 2 0 2-1v-4h-1l-3-2-5-11 1-3c1-2 1-3-1-3l-2-1v-7l2-1c2-1 2-3 1-5l-1-2v-5l1-3 2-2c0-2 0-2-2-3l-1-1c0-2 2-4 3-5s2-1 2-3l2-4c3-1 4-3 4-5l2-1c1 1 2 0 2-1l2-2 7-5 3-2 6-1 4-1 1-1c4-1 7-2 10-1l2-1c3-2 5-3 8-2 3 0 5 0 7 2s4 3 7 3c6-1 10 2 14 6l2 1 1 1 9 5 2 4v4l2 1c2 0 3 3 2 4-1 3 0 7 1 10l1 2v1l1 4 1 1c2 3 3 6 1 10l-4 4 2 5c1 6-3 12-8 14-2 1-2 1-2 3v6l-2 3-7 6-3 1c-2-1-3 0-2 2l2 4v3l-3 1-2-1c-2 0-2 0-2 2-1 2-1 2-3 1-2 0-2 0-2 2l1 4c1 3 3 4 5 5 2 0 3 1 3 3 0 4 2 6 5 8h3c2 0 3 1 2 3-1 3 1 6 3 9l3 2c2 2 3 2 5 1l4-3 2 1c4 4 5 3 10-1l1-1h2v1c3 1 5 1 8-1l1-1c1-2 2-2 4 0 1 2 2 2 4 0 2-3 2-3 5-2h4l1-1c1-2 2-2 3-1 2 1 2 1 3-1l1-1c0-2 2-3 3-3 3 0 6 0 7 3l1 1c3 0 4 2 2 5l-2 6 2 4 1 2c-2 3-1 6 0 9v3l-2 5v3l-1 1c-4 0-7-1-9-4h-3l-1 3c-3 5-8 5-11 1l-1-2c-1-1-2-1-2 1l-2 3c-2 2-4 3-7 1l-1-1-1 1c-1 3-4 3-6 4l-3-1-2-1zM478 36l1-2v-3c-2-2-4-2-6-2h-1c-1 3-4 5-8 4h-3c-2-1-2 1-3 2l1 1 1 1c1 1 0 2-1 3l-5 1c-1-1-3-1-5 1l1 2 3 3c1 1 1 2-1 2s-3 1-4 3v1l1 1h-2l-2 2 2 2h2c2 1 2 2 2 3l-2 3c-2 1-2 2-1 4 3 3 4 6 1 10-1 2-1 2 1 4 2 1 2 2 1 5v5l2 2h3l2-2 6-2h1c1 2 3 2 5 2l3-1v-3c0-3 3-6 6-6l4-1v-3c-1-1-2-2 0-4l2-4 2-2c3 0 4-1 6-3l-3-1-3-2c-1-4 2-9 5-10l3-2c-1-2-3-2-4-2-3-1-4-2-3-5v-1c-1-2 0-3 1-3l2-2h-1c-2-2-4-2-6-1h-6zm-6 142c-1-1-2-2-1-3 0-2-1-3 1-4v-3c-3-1-5-1-7 1-2 1-2 2-2 3l3 6c1 3 3 4 6 4 2 1 4-1 6-2v-1-4c0-2-1-2-3-2-3 1-3 2-3 5zm31-22l-2-5c-2-2-5-3-9-4l-1 1v1l1 1c1 1 2 3 1 4 0 2 0 4-2 4l-1 2c0 2 3 3 4 3l5-2c3 0 4-2 4-5zm-49-21l5-1 6-2c2 1 3-1 5-2l-1-1-5-1c-2-1-5 0-7 1l-2 2c-1 0-2 1-2-1v-1c-2-1-6 0-8 1-1 1-1 2 1 3 2 2 5 2 8 2zm-11-16l-3-3-2-3 2-2v-2l-2-1-6 1c-1 0-2 1-2 3 1 4 3 8 6 10 2 1 4 1 5-1l2-2zm113 60c1 0 3 0 3-2l3-3v-3h-2l-2-2-3-2h-4c-2 3-2 8 1 10l4 2zm-39-1c1 3 3 5 5 4 3-1 6-1 8-3 3-1 3-3 2-5l-3-4c-1-1-3-2-5-1l1 2v4l-4 3h-4zM504 65c2 3 2 5 1 7 0 2 1 3 2 3l3-1c1 0 2-1 2-3v-1-3-2c-2-4-3-5-7-5-3 1-5 3-5 6l2 1 2-2zm-113 45c-2-2-2-4-2-7 0-1 0-2-2-3s-3 0-5 1-3 2-2 4l1 3c0 2 2 3 4 3 1 0 4 2 5-1h1zm181 43l-4 1c-3 1-3 1-2 4 1 2 2 2 4 0l2-1c1-1 2 0 2 1l2 4 4 1v-2c0-3-1-5-3-7-2-1-3-2-5-1zm-157 30l6-3 2-4h1l1-2-6-3c-2 0-4 2-4 3s-1 2 1 2v2l-2 1-1 3 2 1zm74 8c2-1 4-1 5-3l1-4c0-2-1-4-3-5h-5v3c2 1 2 4 1 5l-2 2c1 2 2 1 3 2zm-9 16l2 1c1 1 2 1 3-1l1-3c1-1 0-2-1-3l-4-1c-3 1-5 2-6 6-1 2 2 5 4 4l1-1v-2zm-70-92c2 0 4 0 6-2 3-3 3-3 1-7-1-2-2-2-4-2-2 1-3 2-2 4 0 2-1 2-2 3l-2 2 1 1 2 1zm49-16l-3 1c-2 3-2 7 0 9l3 2h3v-3c-2-2-2-3 0-5h1v-3l-4-1zm-25 94l4-2v-2l-1-2c-2 0-4-1-4-4l-2-1c-2 0-4 3-4 5 1 3 5 6 7 6zm40-55c-3 0-4 1-4 3-1 2 0 4 2 6l2 1 3 1v-3c-2-2-2-3 1-4v-3l-4-1zm19-119h-2l1 2v2c-1 1-3 3-5 3l-1 1c0 1 2 4 3 3 4 0 6-2 8-5 1-3-1-6-4-6zm1 72l-2-3c-1-1 0-2 1-3l-1-2c-2-1-4-1-6 1l-1 1c-1 2 0 5 2 6 2 3 5 3 7 0zm-144 8l3-1 1-1-1-2c-2-1-2-1-1-4 1-2 0-3-1-3-3 0-5 1-6 3s0 4 1 6l4 2zm119-80c1 1 2 0 2-1v-2c-1-1-2-2-3-1-4 0-7 1-9 4v4l2 1c1 1 1 1 2-1l5-4h1zm36 167l3-1 3-3c1-2 2-3 1-5-1-1-3-2-5-1l-1 1-1 3c0 1-1 2-3 2l-1 1 4 3zm-26-64l-1 2-1 2 4 2c2-1 5-5 4-7l-1-1c-2-2-7-3-9-1v1l4 2zm0-19l-3 1-1 1c0 2-1 3-2 3l-1 2v1c3 2 4 2 7-1l3-3c1-2 1-4-2-4h-1zm-40-26h1l2-1-1-2-1-1c-2-1-2-2-1-4 0-1 0-2-2-2h-3l-2 3c0 3 3 7 7 7zm102 85c-1-3-2-4-4-4s-3 1-2 3c0 2 2 4 4 5l3 1c2-1 3-2 3-4l-1-2-3 1zm-74-12l-3-1-2-2 1-2v-1l-1-1c-2-1-4 0-5 1v6c2 2 6 3 10 0zm35-112l1 1c2 2 2 2 1 3v2l2 1h2l4-5-1-2-6-2-3 2zm3 161c3 1 7-4 7-6v-2c-2-1-4-1-5 1s-2 3-5 3l-1 1v1l4 2zM428 63c0-4-2-5-4-5l-2 3c1 2 1 4-1 6v2l2 1 1-1c2-2 4-4 4-6zm9-23l2-2c1-3 1-3 4-3l2-2-4-2c-3 0-6 2-7 6 0 2 0 2 2 3h1zm-29 83c-2 0-2 1-3 2l1 2 2 1c3 2 6 1 9 0h1c1-1 0-2-1-3h-5c-1-2-2-1-4-2zm32-27h1c2 1 2 0 3-1l-1-3c-3-1-7-1-9 1v2 1h6zm-47 25c-1 1 0 1 1 1 1 1 2 0 3-1s2-2 1-4l-3-2c-1-1-2 0-2 2v4z"/><path fill="#fff" d="M121 196a72 72 0 0 1 30-15c2-1 4 0 7 1 2 1 2 1 2-2l1-2c2-1 1-2 2-3l4-4 1 2 6 8 15 24 8 11c1 2 1 2-1 4l-7 6-1-3c-1-4-3-7-3-11 0-2-2-4-4-4h-1l-4 4v2c1 13 5 25 10 38l8 18c0 2 2 3 3 4l1 1c1-1 2 0 2 1l2 1 15 2 13 3 1 1v1c-2 9-4 17-4 25l-1 1h-2l-35-5-6-1-1-2v-2l-2-4a209 209 0 0 1-16-39l-7-21-5-16-1-1c0-4-4-6-8-3-2 2-2 3-1 6l10 32 3 11v2l-4 4-6-7c-1-1-1-2-3-2h-3l-1-1c-2-2-4-2-7-2h-25l-11 1h-1c-2 0-2 0-2-2v-5l2-12 2-6a147 147 0 0 1 13-25v-1c1 1 1 0 2-1l9-10c1 0 2-1 1-2zm257 70l-6-2c-3 0-4 1-3 4 0 3 2 5 4 5 8 3 14 6 18 13 2 3 2 6 2 10l-3 6-1 4c1 3 0 4-1 5-8 8-16 14-25 19-10 6-21 9-32 10-7 1-15 0-21-2l-10-4 4-4h1l2 1 5 2 11 2h12l5-1 14-3 8-5 4-3a100 100 0 0 0 11-7l5-4 2-4 1-1 1-4v-8c-2-6-5-12-11-15a58 58 0 0 0-43-7l-16 5-9 6c-2 2-2 2-3 1l-3-2 1-1c6-7 13-12 22-15l4-1 11-2 10-1h3c3 1 6 2 8 1l15-3c5-1 9-3 13-6l7-7 1-1 2-7 1-1 10-3 27-3 14-2 25-2 11-1 15-1 5 1 8-1h21l6 1h12c3-1 6 0 9 1l16 1 15 1 3 1h4l5 1c2-1 4 1 6 1h6l3 1 3 1h3l1 1c3-1 5 0 7 1l6 1 2 1-3 1-12 1-14 1h-8l-10 1h-11l-11 1-14 2-15 1-13 1-9 1-16 1-20 1-27 2-20 2-36 4-19 3h-3c-2 0-3 1-3 3zm38-21v5c0 2 1 3 3 2l10-2c2-1 2-3 2-5l-1-2c-1-6-5-6-9-7l-5 1-5 3c-3 2-5 6-4 10l1 2 3 2h2l1-1c1-1 2-3 0-4l-1-3c1-1 1-2 3-1z"/><path fill="#FC2065" d="M602 250l4 4 1 1c1 3 2 6 0 10l-1 1c-2 0-2 2-2 4v1c0 2 0 3-2 5-2-3-4-2-6-2l-1 1 1 3c2 2 1 2-1 3h-5c-2 0-2 0-2 2 1 3 0 4-3 4h-11l-2 1c1 3 0 3-2 4l-6 2-4-1-3-5c0-2-2-2-5-1-2 1-3 2-1 4l2 3v1l-2-1c-2 0-4-2-6-1l-5 2-7 4c-2 1-3 0-4-1-3-3-6-5-10-6l-4-2-10-8c-4-2-8-4-11-8l-3-1-5-4 1-3-1-2-2-3a375 375 0 0 1 11-3h9c2 0 3 0 5 2s5 4 8 4c1 0 2 1 1 2 0 2 1 3 2 2l6-3c1-2 3-2 4-2v1c-1 4 0 6 3 7 1 1 3-1 3-2v-1l1-2h2l1 1h4v-3c-1-1-1-2 1-3l1-2 4 2 4 1 6-2c-2-1-1-2 0-3 1-4 4-4 7-5l9-1h3l-2 2-1 1c0 3 1 3 3 4h2l2-1c2-1 2-1 3 2 0 2 1 3 3 3 1 0 2 0 2-2l-1-4c-2-2-3-3-5-3l-3-2 20-1zm-70 38l4-2 1-1v-3l-3-1c-1 0-2 0-2-2l-2-2-3-1-1 2v2c-1 4 2 7 6 8zm48-22l1 3-1 2-2 1h-3l-1 1c0 2 2 4 4 4h4c3-1 4-2 4-5v-2c0-2-3-5-6-4zm-76 1l2 3v2l-2 1v2c0 1 1 2 3 2 1 0 3 0 4-2v-5c-2-2-3-4-7-3zm51 0l-4 1-1 1 2 2h2l4 2 1 1h2c2-2 2-4 0-5-2-2-4-2-6-2zm10-10l2 3 1 2c2 2 3 2 5 0v-3c-1 0-2-1-1-2v-2l-5-1c-1 0-2 1-2 3z"/><path fill="#fff" d="M597 352l-14-4c-13-3-26-8-38-13l-19-9-24-12-9-5-5-4-3-1-3-2-5-3-2-1-2-1-8-4v-1l-5-3-9-6-3-2-3-2-3-2-3-3-8-6-3-3h2l15-2 15-1 2 1 3 2 53 37 41 27 26 16 11 6h1v1zM397 157v7c5 9 5 18 3 27-1 6-5 9-10 11-6 3-12 3-18 1-3-1-6-3-10-3-2-1-4 1-4 3l1 2 7 3v1l4 3 4 3 4 4 9 6c4 1 7 2 11 0 2 0 4-1 5-3l3 1 4 3-4 1-9 3c-1 0-2 0-2 2l-2 1c-2-1-3 0-4 2h-2l-8-7-10-7-1-1-5-4-8-6-9-6-16-12-2-2-4-2c-2 0-2-1-2-2 0-3 0-6-2-8l-1-2c-2-1-2-2-2-4l-2-8-2-8-4-8c0-1-1-2 1-3v-1l1-6c1-6 4-10 9-12 6-4 12-5 19-5a64 64 0 0 1 44 21l10 13 4 2zm-81-6l1 4 2 5 1 4 1 10 2 2 3 2 3 2h2c1 0 2 0 2 2s0 2 3 3h3l4 3v2l1 1 1 1 5 1h5l3-1 7 3c8 4 15 4 21-1 4-3 7-7 6-12l-1-5-2-8-1-3c-1-5-4-10-7-14-2-4-6-6-9-9l-14-11c-8-5-18-6-27-2l-9 5c-4 4-5 10-6 16z"/><path fill="#FC2065" d="M520 396h-18-75l-7 1c-2 0-2 0-2-2v-4l1-11c0-2 0-2 2-2h17l16-1 8 1h10l9-1 1 1h3l2-1 1 1h18l1 1 11-1h16c3-1 5 0 7 1v7l-1 8c0 2 0 2-2 2h-18zM225 120l1-1c2-1 3-1 4 2l2 2c1 3 1 3-1 4-5 4-8 9-11 15l-1 2-2-6c-2-3-6-4-9-3h-3l-5 3c-3 6-6 12-6 19v1l-5 1-10 3c-2 1-2 1-2-1-2-6-2-12-1-18 0-5 1-9 3-14l4-7 10-11 15-9 9-2 6-1 4 1 4 3c2 1 2 1 4-1h2l1-1c3 2 6 3 8 6l-4 1-15 3h-1c-3 2-3 2-2 5l1 4z"/><path fill="#fff" d="M286 225a242 242 0 0 1-34 12l-15 3-10 1c-2 1-4 0-6-1l-11-5c-1-1-2-1-1-2l2-6 1-1h18c10-1 19-4 28-8 6-3 11-7 16-12l1-1h4l1 1 2 8 4 11z"/><path fill="#FC2065" d="M423 273l15 11-1 2c-2 1-3 2-3 4 1 3 2 4 4 5 3 1 5 0 7-1l1-3-2-1c-3 1-4 0-4-3v-1l16 11c-2 2-5 3-7 1h-2c-2-1-4-2-6 0a29 29 0 0 1-13 4c-1 0-2 0-2-2l-2-3-1-1-5-5-4-1c-3 2-4 4-4 7l-2 2h-5l-3-3v-2c0-4-1-7-3-10l1-3 1-1 1-2-2-1-1-2v-1c-1-1-1-2-2-1l-3 3-5-5 5-2 7-1c3-1 3-1 3 2l5 8 1-3c1-3 4-5 6-4l3 1 4 7-2 1c-2 1-2 3 0 4l2 3h2l2-2-2-4-2-2 2-6zm79 50l-11 5-5 3c-2 1-2 4-1 6l2 4 3 12v1c2 5 0 9-3 12l-4 5h-16l-1-1c2 0 2-1 3-2v-2l2-2 1-1 1-2c2-3 2-6 1-9v-3-1-2-2c-2-3-2-7-2-11l1-3-1-2v-3l1-2 8-4 6-4h1l14 8zM71 449l-1 5-1 1h-8l-17 1h-2l-6-2-1-2-3-9-4-11v-2l1-2h-1c0-1 1-2-1-2-1-1-3-2-5-1h-4l-2-7 1-3 8-4h2l2 5c2 4 4 7 7 9l1 2 3 11v2l2 6c1 2 3 3 6 3l1-1c3-2 7-5 11-6s6 0 9 2c1 0 2 2 2 5z"/><path fill="#fff" d="M253 313h-7l-9-2c-2 0-2 0-2-2l1-5 3-16 1-3 2-1 15 3 1 2-2 8-3 16zm-8-7l-2-4c-2-1-3 0-4 1l-1 2 1 2c1 2 2 3 3 2 2 0 3-2 3-3z"/><path fill="#FC2065" d="M142 457l-1-3-4-3-2-1-1 1-5 4-1 1h-10l-2-1v-6l-1-1-1-2c0-2 0-2 2-2 4-1 7 1 11 1a116 116 0 0 1 16 4c8 3 15 2 23 0l7-2c2 0 2 0 2 3v3c1 1 0 2-1 2h-1l-19 1h-7-1c-2-1-3 0-4 1z"/><path fill="#fff" d="M291 197l13 3 1 2 4 11-1 2c-1 1-2 1-2 3h-1l-9 4-2-1-3-9-5-9-5-3 3-1 7-2zm13 16l-1-1-3-2h-2v2l1 1c1 3 2 3 4 1l1-1z"/><path fill="#FC2065" d="M202 322l-1 2-14 8-1 1-2-1-3-5v-1c-2-2-1-4-1-6l2-7 1-1a177 177 0 0 1 18 4l1 6zm178-74c-4 3-8 5-13 6l3-4v-1c-1-1 1-2 1-3l1-3 1-2-2-5v-1h1l4 1h2v2h-1c-2 4-1 8 3 10zm-188-8l6 1 2 1v8l1 14-1 1v-1a1514 1514 0 0 1-6-19c-2-1-2-3-2-5zm70-123h-1l-5-1c3-4 2-4-1-7l-1-3v-5h3l8 10 2 3c-3 0-4 1-5 3zm-25 80c-4 3-9 3-13 1-2 0-3-1-1-3l8-6h1l5 8zM407 35l-5-1c-2 0-2-1-1-2 0-2 4-5 7-4h3l4 4-1 2h-3l-4 1zm27 319v-6c1-3 3-4 6-6h1c1 0 2 1 1 2-2 4-4 7-7 9l-1 1zm6-29l-10 4-3-1v-2c3-3 9-3 13-1zm152-196c-2 5-8 7-12 7l5-6 3-1h4zm-56 327h5l1-1 2-1 9 2 1 1h-15l-3-1zM343 68c-3-1-1-4-3-5l3-9v14zm67 390c4-2 7-3 12-3l1 2-1 1h-12zm9-433c-1-5 0-11 3-13v1l-1 9-2 3zm105 329v5l-1-1c-2-2-3-4-3-7l1-1c1-1 2 0 2 1l1 3zM521 9l-1 4-3 3-3 3-1-1c2-3 4-7 8-9zm-15 453l-15-1c5 0 10-2 15 1zM381 244v-2c1-3 1-3 4-1l2 1v2h-2c-1-1-3-2-4 0zm-186-12l7-5-2 5-2 1-3-1zm219 70c-1-1 0-2 1-3l2-2 2-1-1 2-4 4zm-45-62c-1 2-3 2-5 3v-1c0-2 2-3 5-2z"/><path fill="#fff" d="M465 293l2 2 3 2-9-5h2l2 1z"/><path fill="#FC2065" d="M403 459l-10 1 10-1zM297 326h-3l5-2-2 2z"/><path fill="#fff" d="M457 289l-5-3c2 0 4 1 5 3zm15 8l4 4-4-3v-1z"/><path fill="#FC2065" d="M616 226h-4 4zm-142 35h3l-1 1-2-1zm51 73h-2v-1l2 1zm-46-31l-2-2 2 1v1z"/><path fill="#fff" d="M457 289l2 1-2-1z"/><path fill="#FC2065" d="M448 282l1 1-1-1zm149 70v-1 1zm-132-60v0z"/><path fill="#fff" d="M472 297l-1 1v-1h1z"/><path fill="#FC2065" d="M447 282c0-1 0 0 0 0zm1 0h-1 1zm-95 177c-7 2-13 3-20 2l2-1 5-1 8-1 5 1zm-57-2c-2 0-3 1-3 2l-2 1-11-1v-1c5-1 10-2 16-1zm316 1h-13 13z"/><path fill="#040302" d="M478 36h6c2-1 4-1 6 1h1l-2 2c-1 0-2 1-1 3v1c-1 3 0 4 3 5 2 0 3 0 4 2l-3 2c-3 1-6 6-5 10l3 2 3 1c-2 2-3 3-6 3l-2 2-2 4c-2 2-1 3 0 4v3l-4 1c-3 0-6 3-6 6v3l-3 1c-2 0-4 0-5-2h-1l-6 2-2 2h-3l-2-2v-5c1-3 1-4-1-5-2-2-2-2-1-4 3-4 2-7-1-10-1-2-1-3 1-4l2-3c0-1 0-2-2-3h-2l-2-2 2-2h2l-1-1v-1c1-2 2-3 4-3s2-1 1-2l-3-3-1-2c2-2 4-2 5-1l5-1c1-1 2-2 1-3l-1-1-1-1c1-1 1-3 3-2h3c4 1 7-1 8-4h1c2 0 4 0 6 2v3l-1 2zm7 15l-3-2-1-2 1-4c1-2 0-2-1-2-3 0-5 0-7-2l-5-1-1 2c0 2-2 3-4 4l-3 2 2 3c1 2 1 3-2 4l-7 2 3 3 1 3-3 4c-1 1-1 2 1 3l2 5-2 5v2c2 1 2 3 3 5h7l2-1 5-4 1-3 3-6 1-1h-3c-2 1-4 0-6-1l-1-2c-1-3 2-6 5-7l7-1c0-3 3-5 5-8zm-5 15l-2-3h-3l-1 2c-1 1 0 1 1 1h5zm-8 112c0-3 0-4 3-5 2 0 3 0 3 2v5c-2 1-4 3-6 2-3 0-5-1-6-4l-3-6c0-1 0-2 2-3 2-2 4-2 7-1v3c-2 1-1 2-1 4-1 1 0 2 1 3zm31-22c0 3-1 5-4 5l-5 2c-1 0-4-1-4-3l1-2c2 0 2-2 2-4 1-1 0-3-1-4l-1-1v-1l1-1c4 1 7 2 9 4l2 5zm-49-21c-3 0-6 0-8-2-2-1-2-2-1-3 2-1 6-2 8-1v1c0 2 1 1 2 1l2-2c2-1 5-2 7-1l5 1 1 1c-2 1-3 3-5 2l-6 2-5 1zm-11-16l-2 2c-1 2-3 2-5 1-3-2-5-6-6-10 0-2 1-3 2-3l6-1 2 1v2l-2 2 2 3 3 3zm113 60l-4-2c-3-2-3-7-1-10h4l3 2 2 2h2v3c-2 1-2 2-2 3-1 2-3 2-4 2zm-39-1h4l4-3v-4l-1-2c2-1 4 0 5 1l3 4c1 2 1 4-2 5-2 2-5 2-8 3-2 1-4-1-5-4zM504 65l-2 2-2-1c0-3 2-5 5-6 4 0 5 1 7 5v6c0 2-1 3-2 3l-3 1c-1 0-2-1-2-3 1-2 1-4-1-7zm-113 45h-1c-1 3-4 1-5 1-2 0-4-1-4-3l-1-3c-1-2 0-3 2-4s3-2 5-1 2 2 2 3c0 3 0 5 2 7zm181 43c2-1 3 0 5 1 2 2 3 4 3 7v2l-4-1-2-4c0-1-1-2-2-1l-2 1c-2 2-3 2-4 0-1-3-1-3 2-4l4-1zm-157 30l-2-1 1-3 2-1v-2c-2 0-1-1-1-2s2-3 4-3l6 3-1 2h-1l-2 4-6 3zm74 8c-1-1-3 0-3-2l2-2c1-1 1-4-1-5v-3h5c2 1 3 3 3 5l-1 4c-1 2-3 2-5 3zm-9 16v2l-1 1c-2 1-4-2-4-4 1-4 3-5 6-6l4 1c1 1 2 2 1 3l-1 3c-1 2-2 2-3 1l-2-1zm-70-92l-2-1-1-1 2-2c1-1 2-1 2-3-1-2 0-3 2-4 2 0 3 0 4 2 2 4 2 4-1 7-2 2-4 2-6 2zm49-16l4 1v3h-1c-2 2-2 3 0 5v3h-3l-3-2c-2-2-2-6 0-9l3-1zm-25 94c-2 0-6-3-7-6 0-2 2-5 4-5l2 1c0 3 2 4 4 4l1 2v2l-4 2zm40-55l4 1v3c-3 1-3 2-1 4v3h-3l-2-2c-2-2-3-4-2-6 0-2 1-3 4-3zm19-119c3 0 5 3 4 6-2 3-4 5-8 5-1 1-3-2-3-3l1-1c2 0 4-2 5-3v-2l-1-2h2zm1 72c-2 3-5 3-7 0-2-1-3-4-2-6l1-1c2-2 4-2 6-1l1 1v1c-1 1-2 2-1 3l2 3zm-144 8l-4-2c-1-2-2-4-1-6s3-3 6-3c1 0 2 1 1 3-1 3-1 3 1 4l1 2-2 1-2 1zm119-80h-1l-5 4c-1 2-1 2-2 1l-2-1v-4c2-3 5-4 9-4 1-1 2 0 3 1v2c0 1-1 2-2 1zm36 167l-4-3 1-1c2 0 3-1 3-2l1-3 1-1c2-1 4 0 5 1 1 2 0 3-1 5l-3 3-3 1zm-26-64l-4-2v-1c2-2 7-1 9 1l1 1c1 2-2 6-4 7l-4-2 1-2 1-2zm0-19h1c3 0 3 2 2 4l-3 4c-3 2-4 2-7 0v-1l1-1 2-4 1-1 3-1zm-40-26c-4 0-7-4-7-7l2-3h3c2 0 2 1 2 2-1 2-1 3 1 4l1 1 1 2-2 1h-1zm102 85l3-1 1 2c0 2-1 3-3 4l-3-1c-2-1-4-3-4-5-1-2 0-3 2-3s3 1 4 4zm-74-12c-4 3-8 2-10 0v-6c1-1 3-2 5-1l1 1v1l-1 2 2 2 3 1zm35-112l3-2 6 2 1 2-4 5h-2l-2-1v-2c1-1 1-1-1-3l-1-1zm3 161l-4-2v-1l1-1c3 0 4-1 5-3s3-2 5-1v2c0 2-4 7-7 6zM428 63c0 2-2 4-4 6l-1 1-2-1v-2c2-2 2-4 1-6l2-3c2 0 4 1 4 5zm9-23h-1c-2-1-2-1-2-3 1-4 4-6 7-6l4 2-2 2c-3 0-3 0-4 3l-2 2zm-29 83c2 1 3 0 4 2h5c1 1 2 2 1 3h-1c-3 1-6 2-9 0l-2-1-1-2c1-1 1-2 3-2zm32-27h-6v-2-1c2-2 6-2 9-1l1 3c-1 1-1 2-3 1h-1zm-47 25v-4c0-2 1-3 2-2l3 2c1 2 0 3-1 4s-2 2-3 1c-1 0-2 0-1-1zm23 124c-2-1-2 0-3 1l1 3c2 1 1 3 0 4l-1 1h-2l-3-2-1-2c-1-4 1-8 4-10l5-3 5-1c4 1 8 1 9 7l1 2c0 2 0 4-2 5l-10 2c-2 1-3 0-3-2v-5zm5 1l4-2h-4v2zm-164-96c5-1 9 1 12 4l2 3 1 2v1l-4 11-4 7-5 2c-4 0-8-1-11-5a25 25 0 0 1-5-21l1-1c4-3 9-3 13-3zm3 9l-8-2c-2 0-2 1-2 2l2 10 4 4c2 2 3 2 5 0l4-8c-4 0-5-2-5-6zm-5-38l1 1 3 4 7 7 7 8c1 1 1 3-1 3l-3 1-2-1-13-16-2-3c-1-2 1-4 3-4zm277 167c-4-1-7-4-6-8v-2l1-2 3 1 2 2c0 2 1 2 2 2l3 1v3l-1 1-4 2zm0-7l-1 1 1-1zm48-15c3-1 6 2 6 4v2c0 3-1 4-4 5h-4c-2 1-4-2-4-4l1-1h3l2-1 1-2-1-3zm-76 1c4-1 5 1 7 3v5c-1 2-3 2-4 2-2 0-3-1-3-2v-2l2-1v-2l-2-3zm51 0c2 0 4 0 6 2 2 1 2 3 0 5h-2l-1-1-4-2h-2l-2-2 1-1 4-1zm10-10c0-2 1-3 2-3l5 1v2c-1 1 0 2 1 2v3c-2 2-3 2-5 0l-1-2-2-3zM316 151c1-6 2-12 6-16l9-5c9-4 19-3 27 2l14 11c3 3 7 5 9 9 3 4 6 9 7 14l1 3 2 8 1 5c0 5-2 9-6 12-6 5-13 5-21 1l-7-3-3 1h-10l-1-2-1-1-1-2c0-2-1-2-3-3h-3c-3-1-3-1-3-3s-1-2-2-2h-2l-3-2-3-2-2-2-1-10-1-4-2-5-1-4zm19 13h2c5-2 7-1 9 4l1 5c0 1 1 2 2 1 3 0 5 1 6 4l3 2c2-1 4 0 6 2l1 3c0 2 1 2 2 3l3 1c1 0 2-1 1-2v-1l-2-7-1-3v-8-6l1-7 2-1h1v-1l-1-1c-6-6-13-11-21-14-3-2-7-3-10-3-10 0-16 6-17 16v4l2 2h4c2 0 4 1 5 3l1 4zm44 26l4-2c2-2 2-4 2-6s0-3-2-4c-3-1-3-3-1-5l1-1v-1l-2-7-3-4h-1c-1 1-3 3-2 5v3l-1 5v2c2 1 2 3 2 5-1 2 0 4 2 6 2 1 2 1 1 4zm-40-22l-3 2v7c2 0 2 1 2 2 1 1 1 2 2 1l1-1c0-4 0-7-2-11zm-9 7l-1-8-1-4h-1v5l1 6 2 1zm20 13v-1c1-2 0-4-1-6 0-1 0-2-1-1l-1 2 3 6zm7-4v2h1l-1-2zM245 306c0 1-1 3-3 3-1 1-2 0-3-2l-1-2 1-2c1-1 3-2 4-1l2 4zm59-93l-1 1c-2 2-3 2-4-1l-1-1v-2h2l3 2 1 1z"/><path fill="#FC2065" d="M480 66h-5c-1 0-2 0-1-1l1-2h3l2 3z"/><path fill="#fff" d="M421 246v-2h4l-4 2zm-161-87c0 4 1 6 5 6l-4 8c-2 2-3 2-5 0l-4-4-2-10 2-2 8 2z"/><path fill="#FC2065" d="M532 281l-1 1 1-1zm-153-91c1-3 1-3-1-4-2-2-3-4-2-6 0-2 0-4-2-5v-2l1-5v-3l2-5h1l3 4 2 7v1l-1 1c-2 2-2 4 1 5 2 1 2 2 2 4s0 4-2 6l-4 2z"/></g><g class="frame--3" fill-rule="evenodd" clip-rule="evenodd"><path fill="#040302" d="M492 370c-1 1 0 1 1 1l8 1h27l11 1 5-1 2 1 2 3v26c0 2-1 4-4 4h-3v4l-1 6-1 6v4l-2 13-1 9 5-1c5-1 10 0 14 4 5 3 5 7 3 12l-1 1c-3 1-5 2-7 0h-14l-3-1h-5l-4 1-9-1c-1-1-3-2-4-1v1l-1 2-1 1v-1l-2-2v-1 1l-1 2-1 1c1 2-1 1-2 1l-4 1-1 1a1154 1154 0 0 1-13-2c-2-1-4-2-4-5 1-6 5-8 8-9h11l9 3 2 1 14-1 2-2 1-16v-12l2-19-2-2h-62l-8 1h-30c-2 0-2 1-2 2l1 11 2 21 2 18 2 1h8l27-1h7l3 1 2 3-1 4h-42l-7-1-3-1-2 1h-15-1c-5 2-10 2-16 3-3 0-6-1-9-4-2-3-1-7 1-9l6-3 12-1 4 1h2c4-2 8-3 13-3v-2l-4-29-1-9c0-1 0-2-2-3h-3c-2-1-3-3-3-5v-5-17c0-2 0-5 2-6l1-2h41l2-1 2-6-1-1-11-14-1 3-4 4-4 2h-1c-3 1-5 0-6-2-2-5-3-9 1-13l5-4 2-1c-1-2-3-3-3-5h-7c-4-1-7-3-8-8-1-1 0-3 2-4l3-1-7-10-1-1c-2 0-3-1-4-3h-2c-2 2-4 1-6 0-3-1-6-4-8-7l-2-1v2c-1 2-2 2-3 2-4 0-7-2-10-5l-3-4c-2-1-3 0-3 2a58 58 0 0 1-21 28c-6 5-12 9-19 12s-13 5-20 5l-6 1h-6l-8-1c-3-1-7-1-10-4l-2-1c-3-2-5-4-5-7-1-2-1-2-2-1-4 2-8 1-12-1l-6-2c-3-1-6-3-7-6-1-2-2-2-4-2l-2-1-1 3v2h-2l-6-1-1-1-2-2h-4l-3-1c-2 0-4-1-5-3l-4-2-6-1h-1c-1 1-2 0-4-1l-9-2c-1 0-2 0-2 2v8c1 3 0 5-3 6l-9 6v2l5 10 4 5 9 15 1 4-2 1c-3-1-4 1-4 3l-4 8-7 13-7 14-11 18-4 7-2 4-4 6-2 3c0 1-1 2-2 1h-1v2h2l8-2 8-2h6l5 2 1 2c1 3 3 5 2 8 1 2 0 4-1 6l1 4-6-1h-2c-2 1-4 2-6 1h-28l-2-1 1-2h-3l-3-1v2l-1 2-8 1h-8c-3 1-6 0-9-1l-1-2v-5-2c0-3 0-5 2-7s1-2 0-3l-2-1c-3-1-4-3-3-6l2-5 4-4 1-2 33-59v-3l-13-21-2-1v1c-1 2-2 4-1 7-2 2-2 4-2 5l-1 6-1 1-1 3-2 8-2 7a724 724 0 0 0-4 13h-2l2 4-1 2c-3 0-5 2-8 3l-14 5-4 1-3 1-4 1-20 9-11 3-4 1-3 1-1 1 4 12 3-1c4-1 8-2 13-1l5 2 1 1c5 4 9 8 9 14l-1 4 1 4c1 1 1 2-1 2H59l-16 1-8 1h-2c-3 0-3-1-3-4v-2c-2-2-2-5-3-7l-5-15-1-1h-4c-2 0-4-2-4-4l-3-8-2-9c0-2 0-2 3-3h1l9-7 1-2c-1-3-3-5-3-8l-1-4 2-1h3l11-5 11-4a488 488 0 0 0 34-15l1-6 2-10 5-23 3-18v-3c-3-5-4-11-5-17l1-8 1-4v-1-4c0-2 0-3-2-4v-2-3l-1-1c-2-1-1-2-1-3l1-11v-4l3-12a86 86 0 0 1 41-51c6-3 12-6 20-6h3l1-2 12-8 5-3c-2-5-1-11-1-16l1-12 4-10c5-9 11-16 19-22l12-5 7-2 1-1c-2-2 0-4 0-6l2-1c4 0 8 0 12 2l19 11 3 3v-1c0-3 0-7-3-10-2-2-2-4-1-7 1-1 3-2 4 0 2 4 6 6 9 10l8 8 2 2c1-3 0-6-1-10h6c1-1 1 0 1 1l1 4v21 2l7 6 2 4c1 2 1 2 3 1l12-5 9-5h8l7-12v-1c2-1 2-3 2-5v-6c-1-3-1-6 1-8l1-3c1-2 2-4 5-4l1-1c0-3 1-5 3-7l1-3c-2-3-2-6-1-10l2-7c1-3 5-5 8-4l2 1 2 7v2h1c7-4 14-6 21-6 7-1 14 1 21 5l13 11 1 1 2 2 1 1c-1 1 1 2 2 3l-1-2-1-1-1-1h-1v-3l1-9v-5l1-8c0-1 1-2-1-2v-2l2-5v-2h-3l-11-1-4-2v-2c2-5 7-10 13-10h5l4 1v-2c0-4 1-8 3-11 1-3 4-4 7-4 2 1 3 1 3 3l1 4v4l10-9h1c3 0 5-2 8-3l11-2 5-2c5-2 10-3 15-1l2 1 5 1c7 0 13 3 18 8l1 2c1 3 3 3 5 4 0-5 2-8 5-11 3-5 10-4 13 1 2 4 1 6-1 9l-5 5-1 1c-2 1-2 1-1 3l1 3 3 7c2 3 2 6 1 9v2l2 4 1 3 1 2 4 5 1 9-2 3-2 3-1 3v8l-2 3-6 6-1 2v4c0 3-1 5-3 7l-8 6-1 2c1 5 0 8-5 11h-1l2 2 2 5c0 2 1 3 3 3 3 2 5 4 6 8v4l3-1 2-2h4c3 2 5 2 7 0s3-2 5-1 4 0 6-1l2-1h7c2-2 5-2 7-1l2-1c2-1 3-2 5-1 1 0 2 0 3-2l2-3c-1-4 0-8 2-11l5-4c2-1 5 0 6 3l-1 3 2-1c4-2 8-1 11 2 2 1 3 4 1 6-1 3-4 5-7 6l-3 1 3 5c2 4 2 8 0 12v2l3 5-1 4v2l2 1a579 579 0 0 1 27 3c0 1 2 1 1 3l-4 4-8 1-8 2-4 1h-1l-6 3c-2 0-2 1-3 2-1 3-3 3-6 3l-6-1c-1-1-3 0-4 1-2 4-6 4-9 5l-3-2-1-1-1 1c-3 3-6 4-9 3h-2l-7 2h-2c-2 3-5 2-7 2h-2c-2 1-2 1-2 3l-1 7c-2 2-2 5-2 8l-1 2v2c0 4-1 8-4 11l-2 4c0 3-2 4-4 5l-1 1c1 1 3 3 3 5l-1 3 1 1h17c3 2 6 1 9-1 2-2 3-2 6-1 2 1 5 1 8-1l-2-1c-3-2-4-5-5-8l1-3 5-6c3-3 8-1 10 2l1 1c0 4 0 7-2 11 3 0 4-1 4-4v-3l2-3c3-1 5-2 7-1 1 0 2 0 2-2l2-1h12l4-1c2 1 2 0 3-1l6-9c3-2 6-4 10-4 4 1 8 4 8 7s-1 5-3 7v1l4 2c3 3 4 7 2 10l-1 1-8 2h-3l-3-1v4c4 4 4 9 3 14l-3 7-2 5c-2 3-3 6-6 7l-1 1-4 1c-2-1-2 0-2 1l-2 4-4 4-4-1-3-1c-2-1-2-1-3 1l-2 3c-3 4-8 4-12 2l-1-1-2 1-1 1c-1 2-3 3-5 2l-1-1c-2-3-6-1-8-1s-3 1-3 2c-3 4-7 5-11 3-3-1-6-4-8-7l-3-1c-1 1-3 2-2 3l-1 5c0 4-2 7-3 10l-8 10-3 2-8 3-2 2 5 1 7 2 2 1h4c2-1 3-1 3-3l3-4c2-3 5-5 8-6l8 1c2 1 3 4 2 7l-4 5-6 2c-2 0-3 1-5-1l-2 1-4 2 3 2 3 2h4c2 1 4 3 5 6 0 2 0 5 2 7l-1 1c0 2-1 3-4 4-4 1-7 0-10-4-2-4-4-8-4-13l-2-2c-3 0-4-1-5-2-4-3-8-4-12-5h-1v3c3 4 4 8 5 13l-1 3-1 3-3 8-1 1v2l-2 1 2-1zM190 224l6-4c2-2 2-2 1-4l-1-2-6-9-18-27-4-6-1-1c-2 1-4 2-4 4 0 1 0 3-2 3l-1 3c0 2-1 2-2 1-3-1-5-2-7-1l-15 5-15 10-12 13v1l-4 5a147 147 0 0 0-11 26l-2 12v5c0 2 0 2 2 2h1l12-1h15c5 0 9-1 14 1l2 1 1 1v-2l1-26 1-11 2-10c1-3 4-5 8-3l1 3-1 11a139 139 0 0 0-1 41l2 13 2 6 2 1 12 3 5 2h3l9 3 31 8 2-1 1-5 2-1 4 2c1 0 2 1 2 3l-1 5v2l4 2c3 1 5 1 7 3 1 1 2 0 2-1l1-8 3-13c1-2 1-2-1-3l-5-1h-2l-3 1-3-1-15-7-12-5-6-1-10-4a103 103 0 0 0-14-4c-2-1-3-2-1-4 3-4 3-4 3-8l-1-7 3-26c1-3 4-5 7-3 1 0 2 1 2 3l-1 5 2 3 1 1c1-1 3-2 3-4zm365 13l-1 2c-1 2-1 5 1 7h1v-8l-1-1zm-265 68l-4 1-9 1c-2 0-2 0-3-2v-2l1-2 11-1 8-4 2-2-3 1-11 2h-3c-2 0-3 0-4-3-1-2 0-4 2-4h2l10-2 10-2-1-1-14 3-7 1c-3-1-4-3-4-5s0-2 1-1l2-1 2-2 2-2 4-12 1-2-2-3-2 2-3 6c0 2-1 5-3 7-3 5-7 7-13 7-2 0-3 0-4 2l-1 1c-2 2-3 4-3 7l-2 1-1-2-2-2-4 17c0 1 0 2 2 2h1l1-2v-1l4 1 1 1 4 7 5 3c3 2 7 3 11 2l8-4-3 1c-2 0-3-1-4-3-1-3-1-4 3-4 5 0 8-2 12-5-1 0-1 0 0 0zm193 72l-22-37-15-28-12-23-20-39-7-13c0-2-1-1-1-1l-15 4c-3 1-3 2-3 4l1 1 8 16 4 6 6 9 13 22 8 13 5 6a598 598 0 0 0 49 60l1 1h1l-1-1zM262 117c1-2 2-3 5-3l-2-3-8-10h-3v5l1 3c3 3 4 3 1 7h-17l-2 2 4 6c2 2 2 3 1 5l-2 3c-6 3-10 8-13 14l-4 6c-1 2-2 2-2 1l-2-2c-2-1-2-1-1-3 0-2 0-2-2-2-2-1-3-1-4-4l-3-1-3 3-4 11 1 5 2 4h3l3-3c2-2 4-2 7-2l-2 4-1 1-4 4c-1 3-3 3-6 2s-6-1-8-5h-1l-4 1a789 789 0 0 1-13 6l3 6 9 13 11 18 4 6 1 1 3 1 7 2 8 1c8 0 16-2 23-5l5-3h-1l-10-9h-2l-7 2c-4 1-7 0-11-1l-5-2-1-4c-1-3 1-6 3-8l8-6c2-1 3-3 2-6s0-5 2-8l4-1 1 4v1l-1 2c1 7 4 13 8 18l7 7c2 2 4 5 7 6h4a51 51 0 0 0 12-14v-4l1-2c1-2 1-2 4-1l11 4 15 3h3l-1-1-1-1c-6-5-13-9-22-11l-4-1c-2-1-3-2-2-4l2-3h1l4 1c2 0 2 0 2-2l-1-11c-1-8-2-16-7-23-3-5-6-10-11-14l-5-6zm322 54c0-3-1-5 1-7l-1-2-2-5 2-5c2-3 1-5-2-5l-1-1c-1-2-3-3-5-3s-4 0-5 3l-1 2h-2c-3-1-3-1-5 1-1 2-1 2-3 1l-2-1c-3 0-3 0-4 2-1 3-2 3-5 1 0-1-1-2-2-1l-2 1c-3 3-4 4-8 1l-3 1-1 1c-4 3-5 4-9 0-1-2-1-2-2 0l-4 2c-2 1-4 1-5-1l-3-3c-2-2-4-5-3-8 1-2 0-3-2-3h-2-1c-3-2-5-4-5-8 0-2-1-3-3-4s-5-2-6-5v-3c0-2 0-2 2-2 2 1 2 1 3-2l2-1 2 1 3-1v-3l-2-4c-1-2 0-3 2-2l3-1 6-5 4-6-1-3v-3l3-2c3-2 6-5 7-9l-1-7v-2l3-4c2-4 1-7-1-10l-1-2-1-2v-1l-1-5c-1-2-2-5-1-8 1-1 0-3-2-4l-1-1-1-4c0-2-1-4-3-5l-10-5-1-1c-4-4-8-7-14-6-3 0-5-1-8-3-1-2-4-2-6-2-3-1-6 0-8 2l-2 1c-3-1-7 0-10 1l-1 1-3 1-8 2-9 7-2 1c0 1-2 2-3 1-1 3-2 5-5 6l-2 4c0 2-1 3-2 3-1 1-3 3-3 5l1 1c2 1 2 1 2 3l-2 2-1 3v5l1 3c1 1 1 3-1 4l-2 2v6l2 1c2 0 2 1 1 3l-1 2c1 3 1 6 3 8l1 3 4 2 2 2c1 3-1 5-3 4-2 0-2 0-2 2l4 13 2 22 1 3c1 1 2-1 4-1v-1l2-1 4-1 3 1c3 1 3 4 5 6l1 1v1l2 6 1 1 8 5c-2 1-2 2-2 4l2 2c2 2 3 5 2 7l-2 1-3-2-3-2-11 1-1 2 5 3c2 1 2 3 1 5 0 2-2 2-4 3l-1-1v-1c0-3 0-3-2-4-2 0-3-1-2-2v-3c-3-3-6-3-10-3-2 0-3 0-4 3-1 2-2 2-3 0h-1l-9 9-1 1-1 5c-2 2-4 2-7 2l-1-2 1-2-3 1-2 1 4 4 1 2v1c-2 1-5 2-7 1l-3-2c-1-2-1-3 1-4l1-2-8-1c-3 0-5-2-8-3v3l5 9c1 3 4 4 7 3 3 0 6 0 9-2l3-1c3-1 4 1 5 4l1-1h4l3 2h6l8-2 2-1-1-1c-2-3-1-6 2-8 1-1 3 0 3 2 1 3 4 5 8 4l17-4 11-2-2-2-4-8 1-2c2-2 6-3 8-2v3c-2 1-1 3-1 4l1 3v-3l4-2 2 2v5l48-7-2-4h3l3 2c1 2 2 2 4 2l14-1 2-2 1-2c1-2 3-2 5-1l2 3 1 1h25zm-296 96h2l8-6 17-9 28-14 19-11c3-3 5-6 6-10 0-2 1-4-1-6v-1l-2-6-9-25-9-22v-1l-2-1c-4 2-7 1-11-1l-3-3h-2v4c1 1 0 2-1 3l-8 4-23 12-3 2 2 1c6 3 11 8 15 13 2 2 2 4 1 7l-2 3h-7l-21-5c-2-1-2-1-2 1l-5 9-7 6-17 10c-7 3-14 5-21 5h-17l-2 1-3 9-2 1v2l-1 12-2 8-1 5 1 2h1l19 6c4 2 7 4 12 4l10 3c3 2 5 3 5 6l5-5 1-1c1-2 2-2 4-2h2c2 1 4 0 6-2s4-5 5-9l5-10c1-2 3-2 5 0 2 0 3 2 4 3l2 3-1 5zm242-4c-1 0-3 0-4 2l-6 3c-1 1-2 0-2-1v-1c1-2 0-2-1-2l-4-1c-4-2-7-6-9-10-1-1-2-3-1-5l-1-2-1-3 1-3 6-4c1 0 2-1 1-2l1-6 1-1c2 0 3-2 3-3v-3c0-3-1-5 1-6l1-3v-4c0-2 0-2 2-3l-4 1-11 3c-2 1-3 1-2 3l1 2c1 2 1 2-1 2l-1 1h-3c-2-1-4-2-4-4-1-2-1-1-2-1l-1 1h-2l-4 1-2 1-5 1h-1l-2 1-5 2-1 1c0 3-2 6-3 8l-1 2c1 2 0 4-2 5l-1 1c-1 1-2 1-3-1l-1-1c-2-5-7-7-12-7-2 0-4 0-5 3-1 2-1 2-3 0-1-2-3-2-5-2-3 2-7 2-11 3l-5 2v2l4 9 2 3 4-1c2-2 3-1 5 0l1 1 1 2c0 2 0 2 3 2l4 1 3 3c0 3 3 1 3 3l2 2c1 1 2 3 0 4s-1 2-1 3v2l-1 3-2-1-1-1h-2l-3 3v1 3l5 9 3 5 3 7c1 1 1 2 3 1l9-4-1-1c-2-2-1-4 1-6 1-1 2-1 4 1v1c2 2 3 2 5 2 3-1 5-2 6-4 1-1 2-2 1-4l2-4c2-2 4-1 6 1l2 6c1 4 2 5 5 2 3-1 5 0 8 1l2 1 1 2c0 3 1 4 4 4l4-1 6-3h4c3 1 6 2 7 5 2 1 3 2 5 1l7-4c3-2 5-3 9-1l2 1h3l-3-4c-2-2-1-3 0-4h4l2 1c1 3 2 4 4 5l2 1 8-2c2-1 2-1 1-3 0-2 1-2 2-2h4l7 1 3-2v-3c0-2 0-2 2-2h6c1-1 2-1 0-3l-1-3 1-1c2 0 5-1 6 2 2-2 2-3 2-5v-2c0-1 0-3 2-3l1-2c2-3 1-6 0-9l-2-1c-2-1-3-3-3-5l2-4v-2h-3c-2 1-2 0-3-1l-1-2-1-1h-1l-1 2h-2c-2-1-2-1-3 1l-1 2c-2-1-2-3-5-3l2 4-1 3c-3 1-5 0-6-2l-1-1c-1-2-4-2-6 0l-4 6-4 2-2 2-1 2c-2 1-1 2 0 3l-7 2-3-1-3-2-1 1-1 1c-2 1-2 1-1 3s1 2-1 3h-3c-1-1-2-2-3-1l-1 3-1 2h-2l-1-1c-2-1-2-2-2-4v-3zm74-85h-27l-9 1-2-1h-11l-10 1h-12l-4 1-7 1h-2c-1 1 0 0 0 0-3-1-5 0-8 1l-1 1h-3l-11 2-3-1v1l-3 1h-6l-1 1-7 1-13 3-4 1-19 4-13 3-21 7-2 1h-6l-17 6-5 3h-1c-3 0-3 0-3 3l-6 12-1 2-20 11-14 7-16 7-7 3-5 2-2 1c-2 3-5 4-8 6l-8 8-2 4 8-2 4-2 5-5c5-4 11-6 17-8a1170 1170 0 0 0 20-4h6c4 0 8 2 11 3 4 3 7 6 8 11v9c-1 5-3 9-6 13l-7 9c-5 4-11 9-17 12-2 1-4 3-7 3l-6 2c-6 2-12 3-19 2-4-1-9-2-11-6v-1l-5 4-1 3 6 6 8 2h15a72 72 0 0 0 35-16l7-7 8-9 4-8c4-6 4-12 3-18v-2c-1-4-3-7-6-9l-6-4-7-2-8-1-7 1h-3l-1-3 1-1 18-8 36-11 40-11 33-9 43-11 41-11 37-9 23-6zM302 280l3 3 1 3c-1 2-1 4-4 5-1 1-3 2-2 4l-1 2-4 5v1l-2 5v2c0 2 3 6 6 6 5 2 10 2 16 1 4-1 9-2 13-5l9-4 4-3 7-7c5-6 8-12 8-20 0-5-1-7-5-9-3-2-6-2-8-2h-9l-11 3c-8 2-15 5-21 10zm-56-173c-2-3-5-4-7-5h-4c-1 1-2 2-4 1l-4-3-4-1-11 2-11 4c-4 3-8 5-11 9l-5 6c-3 3-5 6-6 10-2 4-3 9-3 13-1 6-1 12 1 18 0 2 1 2 2 1l10-3 5-1v-1c0-7 3-13 7-19l4-2 3-1c3-1 7 0 9 3l2 6 2-4 10-13c2-1 2-2 1-3l-2-3c-1-3-2-3-4-2l-1 1-2-6 1-2 3-1a89 89 0 0 1 19-4zm115 52l4-2 2 1 2 2 2 2 3 3 6 4c4 3 8 4 14 3 10-2 17-9 22-18l2-6 1-3v-3a206 206 0 0 0-7-39l-2-6-8-16c-4-6-9-11-15-14l-10-4c-5-1-11 0-16 2a31 31 0 0 0-18 17c3 0 5 0 8 2 2-5 5-8 10-10 2-1 5-3 8-3 6 0 11 1 17 4 5 4 10 9 13 14 6 8 9 17 11 26l1 6 1 9v15c-1 6-2 11-7 15l-3 2c-7 4-14 5-21 3-6-2-10-6-14-11-2-4-5-8-6-13l-2-1c-2-2-4-3-4-5l-2-3c-1-1-2-2-1-3l-1-2c-3-1-6-3-5-7l-1-1-3-1v1 3l6 13 4 12 6 14 6 14 5 13 7 20h2l6-2 12-5v-1c-1-2-1-2-3-2l-7 1c-6-1-10-3-13-8v-2l-4-8-6-15c0-2 0-5-2-7zm3-41c2 1 3 2 3 4l1 1 4 2h2l6-1c2 0 4 1 5 3 1 3 3 4 6 3l10-1 1-1v-3c-2-11-5-22-12-32-1-2-3-3-6-3s-5-1-7-4l-4-1-4 1c-3 1-5 0-8-2h-1l-4 7v2 2c2 1 3 3 3 6l-1 3 1 1 3 3h1c3-2 5-1 6 2v3c0 3-1 4-5 5zm125 278l-2-2-16-14c-1-2-2-2-4-2h-5l-7-1-17 1h-17c-2 0-2 0-2 2l-1 11v4c0 2 0 2 2 2l7-1h62zm-4-29c3-1 4-4 5-6s2-4 1-6l-1-3c-1-5-2-10-5-15-1-2-1-5 1-6l4-2a47 47 0 0 0 15-9l4-5 3-9-1-2c-2 1-4 0-6-1l-6-5-1-1c-2 0-3 1-2 3v1c1 2 1 4-1 6l-6 7-7 4-9 5-1 2c0 1-1 3 1 5v1l-1 2 1 9 4 10 3 5 5 10zm7 12l3 4 7 12 2 1h34c2 0 2 0 2-2v-1l1-10v-4l-4-1h-23l-7 1-1-1h-1-1-6c-1 0-4-1-6 1zM376 268l1-1c3-2 5-2 7 1l1 6c0 2 0 2-2 3h-1c-1 1-2 1-2-1l-1-5-1-1v17l1-2 1-1 3-1 1 1 1 3-1 5c0 1 1 2 2 1l5 1c2 1 2 1 3-1l1-1 1 1 5 4 2 2h6v-2l-10-15v-1l-1 1c-2 1-3 0-5-1-1-1-2-2-1-4l1-3 1-2-4-7c-2-2-2-2-4-1h-1l-1-2 2-2v-2l-1-1c0-3-2-5-3-8l-1-1c-2 0-3-1-4-3l-3-1-2 1-2 2v3l-2 3c-2 1-1 2-1 3l2 2 5 6 2 4zM71 449l-2-6c-3-1-6-2-9-1-4 1-8 4-11 6l-2 1c-2 0-4-1-5-3l-2-7v-2l-3-8c0-2 0-4-3-5l-5-8-2-5h-2l-8 4-1 3 2 6c1 2 1 2 3 1 3-1 5 0 7 1l1 2-1 2v2l3 7 4 13c1 2 1 2 3 2l2 1 6 1 17-1h4c3 0 3 0 3-3v-3zm235-289l15-7-1-3-6-17-1-4-2-1-1 1-9 4-12 5c-2 1-2 1-1 3l2 5a181 181 0 0 1 3 19l1 1 3-2c2-1 2-1 1-3l-1-3c-1-3-1-3 2-5h1c2-2 3-1 4 1l2 6zm14-32l3 10 3 9h1v-2l-2-5c-1-2 1-5 3-5 2-1 4 0 4 3 1 4 4 7 7 10l3 1h1v-1l-7-17-2-6v-3l-1-2c-2-2-2-2 0-4h1c3-3 4-6 3-10l-2-9v-2l4-1 6-2 1-2-2-1h-1l-10 2-1 1-2 8v10c-1 2-1 5-4 7l-2 5-1 2c0 2-1 4-3 4zm50 6l-2 4v4l6 8h1c3-1 5 1 7 1h6c4-1 7 0 10 1 2 1 2 1 3-1 2-2 2-5 2-7 1-2 0-3-2-4l-1-1c-2-2-3-2-5-2l-1 1h-8l-6-4-3-1c-2 2-5 1-7 1zm114 158l-4 5c-3 4-6 4-10 2h-2l-3 2-7 5-4 2 8 15 2-5 3-2 4-1c5-3 11-6 15-11l3-4v-3l-5-5zM142 457c1-1 2-2 4-1h1l12-1h16l1-1-1-5c0-1 0-2-2-2h-3l-8 3c-6 1-13 2-19-1l-5-2-18-3h-6l1 4 1 1v5c0 2 0 2 2 2h10l1-1 3-3 2-1h3l3 3c1 1 2 1 2 3zm35-135l1-1 9-6v-2-9c0-2 0-2-2-2l-7-1-11-3h-2l4 8 4 8c1 3 4 5 4 8zm247-168l12 3h1l8-2h2v-1l-1-1c-3-2-5-5-6-8l-1-3v-1l-3-1-1 1c-2 2-5 3-8 3l-1 1-2 9zm-226 92v-4l-1-1-5-2c-1-1-2 0-2 1-3 5-4 11-5 17l1 1 7 4 2-1 3-15zm236 21c2-3 5-4 8-5l-2-3c0-1-2-2-3-1-2 1-3 0-5-1l-4-7h-1c-3 1-3 2-1 4l4 9 4 4zm-197-70l-5-8h-1l-8 6-1 1 1 2 4 1c3 0 7 1 10-2zM408 35l5-1 2-1c0-1-1-4-3-4l-4-1c-3 0-6 1-7 4-1 1-1 2 1 2l6 1zm-52 74l-5 7v2l1 3v2l1-1c3-2 4-5 5-8 0-2 0-4-2-5zm78 245l7-7c1-2 1-3-1-4h-1c-4 2-6 6-5 11zm146-218c5 0 10-3 12-7h-4c-1-1-2 0-3 1l-5 6zm-26 321l-1-1-9-2-2 1h-1l-5 1 3 1h15zM352 99c-2 0-3 1-4 3 0 1-1 2-3 2l-1 1 3 5c3-4 5-8 5-11zm264 127h-4l-7 6-1 4 12-10zM410 458h12l1-1c0-1 0-2-2-2-4 0-7 1-11 3zM343 55h-1c-2 4-2 8-1 11l1 2 1-1v-2l1-8-1-2zm79-43c-3 3-5 9-3 13l2-3 1-9v-1zm102 342l-1-3-2-2-1 2c0 3 1 5 3 7l1 1v-1-4zM353 252l4 1 5 1v-5c-4 0-7 2-9 3zM521 9c-2 0-3 2-4 3l-4 6 1 1 2-3 4-3 1-4zm2 325c4 0 6-1 7-5l-1-1c-3 2-5 3-6 6zm-31 127l14 1c-1-3-8-2-14-1zM362 122h-2l-3 5-1 1h2c2 0 4-3 4-6zm92 101l4 4v-3l1-3-5 2zm-252 4l-7 5 3 1 2-1 2-5zm162-96l-3 2v1l1 1c2 0 3-2 2-4zm248 109h8-8zM393 460l10-1-10 1zm37-131l-2-3h-1v2l3 1zm119-132h1l-1-1-1 1h1zm-186-84v0z"/><path fill="#FC2065" d="M480 462l-2-3-3-1h-7l-27 1h-8l-2-1-2-18-2-21-1-11c0-1 0-2 2-2h30l8-1h62l2 2-2 19v12l-1 16-2 2-14 1-2-1-9-3h-11c-3 1-7 3-8 9h-1z"/><path fill="#040302" d="M345 451l5 1 4 2 1 1c4 3 4 8-1 10-4 1-8 3-13 2l-6 1-4-1-3-1c-4-2-5-7-1-10 4-2 8-4 12-4l6-1zm8 8c-2-1-3-2-5-1h-8l-5 2-1 1c6 1 12 0 19-2zm-49 5l-4 1h-7-10c-3 0-5-2-7-4s-1-6 3-8l5-1 12-1h1l8 3c3 2 4 6 2 9 0 1-1 2-3 1zm-24-6v1l11 1 2-1c0-1 1-2 3-2-6-1-11 0-16 1zm326-8l8 2c4 2 5 5 4 9l-1 1c-1 4-3 4-6 4h-1l-5-1-12-1c-3-1-4-2-4-5v-1c0-2 1-4 4-5s7-3 11-3h2zm-7 8h13-13z"/><path fill="#fff" d="M511 463v-1c1-1 3 0 4 1h-4z"/><path fill="#FC2065" d="M492 370l-2 1 2-1z"/><path fill="#040302" d="M495 367v-1 1z"/><path fill="#FC2065" d="M507 463v-1 1zm77-292h-25l-1-1-2-3c-2-1-4-1-5 1l-1 2-2 2-14 1c-2 0-3 0-4-2l-3-2h-3l2 4-48 7v-5l-2-2-4 2v3l-1-3c0-1-1-3 1-4v-3c-2-1-6 0-8 1l-1 3 4 8 2 2-11 2-17 4c-4 1-7-1-8-4 0-2-1-3-3-2-3 2-4 5-2 8l1 1-2 1-8 2h-6l-3-2h-4c-2-2-3-4-6-3l-3 1c-3 2-6 2-9 2-3 1-6 0-7-3l-5-10v-2c3 1 5 3 8 3l8 1-1 2c-2 1-2 2-1 4l3 2c2 1 5 0 7-1v-1l-1-2-4-4 3-1 2-1-1 2 1 2c3 0 5 0 7-3l1-4 1-1 9-9h1c1 2 2 2 3 0 1-3 2-3 4-3 4 0 7 0 10 3v3c-1 1 0 2 2 2 2 1 2 1 2 4v1l1 1c2-1 4-1 4-3 1-2 1-4-1-5l-5-3 2-2 10-1 3 2 3 2 2-1c1-2 0-5-2-7l-2-2c0-2 0-3 2-4l-8-5-1-1-2-6v-1l-1-1c-2-2-2-5-5-6l-3-1-4 1-2 1v1c-2 0-3 2-4 1l-1-3-2-22-4-13c0-2 0-2 2-2 2 1 4-1 3-4l-2-2c-2 0-3-1-4-3l-1-2c-2-2-2-5-3-8l1-2c1-2 1-3-1-3l-2-1v-6l2-2c2-1 2-3 1-5l-1-2v-5l1-3 2-2c0-2 0-2-2-3l-1-1c0-2 2-4 3-5 1 0 2-1 2-3l2-4c3-1 4-3 5-6 2 1 3 0 4-1l1-1 9-7 8-2 3-1 1-1c3-1 7-2 10-1l2-1c2-2 5-3 8-2 3 0 5 0 7 2s4 3 7 3c6-1 10 2 14 6l1 1 10 5c2 1 3 3 3 5l1 4 1 1c2 1 3 3 2 4-1 3 0 6 1 8l1 5v1l1 2 1 2c2 3 3 6 1 10l-3 4v2l1 7c-1 4-4 7-7 9l-3 2v3l1 3-3 6-7 5-3 1c-2-1-3 0-2 2l2 4v3l-3 1-2-1-2 1c-1 3-1 3-3 2-2 0-2 0-2 2v3c2 3 4 4 6 5s3 2 3 4c0 4 3 6 5 8h3c2 0 3 1 2 3-1 3 1 6 3 8l3 3c1 2 3 2 5 1l4-2c1-2 1-2 2 0 4 4 5 3 9 0l1-1 3-1c4 3 5 2 8-1l2-1h2c3 3 4 3 5 0 1-2 1-2 4-2l2 1c2 1 2 1 3-1 2-2 3-2 5-1h2l1-2c1-3 3-3 5-3s4 1 5 3l2 1c2 0 3 2 1 5l-2 5 2 5 1 2c-2 2-1 4-1 7zM450 54h-3l-2 2 2 2h2c2 1 2 2 2 3l-2 3c-2 1-2 2-1 4 3 3 4 6 1 10-1 2-1 2 1 4 2 1 2 3 1 5v5l2 1 3 1 3-2 5-2h1c1 2 3 2 5 2l3-1v-3c0-3 3-6 6-6l4-1v-3c-1-1-2-2 0-4l2-4 2-2c3 0 5-1 6-3l-3-1-3-2c-1-4 2-9 5-10l3-2c-1-2-3-2-4-2-3-1-4-2-3-5v-1c-1-2 0-3 1-3l2-2h-1c-2-3-4-2-7-1h-5l1-2v-3c-2-2-4-2-6-2h-1c-1 3-5 5-7 4h-4c-2-1-2 1-3 2l1 1 1 1c1 1 0 2-1 2l-5 2c-1-1-3-1-4 1v2l3 3c1 1 1 2-1 2l-4 3v1l2 1zm53 102c0-3-1-5-3-6l-7-3h-1c-1 0-2 1-1 2l1 1 1 3c0 2 1 4-2 5l-1 2c0 2 3 3 5 3l3-2c3 0 5-2 5-5zm-49-21l4-1 7-2c2 1 3-1 5-2l-1-1-5-1c-2-1-5 0-7 1l-2 2c-1 0-2 1-2-1v-1c-2-1-6-1-8 1-1 1-1 2 1 3 2 2 5 2 8 2zm-11-16c-1-1-3-1-3-3l-2-3 2-2v-2l-2-1-5 1c-2 0-3 1-3 3 1 4 3 8 6 10 2 1 4 1 5-1l2-2zm62-54v7c0 2 1 3 2 3l3-1c1 0 2-1 2-3v-1-3-2c-2-4-3-5-7-5-2 1-5 3-5 6l2 1 3-2zm67 88c-1-1-3 0-5 1l-2 1 2 4c1 1 2 0 3-1l2-1c2-1 2 0 2 1l2 4 4 1v-2l-2-6c-2-2-3-3-6-2zm-157 30l6-3 2-4h1v-2l-4-3c-2 0-5 1-5 3v2c2 1 1 1 0 2l-1 1-1 3 2 1zm40-79v3l5 4h1c1-1 2-2 1-3-2-2-2-3 0-5h1v-2c-2-2-4-2-6-2-2 1-2 3-2 5zm19 34c-3 0-5 2-4 5l1 3 4 3h1c2 0 2-2 1-4-2-1-1-2 1-3v-3l-4-1zm18-119l-1 1 1 1v2c-1 1-3 3-5 3l-1 1c0 1 2 4 3 3 4 0 6-2 8-5 1-3-1-6-5-6zm2 72l-1-2c-2-1-2-2-1-4 1-1 1-2-1-2h-5l-1 2c-1 2 0 5 2 6 2 3 5 3 7 0zm-25-72c1 1 2 0 2-1v-2c-1-1-2-2-3-1-4 0-7 1-9 4v4l1 1c2 1 2 1 3-1l5-4h1zm10 103l-1 3-1 1 3 2c3 0 3-2 4-4v-4c-2-2-7-3-9-1v1l4 2zm0-19h-1l-3 1v2l-1 2-2 2v1c4 2 4 2 7-1l3-2v-4l-3-1zm-40-26h1c2 0 2-1 2-2l-2-2c-2-1-2-2-2-4 1-2 1-2-1-2h-3l-2 3c0 4 3 7 7 7zm102 85c-1-3-2-4-4-4s-3 1-2 3c0 2 2 4 4 5l2 1c2 0 4-3 4-4l-1-2-3 1zm-74-11l-3-2-1-1v-3-2h-2c-1-1-3 0-4 1-2 3 0 7 4 8l6-1zm35-113l1 1c2 2 2 2 1 3v1l1 1h4l2-4c1-1 1-2-1-3h-2c-2-1-5-1-6 1zm-74 25c0-4-2-5-4-5l-2 3v6l-1 1v1h3c2-2 4-4 4-6zm9-23l2-2c1-2 1-3 4-3 1 0 2-1 1-2 0-2-1-2-3-2-4 0-6 2-7 5 0 3 0 4 3 4zm3 56h1c2 1 2 0 3-1l-1-3c-3-1-7-1-9 1v2 1h6z"/><path fill="#fff" d="M186 227l-2-3 1-5c0-2-1-3-2-3-3-2-6 0-7 3l-3 26v7c1 4 1 4-2 8-2 2-1 3 1 4l2 1 12 3 10 4 6 1 12 5 15 7 3 1 3-1h2l5 1 1 3-3 13-1 8c0 1-1 2-2 1-2-2-4-2-7-3l-4-2v-2l1-5c0-2-1-2-2-3l-4-2-2 1-1 5-2 1-31-8-9-3h-4l-4-2-12-3-2-1-2-6-2-12a253 253 0 0 1 1-42l1-11-1-3c-4-2-7 0-8 3l-2 10-1 11-1 26v2l-1-1-2-1c-5-2-9-1-14-1h-16l-11 1h-1c-2 0-2 0-2-2v-5l2-12 2-6a147 147 0 0 1 13-25v-1c1 1 1 0 2-1l9-10 1-2a71 71 0 0 1 30-15c2-1 4 0 7 1 1 1 1 1 2-1l1-3c2 0 2-2 2-3 0-2 2-3 4-4l1 1 4 6 17 27 7 9 1 2c1 2 1 2-1 4l-6 4-4 3zm46 73c-2 0-3 2-2 3l4 3c2 0 2-1 2-2 0-2-2-4-4-4z"/><path fill="#FC2065" d="M530 263v3c0 2 0 3 2 4l1 1h2l1-2 1-3c1-1 2 0 3 1h3c2-1 2-2 1-3-1-2-1-2 1-3l1-1 1-1 3 2 3 1 7-2c-1-1-2-2 0-3l1-2 2-2 4-2 4-6c2-2 5-2 6 0l1 1c1 2 3 3 6 2l1-3-2-4c3 0 3 2 5 3l1-2c1-2 1-2 3-1h2l1-2h1l1 1 1 2c1 1 1 2 3 1h3v2l-2 4c0 2 1 4 3 5l2 1c1 3 2 6 0 9l-1 2c-2 0-2 2-2 3v2c0 2 0 3-2 5-1-3-4-2-6-2l-1 1 1 3v3h-6c-2 0-2 0-2 2v3l-3 2-7-1h-4c-1 0-2 0-2 2 1 2 1 2-1 3l-8 2-2-1-4-5-2-1h-4c-1 1-2 2 0 4l3 4h-3l-2-1c-4-2-6-1-9 1l-7 4c-2 1-3 0-5-1-1-3-4-4-7-5h-3l-7 3-4 1c-3 0-4-1-4-4l-1-2-2-1c-3-1-5-2-8-1-3 3-4 2-5-2l-2-6c-1-2-4-3-6-1l-2 4c1 2 0 3-1 4-1 2-3 3-6 4-2 0-3 0-5-2v-1c-2-2-3-2-4-1-2 2-3 4-1 6l1 1-9 4c-2 1-2 0-3-1l-3-7-3-5-5-9v-3-1l3-3h2l1 1 2 1 1-3v-2c0-1-1-2 1-3s1-3 0-4l-2-2c0-2-3 0-3-3l-3-3-4-1c-3 0-3 0-3-2l-1-2-1-1c-2-1-3-2-5 0l-4 1-2-3-4-9v-2l5-2c4-1 8-1 11-3 2 0 4 0 5 2 2 2 2 2 3 0 1-3 3-3 5-3 5 0 10 2 12 7l1 1c1 2 2 2 3 1l1-1c2-1 3-3 2-5l1-2c1-2 3-5 3-8l1-1 5-2 2-1h1l5-1 2-1 4-1h2l1-1c1 0 1-1 2 1 0 2 2 3 4 4h3l1-1c2 0 2 0 1-2l-1-2c-1-2 0-2 2-3l11-3 4-1c-2 1-2 1-2 3v4l-1 3c-2 1-1 3-1 6v3c0 1-1 3-3 3l-1 1-1 6c1 1 0 2-1 2l-6 4-1 3 1 3 1 2c-1 2 0 4 1 5 2 4 5 7 9 10l4 1c1 0 2 0 1 2v1c0 1 1 2 2 1l6-3c1-2 3-2 4-2zm-82-7l2 2c2 1 2 2 2 3-1 2 0 4 1 5l3 2c1 2 3 2 4 1l3 1 3 2c1 1 3 0 4-1l1-2-1-2h-2l-2-1c-1-2-2-2-3-2h-4-1v-1l1-3c1-1 2-2 1-3l-4-2h-4c-1-1-3-1-4 1zm17-20l6 4 3 1 3 3 2 2h6v-2c0-2-1-3-2-3l-1-2c-2-3-6-4-9-5-3 0-5 0-8 2zm20 22c0-2-1-2-2-1-3 1-5 2-7 5v2l4 4c1 2 3 2 5 1 2 0 2-2 2-3 1-2 0-2-1-2l-2-3v-2l1-1zm106 2c0-3-1-5-4-6l-4-2-3-1-4 2v1l1 3h6c2-1 2-1 3 2l3 3c1 0 2 0 2-2zm-105-27c4 0 5-1 6-4l-1-1c-3-1-4-3-5-5l-2-1-4 3v4l3 3 3 1zm45 55l5-2 1-1v-3l-3-1c-1 0-2 0-2-2l-2-2-3-1-1 3v1c-1 4 2 7 5 8zm50-11c1 0 3 0 4-2 2-3 1-7-2-9h-3l1 2v1l-1 2-2 1h-3l-1 1c0 3 2 5 5 4h2zm-136-31l4-2 1-4c1-1 0-3-1-4l-2-2c-2 0-5 2-6 4-1 1 0 1 1 1 2 2 2 2 2 5-1 2-1 2 1 2zm47-2c0 1 0 2 2 3l1 1 2-1v-1c0-3 1-5 3-7l-1-2h-5l-2 7zm13 23l1 3-1 2-1 1-1 2 4 2 4-2c2-4-1-9-6-8zm50 0l-4 1-1 1 2 2h2l4 2 1 1h2c2-2 2-4 0-6l-6-1zm10-10l1 3 2 2c2 2 3 2 5 0 1-2 1-2-1-3l-1-1c1-3 1-3-2-4-2-1-4 0-4 3z"/><path fill="#fff" d="M604 178l-23 6-37 9-41 11-43 11-33 9-40 11-36 11-18 8-1 1 1 3h3l7-1 8 1 7 2 6 4c3 2 5 5 6 9v2c1 6 1 12-3 18l-4 9-8 8-7 7c-4 3-9 7-14 9-7 3-14 6-21 7h-15l-8-2-6-6 1-3 5-4v1c2 4 7 5 11 6 7 1 13 0 19-2l6-2c3 0 5-2 7-3 6-3 12-8 17-12l7-9c3-4 5-8 6-13v-9c-1-5-4-8-8-11-3-1-7-3-11-3h-6l-10 1-10 3c-6 2-12 4-17 8l-5 5-4 2-8 2 2-4 8-8c3-2 6-3 8-6l2-1 5-2 7-3 16-7 14-7a100 100 0 0 0 21-13l6-12c0-3 0-3 3-3h1l5-3 17-6h6l2-1 21-7 13-3 19-4 4-1 13-3 7-1 1-1h6l3-1v-1l3 1 11-2h3l1-1c3-1 5-2 8-1v1l2-1 7-1 4-1h12l10-1h11l2 1 9-1h27zm-209 34c-2-1-4 0-6 1l-4 6c-2 3-2 6 0 10l4 2h4c6-2 10-5 12-11 0-2 0-5-2-6s-5-3-8-2zm87 165l-8-8a293 293 0 0 1-41-52l-5-6-8-13-13-22-6-9-4-6-8-16v-1c-1-2-1-3 2-4l15-4s1-1 1 1l7 13 20 39 12 23 15 28 22 37h-1z"/><path fill="#FC2065" d="M246 107l-5 1-14 3-3 1-1 2 2 6 1-1c2-1 3-1 4 2l2 3c1 1 1 2-1 3l-10 13-2 4-2-6c-2-3-6-4-9-3l-3 1-4 2c-4 6-7 12-7 19v1l-5 1-10 3c-1 1-2 1-2-1-2-6-2-12-1-18 0-4 1-9 3-13 1-4 3-7 6-10l5-6c3-4 7-6 11-9l11-4 11-2 4 1 4 3c2 1 3 0 4-1h4c2 1 5 2 7 5z"/><path fill="#fff" d="M361 159c2 2 2 5 2 7l6 15 4 8 1 2c2 5 6 7 12 8l7-1c2 0 2 0 3 2v1l-12 5-6 2h-2l-6-20-6-13-6-14-6-14-4-12-6-13v-3-1l3 1 1 1c-1 4 2 6 5 7l1 2c-1 1 0 2 1 3l2 3c0 2 2 3 4 5l2 1c1 5 4 9 6 13 4 5 8 9 14 11 7 2 14 1 21-3l3-2c5-4 6-9 7-15a75 75 0 0 0-1-24l-1-6c-2-9-5-18-11-26-3-5-8-10-13-14-6-3-11-4-17-4-3 0-6 2-8 3-5 2-8 5-10 10-3-2-5-2-8-2l3-7a36 36 0 0 1 31-12l10 4c6 3 11 8 15 14l8 16 2 6c3 9 5 17 6 26 1 4 2 9 1 13v3l-1 3-2 6c-5 9-12 16-22 18-6 1-10 0-14-3l-6-4-3-3-2-2-2-2-2-1-4 2z"/><path fill="#FC2065" d="M364 118c4-1 5-2 5-5v-3c-1-3-3-4-6-2h-1l-3-3-1-1 1-3c0-3-1-5-3-6v-2-2l4-7h1c3 2 5 3 8 2l4-1 4 1c2 3 4 4 7 4s5 1 6 3c7 10 10 21 12 32v3l-1 1-10 1c-3 1-5 0-6-3-1-2-3-3-5-3l-6 1h-2l-4-2-1-1c0-2-1-3-3-4zm27-8c-2-2-3-4-2-7l-1-3c-2-1-7 0-8 2v1c-1 5 4 10 9 8h1l1-1zm2 11v1c1 1 3 0 4-1s2-2 1-4c-1-1-1-2-3-2-1-1-2 0-2 2v4zm96 275h-62l-7 1c-2 0-2 0-2-2v-4l1-11c0-2 0-2 2-2h17l17-1 7 1h5c2 0 3 0 4 2l16 14 2 2zm-4-29l-5-10-3-5-4-10-1-9 1-2v-1c-2-2-1-4-1-5l1-2 9-5 7-4 6-7c2-2 2-4 1-6v-1c-1-1 0-3 2-3l1 1 6 5c2 1 4 2 6 1l1 2-3 9-4 5-1 2-14 7-4 2c-2 1-2 4-1 6 3 5 4 10 5 15l1 3c1 3 0 4-1 6s-2 5-5 6zm7 12c2-2 5-1 6-1h8l1 1 7-1h23l4 1v4l-1 10v1c0 2 0 2-2 2h-34l-2-1-7-12-3-4zM376 268l-2-4-5-6-2-2 1-3 2-3v-1-2l2-2 2-1 3 1c1 2 2 3 4 3l1 1c1 3 3 5 3 8l1 1v2l-1 2v2h1c2-1 2-1 4 1l4 7-1 2-1 3c-1 2 0 3 1 4 2 1 3 2 5 0h1v1l10 15v2h-6l-2-2-5-4-1-1-1 1c-1 2-1 2-3 1l-5-1c-1 1-2 0-2-1l1-5c1-1 0-2-1-3l-1-1-3 1-1 1-1 2v-4-13l1 1 1 5c0 2 1 2 2 1h1c2-1 2-1 2-3l-1-6c-2-3-4-3-7-1l-1 1zM71 449l-1 3c0 3 0 3-3 3h-4l-18 1-5-1-2-1c-2 0-2 0-3-2l-4-13-3-7v-2l1-2-1-2c-2-1-4-2-7-1-2 1-2 1-3-1l-2-6 1-3 8-4h2l2 5 5 8a944 944 0 0 1 5 13l1 2 2 7c1 2 3 3 5 3l2-1c3-2 7-5 11-6 3-1 6 0 9 1l2 6z"/><path fill="#fff" d="M306 160l-2-6c-1-2-2-3-4-1h-1c-3 2-3 2-2 5l1 3c1 2 1 2-1 3l-3 2-1-1-1-2a181 181 0 0 0-4-22c-1-2-1-2 1-3l12-5 9-4 1-1 2 1 1 4 6 17 1 3-15 7zm4-9l1 2h3c1-1 2-3 1-4 0-1-2-2-3-1-1 0-2 1-2 3z"/><path fill="#FC2065" d="M142 457c0-2-1-2-2-3l-3-3h-3l-2 1-3 3-1 1h-8-2c-2 0-2 0-2-2v-5l-1-1-1-4h6l18 3 5 2c6 3 13 3 19 1l8-3h3c2 0 2 1 2 2l1 5-1 1h-16l-12 1h-1c-2-1-3 0-4 1zm35-135c0-3-3-5-4-8l-4-8-4-8h2l11 3 7 1c2 0 2 0 2 2v11l-9 6-1 1zm21-76l-3 15-2 1-7-4-1-1c1-6 2-12 5-17 0-1 1-2 2-1l5 2 1 1v4zm64-129h-1l-5-1c3-4 2-4-1-7l-1-3v-5h3l8 10 2 3c-3 0-4 1-5 3zm-25 80c-3 3-7 2-10 2l-4-1-1-2 1-1 8-6h1l5 8zM408 35l-6-1c-2 0-2-1-1-2 1-3 4-4 7-4l4 1c2 0 3 3 3 4l-2 1-5 1zm26 319c-1-5 1-9 5-11h1c2 1 2 2 1 4l-7 7zm146-218l5-6c1-1 2-2 3-1h4c-2 4-7 7-12 7zm-26 321h-15l-3-1 5-1h1l2-1 9 2 1 1zm62-231l-12 10 1-4 7-6h4zM410 458c4-2 7-3 11-3 2 0 2 1 2 2l-1 1h-12zM343 55l1 2-1 8v2l-1 1-1-2c-1-3-1-7 1-11h1zm79-43v1l-1 9-2 3c-2-4 0-10 3-13zm102 342v5l-1-1c-2-2-3-4-3-7l1-2 2 2 1 3zM521 9l-1 4-4 3-2 3-1-1 4-6c1-1 2-3 4-3zm2 325c1-3 3-4 6-6l1 1c-1 4-3 5-7 5zm32-97l1 1v8h-1c-2-2-2-5-1-7l1-2zm-63 224c6-1 13-2 14 1l-14-1zM202 227l-2 5-2 1-3-1 7-5zm410 13h8-8zM393 460l10-1-10 1zm37-131l-3-1v-2h1l2 3zm52 48h1l1 1h-1l-1-1z"/><path fill="#fff" d="M549 197h-1l1-1 1 1h-1z"/><path fill="#FC2065" d="M363 113v2-2zm192 124zM353 459c-7 2-13 3-19 2l1-1 5-2h8c2-1 3 0 5 1zm-73-1c5-1 10-2 16-1-2 0-3 1-3 2l-2 1-11-1v-1zm319 0h13-13z"/><path fill="#040302" d="M450 54l-2-1v-1l4-3c2 0 2-1 1-2l-3-3v-2c1-2 3-2 4-1l5-2c1 0 2-1 1-2l-1-1-1-1c1-1 1-3 3-2h4c2 1 6-1 7-4h1c2 0 4 0 6 2v3l-1 2h5c3-1 5-2 7 1h1l-2 2c-1 0-2 1-1 3v1c-1 3 0 4 3 5 1 0 3 0 4 2l-3 2c-3 1-6 6-5 10l3 2 3 1c-1 2-3 3-6 3l-2 2-2 4c-2 2-1 3 0 4v3l-4 1c-3 0-6 3-6 6v3l-3 1c-2 0-4 0-5-2h-1l-5 2-3 2-3-1-2-1v-5c1-2 1-4-1-5-2-2-2-2-1-4 3-4 2-7-1-10-1-2-1-3 1-4l2-3c0-1 0-2-2-3h-2l-2-2 2-2h3zm28 16h-9l-1-3 2-5c2-2 5-3 9-3l1-1 3-5 2-2-3-2-1-2 1-5c1-1 0-1-1-1-3 0-6-1-8-3-2-1-3 0-4 1l-1 1-2 3-3 2c-2 0-2 1-1 2l1 1c1 3 1 4-2 5l-7 2 3 3 1 3-3 4c0 2-1 2 1 3l2 6-2 4v2c2 1 3 3 3 5h7l2-1 5-4 1-2 4-8zm2-4l-2-3h-3l-1 2c-1 1 0 1 1 1h5zm23 90c0 3-2 5-5 5l-3 2c-2 0-5-1-5-3l1-2c3-1 2-3 2-5l-1-3-1-1c-1-1 0-2 1-2h1l7 3c2 1 3 3 3 6zm-49-21c-3 0-6 0-8-2-2-1-2-2-1-3 2-2 6-2 8-1v1c0 2 1 1 2 1l2-2c2-1 5-2 7-1l5 1 1 1c-2 1-3 3-5 2l-7 2-4 1zm-11-16l-2 2c-1 2-3 2-5 1-3-2-5-6-6-10 0-2 1-3 3-3l5-1 2 1v2l-2 2 2 3c0 2 2 2 3 3zm62-54l-3 2-2-1c0-3 3-5 5-6 4 0 5 1 7 5v7l-2 2-3 1c-1 0-2-1-2-3v-7zm67 88c3-1 4 0 6 2l2 6v2l-4-1-2-4c0-1 0-2-2-1l-2 1c-1 1-2 2-3 1l-2-4 2-1c2-1 4-2 5-1zm-157 30l-2-1 1-3 1-1c1-1 2-1 0-2v-2c0-2 3-3 5-3l4 3v2h-1l-2 4-6 3zm40-79c0-2 0-4 2-5 2 0 4 0 6 2v2h-1c-2 2-2 3 0 5 1 1 0 2-1 3h-1l-5-4v-3zm19 34l4 1v3c-3 1-3 2-1 3 1 2 1 4-1 4h-1l-4-3-1-3c-1-3 1-5 4-5zm18-119c4 0 6 3 5 6-2 3-4 5-8 5-1 1-3-2-3-3l1-1c2 0 4-2 5-3v-2l-1-1 1-1zm2 72c-2 3-5 3-7 0-2-1-3-4-2-6l1-2h5c2 0 2 1 1 2-1 2-1 3 1 5l1 1zm-25-72h-1l-5 4c-1 2-1 2-3 1l-1-1v-4c2-3 5-4 9-4 1-1 2 0 3 1v2c0 1-1 2-2 1zm10 103l-4-2v-1c2-2 7-1 9 1v4c-1 2-1 4-4 4l-3-2 1-1 1-3zm0-19l3 1v4l-3 2c-3 3-3 3-7 1v-1l2-2 1-2v-2l3-1h1zm-40-26c-4 0-7-3-7-7l2-3h3c2 0 2 0 1 2 0 2 0 3 2 4l2 2c0 1 0 2-2 2h-1zm102 85l3-1 1 2c0 1-2 4-4 4l-2-1c-2-1-4-3-4-5-1-2 0-3 2-3s3 1 4 4zm-74-11l-6 1c-4-1-6-5-4-8 1-1 3-2 4-1h2v2 3l1 1 3 2zm35-113c1-2 4-2 6-1h2c2 1 2 2 1 3l-2 4h-4l-1-1v-1c1-1 1-1-1-3l-1-1zm-74 25c0 2-2 4-4 6h-3v-1l1-1v-6l2-3c2 0 4 1 4 5zm9-23c-3 0-3-1-3-4 1-3 3-5 7-5 2 0 3 0 3 2 1 1 0 2-1 2-2 0-3 1-4 3l-2 2zm3 56h-6v-1-2c2-2 6-2 9-1l1 3c-1 1-1 2-3 1h-1zM232 300c2 0 4 2 4 4 0 1 0 2-2 2l-4-3c-1-1 0-3 2-3zm216-44c1-2 3-2 4-1h4l4 2c1 1 0 2-1 3l-1 3v1h5c1 0 2 0 3 2l2 1h2l1 2-1 2c-1 1-3 2-4 1l-3-2-3-1c-1 1-3 1-4-1l-3-2c-1-1-2-3-1-5 0-1 0-2-2-3l-2-2zm17-20c3-2 5-2 8-2 3 1 7 2 9 5l1 2c1 0 2 1 2 3v2h-6l-2-2-3-3-3-2-6-3zm20 22l-1 1v2l2 3c1 0 2 0 1 2 0 1 0 3-2 3-2 1-4 1-5-1l-4-4v-2c2-3 4-4 7-5 1-1 2-1 2 1zm106 2c0 2-1 2-2 2l-3-3c-1-3-1-3-3-2h-6l-1-3v-1l4-2 3 1 4 2c3 1 4 3 4 6zm-105-27l-3-1-3-3v-4l4-3 2 1c1 2 2 4 5 5l1 1c-1 3-2 4-6 4zm45 55c-3-1-6-4-5-8v-1l1-3 3 1 2 2c0 2 1 2 2 2l3 1v3l-1 1-5 2zm1-7l-1 1 1-1zm49-4h-2c-3 1-5-1-5-4l1-1h3l2-1 1-2v-1l-1-2h3c3 2 4 6 2 9-1 2-3 2-4 2zm-136-31c-2 0-2 0-1-2 0-3 0-4-2-5-1 0-2 0-1-1 1-2 4-4 6-4l2 2c1 1 2 3 1 4l-1 4-4 2zm47-2l2-7h5l1 2c-2 2-3 4-3 7v1l-2 1-1-1c-2-1-2-2-2-3zm13 23c5-1 8 4 6 8l-4 2-4-2 1-2 1-1 1-2-1-3zm50 0l6 1c2 2 2 4 0 6h-2l-1-1-4-2h-2l-2-2 1-1 4-1zm10-10c0-3 2-4 4-3 3 1 3 1 2 4l1 1c2 1 2 1 1 3-2 2-3 2-5 0l-2-2-1-3zm-306-83c3 0 4-2 4-4l1-3v-1h1l1-3h-1c1-2 3-3 5-2l2-1-4 11-4 7-5 2c-4 0-7-1-10-4-4-5-6-11-6-17l1-1h6v3c1 4 2 8 5 11l1 1c1 1 2 2 3 1zm-4-53l1 1 3 4 7 7 7 8c1 1 1 3-1 3l-3 1h-1a130 130 0 0 1-16-20c-1-2 1-4 3-4z"/><path fill="#fff" d="M259 174c-1 1-2 0-3-1l3 1zm5-8v0zm-8 7l-1-1 1 1zm0 0z"/><path fill="#040302" d="M395 212c3-1 6 1 8 2s2 4 2 6c-2 6-6 9-12 11h-3-1l-4-2c-2-4-2-7 0-10l4-6c2-1 4-2 6-1zm-8 12l3 1h1l1-2-1-5c-2 2-4 3-4 6zm10-2l3-3c1-1 0-2-1-2h-2v5zm-6-112l-1 1h-1c-5 2-10-3-9-8v-1c1-2 6-3 8-2l1 3c-1 3 0 5 2 7zm2 11v-4c0-2 1-3 2-2a5 5 0 0 1 3 2c1 2 0 3-1 4s-3 2-4 1v-1zm-83 30c0-2 1-3 2-3 1-1 3 0 3 1 1 1 0 3-1 4h-3l-1-2z"/><path fill="#FC2065" d="M480 66h-5c-1 0-2 0-1-1l1-2h3l2 3zm52 215l-1 1 1-1z"/><path fill="#fff" d="M387 224c0-3 2-4 4-6l1 5-1 2h-1l-3-1zm10-2v-5h2c2 0 2 1 1 2l-3 3z"/></g></svg>