<svg class="uit-header__man show-frame-1" xmlns="http://www.w3.org/2000/svg" viewBox="881.1 -0.1 118.8 300.1"><path fill="#87CBF3" d="M922.1 179l6.3-6 7.3-1 6.6-1.3 4.3 1.8 3.4 4.7 2.5 4.6 2 2.7s-.4 4.8-.6 4.8-3.3 2.1-3.3 2.1l-2.8 6.9-4.8 3.3-4.4 1-1.2 3-4.3-3-6.1-2.6-4-7-1.7-1.7-1.7.2-.7-4.5V183l3.2-4.1z"/><path fill="#fff" d="M924.9 203l-4.6 6.2.6 3.7 3-4.5 3.8-.6 1.8.1s1-1.2.9-1.3c-.2 0-1.4-4-1.4-4l-4.1.4zm20.8-.4l2.4.9 4.4 8.1-3 3.4-1.2 12.3-.5 3.6-3.2.6-4.1-.6-2.3-20.1.6-2.4v-2.7l2.3 1.3 2.7-2.1 1.9-2.3z"/><path fill="#FEFEFE" d="M940.5 212.7c-.1.5.3.7.5 1v.1l1 .2c.3 0 .4.2.6.1.5-.1 1.1 0 1.7-.2h1c.4-.2.7-.1 1-.1 0 0 .2 0 0-.2l.2-.2c.3 0 .6-.2 1 0l.1-.1c0-.3.3-.6.1-1l-.3-.5c-.2-.2-.4-.2-.6 0a1 1 0 0 1-.8 0h-.5a23 23 0 0 0-3.5 0h-1c-.4-.2-.6 0-.5.3v.6z"/><path fill="#010101" d="M940.5 212.7v-.6c0-.4.1-.5.4-.4.4.2.7 0 1 0h3.6l.5.1.8-.1c.2-.1.4-.1.6.1l.3.6c.2.3 0 .6 0 .9h-.3c-.3-.1-.6 0-1 .1v.2c.1.2 0 .2-.2.2h-.8l-1 .1c-.7.2-1.3.1-1.8.2h-.5l-1-.3h-.1c-.2-.4-.6-.6-.5-1.1z"/><path fill="#FCFCFC" d="M944.9 202.1l-.7.3c-.2 0-.2.3-.1.4v.3c-.9 1-1.6 2-2.3 3-.3.5-.3.5-.7.1-.4-.4-.8-.7-1.1-1.2l-.2-.1c-.2 0-.4 0-.4-.3 0-.1.1-.3.3-.3 0-.2-.3-.2-.5-.2h-.1l.2-.2 1-.1 1.6-.5 2.5-1.2c.1 0 .1-.2.3-.2l.2.2z"/><path fill="#010101" d="M920.3 224.4z"/><path fill="#3C3C3C" d="M952.2 265.5c.2-.2.3-.1.3.2-.1-.2-.2-.2-.3-.2z"/><path fill="#FCFCFC" d="M948.6 243.3z"/><path fill="#010101" d="M968.1 298.3v-.1z"/><path fill="#FDFD00" d="M933.9 186.8l.2 1c0 1 .3 2 .8 2.8.2.4.4.8.7 1 .7.6 1.4 1 2.3.8.5-.1 1-.2 1.3-.6.6-.9.6-1.9.5-2.8v-.5-2.4l.1-2.3c0-.3-.3-.9-.6-.9-.4 0-.8 0-1 .3l-.4.3c-.1 0-.4.2 0 .4v1c.1 1.6 0 3.2-.3 4.9l-.2.8c-.1 0-.2 0-.2-.2-.3-.6-.5-1.2-.6-1.9 0-.3-.2-.6-.1-.9l-.2-1.8c0-.4 0-.8.2-1.1.3-.5 0-1-.6-1.2-.5-.2-1 0-1.5.3-.2.1-.2 0-.2-.2 0-.5-.3-1-.4-1.4 0-.2-.2-.3 0-.4.2-.1 0-.2 0-.2-.3-.3-.5-.7-1-.8l-.2-.3c-.5-.4-1-.3-1.6-.5-1-.5-2-.4-3.1-.1-.5.1-1 .2-1.4.6l-.4.4c-.3 0-.5.4-.6.7l-.4 1.7v1c0 .2-.2.2-.1.3v.6l.3 1 1 2c.1 0 .2 0 .2.2l1.3.7a5.7 5.7 0 0 0 3.6.1l1-.2c.3-.2.7-.4 1-.8.3-.4.4-1 .6-1.4zm2 10.3c-1.1-.1-2.5 0-3.8-.8l-1.1-.8-.4-.4c-.2 0-.3-.2-.4-.4-.2-.2-.4-.5-.2-.8l-.2-.4c-.4-.4-.9-.6-1.3-.9h-.9c-.3 0-.4.2-.2.4v.3a8.2 8.2 0 0 0 2.2 3.1 9.9 9.9 0 0 0 5 2.2c1 .2 2 .4 3 .3l1.2-.1 1.4-.3 1.7-.7.6-.4.7-.6 1.3-1.1 1-1c.3-.2.3-.8.8-1 0-.4.4-.7.6-1l.5-1.1c.2-.3 0-.4-.1-.5-.3-.1-.2-.2 0-.4v-.2h-.7l-1.2.1-.2.2c-.2.3-.1.5-.2.8l-1 1.5c-.6.7-1.2 1.3-1.9 1.7l-1 .7c-.5.4-1.1.8-1.8 1-1 .5-2 .5-3.3.6zm8.2-8.7l1-.2c.6-.1 1.1-.2 1.5-.6.3-.3.6-.7.7-1.2 0-.5.3-.9.5-1.3.3-.7.4-1.4.5-2v-.2c-.2 0-.2-.1-.1-.2l-.2-.8-.8-.7c-.2 0-.4-.1-.5-.3-.2-.5-.6-.7-1-1-.6-.3-1.4-.5-2.1-.5-.8 0-1.3.4-2 .7l-.8.7-.5.8c-.1.4-.3.8-.2 1.1 0 1 .1 1.9.4 2.8a4 4 0 0 0 1.9 2.4c.5.4 1 .5 1.7.5zm-12.6-11.1h.2c.1-.1 0-.2 0-.2-.2-.2-.3-.3-.5-.3-.1 0-.2 0-.1-.2 0-.2 0-.3-.2-.4-.2 0-.5 0-.7-.2-.4-.2-.8-.2-1.2-.1-1.2 0-2.2.7-3 1.5-.1 0-.1.2 0 .2.3.1.4.4.6.4.2.1.5.2.7 0l.8-.2.6-.1c.3-.3.7-.4 1.1-.5h1.7zM944 175h-.3c-.8.1-1.5.4-2.2.7-.2.2-.2.2 0 .4l.4.4c.2.2.6.4.9.3l1.3-.3c.7-.2 1.4-.4 2.1 0h.2c.3-.1.5 0 .8.1 0 0 .1.1.2 0v-.2c-.2-.2-.6-.3-.5-.7h-.1c-.4-.4-.8-.4-1.2-.6-.5-.2-1-.1-1.6 0z"/><path fill="#FD2164" d="M938.5 221.4c-.2.3 0 .7 0 1l.3 2 .2 2 .3 2.4c0 .8 0 1.5.2 2.3.1.6-.1 1-.5 1.6-.7 1.1-1.5 2.3-2.1 3.6l-1 1.2h-.2l-.2-.6c-.2-.2-.4-.3-.3-.6v-.1c0-.2-.2-.2-.3-.3l-1.1-1.9c-.4-.6-.9-1.2-1.2-1.9 0-.1-.1-.2 0-.2.2 0 .2 0 .2-.2-.1-.3-.2-.6 0-1l.1-.2c0-.5 0-.9.2-1.3v-.2c-.1-.3.2-.6.2-.9l.2-1.1v-.4c.1-.1.2-.3 0-.3v-.1l.1-.1c-.2-.4.2-.6.1-1l.2-1c0-.6.3-1.3.4-2l.2-1.2.4-1.2v-.5c.3-.8.6-1.6.7-2.4l.2-1-.2.2v-.3c.1-.2 0-.5.4-.6.2 0 0-.2-.2-.3.2 0 .2-.1.3-.2l.1-.1.8-2.8v-.6-.2c.2 0 .2 0 .2.2 0 .9.2 1.7.3 2.6l.4 3.2.2 2 .3 2.4.1.1z"/><path fill="#FCFCFC" d="M926.1 225.8c.2 1 .3 1.8.3 2.8l.1.6v.2c.2.3 1 .7 1.4.6l.7-.2H930.3c.2 0 .4-.1.4-.4l-.1-1.7v-2-1.4c0-.5-.2-1 0-1.4l-.2-1.3-.1-1.2.1-.2 1-.6 1-.4c.2-.2.4-.3.4-.6l.1-1.1c0-.5.2-.9.4-1.3l.5-2c.1-.4 0-.9.3-1.3.1-.2-.2-.5-.4-.6h-.4l-.2-.2c0-.7 0-1.4-.4-2l.1-.3.6-.6c.4-.4.6-1 1.2-1.3l.2 2c0 .2 0 .4.3.5.5.2.5.2.4.6l-1 4.4-.9 2.8-.6 2.4-.7 3.2-.6 3.2-.7 3-.2 1.6.1.2c.3 0 .5.2.8.3-.3 0-.5.2-.6.1-.2-.1-.5-.2-.6-.5l-.1-.4c-.3-.3-.4-.3-.8 0h-.2l-3.8-.1h-1.1c-.4.2-.7.1-1 .1-.2 0-.1-.1-.2-.2a1 1 0 0 1-.2-.7l.2-.1 1.5.1c.4.1.7 0 1-.2.2 0 .3-.5 0-.8-.3-.5-.2-1.1 0-1.7l.1-1.4.1-.5h.1z"/><path fill="#FC2164" d="M964.3 296.4c-1.5 0-2.8 0-4-.2h-3.5a81.7 81.7 0 0 1-5.3-.4c-.4 0-.4-.4-.7-.6l-.2-.1c-.4-.1-.4-.1-.4.3v.5c0 .1 0 .2-.2.2h-1.4l-.5.2c-.4.2-.8.2-1.3.3l-2 .2c-.2 0-.2 0-.2-.2l.1-1c0-.6.1-.6.6-.7a90.1 90.1 0 0 0 4.5-.4l2.7-.4h1.2l1.1-.1 1 .1 2.3.2 1.8-.1c.7-.1 1.5-.1 2.2-.3 1-.2 2-.2 3-.2.2 0 .4.2.4.5v1.7c.1.3-.2.6-.5.5h-.8zm-43.2 1h-2.8c-.1 0-.2 0-.3-.2 0-.4-.3-.7-.6-1-.2-.2-.4 0-.5 0-.6.3-1.2.3-1.9.4l-2.3.2-2.5.2c-.9 0-1.8.2-2.6.1l-3 .3-2.3.4h-.3c0-.2.1-.3.2-.3.8-.5 1.7-.8 2.6-1h1.2l.9-.2 2-.1 2.1-.3c.4-.1.7-.1 1-.3.6-.2 1.1-.3 1.6-.6l.3-.4a1 1 0 0 1 1.2-.5h.8c.1.1.2-.1.4 0l1.8.1h1l2.3.2.3.1c.2 0 .5-.2.6 0v2.3c0 .4 0 .4-.4.5h-.8z"/><path fill="#FD2164" d="M944 172.5h-.5c-.6-.3-1.3-.5-2-.5.1-.1 0-.2 0-.2-.7.2-1.4-.3-2.2-.4-.8 0-1.5-.2-2.3-.1-1.2 0-2.4 0-3.5.4-.3 0-.5.2-.8.3h-.2v-.2l.2-.2c.4-.2.6-.4.8-.8 0-.2 0-.3-.2-.3l-.7.1-.6.1-1.3.2c-.4 0-.6.2-1 .3-.7.2-1.3.3-2 .3-.2 0-.4.2-.7.1l1-.8 2.7-.9 1.2.1c.5.1 1 0 1.4-.2.4-.3 1-.5 1.2-1l.8-.7c.2-.2-.1-.2-.1-.3.2-.1.4 0 .7.1.4 0 .7.5 1.1.4h.1c.6.4 1.3.5 1.9.8l.3.3c.2.2.4.2.7 0l.9-.3.5-.5h.3l.9.8 1 1 .7 1.2v.4c-.2.1-.2.3-.3.5z"/><path fill="#FC2164" d="M926.3 218.2c-.2 0-.1 0-.2.2 0 .2 0 .3-.2.5-.4.7-.6 1.5-.8 2.3a43 43 0 0 0-1 4.5l-.2 1.5-.1 1.2c0 .2-.1.3-.4.3-.4 0-.8 0-1.2.2 0-.4 0-.8.2-1.1l.6-2.8c.2-.4.2-1 .5-1.4l.2-1.2.7-2c0-.4.2-.8.5-1.2l.1-.6v-.2c.2-.4.3-.4.8-.4l.5.2z"/><path fill="#FCFCFC" d="M931.5 207.8l-.9-1.7-1.1-2a1 1 0 0 1 0-1c0-.2 0-.1.2 0l3.2 1h.7c0 .2-.1.2-.2.3 0 0-.2 0-.1.1 0 .1 0 .3.2.2.1 0 .2 0 .3.2.2 0 .4.1.1.3v.3c.2 0 .3 0 .3.2s-.2 0-.3 0c-.7.3-1.3.7-1.7 1.3l-.7.8z"/><path fill="#FB2164" d="M925.5 173.8l-1.3 1c-.7.5-1.3 1-1.9 1.7l-.8 1c-.7 1-1.1 2.2-1.5 3.3a7.8 7.8 0 0 0-.4 2l-.1.3h-.6v-.1-1.2-.6c.3-1.2.7-2.3 1.3-3.3 0-.2.2-.2.1-.4l.1-.2c.3 0 .3-.3.4-.5l.5-.6.4-.4c.2-.5.7-.8 1.1-1.1l1.1-.8c.5-.2 1-.3 1.4-.2h.2z"/><path fill="#FD2164" d="M926.2 212.6c.3.1.6.2.8.5.2.3.5.5.9.5.2 0 .5.1.8-.1h.3l-.2.2c-.2.3-.5.6-.6 1-.1.2-.2.4.1.5h.1c0 .4 0 .7-.3.9-.3.2-.6.5-1 .6-.5 0-1-.1-1.2-.6l-.4-.7a3 3 0 0 1 0-1.9c0-.3.1-.5.3-.7l.4-.2z"/><path fill="#FB2164" d="M928.7 225.2v3.2c0 .3-.3.5-.6.4v-.2a8 8 0 0 1-.2-1.8l-.2-1.4-.3-2.4c0-.2-.3-.4-.2-.7l-.1-.4c-.3-.1-.2-.4-.1-.6l.3-1 .4-1 .2-.2v.1l.4 1.8.2 1.9.2 2.3z"/><path fill="#FC2164" d="M922.7 208.9l.2-.2c.2 0 .2.2.3.3.4.3.8.2 1.3 0 .5 0 .8-.3 1.2-.5.4-.2 1-.2 1.4-.3.1 0 .2 0 .1.1-.2.7-.2 1.5-.6 2.2-.2.6-.2.5-.7.6-.4 0-.6-.1-.8-.4-.3-.4-.5-.8-.9-1l-.3-.2c-.5 0-.7-.4-1.1-.4-.2 0 0-.2-.1-.2z"/><path fill="#FB2164" d="M929.1 208.9l.5.4c.2 0 .4.1.4.4 0 .1.1.3.3.3.2 0 .3.2.4.5l.2.4.1.4c0 .3.1.5.3.7.1 0 .2.1.1.2 0 .1-.1 0-.2 0l-1.2.1h-.9c-.2 0-.4-.5-.4-.7l.1-1.2.3-1.5zm3 4.4c-.2 1.1-.6 2.2-1 3.3-.3-.4-.6-.3-1-.5 0 0-.1 0 0-.2l.2-1.4v-.7c0-.3.3-.4.5-.3.3 0 .7-.2 1 0l.4-.2zm-4.6-45.5c2.5-.8 5-.6 7.5 0l-1.6.2-2.1-.3-1.8.2h-1.2l-.8-.1zm-5.4 45.3c-.3 0-.4 0-.3-.4 0-.6.2-1.2.5-1.7.1-.3.2-.3.4 0 .4.3.6.8 1 1.2l-.2.5c0 .2-.2.2-.4.3h-1zm-.8 1.9v-.3c0-.1 0-.2.2-.2.5.2 1 0 1.4 0 .1-.1.2-.1.2 0l.1 1.2v.1c-.5 0-.8.3-1.2.4-.4.2-.5.2-.5-.2 0-.3-.3-.7-.2-1zm27-42.7c1.1 0 2 .7 2.4 1.6l1 2.7v.6c-.8-1.8-1.7-3.6-3.3-5zm-11.8 36v-.4c0-.2 0-.4.3-.2 0 0 .1 0 0-.1l.2-.3.3-.1.1.3v1l-.1 1-.2.1c-.4.1-.5 0-.5-.3 0-.4-.2-.7-.1-1zm-12.8 9.7l-.3.7h-.1l-.5-.6c-.1-.1 0-.1 0-.2l.5-.2.3-.2.1.5zm6.3.9l-.2-1v-.2h.1c.2.1.5.1.6.3.1.2-.2.3-.3.5l-.2.4zm7.4-11.9c-.3-.1-.5-.2-.6-.5 0-.2 0-.3.2-.2h.2c.3-.1.3 0 .3.3l-.1.4z"/><path fill="#FCFCFC" d="M926.1 225.8h-.1v-.5l.1.5z"/><path fill="#FB2164" d="M928 218.8l-.1.2c-.1-.1-.1-.2 0-.2z"/><path fill="#010101" d="M968 298.2v-.3c0-.3.2-.6 0-.7-.2-.1-.1-.3 0-.4v-.3-1.4c0-.3 0-.6-.2-.8l-.8-1.3-.3-.2c-.7-.4-1.5-.7-2.3-.8-1.2 0-2.3 0-3.5.2l-1.9.2-1.6.2c-.5 0-1 .2-1.7 0 .8-.3.9-1 .9-1.7l-.2-1-.2-1.5-.2-1.4-.1-.3-.3-1.6-.2-1.5-.2-.7c.1-.5-.1-.8-.1-1.2 0-.5-.2-1-.3-1.4 0-.4 0-.8-.2-1.2 0 0-.1 0 0-.2l-.1-.8s-.2-.2 0-.3c.2 0 0 .2.2.2v-.3c0-.2 0-.5-.3-.5v-.2l-.3-1.2v-.1c.2 0 .1.2.3.2-.1-.3 0-.6-.2-.8 0 0 0 .2-.2.2v-.1l-.2-.4c0-.2 0-.2.2-.2h.1l-.1-.2c-.2 0-.2-.2-.3-.4 0-.5 0-1-.2-1.5l-.4-1.8-.3-1.5-.2-1.2-.2-.9s-.2 0 0-.2v-.2h-.2l.2-.1c0-.2-.2-.2-.1-.3.2-.2 0-.4-.1-.4-.3 0 0-.2 0-.3h-.3l.3-.1c-.1-.5-.1-.9-.3-1.2v-.1c.2 0 0-.2 0-.2v-.7c0-.2 0-.3-.2-.4-.1-.1-.2-.3 0-.5 0 0 0-.2-.2-.3h-.1c.1-.2.2-.2.4-.2-.2-.2-.4-.3 0-.4v-.6c-.2 0-.1.3-.3.1-.2-.3-.3-.7-.3-1l-.1-1s-.4-.1 0-.3h-.2c-.2-.2-.2-.4 0-.5 0-.1-.2-.1 0-.2v-.3h-.2v-.1h.3l.1-.2c0-.1 0-.1-.1 0-.2 0-.2-.2-.2-.3l-.1-.6c-.1-.2-.1-.3 0-.4l.3.1c0-.1-.4-.2 0-.4h-.4c-.1-.2-.1-.6 0-.8 0 0 .1 0 0-.2s-.3-.4-.3-.7c0-.4 0-.4.3-.4h-.1l-.2-.1.1-.1.1-.1c0-.2 0-.4-.2-.5 0 0-.1 0 0-.1v-.8-.3c.1-.3-.1-.6 0-.8 0-.1-.2-.4-.4-.4-.1-.3-.1-.6-.3-.7-.2-.1 0-.2 0-.2.3-.1.3-.2.2-.4 0-.2-.2-.3 0-.6-.3-.1-.5-.2-.4-.6l-.2-.4v-.7c-.1-.1 0-.1 0-.2 0-.2 0-.3-.2-.4-.3-.1.1-.3 0-.3l.1-.2c.3.1.2 0 .2-.1 0-.2-.2-.3-.3-.3l.2-.3h-.2s-.2 0-.1-.1c0-.2 0-.1.2-.1h.1l-.1-.2c0-.4 0-.7-.4-1a.5.5 0 0 1 0-.4h-.1c.1-.2 0-.4.2-.5.3 0 .1-.2 0-.3v-.2-.3c0-.2-.4-.4 0-.6v-.1l-.2-.1c.1-.3 0-.5-.2-.8-.3 0-.2-.5-.4-.7h.3c-.2 0-.3 0-.3-.3v-.5c-.2 0-.1 0 0 0 0-.2.2-.2.3-.1 0-.2 0-.2-.2-.2l-.4-.1v-.2h.1c.1.1.2 0 .2 0v-.2c.2-.2 0-.2 0-.2-.2 0-.3-.1-.2-.2.1 0 0-.2 0-.2v-.5c.1 0 .2-.2 0-.2h-.2.1c0-.1.1-.2 0-.2l-.2-.4c-.1 0-.2-.1 0-.2.2-.2.2-.4 0-.6-.2 0-.2 0-.1-.1.2 0 0-.1 0-.2-.1 0-.1-.1 0-.2v-.7s.1-.1 0-.2c-.2 0-.4-.2 0-.3.2-.3.1-.6.1-1 .4.3.7 0 1 .1.5.1.7-.4 1-.4.2 0 .1-.1.1-.2l.2-2.4.2-2 .1-1.6v-.8l.3-1.8c.2-.5.1-1.1.2-1.6l.3-2.7c.1-.5.3-1 .3-1.6 0-.9.3-1.7.3-2.5l.2-1c0-.3.3-.3.5-.5a1 1 0 0 1 .9-.3c.1 0 .3 0 .3-.2 0-.1.1-.3 0-.4a1 1 0 0 1-.2-.5c-.1-.4-.3-.4-.7-.2l-.2.2h-.1v-.2l.4-.4.4-.2c0-.2 0-.4.2-.4.2-.1.2-.3.2-.4 0-.2-.2-.2-.4-.2-.3 0-.5.2-.7.3-.3 0-.5.3-.8.4a7 7 0 0 0-1.6.4h-.8c-.5.2-.7.5-.8 1-.2.8-.1 1.6-.2 2.5l.1 1.5c0 .5 0 1-.2 1.5 0 .8 0 1.5-.2 2.3l-.1 2-.2 2.2-.1 1.2-.2 2-.2 2.7c0 .3 0 .4-.3.3h-4.2c-.3.2-.5 0-.4-.3.2-.4 0-.8 0-1.1l-.2-.8v-.5c-.4-.4 0-.9-.4-1.2.1-.1 0-.3 0-.4 0-.2-.2-.4 0-.6.1 0 0-.3 0-.4l-.1.1c-.2-.4-.1-1-.2-1.4l-.1-.5v-.6c0-.1 0-.4-.2-.6 0-.7-.1-1.3-.3-2l-.4-1.6c0-.2.1-.6-.2-.8v-.8l-.3-1c-.1-.5.1-1-.3-1.4.2-.2.1-.4.1-.5l-.1-1.3c-.2-.2-.2-.5-.2-.8-.1-.5-.1-1-.3-1.4 0-.5 0-.6.5-1 .1 0 .2-.1.2-.3 0-.6 0-1.3-.2-2 0-.1-.1-.5 0-.8.6.6 1.2 1 1.8 1.4l.6.1.6-.1c.3-.1.7 0 .9-.4l.2-.2c.4-.3.7-.7 1-1.2.6-1 1.3-1.9 1.8-3l.1-.4c.2 0 .3-.2.4-.4l-.5-.2c-.2 0-.3 0-.2-.2a42.4 42.4 0 0 1-1.3-.1l-.5.3c-.3.1-.3.3-.2.4.1.2 0 .3 0 .4l-2.3 3c-.3.4-.3.4-.6 0-.4-.4-.9-.7-1.2-1.2 0 0-.1-.1-.2 0-.2 0-.4-.2-.4-.3 0-.2.2-.3.4-.4-.1-.2-.3-.2-.5-.1l-.2-.1.2-.1 1-.2 1.6-.5 2.5-1.2.3-.2.2-.2c1.3-.8 2.5-1.6 3.3-3 .4-.6 1-1.1 1.4-1.8l.9-1.5c0-.2 0-.5.2-.7l.5-1 .7-2.4c0-.2.2-.2.4-.2.4.1.8.2 1.2 0l.2-.1c.6 0 1-.3 1.2-.7.4-.5.5-1.2.7-1.8l.2-2v-1.3c0-.5-.2-1-.3-1.4 0-.6-.2-1.2-.7-1.6l-.9-.5c-.2-.1-.2-.2-.2-.4l.1-.7v-.4-1l-.1-1.8-.1-1.2c0-.2-.3-.3-.3-.5l-.2-.9c-.3-.6-.5-1.4-1-2a6 6 0 0 0-1.5-1.5c-.5-.3-1-.5-1.5-.5-.8 0-1.4.3-1.9.8 0 .1-.1 0-.2 0h-.2l-1-.3.5-.3c.2 0 .2-.2.1-.3l-1-1.4a11.4 11.4 0 0 0-3-2.6l-1.4-.6-2-.4h-2.5c-.4 0-.8.2-1.2.1-1.3-.2-2.5-.2-3.8-.2l-.9.1c-.9 0-1.7.3-2.6.5l-.2.1h-.2c-.9.4-1.5 1-1.8 2 0 0 0 .2-.2.3v.2l-.1.5c0 .2.2.3.3.5.2.2.5.2.8.3h.2c0 .2-.2.2-.3.3l-1 1.1v.3l-.5 1-.6-.4c-.6-.2-1.3-.3-2-.1-.3 0-.7.1-.9.4l-1.1 1c-.6.4-1.1 1-1.6 1.6l-.2.2-.1.3-.2.2-.5 1c0 .1 0 .2-.2.3l-.5 1.3-.1.3-.2.4-.3 1.2v1.9l.2.7c.1.1.7.4.8.3.3 0 .4.2.3.5v.2l-.2.4v4.6l.1.3c0 .2 0 .5.2.7.4.8.7 1.6 1.5 2l.2.1c.2 0 .3 0 .4.2.2.2.4.1.6 0l.8-.2c.1 0 .2-.1.2 0v.1l-.2.1c0 .1 0 .2-.2.3-.2.2 0 .4 0 .6l.1.8.3.8.1.2.1.2.2.3a91 91 0 0 0 1 1.8l.3.3.1.2.2.2.1.2.2.2.1.2.2.3.2.3c.1.1.3.2.3.4l.2.2 1 .7.2.2.2.2.3.2.2.2c.2 0 .3.1.5.3h.2l.1.1c.2.1.3.2 0 .4v.2c0 .3 0 .7-.2.9l-.2.3v.6c.3.2.4.4.5.7l.8 1.4.3.5c0 .1.2.2.1.3-.1.1-.2.3-.5.2a5 5 0 0 0-4.3.2 5 5 0 0 0-1.4 1l.2.2c.2 0 .2.2.3.2.5.3.9.2 1.3.1.5 0 .8-.4 1.2-.5l1.5-.4s.1 0 0 .2c-.2.7-.2 1.5-.6 2.1v.1c-.1.5-.2.5-.7.6-.4 0-.5-.2-.8-.5-.2-.3-.4-.8-.8-1l-.4-.2c-.4 0-.7-.4-1-.4-.2 0-.2-.1-.2-.2-.2-.1-.2-.3 0-.5l-.4.1-1.7 1.4c-.2.1-.1.3-.3.4a6 6 0 0 0-.6 3.2l.2.2c.2.2.2.2 0 .3l-.4.4-.1.2c0 .7 0 1.4.2 2l.4.8c.2.1 0 .6.4.6V226.1l-.2.2v.3l-.1.2v.3l-.3.7v.4c-.2.4 0 .8.2.9.3.1.3.3.2.6v1.1c.2.4.1 1 .2 1.4v.4l.3.1h.3c.2.1.5.2.8 0h.1c.2.4.3.7 0 1v.3l-.3 1.6v.3l-.2.6v.2l-.1.3v.4l-.1.2-.4 1.7-.6 3-.6 3.4-.8 3.8-.1.2-.5 2.1v.3l-.1.6v.2l-.3 1-.1.7v.2l-.1.4v.2l-.5 2.3v.4l-.2.4v.2l-.2 1.4c0 .2 0 .4-.2.6v.3l-.5 3.1v.3l-.4 2.4a45.3 45.3 0 0 1-.3 1.9l-.2 1v.8l-.1.3-.1.8-.2 1.7v.3l-.1.2v.5l-.1.2v.7l-.1.3v.4l-.1.4v.8l-.2.6c0 .7-.1 1.4-.3 2v1.2l-.5 4.3v.3l-.1 1.3v.3l-.1.4v.4l-.1 1.4v1.2l-.1.3v.3s0 .2-.2.2l-.3.1-.3.6v.3l-.1.6s-.1.1 0 .2c.1 0 0 .1 0 .2 0 .2-.1 0-.2.1 0 .1-.1 0-.2 0-.5.3-1.1.3-1.7.3 0 .1 0 0-.2 0l-.8.2h-.5l-.8.1-1.7.2h-.3l-1.7.3-.7.2-.9.3c0 .2-.2.2-.3.2h-.1l-.2.2-.7 1-.1.1-.2 1c0 .5 0 1 .4 1.4v.4c.2.4.4.7.9.7h.2c.4-.2.8-.2 1.2-.2.2 0 .3-.2.5 0h.6l1.7-.2 2-.2h2.4c.5-.2 1-.2 1.6-.3l1.6-.2c.6 0 1-.1 1.6-.3.4 0 .8 0 1.3-.2 0 0 .2 0 .2.2l.2.9c0 .2.1.3.4.2l.6-.1c.5 0 1 0 1.5-.2l1.8-.2 1-.2c.3-.1.3-.5.6-.7v-.2c0-.2 0-.4.2-.6l.1-.1v-1.1-1.5c0-.2 0-.2.2-.2h.8c.5 0 .9 0 1.2-.4l.4-.8c.2-.2.3-.4.3-.7.1-1.2.5-2.2.6-3.4l.3-1.3.3-1.8c.2-1 .2-2 .6-2.8l.3-1.2c.3-.8.3-1.6.5-2.4l.4-1.7.1-.5.5-2.3.1-.3c0-.6.3-1.2.4-1.9l.2-1 .4-2 .6-2.6.3-1.4.3-1.2s0-.1 0 0c.2 0 .2 0 .2-.2 0-.3 0-.5.2-.8v-.8c.1 0 .3-.2.1-.3.3-.2.1-.5.1-.6v-.2c.2-.2.2-.5.2-.8l.3-1.3.2-1.1c.1-.4.3-.8.3-1.3v-.9c0-.2.1-.3.3-.4-.1-.3.1-.5.1-.7 0-.7.3-1.4.5-2.1v.2l.2 1 .3 2.2.3 1.7c0 .2.2 0 .1.2-.2.2 0 .5 0 .7l.4 2 .4 2.6.3 1.5.3 1.9.3 1.8c0 .4 0 .9.2 1.3l.3 1.7.5 2.8.6 3.4.6 3.2.3 1.5.6 2.8.2 1c0 .5.1 1 .3 1.4l.4 2.1.3 1.5.4 1.7c0 .2.1.3.3.2.3 0 .6.2 1 0h.1l.2.6v.1c-.3.1-.4.4-.7.4l-.3.2v.5c0 .5.3 1 .1 1.5 0 .1-.2.4.1.5.2 0 .4.2.5.3.4.3.8.4 1.2.3l2.4-.2 2.5-.4c.3-.1.6-.2.8-.1.6.3 1.2.3 1.8.3h.3c.4.4 1 .3 1.5.4h.8l1.1.2c.3 0 .6-.1.8 0H957.6c.3 0 .7.2 1-.1h.2c0 .1-.1 0 0 .2h2.2c.8.2 1.7.1 2.5.2h1.9c.5 0 1 0 1.4-.2h1.1c0-.1.2 0 .3-.2l-.1-.1zm-17.3-124.3l1 2.7v.6c-.8-1.8-1.7-3.6-3.3-5 1 0 2 .8 2.3 1.7zm-15.7-6.1l-1.6.2-2.1-.3-1.8.2h-1.2l-.8-.1c2.5-.8 5-.6 7.5 0zM919.5 183h-.6v-.1-1.2-.6c.3-1.2.7-2.3 1.3-3.4.1 0 .2-.1.1-.3 0 0 0-.2.2-.2s.2-.3.4-.5l.4-.6.4-.4c.2-.5.7-.8 1.1-1.1l1.2-.8c.4-.2.8-.4 1.3-.2h.2l-1.3 1-1.9 1.8-.8 1c-.7 1-1.1 2.1-1.5 3.3a7.8 7.8 0 0 0-.4 2l-.1.3zm8.3 15.6l-1-1c-1-1-1.7-2.1-2.2-3.4l-.4-.8-.2-1.1c0-.4 0-.5-.4-.6h-.1c-.4-.3-.7-.2-1.1 0h-.2l.2-.5c.2-.3 0-.6-.4-.7-.5-.1-.9.1-1.2.5 0 0-.1.1-.2 0l-.4-.8-.4-1.1v-.9-1-1.6c.1-.5.2-.6.8-.5.6 0 1-.2 1.3-.7 0 0 .1 0 0-.2 0-.2 0-.3.3-.3.1 0 0-.2 0-.2a1 1 0 0 1-.1-1.1l-.1-.3.5-1.7c.1-.7.5-1.2.9-1.8.3-.5.5-.9.9-1.3a15.4 15.4 0 0 1 2.7-2.4l1.6-1 2-.8.8-.3c.5.2 1-.1 1.6-.2l2-.2 2.8.1 1.6.4h.7c.4-.3.9-.5 1.2-.9l.3-.3v-.2c-.8.2-1.5-.3-2.3-.3-.7-.1-1.5-.3-2.3-.2-1.2 0-2.4 0-3.5.4-.3 0-.5.2-.8.3h-.1v-.2c0-.1 0-.2.2-.2.3-.2.5-.4.7-.8 0-.2 0-.2-.2-.3l-.7.1-.6.1-1.3.2c-.4 0-.6.2-1 .3-.6.2-1.3.3-2 .3-.2 0-.4.2-.7.1l1.1-.7c.8-.5 1.8-.7 2.7-1 .4 0 .8 0 1.1.2.5 0 1 0 1.4-.3.4-.3 1-.5 1.3-1l.7-.7c.3-.2 0-.2-.1-.3.2-.1.5 0 .7.1.4 0 .7.5 1.2.4.6.4 1.3.5 1.9.8l.3.3c.2.2.4.2.7 0l1-.3.4-.5h.3l1 .8.8 1 .8 1.2c.1 0 0 .2 0 .4-.2.1-.2.3-.3.5-.2.3 0 .2.2.4.3.3.4-.1.6 0 .3 0 .6 0 .9.2.7.5 1.3 1 1.9 1.9a16.8 16.8 0 0 1 2.3 5.6v1.5c.1.3 0 .6-.1.9-.1.2 0 .3.1.5 0 0 .2.2.3.1l.7-.1c-.2.5-.2 1-.3 1.6l.1.2c.5.1 1 .1 1.5-.3.3-.2.5-.6.5-1 0-.2 0-.3.2-.5l.2 1.2v1.4c0 .6 0 1.1-.2 1.6l-.4 1.5c-.1.4-.4.7-.7 1h-.3c-.1-.2-.3-.2-.4 0-.6.4-1.2 1-1.4 1.8v.4c.1 0 0 .1 0 .2-.3 1.2-.9 2.5-1.6 3.6l-1.4 2c-.3.2-.5.6-.8.7a9.5 9.5 0 0 1-5.6 3l-2.5.3h-2c-.5 0-1 0-1.6-.2-.2 0-.5 0-.7-.2-.1 0-.3 0-.2-.1-.5 0-.8-.3-1.2-.4-.8-.2-1.4-.7-2.2-1.1a14 14 0 0 1-2-1.5zm8.7 9.2c0-.2 0-.4.3-.2 0 0 .1 0 0-.1l.2-.3h.3c.2 0 .1 0 .1.2v1l-.1 1-.2.1c-.3.1-.4 0-.5-.3l-.2-1v-.4zm0-3.1l-.6-.3-.1-.1v-.1a57.7 57.7 0 0 0 1.5 0c0 .5-.4.7-.9.5zm.9 2.2c-.3-.1-.5-.2-.6-.5 0-.2 0-.3.2-.3h.2c.3 0 .3.1.3.4l-.1.4zm-7.2 9.1c-.2 0-.2 0-.1-.2 0-.5.2-1 .3-1.4v-.6c0-.4.2-.4.4-.4.4 0 .7-.2 1 0l.4-.2-1.1 3.3c-.3-.3-.6-.3-.9-.5zm0 2.4s0 .2-.2.3l-.3-1v-.1h.2c.2.1.5.1.6.3 0 .2-.2.3-.3.5zm1.4-10.8l-1-1.6-1.1-2a1 1 0 0 1 0-1c0-.2 0-.1.2 0l3.2 1h.7c0 .2-.1.2-.2.3 0 0-.2 0-.1.1 0 .1 0 .3.2.2.1 0 .2 0 .3.2.2 0 .4.1.1.3v.3c.2 0 .3 0 .3.2s-.2 0-.3 0c-.7.3-1.3.7-1.7 1.3l-.6.8zm-2.8 2.7l.3-1.5.5.4c.2 0 .4.1.4.4 0 .1.1.3.3.3.2 0 .3.2.4.5l.2.4.1.4c0 .3.1.5.4.7v.2c0 .1-.1 0-.2 0l-1.2.1h-.9l-.4-.7.1-1.2zm-3.3 3.1c0-.3.1-.5.3-.7l.4-.2c.3.1.6.2.8.5.2.3.5.5.9.5.2 0 .5.1.8-.1h.3l-.2.2c-.2.3-.5.6-.6 1-.1.2-.2.4.1.5h.1c0 .4 0 .7-.3.9-.3.2-.6.5-1 .6-.4 0-1-.1-1.2-.6l-.4-.7a3 3 0 0 1 0-1.9zm3.2 14.9c0 .3-.3.5-.6.4v-.2a8 8 0 0 1-.2-1.8l-.2-1.4-.3-2.4c0-.2-.3-.4-.2-.7l-.1-.4c-.3-.1-.2-.4-.1-.6l.3-1 .4-1 .2-.2v.1l.4 1.8.2 1.9.2 2.3v3.2zm-.8-9.6v.2c-.1-.1-.1-.2 0-.2zm-6.1-6c0-.7.2-1.3.5-1.8.1-.3.2-.3.4 0 .4.3.6.8 1 1.2l-.2.5c0 .2-.2.2-.4.3h-1c-.3 0-.4 0-.3-.3zm2 5.1l-.4.8h-.1l-.5-.6c-.1-.1 0-.2 0-.2l.5-.2.3-.2.1.4zm-1.8-1.7c-.4.2-.4.2-.5-.2l-.2-1v-.3c0-.1 0-.2.2-.2.5.2 1 0 1.4 0 .1-.1.2-.1.2 0l.1 1.2v.1c-.5 0-.8.3-1.2.4zm.3 79c-.1.6 0 1.1 0 1.6 0 .4-.1.4-.5.5h-.7l-2 .2h-.8c-.1 0-.2 0-.3-.3 0-.4-.3-.7-.6-1-.2-.2-.4 0-.5.1-.6.2-1.2.2-1.9.3l-2.2.2-2.6.2c-.9 0-1.8.2-2.6.1-1 0-2 .3-3 .4-.8 0-1.6.2-2.3.3h-.3c0-.2.1-.2.2-.3.8-.5 1.7-.8 2.6-1h1.2l.9-.2h2l2.1-.4 1-.2 1.6-.7c.2-.1.2-.2.3-.4a1 1 0 0 1 1.2-.5l.8.1.4-.2 1.8.3h1l2.3.2H922.3v.8zm-.1-66.3c0-.4 0-.8.2-1.2l.6-2.7c.2-.5.2-1 .5-1.4l.2-1.2.7-2c0-.4.2-.8.4-1.2.2-.2 0-.4.2-.6v-.2c.2-.4.3-.4.7-.4l.6.1c-.2 0-.2.2-.2.3l-.2.5c-.5.7-.6 1.5-.8 2.3a43 43 0 0 0-1 4.4l-.2 1.6-.2 1.2c0 .2 0 .3-.3.3-.4 0-.8 0-1.2.2zm10.1-5.1l-.6 3.2-.7 3-.2 1.6.1.2c.3 0 .5.2.7.3-.2 0-.4.2-.5.1l-.6-.5c0-.2 0-.3-.2-.4-.2-.3-.3-.3-.7 0h-.2l-3.8-.1h-1.1c-.4.2-.7.1-1 .1-.2 0-.1-.1-.2-.2a1 1 0 0 1-.2-.7l.2-.1 1.5.1c.4.1.7 0 1-.2.2 0 .2-.5 0-.8-.3-.5-.2-1.1 0-1.7v-1.4l.2-.5v-.4c.1.1.2.2.1.4l.4 2.8v.7c.2.4 1 .8 1.4.7l.7-.2H930.3c.3 0 .4 0 .4-.4v-1.7c-.2-.7 0-1.3 0-2l-.2-1.4v-1.4-1.3l-.2-1.2.1-.2 1-.6 1-.4c.2-.1.4-.3.4-.6 0-.4.2-.7.1-1.1 0-.5.2-.9.4-1.3l.6-2c0-.4 0-.9.2-1.3.1-.2-.2-.5-.4-.6h-.4s-.2 0-.1-.2c0-.7-.2-1.4-.5-2l.1-.3.6-.6c.4-.4.7-1 1.2-1.3l.2 2c0 .3.1.4.3.5.5.2.5.2.4.7l-1 4.3-.9 2.8-.6 2.4-.7 3.2zm6.8 8.8c-.8 1.2-1.6 2.4-2.2 3.7-.2.5-.7.8-1 1.2h-.1c0-.3-.2-.4-.3-.6-.1-.2-.4-.3-.3-.6v-.1h-.1l-.1-.4-1.2-1.8c-.4-.7-.9-1.3-1.2-2 0 0-.1-.1 0-.1.2 0 .2 0 .2-.2-.1-.3-.2-.7 0-1l.1-.3c0-.4 0-.8.2-1.2v-.2c-.1-.4.2-.6.2-1l.2-1v-.5c.1 0 .2-.2 0-.3l.1-.2c-.2-.3.1-.5.1-.9l.2-1c0-.6.2-1.3.4-2l.2-1.2.4-1.2v-.6c.3-.8.6-1.6.7-2.4l.2-.9c-.1 0-.1.2-.2.1v-.2c.1-.2 0-.5.4-.6.2 0 0-.3-.2-.3.2 0 .2-.2.3-.2l.1-.1.8-2.8v-.6-.2c.2 0 .2 0 .2.2l.3 2.6.4 3.2.2 2c0 .8.2 1.6.3 2.3l.1.2c-.2.3 0 .6 0 1l.3 2 .2 2 .2 2.4c0 .8.2 1.5.3 2.2.1.7-.1 1.1-.4 1.6zm25.9 63.8h-.7c-1.5 0-2.8 0-4-.2h-3.5a81.7 81.7 0 0 1-5.3-.4c-.4 0-.4-.4-.7-.6l-.2-.1c-.4-.1-.4-.1-.4.3v.5c0 .1 0 .2-.2.2h-1.4l-.5.2c-.4.2-.8.2-1.3.3l-2 .2c-.2 0-.2 0-.2-.2l.1-1c0-.6.1-.6.6-.7a90.1 90.1 0 0 0 4.5-.4l2.7-.4h1.2l1.1-.1 1 .1 2.3.2 1.8-.1c.7-.1 1.5-.1 2.2-.3 1-.2 2-.2 3-.2.2 0 .4.2.4.5v1.7c.1.3-.2.6-.5.5z"/><path fill="#FEFEFE" d="M951.5 262.1h-.2.2z"/><path fill="#FD2164" d="M938.5 221.4zm-3.4 14.8z"/><path fill="#010100" d="M933.9 186.8c-.2.5-.3 1-.6 1.4-.3.3-.6.6-1 .7-.3.2-.6.2-1 .3a5.4 5.4 0 0 1-3.6-.2c-.4-.1-.9-.3-1.2-.7 0 0-.2 0-.2-.2-.3-.6-.8-1.2-1-1.9-.2-.3-.2-.7-.3-1l-.1-.6v-.3c0-.3 0-.7.2-1l.4-1.8c0-.2.2-.5.5-.6l.4-.4c.4-.4 1-.5 1.4-.6 1-.4 2.1-.4 3.2 0 .5.3 1 .2 1.5.6l.3.2c.4.2.6.6.9.9 0 0 .2 0 0 .2-.2 0 0 .2 0 .4.1.4.4.9.4 1.4 0 .1 0 .3.2.1.5-.2 1-.4 1.5-.2.5.1.9.7.6 1.2l-.2 1.1.2 1.8.1 1c.2.6.3 1.3.6 1.8 0 .1 0 .2.2.2l.2-.8c.3-1.6.4-3.3.4-4.9v-.8c0-.1 0-.2-.2-.2-.2-.2 0-.3.1-.4.2 0 .3-.1.4-.3.3-.3.6-.3 1-.3.3 0 .7.6.6 1v4.6.5c0 1 0 2-.6 2.8-.3.5-.8.5-1.2.6a3 3 0 0 1-2.4-.7 3 3 0 0 1-.7-1c-.5-1-.7-1.9-.8-2.9l-.2-1zm-5.9-2.3c-.2 0-.3 0-.3.3-.1.2.3.5 0 .8l.1.2c0 .6.2 1 .5 1.3.1.2 0 .4.3.6.3.3 1.5.5 2 .4.3 0 .5-.1.7-.5.3-.9.5-1.8.5-2.8.1-.8 0-1.7-.2-2.6-.1-.5-.3-.6-.7-.7-.3 0-.5-.2-.7-.3 0-.2-.2-.2-.3-.2-.3-.1-.6 0-.8.1a1 1 0 0 0-.5.4l.1.2v.1c-.2.1-.2.3-.3.4-.4.2-.2.8-.5 1.1.4.3-.2.4 0 .6-.3.3-.1.4.1.6zm8 12.6a9 9 0 0 0 3.3-.5 10 10 0 0 0 1.9-1l1-.7c.6-.5 1.2-1.1 1.7-1.8.4-.4.8-1 1-1.5.2-.2 0-.5.3-.8l.2-.2c.4 0 .8 0 1.2-.2.3 0 .4.3.7.1v.2c-.2.2-.2.3 0 .4.1 0 .3.2.2.5l-.6 1c-.2.4-.5.7-.6 1.2-.5.1-.5.7-.8 1l-1 1-1.3 1-.7.6-.5.4c-.6.2-1.1.6-1.7.7l-1.5.3h-1.2c-1 .2-2 0-3-.1-1.9-.4-3.6-1-5-2.3a8.2 8.2 0 0 1-2.2-3.4c-.2-.2 0-.3.2-.3a19.7 19.7 0 0 0 .9 0c.4.3.9.4 1.3.8l.2.4c-.2.3 0 .6.2.8l.4.4.4.4 1 .8c1.4.7 2.8.7 4 .8zm8-8.7c-.6 0-1.1-.1-1.6-.5a4 4 0 0 1-2-2.4l-.3-2.8c0-.3 0-.7.2-1 .1-.4.3-.6.5-.9.2-.3.5-.5.9-.7.5-.3 1.1-.6 1.8-.7.8 0 1.6.2 2.2.6.4.2.8.4 1 1l.4.2c.3.2.7.4.9.7l.2.8v.2l.1.1c-.1.7-.2 1.4-.5 2l-.5 1.4c0 .5-.4.9-.7 1.2-.4.4-1 .5-1.4.6l-1.1.2zm0-1.4c.5 0 .7-.2.8-.6l.7-1.4c.2-.6.5-1.2.6-2 0-.2 0-.5-.4-.6v-.3c0-.1-.1-.2-.3-.2 0 0-.3 0-.3-.2 0-.4-.3-.7-.6-1-.3 0-.5-.1-.8 0-.6.3-1 .8-1.3 1.4-.1.2-.3.5 0 .7v.2c-.2.5-.1 1-.1 1.4l.3 1.2c0 .4.4.7.6 1 .2.2.5.4.8.3zm-12.5-9.7c-.5 0-1.1-.1-1.6 0-.5 0-.9.1-1.2.4l-.6.2-.8.1c-.2.2-.5.1-.7 0-.2 0-.4-.3-.6-.4-.1 0-.1-.1 0-.2.8-.8 1.8-1.4 3-1.5l1.3.1.6.2c.2.1.3.2.2.4l.1.2c.2 0 .4.1.4.3 0 0 .2 0 .2.2h-.3zM944 175l1.6.1c.4.2.8.2 1.2.5 0 .5.5.6.6.8v.2c0 .1-.1 0-.2 0-.3-.1-.5-.2-.8-.1h-.2c-.7-.4-1.4-.2-2 0l-1.5.3c-.3 0-.6-.1-.8-.3l-.4-.4c-.2-.1-.2-.2 0-.4.7-.3 1.4-.6 2.2-.6h.3z"/><path fill="#FDFDFC" d="M928 184.5c-.2-.2-.4-.3-.1-.6-.2-.2.3-.4 0-.6.3-.3 0-.9.5-1.1l.3-.4c-.1-.1-.2-.2 0-.3 0-.2.2-.4.4-.4.2-.1.5-.3.8-.1 0 0 .2 0 .2.2.3 0 .5.2.8.3.4.1.6.2.7.7.2.9.3 1.7.2 2.6 0 1-.2 2-.5 2.8-.2.4-.4.5-.7.5a4 4 0 0 1-2-.4l-.3-.6c-.3-.4-.6-.7-.5-1.3v-.1l-.1-.1c.3-.3-.1-.6 0-.8 0-.2 0-.4.3-.3zm2.3-.1v-.3c-.1-.3-.6-.4-1-.3-.4.2-.7.7-.5 1 0 .4.3.7.7.8h.4c0 .1.5-.3.4-.4v-.8zm-2.5 1c0 .2 0 .3.2.2l-.2-.2z"/><path fill="#FCFCFC" d="M944 187c-.3 0-.6-.2-.8-.4-.2-.3-.5-.6-.6-1l-.3-1.2.1-1.4v-.2c-.3-.2 0-.5 0-.7.4-.6.7-1 1.3-1.4.3-.1.5 0 .8.1.3.2.6.5.6.9 0 .2.2.2.3.2.2 0 .3 0 .2.3l.1.2c.4 0 .4.4.4.7-.1.7-.4 1.3-.6 2l-.7 1.3c-.2.4-.3.6-.8.5zm0-2c.1 0 .4 0 .5-.2.2-.3.2-.6.2-1s-.6-.7-1-.5l-.8.5v.1c0 .5.6 1 1 1z"/><path fill="#010100" d="M930.3 184.4v.8l-.4.5c-.1-.2-.3 0-.4 0-.4-.2-.6-.5-.7-.8-.2-.4.1-.9.6-1 .3-.2.8-.1.9.2v.3zm-2.5 1c.2 0 .1.2.2.2-.2 0-.1 0-.2-.2zm16.2-.5c-.5 0-1.1-.5-1.2-1 .3-.3.6-.5 1-.6.4-.2.9.1 1 .6l-.3 1h-.5z"/><g class="frame--2"><path fill="#87CBF3" d="M887 187s-2.2-3.3-2.4-3.3c-.2 0-1-2.4-1-2.4l1.7-3 1.2-.7 1 .6.9-1.5-.3-1.3-1.4-.6.2-2-1-1.6 1-1.7 2 .1.3 2.5 1 .8 1.2.6 1.4-.2v1.3l2 .5 1.1 1.5 1.6 2.3s-1.6 3.3-1.8 3.4a62 62 0 0 0-2.6 2.6l-3 2.1-1.7-.7-1.5.7zm99-4.5l2.7 1.6 2.2-.3 4.6-3 .8-5.5s-7.2 2.7-7.4 3c-.2.1-2.8-1.6-2.8-1.6l1-2.4 2.7-.5c-.2 0 1-1.2 1-1.2l1.8-5.8h-2.4l-1.8 2-2 1.7-1.1.8-1.7.2-1.3.8-.9 2.6-.4 2.2s.6 2.5.4 2.5 4.7 3 4.7 3z"/><path fill="#fff" d="M948 203.5l8.7.7 13.1-5.2h1.6v-2.1l12.1-14.6 4 1 3.4 3.4-14.9 17.5-7 3-19 5.9-2-9.6zM883 191.3l6.2-5.3 4 6.4 3.5 2.3 3.3 4.1 3.3 1.4 6.7 2 10.8 3 4.2-2.2-5.1 9-9-1.4-12.4-6-2.8.6-11-11.2-2-2 .2-.7z"/><path fill="#979696" d="M999.8 166.8v-2.3 2.3z"/><path fill="#FEFEFE" d="M881.4 56c0 .1 0 .3-.3.2V56h.3z"/><path fill="#050404" d="M955.5 212.6h-.4c0 .5-.3.5-.5.5-.5-.1-1 .2-1.4.2h-.5l-.1.1c-.1.3-.3.4-.6.3-.2-.3-.4-.3-.5.1h.4v.2h-.2l-1.2.4c-.3.2-.6.2-.8.2-.6 0-1 .2-1.6.3.2-.8.1-1.7.8-2.3.1-.1.3-.3.3-.5.1-.4.3-.5.7-.6 1.5-.3 3-.8 4.4-1.2l10.4-3 5-1.3c1-.6 2.1-.3 3-.8.3-.1.6.2 1 .2l.1.4.3.6c.2.5 0 .8-.5 1l-2.3.8c-.1 0-.3 0-.4.2-.7.4-1.4.5-2 .7l-2.3.7-3.5 1c-.6.2-1.2.3-1.7.6l-.6.1c-.2 0-.6-.1-.7.3-.6 0-1.1.2-1.6.3H956c.2.3.4 0 .6.2.1 0 .3.1 0 .3l-.7-.1c-.2-.2-.3 0-.4.1zm-4.9 1.3h.1l-.1-.2-.1.1.1.1z"/><path fill="#060505" d="M986.8 185.9c.3 0 .5.3.6.5.2.3 0 .5-.2.6l-.5.3c-.2.1-.4.2-.5 0-.2-.3-.2-.6 0-1 .1-.2.4-.3.6-.4z"/><path fill="#979696" d="M955.5 212.6c0-.2.2-.3.4-.1.2.2.5.1.8 0-.3.4-.7.2-1 .3 0 0-.2 0-.3-.2zm-3.6 1.2h-.3c0-.4.2-.4.4-.1l-.1.1zm-16-73v-.2-.2c.1 0 .2 0 .2.2l-.1.3zm22.5 71.8l-.2-.1.1-.2.2.1v.2z"/><path fill="#FDFDFD" d="M889.5 70c-.3-.4-.3-1-.6-1.3l-1-1.8-2-4.3-1.4-2.8c-.3-.6-.5-1.3-.9-1.8v-.3l1.3 1c1.7 1.6 3.2 3.3 4.7 5l3.9 4.6 5.9 7.2 3.8 4.8c2.1 2.5 4 5.2 6.1 7.8l4.7 5.8 3.5 4.4 2.4 3.2a391.3 391.3 0 0 0 6.4 8l3 3.8 2.8 3.3 6.1 7.8 3 3.7 4.5 5.7 6 7.4 5.5 6.6 2.9 3.6a36 36 0 0 0 3 3.6c.4.5.4.5 1 .3v1c-.1.4 0 .8.4 1l.1.2c.2.5.5.9 1.1.8.1 0 .2 0 .3.2v-.3c0-.2 0-.4.2-.4l.1-.3c0-.5 0-1.1-.2-1.7a8.7 8.7 0 0 1-.4-4.2c.2-.7.1-1.5.4-2.3.4-.8.8-1.6 1.4-2.3l.7-1.1c.4-.6 1-1 1.6-1.4 1.7-1 3.6-1.9 5.6-2.2h2.9c3.8.3 7.1 1.8 10 4.5a32.4 32.4 0 0 1 8.7 15.8c.3 2 .2 4.1-.2 6.2-.5 1.9-1.4 3.5-2.8 5-.7.8-1.6 1.6-2.6 2.3-.6.3-1 .8-1.5 1.4 0 .1-.2.3-.4.1l-2.5-1.4-.2-.1 1-1.3.2-.1c.4-.1.8 0 1.1.1 1 .4 1.6 0 2.1-.7l.6-.8c.2-.4.2-.8-.2-1-.2-.2-.3-.4 0-.6 0-.3.2-.5.5-.7l.3-.3c.2-.2.3-.4 0-.5-.2-.2-.2-.4 0-.6.2-.2.3-.5.3-.9 0-.2.3-.4.4-.6.2-.4.5-.7.1-1.1v-.2c.6-1 .5-2 .5-3.1 0-1-.4-2-.7-3l-.2-1c-.3-1-.8-1.9-1.3-2.7l-2.3-3-.6-.9a17.5 17.5 0 0 0-4-3.5l-1.2-.9c-.5-.4-1.2-.6-1.8-1a10.4 10.4 0 0 0-8.4-.8c-1.2.4-2.4 1-3.4 1.9-.8.6-1.3 1.5-1.7 2.5a12 12 0 0 0-.7 3.5l-.2 1.2.1 3.1.1.9c0 1.5.5 2.9 1.1 4.2a23 23 0 0 0 8.6 9.8c.8.5 2.5 1.2 3.6 1.2-.6 1-1 2-1 3-.3 0-.6 0-.9-.3-1-.5-2-1-2.9-1.7a40.5 40.5 0 0 1-7-6.5l-2.5-3.3-1.2-1.6-1.5-2.3-2-3.2-1-1.5c-.2-.3-.3-.7-.7-1l-.2-.2c-.3-.7-.8-1.4-1.3-2l-1.3-1.9c-.4-.4-.5-1-1-1.4.1-.4-.4-.4-.5-.7 0-.2-.3-.4-.5-.7-.3-.6-.8-1-1.2-1.7l-1.3-1.5-1.2-1.4-.1-.1c-.2-.4-.7-.3-.8-.6l-.5-.8-1.1-1-1-.7c-.7-.8-1.8-1.2-2.7-1.7-.2-.1-.3 0-.4 0-.5.1-1 0-1.3-.4l-.4-.2c-1 0-2 0-2.9.4h-.1c-.5 0-.9 0-1.3.3-.3.1-.5 0-.7-.2l-3-3.2-2-2.4-3-3.7-2.2-2.5-2.4-3-3.2-4-2.9-3.8-1.4-1.7-1.4-2c-.8-1-1.7-2.1-2.4-3.3l-.4-.5c-.4-.3-.6-.8-1-1.3-.3-.6-.8-1-1.2-1.6l-.4-.7-1.5-2.3c-.5-.7-1-1.2-1.4-2l-.5-.6c-.2-.3-.5-.6-.6-1l-.1-.4c-1-1.2-1.7-2.5-2.6-3.7-.5-.7-.8-1.5-1.4-2.1-.4-.4-.6-1-.9-1.5-.7-1-1.2-2.3-2-3.3-.2-.4-.4-.8-.7-1-.2-.2-.2-.6-.3-.8l-1.2-2-.7-1.1c-.2-.6-.6-1-.9-1.6-.3-.8-.7-1.5-1.2-2.2-.5-.8-.8-1.7-1.4-2.6l-.5-1c-.3-.3-.4-.8-.6-1.2l-1-2c-.3-.3-.5-.5-.6-.9 0-.3-.4-.4-.5-.6-.1-.2-.3-.2 0-.3.1 0 0-.1 0-.1-.5-.6-.6-1.3-1-1.9 0-.1 0-.3-.3-.4zm50.2 62.2l-.1-.1 1-1v-.6c0-.3-.2-.7-.5-1l-1.2-1a4.3 4.3 0 0 0-4-.8c-.8.3-1.5.8-1.8 1.5-.8 1.9-.4 3.2.9 4.3l1.6 1.4c.4.3 1 .5 1.5.5 1.3 0 2.3-.4 3.1-1.5.2-.3.5-.6.6-1 .1-.3 0-.6-.4-.6l-.7-.1zm-5.5-10.7c-.4-.6-.8-.9-1.2-1.2-.3-.3-.6-.3-1 0l-1.7 1.1-2.7 2.1c-.3.2-.8.3-.5.8l-.2.2-.2.2c-.2.2-.1.3 0 .4l.5.2h.4c.4.3.7.3 1 0l.8-.5 3.1-2.5c.5-.3 1-.8 1.7-.8zM988.7 59c0-.3.2-.4.5-.2.2.1.2.1.1.3l-.2.7a94.7 94.7 0 0 1-7.2 13.4l-3.2 5.4-3 4.6-2.5 3.9-2.2 3.3-2 2.9-2.6 3.7-3.1 4.4-1.6 2.2c-1.3 2-2.8 4-4.2 5.9l-2.5 3.7-3.4 4.6-4 5.4c-1 1.5-2.2 3-3.4 4.5-.3-.2-.5-.4-.5-.7l-.6-.9a325 325 0 0 0-3.2-3.7c-.5-.3-.4-.5 0-1 1-1.5 2.2-3 3.4-4.4l1.8-2.2.9-1.3c.5-.8 1.3-1.5 1.9-2.3l1.6-2.4 1.4-1.7c.3-.6.9-1.1 1.2-1.8l.6-.7 2.7-3.4 3.6-4.7 4-5.2 2.7-3.2 1.2-1.8.9-1 1.3-1.7c.6-.8 1.1-1.7 1.8-2.5l2-2.8.6-.7 1.7-2.2 1.5-2 2.8-3.8c.4-.5.7-1 1.3-1.4 0-.5.5-.7.7-1 .2-.4.2-.4.7-.5.2 0 .2-.3.2-.3-.1-.3.1-.4.2-.6.9-1.2 2-2.2 2.8-3.3.2-.2.3-.5.7-.4l.2-.1c.1-.1 0-.5.3-.4.2 0 .4-.4.5-.6l.3-.7c0-.1.1-.2.3 0l.1-.1c0-.2.4-.3.3-.6 0 0 .1-.3.3-.2.2 0 .1-.2.2-.3h.3l-.2-.1zm-5 6s0-.1 0 0l-.2.1v.1c.2 0 .2-.1.2-.2z"/><path fill="#FCFCFC" d="M930 133.8l4.3 4.9c.2.1.2.2.1.4-.3.7-.7 1.2-1.2 1.6l-1.7 2.1-1.7 2.3c-.5.9-1 1.7-1.3 2.7l-2.5 6.5c-1 2.7-2 5.3-3.2 7.9-.7 1.6-1.4 3.2-2.3 4.7a34.8 34.8 0 0 1-5.4 7 45.6 45.6 0 0 1-10.3 7.8c-1.4.7-2.9 1-4.4 1.1-1.1 0-2.3 0-3.4-.3l1-2.6c.7.2 1.2 0 1.8-.1.7-.2 1.3-.5 2-.6.4 0 .8-.3 1.2-.4.9 0 1.7-.3 2.4-.7l1.9-1 1.2-.7 1.6-1.3.7-.7 1-1.1 1.8-2.5.3-.8 1.2-2.7a17.7 17.7 0 0 0 1.4-6.4c0-2.1-.3-4.2-1.4-6a7.2 7.2 0 0 0-4-3.1 15 15 0 0 0-3.5-.7c-.2 0-.4-.1-.5-.3-.4-.6-.9-.8-1.6-.6-1.8.3-3.5.8-5.1 1.6-2.7 1.3-5 3-7.3 5-2 1.7-3.4 3.8-4.4 6.1-.6 1.5-1 3-1 4.6l.1 1c.2.1.2.3.5.3.4 0 .3.3.2.5-.5-.1-1-.4-1.4-.4-1-.1-1.5.6-1.7 1.2-.2 1 0 1.9.8 2.6.2.1.1.3 0 .5-.2.7-.3 1.3 0 2 .3.6.7 1.1 1.5 1a2 2 0 0 0-.4 1.3c-.5-.3-.8-.7-1-1-.9-1.1-1.4-2.3-1.5-3.7 0-.5 0-1-.4-1.4l-.1-.4c-.2-3 .5-5.7 1.6-8.3a26 26 0 0 1 16.3-13.3c1.9-.6 3.8-.6 5.7-.3a14 14 0 0 1 6.6 3.1 19 19 0 0 1 2.5 2.6c.5.6 1 1 1.7 1.5.3.3.6.5.8.9.2.4 1 .3 1.3-.1.4-.7.6-1.5.7-2.3a47 47 0 0 1 8.6-21z"/><path fill="#050404" d="M973.9 205.7c-.1 0 0-.3-.3-.3s-.5-.4-.8-.2c-1 .5-2 .2-3 .8l-5 1.3-10.5 3-4.4 1.2c-.3 0-.6.2-.7.5l-.3.6c-.7.6-.6 1.4-.8 2.2l1.6-.2c.3 0 .6 0 .8-.2.4-.3.8-.3 1.3-.3h.1v-.4c.4 0 .6 0 .7-.3l.1-.2h.5l1.4-.2c.2 0 .5.1.5-.3 0-.2.2-.1.4-.1l.2.2c.3-.2.7 0 1-.2.2-.2 0-.2 0-.3-.2-.1-.5 0-.6-.2h1.3l1-.1h.1l1.6-.2c.2-.4.5-.3.7-.3l.7-.1c.5-.4 1-.4 1.6-.6l3.5-1 2.3-.7c.7-.2 1.4-.4 2-.8l.5-.1 2.3-.8c.5-.2.6-.5.5-1l-.4-.7zm-15.6 6.6s-.1 0 0 .2h.1c.1 0 .2 0 .1-.1h-.2zm28.4-25c.2 0 .3-.2.5-.3.2-.1.4-.3.2-.5 0-.3-.3-.5-.6-.6-.2.1-.5.2-.6.4-.2.4-.2.7 0 1h.5zM886.4 192c-.5-.2-.5-.2-.6.3 0 .7.4 1 .9 1.2.3.2.5 0 .6-.2.2-.4 0-.7-.2-1l-.7-.3zm113.4-27.4l-.1-1.3a37.2 37.2 0 0 0-4.4-11.7 26.3 26.3 0 0 0-9.3-9.1 18 18 0 0 0-14.1-1c-.4 0-.7.2-1 .4l-1.6.8c-1.2.9-2.3 1.8-3.2 3a10 10 0 0 0-2.3 5.1c0 .3 0 .6-.2.8-.1 0-.2 0-.2-.2l-2-2.4-2.2-2.9-2-2.3-3.1-3.7-3.1-3.7-2.9-3.6-2-2.6c-.2-.2-.2-.4 0-.6l1.8-2.3c1.6-2 3-4 4.5-6.1l.4-.6c0-.4.2-.7.6-.9l.2-.3c-.1-.4.2-.6.3-.8l1-1.3c.7-.3.5-1.3 1.3-1.6v-.1c0-.6.8-.8.8-1.4.4 0 .5-.3.6-.5.2-.2.4-.5.3-.6 0-.4.3-.3.5-.5.3-.6.8-1.1 1.2-1.7l1.2-1.8.7-1 .4-.7c0-.3.2-.5.3-.6.5-.4.7-.9 1-1.3.2-.6.7-1 1-1.6l1.2-1.7c.3-.6 1-1 1.2-1.6l.5-.8c.3-.2.5-.7.8-1 .4-.2.5-.6.8-1 .3-.7.8-1.3 1.2-2 .2-.3.6-.5.7-.9.3-.6.8-1 1.1-1.7.3-.4.5-.8 1-1.1.1-.1 0-.5.3-.6l.4-.5c.2-.3.2-.7.5-.9 0-.3.4-.4.4-.7.3-.6.6-1.2 1-1.6.8-.7 1-1.6 1.7-2.3l.2-.4.1-.2c.6-.5.8-1.2 1.3-1.8.4-.4.5-1 1-1.3.3-.9.8-1.6 1.4-2.4.8-1.3 1.5-2.7 2.4-4l1.9-3.2c.6-1 1-2 1.7-2.9l2-3.9c.9-1.7 1.9-3.3 2.5-5 .6-1.5 1.3-3 1.2-4.6 0-.8-.3-1.5-1.1-1.9-.7-.3-1-.3-1.5.3l-3.2 3.4-3.2 3.5-1.4 1.7-1.4 1.7-2 2.6-.2.2-2.3 3c-1 1.2-2 2.3-2.9 3.6l-2.4 3.2-3.2 4.1-3.5 4.5-6 7.7a2776 2776 0 0 0-4.2 5.7l-2 2.5-2.2 2.9-3 3.8c-1 1.5-2.3 3-3.4 4.4l-4.8 6.3-.7.8c0 .1-.2.2-.3 0l-.3-.4-3-3.7-4-5s-.1-.2 0-.2c0-.4-.3-.6-.4-.8l-1.2-1.5-2.4-3s-.1-.3-.2-.2c-.2.2-.3 0-.4 0l-1-1.5-4.1-5-2.6-3.4-1.4-1.8-3.3-4-1.3-1.7-1.2-1.4c-.3-.6-.8-1.2-1.2-1.7l-1.5-1.9-.5-.4c-.1-.4-.5-.7-.7-1a66.1 66.1 0 0 1-5.6-6.8l-1.3-1.7-1.6-2-2.4-2.9-2.7-3.1a80.4 80.4 0 0 0-3.6-4.2l-1.8-2a46 46 0 0 0-2.9-2.7c-.4-.4-1.6-.5-2-.2-.2.2-.3.2-.5 0-.4-.5-.8-.4-1.1.1l-.2.3c-.1 0-.1.2-.3.2v.1c.2 0 .2.2.2.3l1 2.4c.6 1.8 1.5 3.6 2.4 5.4l3.2 6.5 2.6 5 2.2 4.2L896 86a173 173 0 0 0 9.4 15.1l3.9 5.6 3.5 5 5.2 7 7.2 9 3 3.7c.4.6.4.6 0 1.2-.8 1-1.5 2.1-2 3.2-1 1.7-2 3.5-2.8 5.3a77.8 77.8 0 0 0-3 8c-.3 1.3-.8 2.5-1 4a2 2 0 0 1-.5-.6 16 16 0 0 0-2.4-2.6 15.6 15.6 0 0 0-12.9-3.8 26 26 0 0 0-12.8 6.4 38.6 38.6 0 0 0-4.7 5.5c-1.8 2.3-2.7 5-3.3 7.9-.3 1.5-.3 3.1 0 4.7.2 1 .3 2.2.7 3.2.4 1 .8 2.1 1.4 3.1v.5a5.5 5.5 0 0 0-1.5 5.4l.3 1.2c.2.9.6 1.7 1.3 2.4l.6.5c.3.5.3.9-.2 1.1-.3.2-.5.4-.6.7l-1.6 2c-.3.5-.8.7-1 1.3l-.1.5c-.1.2 0 .5.1.7.1.2.3 0 .4-.1.3 0 .4 0 .5.2l1.1 1.7a46 46 0 0 0 6.6 7c1.7 1.5 3.5 3 5.1 4.6.6.5.6.5 1.1 0 .4-.4.5-.4 1-.1 2.3 1.3 4.8 2.3 7.3 3.2l4.5 1.6c1.7.6 3.4 1.2 5.2 1.6 1.8.5 3.6 1 5.5.8.2 0 .4 0 .5.4l.1.1.1-.1c0-.9.2-1.7.4-2.6 0-.2-.1-.3-.3-.3-.5-.2-1 0-1.5-.3-.8.1-1.6-.1-2.3-.3l-1.4-.2-1-.1c-.4-.3-.9-.2-1.3-.4-.2 0-.4-.3-.5-.2-.4.2-.7-.1-1-.2l-1.6-.5-1.4-.6c-.5-.2-1-.2-1.6-.5-.5-.3-1.2-.2-1.6-.7-1-.1-1.7-.5-2.5-.9l-1.7-.9-1.8-.9-1.9-1c-.6-.4-.8-.3-1.2.2-.3.3-.3.3-.7 0-.5-.4-.9-1-1.5-1-.2-.1 0-.3-.1-.4l-.1-.1c-.2-.4-.5-.5-.8-.7l-.1-.1s0-.1-.1 0c-.1-.4-.4-.5-.7-.6l-.2-.1c-.2 0-.3 0-.3-.2 0-.3-.3-.5-.7-.4 0 0-.2 0-.2-.2.1-.3-.1-.3-.4-.3 0 0-.2-.1-.1-.3h.2c-.2 0-.4 0-.5-.4-.1-.3-.4 0-.6-.3 0-.2 0-.5-.3-.6a.4.4 0 0 1-.3-.2c-.1-.3-.3-.6-.7-.5-.1 0-.2 0-.2-.2.1-.1 0-.3 0-.4-.2-.2-.4 0-.5 0 0-.3-.2-.6 0-.8.4-.3.5-.8 1-1l.1-.1c0-.3.3-.5.5-.6l1.7-1.1c.3-.2.3-.4.2-.7l-.6-.5c-.6-.5-.8-.5-1.3 0l-2.9 3c-.2 0-.1-.4-.4-.3-.1-.5-.7-.8-1-1.3 0-.2-.2-.5-.4-.5-.4-.1-.5-.5-.8-.7 1.4-1.6 2.7-3.3 4.2-4.8l.8 1c.3.3.6.6.7 1l.1.2 3.2 3.6 3.3 3.5a84 84 0 0 0 4.6 4.6c.2.2.5.4.8 0 .1-.1.4-.2.7 0l.6.2 3 1.2h.2l2.2.9h.4l.2.2h.1l.3.1h.1l.3.1 2.8.8 4.8 1.2 1.4.4.4.1.6.2.3.1.2.1.3.1c.6.1.7.1 1-.4.2-.4.5-.8.4-1.2v-.2c.3-.1.1-.3 0-.4l-.7-.5c-.7-.2-1.4-.5-2.2-.5-1.5 0-3-.5-4.3-1-.8-.4-1.6-.6-2.5-.8a5 5 0 0 1-1.7-.5l-1-.4c-1-.2-1.9-.4-2.7-.9h-.3l.1.2s0 .1-.1 0h-.3l-3.9-1.5c-.6-.3-1.1-.7-1.6-1.2l-.6-.8c-.5.3-.5.3-1-.1l-.8-.7v-.2c.3-.3.4-.2.7 0 0 .2.1.3.3.3 0 0 0-.3-.3-.2 0-.4-.4-.5-.6-.8-.1.4-.1.4-.4.4h-.1l-.2-.2s.1-.1 0-.2c.3-.3.3-.3.2-.7l-.7-1c-.2-.3-.5-.4-.8-.6-.3-.2-.1-.7-.4-1l-1-1-.3-.4c-.5-.5-.8-1.3-1.5-1.8-.4-.3-.8-.8-1-1.3l-.1-.2c.3-.5.6-1 1.1-1.2a8 8 0 0 0 1.4-.8c.2-.3.5-.3.8-.1 1 .4 2 .8 3 1 2 .2 3.8 0 5.7-.5 2.3-.7 4.4-1.8 6.3-3.2l3.7-2.9.2-.1 1-.8.4-.4c.2-.5.8-.7 1-1.2s1-.6 1.2-1.1c.2-.3.6-.4.6-.9.5-.3.7-.7 1-1.1.3-.2.4-.6.6-.8.7-.4 1-1.2 1.4-1.8l1-1.5.8-1.4c1.1-2 2-4.1 2.8-6.3l.7-1.7 1.3-3.4 1.1-2.8c.3-1 1-2 1.3-3 .3-1 .8-2 1.2-2.8l1-2.1c.8-1.6 1.5-3 2.7-4.3.2-.3.3-.5.3-.9l-.1-.2v-.2l.2.1 2.5 2.4c.2.3.4.2.7.1.9-.3 1.7-.7 2.6-.8 1.6-.2 3 0 4.1 1.2l.3.2c1 .7 1.9 1.5 2.7 2.4 1.8 1.9 3.3 3.9 4.9 6 2.6 3.4 5 7 7.3 10.6.8 1.2 1.5 2.5 2.4 3.7a68.6 68.6 0 0 0 11.1 11.8c1.5 1.1 3.2 2 5 2.4.8.2 1.4.3 1.8 1l.4.3c.4.2.3.3 0 .5l-.6.8-4.5 5.3-5.8 7c-.5.5-.8 1.1-1.5 1.4-.2.1-.2.3 0 .6l.2.5c.2.5.2.5-.3.6h-.2l-9.7 3-6.5 1.7c-.3.1-.6.2-1 .1-.2 0-.4 0-.5.3-.3.9.5 1.6 1.2 1.6l1.6-.1c.9-.2 1.8-.2 2.6-.5l5-1.3 1.3-.5 1.6-.6 3.2-1 1.7-.8 3.2-1c.2 0 .2-.2 0-.3-.2-.3-.3-.7-.6-.8-.2-.2-.2-.4 0-.5.4-.2.6-.6.9-1l.9-1c.1-.2.1-.4.4-.4.2-.6.6-.9.9-1.3.4-.9 1.1-1.5 1.7-2.3.6-.8 1.4-1.4 2-2.3l.3-.3c.8-.7 1.3-1.5 2-2.3l.7-1 2-2.8s0-.1.2 0c.5 0 1 .1 1.3.4l2.8 1.6c.2.1.3.2 0 .5l.1.4c.1 0 .2 0 .2.2l-2.1 2.7-1.8-1.3-2-1.3h-.3l-.7.8c-.1.4 0 .6.3.9.5.3 1 .5 1.3 1l.3.3c.7.2 1.1.6 1.7 1l-.6.8-2.6 3.1-3.8 4.7c-1.4 1.5-2.7 3-4.2 4.4-.1.1-.3.2-.2.5a2 2 0 0 0 1.7 1.5h.2c.2-.6.9-.5 1-1l1.9-1.9v-.1c0-.1-.2-.2 0-.3h.3l.3-.3c.1-.3.7-.4.5-.9v-.1c.4 0 .6-.4.8-.5.3-.1.4-.4.5-.6.2-.2.5-.3.4-.7 0 0 0-.2.2-.2s.3-.1.4-.3l.8-.8c0-.3.4-.2.4-.4 0-.6.8-.6.8-1.1.4-.1.5-.5.7-.8.2-.3.5-.4.8-.6l.9-1.2 1.2-1.4 1.4-1.8 1.4-1.6c.5-.6.6-1.3 1.2-1.8.1-.1 0-.3 0-.4-.2-.5-.4-1-1-1.4l-.6-.6c.6-.3 1.1-.5 1.7-.6.4 0 .8-.2 1.1-.4l1-.8c0-.4.4-.6.7-.8 0 0 .1-.1.2 0 .3 0 .5-.2.6-.4l1.4-1.8c.9-1.2 1-2.5.9-4 0-.4-.2-.9-1-.9 2-2.5 3-5.1 3-8.1v-2.3zm-60-43.1l3.5-4.4 1.9-2.3.8-1.2 1.9-2.4 1.7-2.3 1.3-1.8c.4-.6.9-1 1.3-1.7.1-.3.4-.5.6-.7l2.6-3.4 3.6-4.7 4.1-5.3 2.6-3.2 1.3-1.7.8-1 1.3-1.7c.7-.8 1.1-1.7 1.8-2.5.8-.9 1.4-2 2-2.9l.7-.6 1.6-2.2 1.6-2.1 2.8-3.7c.4-.5.7-1.1 1.2-1.4 0-.5.5-.7.7-1 .2-.4.3-.4.8-.6l.2-.3c-.2-.2 0-.4.2-.5.8-1.2 1.8-2.2 2.7-3.3.2-.2.4-.6.8-.5.2-.2 0-.5.5-.5l.4-.6.3-.6c0-.2.2-.3.3-.1h.1c0-.3.4-.3.3-.6 0-.1.1-.3.4-.3.1 0 0-.1 0-.2l.2-.1c0-.4.2-.5.5-.2.1 0 .2.1.1.2 0 .3-.2.5-.3.7a99 99 0 0 1-3.4 7l-3.7 6.4-3.2 5.5-3 4.6c-.8 1.3-1.8 2.5-2.6 3.9l-2.1 3.3-2 2.9-2.6 3.7-3.1 4.4-1.7 2.2-4 5.9-2.7 3.6c-1 1.6-2.2 3.2-3.3 4.7l-4 5.4c-1 1.5-2.2 3-3.4 4.5l-.6-.7-.6-1a325 325 0 0 0-3-3.6c-.5-.3-.5-.6-.1-1zm-51.2 59.7c-.8 1-.7 2 .1 3l.2.1c0 .3-.3.4-.4.5 0 0-.1.1-.2 0-.3-.3-.4.1-.6.2l-.8 1h-.5c-.1-.3-.5-.5-.4-1l-.1-.1c-.5-.4-.6-1-.8-1.5-.4-.6-.4-1.4-.3-2 0-1 .4-1.8 1-2.6.2-.4.3-.4.6 0l.3.1c.2.3.4.4.7.1.3-.2.6-.2.8.1.2.3.6.5 1 .7 0 0 .3 0 .5.3l-1.1 1.1zm-.3-10.4c0 .4 0 .5-.4.6l-.8.2c-.5 0-.6-.3-.5-.7 0-.3.3-.6.6-.7.4-.2.7 0 1 .1.2.1 0 .3.1.5zm0 2s.2 0 .3.2c.2.3.5.4 1 .3h.4l-.7.7-.8.8c-.2.3-.9.4-1.2.2l-.2-.3c-.1-.7.5-1.6 1.1-1.8zm7.9 6.8c-.1.5-.4 1-.7 1.5l-.2.3c-.3.5-.3.5-.9.4h-.9l.4 1 .1.1c-.3 0-.7 0-.5.5l-.2.1c-.5.3-1 .8-1.7.8-.3 0-.5.2-.5.6v.4l-.9-1c.3-.1.4-.4.6-.5s.2-.4.2-.6c0-.2-.1-.3-.3-.2-.3 0-.6.1-.8 0 0-.2 0-.4.2-.5.6-.7 1.3-1.2 2.1-1.5.3-.1.6-.2 1 0 .2.2.5.1.7 0l.5-.2c-.5-.7-1-1.4-1.7-2-.1 0-.3-.1-.4 0-.8.6-1.6.1-2.4-.1-.3 0-.5-.2-.8-.3-.2-.2-.3-.4-.1-.7 0-.2.3-.4.6-.5 1-.5 2-.4 2.9 0l.3.3c.1.4.5.5.9.5l1.2.2c.5.1.9.5 1.3.9v.4zm-6-4c.6-.9 1.3-1.5 2.4-1.5 0 .2-.2.3-.3.4-.3.2-.7.4-.7 1l-.2.1H890zm2.5.6c.5-.3 1-.8 1.7-.7.3.1.3.2.2.5-.5.7-.9 1-1.9.2zm2.8-1c-.5-.4-.8-.9-1.3-1-.2 0-.2-.2-.3-.3-.3-.5-.7-.9-1.2-1.1-.4-.2-.8-.2-1.2 0-.3.1-.4 0-.5-.1-.3-.4-.7-.7-1.2-.8-.3 0-.3-.2-.3-.4v-.8c-.1-.4-.4-.7-.6-1-.3-.3-.2-.3 0-.6.4-.3.8-.6.9-1.1.3-1.4.6-2.8 1.3-4 .8-1.5 1.7-3 3-4.2l1.4-1.6 2-1.6 2.3-1.8 1.6-1h.5c.4.1.7 0 1-.1a11.5 11.5 0 0 1 6.3.6c.5 0 1 .2 1.1.8 1.5 1.5 1.7 3.5 1.9 5.5.2 2 0 4.2-.5 6.3-.3 1.7-1 3.2-1.8 4.7-.6 1-1.5 1.8-2.4 2.6-1 .8-2 1.4-3.1 2-.8.6-1.7.8-2.6 1.2l-.7.2c-.3.2-.6.3-1 .2-.3-.1-.7.2-1.1.1l-.2.2c.2.7-.3.7-.7.9a5.8 5.8 0 0 0-2.6-3.9zm39-36l-1.3 1.5-1.7 2.1-1.6 2.3c-.6.9-1 1.7-1.4 2.7l-2.5 6.5c-1 2.7-2 5.3-3.2 7.9-.7 1.6-1.4 3.2-2.3 4.7a34.8 34.8 0 0 1-5.4 7 45.6 45.6 0 0 1-10.3 7.8c-1.4.7-2.9 1-4.4 1.1-1.1 0-2.3 0-3.4-.3l1-2.6c.7.2 1.2 0 1.8-.1.7-.2 1.3-.5 2-.6.4 0 .8-.3 1.2-.4.9 0 1.7-.3 2.4-.7l1.9-1 1.2-.7 1.6-1.3.7-.7 1-1.1 1.8-2.5.3-.8 1.2-2.7a17.7 17.7 0 0 0 1.4-6.4c0-2.1-.3-4.2-1.4-6a7.2 7.2 0 0 0-4-3.1 15 15 0 0 0-3.5-.7c-.2 0-.4-.1-.5-.3-.4-.6-.8-.8-1.6-.7-1.8.4-3.5.9-5.1 1.7-2.7 1.3-5 3-7.3 5-2 1.7-3.4 3.8-4.4 6.1-.6 1.5-1 3-1 4.6 0 .3 0 .6.2 1 0 0 .1.2.4.3.4 0 .3.2.2.5-.5-.2-1-.4-1.4-.4-1-.1-1.5.6-1.7 1.2-.2 1 0 1.9.8 2.5.2.2.2.4 0 .6-.2.6-.3 1.3 0 2 .3.6.7 1.1 1.5 1a2 2 0 0 0-.4 1.3c-.5-.3-.7-.7-1-1-.9-1.1-1.4-2.3-1.5-3.7 0-.5 0-1-.4-1.4l-.1-.4c-.2-3 .5-5.7 1.6-8.4a26 26 0 0 1 16.3-13.3 14 14 0 0 1 12.3 2.9 19 19 0 0 1 2.6 2.6l1.6 1.5c.3.2.6.5.8.9.2.4 1 .3 1.3-.2.4-.6.6-1.4.8-2.2a47 47 0 0 1 6.8-18.5l1.6-2.5 4.3 4.8c.2.2.2.3.1.5zm46.9 33.5v.3c0 .4-.2.5-.5.3-1.4-.5-2.6-1.2-3.7-2.2l-1.7-1.3c-.6-.6-1.3-1.2-1.8-1.9-.7-.9-1.4-1.7-2-2.7-.5-.6-.8-1.2-1.1-1.8a.8.8 0 0 1-.1-.6c0-.3 0-.6-.2-.9-.3-.4-.4-.8-.4-1.3-.1-1.9-.2-3.8 0-5.8.2-1 .6-2 1-3a5.2 5.2 0 0 1 4-3.1 7 7 0 0 1 3.3.1c1.2.3 2.5.7 3.6 1.5.2.1.4.3.7.2l.5.2 3.6 2.7 1 1.2 1.4 2 1.4 2c.4.5.6 1.1.8 1.7.3 1.4.7 2.7.7 4.1l-.1 1.5h-1a2 2 0 0 0-1.8 1.6v.2c-.2.7-.2.7-1 .8-.7.2-1.4.5-1.6 1.3 0 .2-.2.3-.3.3-.5 0-1 .2-1.3.6-.1.2-.3.2-.4.2l-.5-.1c-1.2-.2-2.3.7-2.5 2zm10-3.5c-.6-.4-1.2-.8-1.3-1.6 0-.3 0-.4.4-.3.3 0 .5.3.7.5.3.3.3.5.2.8 0 .2.2.3 0 .6zm-4.8 2.6c-.1 0-.4-.2-.2-.4.1-.1.3 0 .4.1l1.3.4a3 3 0 0 1 1.9 1v.3h-.5c-.3-.3-.7-.3-1-.1-.3.1-.7 0-1 .3h-.2c-.2-.3-.4-.2-.7-.3.5-.7.5-.7 0-1.3zm1.8-1.3c-.3 0-.4-.2-.6-.4-.1 0-.2-.1-.2-.3l.3-.1c.5 0 1-.2 1.6.2h.4c.5 0 .8.1.9.7v.9h-.3c-.7-.4-1.4-.8-2.1-1zm-2.9 2.5l-1.9.4c-.2.1-.4 0-.5-.2l-.2-.4c-.1-.5 0-.7.6-.6.5 0 1 0 1.4.3.2.1.5.2.6.5zm10.1 5a5.3 5.3 0 0 1-1.9 3.4l-.4.3c-.6 0-1 .4-1.4.8-.3.3-.6.6-1.1.5-.4 0-.7.2-1 .6-.4-.6-.9-1-1-1.7 0-.2-.2-.2-.3-.2-.2 0-.3.2-.4.3h-.4c-1-.2-2-.4-3-1-.7-.4-1.4-.7-1.9-1.3-.2-.2-.3-.4-.2-.7 0-.3 0-.6-.4-.5-.2 0-.2-.2-.3-.3-.4-1.5.1-2.9 1.7-3.3l1.4-.2c.6 0 .7.2.5.8-.1.4-.4.6-.6.9l-.4.4c-.4.3-.2.8-.2 1.2h.3c.5-.2 1 0 1.5.2.7.2 1.5.5 2 1.1.3.3.6.6.6 1v.6c.1.4.3.5.7.3l.3-.3c.3-.5.9-.8 1-1.5 0 0 0-.2.2-.2 1.7-.4 3.1-1.4 4.4-2.7h.2c.3.5.2 1 .1 1.5zm1.1-9.3c-.4 2-1.4 3.6-2.7 5-.8.9-1.7 1.7-2.6 2.3-.6.4-1.1.9-1.5 1.5-.1.1-.2.3-.4.1-.8-.6-1.7-1-2.5-1.4l-.2-.2.9-1.2c0-.2.1-.2.3-.2.4 0 .8 0 1 .2 1 .4 1.6 0 2.2-.7l.6-.9c.2-.4.1-.7-.2-1-.3-.2-.3-.3-.1-.6.1-.2.2-.5.5-.6l.4-.3c.1-.2.2-.4 0-.6-.2-.1-.2-.3 0-.5.1-.3.3-.5.3-.9 0-.3.2-.5.4-.7.2-.3.4-.6 0-1v-.3c.7-1 .6-2 .6-3 0-1.1-.4-2.1-.7-3l-.3-1.1c-.2-1-.8-1.8-1.3-2.6l-2.2-3-.7-1a17.3 17.3 0 0 0-4-3.5l-1.2-.8c-.5-.5-1.1-.7-1.7-1a10.4 10.4 0 0 0-8.4-.8c-1.3.4-2.4 1-3.5 1.8-.8.7-1.3 1.6-1.6 2.6a12 12 0 0 0-.7 3.5l-.2 1.2v3l.2 1c0 1.4.4 2.8 1 4.2a23 23 0 0 0 8.6 9.8c.9.5 2.6 1.1 3.7 1.2-.6 1-1 2-1 3-.4 0-.7-.1-1-.3-.9-.6-1.9-1-2.8-1.7a41.6 41.6 0 0 1-7-6.5l-2.6-3.4-1.2-1.6-1.5-2.3-2-3.1-1-1.6c-.2-.3-.3-.7-.7-.9l-.1-.2a12 12 0 0 0-1.3-2c-.5-.7-.8-1.4-1.3-1.9-.4-.5-.6-1-1.1-1.5.2-.4-.4-.3-.4-.6s-.4-.5-.5-.7l-1.3-1.7-1.3-1.6-1.2-1.4c-.3-.4-.8-.4-.9-.7 0-.3-.2-.5-.4-.7l-1.2-1c-.2-.4-.6-.4-.9-.7-.8-.9-1.8-1.2-2.8-1.7-.1-.1-.2-.1-.4 0-.5 0-1 0-1.3-.4l-.4-.2c-1 0-1.9 0-2.8.3 0 0-.1.1-.2 0l-1.2.3c-.3.2-.5.1-.8-.1l-3-3.2-2-2.4-3-3.7-2.2-2.5-2.3-3-3.2-4-3-3.8c-.4-.6-1-1.1-1.3-1.8-.4-.7-1-1.2-1.5-1.9-.7-1.1-1.7-2.1-2.4-3.3 0-.2-.2-.4-.3-.5-.4-.3-.7-.8-1-1.3l-1.3-1.6c-.2-.2-.2-.5-.3-.7l-1.6-2.3-1.4-2c0-.2-.3-.4-.4-.6-.2-.3-.6-.7-.6-1l-.2-.5c-1-1.1-1.6-2.4-2.5-3.6-.5-.7-.9-1.5-1.5-2.1l-.8-1.5-2-3.3c-.3-.4-.5-.8-.8-1-.1-.2-.1-.6-.3-.8l-1.1-2c-.3-.3-.6-.7-.7-1.1l-1-1.6c-.2-.8-.7-1.5-1.1-2.2-.6-.8-.9-1.8-1.4-2.6-.3-.3-.3-.7-.6-1-.3-.4-.4-.8-.6-1.3l-1-1.9c-.2-.3-.5-.5-.5-.9 0-.3-.5-.4-.6-.7 0-.1-.2-.2 0-.2.1 0 0-.1 0-.2-.4-.5-.6-1.2-1-1.8 0-.2 0-.3-.2-.4 0 .1 0 .2-.2.2 0-.2 0-.1.1-.1V70c-.1-.5-.2-1-.5-1.3l-.9-1.8-2.2-4.3-1.3-2.9-.8-1.7c0-.1-.1-.2 0-.4l1.2 1.1c1.7 1.6 3.2 3.3 4.7 5l4 4.6 5.8 7.2 3.8 4.8c2.2 2.5 4 5.2 6.2 7.8l4.6 5.8 3.5 4.4 2.5 3.2a391.3 391.3 0 0 0 6.3 8l3.1 3.8 2.7 3.3 6.2 7.8 3 3.7c1.4 2 3 3.8 4.4 5.7l6 7.4 5.5 6.5 2.9 3.7a36 36 0 0 0 3 3.6c.4.5.4.5 1 .3v.9c0 .5 0 .9.4 1.1l.1.2c.3.5.5.9 1.2.8l.2.1c.1 0 0-.1 0-.2 0-.2 0-.4.3-.4v-.3c0-.6 0-1.1-.2-1.7a8.8 8.8 0 0 1-.3-4.2c.1-.7 0-1.5.4-2.3.3-.8.7-1.6 1.3-2.4l.7-1a14.1 14.1 0 0 1 7.2-3.6h3c3.8.3 7 1.8 9.8 4.5a32.4 32.4 0 0 1 8.7 15.8c.4 2 .3 4.1 0 6.1z"/><path fill="#979696" d="M950.6 214l-.1-.2c.2-.1.2 0 .2 0v.1z"/><path fill="#FEFEFE" d="M994.7 182.2h-.1.1z"/><path fill="#060505" d="M939.7 132.2h.7c.4.2.5.4.4.7-.1.4-.4.7-.6 1-.8 1-1.8 1.6-3.1 1.5-.6 0-1-.2-1.5-.5l-1.6-1.4c-1.3-1.1-1.7-2.4-.9-4.3.3-.7 1-1.2 1.7-1.4 1.5-.5 2.9-.2 4 .7l1.3 1c.3.3.5.7.5 1l-.1.7-1 .9c-.6 0-.8 0-.8-.8l-.1-.3c-.1-.1-.2-.2-.4-.1l-2 1.5c.9 1.1 1.9 1.5 2.7 1-.3-.5-.3-.6.1-.8l.7-.4zm-2.4-2.3c-.5-.4-.9-.6-1.6-.9h-.8c-.1 0-.2 0-.3.2-.2.5 0 1.5.4 1.9.1 0 .2.1.4 0l1.9-1.2zm-3.1-8.5c-.8.1-1.2.6-1.7 1l-3.1 2.4-.8.5c-.3.3-.6.3-1 0h-.4c-.2 0-.3 0-.5-.2-.1 0-.2-.2 0-.3l.2-.3.2-.2c-.3-.5.2-.6.5-.8l2.7-2a16 16 0 0 1 1.7-1.3c.4-.2.7-.2 1 .1l1.2 1.1z"/><path fill="#F3F5F5" d="M939.7 132.2l-.7.4c-.4.2-.4.3-.2.7l.1.2c-.8.4-1.8 0-2.7-1l2-1.6h.3l.2.4c0 .7.2.8.9.8h.1z"/><path fill="#050404" d="M983.7 65l-.1.3h-.1l.1-.3h.1z"/><path fill="#F3F5F5" d="M937.3 130l-1.9 1.1c-.2.1-.3 0-.4 0-.4-.4-.6-1.4-.4-1.9l.3-.2h.8c.7.3 1 .5 1.6 1z"/></g><g class="frame--3"><path fill="#87CBF3" d="M890.3 168.6l.6 3.3 1.1 2.5 2.7 1.6 4.4-2.4 3.6-3.8-.7-5.6-1.5-1.5-3-1.8H895l-1.4-2.4-1.6-.5-1 1.1 1.5 2.6.1 1.6.6 1.7.4 1.2H892l-1.7 2.4zm80.4-1l1 2.3 2.4 1.9 3.4 1.4 4.3 1 2.7-1 2.2-4.6-1-1.7-4.8 2-2.8.3-1.4-2 .7-2.2 2.1-.3s1.4.4 1.4.3a27 27 0 0 1 1.3-1.4l2-4.8-1.8-.9-1.5 2h-1.7l-1.3 1-2.1.6-2-.1-3.1 6.2z"/><path fill="#fff" d="M948 203.5l4.5.3 6.2-3.5 8.9-8-.7-1.1s6.6-18.3 6.8-18.3l7.1.7 1.2 2.3-8.1 20.3-7.6 6.4-15.1 10.5c-.3.1-4.3-6.2-4.3-6.2l1.2-3.4M900 173.6l-8 3.6 7 17.5h2.8l16.6 15 3-1.1 4-4.4-5.7-2-12-10-5-11.3-2.7-7.3z"/><path fill="#FEFEFE" d="M955.5 212.4c.3 0 .4-.2.4-.4h.3c.2 0 .4-.3.8-.3l-.3-.3c.4-.2.4-.2.2-.4.3-.2.5-.5.9-.3.3 0 .5-.1.6-.4-.2-.2-.3-.1-.5-.1l-.1-.2c.3 0 .6 0 1-.2.2-.2.6-.1.8-.4h.1l1.5-.8h.1c0-.5.3-.4.5-.5l.7-.4c.3-.4.9-.7 1.3-1 1.2-1 2.5-1.7 3.7-2.6l1-.6c.7-.6 1.5-1.1 2.1-1.8l.2-.1 2-1.5c.3-.3.3-.6.1-1l-.6-.8-.1-.1c-.4 0-.9-.1-1.2.2a4 4 0 0 1-1.5.9c-.3 0-.5.2-.6.3a1049.2 1049.2 0 0 0-7.9 5.4l-5.3 3.7-4.3 2.9-.3.3c-.1.3-.4.4-.6.6l-1.5.9c-.5.4-.4 1 0 1.3.5.2.8.5 1.3.3.1 0 .4 0 .5.2.2.4.3.5.6.2.3-.2.7-.3.9-.6.1-.3.4-.3.6-.6.3-.5 1-.7 1.5-1-.2 0-.4 0-.5-.3.5.1 1 0 1.2-.5h.4zm-60.4-34c0-.1-.1 0-.2 0-.3.5-.3 1 0 1.4.2.2.3.5.6.5s.4-.3.6-.6v-.1c0-.3-.6-1.2-1-1.3zm83.4-2.9c-.4 0-.7.5-.6 1 0 .2.1.5.4.6.2 0 .4-.2.5-.3l.1-.2c.2-.2.4-.4.2-.7-.1-.2-.4-.3-.6-.4zM959.8 210s.2 0 .2-.2h-.2-.1v.2z"/><path fill="#F3F3F3" d="M992.3 154.3v1.7-1.7z"/><path fill="#ABABAB" d="M980.3 23v.1h-.6V23h.6z"/><path fill="#050505" d="M956.1 212h-.2c-.4-.2-.3.2-.4.4h-.4c-.3.5-.7.6-1.2.5.1.3.3.2.5.4-.6.2-1.2.4-1.5.9-.2.3-.5.3-.6.6-.2.3-.6.4-.9.6-.3.3-.4.2-.6-.2-.1-.2-.4-.2-.5-.1-.5 0-.8-.1-1.2-.4-.5-.3-.6-1 0-1.3l1.4-1c.3 0 .5-.1.6-.5l.3-.3 4.3-2.8 5.3-3.7 7-4.7 1-.7c0-.2.3-.3.5-.4a4 4 0 0 0 1.5-.9c.3-.3.8-.1 1.2-.2.3.4.6.6.7 1 .2.4.2.6-.2.9l-2 1.5v.1c-.7.7-1.5 1.2-2.3 1.8l-1 .6-3.6 2.6c-.4.4-1 .6-1.3 1l-.7.4c-.2.1-.5 0-.5.5l-1.6.8h-.1c-.2.3-.6.2-.9.4-.3.2-.6.1-.9.2 0 .1-.2.1-.2.3h.3v-.1h.5c-.1.4-.3.6-.6.5-.4-.1-.6.1-1 .3-.1 0 .1.3 0 .4-.2.1-.3.3-.5.2-.2 0-.4 0-.5.2.1 0 .3 0 .3.2zm-1.2.4l-.1-.2c-.2 0-.3 0-.3.2v.1l.4-.1zm.3-.2z"/><path fill="#141414" d="M895.1 178.3c.4 0 1 1 1 1.3v.2c-.2.2-.3.5-.6.5s-.4-.3-.5-.5c-.4-.4-.4-1 0-1.3l.1-.2zm83.4-2.8c.2 0 .5.2.6.4.2.3 0 .5-.2.7l-.1.2c-.1.1-.3.4-.5.3-.3-.1-.4-.4-.4-.6-.1-.5.2-1 .6-1z"/><path fill="#ABABAB" d="M956.1 212c0-.2-.2-.1-.3-.2.1-.3.3-.3.5-.2l.4-.2.2.3c-.3 0-.5.2-.8.3zm-.6.4c.1-.2 0-.6.4-.4 0 .2 0 .5-.4.4z"/><path fill="#4C4C4C" d="M959.8 209.9l-.1-.1.1-.2.1.1-.1.2z"/><path fill="#ABABAB" d="M956.8 211.4c.1-.1-.1-.3 0-.4.4.2.4.2 0 .4z"/><path fill="#050504" d="M951 102v0z"/><path fill="#FCFCFC" d="M900.3 35c-.5-1.6-1-3.2-1.2-4.8a60.5 60.5 0 0 1 4.3 6.3l4.6 8.3 5.9 11.3 5.3 10.5 5 9.7 3.8 7.6 4.3 8.2 1.4 2.8 2.8 5.4 4.3 8.5 3.8 7.4 4.7 9 4.3 7.6 2.1 4.3 1.5 2.7.8 1.4c.3.6.3.6.9.5 0 .3 0 .6-.2.9-.2.4-.2.8.2 1.2l.2.5c0 .3.2.6.6.6.2 0 .3 0 .4.2.2 0 .1-.2.1-.3 0-.1 0-.3.3-.2l.1-.3c0-.6.2-1.2.1-1.9 0-1.3 0-2.6.5-4 .3-.7.4-1.5 1-2.2.4-.7 1-1.4 1.6-2l1-1a14.6 14.6 0 0 1 7.3-2.1c1 0 2 .3 3 .5 3.6 1 6.5 3 8.7 5.9a27 27 0 0 1 4.2 8.3l.7 2.4.5 2.2c.2 1.7.4 3.3.4 5 0 2-.5 4.1-1.4 6-.8 1.8-2 3.2-3.6 4.3-1 .7-1.9 1.3-3 1.7-.6.3-1.2.6-1.7 1.1-.2.2-.3.3-.5 0-.6-.7-1.5-1.2-2.2-1.8v-.2c.4-.5 1-.9 1.4-1.6.2.4.6.6 1 .9 1 .5 1.3.3 2.2-.4l.7-.6.3-.6c0-.3-.1-.4-.3-.5v-.6c.3-.2.4-.4.8-.5l.3-.3c.2-.1.3-.3.1-.5-.1-.2 0-.3.1-.5l.5-.8c0-.3.4-.5.6-.7.3-.3.5-.5.3-1v-.1c.8-.9 1-2 1.1-3 .2-1 0-2 0-3l-.1-1c0-1.1-.5-2-.8-3l-1.6-3.3-.6-1.3a16 16 0 0 0-2.6-3.5l-1-1.2-1.7-1.5-2.2-1.5c-1.8-1-3.8-1.3-6-1.2l-2.8.6a6.3 6.3 0 0 0-3.4 3c-.5 1-1 2-1.2 3l-.5 1.1c-.3 1.2-.3 2.5-.6 3.7-.3 2 0 4 .6 6a22.8 22.8 0 0 0 6.3 10c1 .9 2 1.5 3.2 2a6 6 0 0 0-1.6 2.7l-.7-.4a29.6 29.6 0 0 1-3.7-3.6l-2.5-3.4a44.4 44.4 0 0 1-5.7-11.2l-1.7-4.5c-.2-.6-.4-1.3-.8-1.9-.3-.4-.4-1-.7-1.5-.2-.5-.2-1-.6-1.4-.3-.3-.3-.8-.4-1.1l-.9-2.1-.5-1.2-.8-1.6c-.6-1-1-2.2-1.7-3.2-.3-.5-.5-1.2-1.1-1.5l-.1-.1c0-.5-.4-.9-.6-1.3v-.1c-.5-.3-.6-.9-1-1.1l-.4-.5c-.5-.8-1.3-1.2-1.8-1.8l-.7-.5h-.3c-.5 0-1-.2-1.3-.7 0 0-.1-.2-.3-.2-.8 0-1.6-.4-2.4-.3h-1.9c-.3.2-.5 0-.7-.2-.7-1.2-1.5-2.3-2.1-3.5l-1.6-2.8-2.6-4.8-2.8-5.1-1.5-3-2.2-4.6-1-2c-.4-.9-1-1.6-1.3-2.6 0-.3-.2-.5-.4-.8-.7-1.2-1.2-2.6-1.9-3.9-.3-.6-.4-1.2-.8-1.8-.2-.2-.2-.5-.3-.7l-.8-1.6-.6-1.5-.7-1.9c-.4-.8-.9-1.6-1.1-2.4l-.4-.7c-.1-.4-.4-.8-.4-1.3v-.4c-.6-1-.9-2-1.4-3l-1.1-2.8-1-2.4c-.4-1.1-.7-2.4-1.2-3.5-.2-.4-.2-.8-.5-1.1-.2-.2 0-.4 0-.6l-1-2.5c-.3-.6-.4-1.3-.6-2l-1-2.9-.7-2.2c0-.4 0-1-.5-1.2.2-.8-.6-1.3-.4-2V50l-.7-2.2c-.1-.3-.3-.5-.3-.8 0-.4-.4-.5-.4-.9l-.1-.1c0-.2.1-.1.2 0v-.2c-.4-.7-.4-1.6-.7-2.3l-.3-1.3-.3-.9-1-3.5-.6-2.5V35zm39.2 79.3v-.2l.8-.6c.5-.3.6-.7.4-1.2l-.2-.5-1-1.3a4.2 4.2 0 0 0-3.9-1.6c-.9.2-1.7.6-2.2 1.4-.9 1.5-.7 3 .4 4.3l1 1.3c.5.6 1 1 1.8 1 1.2.3 2.2 0 3-.9l.8-.8c.2-.4.2-.6-.2-.8l-.7-.1zm-3.3-11.7c-.2-.6-.6-1-1-1.4-.2-.3-.5-.3-.9-.2l-1.9.8-3.4 1.7c-.2 0-.4.1-.3.5l-.2.2-.5.4c.2.3.4.4.7.5l.3.1c.3.3.6.4 1 0l.7-.1 3.6-2c.6-.2 1.2-.5 1.9-.5z"/><path fill="#FDFDFD" d="M974.9 35.3l.7-1.2c.3-.5.4-1 1-1 .2-.6.8-1 .9-1.5l.1-.7s0-.2.2-.2c.1 0 0 .2.2.3 0-.4.2-.7.3-1 .1-.4.4-.7.6-1 .1-.4.3.1.5 0v.9a95.4 95.4 0 0 1-5.5 16l-1.8 4.7-1.8 4.4-1 2.2-2 4.8-2.3 5-2.4 5-1.2 2.5-2.7 5.6-1.3 2.5a161 161 0 0 1-2.7 5.6l-2.5 5.2-3.4 6.8-3.1 6.3-1.5 2.9c-.2-.1-.3-.3-.3-.5l-1.9-3.5-2.2-4.2v-.7a71.5 71.5 0 0 0 2.3-4.1l.7-1.3 1.1-2.1 1.2-2.3 1-2 1.1-2.2.6-1 1.3-2.3c1-1.8 1.9-3.7 3-5.5 1.1-2.2 2.2-4.5 3.5-6.7l3.6-6.3.8-1.7c.1-.4.4-.8.7-1.3l1-2c.7-1 1-2 1.6-3 .5-.7.8-1.5 1.1-2.2l.7-1.4c.2-.3.3-.8.7-1.1.2-.7.7-1.2 1-1.8.2-.7.6-1.3.9-2l2-4a68.5 68.5 0 0 1 2.6-4.5c.1-.4.4-.7.6-1.1l.1.3c.2 0 .2-.2.2-.2-.2-.6.3-1 .5-1.5l1-1.5h.2c.1 0 .2-.1.2-.3l-.2-.1zm-.5 1.5l-.1-.1c-.1 0-.2 0-.2.2v.1c.2 0 .3-.1.3-.2z"/><path fill="#FBFBFB" d="M904 167c.7 0 1.3-.1 1.8-.3 1-.5 2-1 3.2-1.4l2.2-1 1.7-1.3 1.2-.9c.5-.4 1-.9 1.3-1.4l.6-.6 1-1.5 1.4-2.6c.1-.3.3-.5.3-.8 0-.7.4-1.2.5-1.8.3-1 .7-2.1.8-3.2l.2-2.1c0-1.4 0-2.8-.4-4.1a8.6 8.6 0 0 0-4.2-5.9c-1-.5-2-.7-3-.9H910c-.2 0-.4 0-.5-.2-.5-.6-1-.7-1.8-.5a29.3 29.3 0 0 0-11.9 8.6 15.9 15.9 0 0 0-3.6 10.7c0 .3 0 .7.3 1l.2.4c0 .1 0 .2-.2.2h-.5c-1-.2-1.7.6-1.7 1.5 0 1 .3 1.7 1 2.3.3.1.3.3.2.5-.2.8-.1 1.5.3 2.2.3.4.7.8 1.3.7.1 0 .3 0 .2.2-.2.3-.2.7-.3 1.1a7.6 7.6 0 0 1-2.9-4c-.1-.7-.2-1.3-.7-1.8v-.4a14 14 0 0 1-.2-4.8c.2-1.7.5-3.5 1.3-5a28 28 0 0 1 14.1-13.9c2-.8 4.1-1 6.2-.8 2.5.2 4.7 1.2 6.8 2.6.8.5 1.5 1.2 2.2 1.8.6.6 1.3 1.1 2 1.5.3.2.6.3.8.7.2.3 1 .3 1.2-.1a4 4 0 0 0 .5-1.8A68.7 68.7 0 0 1 926 128a51.1 51.1 0 0 1 4.2-10.4l.8-1.5.5.8 1.6 2.6c.6 1 1 2 1.7 3 .2.1.2.3 0 .6l-1.6 2.3-2 3.8c-.5 1-.8 2.2-1 3.4l-1.3 4.9a13.4 13.4 0 0 0-.4 2.2l-1.4 5-1.6 4.8a40.5 40.5 0 0 1-14.7 18.6 11 11 0 0 1-4.5 1.5c-.8.1-1.7.2-2.5.1-.3 0-.4 0-.3-.3l.6-2.4z"/><path fill="#141414" d="M896.8 173.4c-.1 0-.2 0 0-.2v.2z"/><path fill="#4C4C4C" d="M897.7 173h.1v.1h-.1z"/><path fill="#141414" d="M897.8 172.5v-.2.2z"/><path fill="#050504" d="M951 102.2h-.1zm0-.2zm41.3 52.3v-1c-.3-2.5-.8-5-1.5-7.4a26.3 26.3 0 0 0-7.4-12.1 17.5 17.5 0 0 0-10.7-4.4h-2.4a13.2 13.2 0 0 0-7.5 3.1 10.6 10.6 0 0 0-3.1 4.2l-.5 1.3-.2-.3-1.4-2.5c-1-2-2-4.1-3.2-6.1-1-1.6-1.8-3.3-2.7-5-2-3.7-4-7.4-5.8-11.2v-.7l.9-1.6 3-6c.4-.8 1-1.5 1-2.4v-.1c0-.1 0-.1.1 0-.2-.3 0-.5.2-.6.3-.3.4-.4.4-.7l.1-.4 1-2v-.1c.5-.1.4-.5.5-.8v-.2.1c.1 0 .3-.1.2-.2 0-.3 0-.4.3-.5l.1-.4c0-.5 0-.6.5-1 .1 0 .2-.1 0-.3 0-.2 0-.2.3-.3h.1c.1-.5.5-.9.5-1.3 0-.2 0-.3.2-.4l.2-.2c.1-.5.4-.9.6-1.3l.6-1.3.6-1.2c.3-.4 0-1 .6-1.2-.1-.2 0-.4.1-.5l.3-.6c.1-.5.2-1 .7-1.4.1-.7.4-1.3.6-1.8l1.2-2.4c.2-.5.5-.9.6-1.4.2-.5.6-.7.8-1.3.3-1 .9-1.8 1.4-2.7.1-.2.3-.3.3-.6s.3-.6.4-1c0-.2.3-.3.3-.5 0-.4.3-.8.5-1.2l1-2.3c.4-.8.7-1.7 1.3-2.4v-.3s0-.2.2-.3c.3-.1.3-.4.4-.7 0-.3 0-.7.4-1 0 0 .1-.1 0-.2l.2-.4.2-.2c.1-.9.5-1.6 1-2.3.3-.5.6-1 .7-1.7.1-.4.5-.6.5-1s.3-.7.5-1l.8-1.7v-.3c.1-.4.2-.8.5-1l.2-.3c.2-1 .6-1.8 1-2.7.8-1.4 1.1-2.9 1.8-4.2l.8-2.1 1.4-3.6.3-1c.4-.6.6-1.3.8-2 .5-1.3 1-2.6 1.3-3.9l1.7-5.2.6-3.2c.2-1 0-2-.3-3 0-.5-.3-.9-.8-1-.4-.2-.8-.4-1.2-.3h-.6c0 .3-.3.4-.5.7l-1.8 2.7-3 4.8-1 1.4-1 2c-.6.6-1 1.4-1.3 2.1l-1.1 2-1.7 3-2.3 4.3c-.4.7-1 1.4-1.3 2.2-.6 1.4-1.5 2.7-2.2 4.1-.4 1-1 1.9-1.5 2.8l-1.8 3.4-2.4 4.5-4 7.5-5.5 10.2c-.8 1.7-1.8 3.3-2.7 5l-1.4 2.7-1.8 3.4-2.6 4.7-.7 1.2c-.2 0-.2-.2-.3-.3l-2.8-5.4c-.1-.4-.5-.7-.3-1.3l-.1-.2-2.8-5.4s0-.3-.2-.2c-.3.2-.3-.1-.4-.3l-.5-1-3.7-7.1-2.6-5.3-2.7-5.3-2.1-4.2-.5-.9a154 154 0 0 0-3.2-6.1l-1.3-2.5-2.2-4.3-1.2-2.2-1.8-3.2-2-3.7-2.7-4.8c-.4-.6-1-1.1-1.1-1.9-1-1.1-1.6-2.4-2.5-3.5-.2-.2-.4-.5-.6-.5-.6 0-1.2-.4-1.7 0h-.1c-.4-.8-.7-.9-1.3-.3-.3.2-.5.5-.4.9.2 1.4.4 2.8.8 4.2l1.8 6.9c.7 2.8 1.4 5.5 2.3 8.3l2.2 7.5a239.3 239.3 0 0 0 9 24.2c1.3 3 2.5 6 3.9 8.8l6 12.5 5.2 9.9 1.6 3v.2h-.1c-.2-.1-.4 0-.5.1l-.6.7-1.5 3-2.2 5.4c-.5 1.2-.8 2.4-1.2 3.7l-.7 2.7-.8 4.6-.3 2.2v.9l-.6-.5a16.5 16.5 0 0 0-11-5c-3.2-.1-6.1.7-9 2.2a28.9 28.9 0 0 0-11.2 11c-.7 1.2-1.5 2.4-2 3.9a23.2 23.2 0 0 0-1 7.7c.1 1.3.5 2.6 1 3.9.1.6.3 1.3.7 1.9.6 1 1 2 1.7 2.8.1.2.1.3 0 .4-.7.8-1 1.7-1.2 2.8-.1 1.1 0 2.3.6 3.3l.1.3c.3.9.7 1.7 1.4 2.3.5.4 1 .7 1.6.5.2-.4.3-.8-.2-1v-.2c-.2-.6-.7-1-1-1.6-1-1.2-1-2.4-.7-3.8l.6-1.2c0-.3.3-.3.6-.1l.3.3h.7c.4-.3.4-.3.9 0 .4.3 1 .4 1.4.6 0 .3-.2.4-.3.5l-.8 1.5c-.2.4-.2.9 0 1.3l.5.7c.3.4.7.5 1.2.3l.4-.2c.5-.1.8-.6.7-1 0-.3 0-.3-.3-.3-.3.1-.5.3-.8.2 0-.2 0-.4.2-.6.5-.7 1.2-1.3 2-1.8.2 0 .5-.2.7 0 .4.1.7 0 1-.2l.3-.2c-.5-.6-1.1-1.2-1.8-1.6-.2-.2-.5-.2-.7 0-.3.3-.6.3-1 .3a8 8 0 0 1-1.8-.4c-.6-.2-.7-.5-.3-1 .4-.4.8-.6 1.3-.7.6-.2 1.3-.1 1.9 0l.4.3c.2.5.6.5 1 .4h1.2c.6.1 1 .5 1.4.8.1 0 0 .3 0 .4 0 .6-.2 1.1-.4 1.6l-.2.5c-.3.5-.3.5-.7.4h-.2c-.3 0-.6 0-.8.2l.5.8c0 .3-.1.2-.2.2l-.2.2c.1.3-.1.4-.3.6-.3.3-.7.7-1.2.7l-.6.3v.2c-.3.4-.7.4-1 .8v.2l.7-.1.1-.1c.1 0 0 0 0 .1v.1c-.2.3-.5.3-.7.5-.4.2-.7.6-1.2.5-.2 0-.3.1-.4.3l-1.4.7-1 .7c-.4.2-1 .2-1.2.7 0 .2-.3.3-.4.4-.2.3-.3.6-.1.8 0 .2.3 0 .5 0h.1l.5 2.3c.6 2.2 1.4 4.4 2.4 6.5 1.4 3 3 5.8 4.3 8.8.3.5.4.5 1 .3h.1c.5-.2.5-.2.8.1l2.5 2.9c3 2.9 6 5.6 9.3 8.2 2 1.6 4 3.2 6.5 4 .2.1.4.2.3.4l.1.3c.2 0 .2-.1.3-.2l.8-1.6.3-.5c.1-.2.1-.4-.1-.5l-.3-.2c-.6 0-1-.5-1.5-.8a13 13 0 0 1-2.3-1.4l-.5-.3c-.4.1-.6-.2-.8-.4l-1-.8c-.2-.1-.3-.5-.5-.4-.5 0-.6-.3-.8-.5l-1.2-1-1.2-1.2-1.5-1.2c-.3-.4-.9-.5-1-1l-.2-.2c-.8-.4-1.5-1.2-2.2-2l-.7-.8-1.6-1.7-1.2-1.6c-.6-.7-.7-.7-1.5-.3-.2 0-.3.1-.4-.1-.3-.6-.6-1.3-1.1-1.8 0 0-.1 0 0-.1v-.5c-.1-.2-.3 0-.4 0l-.3-.6c.5-.2 0-.4 0-.6h-.3s0 .2-.1 0c-.1 0-.2 0 0-.1.3-.2 0-.4 0-.6-.5 0-.4-.3-.4-.4 0-.3-.2-.5-.3-.5-.5-.1-.2-.4-.2-.6-.1-.2 0-.5-.4-.6v-.2c0-.2 0-.3-.2-.4l-.3-.4c.1-.1 0-.2 0-.4l-.2-.2c0-.5-.1-1-.7-1 .3-.5.3-.6-.3-.8.2-.2.1-.5.4-.7a8.7 8.7 0 0 1 4-1.4c.4 0 .5-.2.4-.6 0-.3-.2-.6-.4-1-.3-.3-.6-.3-1-.1l-1.2.5-2.5 1.2c-.2 0-.3.1-.4-.2l-.1-.6-.5-1.4c0-.2 0-.5-.3-.6-.2-.2-.2-.5-.2-.7 0-.2.2-.2.4-.3l2-1.1 3.1-1.6.5 1.3.2 1v.3l1.6 4.4 1.9 4.6c.8 2 1.6 4 2.6 6 .1.3.3.5.6.4h.7c1.2 1.3 2.5 2.4 3.8 3.6a72 72 0 0 0 6.5 5c1.6 1.2 3.3 2.3 4.7 3.6.3.3.5.2.8 0 .6-.2.8-1 1.3-1.3v-.1c0-.5-.7-1-1.2-1.2l-1.7-.7-3.8-2.8-.5-.4-2.2-2c-1-1-2.3-1.8-3.4-2.7l-3.3-3c-.5-.6-.9-1.1-1-1.9l-.4-.7-1.2-3v-.3-.3c0-.4-.2-.9-.4-1.3v-.2c-.4 0-.4-.3-.3-.4.1-.4 0-.7-.1-1-.2-.6-.6-1-.7-1.7 0-.6-.4-1-.4-1.7v-.1c-.5-.7-.6-1-.7-1.7 0-.3 0-.5.3-.6v-.2l-.8-1-1-1.7c-.1-.3-.1-.5.1-.7.3-.2.5-.2.7-.1 1 .3 2 .5 3.1.6 2.4 0 4.6-.5 6.6-1.6a22.4 22.4 0 0 0 5.6-4l3.2-3.4c.3-.3.8-.5 1-1 .1-.5.6-.7.9-1.2.2-.5.8-.9 1.1-1.5l.4-.7c.3-.4.7-.8.9-1.3.3-.1.2-.5.4-.7.6-.5.7-1.3 1.1-2 .3-.5.7-1 .9-1.7l.6-1.5c.8-2 1.4-3.9 2-5.9.5-2.5 1.2-5 1.9-7.6l.6-2.4.5-2 .9-3 .8-2.3 1.5-3.6c.1-.2.2-.5.6-.3l.5-.1c.7-.4 1.6-.5 2.4-.4 1.5.1 2.9.5 3.7 2h.2c1.1 1.3 2 2.6 2.9 4a202.8 202.8 0 0 1 8.4 18.4l1.3 3.5a67 67 0 0 0 9.2 14.3c1.3 1.4 2.7 2.4 4.5 3 .3.1.5.3.6.6.3.5.6 1 1.1 1.2.5.2.9.6 1.2 1-.1.2-.4 0-.4.2l.1.5c.3.2.1.4 0 .6l-2.3 5.7-4 10.2c-.1.6-.3 1.3-.8 1.7-.1.2-.1.4.1.6l.5.5c.2.3.3.3 0 .5l-1.5 1-7 4.9-5.5 3.8c-.4.2-.7.5-1 .5-.4 0-.5.2-.5.4 0 .8.9 1.4 1.7 1.2l1.3-.7c.8-.3 1.5-.8 2.3-1.2l1.8-1.2 3-2.1 3-2.3c.8-.6 1.8-1.2 2.6-2l.7-.7c1-.6 1.8-1.3 2.7-2-.5-.4-.9-.7-1.5-.9.4-.4.6-1 .8-1.4l.5-1.6.1-.1.5-1.6c.2-1 .6-1.8 1-2.7.3-1 .9-1.8 1.2-2.8 0-.3.1-.5.3-.7l.5-1.2 1-3 .9-3c.4.1.8.3 1.2.1h.2c.6.4 1.3.5 2 .5l1.3.1c.2 0 .3.2.2.4-.1.2 0 .3.2.4.2 0 .2.2.1.4l-.7 2-.4 1-2.7-.8-1-.3c-1-.3-1-.3-1.3.6-.2.6 0 .9.6 1 .4.2.9.2 1.3.5l.7.2 1.8.5-1.4 3.5c-1 2.5-1.8 5.1-2.9 7.6l-2 4.4c-.4.8-.4.8.2 1.4l.2.1c.4.5 1 .1 1.5.3.1-.5.5-.7.7-1l1.2-2.6c0-.2.2-.3 0-.4-.2 0-.1-.2 0-.2.6-.1.5-.7.7-1.1-.2-.4 0-.5.3-.8.5-.6.5-1 .6-1.9v-.1c.5-.3.5-.8.7-1.1.1-.3.1-.7.5-.9-.2-.4.2-.7.3-1 .2-.6.5-1 .6-1.6v-.1c.4-.4.6-.8.7-1.3l.8-2c.6-1.3 1-2.6 1.5-4l.4-1.2c.1-.4 0-1 .3-1.3.1-.1 0-.3 0-.4.3-.2.8-.2 1-.7l1.9-1.7c1.1-1 1.6-2.3 1.7-3.8 0-.4 0-1-.7-1l.5-.5.4-.5a15 15 0 0 0 4.2-10.4v-1.7zM907 189.8zm0-.4zm32.9-89a71.5 71.5 0 0 0 2.2-4c.2-.5.4-1 .7-1.3l1.1-2.2c.5-.7.7-1.6 1.2-2.3l1-2 1.1-2.2.6-1 1.3-2.3c1-1.8 1.9-3.7 3-5.5 1.1-2.2 2.2-4.4 3.5-6.6l3.5-6.3c.4-.5.6-1.1.9-1.7.1-.5.4-.9.7-1.3l1-2c.7-1 1-2.1 1.6-3 .5-.8.8-1.6 1.1-2.3.3-.4.4-1 .7-1.3.2-.4.3-.9.7-1.2.2-.6.7-1.1 1-1.7.2-.7.6-1.3.9-2l2-4a68.5 68.5 0 0 1 2.6-4.6c.1-.4.4-.7.6-1l.1.2c.2 0 .2-.1.2-.2-.2-.6.3-1 .5-1.5l1-1.5h.2c.1 0 .2 0 .2-.2l-.2-.2.7-1.2c.3-.4.4-.9 1-1 .2-.5.8-.8.8-1.5l.2-.6c0-.1 0-.2.2-.2l.1.3c0-.4.2-.7.4-1 .1-.4.4-.7.6-1.1.1-.3.3.2.5 0v.2l-.1.8a95.4 95.4 0 0 1-5.4 16l-1.8 4.7-1.8 4.4-1 2.1-2 4.9-2.3 5c-.8 1.6-1.5 3.3-2.4 4.9l-1.2 2.6c-1 1.8-1.8 3.7-2.7 5.5l-1.3 2.6a161 161 0 0 1-2.7 5.6l-2.5 5.1-3.4 6.9-3.1 6.3c-.5 1-1 2-1.6 2.8l-.3-.4-1.8-3.5-2.2-4.2v-.7zm-45.3 61.8l-.6.8a1 1 0 0 1-1.1.4c-.2 0-.2-.1-.3-.3-.2-.7.2-1.7 1-2h.2c.3.5.7.4 1 .3h.5c-.2.4-.5.6-.7.8zm-2.3-2.2c-.6 0-.8-.2-.7-.6.1-.6.6-1 1.1-.8h.3c.2 0 .4 0 .5.3 0 .2 0 .5-.2.7-.3.2-.7.4-1 .4zm5.4 2.3c-.3.3-.6.5-.5 1 0 .2-.2.2-.4.2h-1.1c.6-.8 1.2-1.5 2.3-1.7 0 .3-.2.4-.3.5zm2.4 1.3c-.4.7-1 .9-1.5.5-.1 0-.3-.1-.1-.3.4-.3.7-.8 1.3-.7.5 0 .5 0 .3.5zm.9-1l-.6-.5-.6-.2a.6.6 0 0 1-.5-.3 3 3 0 0 0-.9-.8c-.5-.4-1-.5-1.7-.1-.2.1-.3.2-.5 0a2 2 0 0 0-1.3-.7c-.2 0-.3-.2-.3-.3v-.5c0-.4-.2-.8-.5-1-.3-.5-.3-.9 0-1.3.2-.2.3-.4.3-.7.2-1.4.3-2.9.9-4.2.6-1.8 1.5-3.5 2.7-5l.9-1.2c.7-1 1.7-1.8 2.6-2.7l.8-.9c.6-.6 1.3-1 2-1.5l.4-.2c.4.2.7 0 1-.2.8-.4 1.6-.4 2.3-.5 1.5-.1 2.9 0 4.3.4.4 0 .7.2 1 .6l.9 1c.8 1.2 1.2 2.6 1.5 4 .5 2.3.6 4.7.4 7.1-.2 1.5-.6 2.9-1.1 4.3-.5 1.2-1.4 2-2.2 3s-2 1.6-3 2.4c-.6.6-1.5 1-2.3 1.4-.2 0-.4.2-.5.3l-1 .3-1.3.3s-.2.1-.1.2c.3.7-.3.7-.6 1a5.6 5.6 0 0 0-3-3.5zm33.8-39.5l-1.6 2.3a21.7 21.7 0 0 0-3 7.2c-.5 1.6-1 3.3-1.3 5a15 15 0 0 0-.4 2.2c-.6 1.6-1 3.3-1.4 4.9l-1.6 4.8a41.2 41.2 0 0 1-14.7 18.6 11 11 0 0 1-4.5 1.5c-.9.2-1.7.2-2.6.2-.3 0-.4-.1-.2-.4l.6-2.4c.6 0 1.2-.1 1.7-.3 1-.5 2-1 3.2-1.4l2.2-1 1.8-1.3c.3-.3.8-.5 1.1-.9l1.4-1.4.5-.6 1-1.5 1.4-2.6c.1-.3.3-.5.3-.8 0-.7.4-1.2.5-1.8.3-1 .7-2.1.8-3.2l.2-2.1c0-1.4 0-2.8-.4-4.1a8.6 8.6 0 0 0-4.2-5.9c-1-.5-2-.7-3-.8-.9-.2-1.7-.2-2.5-.1-.2 0-.4 0-.5-.2-.5-.6-1-.7-1.7-.5a29.3 29.3 0 0 0-11.9 8.6 15.9 15.9 0 0 0-3.7 10.7c0 .4 0 .7.3 1l.2.4c0 .2 0 .3-.2.2h-.5c-1-.1-1.7.6-1.7 1.5 0 1 .3 1.7 1 2.3.3.2.3.3.2.6-.2.7-.1 1.4.3 2 .3.5.7.9 1.3.8.1 0 .2 0 .2.2l-.3 1.1a7.6 7.6 0 0 1-2.9-4c-.1-.6-.2-1.3-.7-1.8v-.4a14 14 0 0 1-.2-4.8c.2-1.7.5-3.4 1.3-5a28 28 0 0 1 14.1-13.8c2-.9 4.1-1 6.2-.9 2.5.2 4.7 1.2 6.8 2.6.8.5 1.5 1.2 2.2 1.9l2 1.4c.3.2.6.3.8.7.2.3 1 .3 1.2-.1a4 4 0 0 0 .5-1.8A68.7 68.7 0 0 1 926 128a51.1 51.1 0 0 1 4.2-10.4l.8-1.5.5.8 1.6 2.6c.6 1 1 2 1.7 3v.6zm35.4 38.3c-1-.8-1.8-1.9-2.6-2.8-.8-1-1.5-2-2-3.1-.7-1.4-1.4-2.7-1.8-4.2l-.1-.4v-.6c0-.3.2-.5 0-.8-.3-.7-.2-1.4 0-2.2.2-1.4.4-3 .8-4.4.5-1.4 1.2-2.7 2.2-3.9a5 5 0 0 1 3.2-1.6c1.4-.2 2.7 0 4 .6l2.3 1.3.9.8c.3.2.5.5.8.5.2 0 .3.2.4.3l3 3.4.8 1.3 1 2.2.9 2.2c.3.7.4 1.5.4 2.2v1.4c.1 1 .1 2-.1 3l-.2.6c-.1.3-.2.3-.5.2-.4 0-.8-.2-1.1-.1a2 2 0 0 0-1.5 1l-.3.7c0 .3-.3.4-.6.4h-1c-.5.2-1 .4-1.2.8 0 .2-.2.3-.5.3-.4-.1-.8 0-1.1.3-.3.2-.5.2-.8 0-1.3-.5-2.5 0-3 1.3l-.1.3c-.2.4-.3.4-.6.2l-1.6-1.2zm12.9-.8c-.8-.4-1.3-1.3-1-2 .6 0 .7.4 1 .8.3.4-.2.8 0 1.2zm-5.4 1.7l-.2-.4c.2 0 .4 0 .5.2.3.3.7.4 1.1.6a3 3 0 0 1 1.6 1.4l.1.2h-.4c-.2-.4-.7-.4-1-.7h-.2c-.4.2-.6.4-.9.4-.3 0-.3-.5-.8-.4.7-.6.7-.6.2-1.3zm2-1c-.3-.2-.7-.4-.6-.7.2-.3.6-.1.9 0 .3 0 .7 0 1 .4 0 .1.2 0 .4 0 .5.1.7.4.7.9 0 .3 0 .6-.2 1l-2.2-1.6zm-3.2 2h-2c-.4 0-.5-.2-.6-.7 0-.6.1-.7.7-.6l1.3.6.6.6zm8.9 6.8a5.2 5.2 0 0 1-3 3.2l-.6.1h-.6c-.3-.2.1-.4 0-.6H978.4c-.2 0-.4 0-.5-.3 0-.3-.4-.1-.5 0-.3.1-.5.2-.7 0l-.3-.2a8.9 8.9 0 0 1-3.7-2.7c-.3-.3-.5-.7-.3-1.2 0-.2.1-.4-.3-.5l-.2-.3c-.1-1.5.6-2.7 2.3-2.9h1.5c.4.2.5.3.4.7 0 .2-.2.4-.4.6l-1.1.9-.3 1 .3.1c.5-.2.9 0 1.3.3.7.5 1.5.9 2 1.7.1.4.3.7.2 1v.5c0 .5.1.6.6.5l.6-.4c.3-.4.8-.6 1-1.1 0-.2.2-.1.4-.1 1-.1 2-.4 3-.9l1.3-.7.6-.2c.1.5 0 1-.2 1.5zm2.8-8.7c-.8 1.7-2 3.1-3.6 4.2-1 .7-2 1.3-3 1.7-.7.3-1.3.7-1.8 1.2 0 .1-.2.2-.4 0-.6-.7-1.5-1.2-2.2-1.9l-.1-.1c.4-.6 1.1-1 1.4-1.7.3.5.7.7 1 .9 1.1.5 1.4.4 2.3-.3l.7-.7c.2-.1.2-.4.3-.6 0-.2-.1-.3-.3-.5-.1-.2-.2-.3 0-.5s.4-.5.7-.6l.4-.2c.2-.2.3-.3.1-.6-.2-.2 0-.3.1-.4.2-.3.4-.5.5-.9 0-.3.4-.4.6-.7.3-.2.5-.5.3-.9 0 0-.1-.1 0-.2.8-.8 1-2 1.1-3 .2-1 0-2-.1-3v-1c0-1-.5-2-.8-2.9-.4-1.1-1-2.2-1.6-3.3l-.6-1.3a16 16 0 0 0-2.7-3.6l-1-1.1c-.5-.6-1-1.1-1.7-1.5l-2-1.5c-2-1-4-1.4-6-1.2-1 0-2 .2-2.9.6a6.3 6.3 0 0 0-3.4 2.9c-.5 1-1 2-1.2 3l-.5 1.2c-.3 1.2-.4 2.4-.6 3.7-.3 2 0 4 .6 6a22.8 22.8 0 0 0 6.3 10c1 .9 2 1.4 3.1 1.9a6 6 0 0 0-1.5 2.7 29.6 29.6 0 0 1-4.4-4c-.9-1-1.7-2.2-2.5-3.3a44.4 44.4 0 0 1-5.7-11.2l-1.7-4.5c-.2-.6-.4-1.3-.8-1.9-.3-.4-.5-1-.7-1.6-.2-.4-.3-1-.6-1.4-.3-.3-.3-.7-.5-1l-.8-2.1-.5-1.2-.8-1.7c-.6-1-1-2.1-1.7-3-.4-.6-.5-1.3-1.2-1.6v-.1c0-.5-.4-1-.7-1.3v-.2c-.4-.2-.5-.8-1-1l-.4-.5c-.4-.8-1.2-1.2-1.8-1.8l-.6-.5h-.3c-.6 0-1-.2-1.3-.7 0 0-.1-.2-.3-.2-.8 0-1.6-.4-2.4-.3h-1.1c-.3-.1-.5 0-.8 0-.3.1-.5 0-.7-.2-.7-1.2-1.5-2.3-2.1-3.5l-1.6-2.8-2.6-4.8-2.8-5.2-1.5-3-2.2-4.5-1-2c-.5-.9-1-1.7-1.3-2.6 0-.3-.2-.5-.4-.8l-1.9-4c-.3-.5-.4-1.1-.8-1.7-.2-.2-.2-.5-.3-.8l-.8-1.6c-.3-.4-.3-1-.6-1.4l-.8-2c-.3-.7-.8-1.5-1-2.4l-.4-.7c-.1-.4-.4-.7-.4-1.2v-.4c-.6-1-.9-2-1.4-3l-1.1-2.8-1-2.4c-.4-1.2-.7-2.4-1.2-3.5l-.5-1.1c-.2-.2 0-.4 0-.6l-1-2.6-.6-1.8-1-3-.7-2.2c0-.4 0-1-.5-1.2.2-.8-.6-1.3-.4-2V50l-.7-2.2c-.1-.3-.3-.5-.3-.9 0-.3-.4-.4-.4-.8l-.1-.1c0-.2.1-.1.2 0v-.2c-.4-.7-.4-1.6-.7-2.4-.2-.4-.4-.8-.3-1.2 0-.4-.3-.6-.3-.9l-1-3.5-.6-2.5-.1-.4-1.2-4.8a60.5 60.5 0 0 1 4.3 6.3l4.6 8.3 6 11.3 5.2 10.5 5 9.7 3.9 7.6 4.3 8.2 1.3 2.8 2.8 5.4 4.4 8.5 3.7 7.4 4.8 9 4.2 7.6 2.2 4.3c.4 1 1 1.8 1.5 2.7l.7 1.4c.3.6.3.6.9.5 0 .3 0 .6-.2.9-.2.4-.2.8.2 1.2.2.1.2.3.2.5.1.3.3.6.6.6.2 0 .4 0 .4.2.2 0 .2-.2.2-.3 0-.1 0-.3.2-.2.2 0 .2-.2.2-.3v-1.9c0-1.3 0-2.6.6-4 .3-.7.4-1.5.9-2.2l1.6-2 1-1 2-1a12.1 12.1 0 0 1 8.4-.6c3.5 1 6.4 3 8.6 5.9a27 27 0 0 1 4.3 8.3l.7 2.4.4 2.2c.2 1.7.5 3.3.4 5 0 2-.4 4-1.3 6zM953 97.5v-.2.2zm-2.2 4.5v.1c0 .1-.1 0-.1 0h.1z"/><path fill="#fff" d="M929.9 114.2v.1h-.1v-.1z"/><path fill="#ABABAB" d="M954.9 212.4l-.3.1-.1-.1c0-.1.1-.2.3-.2v.2z"/><path fill="#FEFEFE" d="M958 210.2h-.4l.2-.2.1.2z"/><path fill="#ABABAB" d="M955.2 212.2z"/><path fill="#060606" d="M939.5 114.3c.2 0 .5 0 .7.2.3 0 .4.4.2.7l-.8.9c-.9.8-1.9 1-3 .9-.8-.2-1.3-.5-1.8-1a28 28 0 0 0-1-1.4 3.4 3.4 0 0 1-.4-4.3c.5-.8 1.3-1.2 2.2-1.3 1.6-.2 2.9.4 3.9 1.5l1 1.3.2.5c.1.5.1 1-.4 1.2l-.8.6h-.2c-.6 0-.7-.2-.7-.8v-.3c0-.3 0-.4-.4-.3l-1.2.6c-1.1.5-1.1.6-.2 1.5l.4.3c.4.3.8.4 1.3.3v-.2c-.2-.5-.2-.6.2-.8l.8-.1zm-1.9-2.8a3.8 3.8 0 0 0-2-1.3h-.5c-.3.5-.3 1.5 0 2 .1.1.2.2.4.1l2.1-.8zm-1.4-8.9c-.7 0-1.3.3-2 .6l-3.5 1.9c-.2.1-.6 0-.8.2-.3.3-.6.2-.9 0 0-.2-.2-.2-.3-.2a1 1 0 0 1-.6-.5c0-.2.3-.3.4-.4.1 0 .3-.1.2-.2-.1-.3 0-.4.3-.5 1.2-.4 2.3-1.1 3.4-1.7l2-.8c.3-.1.6 0 .8.2.4.5.8.9 1 1.4z"/><path fill="#F3F3F3" d="M939.5 114.3c-.2 0-.5 0-.8.2-.4.2-.4.2-.2.7v.2c-.5.2-.9 0-1.3-.2l-.4-.4c-.9-.9-.9-1 .3-1.5l1.1-.5c.3-.2.5-.1.5.2v.3c-.1.6 0 .8.6.8h.2v.2z"/><path fill="#4C4C4C" d="M974.4 36.8l-.2.2.1-.3z"/><path fill="#F3F3F3" d="M937.6 111.5l-2 .8c-.3.1-.4 0-.5-.2-.3-.4-.3-1.4 0-1.8.2-.2.3-.2.5-.2a4 4 0 0 1 2 1.4z"/></g><g class="frame--1"><path fill="#87CBF3" d="M902.1 152.6l2.3-.3v2l2.3.4 2.2-.5c-.2 0 1 1 1 1l4.8 2.8c.1.2-.6 5-.6 5s-2.3 4.8-2.5 4.8l-4 1.5-2.6.2-1.4-4-.9-3.8 2-1 .7-.6v-1.7l-1.8-.4c-.1 0-.1-2.6-.2-2.5l-1.3-.7v-2.2zm66.6 3.6l-1.8.8-2.2-1.2-2.2 1.1 1 2.2 1.5 2 4.2-.6h3.2v2l-2.8 2.2.3 1.9-.5 1-7-.2-1.4-3.5-2-1.6-2.3-4.7 1.2-2.7 2.3-1.4.9-1.9 2.1.3 2.5.2 1.2-.5h1.5l1.1-1 2.1-.3.8 1.3-1 1.5-1 1.3-1.7 1.8z"/><path fill="#fff" d="M947 204.9l14.6-15.9-1.3-.9 2-20.9 8.1.4s-.6 9.2-1 9.6c-.5.4-1.9 12.8-1.9 12.8s.2 4.8-.2 4.7c-.4-.2-16 17.2-16 17.2l-4-4.9-.4-2.1zM904.3 170l9-1.4.7 18.3 11.4 17.2-4.2 5.1-13.7-19.8-1.8-.5-2-14.3.6-4.6z"/><path fill="#121212" d="M981.5 144.4v-2-.6 2.7z"/><path fill="#B8B8B8" d="M896.9 145.3c0 .4 0 .8-.2 1.1v-1h.2zm84.6-4.9v-1 1z"/><path fill="#121212" d="M981.5 140.4v1c-.2-.2 0-.6 0-1z"/><path fill="#B8B8B8" d="M896.9 148v.9h-.2v-.8l.2-.1zm84.6-3.5v.7-.8z"/><path fill="#606060" d="M896.7 147.3c.2.2.2.4 0 .5v-.5zm.2.7h-.2c0-.1.1 0 .2 0zm52.4-76l.3-1.5c.4.5 0 1 0 1.4 0 .2-.2.1-.3.2z"/><path fill="#050505" d="M905.8 172.8l.1-.5c.1-.2.3-.5.6-.5.2 0 .3.3.4.5l.2.6c0 .4-.2.7-.5.8-.3.1-.5 0-.6-.2l-.1-.5v-.2z"/><path fill="#121212" d="M967.4 169.3c.6 0 .9.3.6.9v.2c-.1.2-.2.4-.5.4-.2 0-.4-.2-.5-.3-.2-.3-.2-.8 0-1l.4-.2z"/><path fill="#FDFDFD" d="M920.4 22.6c-.2-.5 0-1 0-1.5-.1-.5 0-.9-.2-1.3V19c.2-.3 0-.6 0-1l-.1-3.8-.1-2.4v-.1V10 9 7s.1-.1 0-.2l.1-.3c.2 0 .2.1.2.2l1 2.4 1.6 5.2 1.5 5.3 1.2 4.4 1 4.2c.5 2.3 1 4.7 1.7 7l1.3 5.3 1.9 8.5c.7 3 1.5 5.9 2 8.8l1.8 7.6 2.3 9 .6 2.9 1.3 5.3 2.4 10 2 8.6c.6 3 1.4 6 2.2 9l2.1 7.9c.5 1.5.8 3 1.1 4.6a56.4 56.4 0 0 0 1.5 5.6c.1.6.1.6.7.7 0 .3-.2.6-.4.8-.2.4-.4.8 0 1.2v.6c0 .3.1.6.5.6.2 0 .3.3.3.5l.3-.5c.7-.1.5-.8.8-1.1l.1-.7a9 9 0 0 1 1-3.3l1.1-1.7c.6-1 1.5-1.7 2.4-2.3l1.8-1a6 6 0 0 1 2-.5c1.8-.2 3.6-.2 5.4.3a15.4 15.4 0 0 1 9.9 8.9c1.2 2.9 2 6 2.2 9.1v3.5c-.1 2.3-.3 4.5-1 6.7-.6 2.1-1.6 4-3.1 5.7-1.1 1.2-2.5 2-4 2.6-1 .4-2.1.8-3.3 1-.6 0-1.3.2-2 .6 0 .1-.3.2-.4 0-.5-.9-1.2-1.6-1.7-2.4v-.2c.4-.3 1-.5 1.5-1l.2.2.9.7c.8.8 1.3.6 2.2.2l.8-.5c.2 0 .3-.3.4-.5.2-.2 0-.4-.1-.6s-.1-.3.1-.5c.3-.1.5-.3.8-.3l.5-.2c.2-.1.3-.2.2-.5-.1-.2 0-.3.2-.4l.7-.7c.1-.3.5-.4.7-.6.3-.1.6-.3.5-.7v-.3c1-.6 1.4-1.6 1.8-2.6.5-1 .5-2 .7-3l.2-1c.2-1 0-2 0-3l-.8-3.8a23.7 23.7 0 0 0-5.9-10.6 10 10 0 0 0-5.4-2.4c-.9-.1-1.8-.2-2.7-.1-1.6.2-3 .8-4.1 2-.8.8-1.5 1.7-2 2.7l-.7 1c-.6 1-1 2.1-1.4 3.3-.3.9-.7 1.7-.8 2.6l-.1 1.6a20.6 20.6 0 0 0 2 10.1c.7 1.3 1.3 2.6 2.2 3.7.6.7 1.3 1.4 2.1 1.9a6 6 0 0 0-2.1 2.3c-.4-.2-.6-.5-.8-.8l-1.6-2.3a43.5 43.5 0 0 1-5.1-15.2l-.6-5-.4-3.1-.3-1.6-.3-1.7c0-.4 0-.9-.2-1.3s-.1-.8-.2-1.3c-.2-.6-.2-1.4-.3-2l-.3-1.4c0-.6-.2-1.2-.4-1.9l-.9-3.3c-.2-.6-.1-1.3-.7-1.8-.2-.2 0-.4 0-.7-.3-.4-.4-1-.6-1.4-.2-.7-.8-1.3-1-2 0-.3-.2-.6-.4-.7-.4-.4-.5-1-1-1.3-.1-.2-.2-.3-.5-.4-.4 0-.8-.3-1-.8 0-.2-.2-.3-.4-.4l-.5-.2-1.4-.5c-.4 0-.8-.1-1.2-.4-.3-.1-.6 0-.8 0-.4 0-.6-.2-.7-.6l-1.3-4-.8-3.2-1.1-4.1-1-3.8c-.4-1.4-.8-2.7-1-4.1-.3-1.5-.8-3-1-4.4-.2-1.4-.7-2.7-1-4.1 0-1-.4-1.8-.6-2.7 0-.7-.2-1.4-.4-2.1-.3-1-.4-2.1-.6-3.2-.2-.8-.2-1.7-.6-2.5 0-1-.3-2-.6-2.9v-1c-.2-1.4-.4-2.8-.8-4.1v-.6c0-.5-.3-1-.3-1.4v-1l-.2-1.1-.6-4-.4-2.7v-.8l-.3-2.2c0-.9-.1-1.7-.3-2.5v-1.2l-.3-2.7c-.2-.6 0-1.2-.2-1.9-.1-1 0-2-.2-3l-.1-2.3c0-.5.1-1-.2-1.4V29v-1.3c.1-.5 0-1 0-1.6v-1.3c-.1-.3-.3-.6-.2-1 .1-.3-.2-.5-.2-.9l.1-.3.1.1c.1 0 0 0 0-.2zm18.9 74.9l1-.3c.5-.2.7-.6.6-1.1v-.6L940 94c-.6-1.3-1.6-2-3-2.4-1-.2-2 0-2.7.8-1.2 1.3-1.5 2.3-.8 4l.8 1.9c.3.5.6.9 1.1 1.1 1.2.7 2.3.7 3.5 0 .3-.1.7-.3 1-.6.3-.3.3-.6-.1-.8l-.6-.4v-.1zm-.4-12l-.5-1.2c-.4-.8-.5-.8-1.3-.7-1.9.2-3.7.9-5.6 1.2h-.2c0 .5-.3.5-.5.6-.3.1-.4.3-.2.5l1 .9h.2c.3-.3.7 0 1-.1l2.3-.6c1.2-.3 2.4-.7 3.8-.6zm12.8-72l.8-2.9c0-.3 0-.7.5-.8v-.5V9l.1.2.2-.2V7.8v-.2c0-.1 0-.2.2-.2l.2.3V6.6c.2 0 .3-.2.4-.3 0-.1 0-.2-.2-.2v-.6h.6l.1 4.1-.1 5.7-.5 6-.3 4.9a202.7 202.7 0 0 1-.7 6.5l-.6 4.3-.7 5.4-.7 4.7-1.3 8.2-.9 5.3-.7 4-.7 4.7-1 6-1 6.3-1.4 6.1c0 .4-.1.9-.3 1.3l-.2-.8-1-4.3-1.3-5.2a328.3 328.3 0 0 0-1-4.8c.2-.3.2-.7.3-1l.5-4.8.6-3.6.5-3.4 1.3-6.7 1-5.1.8-3.7a78.1 78.1 0 0 1 1.2-5.7l.3-1.3.4-1.8c.3-1 .3-2.1.6-3.2l.6-3.5.5-2.2.5-3 .8-4.1.7-3.2.4-1.9s0-.4.3-.1v-.2c-.2-.5.1-1 .2-1.6h.1c.1 0 .2 0 .3-.2v-.2c-.2 0-.2.2-.3.2h-.1zm-1.2 6.9v-.1l-.2.1.1.1v-.1z"/><path fill="#FCFCFC" d="M932.4 103.7l.3.6.7 1.7v.4c0 .8.5 1.3 1.3 1.1 1.2-.2 2.3.2 3.4.7-.3.3-.4.7-.4 1 0 .5-.3 1-.5 1.4-1 2-1.6 4-2 6-.3 1-.4 2-.4 3.1l-.3 5.5v3.4l-.4 5c-.3 2-.4 4-.9 6a33 33 0 0 1-2.9 8.3 45.4 45.4 0 0 1-6.1 9.4 12 12 0 0 1-6.5 4.1l-1.6.3c-.2 0-.3 0-.3-.2.2-.7.2-1.5.1-2.2 0-.2 0-.4.4-.4.5 0 1-.3 1.3-.6.8-.7 1.8-1.1 2.6-1.9l.3-.1c1-.5 1.7-1.2 2.5-2l1.4-1.4c.3-.3.6-.7.7-1.1l.4-.6c.8-1.2 1.5-2.4 1.8-3.8l.2-.7a8 8 0 0 0 .5-2.5l.3-2.5v-3.5l-.7-3c-.7-2.1-1.6-4-3.3-5.4a7.6 7.6 0 0 0-5.8-1.7c-.8.1-1.6.2-2.4.5-.2 0-.4 0-.6-.2-.6-.5-1-.5-1.7 0a27.8 27.8 0 0 0-10.6 12.2 14.3 14.3 0 0 0-.8 10c0 .2.2.4.4.6.1.2.4.3.4.6h-1c-.6.2-1.3.8-1.2 1.7 0 1 .5 1.8 1.4 2.2.3.2.4.3.4.6l.1 1.2c.4 1 1.1 1.4 2.2 1.3v1.3c-.9-.4-1.6-1-2.2-1.5a6.9 6.9 0 0 1-1.6-2.2c-.2-.5-.4-1-.9-1.3l-.2-.3c-.8-2-1-3.9-1.2-6-.1-3.6 1-6.9 2.6-10a27.6 27.6 0 0 1 7.9-9.5 13.7 13.7 0 0 1 15-1.2l1.8 1c.7.5 1.6.8 2.4 1l.5.4c.1.2.2.2.4.2.7 0 .8-.1 1-.8s0-1.3 0-2a41 41 0 0 1 .2-17.8c.2-1.6.6-3.2 1.1-4.7l.5-1.7z"/><path fill="#B8B8B8" d="M954 6.1s.2 0 .1.2c0 .1-.2.3-.4.3-.1-.3.2-.3.2-.5z"/><path fill="#606060" d="M951.7 13.6h.1c.1 0 0-.3.2-.2.1 0 0 .1 0 .2 0 .2 0 .2-.2.1h-.2v-.1zm-31.8-.7v.2l-.1-.2v-.1h.1z"/><path fill="#121212" d="M920 11.7v.1h-.1v-.1z"/><path fill="#050505" d="M956 209H956.2zm11.5-38.1c.3 0 .4-.3.4-.5l.1-.2c.3-.6 0-1-.6-1-.2 0-.3.2-.4.3-.2.2-.2.7 0 1 .1.2.3.4.5.4zm-61 .9c-.3 0-.5.3-.6.5v.7l.1.5c.1.2.3.3.6.2.3 0 .6-.4.5-.8 0-.2 0-.5-.2-.6s-.2-.6-.4-.5zm75-30.3c-.2-.3 0-.7 0-1v-1.1l-.2-2a24.8 24.8 0 0 0-4.8-11.3 18 18 0 0 0-7.3-5.4l-1.2-.4c-.8-.3-1.6-.4-2.4-.5a13.3 13.3 0 0 0-8 1.2c-1.6.7-3 1.8-4 3.2l-.9 1.2c-.4-1-.5-2-.8-3l-.6-2.9-.2-1-1.5-5.2c-.3-1.2-.5-2.3-.9-3.4l-1.1-4.3-2.2-9.3c-.1-.6-.4-1.1-.3-1.7l.6-.1c.2-.2 0-.4 0-.7l.4-2.7 1.2-6c.6-2.6 1-5.3 1.5-8v-.5s-.1.2-.2.1v-.2l.1-.5c.4 0 .3-.4.2-.5-.2-.5 0-1 .1-1.5 0-.4 0-.9.2-1.1.3-.4.2-.6 0-1l.3-1.4c-.1-.4.6-.7.2-1.2.4-.8.4-.8.3-1.5v-.3c.2 0 .2-.2.2-.3l.4-2.1.3-2c0-.5 0-1 .2-1.3V61v-.7c.2-.3.2-.6.2-1 .2-.6 0-1.4.3-2l.1-1c.2-1 .2-2 .6-2.9v-.2l.2-1.3c0-1 .5-1.7.5-2.6l.2-2.3.4-2.4.4-2.2.2-1.3.1-1 .1-.9c0-.7 0-1.4.3-2.1.3-.9.2-1.8.3-2.6l.3-2c0-.6.2-1 .1-1.5l.1-.4c.2-.3.2-.6.2-.9V29c0-.7.2-1.3.3-2 .1-1.2.1-2.3.3-3.4l.3-3.8.2-2V17l.2-3v-2.7l.2-3.4-.2-3.8c-.1-1.2-.5-2.3-1-3.3-.3-.4-.6-.8-1-.9l-1.6.1c-.1 0-.2 0-.2.2l-.5 1.3-1.5 5-.9 3.4-.4 1.8c-.3.8-.4 1.6-.6 2.5l-.6 2.7-.2.8-.7 3.4c-.3 1.7-.8 3.4-1 5.1l-1 4c-.2 1.6-.5 3.2-.9 4.7l-1.1 5.6-1.2 6-1.9 9L939 65l-.4 2.4-.1-.2-1.7-7c-.5-2-1-4-1.3-6l-.5-1.9-.8-3.5-.7-2.6c0-.7-.3-1.3-.5-2l-.6-2.6-.6-2.7c-.2-.4-.2-.9-.3-1.3l-.8-3.1-.7-3c-.1-.8-.4-1.7-.7-2.6l-1.1-4.8-1.5-5.4-.8-2.9-1.2-4.2c-.2-.7-.6-1.3-.6-2.1l-1.6-4c-.1-.4-.3-.6-.6-.7-.5-.2-1-.6-1.6-.3.2-.6-.4-.7-.6-1l-.7.4c-.3 0-.4.4-.5.7l-.2 2.5v5.2c0 2.7 0 5.4.2 8l.3 8.1.4 6.2a259.7 259.7 0 0 0 7.6 47.6 935 935 0 0 0 4.7 18.2l.4 1.4c-.3.2-.6 0-1 .2-.4.3-.7.8-.8 1.2a32.5 32.5 0 0 0-2 8.5 44 44 0 0 0-.6 7.7v5.3l.3 1.8c-.3 0-.5-.2-.6-.3a16.8 16.8 0 0 0-7.6-2.8c-1.6-.2-3.2-.2-4.8.2-3 .6-5.5 1.9-7.8 3.9a25 25 0 0 0-6.2 7.3 29 29 0 0 0-3.9 10.5c0 .4 0 .8-.2 1.2v.8c.2.3.2.4 0 .5v.2h.2v1c.1 2.2.8 4.2 1.8 6 .9 2 2.1 3.5 3.6 5 .4.4.4.4.1 1l-.1.3c-.6 2.2-.5 4.2 1.4 5.8l.3.3c.2.2.3.4.2.7l-.2.8c0 .4-.1.6-.4.7-.6.1-.7.5-.8 1h.2c.5.1.5.1.4.6-.3 1.9-.2 3.8-.1 5.7.1 2 .5 4.1.8 6.1l1 6.3c.2.8.1 1 1 .9h.2c.2 0 .4 0 .5.3l.5 1.3c1 2.3 2.4 4.5 3.7 6.7 2 3 3.8 6.1 6 9 .9 1 1.8 2 3 2.9 0 0 .2.2.4 0l1.8-1.4c0-.3-.4-.5-.6-.7-.3-.2-.3-.5-.5-.6-.8-.6-1.3-1.5-2-2.2-.3-.2-.4-.6-.8-.7-.1 0-.2-.1-.2-.3-.1-.2-.2-.5-.5-.7-.3-.2-.4-.5-.6-.8 0-.2-.1-.4-.4-.4-.1 0-.3 0-.2-.2 0-.3-.2-.4-.3-.7-.5-.8-1.1-1.5-1.5-2.4l-.2-.3-.6-.7-.5-1c-.1-.3-.4-.4-.4-.6 0-.4-.2-.5-.4-.8l-.4-.6c-.9-1.6-1.7-3.3-2.4-5l-.7-2c-.3-.5-.6-.6-1.2-.5-.1 0-.3.1-.4 0l-.3-1.6c0-.3-.2-.4-.3-.6-.1-.1.2-.3.1-.5 0-.2 0-.3-.2-.1-.1-.3-.3-.5 0-.7.3-.3-.2-.5-.1-.7h-.2s0 .2-.1 0c0 0-.1-.1 0-.2.3-.1.2-.5.1-.5-.3-.1-.2-.3-.1-.5 0-.2 0-.4-.2-.6-.2-.1-.3-.3 0-.5v-.2c-.3 0-.2-.3-.3-.4-.1-.3 0-.3.1-.4v-.4c-.3-.2-.3-.3-.1-.5v-.4c-.1-.2-.2-.3-.1-.4.1-.3 0-.6-.2-.9 0 0-.1-.1 0-.2.4-.3 0-.5-.2-.7.2-.1.1-.5.4-.5.4 0 .8-.4 1.3-.2l.4-.1c.1-.1.3-.2.4-.1.8 0 1.6 0 2.3.2.4 0 .5 0 .6-.4 0-.4 0-.7-.2-1-.1-.5-.4-.6-.8-.6l-1.4.2-3 .4c.2-.3-.2-.6.1-.9-.2-.6 0-1.1 0-1.7 0-.1 0-.3-.2-.4-.1-.2 0-.5 0-.8 0-.2.3-.2.5-.2l4.6-1h1.1v1.7c.1.5 0 1 0 1.6l.1 4 .5 5c.1 2.2.4 4.3.7 6.5 0 .3.1.4.6.5.2 0 .4 0 .5.3l2.6 4.4c1.6 2.5 3.2 4.9 5 7.2 1 1.2 2 2.4 2.8 3.7l.5.8.4.2c.6-.2 1.2-.3 1.5-1 .5 0 .5 0 .4-.6 0-.4-.3-.6-.5-.8-.4.2-.5-.2-.6-.3-.1-.3-.3-.3-.5-.5.1 0 .2 0 0-.2 0 0 0-.1 0 0h-.1.1-.1v.1c-.3 0-.3-.1-.4-.3-.7-.7-1-1.6-1.7-2.3-.4-.5-.8-1-1-1.5-.1-.1-.2-.3-.4-.2l-.2-.1c0-.5-.3-.6-.4-1 .2-.2.1-.4-.2-.6l-.2-.3c0-.1 0-.3-.2-.4-.1-.3-.3-.6-.6-.8-.2-.7-.7-1-1.1-1.4l-.5-.5c-.8-2-2.2-3.5-3-5.5h-.1c-.4-.5-.4-1-.4-1.6v-1c-.1-1-.1-1.9-.3-2.8-.3.2-.5.2-.6-.1l.3-.2c.2 0 .2 0 .3-.2.2-.2 0-.4 0-.6l.2-.1a56.5 56.5 0 0 1-.2-1.5c-.3 0-.1-.4 0-.4.3-.4.2-.8.1-1.2V175v-.9a4 4 0 0 1-.2-1.3v-.9-1.5l.1-1.6c.1-1-.3-1-1-1h-.9l.6-1.5.2-.4c.4-.3.8-.7 1-1.2.3-.3.5-.4.9-.4 1 .2 2 .2 3.1 0 2.3-.4 4.3-1.4 6.1-2.8 1.6-1.3 3-2.7 4.1-4.3 1.2-1.5 2.1-3.2 3.2-4.7l.6-1c0-.6.5-1 .6-1.5.2-.6.7-1 .9-1.7 0-.2 0-.5.2-.7l.6-1.4.8-2.3.7-2.6.4-2.1.6-5.1v-2c.1-1.5.3-3 .3-4.6l.2-3 .2-2.7c0-1 0-2.2.2-3.3l.9-5.4c.2-1 .5-1.9 1-2.8.6.9 1 1.9 1.4 2.8a123.5 123.5 0 0 1 4.4 21.7c.2 1.4.3 2.7.6 4 .8 3.9 1.8 7.7 3.2 11.3.7 1.7 1.4 3.4 2.4 5a11 11 0 0 0 3.1 3.5c.5.3 1 .7 1 1.3 0 .1 0 .3.2.4a10 10 0 0 0 3.5 3.7l.5.2c.5 0 .5 0 .6.6 0 .7 0 1.6.4 2.3.1.4.4.7 0 1v.2l-.4 1.8c0 1 0 2-.2 2.9-.4 2.2-.6 4.5-.8 6.7l-.7 6.7c0 .6 0 1.2-.3 1.8-.1.1-.1.4.2.5l.6.3c.3.2.3.3 0 .5l-1 1.3c-3.3 3.9-6.5 8-9.9 11.8-.2.3-.5.6-.9.7-.2 0-.3.3-.2.5.2.8 1.2 1.1 1.9.7l1.2-1 1.9-1.8c1.4-1.7 3-3.3 4.3-5.2l1-1.3 2-2.6 1-1.6 2-2.6c.2-.2.1-.3 0-.3-.4-.1-.7-.4-1-.3-.4 0-.4-.2-.3-.4.2-.4.1-.9.2-1.3.2-.7.1-1.4.2-2 .2-.8 0-1.6.1-2.4l.1-2 .4-2v-.3c0-.4 0-.9.2-1.3.2-1.2.3-2.5.3-3.8V168h1.6l3.1-.1c.2 0 .5 0 .5.2s-.1.4.2.4c.3 0 .4.2.3.4v.1l-.1 1.6-.2 1.5-3-.1h-1.1c-.7 0-.7 0-.8.7v.1c0 .8.1 1 .8 1 .5 0 1-.2 1.3 0 .3.2.6.1.8 0l1.8.1v.8l-.5 4.2-.4 5.3a76.3 76.3 0 0 1-1 7.2c.5.3 1 .8 1.6.4l.7-.1c0-.3 0-.6.3-.9v-.2l.5-2.8v-.3c-.3-.2-.2-.3 0-.5.2 0 .2-.1.2-.2 0-.4.3-.8 0-1.1-.1 0 0-.2 0-.2.2-.2.1-.5.2-.8.2-.5.2-1 .2-1.5v-.1l-.1-.1.2-.7.1-1c0-.3.3-.4.2-.6-.3-.4.2-.9 0-1.3.3-.6.1-1.3.4-2 .2-.4.1-1 .2-1.4 0-.6 0-1.2.2-1.8l.3-2.8c0-1.2.4-2.3 0-3.5v-.2c.3-.3.1-.5-.1-.6-.5-.2-.6-.5-.5-.9 0-.1.1-.3 0-.4h-.7c0-.6 0-.6.5-.8 1.4-.7 2-1.9 2.5-3.2 0-.4.2-1-.4-1.2l1-.6c3.2-2 5.1-4.8 6.3-8.3.8-2 1.1-4.3 1.2-6.5v-2.8-.6-.3zm-64.4 62.9zm8.2-2.1zm-4.8-6.7zm19.8-121.7l.2-1 .5-4.8.6-3.6.5-3.5 1.3-6.6 1-5.1c.4-1.2.6-2.5.9-3.7a78.1 78.1 0 0 1 1.1-5.7c0-.5.2-.9.3-1.3l.4-1.8c.3-1 .3-2.1.6-3.2l.6-3.5.5-2.2.6-3 .7-4.1.8-3.3.3-1.8s0-.4.3-.1c0 0 .1-.1 0-.2-.2-.5.1-1 .2-1.6v-.2l.8-3c.1-.3.1-.7.5-.9.1 0 .1-.2 0-.4V9l.1.2.2-.3c.2-.3.1-.7 0-1.1v-.3l.2-.1.2.3V6.6c-.1-.3.2-.3.2-.5v-.6h.6l.1 4.1v5.7l-.5 6-.4 4.9a202.7 202.7 0 0 1-.7 6.4l-.6 4.4-.6 5.4-.8 4.7-1.3 8.2c-.4 1.8-.5 3.5-.8 5.3l-.7 4-.8 4.7-1 6-1 6.3-1.4 6.1c0 .4-.1.9-.3 1.3l-.2-.8-1-4.4-1.3-5a328.3 328.3 0 0 0-1-4.9zm-20.4-60.8l-.1-.2v-.2l.1.2v.2zm-6 147.8v.4c-.1.4-.2.6-.6.5h-.3c-.2 0-.5.1-.7.4l.6.7h.1v.1c0 .2-.1.2-.2.2l-.2.2c.2.3 0 .4-.1.6-.3.4-.6.8-1 1-.6.2-.7.4-.5 1v.3c-.2.3-.1.6-.2 1-.2.5-.5.7-1 .7l-3.6.7c-.2-.1 0-.3 0-.4 0-.2 0-.3.3-.4 1 0 1.5-.3 2.3-.9-.4-.3-.9-.1-1.3-.1-.2 0-.4.2-.5-.2-.6 0-.8-.5-1-.9-.2 0-.3.2-.4.3-.4.4-.8.3-1-.1a5 5 0 0 1-.6-4.3c.1-.4.3-.4.6-.2l.3.1c.3.1.5.1.7-.1.4-.4.4-.4.9-.2.3.2.6.3 1 .3l.6.1-.2.5-.6 1.4c-.1.6 0 1.1.4 1.5 0 .2.2.3.3.4.2.2.4.4.8.5.3 0 .5-.2.7-.4.3-.2.7-.3.8-.7v-.4c0-.4 0-.5-.5-.3a9 9 0 0 1-.4.3h-.3c.1-.7.4-1.2.8-1.8l.9-.9c.2-.2.5-.4 1-.3.2.1.4 0 .5-.2l.5-.4c-.6-.5-1.3-.9-2-1.2-.3-.2-.6-.2-.8.2-.3.3-.6.3-1 .4h-1.9c-.4-.1-.5-.2-.4-.7.1-.4.4-.7.8-1 .7-.4 1.5-.6 2.3-.5l.4.2c.3.3.7.3 1 .2l1-.2c.7 0 1.2.2 1.7.4.2.1.2.3.2.5a5 5 0 0 1-.2 1.7zm-9.4-5.6h.3c.4.3.7.2 1.1 0 0-.1.2-.2.4-.1 0 .3-.3.6-.5.8l-.5 1c-.1.4-.8.7-1 .6-.2 0-.3-.2-.4-.3-.2-.6 0-1.6.6-2zm-1.5-.9c-.5.1-.8-.2-.7-.6.1-.7.5-1 1-.9h.3c.2 0 .6-.1.7.2.1.3-.2.5-.3.7-.3.3-.6.6-1 .6zm5.5 2.3c0 .1 0 .2-.2.3l-1.2.2c.4-1 1-1.7 1.9-2l-.1.3c-.3.4-.6.7-.4 1.2zm1.3.4c.4-.6.7-1.1 1.4-1.2.2 0 .3 0 .3.3-.1 1-.7 1.3-1.7.9zm5.5.3a5.9 5.9 0 0 0-3-2.2c-.3 0-.6-.2-.8-.3l-.3-.1c-.6 0-1-.3-1.5-.6-.3-.2-.6-.4-1-.4-.5 0-.9.1-1.2.4-.2.2-.3.2-.5 0-.4-.2-.8-.4-1.3-.3-.3 0-.5-.2-.5-.5v-.6c0-.3-.2-.7-.5-.8-.5-.2-.5-.7-.4-1 .2-.7 0-1.3 0-1.9-.1-1.2 0-2.4.2-3.7l.2-1.1c.2-1.2.7-2.4 1.3-3.5.4-.8.7-1.7 1.2-2.4l1.6-2.4.7-1c.4-.7 1-1.2 1.5-1.9l.4-.2c.4 0 .7-.2 1-.5.6-.4 1.3-.7 2-.9 1.5-.4 3-.6 4.6-.4h.4c1.3.9 2.4 1.9 3.1 3.3 1.3 2.5 2 5 2.4 7.8.2 1.9 0 3.7-.3 5.5-.1.6-.5 1.1-.7 1.7-.7 1.2-1.5 2.2-2.4 3.3-1 1.2-2.3 2.2-3.5 3.2a1 1 0 0 1-.5.3c-.5 0-.9.4-1.3.6-.1 0-.1.1 0 .2.2.4 0 .7-.3.9l-.2.1c-.2-.1-.2-.4-.4-.6zm22.4-48.1l-.5 1.3c-1 1.9-1.6 4-2 6-.3 1-.4 2-.4 3.1l-.3 5.5v3.4l-.4 5c-.3 2-.4 4-.9 6a33 33 0 0 1-2.9 8.3 45.4 45.4 0 0 1-6.1 9.4 12 12 0 0 1-6.5 4l-1.6.4c-.2 0-.3 0-.3-.2.2-.8.2-1.5.1-2.2 0-.2 0-.4.3-.4.6 0 1-.3 1.4-.6l2.6-1.9.3-.1c1-.5 1.7-1.2 2.5-2l1.4-1.4c.3-.3.6-.7.7-1.1 0-.3.3-.4.4-.6a13 13 0 0 0 1.8-3.9l.2-.6a8 8 0 0 0 .5-2.5l.3-2.5c.1-1.2 0-2.4-.1-3.6l-.6-3c-.7-2-1.6-4-3.3-5.3a7.6 7.6 0 0 0-5.8-1.7c-.8.1-1.7.2-2.4.5-.3 0-.4 0-.6-.2-.6-.5-1-.5-1.8 0a27.8 27.8 0 0 0-10.6 12.2 14.3 14.3 0 0 0-.8 10l.5.6c.1.2.4.2.4.6h-1c-.6.2-1.3.8-1.2 1.7 0 1 .5 1.8 1.4 2.2.3.2.4.3.4.6l.1 1.2c.4 1 1.1 1.4 2.2 1.3v1.3a9 9 0 0 1-2.2-1.5 6.9 6.9 0 0 1-1.6-2.2c-.2-.5-.4-1-.9-1.3l-.2-.3c-.8-2-1-4-1.2-6-.1-3.6 1-6.9 2.6-10a27.6 27.6 0 0 1 7.9-9.5 13.7 13.7 0 0 1 15-1.2l1.8 1c.7.5 1.5.8 2.4 1l.5.4.4.2c.7 0 .8-.1 1-.8s0-1.4 0-2a41 41 0 0 1 .2-17.8c.2-1.6.6-3.2 1.1-4.7l.5-1.7.3.6.7 1.7v.4c0 .8.5 1.3 1.3 1.1 1.2-.2 2.3.2 3.4.7-.3.3-.4.7-.4 1zm32.8 53.7a5.1 5.1 0 0 1-4 2.2c-.6 0-1.1.2-1.5.8l1.2.3c.6 0 1.2 0 1.8-.2h.2c.1 0 .2 0 .2.2l-.2.1h-2l-2.6.2c-.3 0-.5-.1-.5-.4-.2-.8-.5-1.7-.4-2.6 0-.4 0-.5-.4-.4-.3 0-.5 0-.8-.2a9.2 9.2 0 0 1-3.2-3.8 1 1 0 0 1 0-1c.2-.2.3-.5 0-.6-.2 0-.2-.3-.2-.4.2-1.4 1.2-2.5 2.9-2.2.5 0 1 .2 1.5.4.3.2.4.3.2.7a1 1 0 0 1-.5.4l-1.3.6-.4.3-.2.7s.1.2.2.1c.6 0 1 .4 1.4.8.5.6 1 1.1 1.3 2 .1.3.2.6 0 1l-.1.6c-.1.4 0 .5.4.5l.5-.1c.5-.3 1-.4 1.4-1 .1-.2.4 0 .6 0 1 .2 2 .1 3 0l1.6-.5c.1 0 .3-.1.4 0 0 .5-.2 1-.5 1.5zm-16-25.5c-.2-.7.1-1.3.4-2 .5-1.3 1-2.6 1.8-3.8.8-1.3 1.7-2.4 3-3.4s2.7-1.1 4.3-.8c1 .2 2 .6 2.7 1.3.8.6 1.7 1.2 2.3 2l.6 1c.2.2.4.5.8.6l.3.4 1 1.7a15 15 0 0 1 1.8 5.5l.5 3v1a17 17 0 0 1-1.5 5.8c-.3.5-.3.5-.8.2-1.2-.6-2.3-.2-2.9.7l-.2.3c-.1.3-.3.3-.5.2-.4-.2-.8-.2-1.3-.2-.4 0-.8.1-1.1.5-.2.2-.3.2-.5.1-.4-.2-.9-.1-1.3 0-.2.2-.4.1-.6 0a2.3 2.3 0 0 0-3.4.5c-.4.6-.4.6-.9 0-.8-.8-1.5-1.7-2-2.8-.6-1.2-1.2-2.4-1.6-3.6-.6-1.6-.9-3.3-1.2-5l-.1-1.8.1-.5c.2-.2.3-.5.2-.9zm16.3 15c-.2.2 0 .4-.3.5-.5-.5-.7-1.4-.5-2 .1-.2.2-.2.4 0 .4.2.4.6.5 1 .1.2 0 .4-.1.5zm-5.8 1c0-.2-.2-.3-.1-.5.2 0 .3.2.4.3l1 .9c.5.4 1 .9 1.2 1.6v.3c-.2.1-.4 0-.4 0 0-.3-.2-.4-.3-.5-.2-.2-.5-.3-.8-.2-.6.2-.8.1-1.1-.4l-.4-.4c.7-.4.7-.4.5-1.1zm2-.6v-.1c-.1-.2-.4-.5-.2-.7.1-.2.4 0 .6.1.4.2.9.3 1 .7 0 .2.3.2.4.2.4.2.6.5.5 1-.1.2-.2.6-.5.9-.5-.8-1-1.5-1.7-2zm-3.6 1.1l-1.5-.3c-.6-.1-.7-.3-.7-.9.1-.5.3-.7.8-.4.5.4 1 .7 1.4 1.2 0 .1.1.2 0 .4zm15.6-10.6c-.2 2.2-.4 4.5-1 6.6-.7 2.2-1.7 4-3.2 5.7-1 1.2-2.5 2-4 2.7-1 .4-2.1.7-3.2.9-.7 0-1.4.3-2 .6-.2.1-.4.3-.5 0-.5-.9-1.2-1.6-1.7-2.4v-.1c.4-.4 1-.6 1.5-1l.2.1.9.7c.8.8 1.3.6 2.2.2l.8-.4.4-.5c.2-.3 0-.4 0-.6s-.2-.4 0-.5c.3-.2.5-.4.8-.4l.5-.2c.2 0 .3-.2.2-.4 0-.2 0-.4.2-.5l.7-.7c.1-.3.5-.4.7-.5.3-.2.6-.4.5-.8l.1-.3c1-.6 1.3-1.6 1.8-2.6.4-1 .5-2 .6-3l.2-1c.2-1 0-2 0-2.9l-.8-3.9a23.7 23.7 0 0 0-5.9-10.6 10 10 0 0 0-5.4-2.4c-.9-.1-1.8-.2-2.7 0-1.6 0-3 .7-4.1 2-.8.8-1.5 1.6-2 2.6-.1.4-.5.6-.7 1-.6 1-1 2.2-1.4 3.3-.2.9-.7 1.7-.7 2.6l-.2 1.6a20.6 20.6 0 0 0 2.1 10.2c.6 1.2 1.3 2.5 2.1 3.6.6.8 1.3 1.4 2.2 1.9a6 6 0 0 0-2.2 2.4 3 3 0 0 1-.8-.9l-1.5-2.3c-.8-1.2-1.3-2.4-1.9-3.7a43.5 43.5 0 0 1-3.3-11.5c-.3-1.6-.4-3.3-.6-5l-.4-3.1-.3-1.5-.2-1.7c0-.5 0-1-.3-1.4-.2-.3-.1-.8-.2-1.2l-.3-2.1c0-.5-.2-1-.3-1.3 0-.7-.2-1.3-.3-2l-1-3.3c-.1-.6-.1-1.3-.7-1.8-.2-.2.1-.4 0-.7-.3-.4-.4-1-.6-1.4-.2-.7-.8-1.2-.9-2 0-.3-.3-.6-.5-.7-.4-.4-.5-1-1-1.3-.1-.1-.2-.3-.4-.3-.5-.1-.9-.4-1-.9-.1-.2-.2-.3-.5-.4l-.5-.2-1.4-.5-1.2-.3c-.3-.2-.6-.2-.8-.2-.4 0-.5-.1-.6-.4-.5-1.4-1-2.7-1.3-4.1l-1-3.2-1-4.1-1-3.8c-.3-1.3-.8-2.7-1-4l-1-4.5c-.2-1.4-.6-2.7-1-4.1 0-1-.4-1.8-.5-2.7l-.5-2.1-.6-3.1c-.2-.9-.2-1.8-.6-2.6 0-1-.3-2-.5-2.9l-.1-1-.7-4.1v-.6c0-.5-.4-1-.3-1.4v-1L923 54l-.6-4-.4-2.7v-.7l-.2-2.3-.3-2.5-.1-1.2-.3-2.7-.1-1.8c-.2-1-.1-2-.3-3.1l-.1-2.3c0-.5.1-1-.2-1.4v-.3-1.3-1.5-1.4c-.1-.3-.2-.6-.1-1 0-.3-.3-.5-.3-.8l.1-.4h.1V21l-.1-1.3c0-.3-.1-.5 0-.8.2-.3 0-.6 0-1 0-1.2 0-2.5-.2-3.7v-2.5h-.2l.2-.1V9.9v-1-2-.2-.3c.2 0 .3.1.3.2l1 2.4 1.6 5.2 1.5 5.3 1.1 4.4 1 4.2 1.7 7c.5 1.7 1 3.5 1.3 5.4l2 8.4 2 8.8 1.8 7.6 2.2 9 .7 2.9 1.3 5.3 2.3 10 2 8.6c.7 3 1.4 6 2.3 9l2.1 7.9 1 4.6a56.4 56.4 0 0 0 1.6 5.6c.1.6.1.6.7.7 0 .3-.2.6-.4.8-.3.4-.4.8 0 1.2v.6c0 .3.1.6.4.6.3 0 .3.3.4.5l.3-.5c.6-.1.5-.8.7-1.2.2-.1.2-.4.2-.6a9 9 0 0 1 1-3.3l1-1.7c.7-1 1.6-1.7 2.5-2.3l1.7-1a6 6 0 0 1 2.1-.5c1.8-.2 3.6-.2 5.4.3 1 .2 2 .7 2.8 1.2 3.3 1.7 5.6 4.3 7 7.7 1.3 2.9 2 6 2.3 9.1v3.6zM967.6 193c-.2-.1-.4-.3-.6-.2-.3.1-.7.1-.9.4-.3.5-.7 1-1.2 1.3l-.5.5c0 .4-.3.6-.6.9l-7.7 9-4 4.7-2.4 2.5c-.3.3-.8.5-1.1.9-.5.5-.4 1 .3 1.3l2.3.6c.3.1.4 0 .6-.1l1.1-1.6.5-.6.2-.4h.2c.3-.2.4-.3.3-.6l.2-.2c.3 0 .2-.4.4-.5l.3-.2s.2 0 0-.1c-.2 0-.3-.1 0-.2.2 0 .5 0 .5-.4.2-.2.3-.3.3-.5v-.3-.1c0-.1 0-.2.2-.2 0-.1 0-.3.3-.3.4 0 .6 0 .7-.4l.5-.1c0-.3-.5 0-.5-.4.2 0 .2-.5.5-.4.3.1.3-.3.5-.3v-.1c.5-.3.8-1 1.3-1.2.1 0 .2-.1.1-.3l.1-.2c.5-.2.7-.8 1-1.1l1.4-1.7c1-1 1.7-2 2.6-3a15 15 0 0 0 2.3-3.1l1.4-2c.3-.3.2-.5 0-.9l-.6-.4zm-9.3 14h-.1v.2h.2v-.1c0-.1 0 0-.1 0zm-19-109.4l.6.3c.4.2.4.5 0 .8-.2.3-.6.5-.9.7-1.2.6-2.3.6-3.5 0-.5-.3-.8-.7-1-1.2l-.9-1.8c-.8-1.8-.5-2.8.8-4.1.7-.8 1.7-1 2.7-.7 1.4.2 2.4 1 3 2.3l.7 1.5.1.6c0 .5 0 .9-.6 1l-1 .4c-.7-.2-.8-.4-.6-1 0-.1.1-.3 0-.4 0-.2 0-.3-.2-.2l-2.2.5c-.2 0-.2.1-.2.3.2.6.5 1.1 1 1.5.3.3.6.5 1 .3v-.1c-.1-.5 0-.6.4-.7h.8zm-1.2-3.1c-.4-.8-.9-1.4-1.6-1.8-.1-.1-.3-.2-.5 0-.4.3-.7 1.5-.5 1.8.1.2.2.3.4.2l2.2-.2zm.8-9c-1.4-.2-2.6.2-3.8.5l-2.3.6c-.3 0-.7-.2-1 .1h-.1l-1-.9c-.3-.2-.2-.4.1-.5.2-.1.5-.1.5-.5 0-.2.1-.1.2-.2 2-.2 3.7-.9 5.6-1.1.8 0 .9 0 1.3.7l.5 1.2z"/><path fill="#F6F6F6" d="M939.3 97.7h-.8c-.4 0-.5.1-.4.6v.2c-.4.1-.7 0-1-.3-.5-.4-.8-1-1-1.5 0-.2 0-.3.2-.4l2.2-.5c.2 0 .3 0 .3.3v.4c-.3.6-.2.8.5 1v.2z"/><path fill="#050504" d="M920.4 22.6v.1h-.1v-.1z"/><path fill="#B8B8B8" d="M950.5 20.4l-.1.1v-.1-.1s.1 0 0 0z"/><path fill="#F6F6F6" d="M938 94.6l-2.1.3c-.2 0-.3 0-.4-.2-.2-.4 0-1.6.5-1.9h.5c.7.4 1.2 1 1.6 1.8z"/></g></svg>