<svg xmlns="http://www.w3.org/2000/svg" width="460" height="376.3" viewBox="0 0 460 376.3"><path stroke="#DADADA" stroke-miterlimit="10" d="M75.6 23.7v339.7m75.5-339.7v339.7m75.5-339.7v339.7M302 23.7v339.7m75.5-339.7v339.7M37.8 23.7v339.7m75.5-339.7v339.7m75.5-339.7v339.7m75.5-339.7v339.7m75.4-339.7v339.7m75.5-339.7v339.7" fill="none"/><path fill="#808080" d="M71.95 10.31l2.25-2.14c1.36-1.3 2.16-2.26 2.16-3.46 0-1.08-.69-1.53-1.92-1.53-.93 0-1.71.25-2.31.51V1.96c.72-.36 1.63-.64 2.97-.64 2.29 0 3.67 1.08 3.67 3.09 0 1.81-1 2.91-2.67 4.42l-1.4 1.26v.04h4.26v1.75h-7.02v-1.57zM151.59 9.32h-4.77V7.76l4.94-6.28h2.07v6.16h1.77v1.68h-1.77v2.56h-2.23V9.32zm.03-1.68V4.12h-.06l-2.68 3.48v.04h2.74zM222.49 7.36v-.62c0-3.95 2.26-5.43 5.04-5.43 1.14 0 1.96.15 2.46.39v1.65c-.42-.12-1.21-.24-1.96-.24-1.77 0-3.02.46-3.15 2.86.54-.34 1.4-.67 2.49-.67 2 0 3.27 1.08 3.27 3.17 0 2.03-1.26 3.6-3.88 3.6-2.72 0-4.27-1.74-4.27-4.71zm5.85 1.26c0-1.47-.71-1.74-1.71-1.74-.73 0-1.33.22-1.75.48v.29c0 1.79.54 2.83 1.83 2.83 1.07 0 1.63-.66 1.63-1.86zM297.79 9.31c0-1.18.9-2.13 2.06-2.62-1.08-.54-1.77-1.26-1.77-2.52 0-1.71 1.47-2.85 3.78-2.85 2.34 0 3.69 1.02 3.69 2.68 0 1.08-.71 1.92-1.81 2.45 1.29.52 2.22 1.18 2.22 2.59 0 1.83-1.51 3.03-4.11 3.03-2.69 0-4.06-1.11-4.06-2.76zm5.85-.15c0-.89-.71-1.26-2.4-1.77-.74.39-1.32.93-1.32 1.71 0 .87.71 1.37 1.88 1.37 1.14-.01 1.84-.52 1.84-1.31zm-.21-5.04c0-.67-.49-1.19-1.56-1.19-.98 0-1.54.44-1.54 1.14 0 .78.65 1.14 1.91 1.6.73-.38 1.19-.8 1.19-1.55z" enable-background="new"/><g enable-background="new" fill="#808080"><path d="M371.98 3.79l-1.76.17V2.59l2.85-1.15h1.2v10.45h-2.29v-8.1zM375.93 7.01v-.54c0-3.79 2.16-5.16 4.5-5.16 2.43 0 4.44 1.39 4.44 5.07v.54c0 3.75-2.07 5.14-4.47 5.14-2.49.01-4.47-1.42-4.47-5.05zm6.54.11V6.4c0-2.4-.63-3.39-2.04-3.39-1.42 0-2.08.93-2.08 3.3v.71c0 2.33.63 3.36 2.07 3.36 1.43-.01 2.05-.86 2.05-3.26z"/></g><g enable-background="new" fill="#808080"><path d="M30.26 3.79l-1.76.16V2.59l2.85-1.15h1.2v10.45h-2.29v-8.1zM34.08 4.4v-.2c0-1.81 1.11-2.89 2.67-2.89s2.67 1.02 2.67 2.8v.21c0 1.81-1.1 2.89-2.67 2.89-1.59.01-2.67-.99-2.67-2.81zm3.63.03v-.31c0-1.12-.31-1.59-.96-1.59s-.96.45-.96 1.57v.32c0 1.16.3 1.59.96 1.59.66 0 .96-.42.96-1.58zm5.34-3.24h1.56l-7.03 11.29h-1.56l7.03-11.29zm-1.68 8.03v-.2c0-1.81 1.1-2.89 2.67-2.89 1.56 0 2.65 1 2.65 2.8v.21c0 1.8-1.08 2.9-2.65 2.9-1.59 0-2.67-1.02-2.67-2.82zm3.63.03v-.32c0-1.12-.31-1.6-.96-1.6s-.96.46-.96 1.59v.3c0 1.16.3 1.6.96 1.6s.96-.43.96-1.57z"/></g><path fill="#808080" d="M109.57 11.41V9.76c.69.25 1.56.46 2.42.46 1.48 0 2.25-.41 2.25-1.44 0-1.04-.73-1.4-1.96-1.4h-1.06V5.71h.93c1.19 0 1.86-.41 1.86-1.33 0-.97-.67-1.23-1.81-1.23-.92 0-1.62.17-2.23.36V1.84c.75-.31 1.78-.52 2.94-.52 2.04 0 3.39.93 3.39 2.62 0 1.24-.72 2.05-1.86 2.41v.05c1.35.27 2.21 1.02 2.21 2.57 0 1.95-1.49 3.1-4 3.1-1.46 0-2.43-.3-3.08-.66zM184.9 11.41V9.77c.66.27 1.44.46 2.37.46 1.44 0 2.25-.48 2.25-1.65 0-1.2-.75-1.61-2.25-1.61-.79 0-1.4.09-1.95.24l.36-5.73h5.87V3.2h-4.19l-.17 2.21c.33-.08.65-.12 1.15-.12 2.31 0 3.58 1.02 3.58 3.3 0 2.13-1.48 3.46-4.03 3.46-1.4.02-2.33-.28-2.99-.64zM265.16 3.37v-.06h-4.89V1.49h7.19v1.63l-3.87 8.76h-2.53l4.1-8.51zM336 11.65V9.98c.42.14 1.3.3 2.05.3 2.04 0 3.06-.58 3.13-2.87-.52.34-1.38.67-2.46.67-2 0-3.3-1.06-3.3-3.19 0-1.98 1.25-3.58 3.9-3.58 2.62 0 4.26 1.6 4.26 4.71v.62c0 3.96-2.03 5.43-5 5.43-1.16 0-2.07-.15-2.58-.42zm5.21-5.61v-.3c0-1.86-.62-2.82-1.83-2.82-1.11 0-1.65.66-1.65 1.84 0 1.49.72 1.75 1.72 1.75.74.01 1.34-.22 1.76-.47z" enable-background="new"/><g enable-background="new" fill="#808080"><path d="M411.93 3.79l-1.75.17V2.59l2.85-1.15h1.2v10.45h-2.29v-8.1zM417.36 3.79l-1.75.17V2.59l2.85-1.15h1.2v10.45h-2.29v-8.1z"/></g><path fill="#202020" d="M2.4 61.7c1.4.3 3.7.3 5.9.3-1.7-.2-3.5-.3-5.9-.3zm6 .3s-.1 0 0 0c-.1 0 0 0 0 0zm429-10.8h-1.8c.6.1 1.2.1 1.8 0zM115.5 62.7l.3-.4c5.2 0 1.5.5 6.4.4 1.9-.6 8.1.1 9.7-.2 0 0 2.3.1 2.2.2.7-.3 2.4-.1 3.9-.1.5-.1-.4-.1-.8-.2l3.4-.1c1.3.1 1.7.3.2.3 9 .1 52 .4 61.7.3-1.2-.2-4.2-.1-5.4-.4 2.6-.2 3.8.1 4.9-.1 1 .5 5.6.1 7.5.7l.7-.3 1.3.2c11.2-.3 2.6-.2 12.5-.1 5.8 0 8.5-.5 11.7-.3-.5 0-1.7-.2-.3-.3.3.3 4-.2 4.7.1 1.5 0 6.2 0 4.6-.4.8.2 5 .3 2.5.4 1.4 0 2.8.1 3.8 0l-1.8-.1c4.8-.1 7.4.2 10.6-.1l-1.8-.1c2.9 0 5.3-.1 6.4.3l-3 .1c4.8 0 7.7 0 11.6-.2h-1.4c5.1-.4 31.6-.7 36.3-1.1l-2.2-.3 4-.2c-.5 0-1.9.9-2.3.8 8.6 0 53.4-.2 61.3-.1 3.2.2.6.4.5.5 3.9-.1 1.7-.3 5-.3.9.1-.2.2-.7.3 1.5 0 2.8.1 2.9-.1-1.8-.1-1-.5-1.8-.7h4.3l-.2.2c1 0 2.4-.6 6.6-.5 7.1.1 14.8 0 21.9.1-.1.1-1.6.2-3.1.3 1 0 2.4 0 3.3.1-1.7-.2 3-.2 1.6-.3 5.2-.5 12 0 16.6-.4.4-.5 9.8-8.4 9.8-9 1.4 0 2.8 0 3.3.1-.4-.1-3.2-.2-4.7-.1l-.3.3c-3.4.1-.8-.2-4.2-.2-.2-.3 2.9-.3 5.6-.3-2.4 0-4.9-.2-5.9.1-2.3-.1.3-.3-2.5-.4-2 .1-4.6.3-6.8.2-5.5-.3-8.4.4-13.5.1l.5-.1c-1.8-.1-5.3.1-8.5-.1.9.1 1.7.2-.2.3-3.7-.2-6.2 0-8.9-.2l-2.6.2c-12.8 0-63.6.3-76.5.3h.5c-19.7.1-60 .1-80.3.4-3.1-.2-7.5-.2-10.7-.3 1.8.1 1.2.3-.2.3-10 0-.7.2-10.8.3-11.6.2-56.1 0-66.4-.2-5.5.4-12.5.1-17.9.3l.5-.1c-5.8.1-38.9-.2-45.6-.1l.9.1c-5.9.2-5.1-.2-9.8-.3.6.4-4.5.6-6.4.7l.1-.1c-2.9.1-9.5.4-14.3.5l.2-.2c-3.5 0-11-.1-13.9-.1-6.6-.1-16.8-.5-25.6-.2l-5.7-.6H4s-9.2 7.6 2.5 9.3l-.2.2h2.3c2.8.1 4-.1 3.9.1H8.7c2.8.1.8.2-.2.3 1.2 0 2.3 0 3.2.1.5-.1-.4-.1-.8-.1 1.5-.1 3.6-.3 5.4-.2 2.8 0 .2.4 3.5.4 17.5.2 34.4.4 52.1.4.4.1-.1.1-.6.1 5.3-.1 10.1-.1 14.9-.2 1.3.1 1.7.2 2.1.3-.4-.1 6.3-.1 13.1-.2h14.1z"/><g enable-background="new" fill="#808080"><path d="M.94 41.65v-.3c0-3.97 2.35-5.31 4.95-5.31 1.29 0 2.12.3 2.73.63v1.17c-.63-.29-1.42-.63-2.83-.63-2.55 0-3.37 1.89-3.37 3.93v.48c0 2.29.66 4.02 3.4 4.02.69 0 1.4-.12 1.84-.29v-2.7H5.5v-1.14h3.52v4.68c-.79.31-1.91.6-3.25.6-2.91 0-4.83-1.54-4.83-5.14zM10.81 38.92h1.26v.85h.07c.44-.51 1.26-.95 2.08-.95.19 0 .41.03.48.06v1.17c-.19-.03-.45-.04-.58-.04-.72 0-1.46.24-1.99.6v6h-1.32v-7.69zM15.4 42.88v-.23c0-2.68 1.6-3.88 3.39-3.88 2.11 0 3.12 1.21 3.12 3.63v.75h-5.14c.09 1.83.99 2.47 2.52 2.47 1.04 0 1.7-.22 2.4-.58v.98c-.46.34-1.33.75-2.61.75-2.44-.01-3.68-1.51-3.68-3.89zm1.36-.8h3.75c0-1.62-.61-2.25-1.78-2.25-.86 0-1.85.48-1.97 2.25zM22.84 42.88v-.23c0-2.68 1.6-3.88 3.39-3.88 2.11 0 3.12 1.21 3.12 3.63v.75H24.2c.09 1.83.99 2.47 2.52 2.47 1.04 0 1.7-.22 2.4-.58v.98c-.46.34-1.33.75-2.61.75-2.43-.01-3.67-1.51-3.67-3.89zm1.36-.8h3.75c0-1.62-.61-2.25-1.78-2.25-.86 0-1.85.48-1.97 2.25zM30.28 42.94v-.25c0-2.71 1.64-3.92 3.66-3.92 1 0 1.59.2 2.1.51v1.09c-.69-.28-1.17-.48-2.19-.48-1.36 0-2.2.93-2.2 2.59v.41c0 1.93.81 2.75 2.37 2.75 1.04 0 1.73-.35 2.12-.54v1.05c-.51.33-1.2.62-2.27.62-2.2-.01-3.59-1.25-3.59-3.83zM36.92 42.88v-.23c0-2.68 1.6-3.88 3.39-3.88 2.11 0 3.12 1.21 3.12 3.63v.75h-5.14c.09 1.83.99 2.47 2.52 2.47 1.04 0 1.7-.22 2.4-.58v.98c-.46.34-1.33.75-2.61.75-2.43-.01-3.68-1.51-3.68-3.89zm1.37-.8h3.75c0-1.62-.61-2.25-1.78-2.25-.86 0-1.85.48-1.97 2.25z"/></g><path fill="#202020" d="M1.1 98.7c.2.3.6.3 1 .3-.3-.2-.6-.3-1-.3zm71.6-10.5h-.3c.1.1.2.1.3 0zm-53 11.5l.1-.4c.9 0 .3.5 1.1.4.3-.6 1.3.1 1.6-.2 0 0 .4.1.4.2.1-.3.4-.1.6-.1.1-.1-.1-.1-.1-.2l.6-.1c.2.1.3.3 0 .3 1.5.1 8.6.4 10.2.2-.2-.2-.7-.1-.9-.4.4-.2.6.1.8-.1.2.5.9.1 1.2.7l.1-.3.2.2c1.9-.3.4-.2 2.1-.1.9 0 1.4-.5 1.9-.3-.1 0-.3-.2 0-.3 0 .3.7-.2.8.1.2 0 1 0 .8-.4.1.2.8.3.4.4.2 0 .5.1.6 0l-.3-.1c.8-.1 1.2.2 1.7-.1l-.3-.1c.5 0 .9-.1 1.1.3l-.5.1c.8 0 1.3 0 1.9-.2h-.2c.8-.4 5.2-.7 6-1.1l-.4-.3.7-.2c-.1 0-.3.9-.4.8 1.4 0 8.8-.2 10.1-.1.5.2.1.5.1.5.6-.1.3-.3.8-.3.1.1 0 .2-.1.3.2 0 .5.1.5-.1-.3-.1-.2-.5-.3-.7h.7v.2c.2 0 .4-.6 1.1-.5 1.2.1 2.4 0 3.6.1 0 .1-.3.2-.5.3.2 0 .4 0 .5.1-.3-.2.5-.2.3-.3.9-.5 2 0 2.7-.4.1-.5 1.6-8.4 1.6-9 .2 0 .5 0 .5.1-.1-.1-.5-.2-.8-.1v.3c-.6.1-.1-.2-.7-.2 0-.3.5-.3.9-.3-.4 0-.8-.2-1 .1-.4-.1 0-.3-.4-.4-.3.1-.8.3-1.1.2-.9-.3-1.4.4-2.2.1l.1-.1c-.3-.1-.9.1-1.4-.1.2.1.3.2 0 .3-.6-.2-1 0-1.5-.2l-.4.2c-2.1 0-10.5.3-12.6.3h.1c-3.2.1-9.9.1-13.2.4-.5-.2-1.2-.2-1.8-.3.3.1.2.3 0 .3-1.6 0-.1.2-1.8.3-1.9.2-9.2 0-10.9-.2-.9.4-2.1.1-2.9.3l.1-.1c-1 .1-6.4-.2-7.5-.1l.2.1c-1 .2-.8-.2-1.6-.3.1.4-.7.6-1.1.7v-.1c-.7-.1-1.8.3-2.6.3v-.2c-.6.3-1.9.2-2.4.2-1.1-.1-2.8-.5-4.2-.2l-.9-.6-.1.1s-1.5 7.6.4 9.3v.2h.4c.5.1.7-.1.6.1h-.6c.5.1.1.2 0 .3.2 0 .4 0 .5.1.1-.1-.1-.1-.1-.1.2-.1.6-.3.9-.2.5 0 0 .4.6.4 2.9.2 5.7.4 8.6.4.1.1 0 .1-.1.1.9-.1 1.7-.1 2.5-.2.2.1.3.2.3.3-.1-.1 1-.1 2.2-.2h1.6c.2-.1.5-.1.5-.1z"/><g enable-background="new" fill="#808080"><path d="M1.46 79.99v-6.78h1.37v6.69c0 2.17.9 2.82 2.56 2.82 1.65 0 2.44-.63 2.44-2.83v-6.67H9.1v6.73c0 2.69-1.26 3.86-3.76 3.86-2.48-.01-3.88-1.24-3.88-3.82zM10.61 83.11v-1.16c.81.41 1.83.68 2.91.68 1.51 0 2.19-.71 2.19-1.79 0-.99-.43-1.41-1.65-1.82l-1.08-.36c-1.4-.46-2.23-1.23-2.23-2.83 0-1.63 1.11-2.8 3.28-2.8 1.26 0 1.96.28 2.55.57v1.16c-.63-.29-1.46-.55-2.59-.55-1.19 0-1.88.55-1.88 1.51 0 .95.33 1.37 1.42 1.72l1.08.36c1.53.51 2.49 1.18 2.49 2.94 0 1.83-1.06 3.06-3.51 3.06-1.3 0-2.27-.3-2.98-.69z"/></g><path fill="#202020" d="M1.1 137.2c.2.2.6.3.9.3-.3-.2-.6-.3-.9-.3zm65.7-10.5h-.3c.1.1.2.1.3 0zm-48.7 11.5l.1-.4c.8 0 .2.5 1 .4.3-.6 1.2.1 1.5-.2 0 0 .4.1.3.2.1-.3.4-.1.6-.1.1-.1-.1-.1-.1-.2l.5-.1c.2.1.3.3 0 .3 1.4.1 7.9.4 9.3.3-.2-.2-.6-.1-.8-.4.4-.2.6.1.7-.1.1.5.8.1 1.1.7l.1-.3.2.2c1.7-.3.4-.2 1.9-.1.9 0 1.3-.5 1.8-.3-.1 0-.3-.2 0-.3 0 .3.6-.2.7.1.2 0 .9 0 .7-.4.1.2.8.3.4.4.2 0 .4.1.6 0l-.3-.1c.7-.1 1.1.2 1.6-.1l-.3-.1c.4 0 .8-.1 1 .3l-.4.1c.7 0 1.2 0 1.8-.2h-.2c.8-.4 4.8-.7 5.5-1.1l-.3-.3.6-.2c-.1 0-.3.9-.4.8 1.3 0 8.1-.2 9.3-.1.5.2.1.5.1.5.6-.1.3-.3.8-.3.1.1 0 .2-.1.3.2 0 .4.1.4-.1-.3-.1-.2-.5-.3-.7h.6v.2c.1 0 .4-.6 1-.5 1.1.1 2.2 0 3.3.1 0 .1-.2.2-.5.3.1 0 .4 0 .5.1-.3-.2.5-.2.2-.3.8-.5 1.8 0 2.5-.4.1-.5 1.5-8.4 1.5-9 .2 0 .4 0 .5.1-.1-.1-.5-.2-.7-.1v.3c-.5.1-.1-.2-.6-.2 0-.3.4-.3.8-.3-.4 0-.7-.2-.9.1-.3-.1 0-.3-.4-.4-.3.1-.7.3-1 .2-.8-.3-1.3.4-2 .1l.1-.1c-.3-.1-.8.1-1.3-.1.1.1.3.2 0 .3-.6-.2-.9 0-1.3-.2l-.4.2c-1.9 0-9.6.3-11.5.3h.1c-3 .1-9.1.1-12.1.4-.5-.2-1.1-.2-1.6-.3.3.1.2.3 0 .3-1.5 0-.1.2-1.6.3-1.8.2-8.5 0-10-.2-.8.4-1.9.1-2.7.3l.1-.1c-.9.1-5.9-.2-6.9-.1l.1.1c-.9.2-.8-.2-1.5-.3.1.4-.7.6-1 .7v-.1c-.4.1-1.4.4-2.2.5v-.2c-.6.2-1.7.1-2.2.2-1-.1-2.5-.5-3.9-.2l-.9-.6-.1.1s-1.4 7.6.4 9.3v.2h.3c.4.1.6-.1.6.1h-.6c.4.1.1.2 0 .3.2 0 .3 0 .5.1.1-.1-.1-.1-.1-.1.2-.1.5-.3.8-.2.4 0 0 .4.5.4 2.6.2 5.2.4 7.9.4.1.1 0 .1-.1.1.8-.1 1.5-.1 2.3-.2.2.1.3.2.3.3-.1-.1 1-.1 2-.2h1.4c.2-.4.4-.4.4-.4z"/><g enable-background="new" fill="#808080"><path d="M1.54 111.71h3.31c2.29 0 3.46 1.12 3.46 3.09 0 2.1-1.36 3.21-3.33 3.21H2.9v4.09H1.54v-10.39zm3.15 5.16c1.56 0 2.17-.63 2.17-1.96 0-1.46-.58-2.04-2.15-2.04H2.9v4h1.79zM8.99 118.41v-.26c0-2.41 1.41-3.9 3.52-3.9 2.21 0 3.51 1.44 3.51 3.85v.24c0 2.43-1.41 3.9-3.52 3.9-2.22.01-3.51-1.41-3.51-3.83zm5.67.09v-.42c0-2.08-.98-2.75-2.17-2.75-1.35 0-2.13.97-2.13 2.68v.42c0 2.08.97 2.73 2.17 2.73 1.34.01 2.13-.93 2.13-2.66zM17.44 114.41h1.26v.85h.07c.44-.51 1.26-.95 2.08-.95.2 0 .41.03.48.06v1.17c-.19-.03-.45-.04-.58-.04-.72 0-1.46.24-1.99.6v6h-1.32v-7.69zM23.06 120.3v-4.8h-1.1v-1.09h1.1v-1.83h1.32v1.83h1.94v1.09h-1.94v4.6c0 .74.24 1 1.11 1 .31 0 .67-.04.98-.12v.89c-.31.15-.63.31-1.32.31-1.23.01-2.09-.51-2.09-1.88zM27.74 119.99v-5.58h1.32v5.37c0 .95.31 1.33 1.43 1.33.79 0 1.44-.27 1.99-.55v-6.15h1.32v7.69h-1.12l-.14-.66h-.07c-.65.45-1.43.81-2.37.81-1.52 0-2.36-.78-2.36-2.26zM34.93 123.14c0-.83.65-1.38 1.44-1.65v-.08c-.45-.16-.78-.54-.78-1.06s.27-1.04.89-1.49c-.58-.39-.96-1.02-.96-1.92v-.15c0-1.62 1.23-2.54 2.94-2.54.39 0 .76.04 1.11.13h2.62v1h-1.31c.31.35.48.78.48 1.33v.15c0 1.67-1.31 2.47-2.92 2.47-.46 0-.9-.06-1.29-.18-.18.17-.31.41-.31.64 0 .42.23.66.72.66h2.12c1.41 0 2.44.53 2.44 2.03 0 1.41-1.08 2.58-3.71 2.58-2.34.03-3.48-.74-3.48-1.92zm5.8-.42c0-.69-.31-.98-1.31-.98h-2.17c-.52.18-.93.58-.93 1.2 0 .71.62 1.07 2.06 1.07 1.74 0 2.35-.51 2.35-1.29zm-.69-5.78v-.22c0-1-.63-1.46-1.6-1.46-1.02 0-1.6.53-1.6 1.42v.23c0 .97.63 1.44 1.6 1.44 1.02 0 1.6-.46 1.6-1.41zM42.74 120.06c0-1.33.87-2.05 2.32-2.23l2.04-.26v-.72c0-1.17-.51-1.46-1.89-1.46-.75 0-1.36.12-1.83.23v-.95c.69-.27 1.43-.42 2.35-.42 1.71 0 2.69.72 2.69 2.26v5.58h-1.06l-.14-.64h-.09c-.38.43-.99.79-2.01.79-1.37.01-2.38-.69-2.38-2.18zm4.37.65v-2.13l-1.7.18c-.87.09-1.3.43-1.3 1.27 0 .81.54 1.2 1.36 1.2.66 0 1.31-.22 1.64-.52zM50.32 111.02h1.32v11.08h-1.32v-11.08z"/></g><path fill="#202020" d="M1 175.7c.2.2.5.3.8.3-.2-.2-.5-.3-.8-.3zm56.3-10.5h-.2c0 .1.1.1.2 0zm-41.6 11.5v-.4c.7 0 .2.5.8.4.2-.6 1 .1 1.3-.2 0 0 .3.1.3.2.1-.3.3-.1.5-.1.1-.1-.1-.1-.1-.2l.4-.1c.2.1.2.3 0 .3 1.2.1 6.7.4 8 .3-.2-.2-.5-.1-.7-.4.3-.2.5.1.6-.1.1.5.7.1 1 .7l.1-.3.2.2c1.5-.3.3-.2 1.6-.1.7 0 1.1-.5 1.5-.3-.1 0-.2-.2 0-.3 0 .3.5-.2.6.1.2 0 .8 0 .6-.4.1.2.6.3.3.4.2 0 .4.1.5 0l-.2-.1c.6-.1 1 .2 1.4-.1l-.2-.1c.4 0 .7-.1.8.3l-.4.1c.6 0 1 0 1.5-.2h-.2c.7-.4 4.1-.7 4.7-1.1l-.3-.3.5-.2c-.1 0-.3.9-.3.8 1.1 0 6.9-.2 7.9-.1.4.2.1.5.1.5.5-.1.2-.3.6-.3.1.1 0 .2-.1.3.2 0 .4.1.4-.1-.2-.1-.1-.5-.2-.7h.6v.2c.1 0 .3-.6.9-.5.9.1 1.9 0 2.8.1 0 .1-.2.2-.4.3.1 0 .3 0 .4.1-.2-.2.4-.2.2-.3.7-.5 1.5 0 2.1-.4.1-.5 1.3-8.4 1.3-9 .2 0 .4 0 .4.1 0-.1-.4-.2-.6-.1v.3c-.4.1-.1-.2-.5-.2 0-.3.4-.3.7-.3-.3 0-.6-.2-.8.1-.3-.1 0-.3-.3-.4-.3.1-.6.3-.9.2-.7-.3-1.1.4-1.7.1l.1-.1c-.2-.1-.7.1-1.1-.1.1.1.2.2 0 .3-.5-.2-.8 0-1.1-.2l-.3.2c-1.7 0-8.2.3-9.9.3h.1c-2.5.1-7.8.1-10.4.4-.4-.2-1-.2-1.4-.3.2.1.2.3 0 .3-1.3 0-.1.2-1.4.3-1.5.2-7.3 0-8.6-.2-.7.4-1.6.1-2.3.3l.1-.1c-.8.1-5-.2-5.9-.1l.1.1c-.8.2-.7-.2-1.3-.3.1.4-.6.6-.8.7v-.1c-.4.1-1.2.4-1.9.5v-.2c-.5.2-1.5.1-1.9.2-.9-.1-2.2-.5-3.3-.2l-.7-.6-.1.1s-1.2 7.6.3 9.3v.2H2c.4.1.5-.1.5.1H2c.4.1.1.2 0 .3.1 0 .3 0 .4.1.1-.1-.1-.1-.1-.1.2-.1.5-.3.7-.2.4 0 0 .4.5.4 2.3.2 4.5.4 6.7.4.1.1 0 .1-.1.1.7-.1 1.3-.1 1.9-.2.2.1.2.2.3.3-.3-.6 3.3-.6 3.4-.6z"/><g enable-background="new" fill="#808080"><path d="M1.46 156.99v-6.78h1.37v6.69c0 2.17.9 2.82 2.56 2.82 1.65 0 2.44-.63 2.44-2.83v-6.67H9.1v6.73c0 2.69-1.26 3.86-3.76 3.86-2.48-.01-3.88-1.24-3.88-3.82zM11.36 150.21h1.36v10.39h-1.36v-10.39zm1.79 5.08l3.99-5.08h1.45l-3.9 4.93 4.11 5.46h-1.62l-4.03-5.31z"/></g><path fill="#202020" d="M1 214.2c.1.2.4.3.6.3-.1-.2-.3-.3-.6-.3zm47.8-10.5h-.2c.1.1.2.1.2 0zm-35.4 11.5v-.4c.6 0 .2.5.7.4.2-.6.9.1 1.1-.2 0 0 .3.1.2.2.1-.3.3-.1.4-.1.1-.1 0-.1-.1-.2l.4-.1c.1.1.2.3 0 .3 1 .1 5.7.4 6.8.3-.1-.2-.5-.1-.6-.4.3-.2.4.1.5-.1.1.5.6.1.8.7l.1-.3.1.2c1.2-.3.3-.2 1.4-.1.6 0 .9-.5 1.3-.3-.1 0-.2-.2 0-.3 0 .3.4-.2.5.1.2 0 .7 0 .5-.4.1.2.6.3.3.4.2 0 .3.1.4 0l-.2-.1c.5-.1.8.2 1.2-.1l-.2-.1c.3 0 .6-.1.7.3l-.3.1c.5 0 .8 0 1.3-.2h-.2c.6-.4 3.5-.7 4-1.1l-.2-.3.4-.2c-.1 0-.2.9-.3.8.9 0 5.9-.2 6.7-.1.4.2.1.5.1.5.4-.1.2-.3.6-.3.1.1 0 .2-.1.3.2 0 .3.1.3-.1-.2-.1-.1-.5-.2-.7h.5v.2c.1 0 .3-.6.7-.5.8.1 1.6 0 2.4.1 0 .1-.2.2-.3.3.1 0 .3 0 .4.1-.2-.2.3-.2.2-.3.6-.5 1.3 0 1.8-.4 0-.5 1.1-8.4 1.1-9 .2 0 .3 0 .4.1 0-.1-.3-.2-.5-.1v.3c-.4.1-.1-.2-.5-.2 0-.3.3-.3.6-.3-.3 0-.5-.2-.6.1-.3-.1 0-.3-.3-.4-.2.1-.5.3-.8.2-.6-.3-.9.4-1.5.1l.1-.1c-.2-.1-.6.1-.9-.1.1.1.2.2 0 .3-.4-.2-.7 0-1-.2l-.3.2c-1.4 0-7 .3-8.4.3h.1c-2.2.1-6.6.1-8.8.4-.3-.2-.8-.2-1.2-.3.2.1.1.3 0 .3-1.1 0-.1.2-1.2.3-1.3.2-6.2 0-7.3-.2-.6.4-1.4.1-2 .3l.1-.1c-.6.1-4.3-.2-5-.1l.1.1c-.7.2-.6-.2-1.1-.3.1.4-.5.6-.7.7v-.1c-.3.1-1 .4-1.6.5v-.2c-.4.2-1.3.1-1.6.2-.7-.1-1.8-.5-2.8-.2l-.6-.6-.1.1s-1 7.6.3 9.3v.2h.3c.3.1.4-.1.4.1h-.4c.3.1.1.2 0 .3.1 0 .3 0 .4.1.1-.1 0-.1-.1-.1.2-.1.4-.3.6-.2.3 0 0 .4.4.4 1.9.2 3.8.4 5.7.4 0 .1 0 .1-.1.1.6-.1 1.1-.1 1.6-.2.1.1.2.2.2.3-.1-.6 2.9-.6 2.9-.6z"/><g enable-background="new" fill="#808080"><path d="M1.58 188.71h1.37v10.39H1.58v-10.39zM5.51 197.3v-4.8h-1.1v-1.09h1.1v-1.83h1.32v1.83h1.94v1.09H6.83v4.61c0 .73.24 1 1.11 1 .31 0 .67-.04.98-.12v.88c-.31.15-.63.31-1.32.31-1.23.01-2.09-.51-2.09-1.88zM9.74 197.06c0-1.34.87-2.05 2.32-2.23l2.04-.26v-.72c0-1.17-.51-1.46-1.89-1.46-.75 0-1.36.12-1.83.23v-.95c.69-.27 1.43-.42 2.35-.42 1.71 0 2.69.72 2.69 2.26v5.58h-1.06l-.14-.64h-.09c-.38.44-.99.79-2.01.79-1.37.01-2.38-.69-2.38-2.18zm4.37.65v-2.13l-1.69.18c-.87.09-1.31.43-1.31 1.27 0 .81.54 1.2 1.36 1.2.66 0 1.31-.22 1.64-.52zM17.32 188.02h1.32v11.08h-1.32v-11.08zM20.08 201.86v-.93c.19.03.46.06.75.06.71 0 1.2-.33 1.53-1.15l.34-.89-2.95-7.54h1.42l2.17 5.8h.04l2-5.8h1.31l-3.12 8.61c-.52 1.47-1.2 2.07-2.5 2.07-.36 0-.77-.11-.99-.23z"/></g><path fill="#202020" d="M1 252.7c.2.2.4.3.7.3-.2-.2-.4-.3-.7-.3zm48.3-10.5h-.2c.1.1.2.1.2 0zm-35.7 11.5v-.4c.6 0 .2.5.7.4.2-.6.9.1 1.1-.2 0 0 .3.1.2.2.1-.3.3-.1.4-.1.1-.1 0-.1-.1-.2l.4-.1c.1.1.2.3 0 .3 1 .1 5.8.4 6.9.3-.1-.2-.5-.1-.6-.4.3-.2.4.1.5-.1.1.5.6.1.8.7l.1-.3.1.2c1.2-.3.3-.2 1.4-.1.6 0 .9-.5 1.3-.3-.1 0-.2-.2 0-.3 0 .3.4-.2.5.1.2 0 .7 0 .5-.4.1.2.6.3.3.4.2 0 .3.1.4 0l-.2-.1c.5-.1.8.2 1.2-.1l-.2-.1c.3 0 .6-.1.7.3l-.3.1c.5 0 .8 0 1.3-.2h-.2c.6-.4 3.5-.7 4-1.1l-.2-.3.4-.2c-.1 0-.2.9-.3.8 1 0 5.9-.2 6.8-.1.4.2.1.5.1.5.4-.1.2-.3.6-.3.1.1 0 .2-.1.3.2 0 .3.1.3-.1-.2-.1-.1-.5-.2-.7h.5v.2c.1 0 .3-.6.7-.5.8.1 1.6 0 2.4.1 0 .1-.2.2-.3.3.1 0 .3 0 .4.1-.2-.2.3-.2.2-.3.6-.5 1.3 0 1.8-.4 0-.5 1.1-8.4 1.1-9 .2 0 .3 0 .4.1 0-.1-.4-.2-.5-.1v.3c-.4.1-.1-.2-.5-.2 0-.3.3-.3.6-.3-.3 0-.5-.2-.7.1-.3-.1 0-.3-.3-.4-.2.1-.5.3-.8.2-.6-.3-.9.4-1.5.1l.1-.1c-.2-.1-.6.1-.9-.1.1.1.2.2 0 .3-.4-.2-.7 0-1-.2l-.3.2c-1.4 0-7.1.3-8.5.3h.1c-2.2.1-6.7.1-8.9.4-.3-.2-.8-.2-1.2-.3.2.1.1.3 0 .3-1.1 0-.1.2-1.2.3-1.3.2-6.2 0-7.4-.2-.6.4-1.4.1-2 .3l.1-.1c-.6.1-4.3-.2-5.1-.1l.1.1c-.7.2-.6-.2-1.1-.3.1.4-.5.6-.7.7v-.1c-.3.1-1.1.4-1.6.5v-.2c-.4.2-1.3.1-1.6.2-.7-.1-1.9-.5-2.8-.2l-.6-.6-.1.1s-1 7.6.3 9.3v.2h.3c.3.1.4-.1.4.1h-.4c.3.1.1.2 0 .3.1 0 .3 0 .4.1.1-.1 0-.1-.1-.1.2-.1.4-.3.6-.2.3 0 0 .4.4.4 1.9.2 3.8.4 5.8.4 0 .1 0 .1-.1.1.6-.1 1.1-.1 1.7-.2.1.1.2.2.2.3-.1-.6 2.9-.6 3-.6z"/><g enable-background="new" fill="#808080"><path d="M.79 237.11v-1.16c.81.41 1.83.68 2.91.68 1.51 0 2.19-.71 2.19-1.79 0-.99-.43-1.41-1.65-1.81l-1.08-.36c-1.4-.46-2.23-1.23-2.23-2.84 0-1.63 1.11-2.8 3.28-2.8 1.26 0 1.96.29 2.55.57v1.15c-.63-.29-1.46-.55-2.59-.55-1.19 0-1.88.55-1.88 1.52 0 .95.33 1.37 1.42 1.72l1.08.36c1.53.51 2.49 1.19 2.49 2.94 0 1.83-1.06 3.06-3.51 3.06-1.3 0-2.28-.3-2.98-.69zM8.77 229.91h1.26v.61h.07c.47-.43 1.27-.76 2.22-.76 1.66 0 3.15.95 3.15 3.78v.21c0 2.82-1.35 4-3.46 4-.87 0-1.52-.26-1.92-.49v3.27H8.77v-10.62zm5.34 4.02v-.33c0-2.09-.77-2.71-2.15-2.71-.85 0-1.54.29-1.87.53v4.74c.33.27 1.02.53 1.8.53 1.39-.02 2.22-.75 2.22-2.76zM16.43 235.56c0-1.34.87-2.05 2.32-2.23l2.04-.26v-.72c0-1.17-.51-1.46-1.89-1.46-.75 0-1.36.12-1.83.23v-.95c.69-.27 1.43-.42 2.35-.42 1.71 0 2.69.72 2.69 2.26v5.58h-1.06l-.14-.64h-.09c-.38.44-.99.79-2.01.79-1.37.01-2.38-.69-2.38-2.18zm4.37.65v-2.13l-1.7.18c-.87.09-1.3.43-1.3 1.27 0 .81.54 1.2 1.36 1.2.66 0 1.31-.22 1.64-.52zM23.99 227.01h1.35v1.37h-1.35v-1.37zm.02 2.9h1.32v7.69h-1.32v-7.69zM27.26 229.91h1.26v.66h.07c.65-.45 1.65-.81 2.6-.81 1.51 0 2.23.63 2.23 2.12v5.73H32.1v-5.44c0-.89-.28-1.26-1.5-1.26-.68 0-1.47.26-2.02.51v6.19h-1.32v-7.7z"/></g><path fill="#202020" d="M.9 291.2c0 .2.1.3.2.3-.1-.2-.1-.3-.2-.3zm15.5-10.5c0 .1 0 .1 0 0zM4.9 292.2v-.4c.2 0 .1.5.2.4.1-.6.3.1.3-.2 0 0 .1.1.1.2 0-.3.1-.1.1-.1v-.2l.1-.1c0 .1.1.3 0 .3.3.1 1.9.4 2.2.3 0-.2-.2-.1-.2-.4.1-.2.1.1.2-.1 0 .5.2.1.3.7v-.3.2c.4-.3.1-.2.4-.1.2 0 .3-.5.4-.3 0 0-.1-.2 0-.3 0 .3.1-.2.2.1.1 0 .2 0 .2-.4 0 .2.2.3.1.4.1 0 .1.1.1 0l-.1-.1c.2-.1.3.2.4-.1l-.1-.1c.1 0 .2-.1.2.3l-.1.1c.2 0 .3 0 .4-.2h-.1c.2-.4 1.1-.7 1.3-1.1l-.1-.3.1-.2s-.1.9-.1.8c.3 0 1.9-.2 2.2-.1.1.2 0 .5 0 .5.1-.1.1-.3.2-.3v.3c.1 0 .1.1.1-.1-.1-.1 0-.5-.1-.7h.2v.2s.1-.6.2-.5c.3.1.5 0 .8.1 0 .1-.1.2-.1.3 0 0 .1 0 .1.1-.1-.2.1-.2.1-.3.2-.5.4 0 .6-.4 0-.5.3-8.4.4-9 .1 0 .1 0 .1.1 0-.1-.1-.2-.2-.1v.3c-.1.1 0-.2-.1-.2 0-.3.1-.3.2-.3-.1 0-.2-.2-.2.1-.1-.1 0-.3-.1-.4-.1.1-.2.3-.2.2-.2-.3-.3.4-.5.1v-.1c-.1-.1-.2.1-.3-.1 0 .1.1.2 0 .3-.1-.2-.2 0-.3-.2l-.1.2c-.5 0-2.3.3-2.7.3-.7.1-2.1.1-2.9.4-.1-.2-.3-.2-.4-.3.1.1 0 .3 0 .3-.4 0 0 .2-.4.3-.4.2-2 0-2.4-.2-.2.4-.4.1-.6.3v-.1c-.2.1-1.4-.2-1.6-.1v.1c-.2.2-.2-.2-.3-.3 0 .4-.2.6-.2.7v-.1c-.1.1-.3.4-.5.5v-.2c-.1.2-.4.1-.5.2-.2-.1-.6-.5-.9-.2v-.9.1s-.3 7.6.1 9.3v.2h.1c.1.1.1-.1.1.1h-.1c.1.1 0 .2 0 .3 0 0 .1 0 .1.1v-.1c.1-.1.1-.3.2-.2.1 0 0 .4.1.4.6.2 1.2.4 1.9.4v.1c.2-.1.4-.1.5-.2 0 .1.1.2.1.3-.2-.3.8-.3.8-.3z"/><g enable-background="new" fill="#808080"><path d="M1.54 265.71h6.03v1.16H2.9v3.49h3.6v1.15H2.9v4.59H1.54v-10.39zM8.45 268.41h1.26v.85h.07c.44-.51 1.26-.95 2.08-.95.2 0 .41.03.48.06v1.17c-.19-.03-.45-.04-.58-.04-.72 0-1.46.24-1.99.6v6H8.45v-7.69zM12.88 274.06c0-1.34.87-2.05 2.32-2.23l2.04-.26v-.72c0-1.17-.51-1.46-1.89-1.46-.75 0-1.36.12-1.83.23v-.95c.69-.27 1.43-.42 2.35-.42 1.71 0 2.69.72 2.69 2.26v5.58H17.5l-.14-.64h-.09c-.38.44-.99.79-2.01.79-1.38.01-2.38-.69-2.38-2.18zm4.36.65v-2.13l-1.7.18c-.87.09-1.3.43-1.3 1.27 0 .81.54 1.2 1.36 1.2.67 0 1.31-.22 1.64-.52zM20.41 268.41h1.26v.66h.07c.65-.45 1.65-.81 2.6-.81 1.51 0 2.23.63 2.23 2.12v5.73h-1.32v-5.44c0-.89-.28-1.26-1.5-1.26-.68 0-1.47.26-2.02.51v6.19h-1.32v-7.7zM27.94 272.43v-.26c0-2.71 1.64-3.91 3.66-3.91 1 0 1.59.2 2.1.51v1.09c-.69-.28-1.17-.48-2.19-.48-1.36 0-2.2.93-2.2 2.59v.41c0 1.93.81 2.74 2.37 2.74 1.04 0 1.73-.35 2.12-.54v1.05c-.51.33-1.2.62-2.27.62-2.2 0-3.59-1.24-3.59-3.82zM34.58 272.37v-.22c0-2.69 1.6-3.88 3.39-3.88 2.11 0 3.12 1.21 3.12 3.63v.75h-5.14c.09 1.83.99 2.47 2.52 2.47 1.04 0 1.7-.22 2.4-.58v.97c-.46.35-1.33.75-2.61.75-2.43-.01-3.68-1.51-3.68-3.89zm1.37-.8h3.75c0-1.62-.61-2.25-1.78-2.25-.86 0-1.85.48-1.97 2.25z"/></g><path fill="#202020" d="M.9 329.7c0 .3.1.3.1.3 0-.2-.1-.3-.1-.3zM13 319.2c-.1.1-.1.1 0 0zm-9 11.5v-.4c.1 0 0 .5.2.4.1-.6.2.1.3-.2 0 0 .1.1.1.2 0-.3.1-.1.1-.1v-.2l.1-.1v.3c.2.1 1.4.4 1.7.3 0-.2-.1-.1-.1-.4.1-.2.1.1.1-.1 0 .5.2.1.2.7v-.3.2c.3-.3.1-.2.3-.1.2 0 .2-.5.3-.3v-.3c0 .3.1-.2.1.1 0 0 .2 0 .1-.4 0 .2.1.3.1.4 0 0 .1.1.1 0l-.1-.1c.1-.1.2.2.3-.1v-.1c.1 0 .1-.1.2.3l-.1.1c.1 0 .2 0 .3-.2.1-.4.9-.7 1-1.1l-.1-.3.1-.2v.8c.2 0 1.5-.2 1.7-.1.1.2 0 .4 0 .5.1-.1 0-.3.1-.3v.3s.1.1.1-.1c-.1-.1 0-.5-.1-.7h.1v.2s.1-.6.2-.5c.2.1.4 0 .6.1 0 .1 0 .2-.1.3 0 0 .1 0 .1.1 0-.2.1-.2 0-.3.1-.5.3 0 .5-.4 0-.5.3-8.4.3-9 0 0 .1 0 .1.1 0-.1-.1-.2-.1-.1v.3c-.1.1 0-.2-.1-.2 0-.3.1-.3.2-.3-.1 0-.1-.2-.2.1-.1-.1 0-.3-.1-.4-.1.1-.1.3-.2.2-.2-.3-.2.4-.4.1v-.1c0-.1-.1.1-.2-.1v.3c-.1-.2-.2 0-.2-.2l-.1.2c-.4 0-1.8.3-2.1.3-.5.1-1.7.1-2.2.4-.1-.2-.2-.2-.3-.3.1.1 0 .3 0 .3-.3 0 0 .2-.3.3-.3.2-1.6 0-1.8-.2-.2.4-.3.1-.5.3v-.1c-.2.1-1.1-.2-1.3-.1v.1c-.2.2-.1-.2-.3-.3 0 .4-.1.6-.2.7v-.1c-.1.1-.3.4-.4.5v-.2c-.1.2-.3.1-.4.2-.2-.1-.5-.5-.7-.2l-.2-.6v.1s-.3 7.6.1 9.3v.2H1c.1.1.1-.1.1.1H1c.1.1 0 .2 0 .3 0 0 .1 0 .1.1v-.1c0-.1.1-.3.1-.2.1 0 0 .4.1.4.5.2 1 .4 1.4.4v.1c.1-.1.3-.1.4-.2 0 .1 0 .2.1.3 0-.6.8-.6.8-.6z"/><g enable-background="new" fill="#808080"><path d="M.76 314.3v-1.1c.46.17 1.08.33 1.88.33 1.14 0 1.59-.62 1.59-1.68v-7.65H5.6v7.7c0 1.56-.84 2.8-2.85 2.8-.87.01-1.42-.13-1.99-.4zM7 312.56c0-1.34.87-2.05 2.32-2.23l2.04-.26v-.72c0-1.17-.51-1.46-1.89-1.46-.75 0-1.36.12-1.83.23v-.95c.69-.27 1.43-.42 2.35-.42 1.71 0 2.69.72 2.69 2.26v5.58h-1.06l-.14-.64h-.09c-.38.44-.99.79-2.01.79-1.38.01-2.38-.69-2.38-2.18zm4.36.65v-2.13l-1.7.18c-.87.09-1.3.43-1.3 1.27 0 .81.54 1.2 1.36 1.2.67 0 1.31-.22 1.64-.52zM14.53 306.91h1.26v.61h.07c.47-.43 1.27-.76 2.22-.76 1.66 0 3.15.95 3.15 3.78v.21c0 2.82-1.35 4-3.46 4-.87 0-1.52-.26-1.92-.49v3.27h-1.32v-10.62zm5.34 4.02v-.33c0-2.09-.77-2.71-2.15-2.71-.85 0-1.54.29-1.87.53v4.74c.33.27 1.02.53 1.8.53 1.39-.02 2.22-.75 2.22-2.76zM22.19 312.56c0-1.34.87-2.05 2.32-2.23l2.04-.26v-.72c0-1.17-.51-1.46-1.89-1.46-.75 0-1.36.12-1.83.23v-.95c.69-.27 1.43-.42 2.35-.42 1.71 0 2.69.72 2.69 2.26v5.58h-1.06l-.14-.64h-.09c-.38.44-.99.79-2.01.79-1.37.01-2.38-.69-2.38-2.18zm4.37.65v-2.13l-1.69.18c-.87.09-1.31.43-1.31 1.27 0 .81.54 1.2 1.36 1.2.66 0 1.31-.22 1.64-.52zM29.72 306.91h1.26v.66h.07c.65-.45 1.65-.81 2.6-.81 1.51 0 2.23.63 2.23 2.12v5.73h-1.32v-5.44c0-.89-.28-1.26-1.5-1.26-.68 0-1.47.26-2.02.51v6.19h-1.32v-7.7z"/></g><path fill="#202020" d="M.9 368.2c0 .2.1.3.1.3-.1-.2-.1-.3-.1-.3zM7 357.7c0 .1 0 .1 0 0zm-4.6 11.5v-.4c.1 0 .1.5 0 .4.1-.6.2 0 .2-.3v.2c0-.3 0-.1.1-.1v-.3.3c.1.1.7.4.9.3 0-.2-.1-.1-.1-.4 0-.2.1.1.1-.1 0 .5.1.1.1.7v-.3.2c.2-.3 0-.2.2-.1.1 0 .1-.5.2-.3v-.3c0 .3.1-.2.1.1 0 0 .1 0 .1-.4 0 .2.1.3 0 .4 0 0 0 .1.1 0v-.1c.1-.1.1.2.1-.1v-.1s.1-.1.1.3v.1c.1 0 .1 0 .2-.2.1-.4.4-.7.5-1.1v-.3l.1-.2v.8c.1 0 .8-.2.9-.1v.5c.1-.1 0-.3.1-.3v.3-.8h.1v.2s0-.6.1-.5c.1.1.2 0 .3.1v.4-.3c.1-.5.2 0 .2-.4 0-.5.1-8.4.1-9v.1c0-.1 0-.2-.1-.1v.3c0 .1 0-.2-.1-.2 0-.3 0-.3.1-.3 0 0-.1-.2-.1.1v-.4c0 .1-.1.3-.1.2-.1-.3-.1.4-.2.1v-.1c0-.1-.1.1-.1-.1v.3c-.1-.2-.1 0-.1-.2v.2c-.2 0-.9.3-1.1.3-.3.1-.8.1-1.1.4 0-.2-.1-.2-.2-.3v.3c-.1 0 0 .2-.2.3-.2.2-.8 0-.9-.2-.1.4-.2.1-.3.3v-.1c-.1.1-.5-.2-.6-.1v.1c-.1.2-.1-.2-.1-.3 0 .4-.1.6-.1.7v-.1c0 .1-.1.4-.2.5v-.2c-.1.2-.2.1-.2.2-.1-.1-.2-.5-.4-.2l-.1-.6v.1s-.1 7.6 0 9.3v.2c0 .1.1-.1.1.1H1v.4-.1c0-.1.1-.3.1-.2v.4c.2.2.5.4.7.4v.1l.2-.2v.3c.1-.5.4-.5.4-.5z"/><g enable-background="new" fill="#808080"><path d="M.94 348.14v-.3c0-3.97 2.35-5.31 4.95-5.31 1.29 0 2.12.3 2.73.63v1.17c-.63-.29-1.42-.63-2.83-.63-2.55 0-3.37 1.89-3.37 3.93v.48c0 2.29.66 4.02 3.4 4.02.69 0 1.4-.12 1.84-.29v-2.7H5.5V348h3.52v4.68c-.79.31-1.91.6-3.25.6-2.91 0-4.83-1.54-4.83-5.14zM10.33 349.37v-.22c0-2.69 1.6-3.88 3.39-3.88 2.11 0 3.12 1.21 3.12 3.63v.75H11.7c.09 1.83.99 2.47 2.52 2.47 1.04 0 1.7-.22 2.4-.58v.97c-.46.35-1.33.75-2.61.75-2.44-.01-3.68-1.51-3.68-3.89zm1.36-.8h3.75c0-1.62-.61-2.25-1.78-2.25-.86 0-1.85.48-1.97 2.25zM18.25 345.41h1.26v.85h.07c.44-.51 1.26-.95 2.08-.95.19 0 .41.03.48.06v1.17c-.19-.03-.45-.04-.58-.04-.72 0-1.46.24-1.99.6v6h-1.32v-7.69zM23.32 345.41h1.26v.66h.07c.65-.43 1.48-.81 2.34-.81.87 0 1.49.27 1.85.86h.07c.81-.54 1.7-.86 2.56-.86 1.35 0 2.13.63 2.13 2.12v5.73h-1.32v-5.44c0-.89-.31-1.26-1.33-1.26-.57 0-1.2.21-1.86.53.02.15.03.29.03.45v5.73H27.8v-5.44c0-.89-.31-1.26-1.33-1.26-.61 0-1.27.24-1.83.51v6.19h-1.32v-7.71zM34.96 351.06c0-1.34.87-2.05 2.32-2.23l2.04-.26v-.72c0-1.17-.51-1.46-1.89-1.46-.75 0-1.36.12-1.83.23v-.95c.69-.27 1.43-.42 2.35-.42 1.71 0 2.69.72 2.69 2.26v5.58h-1.06l-.14-.64h-.09c-.38.44-.99.79-2.01.79-1.38.01-2.38-.69-2.38-2.18zm4.36.65v-2.13l-1.69.18c-.87.09-1.31.43-1.31 1.27 0 .81.54 1.2 1.36 1.2.67 0 1.31-.22 1.64-.52zM42.49 345.41h1.26v.66h.07c.65-.45 1.65-.81 2.6-.81 1.51 0 2.23.63 2.23 2.12v5.73h-1.32v-5.44c0-.89-.28-1.26-1.5-1.26-.68 0-1.47.26-2.02.51v6.19h-1.32v-7.7zM49.93 355.86v-.93c.19.03.46.06.75.06.7 0 1.2-.33 1.53-1.15l.34-.89-2.95-7.54h1.42l2.17 5.8h.04l2-5.8h1.31l-3.12 8.61c-.52 1.47-1.2 2.07-2.5 2.07-.36 0-.77-.11-.99-.23z"/></g></svg>