<?xml version="1.0" encoding="utf-8"?>
<!-- Generator: Adobe Illustrator 16.0.1, SVG Export Plug-In . SVG Version: 6.00 Build 0)  -->
<!DOCTYPE svg PUBLIC "-//W3C//DTD SVG 1.1//EN" "http://www.w3.org/Graphics/SVG/1.1/DTD/svg11.dtd">
<svg version="1.1" xmlns="http://www.w3.org/2000/svg" xmlns:xlink="http://www.w3.org/1999/xlink" x="0px" y="0px"
	 width="812.74px" height="20px" viewBox="0 0 812.74 20" enable-background="new 0 0 812.74 20" xml:space="preserve">
<g id="Layer_2">
</g>
<g id="Layer_1">
	<path fill="#FFFFFF" d="M738.95,11.37c-0.02-1.17-0.09-2.5-0.05-3.83c0.05-1.66-0.42-2.07-2.04-2.09
		c-3.32-0.04-6.64-0.13-9.95-0.34c-3.33-0.22-6.64-0.71-9.97-0.92c-3.21-0.2-4.13,0.85-4.37,4.24c-0.12,1.78,0.59,2.49,2.38,2.55
		c4.37,0.14,8.74,0.21,13.11,0.28C731.62,11.31,735.18,11.33,738.95,11.37z"/>
	<path fill="#FFFFFF" d="M600.38,6.25c-4.12-0.2-7.87-0.2-11.57-0.63c-2.91-0.33-5.73-0.15-8.57,0.35
		c-1.61,0.28-1.62,1.64-1.78,2.75c-0.18,1.32-0.35,2.77,1.02,3.7c0.24,0.16,0.61,0.18,0.92,0.2c1.43,0.09,2.88,0.3,4.29,0.19
		c5.37-0.41,10.74-0.93,16.37-1.43C600.54,9.39,601.47,7.48,600.38,6.25z"/>
	<path fill="#FFFFFF" d="M152.21,6.3c-0.21,0.63-0.45,1.22-0.59,1.83c-0.6,2.69,0.37,3.95,3.16,3.87
		c7.01-0.21,14.03-0.49,21.04-0.78c1.82-0.08,2.21-0.72,1.73-2.43c-0.15-0.54-0.3-1.08-0.48-1.6c-0.46-1.3-1.19-1.74-2.51-1.52
		c-0.78,0.13-1.56,0.3-2.35,0.4c-4.21,0.49-8.43,0.16-12.64,0.14C157.2,6.18,154.83,6.26,152.21,6.3z"/>
	<path fill="#FFFFFF" d="M800.32,6.65c-2.2-0.46-4.11-0.95-6.04-1.25c-2.59-0.41-5.19-0.81-7.8-0.96c-1.67-0.1-3.62-0.29-4.78,1.3
		c-0.67,0.92-1.03,2.17-1.22,3.32c-0.3,1.85,0.22,2.47,2.08,2.78c5.2,0.87,10.44,1.21,15.71,1.2c0.46,0,0.92-0.12,1.41-0.18
		c0.04-1.05,0.02-1.99,0.12-2.91C799.88,9.02,800.08,8.09,800.32,6.65z"/>
	<path fill="#FFFFFF" d="M668.87,6.52c-2.05-0.19-3.86-0.37-5.68-0.52c-1.9-0.15-3.81-0.37-5.72-0.38
		c-2.72-0.02-5.44,0.05-8.15,0.23c-2.47,0.17-3.39,1.07-3.76,3.22c-0.29,1.73,0.47,3.1,2.6,3.04c6.91-0.18,13.83-0.24,20.78-0.35
		C668.92,9.95,668.9,8.26,668.87,6.52z"/>
	<path fill="#FFFFFF" d="M545.71,6.81c-0.21,1.07-0.61,2.22-0.64,3.37c-0.07,2.18,0.67,2.88,2.84,2.8c3.1-0.12,6.21-0.24,9.3-0.55
		c3.54-0.35,7.07-0.91,10.58-1.37c-0.04-4.44-0.04-4.44-1.39-5.92c-3.55,1.22-7.27,1.07-11.03,1.02
		C552.24,6.12,549.03,5.69,545.71,6.81z"/>
	<path fill="#FFFFFF" d="M697.82,3.65c-1.81,0.43-3.17,0.92-4.57,1.04c-1.81,0.15-3.65-0.07-5.47-0.01
		c-2.55,0.09-5.1,0.16-7.63,0.47c-2.22,0.27-3.37,1.98-3.16,4.19c0.14,1.5,0.74,2.07,2.31,2.06c2.3,0,4.6-0.09,6.91-0.08
		c4.22,0.02,8.39-0.24,12.34-1.46c0.06-1.12,0.24-2.13,0.12-3.11C698.57,5.77,698.16,4.83,697.82,3.65z"/>
	<path fill="#FFFFFF" d="M417.69,10.18c-0.25-1.47-0.42-2.4-0.58-3.33c-0.32-1.89-1.48-2.9-3.15-2.25c-1.81,0.7-3.6,0.5-5.41,0.54
		c-3.99,0.09-7.98,0.07-11.96,0.18c-0.62,0.02-1.66,0.35-1.77,0.74c-0.33,1.18-0.53,2.5-0.37,3.71c0.19,1.46,0.85,1.84,2.34,1.75
		c1.1-0.06,2.2-0.32,3.31-0.36c3.02-0.1,6.04-0.09,9.06-0.19c1.67-0.06,3.33-0.24,5-0.39C415.3,10.49,416.44,10.33,417.69,10.18z"/>
	<path fill="#FFFFFF" d="M478,11.12c-0.18-1.53-0.27-2.64-0.45-3.73c-0.22-1.31-0.88-1.83-2.17-1.62c-4.6,0.77-9.2,0.57-13.81,0.13
		c-1.5-0.14-3.03-0.07-4.54-0.07c-0.89,0-1.54,0.37-1.7,1.33c-0.13,0.78-0.36,1.56-0.36,2.34c0.02,2.2,0.68,2.79,2.92,2.75
		c2.78-0.05,5.57,0,8.35-0.17C470.12,11.85,473.98,11.46,478,11.12z"/>
	<path fill="#FFFFFF" d="M769.24,3.94c-4.09,1.59-8.31,0.85-12.51,0.72c-1.75-0.05-3.51-0.16-5.26-0.11
		c-2.37,0.07-3.77,1.69-3.71,4.05c0.03,1.12,0.38,1.86,1.64,1.86c1.35-0.01,2.71-0.13,4.03,0.03c5.57,0.68,11.11,0.11,16.73-0.2
		C769.93,8.23,771.04,6.13,769.24,3.94z"/>
	<path fill="#FFFFFF" d="M632.47,5.43c-3.25,0.15-6.27,0.28-9.29,0.42c-2.93,0.14-5.86,0.23-8.78,0.48
		c-1.77,0.15-2.93,1.86-2.78,3.77c0.13,1.59,0.97,2.22,2.99,2.31c6.29,0.28,12.44-1.15,18.82-1.46
		C633.36,9.01,633.98,7.07,632.47,5.43z"/>
	<path fill="#FFFFFF" d="M67.82,6.29c-0.2,0.67-0.51,1.49-0.68,2.33c-0.38,1.97,0.9,3.65,2.93,3.69c2.87,0.05,5.74,0.03,8.6-0.1
		c2.86-0.13,5.71-0.4,8.56-0.68c2.07-0.2,2.64-1.35,1.99-3.36c-0.69-2.12-2.47-2.12-4.09-2.12C79.42,6.06,73.7,6.2,67.82,6.29z"/>
	<path fill="#FFFFFF" d="M448.16,10.35c-0.02-1.25,0.09-2.29-0.08-3.29c-0.32-1.92-1.41-2.48-3.28-1.95
		c-0.89,0.25-1.83,0.39-2.76,0.45c-1.11,0.07-2.22,0-3.33,0c-1.51,0.01-3.07,0.26-4.54,0c-2.66-0.46-5.2,0.14-7.77,0.31
		c-0.6,1.48-1.09,2.82-0.56,4.29c0.35,0.96,0.89,1.67,2.07,1.62c2.39-0.11,4.78-0.14,7.17-0.27c3.74-0.2,7.47-0.42,11.2-0.69
		C446.96,10.78,447.62,10.49,448.16,10.35z"/>
	<path fill="#FFFFFF" d="M296.77,10.67c-0.33-1.27-0.5-2.28-0.85-3.23c-0.47-1.26-1.3-1.49-2.66-1.37c-2.68,0.23-5.37,0.33-8.07,0.4
		c-3.72,0.1-7.44,0.13-11.26,0.19c-1,1.96-1.27,3.94,0.3,5.78c4.69-0.17,9.22-0.3,13.75-0.49c1.99-0.08,3.98-0.22,5.96-0.45
		C294.85,11.39,295.71,10.99,296.77,10.67z"/>
	<path fill="#FFFFFF" d="M357.67,10.85c-0.33-1.1-0.61-2.09-0.92-3.06c-0.52-1.63-0.93-1.78-2.55-1.7
		c-3.08,0.15-6.17,0.17-9.26,0.23c-2.93,0.06-5.86,0.09-8.89,0.14c-0.6,1.39-0.98,2.84-0.65,4.37c0.37,1.75,1.19,2.18,2.9,2.06
		c5.31-0.38,10.62-0.71,15.94-0.94C355.46,11.89,356.59,11.86,357.67,10.85z"/>
	<path fill="#FFFFFF" d="M524.77,11.97c0,0.06,0,0.12,0,0.18c1.12-0.02,2.25,0.06,3.35-0.07c2.59-0.32,5.17-0.77,7.75-1.13
		c1.19-0.17,1.59-0.95,1.68-1.99c0.24-2.86-1.74-4.87-4.59-3.93c-3.53,1.16-7.19,0.97-10.84,0.89c-1.19-0.03-2.4-0.08-3.57,0.07
		c-0.52,0.07-1.12,0.53-1.41,0.99c-0.38,0.58-0.58,1.32-0.69,2.02c-0.3,1.99,0.57,3.02,2.58,3.05
		C520.95,12.07,522.86,12,524.77,11.97z"/>
	<path fill="#FFFFFF" d="M509.23,9.95c-0.02-1.39,0.07-2.44-0.08-3.45c-0.24-1.62-0.91-1.98-2.5-1.75
		c-1.65,0.24-3.31,0.49-4.97,0.53c-3.11,0.08-6.23-0.03-9.34,0.04c-1.14,0.03-2.28,0.33-3.33,0.5c-0.32,1.16-0.68,1.99-0.77,2.84
		c-0.22,2.08,0.62,3.08,2.68,2.95c4.45-0.26,8.9-0.64,13.35-1.02C505.92,10.46,507.57,10.17,509.23,9.95z"/>
	<path fill="#FFFFFF" d="M120.05,7.24c-0.28,1.14-0.5,1.99-0.69,2.84c-0.05,0.23-0.03,0.48-0.03,0.72c0.03,1.8,0.76,2.38,2.56,2.2
		c6.11-0.62,12.2-1.45,18.36-1.19c2.02,0.08,2.73-1.01,2.01-2.89c-0.49-1.27-1.43-1.91-2.75-1.94c-4.95-0.11-9.9-0.25-14.84-0.26
		C123.18,6.71,121.68,7.05,120.05,7.24z"/>
	<path fill="#FFFFFF" d="M314.58,6.82c-0.01-0.08-0.01-0.15-0.02-0.23c-2.47,0.04-4.94,0.04-7.41,0.15
		c-0.56,0.02-1.45,0.31-1.59,0.69c-0.38,1.01-0.68,2.17-0.55,3.22c0.26,2.05,1.03,2.45,3.12,2.09c0.63-0.11,1.27-0.15,1.9-0.18
		c4.46-0.25,8.92-0.48,13.39-0.72c3.56-0.19,4.02-0.96,2.83-4.31c-0.45-1.27-1.31-1.49-2.42-1.41
		C320.74,6.35,317.66,6.59,314.58,6.82z"/>
	<path fill="#FFFFFF" d="M39.67,6.8c-0.16,0.94-0.45,1.87-0.45,2.8c-0.02,2.26,1.04,3.07,3.27,2.82c4.82-0.54,9.63-1.33,14.52-0.97
		c2.75,0.2,3.59-1.29,2.4-3.75c-0.48-0.99-1.15-1.4-2.23-1.46C51.38,5.93,45.59,6.03,39.67,6.8z"/>
	<path fill="#FFFFFF" d="M387.46,10.59c-0.27-1.22-0.45-2.23-0.71-3.21c-0.45-1.66-1.15-2-2.78-1.68c-1.39,0.27-2.82,0.47-4.23,0.49
		c-3.43,0.05-6.87-0.01-10.3-0.05c-0.77-0.01-1.57,0.03-1.74,0.88c-0.23,1.15-0.44,2.38-0.28,3.52c0.21,1.44,1.06,1.84,2.6,1.67
		c0.55-0.06,1.11-0.1,1.67-0.13c4.38-0.26,8.76-0.49,13.13-0.79C385.65,11.22,386.46,10.86,387.46,10.59z"/>
	<path fill="#FFFFFF" d="M243.76,6.78c-0.15,0.97-0.53,2.2-0.49,3.42c0.06,1.73,0.95,2.39,2.67,2.26c4.85-0.38,9.7-0.76,14.55-1.22
		c0.87-0.08,1.71-0.57,2.63-0.89c-0.39-1.31-0.65-2.31-1-3.29c-0.51-1.45-0.95-1.62-2.51-1.49C254.46,6,249.3,6.36,243.76,6.78z"/>
	<path fill="#FFFFFF" d="M233.9,10.87c-0.75-1.72-1.17-3.11-1.93-4.28c-0.81-1.26-2.06-0.14-3.1-0.16
		c-4.37-0.07-8.74-0.07-13.1-0.03c-0.49,0-1.24,0.29-1.43,0.66c-0.63,1.28-1.12,2.65-0.45,4.12c0.65,1.42,1.06,1.62,2.59,1.38
		c1.25-0.2,2.52-0.46,3.78-0.45c3.65,0.02,7.26-0.85,10.94-0.34C231.94,11.87,232.77,11.27,233.9,10.87z"/>
	<path fill="#FFFFFF" d="M95.77,6.82c-0.28,1.05-0.59,1.88-0.71,2.72c-0.25,1.8,0.79,2.94,2.6,2.82c5.07-0.33,10.13-0.72,15.2-1.06
		c0.91-0.06,1.77-0.16,2.19-1.11c0.34-0.77-0.13-2.5-0.93-3.03c-0.57-0.37-1.3-0.65-1.97-0.67c-3.74-0.13-7.49-0.23-11.23-0.2
		C99.19,6.3,97.47,6.63,95.77,6.82z"/>
	<path fill="#FFFFFF" d="M204.72,11.6c-0.17-1.24-0.23-2.03-0.4-2.79c-0.42-1.94-1.34-2.51-3.24-2.2c-1.09,0.18-2.2,0.33-3.3,0.36
		c-3.31,0.09-6.63,0.12-10.02,0.17c-0.44,2.2-2.28,4.33,0.3,6.32c1.6-0.18,3.17-0.41,4.75-0.53c3.01-0.24,6.03-0.38,9.03-0.64
		C202.75,12.2,203.63,11.86,204.72,11.6z"/>
	<path fill="#FFFFFF" d="M12.15,9.04c0.88,3.42,1.14,3.65,3.83,3.67c1.51,0.01,3.03-0.01,4.54,0.04c3.18,0.11,6.37,0.26,9.55,0.38
		c0.89,0.03,2.55-1.18,2.7-1.92c0.16-0.81-0.59-1.76-1.81-2.24c-0.29-0.12-0.61-0.19-0.92-0.25c-4.27-0.75-8.57-0.92-12.88-0.61
		C15.53,8.22,13.93,8.69,12.15,9.04z"/>
	<path fill-rule="evenodd" clip-rule="evenodd" d="M738.95,11.37c-3.77-0.04-7.33-0.05-10.89-0.11c-4.37-0.07-8.74-0.13-13.11-0.28
		c-1.8-0.06-2.5-0.77-2.38-2.55c0.23-3.39,1.16-4.44,4.37-4.24c3.33,0.21,6.64,0.7,9.97,0.92c3.31,0.22,6.63,0.3,9.95,0.34
		c1.62,0.02,2.09,0.43,2.04,2.09C738.86,8.87,738.93,10.2,738.95,11.37z"/>
	<path fill-rule="evenodd" clip-rule="evenodd" d="M600.38,6.25c1.09,1.23,0.16,3.14,0.7,5.13c-5.63,0.5-11,1.02-16.37,1.43
		c-1.42,0.11-2.86-0.1-4.29-0.19c-0.31-0.02-0.68-0.04-0.92-0.2c-1.37-0.92-1.21-2.38-1.02-3.7c0.15-1.11,0.17-2.47,1.78-2.75
		c2.84-0.5,5.66-0.68,8.57-0.35C592.52,6.04,596.26,6.05,600.38,6.25z"/>
	<path fill-rule="evenodd" clip-rule="evenodd" d="M152.21,6.3c2.62-0.04,4.99-0.12,7.36-0.11c4.22,0.02,8.43,0.35,12.64-0.14
		c0.79-0.09,1.57-0.27,2.35-0.4c1.32-0.21,2.04,0.22,2.51,1.52c0.19,0.53,0.33,1.07,0.48,1.6c0.48,1.72,0.08,2.36-1.73,2.43
		c-7.01,0.3-14.02,0.58-21.04,0.78c-2.8,0.08-3.76-1.18-3.16-3.87C151.76,7.52,152.01,6.92,152.21,6.3z"/>
	<path fill-rule="evenodd" clip-rule="evenodd" d="M800.32,6.65c-0.24,1.44-0.43,2.37-0.53,3.3c-0.09,0.93-0.08,1.86-0.12,2.91
		c-0.49,0.07-0.95,0.18-1.41,0.18c-5.27,0.01-10.51-0.33-15.71-1.2c-1.86-0.31-2.38-0.93-2.08-2.78c0.19-1.15,0.55-2.4,1.22-3.32
		c1.16-1.59,3.11-1.4,4.78-1.3c2.61,0.15,5.22,0.55,7.8,0.96C796.21,5.71,798.11,6.19,800.32,6.65z"/>
	<path fill-rule="evenodd" clip-rule="evenodd" d="M668.87,6.52c0.03,1.73,0.05,3.43,0.08,5.25c-6.95,0.11-13.87,0.17-20.78,0.35
		c-2.13,0.06-2.9-1.31-2.6-3.04c0.36-2.15,1.29-3.05,3.76-3.22c2.71-0.18,5.43-0.25,8.15-0.23c1.91,0.01,3.81,0.22,5.72,0.38
		C665.01,6.15,666.82,6.33,668.87,6.52z"/>
	<path fill-rule="evenodd" clip-rule="evenodd" d="M545.71,6.81c3.32-1.12,6.53-0.69,9.66-0.65c3.76,0.05,7.48,0.2,11.03-1.02
		c1.34,1.48,1.34,1.48,1.39,5.92c-3.51,0.46-7.04,1.02-10.58,1.37c-3.09,0.31-6.2,0.43-9.3,0.55c-2.17,0.09-2.91-0.61-2.84-2.8
		C545.1,9.03,545.49,7.88,545.71,6.81z"/>
	<path fill-rule="evenodd" clip-rule="evenodd" d="M697.82,3.65c0.34,1.18,0.75,2.12,0.87,3.1c0.11,0.98-0.07,1.99-0.12,3.11
		c-3.95,1.22-8.13,1.48-12.34,1.46c-2.3-0.01-4.61,0.07-6.91,0.08c-1.58,0-2.17-0.56-2.31-2.06c-0.21-2.21,0.95-3.91,3.16-4.19
		c2.52-0.31,5.08-0.39,7.63-0.47c1.82-0.06,3.66,0.16,5.47,0.01C694.65,4.57,696.01,4.08,697.82,3.65z"/>
	<path fill-rule="evenodd" clip-rule="evenodd" d="M417.69,10.18c-1.25,0.15-2.39,0.31-3.53,0.41c-1.67,0.15-3.33,0.33-5,0.39
		c-3.02,0.1-6.04,0.09-9.06,0.19c-1.1,0.04-2.2,0.29-3.31,0.36c-1.49,0.08-2.16-0.29-2.34-1.75c-0.15-1.21,0.04-2.53,0.37-3.71
		c0.11-0.4,1.15-0.73,1.77-0.74c3.99-0.11,7.98-0.09,11.96-0.18c1.81-0.04,3.6,0.16,5.41-0.54c1.67-0.65,2.83,0.36,3.15,2.25
		C417.27,7.79,417.44,8.72,417.69,10.18z"/>
	<path fill-rule="evenodd" clip-rule="evenodd" d="M478,11.12c-4.01,0.34-7.88,0.73-11.75,0.97c-2.78,0.17-5.57,0.12-8.35,0.17
		c-2.24,0.04-2.91-0.55-2.92-2.75c0-0.78,0.23-1.56,0.36-2.34c0.16-0.97,0.81-1.33,1.7-1.33c1.51,0,3.04-0.07,4.54,0.07
		c4.61,0.43,9.21,0.64,13.81-0.13c1.28-0.21,1.95,0.31,2.17,1.62C477.73,8.48,477.81,9.58,478,11.12z"/>
	<path fill-rule="evenodd" clip-rule="evenodd" d="M769.24,3.94c1.8,2.2,0.69,4.29,0.93,6.35c-5.63,0.31-11.17,0.88-16.73,0.2
		c-1.33-0.16-2.69-0.04-4.03-0.03c-1.27,0-1.62-0.74-1.64-1.86c-0.06-2.36,1.34-3.97,3.71-4.05c1.75-0.05,3.51,0.06,5.26,0.11
		C760.93,4.79,765.15,5.53,769.24,3.94z"/>
	<path fill-rule="evenodd" clip-rule="evenodd" d="M632.47,5.43c1.52,1.64,0.9,3.58,0.95,5.52c-6.38,0.32-12.53,1.74-18.82,1.46
		c-2.02-0.09-2.86-0.72-2.99-2.31c-0.15-1.9,1.01-3.62,2.78-3.77c2.92-0.25,5.85-0.34,8.78-0.48
		C626.19,5.71,629.21,5.58,632.47,5.43z"/>
	<path fill-rule="evenodd" clip-rule="evenodd" d="M67.82,6.29C73.7,6.2,79.42,6.06,85.13,6.06c1.63,0,3.4,0,4.09,2.12
		c0.65,2.01,0.08,3.16-1.99,3.36c-2.85,0.28-5.7,0.55-8.56,0.68c-2.86,0.13-5.73,0.16-8.6,0.1c-2.03-0.04-3.31-1.72-2.93-3.69
		C67.31,7.79,67.62,6.97,67.82,6.29z"/>
	<path fill-rule="evenodd" clip-rule="evenodd" d="M448.16,10.35c-0.54,0.14-1.2,0.43-1.88,0.48c-3.73,0.26-7.47,0.49-11.2,0.69
		c-2.39,0.12-4.78,0.16-7.17,0.27c-1.19,0.05-1.72-0.65-2.07-1.62c-0.53-1.47-0.04-2.81,0.56-4.29c2.57-0.17,5.1-0.77,7.77-0.31
		c1.47,0.25,3.02,0.01,4.54,0c1.11-0.01,2.23,0.07,3.33,0c0.93-0.06,1.87-0.2,2.76-0.45c1.88-0.52,2.96,0.03,3.28,1.95
		C448.25,8.06,448.14,9.1,448.16,10.35z"/>
	<path fill-rule="evenodd" clip-rule="evenodd" d="M296.77,10.67c-1.06,0.32-1.92,0.71-2.82,0.82c-1.98,0.23-3.97,0.37-5.96,0.45
		c-4.53,0.19-9.06,0.33-13.75,0.49c-1.57-1.84-1.3-3.82-0.3-5.78c3.82-0.06,7.54-0.09,11.26-0.19c2.69-0.07,5.39-0.17,8.07-0.4
		c1.36-0.12,2.19,0.11,2.66,1.37C296.27,8.39,296.44,9.4,296.77,10.67z"/>
	<path fill-rule="evenodd" clip-rule="evenodd" d="M357.67,10.85c-1.08,1.01-2.21,1.04-3.45,1.1c-5.32,0.23-10.63,0.56-15.94,0.94
		c-1.71,0.12-2.53-0.31-2.9-2.06c-0.32-1.53,0.05-2.98,0.65-4.37c3.03-0.05,5.96-0.09,8.89-0.14c3.09-0.06,6.18-0.08,9.26-0.23
		c1.62-0.08,2.03,0.07,2.55,1.7C357.05,8.76,357.34,9.75,357.67,10.85z"/>
	<path fill-rule="evenodd" clip-rule="evenodd" d="M524.77,11.97c-1.91,0.03-3.83,0.1-5.74,0.08c-2.01-0.03-2.88-1.06-2.58-3.05
		c0.11-0.7,0.31-1.44,0.69-2.02c0.29-0.46,0.89-0.92,1.41-0.99c1.17-0.16,2.38-0.1,3.57-0.07c3.65,0.08,7.31,0.28,10.84-0.89
		c2.86-0.94,4.84,1.07,4.59,3.93c-0.09,1.04-0.5,1.82-1.68,1.99c-2.59,0.36-5.16,0.8-7.75,1.13c-1.1,0.14-2.23,0.05-3.35,0.07
		C524.78,12.09,524.77,12.03,524.77,11.97z"/>
	<path fill-rule="evenodd" clip-rule="evenodd" d="M509.23,9.95c-1.66,0.22-3.31,0.51-4.97,0.65c-4.45,0.38-8.9,0.76-13.35,1.02
		c-2.05,0.12-2.9-0.88-2.68-2.95c0.09-0.86,0.45-1.68,0.77-2.84c1.06-0.17,2.19-0.47,3.33-0.5c3.11-0.07,6.23,0.04,9.34-0.04
		c1.66-0.04,3.32-0.29,4.97-0.53c1.59-0.23,2.25,0.12,2.5,1.75C509.3,7.51,509.21,8.56,509.23,9.95z"/>
	<path fill-rule="evenodd" clip-rule="evenodd" d="M120.05,7.24c1.63-0.19,3.13-0.53,4.63-0.52c4.95,0.02,9.9,0.15,14.84,0.26
		c1.32,0.03,2.26,0.67,2.75,1.94c0.72,1.87,0,2.97-2.01,2.89c-6.17-0.26-12.26,0.57-18.36,1.19c-1.8,0.18-2.53-0.4-2.56-2.2
		c0-0.24-0.02-0.49,0.03-0.72C119.55,9.23,119.77,8.39,120.05,7.24z"/>
	<path fill-rule="evenodd" clip-rule="evenodd" d="M314.58,6.82c3.08-0.23,6.16-0.47,9.24-0.69c1.11-0.08,1.97,0.14,2.42,1.41
		c1.19,3.35,0.72,4.12-2.83,4.31c-4.46,0.24-8.92,0.47-13.39,0.72c-0.63,0.03-1.27,0.08-1.9,0.18c-2.08,0.35-2.86-0.04-3.12-2.09
		c-0.13-1.04,0.17-2.21,0.55-3.22c0.14-0.39,1.03-0.67,1.59-0.69c2.47-0.11,4.94-0.11,7.41-0.15
		C314.56,6.66,314.57,6.74,314.58,6.82z"/>
	<path fill-rule="evenodd" clip-rule="evenodd" d="M39.67,6.8c5.92-0.77,11.7-0.87,17.51-0.56c1.08,0.06,1.75,0.47,2.23,1.46
		c1.19,2.47,0.35,3.96-2.4,3.75c-4.9-0.36-9.7,0.43-14.52,0.97c-2.23,0.25-3.28-0.56-3.27-2.82C39.23,8.67,39.51,7.74,39.67,6.8z"/>
	<path fill-rule="evenodd" clip-rule="evenodd" d="M387.46,10.59c-1,0.27-1.81,0.63-2.64,0.69c-4.37,0.3-8.75,0.53-13.13,0.79
		c-0.56,0.03-1.11,0.07-1.67,0.13c-1.54,0.17-2.39-0.22-2.6-1.67c-0.16-1.14,0.05-2.36,0.28-3.52c0.17-0.85,0.96-0.89,1.74-0.88
		c3.43,0.05,6.87,0.1,10.3,0.05c1.41-0.02,2.84-0.22,4.23-0.49c1.63-0.32,2.33,0.02,2.78,1.68C387.01,8.36,387.19,9.37,387.46,10.59
		z"/>
	<path fill-rule="evenodd" clip-rule="evenodd" d="M243.76,6.78c5.54-0.42,10.7-0.78,15.85-1.21c1.56-0.13,2.01,0.04,2.51,1.49
		c0.34,0.97,0.6,1.97,1,3.29c-0.93,0.32-1.76,0.81-2.63,0.89c-4.84,0.46-9.7,0.84-14.55,1.22c-1.72,0.13-2.61-0.52-2.67-2.26
		C243.22,8.98,243.61,7.75,243.76,6.78z"/>
	<path fill-rule="evenodd" clip-rule="evenodd" d="M233.9,10.87c-1.13,0.4-1.96,1-2.7,0.9c-3.68-0.5-7.29,0.36-10.94,0.34
		c-1.26-0.01-2.52,0.25-3.78,0.45c-1.54,0.25-1.95,0.04-2.59-1.38c-0.67-1.47-0.18-2.84,0.45-4.12c0.18-0.37,0.93-0.66,1.43-0.66
		c4.37-0.04,8.74-0.04,13.1,0.03c1.04,0.02,2.29-1.1,3.1,0.16C232.73,7.77,233.15,9.16,233.9,10.87z"/>
	<path fill-rule="evenodd" clip-rule="evenodd" d="M95.77,6.82c1.71-0.19,3.43-0.52,5.15-0.53c3.74-0.03,7.49,0.08,11.23,0.2
		c0.67,0.02,1.4,0.3,1.97,0.67c0.8,0.52,1.27,2.26,0.93,3.03c-0.42,0.95-1.28,1.05-2.19,1.11c-5.07,0.34-10.13,0.72-15.2,1.06
		c-1.81,0.12-2.85-1.01-2.6-2.82C95.18,8.7,95.49,7.88,95.77,6.82z"/>
	<path fill-rule="evenodd" clip-rule="evenodd" d="M204.72,11.6c-1.08,0.26-1.97,0.6-2.87,0.68c-3.01,0.26-6.02,0.4-9.03,0.64
		c-1.58,0.12-3.15,0.35-4.75,0.53c-2.58-1.98-0.75-4.12-0.3-6.32c3.39-0.05,6.71-0.08,10.02-0.17c1.1-0.03,2.21-0.18,3.3-0.36
		c1.9-0.31,2.82,0.26,3.24,2.2C204.48,9.57,204.54,10.36,204.72,11.6z"/>
	<path fill-rule="evenodd" clip-rule="evenodd" d="M12.15,9.04c1.78-0.34,3.39-0.82,5.02-0.93c4.31-0.31,8.61-0.13,12.88,0.61
		c0.31,0.05,0.63,0.13,0.92,0.25c1.22,0.48,1.97,1.43,1.81,2.24c-0.15,0.74-1.81,1.96-2.7,1.92c-3.18-0.12-6.37-0.27-9.55-0.38
		c-1.51-0.05-3.03-0.03-4.54-0.04C13.29,12.68,13.02,12.45,12.15,9.04z"/>
</g>
</svg>
