<svg xmlns="http://www.w3.org/2000/svg" width="812.74" height="20"><path fill="#FFF" d="M62.02 9.52c-1.57-1.42-3.29-3.04-5.08-4.57-.37-.32-1.04-.37-1.58-.4-6.77-.41-13.54-.62-20.29.16-1.44.17-2.97.29-3.94 1.84-1.35 2.15-1.18 4.18-.07 6.28.99 1.88 2.7 1.98 4.53 1.89 5.57-.29 11.14-.57 16.71-.79.93-.04 1.91.1 2.79.38 1.61.53 2.73.34 3.79-.93 1.04-1.25 2.04-2.51 3.14-3.86zM369.54 4.12c-1.64.02-3.16.06-4.67.07-6.08.03-12.15.1-18.23.03-2.46-.03-4.06 1.21-5.28 3.06-1.17 1.76-1.1 3.63.04 5.42.55.87 1.29 1.29 2.43 1.09 1.32-.22 2.69-.29 4.03-.28 4.71.04 9.42.16 14.12.23 2.15.03 4.29.03 6.44.03.3 0 .65-.07.9-.22 1.28-.76 2.66-4.22 2.12-5.57-.52-1.33-1.25-2.56-1.9-3.86zM112.75 5.36c-1.42.11-3.01.29-4.6.33-1.63.04-2.56 1-3.45 2.19-1.41 1.89-.94 3.75-.12 5.65.77 1.8 2.36 1.5 3.88 1.6 6.79.45 13.62-.74 20.4.49.44.08 1.11-.22 1.44-.57.47-.51.79-1.19 1.06-1.85 1.41-3.48-.57-6.97-4.31-7.24-4.7-.34-9.42-.41-14.3-.6zM310.39 3.71c0 .04 0 .08-.01.12-.95.01-1.91.01-2.86.05-.96.04-1.91.09-2.87.19-2.36.23-4.49 1.9-5.13 3.99-.83 2.71.57 4.58 3.39 4.55 3.33-.03 6.66-.04 9.99-.03 1.51.01 3.03.26 4.52.12 2.78-.27 5.54-.56 8.3.13.95.24 1.79.04 2.29-.82.56-.94 1.21-1.9 1.44-2.93.44-1.95-1.17-4.36-2.84-4.46-5.41-.33-10.82-.61-16.22-.91zM214.26 9.05c-.5-.96-.96-1.63-1.23-2.38-.6-1.63-1.68-2.33-3.44-2.38-3.35-.1-6.69-.55-10.03-.56-3.18-.01-6.39.15-9.54.61-3.3.48-5.03 4.96-3.2 7.74.59.9 1.33 1.51 2.56 1.44 2.15-.12 4.3-.13 6.45-.13 4.7.01 9.37-.91 14.09-.33.64.08 1.54-.42 2.03-.93.88-.88 1.53-2 2.31-3.08zM657.68 3.49v.36c-3.43.05-6.87-.01-10.29.18-3 .17-3.49 1.07-2.61 4.06.09.31.17.62.27.92.6 1.79 1.23 2.23 3.17 2.2.95-.01 1.9-.06 2.86-.03 4.22.1 8.45.32 12.67.31 3.18-.01 6.37-.34 9.55-.48 1.17-.05 3.8-1.46 4.12-2.35.36-1-.65-2.75-2.21-3.65-.61-.35-1.31-.63-2-.75-1.25-.23-2.53-.42-3.8-.47-3.91-.14-7.82-.21-11.73-.3zM158.6 4.17v.08c-1.36.02-2.72-.02-4.08.07-2.23.15-4.47.25-6.67.63-3.43.59-4.97 5.01-2.8 7.73.76.95 1.69 1.23 2.95 1.15 2.37-.15 4.76-.05 7.14-.07.72 0 1.45.02 2.15-.09 3.49-.54 6.98-.74 10.49-.17 1.01.17 1.76-.23 2.25-1.01.5-.81.94-1.68 1.24-2.58.71-2.19-1.27-5.28-3.57-5.44-3.02-.2-6.06-.21-9.1-.3zM272.69 4.34v.15c-1.28.02-2.56.16-3.82.03-2.55-.25-3.83 1.41-4.75 3.26-.9 1.82-.58 3.77.76 5.36.41.49 1.18.96 1.79.96 3.82.03 7.67.19 11.46-.21 2.48-.26 4.92-.56 7.35-.08 1.9.38 3.02-.42 3.95-1.88 1.83-2.89.21-6.66-3.15-6.93-4.52-.33-9.06-.44-13.59-.66zM777.62 8.41c-1.23-.05-3.38-.19-5.53-.19-1.97 0-2.57.67-2.49 2.65.04 1.03.15 2.07.38 3.07.48 2.13.91 2.53 3.08 2.58 2.95.07 5.9-.02 8.85 0 4.07.02 8.18-.26 12.18.26 2.17.28 3.45-.56 4.93-1.54.81-.53.85-1.26.44-2.08-.94-1.87-2.24-3.18-4.47-3.55-5.45-.89-10.93-1.29-17.37-1.2zM82.36 4.85v.06c-2.39.04-4.78.06-7.17.12-.46.01-.99.04-1.36.27-2.77 1.7-3.56 6.08-1.5 8.62.45.56 1.29 1.09 1.98 1.13 3.02.18 6.04.21 9.07.23 2.19.02 4.39-.18 6.57-.07 1.91.1 2.85-.21 3.66-1.93.37-.77.58-1.64.73-2.49.53-2.97-1.84-5.99-4.8-6.04-2.4-.03-4.79.07-7.18.1zM396.23 3.23c-3.79.22-6.67.34-9.52.6-.72.07-1.65.45-2.02 1-.93 1.37.36 4.83 1.93 5.36 1.11.38 2.29.59 3.46.74 5.25.7 10.49.37 15.74-.19 1.73-.18 3.57-.37 5.22.02 1.64.38 2.68-.25 3.62-1.18 2.48-2.46 2.88-4.14-1.14-5.7-.85-.33-1.63-.45-2.52-.11-.65.25-1.4.43-2.08.39-4.54-.29-9.06-.65-12.69-.93zM619.91 12.26v-.08c3.27-.05 6.56-.33 9.8-.06 1.99.17 3.18-.53 4.28-1.89 1.14-1.42 1.09-2.73-.23-4.03-1.17-1.16-2.54-1.86-4.27-1.82-4.07.08-8.14.08-12.21.16-3.27.07-6.53.17-9.8.33-1.84.09-2.25.57-2.19 2.35.03.95.14 1.91.27 2.85.29 2.1 1.26 2.89 3.37 2.78 3.67-.19 7.32-.39 10.98-.59zM248.5 13.04c.36-.41 1.09-1.06 1.6-1.85.99-1.55.82-3.11-.01-4.74-.74-1.45-1.69-2.13-3.38-2.08-6.39.18-12.79.22-19.19.36-2.06.04-3.53 1.25-4.21 3.26-.91 2.69.57 4.9 3.36 4.89 4.32-.02 8.64-.17 12.95-.17 2.77 0 5.54.2 8.88.33zM567.63 7.96c.19.7.41 1.88.83 2.99.66 1.74 1.4 2.06 3.33 1.77.79-.12 1.58-.15 2.38-.21 2.62-.19 5.24-.43 7.87-.54 2.86-.12 5.74-.24 8.59-.12 1.87.08 2.77-.19 3.8-2.02.8-1.42.67-2.66-.5-3.93-1.13-1.23-2.54-1.91-4.25-1.83-5.74.25-11.47.5-17.2.8-1.1.06-2.21.28-3.29.56-1.01.26-1.7.88-1.56 2.53zM13.83 4.88c-.01-.08-.03-.15-.04-.23L3.4 6.12C1.68 6.36.78 7.51.26 9.03c-1.01 2.93 1.05 6.53 3.83 6.39 3.72-.18 7.42-.68 11.14-1 1.01-.09 2.05-.13 3.06-.01 2.33.27 3.38-.37 4.02-2.64.99-3.52-1.51-6.91-5.12-6.94-1.12 0-2.24.03-3.36.05zM738.19 6.47c-.01.12-.01.23-.02.35-2 .03-3.99.01-5.98.1-1.46.07-2.12.68-2.08 2.05.05 1.51.26 3.01.5 4.5.19 1.16.94 1.88 2.15 1.84 3.58-.11 7.16-.29 10.74-.4 2.46-.08 4.93-.2 7.39-.1 1.47.06 3.74-.77 4.39-2.04.38-.75.37-1.49-.11-2.25-1.13-1.81-2.69-2.91-4.84-3.09l-12.14-.96zM699.78 5.47c-.02.1-.03.2-.05.31-2.78.2-5.56.38-8.34.6-.89.07-1.94.23-1.95 1.35-.02 1.49.15 3 .41 4.47.15.85.86 1.28 1.79 1.23 3.81-.18 7.62-.47 11.43-.47 2.77 0 5.58.19 8.29.71 1.88.37 3.22-.13 4.6-1.19.96-.74.98-1.57.37-2.5-1.02-1.54-2.45-2.52-4.28-2.79-4.09-.61-8.18-1.15-12.27-1.72zM462.88 8.73c.14.93.25 2.04.5 3.12.4 1.7 1.31 2.34 3.1 2.26 4.45-.21 8.89-.44 13.34-.65.71-.03 1.44-.08 2.15 0 2.61.31 3.07.1 4.32-2.1.65-1.14.61-2.46-.43-3.21-1-.72-2.19-1.27-3.39-1.57-1.29-.32-2.68-.31-4.03-.37-4.29-.16-8.59-.27-12.89-.43-2.17-.08-2.81.55-2.67 2.95zM505.96 5.73v.29c-1.99.03-3.99.13-5.98.07-3.09-.09-2.77.67-3.48 3.17-.19.67-.09 1.44-.02 2.15.17 1.77.98 2.22 2.76 1.94 2.28-.35 4.57-.6 6.87-.73 2.31-.13 4.63-.09 6.94-.08 1.67.01 3.45-.23 4.99.24 1.78.55 2.74-.24 3.71-1.3 1.41-1.53 1.31-2.72-.23-4.08-1.31-1.16-2.7-1.89-4.55-1.37-.74.2-1.59.05-2.39.02-2.88-.11-5.75-.22-8.62-.32zM543.97 6.13c0-.14 0-.27-.01-.41-1.91.03-3.83.02-5.74.1-1.35.06-2.71.18-4.04.39-1.43.23-1.83.71-1.67 2.07.15 1.25.42 2.51.8 3.72.57 1.82 1.19 2.11 3.01 1.78 1.01-.18 2.04-.34 3.06-.38 2.71-.09 5.42-.11 8.12-.15 1.42-.02 2.85-.11 4.25 0 .92.08 1.84.72 2.65-.19.63-.71 1.44-1.36 1.77-2.19.28-.71.27-1.86-.14-2.43-1-1.36-2.44-2.37-4.22-2.4-2.6-.06-5.22.05-7.84.09zM433.93 6.84c0 .06 0 .11-.01.17-1.59.02-3.18.06-4.77.07-1.73.01-2.64.87-2.66 2.61-.04 2.22.87 3.51 2.57 3.56 2.78.09 5.57.05 8.35.22 3.56.21 7.11.6 10.67.83.57.04 1.33-.16 1.74-.53 2.21-1.99 3.06-3.54-.15-5.9-1-.73-2.02-1.09-3.33-.75-.97.25-2.06.13-3.09.09-3.11-.1-6.22-.24-9.32-.37z"/><path fill-rule="evenodd" clip-rule="evenodd" d="M62.02 9.52c-1.1 1.35-2.1 2.62-3.13 3.86-1.06 1.27-2.18 1.46-3.79.93-.88-.29-1.86-.42-2.79-.38-5.57.22-11.14.51-16.71.79-1.83.09-3.54 0-4.53-1.89-1.11-2.11-1.28-4.13.07-6.28.97-1.55 2.5-1.67 3.92-1.84 6.75-.78 13.53-.58 20.29-.16.54.03 1.21.08 1.58.4 1.8 1.52 3.52 3.14 5.09 4.57zM369.54 4.12c.65 1.3 1.38 2.54 1.9 3.85.54 1.36-.84 4.81-2.12 5.57-.26.15-.6.22-.9.22-2.15.01-4.29.01-6.44-.03-4.71-.07-9.41-.19-14.12-.23-1.35-.01-2.71.05-4.03.28-1.14.2-1.88-.23-2.43-1.09-1.14-1.78-1.2-3.66-.04-5.42 1.23-1.85 2.82-3.09 5.28-3.06 6.08.07 12.15 0 18.23-.03 1.51 0 3.02-.04 4.67-.06zM112.75 5.36c4.89.19 9.6.26 14.3.6 3.74.27 5.72 3.76 4.31 7.24-.27.66-.59 1.34-1.06 1.85-.32.35-1 .65-1.44.57-6.78-1.24-13.61-.05-20.4-.49-1.52-.1-3.11.21-3.88-1.6-.81-1.9-1.28-3.76.12-5.65.89-1.2 1.81-2.15 3.45-2.19 1.59-.04 3.18-.22 4.6-.33zM310.39 3.71c5.41.3 10.82.58 16.23.91 1.67.1 3.28 2.51 2.84 4.46-.23 1.03-.88 1.99-1.44 2.93-.51.86-1.34 1.05-2.29.82-2.76-.69-5.52-.4-8.3-.13-1.49.14-3.01-.11-4.52-.12-3.33-.02-6.66 0-9.99.03-2.82.02-4.22-1.84-3.39-4.55.64-2.09 2.77-3.76 5.13-3.99.95-.09 1.91-.15 2.87-.19.95-.04 1.91-.03 2.86-.05a.244.244 0 0 1 0-.12zM214.26 9.05c-.78 1.08-1.43 2.19-2.3 3.09-.49.51-1.39 1.01-2.03.93-4.72-.58-9.39.34-14.09.33-2.15-.01-4.3.01-6.45.13-1.23.07-1.97-.54-2.56-1.44-1.83-2.79-.1-7.26 3.2-7.74 3.14-.46 6.36-.62 9.54-.61 3.34.01 6.68.46 10.03.56 1.76.05 2.84.75 3.44 2.38.27.74.72 1.41 1.22 2.37zM657.68 3.49c3.91.1 7.82.17 11.73.31 1.27.05 2.54.23 3.8.47.69.13 1.39.4 2 .75 1.56.9 2.58 2.64 2.21 3.65-.32.89-2.96 2.3-4.12 2.35-3.19.13-6.37.46-9.55.48-4.22.01-8.45-.21-12.67-.31-.95-.02-1.9.02-2.86.03-1.93.03-2.57-.41-3.17-2.2-.1-.3-.17-.61-.27-.92-.88-2.99-.39-3.89 2.61-4.06 3.42-.19 6.86-.13 10.29-.18v-.37zM158.6 4.17c3.03.09 6.07.1 9.1.3 2.3.15 4.28 3.24 3.57 5.44-.29.9-.73 1.78-1.24 2.58-.49.79-1.24 1.18-2.25 1.01-3.5-.58-7-.38-10.49.17-.71.11-1.43.09-2.15.09-2.38.02-4.77-.09-7.14.07-1.26.08-2.19-.2-2.95-1.15-2.17-2.72-.63-7.14 2.8-7.73 2.19-.38 4.44-.47 6.67-.63 1.35-.09 2.72-.05 4.08-.07v-.08zM272.69 4.34c4.53.21 9.07.32 13.6.68 3.36.26 4.98 4.03 3.15 6.93-.93 1.46-2.05 2.27-3.95 1.88-2.43-.49-4.87-.18-7.35.08-3.79.39-7.64.24-11.46.21-.61-.01-1.38-.47-1.79-.96-1.34-1.59-1.67-3.54-.76-5.36.92-1.85 2.2-3.51 4.75-3.26 1.26.12 2.55-.01 3.82-.03-.01-.06-.01-.11-.01-.17zM777.62 8.41c6.44-.09 11.92.31 17.37 1.22 2.23.37 3.52 1.68 4.47 3.55.41.82.37 1.55-.44 2.08-1.49.97-2.76 1.82-4.93 1.54-4-.53-8.11-.24-12.18-.26-2.95-.02-5.9.07-8.85 0-2.17-.05-2.6-.45-3.08-2.58-.22-1-.33-2.05-.38-3.07-.08-1.99.52-2.66 2.49-2.65 2.15-.02 4.3.12 5.53.17zM82.36 4.85c2.39-.04 4.79-.13 7.18-.09 2.96.06 5.33 3.07 4.8 6.04-.15.85-.36 1.72-.73 2.49-.81 1.72-1.75 2.03-3.66 1.93-2.18-.11-4.38.08-6.57.07-3.02-.02-6.05-.05-9.07-.23-.69-.04-1.53-.57-1.98-1.13-2.06-2.55-1.27-6.93 1.5-8.62.37-.23.9-.26 1.36-.27 2.39-.06 4.78-.08 7.17-.12v-.07zM396.23 3.23c3.62.28 8.15.64 12.68.94.69.04 1.43-.14 2.08-.39.89-.34 1.67-.22 2.52.11 4.01 1.56 3.62 3.24 1.14 5.7-.94.94-1.98 1.57-3.62 1.18-1.65-.39-3.49-.2-5.22-.02-5.25.56-10.49.89-15.74.19-1.17-.16-2.35-.36-3.46-.74-1.57-.54-2.85-4-1.93-5.36.37-.55 1.31-.93 2.02-1 2.87-.28 5.74-.39 9.53-.61zM619.91 12.26c-3.66.2-7.32.4-10.98.59-2.11.11-3.08-.69-3.37-2.78-.13-.95-.23-1.9-.27-2.85-.06-1.78.36-2.26 2.19-2.35 3.26-.15 6.53-.26 9.8-.33 4.07-.08 8.14-.07 12.21-.16 1.73-.04 3.1.67 4.27 1.82 1.31 1.3 1.37 2.61.23 4.03-1.1 1.36-2.29 2.06-4.28 1.89-3.24-.27-6.53.01-9.8.06v.08zM248.5 13.04c-3.34-.13-6.1-.32-8.87-.33-4.32-.01-8.63.14-12.95.17-2.79.01-4.28-2.2-3.36-4.89.68-2.01 2.15-3.21 4.21-3.26 6.39-.14 12.79-.19 19.19-.36 1.69-.05 2.64.63 3.38 2.08.83 1.63 1 3.2.01 4.74-.52.79-1.25 1.44-1.61 1.85zM567.63 7.96c-.14-1.65.55-2.27 1.56-2.53 1.08-.27 2.18-.5 3.29-.56 5.73-.3 11.47-.54 17.2-.8 1.7-.08 3.11.61 4.25 1.83 1.18 1.27 1.31 2.51.5 3.93-1.03 1.83-1.93 2.1-3.8 2.02-2.86-.13-5.73 0-8.59.12-2.62.11-5.24.35-7.87.54-.79.06-1.59.09-2.38.21-1.92.29-2.67-.03-3.33-1.77-.42-1.11-.64-2.29-.83-2.99zM13.83 4.88c1.12-.02 2.23-.05 3.35-.05 3.61.02 6.11 3.42 5.12 6.94-.64 2.27-1.69 2.92-4.02 2.64-1.01-.12-2.04-.08-3.06.01-3.71.32-7.42.82-11.14 1-2.78.13-4.83-3.46-3.83-6.39.53-1.52 1.43-2.67 3.15-2.91l10.39-1.47c.02.08.03.15.04.23zM738.19 6.47c4.05.32 8.09.64 12.14.97 2.15.18 3.71 1.27 4.84 3.09.48.76.49 1.5.11 2.25-.65 1.27-2.91 2.1-4.39 2.04-2.46-.11-4.93.02-7.39.1-3.58.11-7.16.3-10.74.4-1.21.04-1.97-.68-2.15-1.84-.24-1.49-.45-3-.5-4.5-.04-1.37.62-1.98 2.08-2.05 1.99-.09 3.99-.07 5.98-.1 0-.13.01-.24.02-.36zM699.78 5.47c4.09.57 8.18 1.11 12.27 1.72 1.82.27 3.26 1.25 4.28 2.79.61.93.6 1.76-.37 2.5-1.38 1.06-2.71 1.56-4.6 1.19-2.71-.53-5.52-.71-8.29-.71-3.81 0-7.62.29-11.43.47-.94.04-1.64-.38-1.79-1.23-.26-1.47-.43-2.98-.41-4.47.01-1.11 1.06-1.27 1.95-1.35 2.78-.22 5.56-.4 8.34-.6.02-.11.03-.21.05-.31zM462.88 8.73c-.14-2.41.5-3.03 2.68-2.95 4.29.16 8.59.27 12.89.43 1.35.05 2.74.04 4.03.37 1.19.3 2.39.85 3.39 1.57 1.04.75 1.08 2.06.43 3.21-1.26 2.2-1.71 2.4-4.32 2.1-.71-.08-1.43-.04-2.15 0-4.45.21-8.89.45-13.34.65-1.79.08-2.7-.56-3.1-2.26-.26-1.08-.36-2.19-.51-3.12zM505.96 5.73c2.87.11 5.74.22 8.61.32.8.03 1.65.18 2.39-.02 1.86-.51 3.25.21 4.55 1.37 1.54 1.37 1.64 2.56.23 4.08-.98 1.06-1.93 1.85-3.71 1.3-1.54-.47-3.31-.23-4.99-.24-2.31-.01-4.63-.05-6.94.08-2.3.13-4.59.38-6.87.73-1.79.27-2.59-.17-2.76-1.94-.07-.71-.17-1.48.02-2.15.72-2.5.4-3.25 3.48-3.17 1.99.06 3.99-.04 5.98-.07.01-.1.01-.2.01-.29zM543.97 6.13c2.62-.04 5.24-.14 7.86-.09 1.78.03 3.22 1.04 4.22 2.4.41.56.42 1.72.14 2.43-.33.83-1.14 1.49-1.77 2.19-.82.92-1.74.27-2.65.19-1.41-.12-2.84-.02-4.25 0-2.71.04-5.42.06-8.12.15-1.02.03-2.05.2-3.06.38-1.82.33-2.44.04-3.01-1.78-.38-1.21-.64-2.46-.8-3.72-.17-1.36.24-1.84 1.67-2.07 1.33-.21 2.69-.33 4.04-.39 1.91-.08 3.82-.07 5.74-.1-.01.14-.01.27-.01.41zM433.93 6.84c3.1.13 6.21.27 9.31.38 1.03.04 2.12.16 3.09-.09 1.31-.34 2.34.02 3.33.75 3.21 2.36 2.36 3.91.15 5.9-.41.37-1.16.57-1.74.53-3.56-.23-7.11-.62-10.67-.83-2.78-.17-5.57-.13-8.35-.22-1.7-.05-2.6-1.34-2.57-3.56.03-1.74.93-2.61 2.66-2.61 1.59 0 3.18-.04 4.77-.07.02-.07.02-.13.02-.18z"/></svg>