<svg version="1.1" id="Layer_1" xmlns="http://www.w3.org/2000/svg" x="0" y="0" viewBox="0 0 798.3 20" xml:space="preserve"><style>.st0{fill:#fff}</style><g id="Layer_1_1_"><path class="st0" d="M729 11.4c0-1.2-.1-2.5 0-3.8 0-1.7-.4-2.1-2-2.1-3.3 0-6.6-.1-10-.3-3.3-.2-6.6-.7-10-.9-3.2-.2-4.1.8-4.4 4.2-.1 1.8.6 2.5 2.4 2.6l13.1.3c3.5-.1 7.1-.1 10.9 0zM590.4 6.2c-4.1-.2-7.9-.2-11.6-.6-2.9-.3-5.7-.2-8.6.3-1.6.3-1.6 1.6-1.8 2.7-.2 1.3-.3 2.8 1 3.7.2.2.6.2.9.2 1.4.1 2.9.3 4.3.2 5.4-.4 10.7-.9 16.4-1.4-.5-1.9.5-3.8-.6-5.1zM142.2 6.3l-.6 1.8c-.6 2.7.4 3.9 3.2 3.9 7-.2 14-.5 21-.8 1.8-.1 2.2-.7 1.7-2.4-.1-.5-.3-1.1-.5-1.6-.5-1.3-1.2-1.7-2.5-1.5-.8.1-1.6.3-2.4.4-4.2.5-8.4.2-12.6.1-2.3 0-4.7.1-7.3.1zM790.3 6.7c-2.2-.5-4.1-.9-6-1.2-2.6-.4-5.2-.8-7.8-1-1.7-.1-3.6-.3-4.8 1.3-.7.9-1 2.2-1.2 3.3-.3 1.9.2 2.5 2.1 2.8 5.2.9 10.4 1.2 15.7 1.2.5 0 .9-.1 1.4-.2 0-1.1 0-2 .1-2.9.1-1 .3-1.9.5-3.3zM658.9 6.5c-2-.2-3.9-.4-5.7-.5-1.9-.2-3.8-.4-5.7-.4-2.7 0-5.4.1-8.2.2-2.5.2-3.4 1.1-3.8 3.2-.3 1.7.5 3.1 2.6 3 6.9-.2 13.8-.2 20.8-.4V6.5zM535.7 6.8c-.2 1.1-.6 2.2-.6 3.4-.1 2.2.7 2.9 2.8 2.8 3.1-.1 6.2-.2 9.3-.6 3.5-.4 7.1-.9 10.6-1.4 0-4.4 0-4.4-1.4-5.9-3.5 1.2-7.3 1.1-11 1-3.2 0-6.4-.4-9.7.7zM687.8 3.7c-1.8.4-3.2.9-4.6 1-1.8.2-3.7-.1-5.5 0-2.5.1-5.1.2-7.6.5-2.2.3-3.4 2-3.2 4.2.1 1.5.7 2.1 2.3 2.1 2.3 0 4.6-.1 6.9-.1 4.2 0 8.4-.2 12.3-1.5.1-1.1.2-2.1.1-3.1.1-1-.3-2-.7-3.1zM407.7 10.2c-.2-1.5-.4-2.4-.6-3.3-.3-1.9-1.5-2.9-3.1-2.3-1.8.7-3.6.5-5.4.5-4 .1-8 .1-12 .2-.6 0-1.7.3-1.8.7-.3 1.2-.5 2.5-.4 3.7.2 1.5.9 1.8 2.3 1.8 1.1-.1 2.2-.3 3.3-.4 3-.1 6-.1 9.1-.2 1.7-.1 3.3-.2 5-.4 1.2 0 2.3-.2 3.6-.3zM468 11.1c-.2-1.5-.3-2.6-.5-3.7-.2-1.3-.9-1.8-2.2-1.6-4.6.8-9.2.6-13.8.1-1.5-.1-3-.1-4.5-.1-.9 0-1.5.4-1.7 1.3-.1.8-.4 1.6-.4 2.3 0 2.2.7 2.8 2.9 2.8 2.8-.1 5.6 0 8.4-.2 3.9-.1 7.8-.5 11.8-.9zM759.2 3.9c-4.1 1.6-8.3.8-12.5.7-1.8-.1-3.5-.2-5.3-.1-2.4.1-3.8 1.7-3.7 4.1 0 1.1.4 1.9 1.6 1.9 1.3 0 2.7-.1 4 0 5.6.7 11.1.1 16.7-.2-.1-2.1 1-4.2-.8-6.4zM622.5 5.4c-3.2.2-6.3.3-9.3.4-2.9.1-5.9.2-8.8.5-1.8.2-2.9 1.9-2.8 3.8.1 1.6 1 2.2 3 2.3 6.3.3 12.4-1.1 18.8-1.5 0-1.9.6-3.8-.9-5.5zM57.8 6.3c-.2.7-.5 1.5-.7 2.3-.4 2 .9 3.7 2.9 3.7 2.9.1 5.7 0 8.6-.1s5.7-.4 8.6-.7c2.1-.2 2.6-1.4 2-3.4C78.5 6 76.7 6 75.1 6c-5.7.1-11.4.2-17.3.3zM438.2 10.4c0-1.2.1-2.3-.1-3.3-.3-1.9-1.4-2.5-3.3-1.9-.9.2-1.8.4-2.8.4-1.1.1-2.2 0-3.3 0-1.5 0-3.1.3-4.5 0-2.7-.5-5.2.1-7.8.3-.6 1.5-1.1 2.8-.6 4.3.4 1 .9 1.7 2.1 1.6 2.4-.1 4.8-.1 7.2-.3 3.7-.2 7.5-.4 11.2-.7.7 0 1.3-.3 1.9-.4zM286.8 10.7c-.3-1.3-.5-2.3-.9-3.2-.5-1.3-1.3-1.5-2.7-1.4-2.7.2-5.4.3-8.1.4-3.7.1-7.4.1-11.3.2-1 2-1.3 3.9.3 5.8 4.7-.2 9.2-.3 13.8-.5 2-.1 4-.2 6-.4 1-.2 1.8-.6 2.9-.9zM347.7 10.9c-.3-1.1-.6-2.1-.9-3.1-.5-1.6-.9-1.8-2.5-1.7-3.1.2-6.2.2-9.3.2-2.9.1-5.9.1-8.9.1-.6 1.4-1 2.8-.6 4.4.4 1.8 1.2 2.2 2.9 2.1 5.3-.4 10.6-.7 15.9-.9 1.2-.1 2.3-.1 3.4-1.1zM514.8 12v.2c1.1 0 2.2.1 3.3-.1 2.6-.3 5.2-.8 7.8-1.1 1.2-.2 1.6-.9 1.7-2 .2-2.9-1.7-4.9-4.6-3.9-3.5 1.2-7.2 1-10.8.9-1.2 0-2.4-.1-3.6.1-.5.1-1.1.5-1.4 1-.4.6-.6 1.3-.7 2-.3 2 .6 3 2.6 3.1 1.9-.1 3.8-.2 5.7-.2zM499.2 9.9c0-1.4.1-2.4-.1-3.4-.2-1.6-.9-2-2.5-1.8-1.6.2-3.3.5-5 .5-3.1.1-6.2 0-9.3 0-1.1 0-2.3.3-3.3.5-.3 1.2-.7 2-.8 2.8-.2 2.1.6 3.1 2.7 2.9 4.5-.3 8.9-.6 13.4-1 1.6.1 3.3-.2 4.9-.5zM110.1 7.2c-.3 1.1-.5 2-.7 2.8-.1.2 0 .5 0 .7 0 1.8.8 2.4 2.6 2.2 6.1-.6 12.2-1.4 18.4-1.2 2 .1 2.7-1 2-2.9-.5-1.3-1.4-1.9-2.8-1.9l-14.8-.3c-1.6.1-3.1.5-4.7.6zM304.6 6.8v-.2c-2.5 0-4.9 0-7.4.2-.6 0-1.5.3-1.6.7-.4 1-.7 2.2-.5 3.2.3 2.1 1 2.4 3.1 2.1.6-.1 1.3-.1 1.9-.2 4.5-.2 8.9-.5 13.4-.7 3.6-.2 4-1 2.8-4.3-.5-1.3-1.3-1.5-2.4-1.4-3.2.1-6.2.4-9.3.6zM29.7 6.8c-.2.9-.5 1.9-.5 2.8 0 2.3 1 3.1 3.3 2.8 4.8-.5 9.6-1.3 14.5-1 2.8.2 3.6-1.3 2.4-3.8-.5-1-1.2-1.4-2.2-1.5-5.8-.2-11.6-.1-17.5.7zM377.5 10.6c-.3-1.2-.5-2.2-.7-3.2-.5-1.7-1.1-2-2.8-1.7-1.4.3-2.8.5-4.2.5-3.4.1-6.9 0-10.3-.1-.8 0-1.6 0-1.7.9-.2 1.1-.4 2.4-.3 3.5.2 1.4 1.1 1.8 2.6 1.7.5-.1 1.1-.1 1.7-.1 4.4-.3 8.8-.5 13.1-.8.7-.1 1.6-.4 2.6-.7zM233.8 6.8c-.1 1-.5 2.2-.5 3.4.1 1.7.9 2.4 2.7 2.3 4.9-.4 9.7-.8 14.6-1.2.9-.1 1.7-.6 2.6-.9-.4-1.3-.6-2.3-1-3.3-.5-1.4-1-1.6-2.5-1.5-5.2.4-10.4.8-15.9 1.2zM223.9 10.9c-.8-1.7-1.2-3.1-1.9-4.3-.8-1.3-2.1-.1-3.1-.2-4.4-.1-8.7-.1-13.1 0-.5 0-1.2.3-1.4.7-.6 1.3-1.1 2.6-.4 4.1.6 1.4 1.1 1.6 2.6 1.4 1.2-.2 2.5-.5 3.8-.4 3.6 0 7.3-.9 10.9-.3.6 0 1.5-.6 2.6-1zM85.8 6.8c-.3 1-.6 1.9-.7 2.7-.2 1.8.8 2.9 2.6 2.8 5.1-.3 10.1-.7 15.2-1.1.9-.1 1.8-.2 2.2-1.1.3-.8-.1-2.5-.9-3-.6-.4-1.3-.7-2-.7-3.7-.1-7.5-.2-11.2-.2-1.8.1-3.5.4-5.2.6zM194.7 11.6c-.2-1.2-.2-2-.4-2.8-.4-1.9-1.3-2.5-3.2-2.2-1.1.2-2.2.3-3.3.4-3.3.1-6.6.1-10 .2-.4 2.2-2.3 4.3.3 6.3 1.6-.2 3.2-.4 4.8-.5l9-.6c.9-.2 1.7-.5 2.8-.8zM2.1 9c.9 3.5 1.2 3.7 3.9 3.7h4.5c3.2.1 6.4.3 9.5.4.9 0 2.5-1.2 2.7-1.9.2-.8-.6-1.8-1.8-2.2-.3-.1-.6-.2-.9-.2-4.2-.8-8.5-1-12.8-.7-1.7.1-3.3.6-5.1.9z"/><path d="M729 11.4c-3.8 0-7.3-.1-10.9-.1-4.4-.1-8.7-.1-13.1-.3-1.8-.1-2.5-.8-2.4-2.6.2-3.4 1.2-4.4 4.4-4.2 3.3.2 6.6.7 10 .9 3.3.2 6.6.3 10 .3 1.6 0 2.1.4 2 2.1-.1 1.4-.1 2.7 0 3.9zM590.4 6.2c1.1 1.2.2 3.1.7 5.1-5.6.5-11 1-16.4 1.4-1.4.1-2.9-.1-4.3-.2-.3 0-.7 0-.9-.2-1.4-.9-1.2-2.4-1-3.7.2-1.1.2-2.5 1.8-2.8 2.8-.5 5.7-.7 8.6-.3 3.6.5 7.4.6 11.5.7zM142.2 6.3c2.6 0 5-.1 7.4-.1 4.2 0 8.4.3 12.6-.1.8-.1 1.6-.3 2.4-.4 1.3-.2 2 .2 2.5 1.5.2.5.3 1.1.5 1.6.5 1.7.1 2.4-1.7 2.4-7 .3-14 .6-21 .8-2.8.1-3.8-1.2-3.2-3.9.1-.6.3-1.2.5-1.8zM790.3 6.7c-.2 1.4-.4 2.4-.5 3.3-.1.9-.1 1.9-.1 2.9-.5.1-1 .2-1.4.2-5.3 0-10.5-.3-15.7-1.2-1.9-.3-2.4-.9-2.1-2.8.2-1.2.5-2.4 1.2-3.3 1.2-1.6 3.1-1.4 4.8-1.3 2.6.2 5.2.6 7.8 1 1.9.2 3.8.7 6 1.2zM658.9 6.5c0 1.7 0 3.4.1 5.3-7 .1-13.9.2-20.8.4-2.1.1-2.9-1.3-2.6-3 .4-2.2 1.3-3.1 3.8-3.2 2.7-.2 5.4-.2 8.2-.2 1.9 0 3.8.2 5.7.4 1.7 0 3.5.1 5.6.3zM535.7 6.8c3.3-1.1 6.5-.7 9.7-.7 3.8.1 7.5.2 11-1 1.3 1.5 1.3 1.5 1.4 5.9-3.5.5-7 1-10.6 1.4-3.1.3-6.2.4-9.3.6-2.2.1-2.9-.6-2.8-2.8 0-1.2.4-2.3.6-3.4zM687.8 3.7c.3 1.2.8 2.1.9 3.1.1 1-.1 2-.1 3.1-4 1.2-8.1 1.5-12.3 1.5-2.3 0-4.6.1-6.9.1-1.6 0-2.2-.6-2.3-2.1-.2-2.2 1-3.9 3.2-4.2 2.5-.3 5.1-.4 7.6-.5 1.8-.1 3.7.2 5.5 0 1.3-.1 2.6-.6 4.4-1zM407.7 10.2c-1.2.1-2.4.3-3.5.4-1.7.1-3.3.3-5 .4-3 .1-6 .1-9.1.2-1.1 0-2.2.3-3.3.4-1.5.1-2.2-.3-2.3-1.8-.1-1.2 0-2.5.4-3.7.1-.4 1.1-.7 1.8-.7 4-.1 8-.1 12-.2 1.8 0 3.6.2 5.4-.5 1.7-.7 2.8.4 3.1 2.2.1.9.2 1.8.5 3.3zM468 11.1c-4 .3-7.9.7-11.8 1-2.8.2-5.6.1-8.4.2-2.2 0-2.9-.6-2.9-2.8 0-.8.2-1.6.4-2.3.2-1 .8-1.3 1.7-1.3 1.5 0 3-.1 4.5.1 4.6.4 9.2.6 13.8-.1 1.3-.2 2 .3 2.2 1.6.2 1 .3 2.1.5 3.6zM759.2 3.9c1.8 2.2.7 4.3.9 6.3-5.6.3-11.2.9-16.7.2-1.3-.2-2.7 0-4 0-1.3 0-1.6-.7-1.6-1.9-.1-2.4 1.3-4 3.7-4.1 1.8-.1 3.5.1 5.3.1 4.1.3 8.4 1 12.4-.6zM622.5 5.4c1.5 1.6.9 3.6 1 5.5-6.4.3-12.5 1.7-18.8 1.5-2-.1-2.9-.7-3-2.3-.2-1.9 1-3.6 2.8-3.8 2.9-.2 5.8-.3 8.8-.5 2.9-.1 5.9-.2 9.2-.4zM57.8 6.3c5.9-.1 11.6-.2 17.3-.2 1.6 0 3.4 0 4.1 2.1.7 2 .1 3.2-2 3.4-2.8.3-5.7.6-8.6.7s-5.7.2-8.6.1c-2 0-3.3-1.7-2.9-3.7.2-.9.5-1.7.7-2.4zM438.2 10.4c-.5.1-1.2.4-1.9.5-3.7.3-7.5.5-11.2.7l-7.2.3c-1.2.1-1.7-.6-2.1-1.6-.5-1.5 0-2.8.6-4.3 2.6-.2 5.1-.8 7.8-.3 1.5.2 3 0 4.5 0 1.1 0 2.2.1 3.3 0 .9-.1 1.9-.2 2.8-.4 1.9-.5 3 0 3.3 2 .1.8 0 1.8.1 3.1zM286.8 10.7c-1.1.3-1.9.7-2.8.8-2 .2-4 .4-6 .4-4.5.2-9.1.3-13.8.5-1.6-1.8-1.3-3.8-.3-5.8 3.8-.1 7.5-.1 11.3-.2 2.7-.1 5.4-.2 8.1-.4 1.4-.1 2.2.1 2.7 1.4.3 1 .4 2 .8 3.3zM347.7 10.9c-1.1 1-2.2 1-3.5 1.1-5.3.2-10.6.6-15.9.9-1.7.1-2.5-.3-2.9-2.1-.3-1.5 0-3 .6-4.4 3-.1 6-.1 8.9-.1 3.1-.1 6.2-.1 9.3-.2 1.6-.1 2 .1 2.5 1.7.3 1 .6 2 1 3.1zM514.8 12c-1.9 0-3.8.1-5.7.1-2 0-2.9-1.1-2.6-3.1.1-.7.3-1.4.7-2 .3-.5.9-.9 1.4-1 1.2-.2 2.4-.1 3.6-.1 3.6.1 7.2.3 10.8-.9 2.9-.9 4.8 1.1 4.6 3.9-.1 1-.5 1.8-1.7 2-2.6.4-5.2.8-7.8 1.1-1.1.1-2.2.1-3.3.1V12zM499.2 9.9c-1.7.2-3.3.5-5 .6-4.5.4-8.9.8-13.4 1-2 .1-2.9-.9-2.7-2.9.1-.9.5-1.7.8-2.8 1.1-.2 2.2-.5 3.3-.5 3.1-.1 6.2 0 9.3 0 1.7 0 3.3-.3 5-.5 1.6-.2 2.2.1 2.5 1.8.3.9.2 2 .2 3.3zM110.1 7.2c1.6-.2 3.1-.5 4.6-.5 5 0 9.9.2 14.8.3 1.3 0 2.3.7 2.8 1.9.7 1.9 0 3-2 2.9-6.2-.3-12.3.6-18.4 1.2-1.8.2-2.5-.4-2.6-2.2v-.7c.3-.9.5-1.7.8-2.9zM304.6 6.8c3.1-.2 6.2-.5 9.2-.7 1.1-.1 2 .1 2.4 1.4 1.2 3.3.7 4.1-2.8 4.3-4.5.2-8.9.5-13.4.7-.6 0-1.3.1-1.9.2-2.1.4-2.9 0-3.1-2.1-.1-1 .2-2.2.5-3.2.1-.4 1-.7 1.6-.7 2.5-.1 4.9-.1 7.4-.2.1.2.1.2.1.3zM29.7 6.8c5.9-.8 11.7-.9 17.5-.6 1.1.1 1.8.5 2.2 1.5 1.2 2.5.3 4-2.4 3.8-4.9-.4-9.7.4-14.5 1-2.2.2-3.3-.6-3.3-2.8 0-1 .3-2 .5-2.9zM377.5 10.6c-1 .3-1.8.6-2.6.7-4.4.3-8.8.5-13.1.8-.6 0-1.1.1-1.7.1-1.5.2-2.4-.2-2.6-1.7-.2-1.1 0-2.4.3-3.5.2-.8 1-.9 1.7-.9 3.4.1 6.9.1 10.3.1 1.4 0 2.8-.2 4.2-.5 1.6-.3 2.3 0 2.8 1.7.2 1 .4 2 .7 3.2zM233.8 6.8c5.5-.4 10.7-.8 15.8-1.2 1.6-.1 2 0 2.5 1.5.3 1 .6 2 1 3.3-.9.3-1.8.8-2.6.9-4.8.5-9.7.8-14.6 1.2-1.7.1-2.6-.5-2.7-2.3 0-1.2.4-2.4.6-3.4zM223.9 10.9c-1.1.4-2 1-2.7.9-3.7-.5-7.3.4-10.9.3-1.3 0-2.5.2-3.8.4-1.5.2-1.9 0-2.6-1.4-.7-1.5-.2-2.8.4-4.1.2-.4.9-.7 1.4-.7h13.1c1 0 2.3-1.1 3.1.2.8 1.3 1.2 2.7 2 4.4zM85.8 6.8c1.7-.2 3.4-.5 5.2-.5 3.7 0 7.5.1 11.2.2.7 0 1.4.3 2 .7.8.5 1.3 2.3.9 3-.4.9-1.3 1.1-2.2 1.1-5.1.3-10.1.7-15.2 1.1-1.8.1-2.8-1-2.6-2.8.1-.9.4-1.7.7-2.8zM194.7 11.6c-1.1.3-2 .6-2.9.7-3 .3-6 .4-9 .6-1.6.1-3.1.4-4.8.5-2.6-2-.8-4.1-.3-6.3 3.4-.1 6.7-.1 10-.2 1.1 0 2.2-.2 3.3-.4 1.9-.3 2.8.3 3.2 2.2.3.9.3 1.7.5 2.9zM2.1 9c1.8-.3 3.4-.8 5-.9 4.4-.3 8.7-.1 12.9.6.4.1.7.1 1 .3 1.2.5 2 1.4 1.8 2.2-.2.7-1.8 2-2.7 1.9-3.2-.1-6.4-.3-9.5-.4-1.5-.1-3 0-4.5 0-2.8 0-3.1-.3-4-3.7z"/></g></svg>