<?xml version="1.0" encoding="utf-8"?>
<!-- Generator: Adobe Illustrator 16.0.1, SVG Export Plug-In . SVG Version: 6.00 Build 0)  -->
<!DOCTYPE svg PUBLIC "-//W3C//DTD SVG 1.1//EN" "http://www.w3.org/Graphics/SVG/1.1/DTD/svg11.dtd">
<svg version="1.1" xmlns="http://www.w3.org/2000/svg" xmlns:xlink="http://www.w3.org/1999/xlink" x="0px" y="0px"
	 width="812.74px" height="20px" viewBox="0 0 812.74 20" enable-background="new 0 0 812.74 20" xml:space="preserve">
<g id="Layer_2">
</g>
<g id="Layer_1">
	<path fill="#FFFFFF" d="M161.48,15.8c9.65,0.17,19.2,0.33,28.67,0.5c0.37-1.06,0.79-1.94,0.95-2.87c0.19-1.08,0.34-2.22,0.17-3.28
		c-0.26-1.61-0.59-1.67-2.3-1.66c-3.92,0.02-7.83,0-11.75-0.07c-4.07-0.07-8.15-0.31-12.22-0.31c-3.53,0-5.41,2.81-4.24,6.14
		C160.93,14.69,161.17,15.11,161.48,15.8z"/>
	<path fill="#FFFFFF" d="M653.28,4.97c-2.95-0.28-5.81-0.51-8.66-0.83c-5.25-0.6-10.5-0.72-15.76-0.35
		c-2.18,0.16-4.39,2.29-4.73,4.41c-0.33,2.07,0.98,3.9,2.82,3.75c6.87-0.56,13.68,0.33,20.51,0.74c1.48,0.09,2.96,0.15,4.15,0.21
		c0.51-1.21,0.68-2.21,1.25-2.85C654.26,8.46,654.61,6.9,653.28,4.97z"/>
	<path fill="#FFFFFF" d="M72.4,15.1c0.39-1.5,0.67-2.65,1-3.77c0.8-2.71-0.35-4.35-3.16-4.47c-0.96-0.04-1.92-0.13-2.87-0.1
		c-7.1,0.28-14.21,0.62-21.31,0.86c-1.16,0.04-1.64,0.81-2.35,1.4c-1.32,1.09-1.39,2.44-0.85,3.9c0.54,1.45,1.6,2.03,3.17,1.96
		c2.07-0.09,4.15,0.06,6.22-0.03c4.3-0.19,8.6-0.42,12.89-0.74C67.52,13.94,69.89,13.51,72.4,15.1z"/>
	<path fill="#FFFFFF" d="M228.89,15.96c0.48-2.38,2.28-4.95,0.48-7.85c-2.15,0-4.22,0-6.29,0c-4.87,0-9.74,0.02-14.61-0.01
		c-1.67-0.01-2.97,0.42-4.17,1.79c-2.11,2.41-2.34,3.62-0.49,6.47C212.11,15.43,220.44,15.74,228.89,15.96z"/>
	<path fill="#FFFFFF" d="M7.23,15.6c8.05,0,15.91,0,23.83,0c0.32-1.85,0.68-3.48,0.87-5.13c0.23-1.98-1.17-3.21-3.17-2.97
		c-0.87,0.1-1.75,0.14-2.63,0.15c-5.74,0.01-11.48,0.01-17.1,0.01C5.45,11.23,5.39,11.52,7.23,15.6z"/>
	<path fill="#FFFFFF" d="M109.97,16.53c0.3-1.07,0.36-2.17,0.88-3c1.25-2.01,0.52-3.57-0.8-5.09c-0.1-0.11-0.26-0.17-0.41-0.25
		c-0.86,0-1.72,0-2.59,0c-5.83,0-11.66,0.06-17.49-0.02c-2.24-0.03-3.49,1.3-4.68,2.81c-1.13,1.43-0.32,2.92,0.16,4.32
		c0.4,1.18,1.59,0.97,2.48,0.95c1.58-0.03,3.16-0.38,4.74-0.39C98.15,15.79,104.06,15.32,109.97,16.53z"/>
	<path fill="#FFFFFF" d="M124.88,15.7c8.61-0.78,17.07-1.34,25.6-0.7c0.54-2.38,2.17-4.83,0-7.44c-2.3,0-4.61,0-6.92,0
		c-4.78-0.01-9.57-0.05-14.35-0.01c-1.01,0.01-2.19,0.01-3,0.5c-2.75,1.68-3.25,3.75-1.88,6.67
		C124.46,15.01,124.64,15.27,124.88,15.7z"/>
	<path fill="#FFFFFF" d="M366,15.91c0.2-0.62,0.35-1.32,0.63-1.95c0.32-0.72,0.75-1.4,1.14-2.09c1.19-2.08,0.28-3.63-2.19-3.76
		c-1.2-0.06-2.39-0.26-3.58-0.29c-5.59-0.12-11.17-0.23-16.76-0.27c-1.29-0.01-3.69,2.07-4.04,3.3c-0.58,2.03,0.68,3.79,2.88,3.89
		c4.7,0.23,9.4,0.39,14.1,0.62C360.72,15.49,363.27,15.71,366,15.91z"/>
	<path fill="#FFFFFF" d="M502.25,12.91c0.79-1.66,1.37-2.86,1.94-4.06c0.53-1.11,0.33-2.15-0.26-3.2c-0.61-1.05-1.48-0.62-2.33-0.55
		c-0.71,0.06-1.44,0.02-2.16,0.02c-5.28,0.04-10.55,0.18-15.83,0.09c-2.25-0.04-3.35,1.31-4.26,2.9c-0.9,1.58,0.39,4.14,2.09,4.31
		c2.28,0.22,4.58,0.37,6.87,0.46c1.92,0.08,3.84,0.03,5.76,0.03C496.86,12.91,499.65,12.91,502.25,12.91z"/>
	<path fill="#FFFFFF" d="M398.09,14.85c0.7-1.28,1.13-2.3,1.76-3.18c1.6-2.24,1.68-2.25-0.2-4.1c-0.44-0.43-1.2-0.67-1.84-0.72
		c-0.94-0.08-1.91,0.12-2.86,0.16c-4.71,0.18-9.42,0.43-14.13,0.5c-2.15,0.03-3.38,1.33-4.42,2.8c-1.12,1.59,0.04,4.44,1.7,4.58
		c1.82,0.15,3.64,0.39,5.46,0.37C388.44,15.19,393.31,14.99,398.09,14.85z"/>
	<path fill="#FFFFFF" d="M792.98,12.73c0.7-1.58,1.39-3.31,2.21-4.98c0.62-1.28,0.59-2.41-0.4-3.59c-1.41,0-2.84,0-4.27,0
		c-4.13,0-8.27-0.06-12.4,0.04c-0.96,0.02-2.04,0.41-2.83,0.97c-2.48,1.75-2.96,4.25-1.55,7.56C780,12.73,786.35,12.73,792.98,12.73
		z"/>
	<path fill="#FFFFFF" d="M537.08,11.96c0.49-1.65,1.05-3.06,1.3-4.52c0.5-2.88-0.14-3.68-3.01-3.65
		c-5.42,0.06-10.84,0.33-16.26,0.33c-1.78,0-2.8,0.82-3.78,2.03c-0.99,1.24-0.73,2.49-0.18,3.81c0.54,1.27,1.54,1.42,2.73,1.42
		c2.31,0.01,4.62,0.07,6.93,0.15C528.87,11.66,532.91,11.81,537.08,11.96z"/>
	<path fill="#FFFFFF" d="M413.73,13.46c6.94,0.21,13.77,0.41,20.31,0.61c0.87-1.47,1.64-2.72,2.36-4c0.86-1.52-0.16-3.76-1.8-3.82
		c-5.5-0.2-11-0.31-16.49-0.49c-2.43-0.08-3.65,1.67-4.96,3.22c-0.3,0.36-0.35,1.08-0.26,1.59
		C413.05,11.49,413.4,12.38,413.73,13.46z"/>
	<path fill="#FFFFFF" d="M722.37,11.33c0.28-1.03,0.37-1.74,0.67-2.37c0.3-0.64,0.85-1.15,1.2-1.77c1.07-1.93-0.06-3.98-2.19-4
		c-5.18-0.03-10.36-0.05-15.54-0.06c-2.08-0.01-4.35,2.03-4.55,4.07c-0.24,2.38,0.86,3.66,3.25,3.76c1.27,0.05,2.57-0.06,3.81,0.16
		C713.44,11.9,717.86,11.53,722.37,11.33z"/>
	<path fill="#FFFFFF" d="M606,11.75c0.77-1.81,1.38-3.23,1.99-4.64c0.79-1.83-0.16-3.66-2.12-3.69c-4.86-0.08-9.71-0.07-14.57,0.01
		c-0.79,0.01-1.72,0.43-2.32,0.96c-2.22,1.94-2.27,3.67-0.28,6.61C594.45,11.25,600.3,11.5,606,11.75z"/>
	<path fill="#FFFFFF" d="M685.94,11.57c-0.04-0.23-0.07-0.47-0.11-0.7c0.72-0.98,1.4-2.01,2.19-2.93c0.63-0.74,1.39-1.39,1.11-2.47
		c-0.34-1.35-2.26-2.63-3.7-2.54c-4.22,0.26-8.45,0.62-12.67,0.75c-2.29,0.07-3.52,1.49-4.44,3.14c-0.73,1.31-0.24,2.84,0.52,4.12
		c0.73,1.22,1.89,0.83,3.02,0.7c1.03-0.12,2.07-0.05,3.11-0.05C678.63,11.57,682.28,11.57,685.94,11.57z"/>
	<path fill="#FFFFFF" d="M262.72,8c-5.36,0-10.62,0.1-15.88-0.05c-2.08-0.06-3.64,0.61-5.07,1.98c-1.12,1.08-1.42,2.77-0.79,4.4
		c0.58,1.51,1.78,0.99,2.84,1c5.98,0.05,11.99-0.62,18.02,0.63C262.55,13.51,263.81,11.14,262.72,8z"/>
	<path fill="#FFFFFF" d="M759.31,5.63c-3.21,0-6.31,0.06-9.41-0.02c-2.39-0.06-4.77-0.29-7.15-0.42c-1.94-0.11-3.17,1.02-3.94,2.59
		c-1.21,2.47,0.25,4.84,2.93,5.01c2.3,0.15,4.6,0.38,6.91,0.52c3.07,0.19,6.15,0.53,8.89-0.16c1.09-1.9,2.03-3.53,3.02-5.25
		C760.21,7.26,759.83,6.57,759.31,5.63z"/>
	<path fill="#FFFFFF" d="M466.99,4.58c-1.51,0.09-2.85,0.16-4.2,0.25c-4.13,0.26-8.27,0.47-12.39,0.8
		c-3.04,0.24-4.72,3.55-3.27,6.22c0.38,0.69,0.86,1.04,1.7,1.02c5.71-0.09,11.43-0.14,16.96-0.2c0.56-1.11,0.86-1.93,1.35-2.62
		C468.93,7.53,468.95,7.31,466.99,4.58z"/>
	<path fill="#FFFFFF" d="M295.65,5.23c-0.67,0.09-1.22,0.22-1.77,0.23c-4.46,0.11-8.93,0.19-13.39,0.32
		c-0.61,0.02-1.33,0.04-1.79,0.36c-2.81,1.92-3.12,3.65-1.21,6.87c5.81,0,11.76,0,17.7,0C297.2,7.37,297.2,7.37,295.65,5.23z"/>
	<path fill="#FFFFFF" d="M569.68,11.69c0.69-1.42,1.2-2.75,1.95-3.92c0.6-0.93,1.25-1.71,0.38-2.75c-0.7-0.84-1.27-1.88-2.62-1.79
		c-4.05,0.25-8.12,0.41-12.16,0.76c-1.88,0.16-3.78,2.31-3.63,4.13c0.09,1.12,0.62,2.34,1.31,3.23c0.4,0.51,1.54,0.58,2.35,0.59
		c3.66,0.01,7.31-0.07,10.97-0.13C568.78,11.81,569.33,11.72,569.68,11.69z"/>
	<path fill="#FFFFFF" d="M326.5,4.99c-4.74,0.31-9.67,0.68-14.59,0.93c-1.9,0.1-2.77,1.49-3.65,2.73c-0.8,1.12-0.35,2.43,0.29,3.62
		c0.61,1.13,1.57,0.82,2.51,0.78c1.84-0.07,3.67-0.14,5.51-0.15c3.23-0.02,6.47-0.01,9.59-0.01C326.87,10.31,328.73,8.05,326.5,4.99
		z"/>
	<path fill-rule="evenodd" clip-rule="evenodd" d="M161.48,15.8c-0.31-0.68-0.55-1.11-0.71-1.56c-1.17-3.33,0.71-6.15,4.24-6.14
		c4.07,0,8.14,0.24,12.22,0.31c3.92,0.07,7.83,0.09,11.75,0.07c1.71-0.01,2.04,0.05,2.3,1.66c0.17,1.06,0.02,2.21-0.17,3.28
		c-0.16,0.93-0.59,1.8-0.95,2.87C180.68,16.13,171.13,15.96,161.48,15.8z"/>
	<path fill-rule="evenodd" clip-rule="evenodd" d="M653.28,4.97c1.33,1.92,0.98,3.49-0.43,5.07c-0.57,0.64-0.74,1.64-1.25,2.85
		c-1.19-0.06-2.67-0.12-4.15-0.21c-6.83-0.4-13.64-1.3-20.51-0.74c-1.84,0.15-3.15-1.68-2.82-3.75c0.34-2.12,2.55-4.25,4.73-4.41
		c5.26-0.38,10.52-0.25,15.76,0.35C647.47,4.47,650.32,4.69,653.28,4.97z"/>
	<path fill-rule="evenodd" clip-rule="evenodd" d="M72.4,15.1c-2.5-1.59-4.88-1.16-7.27-0.99c-4.29,0.31-8.59,0.54-12.89,0.74
		c-2.07,0.09-4.15-0.05-6.22,0.03c-1.57,0.07-2.63-0.52-3.17-1.96c-0.55-1.46-0.47-2.81,0.85-3.9c0.71-0.59,1.2-1.36,2.35-1.4
		c7.1-0.24,14.21-0.58,21.31-0.86c0.96-0.04,1.92,0.05,2.87,0.1c2.81,0.12,3.96,1.76,3.16,4.47C73.06,12.45,72.79,13.6,72.4,15.1z"
		/>
	<path fill-rule="evenodd" clip-rule="evenodd" d="M228.89,15.96c-8.45-0.22-16.78-0.53-25.09,0.39c-1.86-2.85-1.62-4.06,0.49-6.47
		c1.2-1.37,2.5-1.8,4.17-1.79c4.87,0.03,9.74,0.01,14.61,0.01c2.07,0,4.14,0,6.29,0C231.17,11,229.37,13.58,228.89,15.96z"/>
	<path fill-rule="evenodd" clip-rule="evenodd" d="M7.23,15.6c-1.84-4.08-1.78-4.37,1.8-7.94c5.62,0,11.36,0.01,17.1-0.01
		c0.88,0,1.76-0.04,2.63-0.15c2-0.24,3.4,0.99,3.17,2.97c-0.19,1.65-0.55,3.27-0.87,5.13C23.14,15.6,15.28,15.6,7.23,15.6z"/>
	<path fill-rule="evenodd" clip-rule="evenodd" d="M109.97,16.53c-5.91-1.21-11.81-0.74-17.7-0.67c-1.58,0.02-3.16,0.36-4.74,0.39
		c-0.9,0.02-2.08,0.23-2.48-0.95c-0.48-1.4-1.28-2.89-0.16-4.32c1.18-1.51,2.44-2.84,4.68-2.81c5.83,0.08,11.66,0.02,17.49,0.02
		c0.87,0,1.73,0,2.59,0c0.14,0.09,0.31,0.14,0.41,0.25c1.32,1.53,2.05,3.08,0.8,5.09C110.33,14.36,110.27,15.46,109.97,16.53z"/>
	<path fill-rule="evenodd" clip-rule="evenodd" d="M124.88,15.7c-0.24-0.43-0.42-0.69-0.55-0.98c-1.37-2.92-0.87-5,1.88-6.67
		c0.81-0.49,1.99-0.49,3-0.5c4.78-0.04,9.57,0,14.35,0.01c2.31,0,4.62,0,6.92,0c2.18,2.61,0.55,5.05,0,7.44
		C141.95,14.36,133.49,14.92,124.88,15.7z"/>
	<path fill-rule="evenodd" clip-rule="evenodd" d="M366,15.91c-2.73-0.19-5.28-0.42-7.82-0.54c-4.7-0.23-9.4-0.39-14.1-0.62
		c-2.19-0.11-3.45-1.86-2.88-3.89c0.35-1.22,2.75-3.31,4.04-3.3c5.59,0.05,11.17,0.16,16.76,0.27c1.19,0.03,2.39,0.22,3.58,0.29
		c2.46,0.12,3.38,1.68,2.19,3.76c-0.39,0.69-0.82,1.37-1.14,2.09C366.35,14.59,366.2,15.28,366,15.91z"/>
	<path fill-rule="evenodd" clip-rule="evenodd" d="M502.25,12.91c-2.6,0-5.39,0-8.18,0c-1.92,0-3.84,0.05-5.76-0.03
		c-2.29-0.09-4.59-0.23-6.87-0.46c-1.71-0.17-3-2.72-2.09-4.31c0.91-1.59,2.01-2.93,4.26-2.9c5.27,0.08,10.55-0.05,15.83-0.09
		c0.72-0.01,1.44,0.03,2.16-0.02c0.85-0.07,1.73-0.5,2.33,0.55c0.6,1.04,0.79,2.08,0.26,3.2C503.62,10.05,503.05,11.25,502.25,12.91
		z"/>
	<path fill-rule="evenodd" clip-rule="evenodd" d="M398.09,14.85c-4.79,0.14-9.65,0.34-14.52,0.41c-1.82,0.03-3.64-0.21-5.46-0.37
		c-1.66-0.14-2.82-2.99-1.7-4.58c1.04-1.47,2.27-2.77,4.42-2.8c4.71-0.07,9.42-0.31,14.13-0.5c0.96-0.04,1.92-0.23,2.86-0.16
		c0.63,0.05,1.4,0.29,1.84,0.72c1.88,1.85,1.81,1.86,0.2,4.1C399.22,12.55,398.79,13.57,398.09,14.85z"/>
	<path fill-rule="evenodd" clip-rule="evenodd" d="M792.98,12.73c-6.64,0-12.99,0-19.25,0c-1.41-3.31-0.92-5.8,1.55-7.56
		c0.79-0.56,1.87-0.94,2.83-0.97c4.13-0.1,8.27-0.04,12.4-0.04c1.43,0,2.86,0,4.27,0c0.99,1.17,1.02,2.3,0.4,3.59
		C794.38,9.42,793.68,11.15,792.98,12.73z"/>
	<path fill-rule="evenodd" clip-rule="evenodd" d="M537.08,11.96c-4.17-0.15-8.22-0.3-12.26-0.43c-2.31-0.07-4.62-0.14-6.93-0.15
		c-1.19,0-2.19-0.15-2.73-1.42c-0.56-1.32-0.81-2.57,0.18-3.81c0.97-1.21,2-2.04,3.78-2.03c5.42,0.01,10.84-0.27,16.26-0.33
		c2.87-0.03,3.51,0.77,3.01,3.65C538.13,8.91,537.57,10.31,537.08,11.96z"/>
	<path fill-rule="evenodd" clip-rule="evenodd" d="M413.73,13.46c-0.33-1.08-0.68-1.97-0.84-2.89c-0.09-0.51-0.04-1.23,0.26-1.59
		c1.32-1.55,2.54-3.3,4.96-3.22c5.5,0.18,11,0.29,16.49,0.49c1.64,0.06,2.65,2.3,1.8,3.82c-0.72,1.28-1.49,2.53-2.36,4
		C427.49,13.87,420.66,13.67,413.73,13.46z"/>
	<path fill-rule="evenodd" clip-rule="evenodd" d="M722.37,11.33c-4.5,0.21-8.92,0.58-13.36-0.2c-1.24-0.22-2.54-0.11-3.81-0.16
		c-2.39-0.1-3.49-1.38-3.25-3.76c0.21-2.04,2.48-4.07,4.55-4.07c5.18,0.01,10.36,0.03,15.54,0.06c2.13,0.01,3.26,2.07,2.19,4
		c-0.35,0.62-0.9,1.13-1.2,1.77C722.74,9.58,722.65,10.3,722.37,11.33z"/>
	<path fill-rule="evenodd" clip-rule="evenodd" d="M606,11.75c-5.7-0.25-11.55-0.5-17.3-0.75c-1.99-2.95-1.94-4.67,0.28-6.61
		c0.61-0.53,1.54-0.94,2.32-0.96c4.86-0.08,9.71-0.1,14.57-0.01c1.96,0.03,2.91,1.86,2.12,3.69C607.38,8.52,606.77,9.94,606,11.75z"
		/>
	<path fill-rule="evenodd" clip-rule="evenodd" d="M685.94,11.57c-3.66,0-7.31,0-10.97,0c-1.04,0-2.09-0.07-3.11,0.05
		c-1.12,0.13-2.29,0.52-3.02-0.7c-0.76-1.28-1.25-2.81-0.52-4.12c0.92-1.65,2.16-3.07,4.44-3.14c4.23-0.13,8.45-0.49,12.67-0.75
		c1.44-0.09,3.35,1.19,3.7,2.54c0.28,1.08-0.48,1.74-1.11,2.47c-0.79,0.92-1.46,1.95-2.19,2.93
		C685.87,11.11,685.9,11.34,685.94,11.57z"/>
	<path fill-rule="evenodd" clip-rule="evenodd" d="M262.72,8c1.09,3.14-0.17,5.51-0.88,7.96c-6.03-1.25-12.03-0.58-18.02-0.63
		c-1.06-0.01-2.26,0.51-2.84-1c-0.63-1.63-0.33-3.32,0.79-4.4c1.43-1.38,2.99-2.04,5.07-1.98C252.1,8.1,257.37,8,262.72,8z"/>
	<path fill-rule="evenodd" clip-rule="evenodd" d="M759.31,5.63c0.52,0.94,0.9,1.63,1.25,2.26c-0.99,1.72-1.93,3.35-3.02,5.25
		c-2.74,0.69-5.82,0.35-8.89,0.16c-2.3-0.14-4.6-0.37-6.91-0.52c-2.67-0.17-4.13-2.54-2.93-5.01c0.77-1.57,2-2.69,3.94-2.59
		c2.38,0.13,4.77,0.37,7.15,0.42C753,5.69,756.1,5.63,759.31,5.63z"/>
	<path fill-rule="evenodd" clip-rule="evenodd" d="M466.99,4.58c1.96,2.73,1.94,2.95,0.16,5.47c-0.49,0.69-0.79,1.51-1.35,2.62
		c-5.54,0.06-11.25,0.11-16.96,0.2c-0.84,0.01-1.32-0.33-1.7-1.02c-1.46-2.66,0.23-5.98,3.27-6.22c4.13-0.33,8.26-0.54,12.39-0.8
		C464.14,4.74,465.48,4.67,466.99,4.58z"/>
	<path fill-rule="evenodd" clip-rule="evenodd" d="M295.65,5.23c1.54,2.13,1.54,2.13-0.46,7.78c-5.94,0-11.89,0-17.7,0
		c-1.92-3.22-1.6-4.95,1.21-6.87c0.47-0.32,1.19-0.34,1.79-0.36c4.46-0.12,8.93-0.2,13.39-0.32C294.43,5.45,294.98,5.32,295.65,5.23
		z"/>
	<path fill-rule="evenodd" clip-rule="evenodd" d="M569.68,11.69c-0.35,0.03-0.9,0.12-1.45,0.13c-3.66,0.06-7.31,0.14-10.97,0.13
		c-0.81,0-1.95-0.08-2.35-0.59c-0.7-0.88-1.22-2.11-1.31-3.23c-0.15-1.83,1.74-3.97,3.63-4.13c4.04-0.35,8.11-0.51,12.16-0.76
		c1.36-0.09,1.93,0.95,2.62,1.79c0.87,1.04,0.22,1.83-0.38,2.75C570.88,8.93,570.38,10.26,569.68,11.69z"/>
	<path fill-rule="evenodd" clip-rule="evenodd" d="M326.5,4.99c2.22,3.06,0.37,5.32-0.35,7.91c-3.12,0-6.35-0.02-9.59,0.01
		c-1.84,0.01-3.67,0.08-5.51,0.15c-0.94,0.04-1.9,0.35-2.51-0.78c-0.64-1.19-1.09-2.51-0.29-3.62c0.88-1.23,1.75-2.63,3.65-2.73
		C316.84,5.67,321.76,5.3,326.5,4.99z"/>
</g>
</svg>
