<?xml version="1.0" encoding="utf-8"?>
<!-- Generator: Adobe Illustrator 16.0.1, SVG Export Plug-In . SVG Version: 6.00 Build 0)  -->
<!DOCTYPE svg PUBLIC "-//W3C//DTD SVG 1.1//EN" "http://www.w3.org/Graphics/SVG/1.1/DTD/svg11.dtd">
<svg version="1.1" xmlns="http://www.w3.org/2000/svg" xmlns:xlink="http://www.w3.org/1999/xlink" x="0px" y="0px"
	 width="744.74px" height="20px" viewBox="0 0 744.74 20" enable-background="new 0 0 744.74 20" xml:space="preserve">
<g id="Layer_2">
</g>
<g id="Layer_1">
	<path fill="#FFFFFF" d="M601.34,5.95c-0.51-0.12-0.96-0.33-1.4-0.3c-7.02,0.39-14.04,0.76-21.06,1.24
		c-1.68,0.11-2.89,2.1-2.81,4.16c0.08,1.89,0.33,2.11,2.75,2.38c0.24,0.03,0.48,0.04,0.72,0.04c3.41,0.02,6.82,0.2,10.22,0.01
		c3.21-0.18,6.39-0.74,9.42-1.12C600.04,10.09,601.44,8.34,601.34,5.95z"/>
	<path fill="#FFFFFF" d="M703.23,8.74c-1.1-0.12-1.76-0.26-2.41-0.25c-1.9,0.02-3.82,0.29-5.7,0.12c-3.97-0.35-7.92-0.9-11.89-1.4
		c-3.81-0.47-6.33,2.42-5.33,6.39c7.37,0.41,14.58,3.84,22.25,1.4C701.09,13.09,702.06,11.11,703.23,8.74z"/>
	<path fill="#FFFFFF" d="M381.54,5.96c-0.36-0.08-0.59-0.17-0.82-0.18c-5.18-0.11-10.36-0.24-15.54-0.29
		c-3.28-0.03-6.51,0.29-9.67,1.26c-1.4,0.43-2.4,1.22-2.96,2.54c-0.91,2.11,0.03,3.41,2.3,3.26c2.69-0.17,5.38-0.33,8.07-0.5
		c2.62-0.17,5.25-0.24,7.85-0.53c2.99-0.34,5.95-0.87,9.38-1.39C381.1,9.34,381.67,7.88,381.54,5.96z"/>
	<path fill="#FFFFFF" d="M634.45,6.26c-2.07-0.13-3.72-0.32-5.37-0.32c-5.02,0.02-10.05,0.09-15.07,0.18
		c-2.66,0.04-3.68,0.75-4.36,2.87c-0.64,2.01-0.06,3.08,2.04,3.32c3.08,0.35,6.18,0.45,9.26,0.81c3.75,0.44,7.43-0.08,11.16-0.33
		C632.88,10.64,633.61,8.6,634.45,6.26z"/>
	<path fill="#FFFFFF" d="M532.44,5.84c-1.43-0.33-2.32-0.72-3.21-0.72c-4.87,0-9.73,0.01-14.59,0.18c-2.63,0.1-3.85,1.31-4.51,3.85
		c-0.64,2.48,0.24,3.63,2.82,3.58c3.35-0.07,6.7-0.18,10.04-0.29c2.28-0.07,4.56-0.18,6.78-0.27
		C530.65,10.07,531.44,8.21,532.44,5.84z"/>
	<path fill="#FFFFFF" d="M565.46,10.73c0.53-1.38,0.96-2.39,1.31-3.43c0.36-1.08,0.63-2.19,1.02-3.56c-1.74-0.13-3.08-0.38-4.4-0.3
		c-4.45,0.26-8.92,0.48-13.33,1.03c-2.86,0.35-4.46,2.83-4.06,5.49c0.23,1.53,0.93,2.02,2.47,1.89c2.35-0.19,4.7-0.32,7.04-0.48
		C558.9,11.16,562.31,10.94,565.46,10.73z"/>
	<path fill="#FFFFFF" d="M441.05,5.39c-0.67-0.11-1.05-0.24-1.43-0.22c-3.02,0.17-6.04,0.42-9.06,0.56
		c-3.19,0.14-6.38,0.2-9.57,0.27c-1.02,0.02-1.92,0.27-2.42,1.23c-0.82,1.6-1.4,3.23-0.15,5.16c7,0.32,14.13,1.35,21.35-1.09
		C440.17,9.47,440.6,7.48,441.05,5.39z"/>
	<path fill="#FFFFFF" d="M479.18,11.69c7.05,1.11,13.82,1.72,20.66,1.07c1.82-4.42,1.82-4.42,1.39-6.46
		c-6.36-0.33-12.76-1.01-19.21-0.75c-1.75,0.07-2.97,1.65-3.06,3.67C478.94,10,479.1,10.78,479.18,11.69z"/>
	<path fill="#FFFFFF" d="M139.92,7.68c-0.9-0.09-1.75-0.25-2.6-0.26c-3.44-0.02-6.88-0.05-10.31,0.05
		c-3.43,0.11-6.87,0.32-10.29,0.59c-1.91,0.15-2.78,1.31-2.81,3.42c-0.02,1.54,0.46,1.97,2.69,2.26c0.87,0.11,1.75,0.1,2.63,0.09
		c4.15-0.05,8.31-0.07,12.46-0.19c1.82-0.05,3.65-0.24,5.45-0.52c1.72-0.27,2.59-1.37,2.72-3.12C139.9,9.29,139.89,8.59,139.92,7.68
		z"/>
	<path fill="#FFFFFF" d="M178.62,12.94c7.91,0.82,15.55-1.34,23.2-0.65c1.49-2.51,1.53-2.7,1.24-5.98
		c-1.22-0.03-2.47-0.14-3.72-0.09c-5.9,0.21-11.81,0.45-17.71,0.69c-2.48,0.1-3.83,1.67-3.55,4.17
		C178.15,11.62,178.38,12.14,178.62,12.94z"/>
	<path fill="#FFFFFF" d="M665.72,7.25c-0.34-0.11-0.56-0.25-0.79-0.25c-6.07-0.01-12.14-0.04-18.21,0.02
		c-0.63,0.01-1.37,0.42-1.86,0.87c-1.03,0.94-1.56,2.18-1.67,3.6c-0.12,1.55,0.03,1.8,1.64,1.93c2.54,0.2,5.08,0.39,7.62,0.53
		c1.66,0.09,3.33,0.2,4.97,0.06c2.03-0.17,4.03-0.58,6.17-0.91c0.4-0.75,0.87-1.67,1.35-2.58C665.48,9.55,666.2,8.64,665.72,7.25z"
		/>
	<path fill="#FFFFFF" d="M37.38,13.43c0.38,0.14,0.46,0.19,0.53,0.2c6.71,0.25,13.42,0.54,20.13,0.73c1.51,0.04,2.45-1.24,2.41-2.93
		c-0.03-0.93-0.07-1.86-0.12-2.93c-0.34-0.1-0.78-0.31-1.23-0.33c-4.86-0.19-9.72-0.39-14.58-0.51C43.1,7.62,41.65,7.7,40.24,7.9
		c-2.44,0.34-3.02,1.19-3.14,3.68C37.07,12.18,37.28,12.8,37.38,13.43z"/>
	<path fill="#FFFFFF" d="M171.37,6.79c-0.25-0.19-0.32-0.28-0.38-0.28c-6.86,0.07-13.72,0.13-20.58,0.25
		c-0.4,0.01-0.95,0.32-1.16,0.66c-0.8,1.32-1.24,2.75-1,4.34c0.13,0.86,0.62,1.26,1.44,1.3c0.48,0.02,0.96,0.01,1.44-0.01
		c5.66-0.26,11.32-0.52,16.97-0.8c1.82-0.09,3.21-1.45,3.35-3.29C171.49,8.25,171.4,7.53,171.37,6.79z"/>
	<path fill="#FFFFFF" d="M88.31,7.64c-0.39-0.13-0.62-0.27-0.84-0.26c-6.31,0.28-12.62,0.51-18.92,0.9
		c-2.37,0.15-3.44,1.62-3.39,4.06c0.03,1.72,0.35,2.14,2.11,2.1c3.27-0.09,6.54-0.31,9.81-0.48c3.02-0.16,6.03-0.34,9.05-0.47
		c0.85-0.04,1.38-0.35,1.52-1.18C87.89,10.75,88.09,9.19,88.31,7.64z"/>
	<path fill="#FFFFFF" d="M317.57,6.88c-0.99-0.17-1.52-0.34-2.05-0.34c-5.1,0.02-10.2,0.03-15.3,0.12c-3.13,0.05-4.42,1.3-4.76,4.41
		c-0.17,1.54,0.22,2,1.79,1.99c3.18-0.01,6.36-0.02,9.54-0.1c2.94-0.07,5.88-0.23,9.05-0.35C316.39,10.77,316.94,8.97,317.57,6.88z"
		/>
	<path fill="#FFFFFF" d="M230.33,6.9c-0.65-0.1-1.19-0.25-1.73-0.25c-6.07,0.01-12.13,0.03-18.2,0.08c-2.32,0.02-2.9,0.5-3.51,2.71
		c-0.41,1.46,0.02,2.33,1.48,2.71c0.92,0.24,1.89,0.42,2.84,0.4c5.95-0.13,11.91-0.33,17.86-0.5C230.56,9.31,230.56,9.31,230.33,6.9
		z"/>
	<path fill="#FFFFFF" d="M324.46,14.51c6.36,0.09,12.33,0.17,18.3,0.26c0.82,0.01,1.21-0.44,1.64-1.12
		c0.93-1.48,1.01-3.08,1.25-4.79c-2.15-0.12-4.12-0.25-6.1-0.33c-3.59-0.13-7.18-0.3-10.77-0.32c-2.48-0.01-3.57,0.84-4.19,3.13
		C324.36,12.22,324.5,13.2,324.46,14.51z"/>
	<path fill="#FFFFFF" d="M732.04,6.54c-2.17,0.24-3.73,0.53-5.3,0.56c-2.94,0.06-5.9,0.12-8.83-0.09c-2.72-0.19-5.24,2.69-5.6,4.99
		c-0.19,1.18,0.28,1.84,1.48,1.95c2.76,0.25,5.53,0.5,8.3,0.68c1.66,0.11,3.33,0.14,5,0.1c0.89-0.02,1.68-0.33,2.06-1.33
		c0.45-1.17,1.07-2.27,1.56-3.42C731.16,8.93,731.54,7.84,732.04,6.54z"/>
	<path fill="#FFFFFF" d="M289.34,5.53c-6.36,0.26-12.26,0.39-18.15,0.77c-3.31,0.21-4.98,3.3-3.9,6.52
		c3.03-0.25,6.02-0.51,9.02-0.74c3.1-0.24,6.2-0.46,9.3-0.69c1.46-0.11,2.67-0.63,3.07-2.16C288.96,8.16,289.08,7.06,289.34,5.53z"
		/>
	<path fill="#FFFFFF" d="M389.14,11.52c5.74-0.23,11.48-0.44,17.21-0.73c0.54-0.03,1.27-0.42,1.56-0.87
		c0.99-1.52,1.74-3.17,1.66-5.42c-2.33,0.09-4.56,0.17-6.79,0.28c-3.51,0.16-7.02,0.4-10.53,0.49c-1.47,0.04-2.4,0.7-3,1.93
		C388.57,8.57,388.09,9.99,389.14,11.52z"/>
	<path fill="#FFFFFF" d="M258.14,13.07c1.19-1.58,1.73-3.34,1.5-5.61c-1.26-0.16-2.56-0.41-3.88-0.47
		c-3.74-0.18-7.48-0.25-11.22-0.41c-4.02-0.17-6.06,2.61-4.75,6.55C245.9,13.11,252.01,13.09,258.14,13.07z"/>
	<path fill="#FFFFFF" d="M466.05,12.79c1.08-2.03,2.39-3.7,1.62-6.15c-1.28-0.11-2.54-0.33-3.79-0.32
		c-3.99,0.05-7.97,0.17-11.95,0.29c-2.64,0.08-3.99,1.53-4,4.21c0,1.77,0.29,2.15,2.03,2.14C455.3,12.93,460.63,12.85,466.05,12.79z
		"/>
	<path fill="#FFFFFF" d="M110.03,7.74c-0.25-0.14-0.38-0.27-0.52-0.28c-5.03-0.47-10.03-0.08-15,0.67
		c-0.55,0.08-1.25,0.56-1.49,1.05c-0.79,1.56-1.43,3.2-0.52,5.11c5.58,0.47,11.05-0.92,16.42-0.77
		C110.3,11.6,110.26,9.66,110.03,7.74z"/>
	<path fill="#FFFFFF" d="M29.67,6.44c-3.96,0.16-7.76,0.27-11.56,0.49c-1.42,0.08-2.85,0.32-4.24,0.65
		c-2.15,0.51-2.91,2.28-1.99,4.79c1.17-0.05,2.43-0.1,3.69-0.15c3.81-0.13,7.62-0.2,11.42-0.43c0.68-0.04,1.43-0.58,1.97-1.08
		C30.19,9.58,29.8,8.07,29.67,6.44z"/>
	<path fill-rule="evenodd" clip-rule="evenodd" d="M601.34,5.95c0.11,2.4-1.3,4.15-2.17,6.42c-3.03,0.38-6.22,0.94-9.42,1.12
		c-3.4,0.19-6.81,0.01-10.22-0.01c-0.24,0-0.48-0.02-0.72-0.04c-2.42-0.27-2.67-0.49-2.75-2.38c-0.08-2.05,1.13-4.04,2.81-4.16
		c7.02-0.48,14.04-0.86,21.06-1.24C600.37,5.62,600.82,5.83,601.34,5.95z"/>
	<path fill-rule="evenodd" clip-rule="evenodd" d="M703.23,8.74c-1.17,2.37-2.14,4.35-3.08,6.26c-7.67,2.44-14.88-1-22.25-1.4
		c-0.99-3.97,1.52-6.86,5.33-6.39c3.96,0.49,7.91,1.05,11.89,1.4c1.88,0.17,3.8-0.1,5.7-0.12C701.47,8.48,702.13,8.62,703.23,8.74z"
		/>
	<path fill-rule="evenodd" clip-rule="evenodd" d="M381.54,5.96c0.13,1.92-0.45,3.38-1.4,4.17c-3.42,0.52-6.39,1.05-9.38,1.39
		c-2.6,0.29-5.23,0.36-7.85,0.53c-2.69,0.17-5.38,0.33-8.07,0.5c-2.27,0.15-3.21-1.15-2.3-3.26c0.57-1.32,1.56-2.11,2.96-2.54
		c3.16-0.97,6.4-1.29,9.67-1.26c5.18,0.05,10.36,0.19,15.54,0.29C380.95,5.78,381.18,5.88,381.54,5.96z"/>
	<path fill-rule="evenodd" clip-rule="evenodd" d="M634.45,6.26c-0.84,2.34-1.57,4.38-2.34,6.53c-3.73,0.25-7.41,0.77-11.16,0.33
		c-3.08-0.36-6.18-0.46-9.26-0.81c-2.1-0.24-2.68-1.31-2.04-3.32c0.68-2.12,1.71-2.82,4.36-2.87c5.02-0.08,10.05-0.16,15.07-0.18
		C630.73,5.94,632.38,6.14,634.45,6.26z"/>
	<path fill-rule="evenodd" clip-rule="evenodd" d="M532.44,5.84c-1,2.37-1.78,4.23-2.67,6.34c-2.22,0.09-4.5,0.19-6.78,0.27
		c-3.35,0.11-6.69,0.22-10.04,0.29c-2.58,0.05-3.47-1.09-2.82-3.58c0.66-2.55,1.88-3.76,4.51-3.85c4.86-0.18,9.73-0.19,14.59-0.18
		C530.11,5.12,531,5.5,532.44,5.84z"/>
	<path fill-rule="evenodd" clip-rule="evenodd" d="M565.46,10.73c-3.15,0.21-6.56,0.43-9.96,0.65c-2.35,0.15-4.7,0.28-7.04,0.48
		c-1.54,0.13-2.23-0.36-2.47-1.89c-0.41-2.66,1.2-5.14,4.06-5.49c4.42-0.55,8.88-0.77,13.33-1.03c1.32-0.08,2.67,0.17,4.4,0.3
		c-0.39,1.37-0.66,2.48-1.02,3.56C566.42,8.34,565.99,9.35,565.46,10.73z"/>
	<path fill-rule="evenodd" clip-rule="evenodd" d="M441.05,5.39c-0.45,2.09-0.88,4.07-1.28,5.92c-7.21,2.44-14.35,1.41-21.35,1.09
		c-1.25-1.93-0.67-3.57,0.15-5.16c0.49-0.96,1.39-1.21,2.42-1.23c3.19-0.07,6.38-0.13,9.57-0.27c3.02-0.14,6.04-0.38,9.06-0.56
		C439.99,5.15,440.38,5.29,441.05,5.39z"/>
	<path fill-rule="evenodd" clip-rule="evenodd" d="M479.18,11.69c-0.08-0.91-0.25-1.69-0.22-2.47c0.08-2.02,1.31-3.6,3.06-3.67
		c6.44-0.26,12.85,0.42,19.21,0.75c0.43,2.04,0.43,2.04-1.39,6.46C493.01,13.41,486.24,12.8,479.18,11.69z"/>
	<path fill-rule="evenodd" clip-rule="evenodd" d="M139.92,7.68c-0.02,0.91-0.02,1.62-0.07,2.32c-0.13,1.75-0.99,2.85-2.72,3.12
		c-1.8,0.29-3.63,0.47-5.45,0.52c-4.15,0.12-8.31,0.14-12.46,0.19c-0.88,0.01-1.76,0.02-2.63-0.09c-2.23-0.29-2.71-0.72-2.69-2.26
		c0.03-2.11,0.9-3.27,2.81-3.42c3.42-0.26,6.86-0.48,10.29-0.59c3.43-0.11,6.87-0.07,10.31-0.05
		C138.17,7.42,139.02,7.58,139.92,7.68z"/>
	<path fill-rule="evenodd" clip-rule="evenodd" d="M178.62,12.94c-0.23-0.8-0.47-1.32-0.53-1.86c-0.28-2.5,1.07-4.07,3.55-4.17
		c5.9-0.24,11.81-0.49,17.71-0.69c1.25-0.04,2.5,0.06,3.72,0.09c0.28,3.28,0.24,3.47-1.24,5.98
		C194.17,11.6,186.53,13.76,178.62,12.94z"/>
	<path fill-rule="evenodd" clip-rule="evenodd" d="M665.72,7.25c0.48,1.38-0.25,2.3-0.76,3.27c-0.49,0.91-0.96,1.83-1.35,2.58
		c-2.14,0.33-4.14,0.74-6.17,0.91c-1.65,0.14-3.32,0.02-4.97-0.06c-2.54-0.14-5.08-0.32-7.62-0.53c-1.61-0.13-1.76-0.38-1.64-1.93
		c0.11-1.42,0.64-2.66,1.67-3.6c0.49-0.45,1.23-0.86,1.86-0.87c6.07-0.06,12.14-0.04,18.21-0.02
		C665.16,7.01,665.39,7.14,665.72,7.25z"/>
	<path fill-rule="evenodd" clip-rule="evenodd" d="M37.38,13.43c-0.1-0.63-0.32-1.25-0.29-1.86c0.12-2.49,0.7-3.34,3.14-3.68
		c1.42-0.2,2.86-0.28,4.29-0.24c4.86,0.13,9.72,0.32,14.58,0.51C59.56,8.19,60,8.41,60.34,8.5c0.04,1.07,0.09,2,0.12,2.93
		c0.05,1.69-0.89,2.97-2.41,2.93c-6.71-0.2-13.42-0.48-20.13-0.73C37.84,13.63,37.76,13.58,37.38,13.43z"/>
	<path fill-rule="evenodd" clip-rule="evenodd" d="M171.37,6.79c0.03,0.74,0.13,1.45,0.07,2.16c-0.14,1.85-1.52,3.2-3.35,3.29
		c-5.66,0.28-11.31,0.54-16.97,0.8c-0.48,0.02-0.96,0.03-1.44,0.01c-0.82-0.04-1.31-0.44-1.44-1.3c-0.24-1.59,0.21-3.02,1-4.34
		c0.2-0.34,0.76-0.65,1.16-0.66c6.86-0.12,13.72-0.18,20.58-0.25C171.05,6.52,171.11,6.61,171.37,6.79z"/>
	<path fill-rule="evenodd" clip-rule="evenodd" d="M88.31,7.64c-0.22,1.55-0.42,3.11-0.67,4.67c-0.13,0.83-0.67,1.15-1.52,1.18
		c-3.02,0.12-6.03,0.31-9.05,0.47c-3.27,0.17-6.54,0.39-9.81,0.48c-1.76,0.05-2.08-0.37-2.11-2.1c-0.04-2.45,1.03-3.92,3.39-4.06
		c6.3-0.39,12.61-0.62,18.92-0.9C87.69,7.37,87.92,7.51,88.31,7.64z"/>
	<path fill-rule="evenodd" clip-rule="evenodd" d="M317.57,6.88c-0.63,2.1-1.18,3.9-1.73,5.72c-3.17,0.13-6.11,0.28-9.05,0.35
		c-3.18,0.08-6.36,0.09-9.54,0.1c-1.57,0.01-1.95-0.44-1.79-1.99c0.34-3.1,1.63-4.36,4.76-4.41c5.1-0.08,10.2-0.1,15.3-0.12
		C316.05,6.53,316.58,6.7,317.57,6.88z"/>
	<path fill-rule="evenodd" clip-rule="evenodd" d="M230.33,6.9c0.23,2.41,0.23,2.41-1.27,5.15c-5.95,0.17-11.91,0.37-17.86,0.5
		c-0.94,0.02-1.92-0.16-2.84-0.4c-1.46-0.38-1.88-1.25-1.48-2.71c0.62-2.21,1.2-2.69,3.51-2.71c6.07-0.05,12.13-0.07,18.2-0.08
		C229.14,6.64,229.68,6.8,230.33,6.9z"/>
	<path fill-rule="evenodd" clip-rule="evenodd" d="M324.46,14.51c0.04-1.31-0.1-2.29,0.14-3.17c0.61-2.29,1.71-3.14,4.19-3.13
		c3.59,0.02,7.18,0.18,10.77,0.32c1.98,0.07,3.96,0.21,6.1,0.33c-0.24,1.71-0.32,3.32-1.25,4.79c-0.43,0.68-0.82,1.13-1.64,1.12
		C336.79,14.68,330.82,14.6,324.46,14.51z"/>
	<path fill-rule="evenodd" clip-rule="evenodd" d="M732.04,6.54c-0.5,1.3-0.88,2.38-1.33,3.44c-0.49,1.15-1.12,2.25-1.56,3.42
		c-0.38,1.01-1.17,1.31-2.06,1.33c-1.67,0.04-3.34,0-5-0.1c-2.77-0.18-5.53-0.42-8.3-0.68c-1.2-0.11-1.67-0.77-1.48-1.95
		c0.37-2.3,2.88-5.18,5.6-4.99c2.93,0.2,5.89,0.15,8.83,0.09C728.31,7.07,729.87,6.78,732.04,6.54z"/>
	<path fill-rule="evenodd" clip-rule="evenodd" d="M289.34,5.53c-0.27,1.53-0.38,2.63-0.66,3.69c-0.4,1.54-1.62,2.05-3.07,2.16
		c-3.1,0.23-6.2,0.45-9.3,0.69c-3,0.23-5.99,0.49-9.02,0.74c-1.08-3.21,0.59-6.3,3.9-6.52C277.08,5.92,282.98,5.78,289.34,5.53z"/>
	<path fill-rule="evenodd" clip-rule="evenodd" d="M389.14,11.52c-1.05-1.54-0.57-2.95,0.1-4.32c0.6-1.23,1.53-1.89,3-1.93
		c3.51-0.09,7.02-0.33,10.53-0.49c2.23-0.1,4.46-0.18,6.79-0.28c0.08,2.24-0.66,3.9-1.66,5.42c-0.29,0.45-1.01,0.84-1.56,0.87
		C400.62,11.08,394.88,11.29,389.14,11.52z"/>
	<path fill-rule="evenodd" clip-rule="evenodd" d="M258.14,13.07c-6.13,0.02-12.24,0.03-18.35,0.05c-1.31-3.94,0.73-6.72,4.75-6.55
		c3.74,0.16,7.48,0.23,11.22,0.41c1.31,0.06,2.62,0.31,3.88,0.47C259.87,9.74,259.34,11.49,258.14,13.07z"/>
	<path fill-rule="evenodd" clip-rule="evenodd" d="M466.05,12.79c-5.43,0.06-10.76,0.14-16.08,0.17c-1.74,0.01-2.03-0.37-2.03-2.14
		c0-2.68,1.36-4.13,4-4.21c3.98-0.12,7.97-0.24,11.95-0.29c1.25-0.01,2.51,0.21,3.79,0.32C468.45,9.09,467.13,10.77,466.05,12.79z"
		/>
	<path fill-rule="evenodd" clip-rule="evenodd" d="M110.03,7.74c0.24,1.93,0.27,3.87-1.11,5.77c-5.36-0.14-10.83,1.25-16.42,0.77
		c-0.91-1.91-0.27-3.55,0.52-5.11c0.25-0.49,0.94-0.96,1.49-1.05c4.97-0.75,9.97-1.14,15-0.67C109.65,7.47,109.77,7.6,110.03,7.74z"
		/>
	<path fill-rule="evenodd" clip-rule="evenodd" d="M29.67,6.44c0.13,1.63,0.52,3.14-0.7,4.27c-0.54,0.5-1.29,1.04-1.97,1.08
		c-3.8,0.22-7.61,0.3-11.42,0.43c-1.26,0.04-2.51,0.1-3.69,0.15c-0.93-2.51-0.16-4.28,1.99-4.79c1.39-0.33,2.82-0.57,4.24-0.65
		C21.91,6.71,25.71,6.6,29.67,6.44z"/>
</g>
</svg>
