<svg version="1.1" id="Layer_1" xmlns="http://www.w3.org/2000/svg" x="0" y="0" viewBox="0 0 804 20" xml:space="preserve"><style>.st0{fill:#fff}</style><g id="Layer_1_1_"><path class="st0" d="M161.5 15.8c9.6.2 19.2.3 28.7.5.4-1.1.8-1.9.9-2.9.2-1.1.3-2.2.2-3.3-.3-1.6-.6-1.7-2.3-1.7-3.9 0-7.8 0-11.8-.1-4.1-.1-8.1-.3-12.2-.3-3.5 0-5.4 2.8-4.2 6.1.1.6.4 1 .7 1.7zM653.3 5c-3-.3-5.8-.5-8.7-.8-5.2-.6-10.5-.7-15.8-.3-2.2.2-4.4 2.3-4.7 4.4-.3 2.1 1 3.9 2.8 3.8 6.9-.6 13.7.3 20.5.7 1.5.1 3 .1 4.2.2.5-1.2.7-2.2 1.2-2.9 1.5-1.6 1.8-3.2.5-5.1zM72.4 15.1c.4-1.5.7-2.6 1-3.8.8-2.7-.3-4.3-3.2-4.5-1 0-1.9-.1-2.9-.1-7 .3-14.1.7-21.2.9-1.2 0-1.6.8-2.3 1.4-1.3 1.1-1.4 2.4-.8 3.9.5 1.4 1.6 2 3.2 2 2.1-.1 4.2.1 6.2 0 4.3-.2 8.6-.4 12.9-.7 2.2-.3 4.6-.7 7.1.9zM228.9 16c.5-2.4 2.3-4.9.5-7.8h-20.9c-1.7 0-3 .4-4.2 1.8-2.1 2.4-2.3 3.6-.5 6.5 8.3-1.1 16.6-.8 25.1-.5zM7.2 15.6H31c.3-1.9.7-3.5.9-5.1.2-2-1.2-3.2-3.2-3-.9.1-1.8.1-2.6.2H9c-3.6 3.5-3.6 3.8-1.8 7.9zM110 16.5c.3-1.1.4-2.2.9-3 1.2-2 .5-3.6-.8-5.1-.1-.1-.3-.2-.4-.2h-2.6c-5.8 0-11.7.1-17.5 0-2.2 0-3.5 1.3-4.7 2.8-1.1 1.4-.3 2.9.2 4.3.4 1.2 1.6 1 2.5 1 1.6 0 3.2-.4 4.7-.4 5.9-.1 11.8-.6 17.7.6zM124.9 15.7c8.6-.8 17.1-1.3 25.6-.7.5-2.4 2.2-4.8 0-7.4h-6.9c-4.8 0-9.6-.1-14.4 0-1 0-2.2 0-3 .5-2.8 1.7-3.2 3.8-1.9 6.7.2.2.3.5.6.9zM366 15.9c.2-.6.4-1.3.6-1.9.3-.7.8-1.4 1.1-2.1 1.2-2.1.3-3.6-2.2-3.8-1.2-.1-2.4-.3-3.6-.3l-16.8-.3c-1.3 0-3.7 2.1-4 3.3-.6 2 .7 3.8 2.9 3.9l14.1.6c2.6.2 5.2.4 7.9.6zM502.2 12.9c.8-1.7 1.4-2.9 1.9-4.1.5-1.1.3-2.2-.3-3.2-.6-1.1-1.5-.6-2.3-.6-.7.1-1.4 0-2.2 0-5.3 0-10.5.2-15.8.1-2.2 0-3.4 1.3-4.3 2.9-.9 1.6.4 4.1 2.1 4.3 2.3.2 4.6.4 6.9.5 1.9.1 3.8 0 5.8 0 2.9.1 5.6.1 8.2.1zM398.1 14.9c.7-1.3 1.1-2.3 1.8-3.2 1.6-2.2 1.7-2.2-.2-4.1-.4-.4-1.2-.7-1.8-.7-1-.1-2 .1-2.9.1-4.7.2-9.4.4-14.1.5-2.1 0-3.4 1.3-4.4 2.8-1.1 1.6 0 4.4 1.7 4.6 1.8.1 3.6.4 5.5.4 4.7-.1 9.6-.3 14.4-.4zM793 12.7c.7-1.6 1.4-3.3 2.2-5 .6-1.3.6-2.4-.4-3.6h-4.3c-4.1 0-8.3-.1-12.4 0-1 0-2 .4-2.8 1-2.5 1.8-3 4.2-1.5 7.6H793zM537.1 12c.5-1.6 1-3.1 1.3-4.5.5-2.9-.1-3.7-3-3.7-5.4.1-10.8.3-16.3.3-1.8 0-2.8.8-3.8 2s-.7 2.5-.2 3.8c.5 1.3 1.5 1.4 2.7 1.4 2.3 0 4.6.1 6.9.1 4.2.3 8.2.4 12.4.6zM413.7 13.5c6.9.2 13.8.4 20.3.6.9-1.5 1.6-2.7 2.4-4 .9-1.5-.2-3.8-1.8-3.8-5.5-.2-11-.3-16.5-.5-2.4-.1-3.6 1.7-5 3.2-.3.4-.4 1.1-.3 1.6.2.9.6 1.8.9 2.9zM722.4 11.3c.3-1 .4-1.7.7-2.4.3-.6.8-1.2 1.2-1.8 1.1-1.9-.1-4-2.2-4-5.2 0-10.4 0-15.5-.1-2.1 0-4.3 2-4.5 4.1-.2 2.4.9 3.7 3.2 3.8 1.3.1 2.6-.1 3.8.2 4.3.8 8.8.4 13.3.2zM606 11.8c.8-1.8 1.4-3.2 2-4.6.8-1.8-.2-3.7-2.1-3.7-4.9-.1-9.7-.1-14.6 0-.8 0-1.7.4-2.3 1-2.2 1.9-2.3 3.7-.3 6.6 5.8.1 11.6.4 17.3.7zM685.9 11.6c0-.2-.1-.5-.1-.7.7-1 1.4-2 2.2-2.9.6-.7 1.4-1.4 1.1-2.5-.3-1.3-2.3-2.6-3.7-2.5-4.2.3-8.5.6-12.7.8-2.3.1-3.5 1.5-4.4 3.1-.7 1.3-.2 2.8.5 4.1.7 1.2 1.9.8 3 .7 1-.1 2.1-.1 3.1-.1h11zM262.7 8c-5.4 0-10.6.1-15.9-.1-2.1-.1-3.6.6-5.1 2-1.1 1.1-1.4 2.8-.8 4.4.6 1.5 1.8 1 2.8 1 6 .1 12-.6 18 .6.8-2.4 2.1-4.8 1-7.9zM759.3 5.6c-3.2 0-6.3.1-9.4 0-2.4-.1-4.8-.3-7.2-.4-1.9-.1-3.2 1-3.9 2.6-1.2 2.5.2 4.8 2.9 5 2.3.1 4.6.4 6.9.5 3.1.2 6.2.5 8.9-.2 1.1-1.9 2-3.5 3-5.2-.3-.6-.7-1.3-1.2-2.3zM467 4.6c-1.5.1-2.9.2-4.2.2-4.1.3-8.3.5-12.4.8-3 .2-4.7 3.6-3.3 6.2.4.7.9 1 1.7 1 5.7-.1 11.4-.1 17-.2.6-1.1.9-1.9 1.4-2.6 1.7-2.5 1.8-2.7-.2-5.4zM295.6 5.2c-.7.1-1.2.2-1.8.2l-13.4.3c-.6 0-1.3 0-1.8.4-2.8 1.9-3.1 3.7-1.2 6.9h17.7c2.1-5.6 2.1-5.6.5-7.8zM569.7 11.7c.7-1.4 1.2-2.8 2-3.9.6-.9 1.2-1.7.4-2.8-.7-.8-1.3-1.9-2.6-1.8-4 .2-8.1.4-12.2.8-1.9.2-3.8 2.3-3.6 4.1.1 1.1.6 2.3 1.3 3.2.4.5 1.5.6 2.3.6 3.7 0 7.3-.1 11-.1.5 0 1-.1 1.4-.1zM326.5 5c-4.7.3-9.7.7-14.6.9-1.9.1-2.8 1.5-3.6 2.7-.8 1.1-.4 2.4.3 3.6.6 1.1 1.6.8 2.5.8 1.8-.1 3.7-.1 5.5-.1h9.6c.7-2.6 2.5-4.8.3-7.9z"/><path d="M161.5 15.8c-.3-.7-.6-1.1-.7-1.6-1.2-3.3.7-6.1 4.2-6.1 4.1 0 8.1.2 12.2.3 3.9.1 7.8.1 11.8.1 1.7 0 2 .1 2.3 1.7.2 1.1 0 2.2-.2 3.3-.2.9-.6 1.8-.9 2.9-9.5-.3-19.1-.4-28.7-.6zM653.3 5c1.3 1.9 1 3.5-.4 5.1-.6.6-.7 1.6-1.2 2.8-1.2-.1-2.7-.1-4.2-.2-6.8-.4-13.6-1.3-20.5-.7-1.8.1-3.2-1.7-2.8-3.8.3-2.1 2.5-4.2 4.7-4.4 5.3-.4 10.5-.2 15.8.3 2.8.4 5.6.6 8.6.9zM72.4 15.1c-2.5-1.6-4.9-1.2-7.3-1-4.3.3-8.6.5-12.9.7-2.1.1-4.2-.1-6.2 0-1.6.1-2.6-.5-3.2-2-.5-1.5-.5-2.8.8-3.9.7-.6 1.2-1.4 2.3-1.4 7.3-.1 14.4-.5 21.5-.7 1 0 1.9.1 2.9.1 2.8.1 4 1.8 3.2 4.5-.4 1-.7 2.2-1.1 3.7zM228.9 16c-8.4-.2-16.8-.5-25.1.4-1.9-2.9-1.6-4.1.5-6.5 1.2-1.4 2.5-1.8 4.2-1.8h20.9c1.8 2.9 0 5.5-.5 7.9zM7.2 15.6C5.4 11.5 5.4 11.2 9 7.7h17.1c.9 0 1.8 0 2.6-.2 2-.2 3.4 1 3.2 3-.2 1.6-.5 3.3-.9 5.1H7.2zM110 16.5c-5.9-1.2-11.8-.7-17.7-.7-1.6 0-3.2.4-4.7.4-.9 0-2.1.2-2.5-.9-.5-1.4-1.3-2.9-.2-4.3 1.2-1.5 2.4-2.8 4.7-2.8 5.8.1 11.7 0 17.5 0h2.6c.1.1.3.1.4.2 1.3 1.5 2.1 3.1.8 5.1-.6.9-.6 2-.9 3zM124.9 15.7c-.2-.4-.4-.7-.6-1-1.4-2.9-.9-5 1.9-6.7.8-.5 2-.5 3-.5h21.3c2.2 2.6.6 5.1 0 7.4-8.6-.5-17 0-25.6.8zM366 15.9c-2.7-.2-5.3-.4-7.8-.5l-14.1-.6c-2.2-.1-3.5-1.9-2.9-3.9.4-1.2 2.8-3.3 4-3.3l16.8.3c1.2 0 2.4.2 3.6.3 2.5.1 3.4 1.7 2.2 3.8-.4.7-.8 1.4-1.1 2.1-.3.5-.5 1.2-.7 1.8zM502.2 12.9H494c-1.9 0-3.8.1-5.8 0-2.3-.1-4.6-.2-6.9-.5-1.7-.2-3-2.7-2.1-4.3s2-2.9 4.3-2.9c5.3.1 10.5-.1 15.8-.1h2.2c.9-.1 1.7-.5 2.3.6.6 1 .8 2.1.3 3.2-.5 1.2-1.1 2.3-1.9 4zM398.1 14.9c-4.8.1-9.6.3-14.5.4-1.8 0-3.6-.2-5.5-.4-1.7-.1-2.8-3-1.7-4.6 1-1.5 2.3-2.8 4.4-2.8 4.7-.1 9.4-.3 14.1-.5 1 0 1.9-.2 2.9-.2.6.1 1.4.3 1.8.7 1.9 1.9 1.8 1.9.2 4.1-.6 1-1 2-1.7 3.3zM793 12.7h-19.2c-1.4-3.3-.9-5.8 1.5-7.6.8-.6 1.9-.9 2.8-1 4.1-.1 8.3 0 12.4 0h4.3c1 1.2 1 2.3.4 3.6-.8 1.7-1.5 3.4-2.2 5zM537.1 12c-4.2-.1-8.2-.3-12.3-.4-2.3-.1-4.6-.1-6.9-.1-1.2 0-2.2-.1-2.7-1.4-.6-1.3-.8-2.6.2-3.8 1-1.2 2-2 3.8-2 5.4 0 10.8-.3 16.3-.3 2.9 0 3.5.8 3 3.7-.4 1.2-.9 2.6-1.4 4.3zM413.7 13.5c-.3-1.1-.7-2-.8-2.9-.1-.5 0-1.2.3-1.6 1.3-1.6 2.5-3.3 5-3.2 5.5.2 11 .3 16.5.5 1.6.1 2.6 2.3 1.8 3.8-.7 1.3-1.5 2.5-2.4 4-6.6-.2-13.4-.4-20.4-.6zM722.4 11.3c-4.5.2-8.9.6-13.4-.2-1.2-.2-2.5-.1-3.8-.2-2.4-.1-3.5-1.4-3.2-3.8.2-2 2.5-4.1 4.5-4.1 5.2 0 10.4 0 15.5.1 2.1 0 3.3 2.1 2.2 4-.3.6-.9 1.1-1.2 1.8-.3.7-.3 1.4-.6 2.4zM606 11.8c-5.7-.2-11.5-.5-17.3-.8-2-2.9-1.9-4.7.3-6.6.6-.5 1.5-.9 2.3-1 4.9-.1 9.7-.1 14.6 0 2 0 2.9 1.9 2.1 3.7-.6 1.4-1.2 2.8-2 4.7zM685.9 11.6h-11c-1 0-2.1-.1-3.1.1-1.1.1-2.3.5-3-.7-.8-1.3-1.2-2.8-.5-4.1.9-1.7 2.2-3.1 4.4-3.1 4.2-.1 8.5-.5 12.7-.8 1.4-.1 3.3 1.2 3.7 2.5.3 1.1-.5 1.7-1.1 2.5-.8.9-1.5 1.9-2.2 2.9.1.2.1.4.1.7zM262.7 8c1.1 3.1-.2 5.5-.9 8-6-1.2-12-.6-18-.6-1.1 0-2.3.5-2.8-1-.6-1.6-.3-3.3.8-4.4 1.4-1.4 3-2 5.1-2 5.2.1 10.5 0 15.8 0zM759.3 5.6c.5.9.9 1.6 1.2 2.3-1 1.7-1.9 3.3-3 5.2-2.7.7-5.8.4-8.9.2-2.3-.1-4.6-.4-6.9-.5-2.7-.2-4.1-2.5-2.9-5 .8-1.6 2-2.7 3.9-2.6 2.4.1 4.8.4 7.2.4 3.1.1 6.2 0 9.4 0zM467 4.6c2 2.7 1.9 2.9.2 5.5-.5.7-.8 1.5-1.4 2.6-5.5.1-11.2.1-17 .2-.8 0-1.3-.3-1.7-1-1.5-2.7.2-6 3.3-6.2 4.1-.3 8.3-.5 12.4-.8 1.3-.2 2.7-.2 4.2-.3zM295.6 5.2c1.5 2.1 1.5 2.1-.5 7.8h-17.7c-1.9-3.2-1.6-4.9 1.2-6.9.5-.3 1.2-.3 1.8-.4l13.4-.3c.6 0 1.2-.1 1.8-.2zM569.7 11.7c-.3 0-.9.1-1.5.1-3.7.1-7.3.1-11 .1-.8 0-2-.1-2.3-.6-.7-.9-1.2-2.1-1.3-3.2-.2-1.8 1.7-4 3.6-4.1 4-.3 8.1-.5 12.2-.8 1.4-.1 1.9 1 2.6 1.8.9 1 .2 1.8-.4 2.8-.7 1.1-1.2 2.5-1.9 3.9zM326.5 5c2.2 3.1.4 5.3-.4 7.9h-9.6c-1.8 0-3.7.1-5.5.1-.9 0-1.9.4-2.5-.8-.6-1.2-1.1-2.5-.3-3.6.9-1.2 1.8-2.6 3.6-2.7 5-.2 10-.6 14.7-.9z"/></g></svg>