<svg xmlns="http://www.w3.org/2000/svg" class='has-graph' viewBox="0 0 470 392"><g class="grid"><path fill="#fff" d="M414.4 277.4v-23.7-3.3l.1-6 .3-6.3v-4l-.2-4.6c0-.5.2-1 .1-1.6l-.3-3.6c-.2-1.4.5-2.8.2-4.3-.4-1.6-.2-3.2-.2-4.8v-9.5-8.7-6c0-3.5-.2-7 0-10.4.1-2.9.3-5.7.2-8.6l-.2-6.1v-10.4-6V136l-.1-12.6v-11.8-16.5c.2-6.5-.5-12.9.4-19.3.3-2-.3-4.2-.4-6.2l.2-3.6-.2-12.1v-7l.1-14.8.2-2.5-.3-6c0-.3.2-.6.3-.8 0-.6.4-1.4.1-1.8-.7-1-.3-2 0-3 .2-.8.1-1.7 0-2.5l-.3-1.2c0-1.1-.7-2.7-1.4-2.7-2-.3-4-.6-5.9-.6H60.2c-1.2.1-2.3.4-3.2 1.3-.4.4-1 .4-1.5.7-.4.2-1 .4-1.1.8-.2.4-.2 1-.3 1.5L54 24l-.1 74.4v119.3c0 6.8-.3 13.7-.5 20.5-.1 4.5-.4 9-.4 13.5v117.2h4.5v.8c0 1.9.1 2 2 2l2.7-.1h13.4l10.5-.2h323.3l1.5-.1c.6-.3 1.6-.7 1.8-1.3.2-1 .7-1.3 1.7-1.2v-1.5-38.7c0-.8 0-1.8.5-2.5a4 4 0 0 0 .2-4.1 7 7 0 0 1-.5-3l.3-4c0-1.2-.5-2.4-.5-3.6 0-2.2.3-4.3.3-6.5l-.3-6V290v-5.4c0-1.1 0-1.2 1.1-1.4v-5.5l-1.1-.3z"/><path fill-rule="evenodd" clip-rule="evenodd" d="M414.4 277.4l1.1.3v5.4c-1.1.2-1.2.3-1.1 1.5v14.3c0 1.9.3 3.9.3 5.9l-.3 6.4c0 1.2.4 2.4.4 3.6l-.2 4c0 1 0 2.2.4 3a4 4 0 0 1-.1 4.1c-.4.7-.5 1.7-.5 2.6v40.1c-1 0-1.5.3-1.8 1.3-.1.5-1 1-1.8 1.2-.4.2-.9 0-1.4 0H108l-21.9.2H75.7l-13.5.1h-2.7c-1.8 0-1.9 0-2-1.8v-.8H53v-1.5-115.7c0-4.5.4-9 .5-13.6.2-6.8.5-13.6.5-20.5V98.3 23.9l.2-8.5c0-.5 0-1.1.3-1.5.2-.4.7-.6 1-.9.5-.2 1.2-.3 1.6-.7.9-.9 2-1.1 3.2-1.3h346.9c2 0 4 .4 6 .6.6.1 1.3 1.7 1.3 2.7 0 .5.3.8.3 1.3 0 .8.2 1.7 0 2.5-.3 1-.7 2 0 3 .3.4 0 1.1-.1 1.7 0 .3-.3.5-.3.8l.3 6-.2 2.6-.1 14.8v7l.2 12-.2 3.6c0 2.1.7 4.2.4 6.2-.9 6.5-.3 13-.4 19.3v54.3l.1 6v10.4a94.6 94.6 0 0 1 0 14.7c-.3 3.5-.1 7 0 10.4V215c0 1.6-.2 3.3.2 4.8.3 1.6-.4 3-.2 4.4.1 1.1.3 2.3.3 3.5v1.6l.2 4.6-.1 4-.3 6.4-.1 6v27zM337 144h-9.6c-.5 1.3.5 2.3-.3 3.7-.6.9 0 2.6 0 3.9 0 1.3.7 2.5-.1 3.8-.2.2 0 .5 0 .8l.4 2.4-.2 3.7c0 1.3.4 2.5.6 3.8.3 2.2 0 2.9-2 3.6 0 .5.2 1 0 1.3-.3.6 0 .9 0 1.4.2.7.1 1.8-.3 2.3-.9 1.2-1 1.4.2 2l-2 2.5.5 1 .4-.7.4.7.3-.2-.8-1.2.2-.3 1 1 .2 1.3h.3l-.6 2.7c1.5.2.4 1.5.8 2.2h38.7l.4-8v-3.8l-.3-6-.3-8.1-.2-7c.1-2.9.8-5.8-.5-8.8l-.4 1h-.9c-.6 0-1.2.1-1.7-.1-.7-.3-2-.3-2.4.4-.3.9-.9.7-1.9.7l1.2-1.2-.2-.7-3.7 1.9c-.5.1-1.2.2-1.5 0-1.3-1.5-2.7-.3-4-.4-.5-.8-.8-1-2.9-1-.3 0-.7.6-1 1v-.6h-4.4l-1.1.9-.4-1.5h-.6v.7l-1.3.1V144zM190 185.3c1 0 1.7.2 2.6 0 1.6-.3 3.3-.2 5-.2l11.7.2 9-.1 8.1.1c1.7 0 1.7 0 1.7-1.7l.1-.3.5-6.3.1-3.3.1-6.3.1-5 .1-7.6v-4.2-5.2h-39.9v7.6l.2.7c.2.5.5 1 .5 1.6v29.9zm47.2-40.2V175.7l-.3 2.7c0 1 .5 2-.4 2.7-.2.1 0 .6.1 1 0 .2.3.4.3.7 0 .9-.2 1.8-.3 2.4h3.8c2.4 0 4.7.2 7 .1 3.9 0 7.6-.2 11.4-.3l8.8-.2h2.5c1.1 0 2.3-.4 3.4-.3 1 .2 1.1-.2 1-1l-.1-5.5.1-10.1c0-3.4 0-6.7.2-10l.6-12.8h-38.1zM190 194.2c0 .5 0 1.4-.2 1.5-.8.5-.6 1.2-.6 1.8V230.8c.1.3.4.7.7.8l12.4.2 19.3.2 1.6.2h3c.7 0 1.6-.5 1.5-1.3v-4l.1-8.3v-14.4l.2-9.4c0-1.3-1-1.9-2.3-1.3-.3.2-.9.3-1 .1-1.1-.8-2-.8-3.4-.4-1.9.5-4 .4-6 .5-1.4 0-2.8.2-4.2 0-1.1-.3-2.3.2-3.3-.6h-.7c-1.4 1-2.9.5-4.3.5s-2.7 0-4.3-.2c-.4-.8-1-.5-1.5 0l-1.5-.2-1.6.2-4 .8zm63.6 37.8h3.3c1 0 1.9-.5 2.7.3l.4-.1c.7-.2 1.3-.5 2-.5l5.7.2c.7 0 1.3.2 2 .1.9 0 1.8-.3 2.7 0 1 0 1.1-.4 1.1-1v-2.3l.4-10.9.7-14.4v-8.9c0-1.4-.2-1.8-1.6-1.7l-7.5.3h-3.2c-1 0-2.2-.4-3 0-1.2.5-1.9 0-2.6-.5-.8-.5-1.2-.3-1.3.4l-1.9.4.4-.9c-.8.1-1.9-.7-2 1.1l-.4-1c-.7 1-1.3 1.1-2 .2-.5-.6-.8-.5-1.1.1-.2.3-.6.5-.9.5l-3.2-.3c-1 0-2 0-3 .2l-1 .2c-.7 0-1.4-.3-2.2-.3-1.1 0-1.8.9-1.8 2.3V231.3c.1.8.4 1.1 1.4.9 1.1-.3 2.4-.4 3.6-.4.7 0 1.6.5 2.3.3 1.4-.4 2.8-.3 4.3-.1.6 0 1.4.5 1.9.2 1.2-.5 2.6-.5 3.6.3l.2-.5zM190 277l.8.1 36.5-.4c1 0 1.2-.3 1-1v-2.4l-.3-16.3v-13l-.1-4-2 .2c-.9 0-1.9.1-2.7-.3-.8-.4-1.4-.4-2 .3l-.3-.8-.3-.1-.6 1v-.4c-.3-.1-.6-.4-1-.4l-8.2.7h-.8c-1-.7-1-.7-2.2-.5h-.3c-1-.3-1.8-.6-2.9-.3-1.2.2-2.5-.3-3.7-.2-1 .1-2.4-.6-3 .9v-.8c-2.2-.2-4.4-.6-6.5.6-.2-2.2-1.5 1-2-.4v29.8c0 1.1.6 2.2 0 3.4-.3.5.3 1.4.5 2.1h.2l-.1 2.2zm-43.3-90.8l3 .2c1 .1 1.8.3 2.8.3.7 0 1.4-.4 2.1-.3 3.2.1 6.3.4 9.5.2h2.8l7.6.2h5.6c1 0 1.3-.2 1.3-1.2v-30.7l-.1-1c-1-.2-.6-1-.6-1.5v-7c-3.8.2-7.5.5-11.2.5-2.6 0-5.3-.2-8 .4-1.3.3-2.8.1-4.3.2H146l-.1.9v30l.1.9c.9.2.6 1 .6 1.5v6.4zM364 230.4V227v-7.8l.3-7.3.2-13.5c0-1.3.4-2.7.5-4 0-.4-.4-1-.9-1H358l-10.6.2h-8.2c-.9 0-1.7-.2-2.8-.4-.6.8-1.8.5-2.9.5-1 0-2.2.4-2.6-.6-.7.2-1.3.5-1.8.5-.7 0-1.4-.3-2.1-.5 0 0 0 .5-.2.6-1.4.5-.9 1.8-.8 2.6.2 1.2 0 1.9-1.5 2.4 1.5.5 1.7 1.6 1.7 2.6l-.2 3.3c.5.6.2 2.9-.4 3.2.1.6.6 1.5.3 1.8-.6.7-.5 1.2 0 1.9l.1 1c.3.9.1 1.6-.2 2.5-.4 1.2 0 2.6.1 3.9 0 1.3.6 2.5-.2 3.8l.1.9.2 5.6c0 .6 0 1 .9 1 .8-.1 2-.5 2.2.4l1.8-.3h2.2c1.3 0 2.7-.2 4-.1l8.7.5 6.6-.2h4.4c1 0 1.9.3 2.8.2 1.5 0 3-.3 4.5-.4zM189.4 86.7l-.1.6c.1 1.2.4 2.3.4 3.4s-.3 2.2-.5 3.3c-.1 1 .4 1.3 1.3 1.3l8.3.3 21.2.1 6.2-.1c2.3 0 2.3 0 2.4-2.2v-1.2-8l-.2-8.3c0-.6 0-1.4 1-1.4.2 0 .5-.3.5-.5l.2-3.8V59.8h-1.4l-25.2.2-13.2.2c-.3 0-1 .3-1 .4 0 .7.3 1.4.4 2l-.4-.1.3 2.2c-.2 1.3-.4 2.5.7 3.7l-1.2-.2.9 2.4-.3.4.7.2v1.5l-1-.4-.3.3 1.2 1.4-.2.2c-1 .5-1 .5-.4 1.5v1l-.1 1.1.1.5c-1 .6-.3 1 .1 1.4.4.5.5.9 0 1.5-.3.5-.3 1.4-.4 2l.1 1.2.7.6-.6.5c-.6.5-.2.8.1 1.1l.9 1-.3.3-1-1.2zm174.3 189.5l.5-38.5-2.3.8H360l-.7.1c-.7 0-1.4-.3-2 0-.8.5-1.3.3-1.8-.6-.5 1.2-1.3 1-2.1.7-.6-.2-1.3-.1-2-.3-1-.2-2.2.2-3-1.4l-.2 2h-.6l-.3-1.7h-.4l-.7 1.9h-12.5c-.4 0-.8-.3-1-.5-.4.2-.8.5-1.3.5h-4.6c-.8 0-1.3.5-1.2 1.2 0 1.2.5 2.4.4 3.5-.2 1.1.6 2.2 0 3.5-.5.8 0 2 0 3.2 0 1.7.2 3.4.1 5.1 0 .4-.4.8-.6 1.2a52 52 0 0 1-.6-.6l-.5.9c1.2 0 1.5.7 1.5 1.5l-.3 3.1.2.9.3.6v4l-.2 1.4v1.5c.7 1.3 0 2.7 0 4 .1.7.2 1.5 1.2 1.4h2c.3 0 .7.3 1 .4.7-.1 1.3-.4 2-.4h6.5c2-.3 4 1 6.2.2 0 0 .4 0 .5.2.3 1 1 .5 1.4.3.7-.4 1.5-.5 2.3-.4 1.5.2 3 0 4.4.3.8.1 2-.9 2.5.4.5 0 1.1-1.1 1.3.2 0 .2.3.3.5.4l.3-.6 1.5-.5v.1l-.7.3.4.5 1.3.1v-1h3.2zm-80.5-92l12.3.4a726.4 726.4 0 0 1 20.8.8c1 0 1.2-.3 1.2-1.2l.1-5.2v-4.7l.3-5.5c0-.3.4-.6.5-.8l.2-2.3.4-3-.2-2 .2-6.1V146l-.1-2.2-35.5 1.3c.4 1.8.7 3.4 0 4.9 0 .3.3.6.3 1l-.2 6.5-.3 2.7v1.1c0 .5-.3 1-.2 1.5.1 1.2.5 2.3.3 3.7-.3 1.4-.1 2.9-.2 4.4 0 1.3.4 2.6.5 4 0 .6-.3 1.2-.2 1.7.4 1.4-.9 2.8.2 4v.3l-.4 3.2zM282 84.5v1.6l1 8.8.1.8c.1.7.4 1 1.2 1l8.4.3h26.2c.6 0 1 0 1-.8V86.1v-7.8l-.1-9.1-.1-4V60c.2-1.2-.4-1.3-1.4-1.3l-32.8.4c-1.2 0-2.4.3-3.6.5v.4l1.2.4-.2 1h-1v.3c1.3 0 1.2.8 1.2 1.7v7c0 1.8-.3 3.7-.3 5.6l.3 8.4-.1.3-1-.2zm80.4 242.3H361l-33.3.4h-.7c-.5 0-.8.1-.8.8l-.2 7.1-.2 4.5v1.6c0 1.2 0 2.4-.2 3.6l-.7 4c0 .3-.3.6-.2.7.6 1.3.3 2.7.3 4 0 1-.4 2-.4 2.9v4c0 1-.3 1.9-.4 2.8l-.1 1.8h36c.7 0 1.1-.1 1-1 0-2.3 0-4.5.2-6.7 0-3 .2-6 .3-8.9.1-2 .4-4.1.4-6.2V335c0-2.7.2-5.4.4-8.2zm-173.1-189l1 .1 37.7-.3c1.2 0 1.3-.7 1.3-1.4l-.2-6.2-.2-8.5-.3-11.1v-3.6-4l-38.9.4c-.1 1.4-.4 2.7-.4 4 0 .7.2 1.5.1 2.3v3.5l.3 2.2c-.6.9-.6 1.7.2 2.8-1 .6-.7 3.1.3 5-.4 1-.9 1.6-.9 2.3v12.6zm-52.2 8.8h-34.5v7.7l.2.5c.2.6.5 1.2.5 1.8v30.1h6.7l8.3-.1h8.8c3.3 0 6.6-.3 10-.4.6 0 .8-.2.7-.8l-.2-10.4-.2-10.2-.3-11.1v-7zm99.4 130l37.2-.4v-36.3h-6.8c-1.4-.2-2.7.1-4 0-1.2 0-2.6.6-3.6-.4-2.2.5-4.4.2-6.6.5-2.4.3-4.9 0-7.3 0l-.1-.4-4 .5h-4.8v36.5zm-8.9 88.5v-15.8l.3-7.8-.2-6.6.3-5.7c0-.7-.2-1-1-1l-2.8.1-24 .3H191V365h36.7zm9 0h34.9c.3-.1.8-.5.8-.7.2-.8.2-1.7.2-2.6l.4-14.2v-19.8l-36.4.4v37zM391.6 143l-1.5 1-.9-.7-.6 1.4c-.5-.3-1.2-.8-1.8-.8-.3 0-.6 1.1-.9 1.7 0-.6-.2-1.1-.3-1.7-.6.2-1.3.2-1.5.5-.9 1.7-2.6.7-4 1.2l-.4-.2-.6-.4h-4.8c-.6 2 .7 4.5-1.5 6.2.7.7.7.6.2 1.7v.7c.2.7.4 1.3.4 2l-.3.5.6.6-.7.6h.3V158.8l.8 2.4h-.9c0 .4-.2.8 0 1.1 0 .4.4.8.6 1.2h-.4l-.7 1.2c1 .5 1.3 1.2 1 2.3l.4.8c-1 .9-1 1.5.2 2.8l-1.1.2.6 3-.7-.2.6 2c.2 1.2-.2 2.4.5 3.6.2.3-.1.8-.2 1.1.1.6.3 1.1.2 1.5l-1.2 1.4h.4l1 2.3 32-.3v-42c-.7.3-1.3.9-2 1-1.1.2-2.3.1-3.4.1-1.1.1-2.3.3-3.4.2-.7 0-1.5-.2-2.5-.4l-2.6 1.2 1-1.3-1.6.3-.3-1.4zm-109.4 74.7l.5 3-.9-.6.2 2.4c0 .4-.2.8-.3 1.1 1.1.2.6 1 .6 1.6l-.1 2.3v4.3l13.6-.6 13-.7.4.9 1.2-.9 1.4 1.4 1-1.5h4.6l-.2-1.3.2-10c-.1-4.3.4-8.6 0-13v-.3l.3-3.4-.2-4.4v-4c0-.4-.3-.7-.5-1l-.6.7-.2.1-1-.1.5-.8-.2-.2-1.6.8c-.3-1-.3-.9-1.2-.4l-1 .4-3.2.2-.3-1.1-.6.5c-.5.7-2.8.7-3.3 0-.8-1-1.6-1-2.2 0-.1.3-.5.5-.6.4l-2.2-.8c-1 1.3-3-.5-4.4.6-.5-1-1.2-.2-1.9-.2h-5.9l-3.6-.3-.5 1.3v4.1c0 .4-.4.8-.4 1.2 0 .6-.6 1.3.3 1.7-1 1.2-1 2.3-.3 3-.2.1-.5.3-.5.5v5c0 .4.3.7.6 1l.6.1-.3.4H282v4.4c0 .9 0 1.5 1.4 1.5l-1.1.7zm-6.8-122.8l.4-9.2c.1-3.3.3-6.5.3-9.8 0-.6 0-1.5-.5-1.8-.9-.6-1.1-1.2-1-2.2l.2-2.2.3-9c0-1-.3-1.4-1.2-1.4l-33.1.4c-.4 0-.8.3-1.4.5l-1-.5-.3.4.9.9.4 1.8-1.3.3-.1 1.2 1 .2-.2 1.6c1.2.3.3 1.1.2 1.8l-.2 1.8.7 1c0 .3-.4.6-.5.7l-.8-1.2-.7 1.5 1.1 1.3 1-.3c.1.2.2.4.1.6l-1.5 1.9.8.1c-.3.5-.6.9-1 1.2l.6.6c-1.4-.3-1.6.5-1.5 1.5V94.1c0 .6 0 1.2.8 1.2l4.8-.2 10.8-.6 6 .3h16zM136.2 239.7c-.4.1-.7.4-1 .4l-6.1-.2c-1.4 0-2.7-.4-4.1-.1h-2.6c-.9 0-1.8.7-2.7-.1h-.4c-.7.1-1.6.5-2.3.2-1.6-.6-3 0-4.6.1l-2.1.1h-7.8v38l34.9-.4v-5l.2-17.4c0-4.1 0-8.3-.3-12.5 0-1 .6-2.5-1.1-3.1zM405.9 365v-38.7h-14.1c-3 .2-6.2.1-9.3.2h-9.8c-1 0-1.3 1-1.5 1.5-.2.6.1 1.4.3 2.2.7 2.6.5 5.2.1 7.8 0 .6-.4 1.1-.4 1.7l.6 4.8c0 1.9-.2 3.7-.3 5.6 0 1.4.3 2.7.3 4 0 1-.4 1.8-.3 2.6.4 1.7 0 3.2-.2 4.8l.2 1.4c0 .7-.2 1.3-.4 2H406zM275 102.3l-37.6.4v34.8l38-.5-.3-34.7zm41.5 225l-35 .4c0 .7.3 1.3.3 1.8v4.6l-.4 5.5v3.6l-.2 4.3v4c0 1.8-.8 3.7 0 5.6.4.7.3 1.5.3 2.2 0 .7-.4 1.4-.4 2.1l.2 2.2c0 1 .4 1.5 1.5 1.5h32.9c1-12.6.8-25 .8-37.8zM61.7 146.7v39.6c10.8.4 21.6.4 32.5.4v-2-15.9l.5-12.1v-1c-1.2-.6-.7-1.5-.7-2.3v-6.7H61.7zm76.4 47.5h-5.4c-.2-.7-.2-.7-2.4.2-.7-.8-.7-.8-1.7-.2h-.9l-1 .1c-.6 0-1.2.3-1.8.2-.7 0-1.4-.6-2-.4-1.2.5-2.5 0-3.7.3-1.3.2-2.5 0-3.8.1l-5.8.3h-2l-3.4.5c-1.6 0-1.6 0-1.6 1.5v34.8l5.4-.3 6.3.1 2 .2c1 0 2-.3 2.9-.3.9 0 1.8.2 2.9.4.2 0 .7-.5 1.1-.5l6.4.2c1.3.1 2.7-.1 4 .2 1.3.4 2.4 0 3.5 0v-9.2h1v-28.2zm7.8 83.4l34.6-.4v-15-21.3c0-.4-.3-1.2-.5-1.2-1.1-.1-2.2 0-3.3-.5-.7-.4-1.7.4-2.7 0-.1 0-.3 0-.5.2-.5.1-1 .5-1.6.4-1.2 0-2.6.9-3.5-.7 0 0-.7.1-1 .3l-1 .7-1.5-.2-4 .2H146v37.5zm259.6-41.5l-.6 2.2h-9.2c-.2-.4-.5-.6-.8-.7h-.9v.2l.6.3-.2.3-.8.1c-.3-.3-.4-.7-.6-.7l-1.7.3c-.9.2-1.6.9-2.5 0-.3-.2-1 0-1.8 0l-.6-1-.5 1.2-2.5-1.5-.4 1.8h-.3l-.2-.6c-.6.2-1.4.7-1.6.5-1-.8-2.8.3-3.2-1.8-1.3 2-3.5 1-5 2v3.6c0 2.4-.2 5-.4 7.4 0 .2-.3.6-.2.7.7.8 0 1-.8 1.3 1 .5 1.6 1 .8 1.9v.2c.8 2.2.2 4.5.2 6.8 0 3-.4 5.9-.5 8.8l.1 6c0 .7.4 1.4.6 2.2 1.2-1.3 2.4-.9 3.2-.6.6-.4 1-.9 1.3-1h2.6l2.4.5c.4 0 1.3-.3 2.1-.3 2.7 0 5.5.3 8.2.4 2.8.1 5.6.7 8.4.4 1.5-.2 3 .5 4.5.2.7-.2.8-.5.8-1v-6.3c0-4.2 0-8.4.2-12.6V251v-10.7c0-.8-.3-1.6-.5-2.5.5-.3 1-1-.2-1.8zM327.2 63c1.4 0 1.5.8 1.6 1.8 0 1 .4 1.9-.3 2.7-.1.2.1.6.2 1 0 .1.3.3.3.5v4.1l-.3 1.7c.4.7.6 1.6.4 2.7-.2 1-.3 2-.2 3 0 1.2.4 2.4-.4 3.5l1.1.4c-1.6.3-1.4 1.6-1 2 1.3 1 .5 2 .5 3.2l-.4.8c1 .6 0 .9-.2 1.3.2.7 1 1.2.2 2.1-.4.4.3 1.7.6 2.6l.6.2h1.8l16.7-.5h11.5l4.9-.1c.2 0 .6-.4.6-.6l.2-2.8-.2-10.8-.3-6.5v-15h-34.7c-.8 0-1.6 0-1.3 1.3 0 .3-.5.7-.7 1l-.6-.6-.6 1zM189.5 291c.8.4.7 1.1.4 2v.6c0 .6.3 1.3.3 2l.3 8v15.6h.5l36.2-.3h.6c.2-.1.5-.3.5-.5v-3.2l-.1-7 .2-10.4.1-10.2c.1-2.2 0-2.3-2.2-2.3l-34.6.4h-1.3l-.7 3.4c.1.2.7.5.6.7 0 .4-.5.7-.8 1.2zM146 329.2l-.5 36H181v-36.4l-35 .4zm44.6-307.7l-1.6.2c.2.7.2 1.3.5 1.6 1.2 1 .5 2.5 1 3.7 0 .3-.6.8-.7 1.2v4l-.2.7c0 .6-.2 1.2 0 1.7.2.7-.7 1.4 0 2-.8.7-.1 1 .3 1.5v.3l-.6.5c1 1.5 1 1.5 0 1.8 1 .9 1 1.7.2 2.4l.3 1.5c0 .5 0 1.1-.3 1.7-.2.8-.4 1.6.3 2 .8.6.8 1.1.6 2.1l-1-1.2v1.7l41-.5.5-11.9h.6l-.6-5.5.7.1c-.8-1.6-.3-5.1.3-5.6v-7.2h-43.1l-.2.4 2 .8zm-53 307.6h-23.8c-.4-1-.8-.7-1.3.3l-.3-.7c-3.1 1.2-6.4.6-9.4.8L102 365h33.5c2 0 2 0 2-1.9v-24.5-9.5zM181 102.7l-35 .4c-.2 2-.7 4.1-.5 6 0 .9 0 1.4-.2 2 .2.4.2.8.2 1.3l-.1.9-.1 3.7c0 1.2-.5 2.3-.4 3.5.2 1.6.3 3.2 0 4.8-.1 1-.2 2-.1 3 .2 2.7.2 5.4-.2 8.1-.2 1.5.2 2 1.6 2l33.3-.4h1l.5-35.3zm101 173.4h13.2l1.2 1.6V276h1.7l17-.3c1.7 0 2-.5 2-2l-.3-8.8.2-8v-10.7-6.7h-12.4a1494.3 1494.3 0 0 0-22 .5c-1 0-1 .1-.8 1l.7-.5c0 .6-.1 1.3.1 1.5 1 .9.2 1.1-.3 1.4l.4 2.7v9.2l-.2 6.4c0 1.8 0 3.5-.2 5.3 0 .3-.4.7-.3 1 0 .7.3 1.3.3 2l-.2 2.4v3.7zm90.3-46c1.8.6 3.6-.4 5.2.9.3-1 1-.9 1.6-.5l-.3 1.2 3.2.4v-1.8l3.3.6.4-.5.4.1c.5.8.5.8 1.4.8v-1h2.5l-.1 1.2c.5-.1.7-.4 1-.7l.5-.4v.8c1.9-.3 3.8-.2 5.8.2l.6-1 2.4.6.7.9c0-.4.1-.7.3-1.1l5-.7V193h-1.7l-20.7.2c-.5 0-1-.3-1.6-.5-.4 1.1-6.2 1-7.7-.5l-1 2.9c.8.3.9 1 .5 1.9l-.7 2.1v1.5l.7 1.7c-1.4.2-1.3 1.2-.8 2.4l.3 1c1.6 0 .3 1.1.7 1.6-1.2.8-.1 1.8-.2 2.7-.7.4-1 1-.7 2 .3 1.1 1 2.4 0 3.6l-.1.3.5.3-.6 1.2c1.1.9.2 1.6-.1 2.3-.8 1.4-.7 1.6.4 2.1l-1 8.4zM146 231.7h16.8l11.3-.4h5c1.5 0 1.6 0 1.6-1.4v-34.5h-3.2l-5.5.1-2.5.1c-1.6.1-3.3-.4-5-.2-3 .2-5.9 0-8.8-.1h-.5l-3-.2h-5.5v17.6c-.2 3.6.3 7-.6 10.7-.7 2.6-.1 5.5-.1 8.3zm90.6 53.6v33.6l36.6-.4v-33.6c-12.3 0-24.4.2-36.6.4zM137.1 95.3V84.5l.2-13-.1-10.3c0-.8-.4-1-1.1-1-1.3.1-2.5.2-3.7.1l-9.3-.2-19.4.3-1 .1v35.8l34.4-1zm-44 183c.7-12.9.1-25.6.5-38.3l-2.2.2a134.7 134.7 0 0 1-6.5 0l-4.5-.3-6 .2-3.6-.2c-1.8 0-3.6.3-5.3 0-1.4 0-2.6-.4-3.8.3v38.1h31.5zm52.7-183l1.3.2 9.8-.2 10.4-.4 12.7-.3c.6 0 1-.2 1-.8v-3V80 61.4c0-1.1-.4-1.2-1.3-1.2l-28.5.2h-5.4v34.9zm180.8 222.5l36-.4.5-33.2-36.5.4c-1.2 1.1-.5 2-.4 3v.1l-.2.7.2 1.2c0 2 0 3.8.2 5.7a17 17 0 0 1-.2 5v1.5c.1.7.4 1.5.3 2.3-.1 1-.2 2.1 0 3.2 0 .5 0 1.1-.8 1.1l-.4.4c.2 0 .3.3.5.3l1 .2c-1.2.7-1.2 1.4-.3 2V314.3l-.7 1.4c1.9.5-.5 1.4.8 2.2zM102.7 103.6v35.3l33.7-.4v-35.3l-33.7.4zm34.9 216.3c.7-11.2.3-22.4 0-33.6l-35.4.4.6 33.6 34.8-.4zm-76-88.2H75c4.4 0 8.7.2 13 .3l6-.3v-7V196c0-1.1-.3-1.3-1.3-.9a2 2 0 0 1-.9.2c-1.6-.2-3.2.2-4.9-.3-.6-.1-1.3 0-2 .1-1 0-2.2.5-3.1.2-1.5-.4-3 0-4.4-.1l-4.8-.1c-1.4 0-2.8-.3-4.2-.4h-4.9c-1.4 0-2 .4-2 1.9v35.1zm255 86.1l.4-33c-.8-.2-1.4-.5-2-.5-1.4 0-2.7.3-4 .4h-.7l-4.7-.2-1.5.3c-1.2 0-2.3-.3-3.4-.3l-5.8.1h-12.2l-1.2.3c0 1.4.7 2.6.3 4.1-.3 1.3 0 2.9-.1 4.3s.3 2.7.4 4c0 .6-.3 1.3-.1 1.8.3 1.3-1 2.7.2 4v.2l-.5 5.6c0 1 1 2.3-.2 3.3v.4c0 1.5.4 3 .2 4.5 0 1.1.3 1.2 1.2 1.2l32.5-.4h1.2zM146 286.2v33.6l34.7-.4v-33.6l-34.7.4zM61.7 60.5v35.4l32.2.5v-36H61.7zM406 316.9v-5.6-26.5c0-.8-.2-1.1-1-1h-10.4l-12 .2h-11.3l-.3 12-.7.4 1 .8-.7.2.3 1.4.3 6.5c0 .8-.3 1.7 0 2.3.2 1 .2 1.5-1 2 .5.3 1 .5 1 .8.2 1 .3 1.9.3 2.9v4l34.5-.4zm-86.1-212.6l-36 .4-.6 6.2.5.4-.4.1v1.3c.1.4.4.8.4 1.3 0 1.4.8 3-.7 4v.7l.9-.6v18.8c11.7 0 23.3-.2 35-.3v-2.8l.5-3.3v-1.9c.1-1.3.2-2.7.1-4l-.2-8.6c0-3.8.3-7.7.5-11.7zM61.7 104v35.1h32.2v-35.4c-10.8 0-21.5.2-32.2.3zm265.8 28.2l-.2 2.6c.2 1.6.2 1.6 2 1.6l33.3-.4h1.4l.2-4.7c0-3.9.2-7.7.3-11.5v-5c0-1.7.3-3.4.6-5.3 0 .1-.2 0-.2 0v-5.7l-35.6.4v1.1c-.4 1-.6 1.8 0 2.7.2.5.2 1.3 0 1.9-.2 1 0 2.1 0 3.2 0 .5.2 1.1-.7 1.2l-.4.4.4.3.9.1c-.6.7-1.3 1.4-.1 2v1.6l-.1 1.4c-.1.5-.4.9-.7 1.3.9.3 1 .5.6 1a2 2 0 0 0-.2 1.1c0 1.2.3 2.4.4 3.5 0 .2-.4.3-.6.4l-.2.3.4.3.4.4h-.4v1.3c0 1 0 2.1.2 3.3l-1.7-.8zm78.6-72h-32.3c1 3.2.4 5.2-.8 6.1l.7 1.1c-.7.6-.2 1.7-.4 2-.6.8.5 1 .3 1.4-.2.4-.1.7-.2 1l.3.2-.6.5.6.8-.6.7h.3l.8 2.5h-1l.5 2.3-1.4 1c2.2.5 1 2.4 2 3.4-1.1.8-1 1.3 0 2.7l-1 .2.6 3-.7-.2.5 2c.3 1.2-.2 2.5.6 3.6.2.2 0 .7-.1 1.3h1l7-.2 15.5-.4c1 0 2.4-.3 3.3.1 1.6 1 3.2.5 5 .7l.1-35.7zM321.9 33l-1.3-.2c1.2-1.7-.8-3.8 1-5.3-.2-.2-.4-.4-.4-.6 0-1.7-.1-3.5.1-5.2.2-1.1 0-1.4-1-1.4H284c-.6 0-1.8-.4-1 1.1l-.6.6-.2.3.8.6-1.3 2.5h1.1v4.8l-1 .8v.2h1.2c-.7.5-.7.5-.2 1l.1.4v11c.1 1-.3 1-.7.7.3.9.6 1.7.7 2.6.2 1 0 2 0 3h1.2l17.9-.2c6.3 0 12.7-.2 19-.4l.7-.4-.2-.3-.7.2c0-1.6-.3-3-.2-4.5.1-2.1.5-4.3.7-6.4 0-.2-.2-.4-.4-.6 0-.2-.2-.3-.3-.4l1.5-.2c-.9-1.4-1-1.8-.3-3.7zM61.6 330v34c.9 0 1.7 0 2.5.2 1 .2 2 .7 3 .7H93.3v-35.4l-31.6.5zM329 50.8l1 .2 34-.4c1.4 0 1.4-1 1.4-1.6.2-2.8.2-5.7.2-8.5v-4c0-1.8 0-3.6-.2-5.4l-.2-6.1v-1.4c.8-1 .5-2.2.4-3.3h-35.8v11.4c-.6 0-1 .1-.6 1 .2.6.8 1.4.7 2v2.4c0 2.6.2 5.2 0 7.9 0 1.9.8 4-.9 5.9zm-90.6-2h-.3c0 1.3.8 1.6 2 1.5l34-.4c1.6 0 1.7-.1 1.2-1.6-.1-.2 0-.5 0-.8V42c-.2-1-.3-1.8 1-2.4-2-.3-1.1-1.7-1.2-2.5-.2-1.2 0-2.5.1-3.8 0-.8.3-1.5.4-2.3 0-.1-.4-.4-.4-.7 0-.4.4-.8.5-1.2l1 .7.2-2.3-1.7.9-.3-.5 1.3-.6.7-.2-.1-.5h-.9l-.7.5.6-3.8-.5-.4.2-.5 1.2-1.3h-1.5l.3-.8h-34.3l.6 1.2-1.5 1.6.9.5-.4 1.2.4 2.6-1-.4.6 1.7-.2.2-1.8-1.3-.4 1.5.2-.1.8 3-.7.5.6.5 1.5.6-1 .7.6.6-.3.3-1-1.4-.4 2h1.5l-.5 2.6 1.1 2-.7.3.3 2.7H239v-1c1.4-.8.3-1.3-.2-1.9.8-1.5.7-2-.2-2.2-.1 1 0 2-.4 3s.5 1.9 0 2.8l.5.3c.4.2.8.4 1 .7.3.1.4.5.4.7-.1.2-.5.3-.8.4l-.5-1.4c-.5 1.4-.5 1.3-.2 2.5l-.3 1.5zm-57.5-23.4c-.2-.3-.6-2.3-.3-3 .5-1.4 0-2.2-1.4-2.2h-33.4v18l-1 .4c1.2.2 1.1 1 1.1 1.8V50l4.7.4h3.4c2 0 3.9.4 5.8.4a231.8 231.8 0 0 0 20.1 0c.4 0 1-.5 1-.6-.4-2 .4-4 0-6-.3-1 0-2.3 0-3.5l-.1-5.5-.3-6.6c0-1 .3-2 .5-3.3zm-119.1 295h31.5V287H61.7v33.5zm344.8-184.7v-8.3c-.1-2.2-.5-4.4-.5-6.5v-16c0-.3-.2-.8-.4-.9-1.4-.3-2.8-.6-4.2-.6l-25.8.3c-1.4 0-2 .4-2.4 1.8-.1.5-.4 1-.6 1.4l1.5.8-1.4.5 1.7 1.2-1.1.7c1 .9 1 .9.6 2.3-.2.6-.6 1.2-.6 1.8v1.8l.7 1.6-.8.5c-.9.8.3 1.7.1 2.6l.9.4c0 .4.2 1 0 1.3-1 1-.2 2-.2 2.9-.8.4-1 1-.7 1.9.4 1.2 1 2.6-.2 4l.6.5c-.3.5-1.1.9-.2 1.5.2.1 0 .6 0 .9l-1 1.6h34zm-303.8-85h1.3l15.4-.2 16.5-.2c.6 0 1.2.2 1.2-.8-.1-3.4-.2-6.8 0-10.2l.3-9 .2-6.2v-3.7h-35v30.3zm-8.8.2V20.5l-32.2.4v30h32.2zm280.4-.5h1.4l22.6-.2c2.2 0 4.3.3 6.4.4.8 0 1.3-.3 1.3-1.3v-5.8c0-3 .2-6 0-9 0-1.3.3-2.6.3-4l-.2-5c0-1.3 0-2.6.2-3.9.3-1.4-.4-1.4-1.4-1.4h-30.3c-.2 1.1-.5 2-.3 2.7.2 1.1-.3 1.1-1.2 1l.7 2.4c-1.3.5-1.3.5-.4 1.6.3.4.3 1 .4 1.4l.3 1.3c-.3.4-.6 1-.5 1.4 0 .4.4.9.7 1.3l-1 .2.6 3-.9-.2c.3.6.7 1 .8 1.7.2 1.3-.2 2.7.5 4 .2.2-.1.8-.2 1 .1.6.3 1 .2 1.4-.3.6-.8 1-1.1 1.3 1.3 1.4 1 3 1.1 4.7zM239.5 22l.4.2 1-2h-1.4V22zM237 33.8c.4 0 1.1 0 1.1-.2.2-.6.2-1.3.2-2h-.2l-1 2.2z"/><path fill-rule="evenodd" clip-rule="evenodd" fill="#fff" d="M337 144v1.2l1.4-.1v-.8h.6l.4 1.5 1.1-.8h4.4v.5c.3-.3.7-.9 1-.9 2.1 0 2.4.1 2.8 1 1.4 0 2.8-1.2 4.1.3.3.3 1 .2 1.5 0l3.7-1.8.2.6-1.2 1.3c1 0 1.6.1 2-.7.2-.7 1.6-.8 2.3-.5.5.3 1.1.2 1.7.2h1l.3-1c1.3 3 .6 5.9.5 8.8l.2 7 .3 8 .3 6v3.8l-.5 8h-38.6c-.4-.7.7-2-.8-2.1l.6-2.8h-.3c0-.4 0-1-.3-1.3-.2-.4-.6-.6-.9-1 0 .2-.1.2-.2.3l.8 1.3-.3.2-.4-.8-.4.7-.5-1 2-2.5c-1.2-.5-1-.7-.2-1.9.4-.6.5-1.6.4-2.3-.1-.5-.4-.8 0-1.4v-1.4c1.9-.6 2.2-1.3 1.9-3.5-.2-1.3-.5-2.5-.6-3.8l.2-3.7c0-.8-.3-1.6-.4-2.4 0-.3-.2-.7 0-.8.8-1.3.2-2.6.1-3.8 0-1.4-.6-3 0-4 .8-1.3-.2-2.4.3-3.7h9.6zm-147 41.3v-4.1-26c0-.5-.4-1-.6-1.5l-.1-.7v-7.6H229v17l-.1 5-.2 6.3v3.3l-.6 6.3v.4c0 1.6 0 1.7-1.7 1.6l-8.2-.1-9 .1-11.7-.1c-1.6 0-3.4-.2-5 0-1 .3-1.6 0-2.6 0zm47.2-40.2h38.1l-.6 12.8-.2 10-.1 10c0 2 0 3.8.2 5.6 0 .9 0 1.2-1.1 1-1.1-.1-2.3.2-3.4.3h-2.5l-8.8.2-11.3.4-7.1-.2h-3.8l.3-2.4-.3-.7c0-.3-.2-.8-.1-1 1-.8.5-1.7.5-2.7l.2-2.7v-30.6zM190 194.2l3.8-.8 1.7-.2c.4 0 .8 0 1.5.2.4-.5 1-.8 1.5 0 1.5.1 3 .3 4.3.2 1.4 0 3 .5 4.3-.4.1-.1.5-.3.6-.2 1 1 2.3.4 3.3.6 1.4.3 3 .1 4.3 0 2 0 4.1 0 6-.4 1.3-.4 2.3-.4 3.3.4.2.2.8 0 1.1 0 1.2-.7 2.3-.1 2.3 1.2l-.2 9.4v14.3l-.2 8.3.1 4c0 .9-.8 1.4-1.6 1.4h-3l-1.6-.2-19.2-.2c-4.2 0-8.3-.1-12.5-.3-.2 0-.5-.4-.7-.7v-.7-32.6c0-.7-.1-1.3.7-1.8.3-.1.1-1 .2-1.5zm63.6 37.8l-.1.5c-1-.8-2.5-.8-3.7-.3-.5.3-1.3-.2-1.9-.2-1.4-.2-2.9-.3-4.3 0-.7.3-1.5-.2-2.3-.2-1.2 0-2.5 0-3.6.4-1 .2-1.2-.1-1.3-1v-35.7c0-1.4.6-2.3 1.8-2.3l2.1.3 1.1-.2 2.9-.2 3.2.3c.3 0 .7-.2.9-.5.4-.6.6-.7 1.1 0 .8.8 1.3.8 2-.3l.5 1c0-1.8 1-1 2-1l-.4.8 1.8-.4c0-.8.5-1 1.3-.4.7.6 1.4 1 2.5.5.9-.4 2 0 3.1 0h3.2l7.6-.3c1.3-.1 1.6.3 1.6 1.7l-.1 9c-.2 4.7-.5 9.5-.6 14.3l-.4 11v2.1c0 .7-.2 1.2-1.2 1-.9-.2-1.8.1-2.7.1l-2-.1-5.7-.2c-.6 0-1.3.3-2 .5l-.4.1c-.8-.8-1.8-.3-2.7-.3h-3.3zM190 277l.1-2.3-.2.1c-.2-.7-.7-1.6-.5-2.1.7-1.2 0-2.3 0-3.4l.1-3.7V261l-.1-4.7v-16.7c.5 1.3 1.9-1.8 2 .4 2.1-1.2 4.3-.8 6.5-.6v.8c.6-1.6 2-.8 3-.9 1.2 0 2.6.5 3.7.2 1.2-.3 2 0 3 .4h.2c1.3-.3 1.2-.3 2.2.3.2.2.5.1.8.1l8.3-.7c.3 0 .6.3 1 .4v.4l.5-1 .3.1.3.8c.6-.7 1.2-.7 2-.3.8.4 1.8.3 2.8.3.5 0 1.1 0 2-.2l.1 4v13c0 5.4 0 10.8.2 16.3l.1 2.3c.1.8-.2 1.1-1 1.1l-36.6.4h-.8zm-43.3-90.8v-6.4c0-.6.3-1.3-.6-1.5l-.1-.8v-30.1-.8h5.3l6-.1c1.4 0 2.9.1 4.2-.2 2.7-.6 5.3-.4 8-.4 3.7 0 7.4-.3 11.2-.4v6.9c0 .5-.3 1.3.6 1.6v.9l.1 30.7c0 1-.3 1.2-1.3 1.2h-5.6c-2.6 0-5-.2-7.6-.3H164c-3.1.3-6.2 0-9.4-.1l-2.1.3c-1 0-1.9-.2-2.8-.3l-3-.1zM364 230.4l-4.5.5-2.8-.2h-4.4c-2.2 0-4.4.2-6.6.1-2.9 0-5.8-.3-8.7-.5l-4 .2h-2.2l-1.8.3c-.3-1-1.4-.6-2.2-.5-.9 0-.9-.3-1-1v-5.6c0-.3-.3-.7-.1-.9.8-1.2.2-2.5.1-3.8 0-1.3-.4-2.7 0-3.8.2-1 .4-1.7.2-2.6-.1-.3-.1-.7-.3-1-.3-.7-.5-1.2.2-1.9.2-.2-.3-1.1-.4-1.8.6-.3 1-2.6.4-3.1l.2-3.3c0-1.1-.2-2.1-1.7-2.7 1.6-.5 1.7-1.2 1.5-2.4 0-.7-.6-2 .8-2.6.2 0 .2-.5.2-.6.7.2 1.4.5 2 .5.6 0 1.2-.3 1.9-.5.4 1 1.6.6 2.6.7 1 0 2.3.3 3-.6 1 .2 1.8.5 2.7.5h8.2l10.6-.3h6.3c.4 0 .8.6.8 1l-.5 4-.2 13.5-.3 7.4v11zM189.4 86.7l.9 1.1.3-.2-.9-1c-.3-.4-.7-.7-.1-1.1l.6-.6-.7-.5c0-.4-.2-.8-.1-1.2 0-.7 0-1.5.4-2 .5-.6.4-1 0-1.5-.4-.4-1-.8-.1-1.4l-.1-.5v-1c0-.4.2-.8 0-1-.5-1.1-.5-1.1.5-1.6l.2-.2-1.2-1.5.2-.2 1 .4v-1.5l-.7-.2.4-.4-.9-2.4 1.2.2c-1-1.2-.9-2.5-.7-3.8l-.3-2.1h.4l-.4-1.9c0-.1.7-.4 1-.4l13.2-.2 25.2-.3h1.4v10.5c0 1.3 0 2.5-.2 3.8 0 .1-.3.4-.5.4-1 0-1 .9-1 1.5l.2 8.3v9.1c0 2.3 0 2.2-2.4 2.2l-6.2.2-21.2-.1-8.4-.3c-.8 0-1.3-.4-1.2-1.3.2-1.1.5-2.2.5-3.3 0-1.2-.3-2.3-.5-3.4l.2-.6zm174.3 189.5h-3.2v1l-1.3-.2-.4-.5.8-.3h-.1l-1.4.4c-.2.1-.3.4-.4.6-.2 0-.5-.2-.5-.3-.2-1.4-.8-.3-1.3-.2-.6-1.4-1.6-.3-2.5-.5-1.5-.2-3-.1-4.4-.3-.8-.1-1.5 0-2.3.4-.4.2-1.1.7-1.4-.3l-.5-.2c-2.1.9-4.1-.5-6.2-.3-2.1.3-4.3 0-6.5 0-.6 0-1.3.4-2 .6l-1-.5h-2c-1 0-1-.7-1.1-1.3-.1-1.4.6-2.7 0-4.1-.2-.4 0-1-.1-1.5l.2-1.4v-4l-.3-.6c0-.3-.3-.6-.2-.9l.3-3c0-.9-.3-1.6-1.5-1.6l.5-1 .6.8c.3-.5.6-.9.6-1.3v-5.1c-.1-1.1-.6-2.4-.2-3.2.7-1.3 0-2.3 0-3.5.2-1.1-.2-2.3-.3-3.5 0-.7.4-1.1 1.2-1.1h4.6c.5-.1.9-.4 1.2-.6.3.2.7.5 1.1.5h12.5l.7-2 .4.2.3 1.6h.6l.3-2c.8 1.6 2 1.2 3 1.4.6.2 1.3 0 1.9.3.9.3 1.6.5 2-.7.6.9 1 1.2 2 .6.5-.2 1.3 0 1.9 0h.7l2-.1 2.2-.8-.5 38.5zm-80.5-92l.4-3.3v-.2c-1.1-1.2.2-2.7-.2-4-.1-.5.2-1.1.2-1.7-.2-1.4-.6-2.7-.5-4l.1-4.4c.3-1.4 0-2.5-.2-3.8-.1-.4.1-1 .1-1.4l.1-1 .3-2.9.2-6.5-.3-1c.7-1.5.4-3 0-4.8l35.5-1.3.1 2.2v8.5l-.2 6.1.2 2c0 1-.3 2-.4 3l-.2 2.3c-.1.2-.5.5-.5.8l-.2 5.5-.1 4.7-.1 5.2c0 .8-.3 1.2-1.2 1.2-4-.3-8.2-.5-12.3-.6-2.8-.2-5.7-.2-8.5-.3l-12.3-.3zM282 84.5l1 .2.1-.4c0-2.8-.3-5.5-.3-8.3 0-2 .3-3.8.3-5.7v-7c0-.8 0-1.6-1.1-1.6l-.1-.4h1l.2-1-1.2-.3v-.4c1.2-.2 2.4-.5 3.6-.5l32.8-.4c1 0 1.6 0 1.5 1.3l-.1 5.2v4l.1 9.1.2 7.8-.1 10.1c0 .7-.4.8-1 .8h-26.2l-8.4-.2c-.7 0-1-.4-1.2-1v-.9c-.4-3-.8-5.8-1-8.8-.2-.5-.1-1-.1-1.6zm80.4 242.3c-.2 2.8-.4 5.5-.4 8.2v7.2c0 2-.3 4.2-.4 6.2l-.4 9v6.6c0 1-.4 1-1.1 1h-36v-1.8l.5-2.8v-4c0-1 .3-1.9.4-2.8 0-1.4.3-2.8-.3-4-.1-.2.1-.5.2-.7l.7-4.1.2-3.6v-1.6l.1-4.5.3-7c0-.8.2-.9.8-1h.7l33.3-.3h1.3zm-173.1-189v-12.5c0-.7.5-1.3 1-2.2-1-2-1.3-4.5-.4-5.1-.8-1.1-.8-1.9-.2-2.8l-.4-2.2.1-3.5v-2.3c-.2-1.3.2-2.6.3-4 13 0 25.8-.2 38.8-.4v4l.1 3.6.3 11 .2 8.6c0 2 .2 4.1.1 6.2 0 .7 0 1.4-1.2 1.4l-37.8.3h-1zm-52.2 8.8v7l.3 11.2.2 10.2.2 10.3c0 .7-.1.9-.8.9-3.3 0-6.6.3-10 .4h-8.7l-8.3.1h-6.7v-3-27.1c0-.6-.3-1.2-.5-1.8l-.2-.6v-7.6h34.5zm99.4 130v-36.4h4.9l3.9-.6v.5c2.6 0 5 .2 7.5-.1 2.1-.3 4.3 0 6.5-.5 1 1 2.4.4 3.6.5 1.3 0 2.6-.3 4-.2h6.8v36.4l-37.2.4zm-8.9 88.5H191v-36.5h9.4l24-.3h2.8c.7 0 1 .3 1 .9l-.3 5.7.1 6.6-.3 7.8V365zm9 0v-37c12.1 0 24.2-.2 36.2-.3v19.8c0 4.8-.2 9.5-.3 14.2l-.1 2.6c0 .3-.6.6-1 .6h-8.3l-19.4.1h-7.1zM391.6 143l.3 1.4 1.6-.4-1 1.4 2.6-1.3c1 .2 1.8.5 2.5.5l3.4-.2 3.4-.1c.7-.1 1.3-.7 2-1v42c-10.8 0-21.5.2-32 .3l-1-2.4h-.4c.4-.4 1-.8 1.2-1.4.1-.3 0-.8-.2-1.4.1-.3.4-.9.2-1.1-.7-1.2-.3-2.4-.5-3.6l-.7-2 .8.1-.6-2.9 1.1-.2c-1.2-1.3-1.2-2-.2-2.8l-.4-.8c.3-1 0-1.8-1-2.3l.7-1.3h.4l-.7-1 .1-1.2h.9l-.7-2.4h-.2l.1-1.6h-.3l.7-.6-.6-.6c.1-.2.4-.4.3-.5 0-.7-.2-1.3-.4-2v-.7c.5-1 .5-1-.2-1.7 2.2-1.7 1-4.2 1.5-6.2H379.2l.6.3c.2.1.4.4.5.3 1.2-.5 3 .5 4-1.2 0-.3.8-.3 1.4-.5l.3 1.7c.3-.6.5-1.7.9-1.7.6 0 1.3.5 1.8.7l.6-1.4.8.8 1.6-1zm-109.4 74.7c.2 0 .5-.3 1-.8-1.3 0-1.4-.6-1.4-1.4v-4.5l1.1.1.4-.4c-.2 0-.5 0-.6-.2-.3-.2-.7-.6-.7-.9v-5l.5-.6c-.7-.7-.6-1.8.4-3-1-.3-.4-1-.3-1.6 0-.5.4-.8.4-1.2v-4c0-.6.4-1.2.5-1.4l3.6.2h5.9c.6 0 1.3-.6 2 .2 1.3-1 3.2.8 4.3-.5l2.1.8.6-.3c.7-1.1 1.5-1.2 2.2-.1.5.6 2.9.7 3.4 0l.5-.5.4 1 3-.1c.4 0 .8-.2 1.2-.4.9-.5.8-.5 1.2.4l1.5-.8.2.2-.4.7 1 .2.1-.1.7-.8c.2.4.5.7.5 1v4l.1 4.5-.2 3.4v.3c.3 4.3-.1 8.7 0 13l-.3 10c0 .5.2.9.3 1.3h-4.7l-1 1.4-1.3-1.3-1.3.8-.3-.9-13 .8-13.6.6v-4.4-2.2c0-.6.6-1.5-.6-1.6l.3-1.1-.1-2.5.9.7-.5-3zm-6.8-122.8h-16c-2 0-4-.3-5.9-.3l-10.8.5-4.8.2c-.9 0-.8-.5-.8-1.1V80.7v-2.2c-.1-1 .1-1.8 1.5-1.6l-.5-.5 1-1.2-1-.1 1.6-2v-.5l-1 .2-1.3-1.2.8-1.5.8 1.2c0-.1.5-.4.5-.6 0-.4-.4-.7-.7-1l.2-2c0-.6 1-1.4-.2-1.7 0-.6.2-1 .1-1.6l-1-.2.2-1.2 1.3-.3-.4-1.9c-.2 0-.6-.4-1-.8l.3-.4 1.1.5c.6-.2 1-.5 1.4-.5l33-.4c1 0 1.3.4 1.2 1.3l-.3 9.1-.1 2.2c-.1 1 .1 1.6 1 2.2.4.3.6 1.2.5 1.8 0 3.3-.2 6.5-.3 9.8l-.4 9.2zM136.2 239.7c1.7.6 1 2 1.1 3.1l.3 12.5-.2 17.4v5l-34.9.4v-38h9.8c1.6-.1 3.1-.8 4.7-.2.7.3 1.6 0 2.3-.2h.4c.9.8 1.8 0 2.7 0 .9.1 1.7.2 2.6 0 1.4-.2 2.7.3 4 .2l6.1.2c.4 0 .7-.3 1-.4zM405.9 365h-34.8l.4-2c0-.5-.3-1-.2-1.5.1-1.6.6-3.2.2-4.8-.1-.8.3-1.7.3-2.5 0-1.4-.3-2.8-.3-4.1 0-1.9.3-3.8.3-5.6 0-1.6-.4-3.2-.6-4.8 0-.6.3-1.1.4-1.7.4-2.6.6-5.2 0-7.9-.3-.7-.6-1.5-.4-2.1.2-.6.6-1.5 1.5-1.5h9.8c3.1 0 6.2 0 9.3-.2h14.1V365zM275 102.3l.5 34.7-38.1.5v-34.8l37.7-.4zm41.5 225c0 12.7.2 25.2-.7 37.7h-33c-1.1 0-1.4-.3-1.5-1.4l-.2-2.2c0-.7.3-1.4.4-2 0-.8 0-1.6-.2-2.3-.9-1.9-.1-3.8-.1-5.7v-4l.2-4.2v-3.6l.4-5.5v-1.2-3.4c0-.5-.2-1.1-.4-1.8l35.1-.4zM61.7 146.7H94v6.7c0 .7-.5 1.7.6 2.2.2.1.1.7 0 1 0 4.1-.3 8.2-.3 12.2l-.1 16v2c-11-.1-21.7-.2-32.5-.5v-39.6zm76.4 47.5v28.3l-1-.1v9.2c-1.1 0-2.2.4-3.5 0-1.3-.3-2.6-.1-4-.1l-6.3-.3c-.5 0-1 .4-1.2.5-1-.1-2-.4-3-.4l-2.8.3-2-.2-6.3-.1-5.4.3v-34.8c0-1.5 0-1.5 1.6-1.5 1.1 0 2.2-.3 3.3-.5h2l6-.3 3.7-.1c1.2-.2 2.5.2 3.7-.2.6-.2 1.3.3 2 .3l1.8-.2h1l1-.1c1-.6 1-.6 1.6.2 2.2-1 2.2-1 2.4-.2h5.4zm7.8 83.4v-37.5H161l4-.2c.4 0 .9.3 1.3.2.4-.1.7-.5 1-.7l1-.3c1 1.6 2.4.6 3.6.7.5 0 1-.3 1.6-.5.2 0 .4-.2.5-.1 1 .3 2-.4 2.7 0 1.1.6 2.2.4 3.3.5.2 0 .5.8.6 1.2v35.4l-.1 1c-11.6 0-23 .2-34.6.3zm259.6-41.5c1.1.9.7 1.5.2 1.8l.5 2.5.1 10.7-.1 6.2-.2 12.5v6.4c0 .5 0 .8-.8 1-1.6.3-3-.4-4.5-.2-2.8.3-5.6-.3-8.4-.4l-8.2-.4c-.8 0-1.6.2-2 .3l-2.4-.4c-1-.1-1.8-.2-2.6 0-.4 0-.8.5-1.3.9-.9-.3-2-.7-3.3.6-.2-.9-.5-1.5-.5-2.2l-.2-6c.1-3 .5-5.9.5-8.8 0-2.3.6-4.6-.1-6.8v-.2c.7-1 .1-1.4-.9-2 .9-.1 1.6-.4.8-1.2l.2-.7.4-7.5v-3.6c1.5-.9 3.7.1 5-2 .4 2.2 2.2 1.1 3.2 1.9.2.2 1-.3 1.6-.5l.2.5h.3l.4-1.7 2.5 1.5c0-.3.2-.6.5-1.1l.7.9c.7 0 1.4-.3 1.7 0 .9.8 1.7.1 2.5 0l1.8-.3.5.7.8-.1.2-.3-.6-.3v-.2h.9c.3.1.6.3.8.7h9.2l.6-2.2zM327.2 63l.6-1 .6.7c.2-.5.7-.9.7-1.1-.3-1.4.5-1.3 1.3-1.3h34.7v15l.2 6.5a972.6 972.6 0 0 1 .1 13.6c0 .2-.4.6-.6.6l-4.9.1h-11.5c-5.6 0-11.2.3-16.7.5h-1.8c-.2 0-.6 0-.6-.2-.3-.9-1-2.2-.7-2.6 1-1 0-1.4 0-2.1.1-.4 1-.7.1-1.3l.4-.8c0-1.1.8-2.2-.5-3.3-.4-.3-.6-1.6 1-2l-1.1-.3c.8-1.1.5-2.3.4-3.6-.1-1 0-2 .2-2.9.2-1 0-2-.4-2.7l.3-1.7v-4c0-.3-.2-.5-.3-.7-.1-.3-.3-.7-.2-.9.7-.8.4-1.8.3-2.7 0-1-.2-1.8-1.6-1.9zM189.5 291c.3-.5.7-.8.8-1.2 0-.2-.5-.5-.6-.7l.7-3.3 1.3-.2 34.6-.3c2.2 0 2.3.1 2.2 2.3l-.1 10.2-.2 10.4v10.2c0 .2-.2.4-.4.5h-.6l-36.2.4-.5-.1v-15.6c0-2.7-.2-5.4-.3-8 0-.7-.3-1.4-.4-2l.1-.7c.3-.8.4-1.5-.4-2zM146 329.2l35-.4v36.3h-35.5l.5-36zm44.6-307.7l-2-.8.2-.4h43v7.2c-.6.5-1 4-.2 5.6l-.7-.1.6 5.5h-.7c0 4-.2 8-.4 12-13.7 0-27.4.2-41 .4v-1.7c.2.4.5.7 1 1.2.1-1 .1-1.5-.6-2s-.6-1.3-.3-2.1a5 5 0 0 0 .3-1.7l-.3-1.5c.8-.7.8-1.5-.2-2.4 1-.3 1-.3 0-1.8l.6-.5V38c-.5-.4-1.2-.8-.2-1.4-.8-.6 0-1.4-.2-2-.2-.6 0-1.2.1-1.8l.1-.7.1-4c0-.4.7-1 .6-1.2-.4-1.2.3-2.7-1-3.7-.3-.3-.2-1-.4-1.6l1.6-.2zm-53 307.6v34c0 2 0 2-2 2h-33l-.5-.1.7-35.5c3-.2 6.3.4 9.4-.8l.3.7c.5-1 1-1.3 1.3-.3h23.8zM181 102.7l-.5 35.3h-1l-33.4.4c-1.3 0-1.7-.5-1.5-2 .4-2.7.4-5.5.2-8.2l.1-2.9c.2-1.6.2-3.2 0-4.9-.1-1 .3-2.3.4-3.4v-3.7l.1-1-.1-1.2c.1-.6.3-1.1.2-2-.2-1.9.3-4 .5-6l35-.4zm101 173.4v-3.7c.2-.7.3-1.6.3-2.5 0-.6-.3-1.2-.4-1.9 0-.3.4-.7.4-1l.1-5.3c.1-2.1.3-4.2.3-6.4v-9.2c0-.9-.3-1.8-.4-2.7.5-.3 1.2-.5.3-1.4-.2-.2-.1-1-.2-1.5l-.6.5c-.2-.9-.1-1 .8-1a1245.3 1245.3 0 0 1 22-.5h12.3V257l-.1 8 .3 8.6c0 1.6-.3 2.1-2 2.1l-17 .2-1.8.1.1 1.7-1.2-1.6H282zm90.3-46l1.1-8.3c-1.1-.5-1.2-.7-.4-2.1.3-.7 1.2-1.4.1-2.3l.6-1.2-.5-.3v-.3c1.2-1.2.5-2.5.1-3.7-.3-1 0-1.5.7-2 0-.8-1-1.8.2-2.7-.4-.4.9-1.6-.7-1.5l-.3-1c-.5-1.2-.6-2.2.8-2.4l-.6-1.8c-.1-.4-.2-1 0-1.4 0-.7.3-1.5.6-2.1.3-1 .3-1.6-.5-2l1-2.8c1.5 1.4 7.3 1.6 7.7.5.6.2 1 .5 1.6.5l20.7-.2h1.8v37l-5.1.8-.3 1-.7-.8-2.4-.7-.6 1.1a16 16 0 0 0-5.8-.2v-.8l-.5.4c-.3.2-.5.5-1 .7 0-.3 0-.7.2-1.1h-2.7l.1.8c-1 0-.9 0-1.4-.7l-.4-.2-.4.6-3.4-.7.2 1.9-3.3-.4c.1-.5.4-1.1.3-1.2-.7-.4-1.3-.4-1.6.4-1.6-1.2-3.5-.2-5.2-.7zM146 231.7c0-2.8-.6-5.7 0-8.3 1-3.6.5-7.2.6-10.7.2-3.6 0-7.2 0-10.8V195h5.5l3.1.2h.5c3 0 5.9.3 8.8 0 1.7 0 3.4.4 5 .3h2.5l5.5-.2h3.2v34.5c0 1.5 0 1.4-1.5 1.4h-5l-11.4.3-14.4.1h-2.4zm90.6 53.6l36.6-.4v33.6l-36.6.4v-33.6zM137.1 95.3l-34.4 1V60.5h1c6.5-.2 13-.4 19.5-.4l9.2.2h3.7c.7 0 1 0 1 1 0 3.4.3 6.8.2 10.3l-.2 13v10.7zm-44 183H61.8v-38c1.2-.8 2.4-.5 3.8-.3 1.7.2 3.5 0 5.3 0l3.7.1 6-.2 4.4.2a49.7 49.7 0 0 0 6.5 0l2.2-.1c-.4 12.8.2 25.4-.4 38.3zm52.7-183v-35h33.9c.9 0 1.3 0 1.3 1V80a1265 1265 0 0 1 0 13.8c0 .6-.4.8-1 .8-4.3 0-8.5.1-12.7.3-3.5 0-7 .2-10.4.3l-9.8.3-1.3-.2zm180.8 222.5c-1.3-.8 1-1.7-.8-2.2l.7-1.4v-1.3-.7-.9c-1-.7-.9-1.3.3-2-.5 0-.8 0-1-.2-.2 0-.3-.2-.5-.4.2 0 .3-.3.4-.3.9 0 .8-.6.8-1.1-.2-1.1-.1-2.2 0-3.2l-.3-2.4v-1.4c.2-1.7.4-3.3.2-5-.2-1.9-.2-3.8-.2-5.7l-.2-1.2.1-.7c0-1-.7-2 .5-3l36.5-.5-.5 33.2-36 .4zM102.7 103.6l33.7-.4v35.3l-33.7.4v-35.3zm34.9 216.3l-34.8.4-.6-33.6 35.4-.4c.3 11.2.7 22.4 0 33.6zm-76-88.1v-12-23.1c0-1.5.5-2 2-1.9h4.8c1.4 0 2.8.3 4.2.4h4.9c1.4.1 2.8-.2 4.3.2 1 .3 2-.1 3.2-.2.6 0 1.4-.3 2 0 1.6.4 3.2 0 4.8.1h1c1-.5 1.2-.3 1.2.8v35.6c-2.2 0-4 .3-6 .3l-13-.3H61.7zm255 86l-1.2.1-32.5.4c-.9 0-1.2-.1-1.1-1.2l-.3-4.5v-.4c1.2-1 .1-2.2.2-3.3l.4-5.6s.1-.1 0-.2c-1-1.3.2-2.7-.1-4-.2-.5.2-1.1.1-1.7 0-1.4-.5-2.7-.4-4 0-1.5-.2-3.1.1-4.4.4-1.5-.2-2.7-.3-4.1l1.2-.3h12.2c2 0 3.8-.2 5.8-.1l3.4.3 1.5-.3c1.6 0 3.1.2 4.7.3l.7-.1 4-.4c.6 0 1.2.3 2 .6l-.4 33zM146 286.3l34.7-.4v33.6l-34.7.4v-33.6zM61.7 60.5h32.2v35.9l-32.2-.5V60.5zM406 316.9l-34.5.4v-4c0-1 0-2-.3-3 0-.2-.5-.4-1-.7 1.2-.5 1.2-1 1-2-.3-.6 0-1.5 0-2.3l-.3-6.5-.3-1.4.8-.2-1.1-.8.7-.5.3-12h11.4a2384.2 2384.2 0 0 0 22.2-.2c.9 0 1.1.3 1.1 1.1V317zm-86.1-212.6l-.5 11.7.2 8.6v4c0 .6 0 1.3-.2 2 0 1-.3 2.1-.4 3.2v2.8c-11.7 0-23.4.2-35 .3v-18.8l-.9.6v-.6c1.5-1.2.7-2.7.7-4.1 0-.5-.3-.9-.4-1.3v-1.3l.4-.1-.5-.4.6-6.2 36-.4zM61.7 104l32.2-.3V139H61.7v-35zm265.8 28.2l1.7.8c0-1.2-.2-2.2-.3-3.3l.2-1.3h.4l-.5-.4-.4-.3.2-.3.6-.4-.4-3.5c0-.3.1-.7.3-1 .3-.7.2-.9-.6-1.1l.6-1.3c.2-.4.1-1 .1-1.4v-.8c0-.2.1-.7 0-.8-1.1-.7-.5-1.3.1-2-.3 0-.6 0-.9-.2l-.4-.2c.2-.2.3-.4.5-.4.8 0 .7-.7.7-1.2 0-1.1-.3-2.2 0-3.2a3 3 0 0 0-.2-1.9c-.4-1-.3-1.8.1-2.7.2-.3 0-.6 0-1.1l35.6-.4v5.6l.2.1-.6 5.2v5c0 4-.2 7.7-.3 11.6l-.2 4.6h-1.3l-33.4.5c-1.8 0-1.8 0-2-1.7l.2-2.5zm78.6-72V96c-1.9-.2-3.5.2-5.1-.6-.9-.5-2.2-.2-3.3-.2l-15.6.4-7 .2h-.9c0-.6.3-1 .1-1.3-.7-1.1-.3-2.4-.5-3.5l-.6-2h.7l-.6-2.9 1.1-.2c-1.2-1.4-1.2-2-.2-2.7-.8-1 .3-2.9-1.9-3.4l1.5-1-.7-2.3h1l-.7-2.5h-.3l.6-.7-.6-.8.7-.5-.4-.1c0-.4 0-.7.2-1 .2-.6-.8-.7-.3-1.5.2-.3-.2-1.3.4-2l-.7-1c1.3-1 1.7-3 .8-6.1h32.3zM321.9 33c-.6 1.9-.6 2.3.3 3.7l-1.4.2.2.4c.2.2.4.4.4.6-.2 2.1-.6 4.3-.7 6.4-.1 1.5.1 3 .2 4.5l.7-.2.2.3-.7.4-19 .4-17.9.2h-1.1v-3l-.8-2.6c.4.2.8.2.8-.7v-11l-.2-.4c-.5-.5-.5-.5.2-1H282V31l1-.8v-4.8h-1.1l1.3-2.5-.8-.6c0-.1 0-.2.2-.3.2-.2.6-.5.5-.6-.7-1.5.5-1 1.1-1l36.1-.1c1.1 0 1.3.3 1.1 1.4-.2 1.7-.1 3.5-.1 5.2l.3.6c-1.7 1.5.3 3.6-1 5.3l1.4.2zM61.6 330l31.6-.5v35.5h-26c-1 0-2-.6-3-.8-.9-.2-1.7-.2-2.6-.2v-34zM329 50.8c1.7-1.8.9-3.9 1-5.8l-.1-8v-2.2c.1-.7-.5-1.5-.7-2.2-.3-.8 0-1 .6-1V20.4h35.8c0 1.1.4 2.2-.3 3.3-.2.4-.1 1-.1 1.4l.2 6.1.3 5.4v4c-.1 2.8-.1 5.7-.3 8.5 0 .7 0 1.6-1.3 1.6l-34 .4-1-.1zm30.2-30.2h-4.2v.2l4.2-.2zM238.3 48.8c.1-.5.4-1 .3-1.5-.2-1.2-.3-1.2.2-2.5l.5 1.4c.3-.2.7-.2.8-.4 0-.2-.1-.6-.3-.8l-1-.6-.5-.3c.4-1-.5-1.8 0-2.8.3-1 .2-2 .3-3 1 .2 1 .6.2 2.2.5.6 1.6 1.1.2 2-.1 0 0 .5 0 .8h1.3l-.3-2.7c.2 0 .5 0 .7-.2l-1-2c0-.8.3-1.7.5-2.6h-1.6l.4-2 1 1.3.3-.2-.6-.6 1-.7-1.5-.6-.5-.6c.2 0 .4-.2.6-.4l-.8-3h-.2l.4-1.5 1.8 1.4.2-.3-.6-1.6 1 .3-.4-2.6.4-1.2-.8-.4 1.4-1.6-.6-1.3h34.3c0 .4-.2.6-.3 1h1.5l-1.2 1.2-.2.5.5.3-.6 3.8.7-.4h.9l.1.4c-.2.2-.5.2-.7.3l-1.3.5.3.5 1.7-.8-.2 2.3-1-.7-.5 1.2c0 .2.4.5.4.6 0 .8-.3 1.6-.4 2.4 0 1.3-.3 2.6-.1 3.8.1.8-.8 2.1 1.2 2.4-1.2.7-1.2 1.5-1 2.4V48.3c.5 1.4.4 1.6-1.2 1.6l-34 .4c-1.2 0-2-.2-2-1.6h.3zm-57.5-23.4c-.1 1.2-.4 2.3-.4 3.3l.3 6.6v5.5c0 1.2-.2 2.4 0 3.5.6 2-.3 4 0 6 0 .2-.5.6-.9.6a480.6 480.6 0 0 1-20.1 0c-2 0-3.9-.3-5.8-.4h-3.4c-1.5 0-3-.2-4.7-.4v-9.7c0-.8.1-1.6-1-1.8l1-.4v-18H179c1.4 0 1.9.8 1.4 2.2-.3.7 0 2.8.3 3zm-119.1 295V287h31.5v33.5H61.7zm344.7-184.7h-33.9l1-1.6c0-.3.2-.8 0-.9-.9-.6 0-1 .3-1.5l-.6-.6c1.1-1.3.5-2.7.1-4-.2-.7 0-1.4.7-1.8 0-1-.9-2 .2-2.9.2-.2 0-1 0-1.3l-.9-.4c.2-1-1-1.8 0-2.7l.7-.4-.6-1.6c-.1-.6-.2-1.2-.1-1.8 0-.6.4-1.2.6-1.8.4-1.4.4-1.4-.6-2.3l1-.7-1.6-1.2 1.4-.5-1.5-.8.7-1.4c.4-1.4.9-1.9 2.3-1.9l25.8-.2c1.4 0 2.8.3 4.2.6.2 0 .4.6.4 1v15.9c0 2.1.4 4.3.4 6.5v8.3zm-303.7-85V20.4h34.9V24l-.2 6.2-.4 9v10.2c.1 1-.5.8-1 .8l-16.6.2-15.4.2h-1.3zm-8.8.2H61.7V21l32.2-.4v30.4zm280.4-.5c0-1.6.2-3.3-1.1-4.7.3-.3.8-.7 1.1-1.3.2-.3 0-.8-.2-1.4 0-.2.4-.8.2-1-.7-1.3-.3-2.7-.5-4 0-.6-.5-1.1-.8-1.7l1 .2-.7-3c.3 0 .6 0 1-.2-.2-.4-.6-.8-.7-1.3 0-.5.2-1 .5-1.4l-.3-1.3c-.1-.4-.1-1-.4-1.4-.9-1.1-.9-1.1.4-1.6l-.7-2.4c1 .1 1.4.1 1.2-1-.2-.7.2-1.6.3-2.6h1l29.3-.1c1 0 1.7 0 1.4 1.4-.2 1.3-.1 2.6-.1 3.9l.1 5c0 1.4-.4 2.7-.3 4 .2 3 0 6 0 9v5.8c0 1-.5 1.4-1.3 1.3-2.1-.1-4.2-.4-6.3-.4-7.6 0-15.1.2-22.7.3h-1.4zM239.5 22v-1.7h1.3l-.9 1.9-.4-.2zM237 33.8l1.1-2.2h.3c-.1.6 0 1.3-.3 2l-1 .2z"/><path fill-rule="evenodd" clip-rule="evenodd" d="M359 20.6l-4.1.2v-.3h4.2z"/></g><path stroke-dasharray="100% 100%" data-center-center="stroke-dashoffset: -100%;" stroke-dashoffset='-100%' data--30p-center-center="stroke-dashoffset: 0;" class="stroke stroke--second" stroke="#FF2165" stroke-width="14" stroke-miterlimit="10" d="M244.2 381.8l.4-1c4-8.2 6.7-16.9 8-25.9.7-5.2.6-10.6-1.4-15.7-2-5.2-6-8.6-10.5-11.4-4.7-3-10-4.2-15.4-5-8-1.4-16-2.5-23.6-5.3-5.2-2-10.1-4.5-14.1-8.5a23.7 23.7 0 0 1-7-16.1c-.3-7.6 1.1-15 3-22.3 1.7-6 3.7-12 5-18.2 1.3-5.6.6-11-3-16-5-6.8-11-12-18.8-15.2l-.4-.4" fill="none"/>
<g class="arm is-transformable" data-start="300, 0" data-end="0, 0"><path fill="#fff" d="M296.7 78.3l38.2 64.4 16.3-16.6 5.3 7L465 64.4l-26-56.2-105.4 38.6"/><path fill="#FEFEFE" d="M211.8 134.5c-2.6 2.2-5.4 4-8 6l-4.9 3.9-12.1 9.9c-.4.3-1 .4-1.3.8-.5 1-1 .9-1.6.2-1.2-1.2-2.6-1-4.2-1-2.4.3-4.8 0-7.2 0-3.9-.2-7.7 0-11.6.3-2.2.2-4.5 0-6.7.3-3.4.4-6.8.6-10.2.8-4.4.3-8.8.9-13.1 1.6-7 1.2-14 2.3-20.8 4.2-4 1.1-7.8 2.4-11.7 3.7-5.3 1.9-10.4 4.3-15.6 6.4-5.1 2-10 4.4-14.8 7.1a56.6 56.6 0 0 0-7.8 5.3c-2.8 2.3-2.7 4.8.4 6.6.3.2.6.4.5.7-.8 1.7.2 2.1 1.4 2.5.4.1.7.5 1 .8 1 .8 2.1.9 3.2.1l.6-.3c2-1 4.3-1 6.4-1.6 2.3-.6 4.8-.8 7.2-1.1 4.7-.8 9.3-2 14-2.5 3.5-.4 6.8-1.2 10.3-1.4 2 0 4.2-.8 6.3-1 2.8-.3 5.5-.8 8.2-1.2 1.5-.2 3-.2 4.3-.5 2.7-.7 5.4-1.1 8-1.4 4.8-.6 9.5-.8 14.3-1.4 1.1-.1 2.3.3 3.5 0 .2 0 .5 0 .6.3l-.2.3c-1.9 1-3.2 3-5.4 3.5-.2.1-.5.4-.5.6-.1 1-1 1.5-1.7 2-1.2.6-2.2 1.6-3.3 2.2-2 1-3.1 3-5.4 3.4-.2 0-.3.2-.4.3-2.7 2.6-5.8 4.6-8.8 6.8-2.5 1.7-4.9 3.6-7.4 5.2l-8.3 5.6c-.8.6-1.4 1.3-2.2 1.8-1.1.7-2.3 1.4-3.3 2.3-1.6 1.4-3.5 2.5-5.2 3.9l-5.6 3.8-4.4 3.1c-1.3 1-2.6 1.9-3.8 3-.9.8-1.8 1.5-3 2-2 .7-2 .7-1.6 2.9l.1.3c-.3 1.2.6 1.6 1.3 2 .5.2 1 .1 1.3.8.2.3.8 1.2 1.7 1 .7-.3 1.5-.1 2.2-.2 2.3 0 4.7-.3 7-.9 2.2-.5 4.4-1.4 6.7-1.8.6 0 1-.3 1.6-.5.8-.4 1.8-.8 2.6-.9 2 0 4-.7 5.8-1.4 1.9-.7 4-.9 5.8-1.7 1-.5 2.3-.4 3.3-1.2 1-.7 2.5.1 3-1.4h.3c.5.5 1-.1 1.5-.2 1.3-.3 2.6-1 3.8-1.5 2.3-1 4.9-1.2 6.5-3.3l.4-.1c.6.8 1.2.1 1.5-.1.8-.7 1.8-1 2.6-1.4 2-1.1 4.2-1.4 5.8-3 .1-.2.4-.1.6-.2 1.8-.4 3.6-.7 5.2-1.8 2.6-2 5.4-3.5 8-5.6 1-.8 2.4-1.3 3.5-2.1 2.3-1.8 4.8-3.3 7-5l9.1-6c3.5-2.3 7-4.7 10.4-7.2 2.5-1.8 5.1-3.4 7.3-5.6 1.7-1.7 3.7-2.8 5.2-4.7a6 6 0 0 1 2.2-1.7c2.2-.9 3-2.3 2.6-4.5-.1-.8 0-.8.6-.7 1 .3 2 .7 2.9.7a53 53 0 0 0 10-1.2l8.4-1.7c.7-.1 1 0 1 .8 0 1.5 0 3 .4 4.5 1.7 6 5.5 10.1 11.3 12.4 1.6.6 3.3.9 5 1.2 1.7.4 3.4.4 5 .3 3.7-.4 7.3-.4 11-1.2l6-1.2c2.6-.4 4.5-2 6.8-2.7 3.3-1.2 6.5-2.6 9.6-4.3 3-1.5 5.4-3.6 7.8-5.7 1-.9 1.4-2.1 3-1.3.3.1.8 0 1.2-.1l4-1c1.5-.5 3-1 4-2.2.8-1.3 2-2.5 2.4-4.1 0-.4.4-.4.5-.2.5.8 1.3.3 1.9.5 1.7.4 3.8-.5 4.4-2.2.3-.6.5-.4.7-.2a4.7 4.7 0 0 0 4.2 1.3 8.2 8.2 0 0 0 6.5-4c1.8-3.2 3.9-6.3 4.7-10 .5-2.7 1.7-5.3 1.6-8 0-.8-.2-2.2 1.4-1.6l.8-.2 2-.6c2-.3 3.5-1.4 5.3-2 1.6-.5 3-1.7 4.4-2.7a98 98 0 0 0 7-5.2c.6-.5 1-.7 1.9-.4 1 .3 2 .6 3 .7 4.2.3 8-1 11.5-2.7 4.1-2 8-4.4 11.8-6.7 5.1-3.1 10-6.4 14.9-9.9 4.7-3.4 9.4-7 14.2-10.3 3.7-2.7 7.6-5 11.2-7.5l12-8.6c2.6-1.7 5-3.8 7.7-5.5 5.8-3.7 11.4-7.6 16.9-11.6l8.2-5.9c1-.6 2.1-1.4 2.8-2.5.5-.6.2-1.9-.4-1.8-1 0-.8-.4-.6-1 .2-1 .3-1.8 0-2.8-.2-.6-.5-1-1.3-.6a51.5 51.5 0 0 0-11.4 6l-15.7 10.9-6 4.1c-.7.5-.7 1.6-1.7 2-2 .8-3.6 2-5.3 3.2l-21 14.4c-.4.3-1.2.7-1.3 1.2-.1.8-.6 1-1 1.3-1.4.7-2.7 1.4-4 2.3l-13.2 9-7.6 5.3c-3.4 2.2-6.5 4.6-9.8 6.9-2.2 1.5-4.5 3.1-7.4 3.2-1 0-1.7-.4-2.2-1.2a58 58 0 0 1-5.2-9.5c-1.3-3-3-6-4.4-9L345 100c-.5-.8-.8-1-1.5-.2-.6.9-1.3 1.8-1.7 2.8-.2.5-.6.8-1 1.1-.5.5-1.7.9-1.1 1.8.3.6.7 1.5 1.5 1.8 1.1.4 1.5 1.4 2 2.3 2.4 5.2 5 10.4 8 15.3.4.4.4.7 0 1.2-.8 1-2 1.4-3 2.2-3.8 3-8 5.2-12.4 7.4-1.1.6-1.4.5-1.8-.7l-3-7.9c-.3-1-.6-1.8-.6-2.8l-.3-.8c-.3-1.1-1-2.2-1.3-3.3-.8-2.5-2.3-4.7-3.3-7-1.2-2.7-3-5.2-4.4-7.8-.4-.5-.8-1-1-1.6-.3-2.2-1.6-4-2.6-5.9-2-3.9-4.2-7.7-6.7-11.4-1.8-2.8-4-5.2-6.7-7.3-.7-.6-.6-.8 0-1.3 2-1.8 4.4-3.3 6.7-5 1.2-1 2.6-2 3.9-2.8 1.9-1.3 4-2.3 5.9-3.6.6-.5 1.3-1.1 2.2-1.2 2 0 3.3-1.5 5.3-1.6-.5-.7-.9-1.3-1.3-1.6-.7-.6-.6-1-.2-1.6l1-1L337 54l8.5-5.3 2-1.2c1.3-.9 2.5-2 4-2.7 1.2-.5 2.6-1.1 3.7-1.9 2.4-1.5 5-2.4 7.7-3.3l3.3-1.5c1.3-.8 3.1-.5 4.2-2h.4c.8.7 1.4 0 1.9-.3 1-.7 2-1.3 3-1.6.8-.2 1.4-.3 2.1-.7 1.3-.6 2.6-1.3 4-1.6l3.5-1c1.3-.4 2.7-1 3.9-1.7 1.7-1 3.5-1.7 5.2-2.7.6-.3 1.1-.8 1.8-.1.3.3.7 0 1-.2.8-.7 1.8-1.4 2.6-1.6 2-.5 3.8-1.4 5.7-1.9.8-.2 1.6-.8 2.4-1.2 1.3-.8 3.2-.4 4.3-2h.4c.7.9 1.4.2 1.7-.1.9-.8 2-1.3 3-1.7.5-.2 1.2 0 1.8-.4 2.4-1.3 4.9-2.4 7.7-2.8.1 0 .4 0 .5-.2 1.7-1.5 4-1.9 5.9-3l5.9-3c.6-.4.6-.7.2-1.2l-1.8-3c-.3-.5-.7-.7-1.3-.7-1.7 0-3 1-4.4 2-.6.4-1.2 1-2 1.3-3.1 1.2-6.3 2.4-9.6 3.4-4.1 1.2-8 3-12.2 4.5-2.4.9-4.7 2.1-7.2 3-1 .4-2.1.8-3 1.5-.8.5-1.5 1-2.3.9-2.2-.2-3.8.8-5.5 2-.7.5-1.3 1-2.2 1.3l-12.3 4.3c-4 1.4-8 2.9-11.8 4.7l-1.6.7c-2 .8-4 1.4-5.9 2.4-1.6 1-3.3 1.6-4.9 2.6-2 1.4-4.4 1.9-6.5 3l-11.2 6c-2.5 1.3-5 2.8-7.4 4.3-2.8 1.7-5.3 3.9-8.2 5.6-.4.2-.5.5-.3 1 .3.9.4 1.8.8 2.6.3.9 0 1.2-.7 1.6-2.2 1.2-4.4 2.2-6.6 3.5l-4.8 3c-1.3.9-2.6 1.7-3.8 2.7-1.9 1.4-3.5 3-5.3 4.7-.9.8-1.2 1.4-.5 2.5.3.4.6 1 .3 1.4-.6.8-1.1 1.8-.9 2.5.4 1.1 0 1.6-.7 2.2v.1c.4 1-.3 1.1-.9 1.4-1 .4-2 1-2.8 1.8-.7.6-1.1.6-1.8-.1-3.6-3.6-7.9-6-12.8-7.3a51.7 51.7 0 0 0-13.4-1.5c-4.1 0-8.3.2-12.2 1.5-2 .6-4.2 1-4.2 3.8 0 .4-.3.6-.9.4a51 51 0 0 0-25 2.5c-3.5 1.3-7 2.7-10.3 4.7-4.2 2.7-7.4 6.4-11 9.6-.6.5-1.5 1.5-1.2 2.2.8 1.6.8 3 .6 4.8-.1.5-.1.7-.6.9-2.1 1-4.4 2-6.4 3.4-1 .7-1.6 1.6-1.8 2.7-.8 2.8.1 5.4 2 7.4 1.8 2 4 3.6 6.7 4.4 2.2.6 4.4 1.2 6.8 1 .5-.1.5.2.5.6 0 1.5.8 2.7 1.8 3.7s2.1 1.4 3.4 2zm119.3-14c0 2 .5 3.8 1.5 5.4 1.3 2.2 2.8 4.4 6 3.5h.2c1 1 2.1.4 3.2 0l1-.1a2.6 2.6 0 0 0 2.3-2.5c0-2.9-1-5.5-2-8.2-.6-1.6-1.2-3.2-2.3-4.6-1-1.1-2.5-1.9-3.5-1.4-1.8 1-4 1.6-4.8 3.8-.5 1.4-2 2.4-1.6 4.1z"/><path fill-rule="evenodd" clip-rule="evenodd" fill="#030302" d="M211.8 134.5c-1.2-.6-2.4-1-3.3-2-1-1-1.8-2.2-1.8-3.8 0-.4 0-.6-.6-.6-2.3.3-4.5-.4-6.7-1-2.7-.7-5-2.3-6.8-4.3a7.8 7.8 0 0 1-2-7.4c.3-1.1 1-2 1.9-2.7 2-1.4 4.2-2.4 6.4-3.4.5-.3.4-.4.5-1 .3-1.6.3-3.2-.5-4.8-.4-.7.5-1.6 1-2 3.7-3.3 7-7 11.1-9.7 3.3-2 6.8-3.4 10.4-4.8a51 51 0 0 1 25-2.4c.5.2.8 0 .8-.5.1-2.7 2.3-3 4.2-3.7 4-1.4 8.1-1.5 12.2-1.6 4.6 0 9 .4 13.5 1.5 4.9 1.3 9.1 3.8 12.7 7.4.7.7 1.2.7 1.9 0 .8-.7 1.7-1.3 2.8-1.8.5-.2 1.2-.4.9-1.3v-.1c.6-.6 1-1.1.7-2.2-.3-.7.3-1.7.8-2.5.3-.5 0-1-.2-1.5-.8-1-.4-1.7.5-2.5l5.2-4.7c1.2-1 2.5-1.7 3.8-2.6l4.8-3c2.2-1.3 4.5-2.3 6.7-3.5.7-.4 1-.8.6-1.6l-.8-2.6c-.2-.5 0-.8.4-1 2.9-1.7 5.3-4 8.2-5.6 2.4-1.5 4.8-3 7.4-4.4l11.1-5.9c2.2-1.1 4.6-1.7 6.6-3 1.5-1 3.3-1.6 4.9-2.6 1.8-1 3.9-1.6 5.8-2.4l1.7-.7c3.8-1.8 7.8-3.3 11.7-4.7 4.1-1.5 8.2-3 12.4-4.3.9-.3 1.5-.9 2.2-1.4 1.6-1.1 3.3-2.1 5.4-2 .8.1 1.6-.3 2.3-.9 1-.6 2-1 3-1.4l7.3-3c4-1.5 8-3.3 12.2-4.6 3.3-1 6.4-2.2 9.6-3.4.7-.2 1.3-.8 2-1.3 1.3-.9 2.6-1.8 4.4-2 .5 0 1 .3 1.2.8l1.8 3c.4.5.4.8-.2 1.2l-5.8 3c-2 1-4.2 1.5-6 3a1 1 0 0 1-.5.2c-2.8.4-5.2 1.5-7.7 2.8-.5.3-1.2.2-1.7.4-1.1.4-2.2.9-3 1.7-.4.2-1 1-1.7.2h-.5c-1 1.4-3 1.1-4.3 1.9-.8.4-1.5 1-2.4 1.2-1.9.5-3.7 1.4-5.6 1.8-.9.2-1.9 1-2.7 1.7-.3.3-.6.4-1 .2-.6-.7-1.2-.2-1.7 0-1.7 1-3.5 1.8-5.2 2.7a24 24 0 0 1-4 1.8l-3.5 1c-1.4.3-2.7 1-4 1.6-.6.4-1.3.5-2 .7-1.1.2-2.1 1-3 1.6-.6.3-1.2 1-2 .3h-.3c-1.1 1.4-3 1.2-4.3 2l-3.2 1.4c-2.7 1-5.3 1.9-7.7 3.4l-3.8 1.9c-1.5.6-2.7 1.8-4 2.7l-2 1.2-8.5 5.3-9 5.7c-.5.2-.8.5-1.1.9-.5.5-.5 1 .1 1.5.5.4.8 1 1.4 1.6-2 .2-3.4 1.7-5.4 1.7-.8 0-1.5.7-2.2 1.1-1.9 1.3-4 2.3-5.9 3.6l-3.9 2.9c-2.2 1.7-4.6 3.1-6.7 5-.6.5-.6.7 0 1.3 2.7 2 5 4.4 6.8 7.3 2.4 3.7 4.6 7.5 6.7 11.4 1 1.9 2.2 3.7 2.6 5.8.1.7.6 1.1 1 1.7 1.4 2.5 3.1 5 4.3 7.7 1 2.4 2.5 4.5 3.3 7 .3 1.2 1 2.2 1.4 3.4l.2.8c0 1 .3 1.9.7 2.8l3 7.9c.4 1.2.6 1.2 1.8.7 4.3-2.2 8.6-4.5 12.4-7.5 1-.7 2.1-1.2 3-2.1.3-.5.3-.8 0-1.3-3.1-4.8-5.6-10-8-15.2-.5-1-1-2-2-2.4-.8-.3-1.2-1-1.6-1.7-.5-1 .7-1.3 1.2-1.8.3-.3.7-.6 1-1.1.4-1 1-2 1.7-2.8.6-.9 1-.7 1.4.1l3.1 6c1.4 3 3.1 5.8 4.4 8.8a58 58 0 0 0 5.3 9.6c.5.7 1 1.1 2.1 1.1 3 0 5.2-1.6 7.4-3.2l9.8-6.8c2.6-1.7 5-3.7 7.7-5.4l13.2-9 3.9-2.3c.5-.2 1-.5 1-1.2.2-.5 1-1 1.4-1.3l21-14.4c1.6-1.1 3.3-2.4 5.2-3.1 1-.4 1-1.5 1.8-2l6-4.2c5.2-3.6 10.4-7.3 15.7-10.8 3.6-2.4 7.2-4.6 11.3-6 .8-.3 1.1 0 1.4.6.3 1 .1 1.8 0 2.7-.2.6-.5 1.1.6 1 .6 0 .8 1.2.4 2-.7 1-1.8 1.8-2.8 2.4-2.9 1.8-5.6 3.8-8.3 5.8-5.5 4-11 8-16.9 11.7-2.6 1.7-5 3.7-7.6 5.5-4 2.7-8 5.7-12 8.6-3.7 2.5-7.6 4.8-11.3 7.4l-14.2 10.4a248.8 248.8 0 0 1-26.6 16.5c-3.6 1.7-7.4 3-11.5 2.8-1-.1-2-.4-3-.8-.8-.2-1.3 0-2 .4a95 95 0 0 1-7 5.3c-1.4 1-2.8 2.2-4.3 2.7-1.8.6-3.4 1.7-5.3 2-.7 0-1.3.4-2 .6-.3 0-.6.3-.8.2-1.6-.6-1.5.7-1.4 1.5.1 2.8-1.2 5.3-1.7 8-.8 3.8-2.9 6.9-4.7 10a8.2 8.2 0 0 1-6.5 4c-1.6.3-3 0-4.1-1.2-.3-.3-.5-.4-.7.2a3.9 3.9 0 0 1-4.5 2.1c-.6-.1-1.4.3-1.9-.4 0-.2-.4-.2-.4.2-.4 1.6-1.6 2.8-2.5 4-.9 1.3-2.5 1.8-4 2.2l-4 1c-.4.1-.9.3-1.2.1-1.5-.7-2 .5-3 1.3a40 40 0 0 1-7.7 5.8c-3.1 1.7-6.3 3-9.6 4.2-2.3.9-4.3 2.3-6.8 2.7l-6.1 1.3c-3.6.8-7.3.8-10.9 1.1-1.6.2-3.4.1-5.1-.2-1.7-.4-3.3-.6-5-1.2a17.8 17.8 0 0 1-11.3-12.5c-.4-1.4-.3-3-.3-4.4 0-.8-.3-1-1-.8l-8.5 1.7a53 53 0 0 1-10 1.1c-1 0-1.9-.4-2.8-.6-.6-.1-.8-.1-.7.6.5 2.3-.4 3.7-2.5 4.5-1 .4-1.7 1.1-2.2 1.8-1.5 1.8-3.6 3-5.2 4.7-2.2 2.1-4.9 3.8-7.3 5.6-3.4 2.5-7 4.8-10.4 7.2-3 2-6.1 3.9-9 6-2.4 1.7-4.9 3.2-7.2 5-1 .8-2.4 1.2-3.5 2.1-2.5 2-5.3 3.7-8 5.5-1.5 1.1-3.4 1.5-5.2 1.9l-.5.1c-1.6 1.7-4 2-5.8 3-.9.5-1.9.8-2.7 1.4-.3.3-.9 1-1.4.1l-.4.1c-1.7 2.2-4.3 2.4-6.5 3.4-1.3.5-2.6 1.2-3.9 1.4-.4.1-1 .8-1.5.3h-.2c-.6 1.5-2.1.7-3 1.4-1 .8-2.3.7-3.4 1.1-1.8.9-3.9 1-5.8 1.8-1.8.6-3.7 1.3-5.7 1.4-.9 0-1.8.5-2.6.8-.6.2-1 .5-1.7.6-2.3.4-4.5 1.2-6.7 1.8a37 37 0 0 1-7 1c-.7 0-1.5-.2-2.2 0-.8.2-1.5-.6-1.6-1-.4-.6-.9-.5-1.4-.8-.7-.4-1.6-.8-1.2-2l-.1-.3c-.4-2.2-.4-2.2 1.6-2.9 1.1-.4 2-1.2 3-2l3.7-2.9 4.5-3.2c1.9-1.2 3.8-2.4 5.5-3.8 1.8-1.3 3.6-2.4 5.3-3.9 1-.8 2.1-1.6 3.3-2.3l2.2-1.7 8.2-5.6c2.6-1.7 5-3.5 7.4-5.3 3-2.1 6.1-4.2 8.9-6.7l.3-.3c2.3-.4 3.5-2.4 5.4-3.4 1.2-.6 2.2-1.6 3.3-2.3.8-.5 1.6-.9 1.7-1.9 0-.2.4-.5.6-.6 2.2-.5 3.5-2.5 5.4-3.5l.1-.3c0-.3-.4-.4-.6-.3-1.1.3-2.3-.2-3.5 0-4.7.5-9.5.8-14.2 1.4a62 62 0 0 0-8 1.3c-1.3.4-2.9.4-4.3.6l-8.2 1.1c-2.2.3-4.3 1-6.4 1.1-3.4.2-6.8 1-10.2 1.4-4.7.5-9.4 1.7-14 2.4-2.5.4-5 .6-7.3 1.2-2 .5-4.3.6-6.3 1.6l-.6.3c-1.1.8-2.2.7-3.2-.2-.3-.2-.6-.6-1-.7-1.2-.4-2.3-.9-1.5-2.5.2-.3-.2-.5-.5-.7-3-1.9-3.2-4.4-.3-6.7a112.3 112.3 0 0 1 22.5-12.4c5.3-2 10.3-4.5 15.7-6.3 3.8-1.3 7.7-2.6 11.6-3.7 6.9-2 13.9-3 20.9-4.2 4.3-.7 8.7-1.3 13-1.6 3.5-.3 6.9-.4 10.3-.9 2.2-.3 4.4 0 6.7-.2 3.8-.3 7.7-.5 11.5-.4 2.5 0 4.9.3 7.3.2 1.5-.2 3-.3 4.1.8.8.7 1.1.8 1.7 0 .2-.5.8-.7 1.2-1l12.2-9.9 4.9-3.8c2.6-2 5.4-3.8 8-6zm-24.4 29.9c-.4-.4-.5 0-.7.2-.9.6-1.7 1.5-2.7 1.8-.8.3-1.3.6-1.5 1.1a4.3 4.3 0 0 1-3 2.5 9.7 9.7 0 0 0-5.1 3.4 41.4 41.4 0 0 1-5.1 4.9c-.4.3-1.2.4-1.2 1.2 0 1-.9 1.5-1.7 1.6-1 0-1.7.6-2.5 1.2l-1.8 1.6c-3.2 2.1-6.2 4.3-9.2 6.5-3.4 2.6-7 4.7-10.5 7.1-3.9 2.8-7.2 6.1-11 8.8-1.6 1.1-3 2.5-4.7 3.4-3.6 2-6.5 4.8-10 6.8-2.3 1.4-4.4 3-6.6 4.5l-4.6 3c-1.7 1-3 2.3-4.7 3.5-.7.5-1.6 1-2.1 2l.8-.1c3.3-.9 6.3-2.2 9.4-3.4l9-3.7 6.1-2.5c1.5-.6 2.9-1.4 4.5-1.7a10 10 0 0 0 3.5-1.7c.2 0 .2-.4.5-.4 1.2 0 2.1-1 3-1.5 1.2-.7 2.5-1.2 3.7-2 .7-.3 1.6-.9 2.7-1 1 0 2-1 3-1.5 3-1.6 6-3.6 8.8-5.5 4-2.5 8-5 12-7.7l19.8-14 11.2-8c.2-.3.4-.4.5-.8.6-3 1.5-5.9 2.3-8.8.6-2.1 2.6-3.7 2.4-6.2h.2c1 .3 1-.6 1.2-1 .8-1 1.4-2.3 2.3-3.2 4.1-4.6 8.5-9 13-13.2 6-5.8 12.4-11.1 18.3-17.1a73.2 73.2 0 0 0 13.8-18 14 14 0 0 0 .7-12.5c-1-2.5-2.8-4.4-5.7-4.8a48.4 48.4 0 0 0-22.1 3c-3.8 1.6-8 2.7-10.4 6.5-.4.7-1.4 1-1.8 1.6-1.3 1.6-2.8 3-4.1 4.4-.4.4-1 .9-1 1.7l3.3-1c.8-.3 1.7-.8 2.3-.9 1.5 0 2.8-.8 4.2-1.3.8-.3 1-.9.7-1.6-.2-.7 0-1.2.4-1.6l2.9-2.4c4.5-3.3 9.7-5.1 15-6.5a8 8 0 0 1 8.8 4.1c1 2 2.3 3.9 2.1 6.3 0 1.5-.4 2.9-.7 4.3-.5 3.1-1.6 6-3.4 8.5-2.3 3.1-5.6 5.2-8 8.2-.2.3-.5.6-1 .3-1.1-.9-2.4-.7-3.6-.1-2.8 1.3-5.8 2-8.8 3.1-2 .8-4.3 1-6.5 1.5-.4 0-.9 0-1.3.2-.7.3-.7 1-.6 1.5.2.7.6.3 1 .1l2.8-.8c1.5-.5 3.1-.2 4.5.4 1.4.7 1.9 2.4 2.6 3.6.2.3.1.7 0 1-1.2 1.6-2.1 3.4-3.7 4.6-.6.5-.7 1-.5 2-.7-1-1.1-.6-1.7-.2-1.5 1.1-2.7 2.4-4 3.6-1.3 1-2.8 1.9-4 3-2.5 2.1-5.2 4-7.7 6-.9.8-1.4 1.7-2.4 2.2-1 .7-2.2 1.2-2.6 2.6l-.2.1c-1-.2-1.7.6-2.3 1.2a77 77 0 0 1-4.8 4c-.7.5-1.7 1-1.8 2zm95.3-21.4c0-.6.5-1.1.8-1.7 1.2-2.3 2.7-4.3 5.3-5.1 3.6-1.1 7.1-.5 10.4 1.2.8.4 1 .3 1.5-.4 1-1.8 2.7-2.7 4.5-3.2 2.4-.6 4.7-.3 6.8.8.8.5 1.4.6 2-.4a5 5 0 0 1 3-2.3c.7-.2 1-.6.8-1.3l-.6-4.2c-.4-3.1-1.3-6-4.8-7-.7-.2-1-.8-.2-1.4 1-1 2.3-1.3 3.6-1.8.7-.3 1.9.4 2-.5.1-.8-.6-1.6-1-2.4-2.8-5-5.3-10.2-8.4-15l-5.6-8.8c-.3-.6-.7-1.3-1.7-.7l-4.6 3.2c-1 .7-1.3 1.6-.7 2.8.2.5.5 1.1.6 1.7.3 1.4 1.2 2.6.6 4-.4 1-.9 1.8-1 2.7-.1.6-.5.8-1 .3-1-1-2.1-2-2.5-3.5-.3-1.3-1-2.4-1.6-3.5-.5-.9-1.5-.9-2.1-1.6a21.7 21.7 0 0 0-12.1-7.5c-3.4-.8-6.9-.8-10.3-.9-2.8 0-5.6.2-8.3.4-1.7 0-3.3.4-4.8 1-1.2.3-1.1.6-.3 1.6 1.6 1.7 3.2 3.3 4.4 5.4 2 3.4 2.7 7 1.3 10.6l-1.8 4.2c-1 2.6-2.9 4.8-4.4 7.1-.4.7-1 1.2-.5 2 .5 1 1.3.7 2 .6a99 99 0 0 0 14-3.8c1.6-.5 2.8-1.8 5-1.1 2 .6 3.4 3 2 5.2-1.2 1.6-2.8 2.5-4.4 3.3-3.5 1.7-6.6 4-10.3 5.2-2.5.9-5 1.8-7.9 1a8 8 0 0 1-5-3.8c-.6-1-1-.9-1.6-.2l-4.7 4.6c-.7.6-.6 1.2.3 1.5.6.2 1.1.2 1.8.8-1.3.1-2 .9-2.1 1.8-.5 3.4-1.8 6.6-1.8 10 0 1-.5 2-.3 2.9.3 1.8 0 3.5-.4 5.2 0 .3.1.6.2.5 1.1-.6.6.5.6.6 0 .8.2 1 1 .8l4.8-1.1c2.4-.5 4.8-1.3 7.2-1.1 1.2.1 1.8-.3 2.5-1.1.9-1.3 1-1.3-.3-2.3l-.5-.5a8.9 8.9 0 0 0-6-3.2c-2 0-3.2-1.1-4.3-2.6-.2-.3-.2-.5 0-.9 0-.3.2-.4.6-.5h3.6c4-.4 7.4 1 10 4 .6.6 1 .5 1.5 0l4.2-4.5c2.3-2 4.6-4.2 7.9-5 2.9-.6 5.4.2 7 2.6l1 1.1c1.1 1.3 2.4 2.5 3 4.2zm-104.3 18c-.5 0-.8-.5-1-.6-1.2-.2-2.5 0-3.6-.5 0 0-.6.3-1 .2-1-.2-1.9.4-2.7-.3-1 .8-2.3.7-3.5.5-.8-.1-1.6.4-2 .2-.8-.5-1.4-.2-2 0-.2.2-.4.2-.7 0-.4-.4-.8-.4-1.3 0-.2.3-.6.3-1 .2a6.5 6.5 0 0 0-3.3-.2c-1 .2-2 .3-3 0-.5-.2-1.2-.2-1.6 0-1.9.8-4 .2-5.8.8-1.1.4-2.3-.2-3.4.4-1.1.5-2.4.6-3.6 0-.8 1.3-2.1.7-3.2 1-2 .4-4.2.5-6.3 1-2.4.6-5 .4-7.3 1.4-2 1-4.4.7-6.6 1.6-1.9.8-4.1.7-6 1.8h-.4c-1.6 0-3 1-4.6 1 0 0 0 .3-.2.4-1.4.5-2.8 1.4-4.3 1.7-1.4.4-2.5 1.4-4 1.5-1 0-1.9 1-3 1.3-.7.2-1.8.3-2 1.3 0 .4 0 .2-.2 0-.3-.3-.7 0-1 .1-1.2.4-2.1 1.2-3.2 1.6-4.1 1.8-8.1 4-12.1 6a36 36 0 0 0-5.7 3.7l7.1-1.2 12.4-2 5.6-1c3.8-.5 7.5-1.2 11.3-1.8l21.3-3.4 15.4-2.4c5.6-.7 11.3-1.2 17-1.5 2-.1 4-.4 5.6-1.8l2.2-2c3.5-2.7 7.3-5 10.6-8 .3-.3.8-.5 1-1zm72.3 19.3c-1.9.1-3.7-.3-5.5-1.3-1.5-1-2.6-2.2-3.8-3.5-2-2-2.4-4.5-1.5-7.1a12 12 0 0 1 3.4-5.6c1.7-1.4 3.4-3.3 6-2.1.4.2.4-.1.5-.4.1-1 .4-1.9.8-2.7.3-.7 0-.7-.5-.6-2 .4-4.1.7-6.1 1.2-4.8 1.3-9.6 2.6-14.6 3.3-3.1.4-6.2.4-9.2-.6a40 40 0 0 0-7.3-1.5c-1-.2-1.6 0-2.1 1-1.4 2.5-2.8 4.9-3.6 7.6 0 .3-.5.7-.2 1 .3.3.7 0 1.1 0 4.7-1 9.3-1.7 14-2.3 2.6-.4 5.1-.5 7.7-1.1.5-.1 1.5-.5 2 .3.7 1.2 1.3 2.6.8 3.8-.7 1.8-.3 3.5-.3 5.3 0 3.2 1.6 5.4 4.3 6.9 2.9 1.6 6 2 9 2a68.2 68.2 0 0 0 25-4.5c5.4-2 10.7-4.2 15.3-7.8 2.6-2 5-4.3 5-8-.1-1.3-.5-2.1-1.4-2.7-2-1.3-4.4-1.7-6.8-1.6-1 0-1.8.5-2.7.6-.5.1-.9 0-1 .6v.6c-.5 1.3-.5 1.3.8 1.2 2.4-.2 2.5-.2 3.1 1.9 1 3.5 1 5.1-1.8 7.6-1.4 1.2-3 1.7-4.5 2.6a22 22 0 0 1-4.1 1.7l-5 1.7c-2.2.7-4.5 1.1-6.8 1.5-3.2.6-6.5 1.1-10 1zm1.7-13.6c-.2-1.3-1.3-1.3-2.2-1.9-1.4-.9-2.4 0-3.6.4-.3 0-1 .5-1 .6.5.8 0 1.8.7 2.6 3.5 3.4 8.1 5.2 13 3.1 4.6-1.9 7.7-5.3 10.6-9 2-2.4 3.6-5 5.3-7.5 2.2-3.2 3.6-6.7 4.2-10.5.2-1.7.2-1.6-1.4-2.1a9 9 0 0 0-5.2.1c-1.4.4-2.6 1.6-3.8 2.5-3 2.3-5.5 5.2-8 8.2-1.4 1.8-2.9 3.6-4.2 5.6-1.6 2.5-3 5.3-4.4 8zm-10.9-67c0-2.5-.3-2.8-2.2-2.7-2.6.1-4.9 1.2-7.2 2-.8.2-1.2.8-1.3 1.6l-.4 1a16 16 0 0 1-6.5 6.3c-3 1.6-6 3.4-9.5 4.2-4 1-7.7 2.7-11.4 4.3-1.8.8-3.4 1.8-5 3-.5.3-1 1 0 1.4 2.2 1 4.5 1.3 6.8 1.1 3.5-.4 7-1 10.5-2 3.8-.9 7.5-1.7 11.1-3 1.3-.5 2.5-1.4 4-.6.5.4.9.3 1.4-.2 2.3-2 4.4-4.2 6.1-6.8 2.2-3 3-6.6 3.6-9.6zm53.7 70.4l1-.6c1.8-1 3.3-2.3 3.6-4.6.2-1.6.2-3.2.1-4.8 0-2-.3-4.1-.4-6.2-.4-3.7-1.3-7.3-2.6-10.7a3 3 0 0 0-2.2-2c-1.7-.4-4.7.8-5.6 2.4a19 19 0 0 0-2.7 7.4c0 1 .3 1.4 1 1.8l1.5.6c1.5.6 2.6 1.6 3 3.2.2.9.6 1.7.9 2.5 1 3.3 2.4 6.5 2.2 10.1l.2 1zm-62.8-31.8a2 2 0 0 0-1.2.6c-1.7 2-3.6 3.8-5.4 5.6-1.9 1.8-3.6 3.8-5.6 5.5-1.3 1-2.2 2.5-3.4 3.6-.5.5-.6.8.3 1 4.6 1.2 9.1 1.6 13.8 1 1.6-.3 1.7-.3 1.2-2-.7-2.5-.3-5.2-.4-7.8-.1-2.5.3-5 .7-7.5zm84 18.4c1-.2 2.2.3 2.7-.8a30.2 30.2 0 0 0 3.4-17.4c-.2-1.2-.7-1.5-1.9-1-1.4.6-2.1 1.8-2.8 3-.6 1.4-.2 2.8-.3 4.2 0 4 .3 8-1.1 12zm-9 3.4c1.1-1.8 1.3-3.8 1.8-5.8 1-4.5 1.2-9 .3-13.6-.2-.6-.1-1.4-.9-1.4a2 2 0 0 0-1.8 1.1l-.3.6-.6 3c-.1.8-.4 1.5-.3 2.3.8 3.6 1.3 7.2 1.6 11 0 .8-.2 1.8.3 2.8zM248 173.8c-1.4-1.7-3-3-4.1-4.7-.3.5-.3 1-.6 1.2-.9.8-.3 1.4.3 1.9a6 6 0 0 0 4.4 1.6zm25-4.4c1.7-.6 3.4-1.2 5-2.2-.9-.2-1.6-.1-2-1-.3-.5-.6.1-.7.3-1 .8-1.2 2.1-2.2 2.9zM98.6 229.6h-.2.1c.1 0 0 0 0 0zm232.6-109c-.5-1.8 1-2.8 1.6-4.2.9-2.2 3-2.8 4.8-3.8 1-.5 2.5.3 3.5 1.4 1.1 1.4 1.7 3 2.3 4.7 1 2.6 2 5.2 2 8.1 0 1.3-1 2.4-2.4 2.5l-.9.1c-1 .4-2.1 1-3.2 0h-.2c-3.2.9-4.7-1.3-6-3.5a9.6 9.6 0 0 1-1.5-5.4zm6.5 5.4c.8-.1 1.6 0 2.2-.6.5-.5.7-.4.8.3 0 .4.1 1 .7.8.5-.2.2-.8.1-1a20 20 0 0 0-2.6-7.3c-.3-.5-.5-2-1.3-.3-.1.2-.6.3-.8.5-.9.4-1.8 1-1.7 2 .2 1.9.3 3.7 1.7 5.1.3.3.5.6 1 .5z"/><path fill-rule="evenodd" clip-rule="evenodd" fill="#87CBF3" d="M282.7 143c-.7-1.7-2-2.9-3.1-4.1l-1-1.1c-1.6-2.5-4.2-3.3-7-2.6a17 17 0 0 0-7.9 5c-1.5 1.4-2.8 3-4.2 4.4-.5.6-1 .6-1.4 0-2.7-3-6-4.4-10-4h-3.7c-.4.1-.5.2-.7.5-.1.4-.1.6.1.9 1 1.5 2.2 2.6 4.3 2.7a9 9 0 0 1 6 3.2l.5.5c1.2 1 1.2 1 .3 2.2-.7.9-1.3 1.2-2.5 1.1-2.4-.2-4.8.7-7.2 1.1l-4.9 1.1c-.7.2-1 0-1-.7 0-.2.6-1.3-.5-.6-.1 0-.3-.3-.2-.6.4-1.7.7-3.4.4-5.2-.2-.9.3-1.9.3-3 0-3.3 1.3-6.5 1.8-9.8.1-1 .8-1.7 2-1.9-.5-.5-1.1-.6-1.7-.8-1-.3-1-.8-.3-1.5l4.7-4.6c.6-.6 1-.7 1.5.2a8 8 0 0 0 5.1 3.9c2.9.8 5.4-.2 7.9-1 3.7-1.3 6.9-3.5 10.3-5.3 1.6-.8 3.2-1.6 4.3-3.3 1.5-2.2.1-4.5-2-5.2-2-.6-3.3.6-4.8 1.2a97 97 0 0 1-14.2 3.7c-.6.2-1.4.4-1.9-.5-.4-.9.1-1.4.5-2 1.5-2.4 3.3-4.5 4.4-7.2a117 117 0 0 0 1.8-4.2c1.4-3.7.6-7.2-1.3-10.6-1.2-2-2.8-3.7-4.4-5.4-.8-1-.9-1.3.3-1.6 1.5-.5 3.1-.9 4.8-1 2.7-.1 5.5-.4 8.3-.3 3.4 0 6.9 0 10.3.8 4.8 1.1 8.9 3.7 12 7.5.7.8 1.7.8 2.1 1.6.7 1.2 1.4 2.2 1.7 3.5.4 1.5 1.6 2.4 2.5 3.5.4.5.9.3 1-.3.1-1 .6-1.7 1-2.6.6-1.5-.3-2.7-.6-4l-.6-1.8c-.6-1.2-.4-2 .7-2.7 1.6-1 3-2.3 4.6-3.3 1-.5 1.3.1 1.7.7l5.6 8.8c3 4.8 5.6 10 8.4 15 .4.8 1.1 1.7 1 2.4-.1 1-1.3.2-2 .5-1.3.5-2.6.9-3.6 1.8-.7.7-.5 1.2.2 1.5 3.5 1 4.3 3.8 4.8 6.9.3 1.4.4 2.8.6 4.3.1.7 0 1-.7 1.2a5 5 0 0 0-3 2.3c-.7 1-1.3.9-2 .5a9.3 9.3 0 0 0-6.9-.8c-1.8.4-3.5 1.3-4.5 3.1-.5.8-.7.8-1.5.4a13.3 13.3 0 0 0-10.4-1.2c-2.6.8-4.1 2.9-5.3 5.2-.3.5-.7 1-.8 1.6z"/><path fill-rule="evenodd" clip-rule="evenodd" fill="#fff" d="M187.3 164.4c.2-1 1.1-1.4 1.8-2a77 77 0 0 0 4.8-4c.6-.5 1.2-1.3 2.3-1.1l.3-.1c.3-1.4 1.4-2 2.6-2.6.9-.5 1.5-1.5 2.3-2.2l7.7-6c1.2-1.1 2.7-2 4-3 1.3-1.2 2.6-2.5 4-3.6.6-.5 1-.8 1.7 0-.2-.8-.1-1.3.5-1.8 1.6-1.3 2.6-3 3.7-4.7.2-.3.2-.6 0-.9-.7-1.3-1.2-3-2.6-3.6-1.3-.6-3-.9-4.5-.5l-2.8.9c-.3.1-.8.6-1-.1-.1-.6 0-1.2.7-1.5l1.2-.3c2.2-.5 4.5-.7 6.6-1.4 2.9-1.1 6-1.9 8.8-3.2 1.1-.5 2.4-.7 3.6.2.4.3.7 0 1-.3 2.3-3 5.6-5.1 7.9-8.2 1.8-2.5 2.9-5.4 3.5-8.5.2-1.5.6-2.9.6-4.4.2-2.4-1.2-4.2-2.1-6.2a8 8 0 0 0-8.8-4.1 42.7 42.7 0 0 0-15 6.5c-1 .7-2 1.5-2.8 2.3-.5.5-.7 1-.5 1.7.3.7 0 1.3-.7 1.6-1.4.4-2.7 1.2-4.2 1.3-.6 0-1.5.6-2.2.9l-3.5 1c.1-.8.7-1.3 1.1-1.7 1.4-1.5 2.9-2.9 4.1-4.5.4-.5 1.5-.9 1.9-1.5 2.4-3.8 6.5-5 10.3-6.5a48 48 0 0 1 22-3c3 .4 4.7 2.3 5.8 4.7a14 14 0 0 1-.6 12.5 74 74 0 0 1-13.9 18c-5.9 6-12.3 11.3-18.4 17.1-4.4 4.3-8.8 8.7-13 13.3-.8 1-1.4 2.1-2.1 3.2-.3.4-.4 1.3-1.3 1 0-.1-.1 0-.1 0 .2 2.4-1.8 4-2.4 6.2-.9 2.9-1.7 5.8-2.3 8.7-.1.5-.3.6-.6.8l-11.2 8-19.9 14c-3.8 2.7-7.9 5.2-11.8 7.8-3 1.9-5.8 3.8-8.8 5.5-1 .5-2 1.4-3.1 1.5-1 .1-2 .6-2.7 1l-3.6 2c-1 .5-1.9 1.4-3 1.5-.4 0-.4.3-.6.4-1.1.7-2.2 1.4-3.5 1.6-1.6.3-3 1.2-4.4 1.8l-6.2 2.4-9 3.7c-3 1.3-6.1 2.6-9.4 3.5h-.8c.5-1 1.4-1.4 2.2-2 1.5-1.1 3-2.5 4.6-3.5 1.6-.9 3-2 4.6-3l6.6-4.4c3.5-2 6.5-5 10-6.9 1.7-.9 3-2.2 4.6-3.3 4-2.7 7.2-6 11-8.8 3.6-2.4 7.2-4.6 10.6-7.1 3-2.3 6-4.4 9.2-6.5l1.9-1.6c.7-.6 1.4-1.2 2.5-1.3.7 0 1.6-.5 1.6-1.5 0-.8.8-1 1.2-1.3 1.9-1.4 3.5-3.1 5-4.9a9.7 9.7 0 0 1 5.1-3.3c1.2-.3 2.5-1 3-2.5.3-.5.9-.8 1.6-1.1 1-.3 1.8-1.2 2.7-1.9.2-.1.4-.5.7-.2l-2 1.7c-.8.8-1.7 1.7-1.7 2.8 0 1.7 0 3.4.5 5.1.4 1.4 1.2 2.8 2.6 2.9 1.5 0 3.3.6 4.5-1 0-.2.3-.1.5-.2 1.2-.3 2.2-.9 3-2.1a6.1 6.1 0 0 0 .2-6.8c-.6-1-1.4-1.9-2.8-1.7-.3 0-.6 0-.8-.2-1.3-1-2.7-1-4-.5zm-9-3.5c-.2.6-.7.8-1 1.2-3.3 3-7.1 5.2-10.6 8-.8.5-1.5 1.2-2.2 1.9-1.7 1.4-3.6 1.7-5.6 1.8-5.7.3-11.4.8-17 1.5-5.2.7-10.3 1.6-15.4 2.4l-21.3 3.3-11.3 2-5.7.8c-4 .8-8.2 1.4-12.3 2l-7.2 1.3a36 36 0 0 1 5.8-3.7c4-2 8-4.2 12.1-6 1-.4 2-1.2 3.1-1.6.3 0 .7-.4 1.1 0 .1 0 .2.2.3 0 .1-1.1 1.2-1.2 1.8-1.4 1.2-.3 2-1.2 3.1-1.3 1.5-.1 2.6-1.1 4-1.5 1.5-.3 2.8-1.2 4.3-1.8l.2-.2c1.6 0 3-1.2 4.5-1 .2 0 .4 0 .5-.2 1.8-1 4-1 6-1.7 2.1-.9 4.5-.7 6.6-1.6 2.3-1 4.9-.8 7.3-1.4 2-.5 4.2-.6 6.3-1 1-.3 2.4.2 3.2-1 1.2.6 2.4.5 3.5 0 1.2-.6 2.3 0 3.5-.4 1.8-.6 4 0 5.8-.8.4-.2 1-.2 1.6 0 1 .3 2 .2 3 0s2.2-.2 3.3.2c.4.1.8.1 1-.2.5-.4.9-.4 1.3 0 .2.2.4.2.7 0 .6-.2 1.1-.5 2 0 .4.2 1.2-.3 2-.2 1.2.2 2.5.3 3.5-.5.8.7 1.8.1 2.6.3l1-.2c1.2.6 2.4.3 3.6.5.3 0 .6.5 1 .5zm72.4 19.4c3.5.1 6.8-.4 10-1 2.3-.3 4.6-.8 6.8-1.5l5-1.7a22 22 0 0 0 4-1.7c1.6-.8 3.2-1.3 4.5-2.5 2.8-2.6 3-4.2 2-7.7-.7-2-.8-2-3.2-1.9-1.3.1-1.3.1-.9-1.2l.1-.5c.1-.7.4-.6 1-.6.9-.1 1.7-.6 2.6-.7 2.5 0 4.8.3 6.9 1.6.9.6 1.3 1.5 1.3 2.7 0 3.8-2.4 6-5 8a56.3 56.3 0 0 1-15.2 7.9 64.2 64.2 0 0 1-25 4.4c-3.1 0-6.2-.4-9-2-2.7-1.5-4.3-3.7-4.3-6.9 0-1.7-.4-3.5.3-5.3.4-1.2-.1-2.6-.8-3.7-.5-.9-1.5-.5-2-.4-2.6.6-5.1.8-7.7 1.1-4.7.6-9.4 1.3-14 2.3-.4 0-.8.3-1.1 0-.4-.3.1-.6.2-1 .8-2.7 2.2-5 3.6-7.5.5-1 1.2-1.2 2-1.1 2.6.3 5 .8 7.4 1.6 3 1 6 1 9.2.5 5-.6 9.8-2 14.6-3.2 2-.6 4-.9 6-1.3.6-.1.9 0 .6.6a8 8 0 0 0-.8 2.7c0 .3 0 .6-.5.4-2.7-1.1-4.3.7-6 2.1a12 12 0 0 0-3.4 5.6c-1 2.6-.5 5 1.5 7.2 1.2 1.2 2.3 2.5 3.8 3.4 1.8 1 3.6 1.4 5.5 1.3z"/><path fill-rule="evenodd" clip-rule="evenodd" fill="#87CBF3" d="M252.4 166.7c1.4-2.6 2.8-5.4 4.4-8a60 60 0 0 1 4.3-5.5c2.4-3 4.8-6 8-8.2 1.1-.9 2.3-2 3.7-2.5a9 9 0 0 1 5.2-.1c1.6.5 1.6.4 1.4 2-.6 3.9-2 7.4-4.1 10.6-1.8 2.6-3.4 5.1-5.4 7.5-2.9 3.7-6 7.2-10.5 9-5 2.1-9.6.3-13-3.1-.8-.8-.3-1.8-.7-2.6 0 0 .6-.5 1-.6 1-.4 2-1.3 3.5-.4.9.6 2 .6 2.2 2zm-10.9-67c-.5 3-1.4 6.6-3.6 9.6a35 35 0 0 1-6.1 6.8c-.5.5-.9.6-1.5.2-1.4-.8-2.6 0-3.9.5-3.6 1.4-7.4 2.2-11 3.2-3.5.9-7 1.6-10.6 2-2.3.1-4.6-.2-6.8-1.2-1-.4-.5-1 0-1.4 1.6-1.2 3.2-2.2 5-3 3.7-1.5 7.4-3.3 11.4-4.3 3.4-.8 6.4-2.6 9.5-4.2a16 16 0 0 0 6.5-6.3l.4-1c0-.7.5-1.4 1.3-1.7 2.3-.7 4.6-1.8 7.2-1.9 1.8 0 2.2.2 2.2 2.7zm53.6 70.4c0-.4-.2-.6-.1-.9.2-3.6-1.1-6.8-2.3-10l-.8-2.5c-.4-1.7-1.5-2.7-3-3.3l-1.5-.6c-.7-.4-1-.8-1-1.8.3-2.7 1.3-5.1 2.7-7.4.9-1.6 3.9-2.8 5.6-2.3a3 3 0 0 1 2.2 1.9c1.3 3.4 2.2 7 2.5 10.7l.5 6.2c0 1.6.1 3.2-.1 4.8-.3 2.3-1.8 3.5-3.6 4.6l-1 .6z"/><path fill-rule="evenodd" clip-rule="evenodd" fill="#fff" d="M232.4 138.3c-.4 2.5-.9 5-.7 7.5.1 2.6-.3 5.3.4 7.9.5 1.6.4 1.6-1.2 1.9-4.7.6-9.2.2-13.8-1-1-.2-.8-.5-.3-1 1.2-1.1 2.1-2.6 3.4-3.6 2-1.7 3.7-3.7 5.6-5.5l5.4-5.6a2 2 0 0 1 1.2-.6z"/><path fill-rule="evenodd" clip-rule="evenodd" fill="#87CBF3" d="M316.4 156.7c1.4-4 1-8 1.1-12 0-1.4-.3-2.8.3-4.1.7-1.3 1.4-2.5 2.8-3.1 1.2-.5 1.7-.2 1.9 1 .7 6.2-.7 12-3.4 17.4-.5 1-1.6.6-2.7.8zm-9 3.4c-.4-1-.1-2-.2-2.9-.3-3.7-.8-7.3-1.6-11-.1-.7.2-1.4.3-2.1l.6-3c0-.3.2-.5.3-.7a2 2 0 0 1 1.8-1.1c.8 0 .7.8.9 1.4 1 4.6.8 9.1-.3 13.7-.5 1.9-.7 3.9-1.7 5.7z"/><path fill-rule="evenodd" clip-rule="evenodd" fill="#fff" d="M248 173.8c-2 0-3.3-.6-4.5-1.6-.6-.5-1.2-1-.3-1.9.3-.2.4-.7.6-1.2 1.1 1.8 2.7 3 4.1 4.7zm25-4.4c1-.8 1.2-2.1 2.1-3 .2-.1.5-.7.7-.2.4.9 1.2.8 2 1-1.6 1-3.2 1.6-4.8 2.2zM98.5 229.6h-.2.1zM337.6 126c-.4 0-.6-.2-.9-.5-1.4-1.4-1.5-3.3-1.7-5-.1-1 .8-1.7 1.6-2.2.3-.1.7-.2.9-.4.8-1.7 1-.2 1.3.3a20 20 0 0 1 2.6 7.2c0 .3.4 1-.1 1-.6.2-.6-.3-.7-.7-.1-.7-.4-.8-.8-.3-.6.5-1.4.5-2.2.6z"/><path fill-rule="evenodd" clip-rule="evenodd" fill="#030302" d="M187.3 164.4c1.5-.5 2.8-.5 4 .4.3.2.6.3.9.2 1.4-.2 2.1.7 2.8 1.7a6.1 6.1 0 0 1-.2 6.8 4.8 4.8 0 0 1-3 2.2h-.5c-1.2 1.8-3 1.2-4.5 1-1.4 0-2.2-1.4-2.6-2.7-.5-1.7-.6-3.5-.5-5.2 0-1 .9-2 1.7-2.8l2-1.6zm4.5 7c.3-.3.5-.8.7-1.2.1-.3.3-.5-.1-.7-.3 0-.6-.2-.9-.1-.4 0-.1.4 0 .6 0 .5 0 1 .3 1.4zm-4 2.1c1.8-.8 1.8-.8.9-1.9-.2.7-.9 1-1 2z"/><path fill-rule="evenodd" clip-rule="evenodd" fill="#fff" d="M191.8 171.4c-.4-.4-.3-.9-.4-1.3 0-.3-.3-.6.1-.7.3-.1.6 0 .9.1.4.2.2.5 0 .7 0 .5-.3.9-.6 1.2zm-4 2.1c0-.9.6-1.2.9-1.9.9 1.1.9 1.1-1 2z"/></g>
<path class="stroke stroke--first" stroke-dasharray="100% 100%" stroke-dashoffset='-100%' data-bottom-top="stroke-dashoffset: -100%;" data-center-center="stroke-dashoffset: 0;" stroke="#FF2165" stroke-width="14" stroke-miterlimit="10" d="M153.6 184c-10.1 40.5-20.3 83-30.4 123.4a15 15 0 0 1-.7 2.3 7 7 0 0 1-11.4 2.4l-1.7-2.1-31.8-43-1.1-1.5-.8 1.2L8.3 384.1l-.7 1.1" fill="none"/></svg>
