<svg xmlns="http://www.w3.org/2000/svg" width="20.54" height="14.27" viewBox="0 0 20.54 14.27"><path fill="#E62C66" d="M9.79 7.53c-.03.14-.09.22-.2.24s-.18.09-.23.23c-.12.32-.19.52-.22.59-.03.07-.06.12-.09.13-.03.02-.06.05-.11.11-.04.06-.12.23-.24.52-.2.41-.46.82-.76 1.24-.3.42-.5.83-.59 1.24-.41.35-.91.79-1.5 1.33s-1.15.91-1.68 1.11c-.26-.12-.67-.3-1.24-.54-.57-.25-1.1-.54-1.61-.87-.51-.33-.89-.68-1.15-1.04-.26-.36-.23-.72.09-1.07.52-.55.98-1.21 1.37-1.98s.74-1.6 1.04-2.48c.3-.88.57-1.8.78-2.74.23-.95.42-1.85.6-2.72.12.12.24.15.37.11.13-.04.25-.12.35-.22s.2-.22.3-.37.18-.26.24-.35c.17.15.47.32.89.52.42.2.86.4 1.33.59.46.19.9.36 1.31.5.41.15.7.23.87.26.35.55.54 1.05.57 1.5s.1.92.22 1.41c-.17.15-.28.38-.3.72-.03.33-.06.57-.09.72-.03.23-.08.37-.15.41-.09.05-.15.17-.21.37-.03.06-.02.15.02.27.04.11.05.2.02.26zM15.93 0c.17.15.46.32.85.52s.8.4 1.24.59c.43.19.85.36 1.24.5.39.15.67.23.85.26.29.55.42 1.05.39 1.5s-.01.92.04 1.41c-.17.15-.3.38-.37.72-.07.33-.12.57-.15.72-.06.23-.13.37-.22.41-.09.05-.18.17-.26.37-.03.06-.02.15.02.26.04.12.05.2.02.26-.06.15-.15.22-.26.24-.12.02-.21.1-.26.24-.15.32-.24.52-.28.59-.04.07-.07.12-.09.13-.01.01-.04.05-.09.11s-.15.23-.33.52c-.23.41-.52.82-.87 1.24s-.59.83-.74 1.24c-.23.17-.49.38-.76.61-.28.23-.57.47-.89.72-.32.25-.63.47-.94.67s-.59.35-.85.44c-.26-.12-.66-.3-1.2-.54-.54-.25-1.04-.54-1.5-.87-.46-.33-.81-.68-1.02-1.04-.22-.36-.15-.72.2-1.07.58-.55 1.11-1.21 1.59-1.98s.91-1.6 1.31-2.48c.39-.88.75-1.8 1.07-2.74.32-.94.62-1.85.91-2.72.12.12.23.15.35.11.12-.04.23-.12.35-.22s.23-.22.35-.37c.11-.15.21-.26.3-.35z"/></svg>